<svg xmlns="http://www.w3.org/2000/svg" width="700" height="500" viewBox="0 0 700 500"><defs><style>.cls-1,.繧ｰ繝ｩ繝輔ぅ繝け繧ｹ繧ｿ繧､繝ｫ-4,.繧ｰ繝ｩ繝輔ぅ繝け繧ｹ繧ｿ繧､繝ｫ-8{fill:#fff;}.cls-2{fill:#e83589;}.cls-3,.cls-4,.繧ｰ繝ｩ繝輔ぅ繝け繧ｹ繧ｿ繧､繝ｫ,.繧ｰ繝ｩ繝輔ぅ繝け繧ｹ繧ｿ繧､繝ｫ-7{fill:none;}.cls-3,.cls-4,.繧ｰ繝ｩ繝輔ぅ繝け繧ｹ繧ｿ繧､繝ｫ,.繧ｰ繝ｩ繝輔ぅ繝け繧ｹ繧ｿ繧､繝ｫ-2,.繧ｰ繝ｩ繝輔ぅ繝け繧ｹ繧ｿ繧､繝ｫ-4,.繧ｰ繝ｩ繝輔ぅ繝け繧ｹ繧ｿ繧､繝ｫ-7,.繧ｰ繝ｩ繝輔ぅ繝け繧ｹ繧ｿ繧､繝ｫ-8{stroke:#000;}.cls-3,.cls-4{stroke-linecap:round;stroke-linejoin:round;}.cls-3{stroke-width:1.43px;}.cls-4{stroke-width:1.83px;}.繧ｰ繝ｩ繝輔ぅ繝け繧ｹ繧ｿ繧､繝ｫ,.繧ｰ繝ｩ繝輔ぅ繝け繧ｹ繧ｿ繧､繝ｫ-4,.繧ｰ繝ｩ繝輔ぅ繝け繧ｹ繧ｿ繧､繝ｫ-8{stroke-miterlimit:10;}.繧ｰ繝ｩ繝輔ぅ繝け繧ｹ繧ｿ繧､繝ｫ,.繧ｰ繝ｩ繝輔ぅ繝け繧ｹ繧ｿ繧､繝ｫ-2{stroke-width:2px;}.繧ｰ繝ｩ繝輔ぅ繝け繧ｹ繧ｿ繧､繝ｫ-7{stroke-linejoin:bevel;}.繧ｰ繝ｩ繝輔ぅ繝け繧ｹ繧ｿ繧､繝ｫ-7,.繧ｰ繝ｩ繝輔ぅ繝け繧ｹ繧ｿ繧､繝ｫ-8{stroke-width:1.5px;}.繧ｰ繝ｩ繝輔ぅ繝け繧ｹ繧ｿ繧､繝ｫ-2{fill:#d8eacc;}.cls-5{fill:#030201;}.cls-6{fill:#242323;}.繧ｰ繝ｩ繝輔ぅ繝け繧ｹ繧ｿ繧､繝ｫ-4{stroke-width:1.27px;}</style></defs><title>kukakuzu</title><g id="レイヤー_2" data-name="レイヤー 2"><rect class="cls-1" width="700" height="500"/><rect class="cls-2" x="115.24" y="88.5" width="39.3" height="95.53" transform="translate(-1.37 271.16) rotate(-90)"/><path class="cls-1" d="M104.36,142.11h15.55v2.09H104.36v1.41H102V127.05h17.33v2h-15Zm.68-2.34a19.24,19.24,0,0,0,5.42-4,52.79,52.79,0,0,0-4.83-3.52l1.41-1.58c1.72,1.08,3.21,2.14,4.85,3.4a27,27,0,0,0,2.69-4.44l2.1,1a30.68,30.68,0,0,1-3,4.85c1.16,1,2.7,2.33,4.25,3.8L116.28,141c-1.34-1.35-2.86-2.74-4.08-3.8a20.91,20.91,0,0,1-5.77,4.36Z"/><path class="cls-1" d="M133.52,128.88h-8.69V127h19.7v1.87h-8.81v2h4.44v10.35h-11V130.87h4.33Zm8.21,13.68V130.87h2.12v14.74h-2.12v-1.14H127.61v1.14h-2.09V130.87h2.09v11.69Zm-10.57-10v2.51h2.45v-2.51Zm0,4.11v2.8h2.45v-2.8Zm4.48-1.6h2.55v-2.51h-2.55Zm0,4.4h2.55v-2.8h-2.55Z"/><path class="cls-1" d="M167.72,145.61h-2.26v-1.05H152v1.05h-2.24V126.87h17.93Zm-15.69-3h13.43V128.75H152Zm11.5-.9c-1.3-.8-2.84-1.68-4.23-2.38a17.43,17.43,0,0,1-5.37,3l-1.28-1.56a13.4,13.4,0,0,0,4.66-2.45l-.53-.24c-1.35-.67-2.35-1.1-4.11-1.83l.93-1.53a54.79,54.79,0,0,1,5.29,2.17,17.5,17.5,0,0,0,3.86-7l2,.63a23.63,23.63,0,0,1-3.94,7.34l.18.1c1,.52,2.18,1.14,3.76,2.07Zm-8.73-6.78a18.87,18.87,0,0,0-1.65-4.06l1.9-.77a20.63,20.63,0,0,1,1.73,4.05Zm3.57-.8a24.05,24.05,0,0,0-1.68-4.09l1.83-.73a19.28,19.28,0,0,1,1.72,4Z"/><polyline class="cls-3" points="120.43 193.48 120.43 181.74 127.34 193.48 127.34 181.74"/><circle class="cls-4" cx="132.87" cy="223.14" r="24.35"/><polygon points="136.6 236.28 149.46 239.93 126.38 200.29 127.58 246.15 136.6 236.28"/><path d="M281.54,393.08v1.43h-8.72v2.54h6.72V405c0,1.15-.52,1.56-1.92,1.56-.82,0-1.63,0-2.44-.12l-.26-1.5a16.85,16.85,0,0,0,2.4.19c.51,0,.63-.09.63-.57v-6.09h-5.13v10.77h-1.57V398.44h-4.88v8.31H264.8v-9.7h6.45v-2.54H262.7v-1.43h8.55v-2.71h1.57v2.71Z"/><path d="M288.16,405.09c1.61,1.6,3.45,2.22,6.79,2.24h7.79a7.19,7.19,0,0,0-.47,1.4h-7.54c-3.47,0-5.4-.69-7.1-2.42a19.36,19.36,0,0,1-3.1,2.92l-.87-1.41a19.06,19.06,0,0,0,3-2.28v-5.31h-2.94v-1.35h4.44Zm-.85-9.9a20.1,20.1,0,0,0-2.9-3.38l1.1-.91a19.08,19.08,0,0,1,3,3.24Zm1.94-1.05v-1.25h3.52A12.92,12.92,0,0,0,291.5,391l1.38-.53a13.31,13.31,0,0,1,1.43,2.44h2.58a20.08,20.08,0,0,0,1.09-2.48l1.57.39a16,16,0,0,1-1.13,2.09h3.71v1.25H296.4c-.1.33-.42,1.17-.62,1.64h5V405.9h-10.1V395.78h3.65a13.39,13.39,0,0,0,.52-1.64Zm2.88,4.6h7.14v-1.83h-7.14Zm0,2.87h7.14v-1.8h-7.14Zm0,3.12h7.14v-2h-7.14Z"/><path d="M212.17,423.7a23.47,23.47,0,0,0-3.1-3.06l1.06-1.09a18.54,18.54,0,0,1,3.15,3Zm-2.62,8.07a30,30,0,0,0,3.49-6.51l1.25,1a33.29,33.29,0,0,1-3.47,6.7Zm3.33-13.13a21.33,21.33,0,0,0-3-3.1l1-1a18.41,18.41,0,0,1,3.09,3Zm7.86,5.63,0,0a44.25,44.25,0,0,1-2.82,6.15l-.08.18,1.47-.12c1.47-.12,3.71-.36,5.47-.59-.61-1-1.32-2.11-2.08-3.16l1.25-.69a35.53,35.53,0,0,1,3.91,6l-1.41.89c-.45-.93-.65-1.33-1-1.92l-.2,0c-2.2.43-6.88,1-10.14,1.33l-.51-1.57.79,0,.24,0,.54,0a45,45,0,0,0,2.93-6.59h-5v-1.33h6v-4h-5v-1.37h5v-3.2h1.55v3.2H227v1.37h-5.28v4H228v1.33h-7.22Z"/><path d="M240.35,415.56V426.3h3.08v1.52h-3.08v3.91h-1.74v-3.91h-8.18v-1.51l7.74-10.75Zm-1.74,5c0-.91,0-2.46.09-3.43h-.07a24.25,24.25,0,0,1-1.45,2.52l-4.72,6.63h6.15Z"/><path d="M247.79,430.16c.51-2.12,2.26-4.24,4.94-6l.51-.33c2.78-1.81,3.51-2.68,3.51-4.13,0-1.63-1.35-2.72-3.39-2.72a5,5,0,0,0-4.11,2.12L248,418a6.4,6.4,0,0,1,5.44-2.65c3.09,0,5.35,1.82,5.35,4.34,0,2-.77,2.94-4.32,5.2l-.71.45c-2.36,1.55-3.85,3.26-4,4.68H259v1.69H247.79Z"/><path d="M272.82,433.12h-1.53v-6.35a19.36,19.36,0,0,1-7.72,5.56l-.91-1.27A19.56,19.56,0,0,0,270,426.4h-7.26v-1.33h8.55V422.9h1.53v2.17h8.68v1.33h-7.34a21,21,0,0,0,7.46,4.2l-1,1.39a20.06,20.06,0,0,1-7.83-5.34Zm5.37-17a18.33,18.33,0,0,1-4.56,4.15,27.28,27.28,0,0,0,7.54,2.34l-.82,1.35a30.94,30.94,0,0,1-8.07-2.84,27.45,27.45,0,0,1-8.31,3l-.8-1.23a25.75,25.75,0,0,0,7.88-2.6,25.32,25.32,0,0,1-2.82-2.49,16.92,16.92,0,0,1-3.45,2.12l-1-1a13.68,13.68,0,0,0,5.93-4.74l1.51.29c-.3.46-.38.54-.66.92h6.79Zm-8.65.5c-.14.15-.2.19-.32.31a15.34,15.34,0,0,0,3.12,2.6,17.59,17.59,0,0,0,3.55-2.91Z"/><path d="M290.36,417.43a23.57,23.57,0,0,1-3.84,1.19l-.44-1.49a16,16,0,0,0,4.8-1.76h1.33v16.36h-1.85Z"/><path d="M304.27,426.83l.11,0,.08,0c.74-.24,1.67-.59,2.25-.85l.15,1.41a55.61,55.61,0,0,1-6.4,2.34l-.56-1.53c1.11-.3,1.27-.34,2.34-.65l.48-.14V418h-2.58v-1.4h6.29V418h-2.16Zm1.4,5.2a12.06,12.06,0,0,0,4.17-2.74l1.21.81a14.83,14.83,0,0,1-4.28,3.08Zm11.53-13.55v10.57h-9.52V418.48h3.09a17.69,17.69,0,0,0,.54-2h-5v-1.31h12.26v1.31h-5.75a17.34,17.34,0,0,1-.68,2Zm-8.05,1.21v1.92h6.56v-1.92Zm0,4.94h6.56v-1.85h-6.56Zm0,3.19h6.56v-2h-6.56Zm8.37,5.28a27.07,27.07,0,0,0-4-3l1.09-.87a26.27,26.27,0,0,1,4.05,2.74Z"/><path d="M327.65,417.43a23.7,23.7,0,0,1-3.85,1.19l-.44-1.49a15.91,15.91,0,0,0,4.8-1.76h1.33v16.36h-1.84Z"/><path d="M343.35,423.94a18.31,18.31,0,0,1-.65,1.94h11.15a19.16,19.16,0,0,1-1.05,5.67c-.5,1.11-1.13,1.43-2.92,1.43-1.05,0-2.46-.06-3.43-.14l-.36-1.51c1.37.12,2.7.2,3.65.2s1.29-.16,1.57-.79a18.5,18.5,0,0,0,.75-3.51h-9.9c-.25.55-.53,1.13-.83,1.68l-1.61-.45a27.18,27.18,0,0,0,2-4.52h-4.43v-1.35h18.85v1.35Zm9.8-3.16H340.2v-5.63h12.95Zm-11.34-1.27h9.74v-3.05h-9.74Z"/><line class="繧ｰ繝ｩ繝輔ぅ繝け繧ｹ繧ｿ繧､繝ｫ" x1="568.77" y1="29.58" x2="568.77" y2="463.97"/><polyline class="繧ｰ繝ｩ繝輔ぅ繝け繧ｹ繧ｿ繧､繝ｫ" points="486.68 29.57 486.68 320.09 443.51 381.97"/><line class="繧ｰ繝ｩ繝輔ぅ繝け繧ｹ繧ｿ繧､繝ｫ" x1="167.81" y1="381.97" x2="443.51" y2="381.97"/><polyline class="繧ｰ繝ｩ繝輔ぅ繝け繧ｹ繧ｿ繧､繝ｫ" points="167.81 447.31 443.51 447.31 486.68 478.93"/><path d="M548.15,204.36v1.43h-8.72v2.54h6.72v7.91c0,1.16-.51,1.57-1.92,1.57-.82,0-1.63,0-2.44-.12l-.26-1.5a18.6,18.6,0,0,0,2.4.19c.52,0,.64-.1.64-.57v-6.09h-5.14v10.77h-1.57V209.72H533V218h-1.57v-9.7h6.45v-2.54h-8.55v-1.43h8.55v-2.71h1.57v2.71Z"/><path d="M533.75,237.39c1.61,1.6,3.46,2.22,6.79,2.24h7.79a7.93,7.93,0,0,0-.47,1.4h-7.54c-3.47,0-5.4-.69-7.1-2.42a19,19,0,0,1-3.1,2.92l-.87-1.41a19.06,19.06,0,0,0,3-2.28v-5.32h-2.94v-1.34h4.44Zm-.85-9.9a20.1,20.1,0,0,0-2.9-3.38l1.1-.91a19.08,19.08,0,0,1,3,3.24Zm2-1.05v-1.25h3.51a12.92,12.92,0,0,0-1.27-1.91l1.39-.53a13.83,13.83,0,0,1,1.42,2.44h2.58a18.68,18.68,0,0,0,1.09-2.48l1.57.39a16,16,0,0,1-1.13,2.09h3.71v1.25H542c-.1.33-.42,1.17-.62,1.64h5V238.2h-10.1V228.08h3.65a13.39,13.39,0,0,0,.52-1.64Zm2.87,4.6h7.14v-1.83h-7.14Zm0,2.87h7.14v-1.8h-7.14Zm0,3.12h7.14v-2h-7.14Z"/><path d="M508.42,159.9a24,24,0,0,0-3.1-3.05l1.05-1.09a18.54,18.54,0,0,1,3.16,3ZM505.8,168a30,30,0,0,0,3.49-6.51l1.25,1a33.66,33.66,0,0,1-3.47,6.71Zm3.33-13.14a20.79,20.79,0,0,0-3-3.09l1-1a18,18,0,0,1,3.09,2.95Zm7.86,5.64,0,0a45.33,45.33,0,0,1-2.82,6.15l-.08.18,1.47-.12c1.47-.12,3.71-.36,5.47-.6-.61-1-1.33-2.1-2.08-3.15l1.25-.7a36.34,36.34,0,0,1,3.91,6l-1.41.9c-.46-.94-.65-1.33-1-1.93l-.2,0c-2.2.44-6.88,1-10.14,1.33l-.51-1.57.79,0,.24,0,.53,0a43.86,43.86,0,0,0,2.94-6.58h-5v-1.33h6.05v-4h-5v-1.37h5v-3.19h1.55v3.19h5.28V155h-5.28v4h6.31v1.33H517Z"/><path d="M515.52,211.37H514V205a19.3,19.3,0,0,1-7.71,5.55l-.92-1.27a19.28,19.28,0,0,0,7.34-4.66h-7.26v-1.33H514v-2.16h1.53v2.16h8.69v1.33h-7.34a20.64,20.64,0,0,0,7.46,4.21l-1,1.39a20.06,20.06,0,0,1-7.83-5.34Zm5.37-17a18.13,18.13,0,0,1-4.56,4.14,27.17,27.17,0,0,0,7.54,2.34l-.81,1.35a30.52,30.52,0,0,1-8.08-2.83,27.62,27.62,0,0,1-8.31,3l-.79-1.23a26,26,0,0,0,7.87-2.6,23.69,23.69,0,0,1-2.81-2.5,16.6,16.6,0,0,1-3.46,2.13l-1-1a13.54,13.54,0,0,0,5.93-4.74l1.51.3c-.3.46-.38.54-.65.91h6.78Zm-8.64.49c-.14.16-.2.2-.32.32a15.66,15.66,0,0,0,3.11,2.6,17.24,17.24,0,0,0,3.55-2.92Z"/><path d="M514.35,216.2a25.3,25.3,0,0,1-3.89,1.17l-.4-1.43a19.06,19.06,0,0,0,4.78-1.76h1.29v16.36h-1.78Z"/><path d="M509.69,245.73l.12,0,.08,0a23.52,23.52,0,0,0,2.24-.85l.15,1.41a53.8,53.8,0,0,1-6.4,2.34l-.56-1.53c1.11-.29,1.27-.33,2.34-.65l.48-.14v-9.32h-2.58V235.5h6.29v1.41h-2.16Zm1.41,5.2a12,12,0,0,0,4.16-2.74l1.21.82a14.61,14.61,0,0,1-4.28,3.07Zm11.52-13.55V248H513.1V237.38h3.09a17.69,17.69,0,0,0,.54-2h-5v-1.31H524v1.31h-5.75a16.71,16.71,0,0,1-.68,2Zm-8,1.21v1.93h6.56v-1.93Zm0,4.94h6.56v-1.84h-6.56Zm0,3.2h6.56v-2h-6.56Zm8.37,5.27a26.32,26.32,0,0,0-4-3l1.09-.88a27,27,0,0,1,4.05,2.74Z"/><path d="M514.35,256.86a26.46,26.46,0,0,1-3.89,1.17l-.4-1.43a19,19,0,0,0,4.78-1.77h1.29V271.2h-1.78Z"/><path d="M511.49,283.49a20.2,20.2,0,0,1-.65,1.95H522a18.52,18.52,0,0,1-1.05,5.67c-.49,1.11-1.13,1.43-2.91,1.43-1,0-2.46-.06-3.43-.14l-.36-1.51c1.37.12,2.7.2,3.65.2s1.29-.16,1.57-.79a19.54,19.54,0,0,0,.75-3.51h-9.9c-.26.55-.53,1.13-.83,1.68l-1.61-.45a26.94,26.94,0,0,0,2-4.53H505.4v-1.35h18.85v1.35Zm9.8-3.15H508.34v-5.63h12.95Zm-11.35-1.27h9.74V276h-9.74Z"/><path d="M511.18,172.94v10.73h3.07v1.53h-3.07v3.91h-1.75V185.2h-8.17v-1.51L509,172.94Zm-1.75,5c0-.91,0-2.46.1-3.43h-.08a21.08,21.08,0,0,1-1.45,2.52l-4.72,6.62h6.15Z"/><path d="M516,187.54c.52-2.12,2.26-4.24,4.94-6l.52-.34c2.78-1.8,3.51-2.67,3.51-4.12,0-1.63-1.35-2.72-3.39-2.72a5,5,0,0,0-4.11,2.12l-1.25-1a6.41,6.41,0,0,1,5.44-2.66c3.09,0,5.35,1.83,5.35,4.35,0,2-.77,2.93-4.32,5.19l-.72.46c-2.36,1.55-3.84,3.25-4,4.68h9.3v1.69H516Z"/><polyline class="繧ｰ繝ｩ繝輔ぅ繝け繧ｹ繧ｿ繧､繝ｫ-7" points="561.92 55.72 568.77 49.75 486.21 49.76 495.05 42.99"/><path d="M505.9,36.24a4.31,4.31,0,0,1,3.85-2.12,4.58,4.58,0,0,1,4.69,4.59,4.76,4.76,0,0,1-4.9,5,4.88,4.88,0,0,1-4.23-2.2,7.08,7.08,0,0,1-1.23-4.39,9.29,9.29,0,0,1,2.22-5.6,11,11,0,0,1,5.31-3.37l.65,1.28c-3.68,1.31-6,3.74-6.43,6.8Zm.18,2.51a3.54,3.54,0,0,0,3.4,3.54,3.26,3.26,0,0,0,3.23-3.47,3.15,3.15,0,0,0-3.24-3.37A3.48,3.48,0,0,0,506.08,38.75Z"/><path d="M518.38,40.87v2.58H515.8V40.87Z"/><path d="M525.4,30.46a21.31,21.31,0,0,1-3.5,1.08l-.39-1.35a14.11,14.11,0,0,0,4.35-1.6h1.21V43.45H525.4Z"/><path d="M543.36,28.86v1.21a47.17,47.17,0,0,0-4.88,13.38h-1.69a56.61,56.61,0,0,1,4.68-13.15h-7v3.37h-1.57V28.86Z"/><path d="M555.28,36.15c0,4.69-2.07,7.57-5.4,7.57s-5.4-2.9-5.4-7.57,2.07-7.56,5.41-7.56S555.28,31.49,555.28,36.15Zm-9,0c0,3.79,1.39,6.12,3.65,6.12s3.62-2.33,3.62-6.12S552.13,30,549.86,30,546.24,32.37,546.24,36.15Z"/><polyline class="繧ｰ繝ｩ繝輔ぅ繝け繧ｹ繧ｿ繧､繝ｫ-7" points="444.91 390.43 437.53 381.97 437.54 447.31 430.78 438.46"/><path d="M453,436.28h9.74v-2.79h1.39v2.79h3.54v1.59h-3.54v7.42h-1.37l-9.76-7Zm4.55,1.59c-.83,0-2.23,0-3.11-.09v.07a20.16,20.16,0,0,1,2.28,1.32l6,4.28v-5.58Z"/><path d="M465.12,430.08h2.57v2.57h-2.57Z"/><path d="M454.71,423.06a21.18,21.18,0,0,1,1.08,3.49l-1.35.39a14.37,14.37,0,0,0-1.6-4.35v-1.21h14.85v1.68Z"/><path d="M453,407.79h9.74V405h1.39v2.79h3.54v1.58h-3.54v7.42h-1.37l-9.76-7Zm4.55,1.58c-.83,0-2.23,0-3.11-.09v.08a18.89,18.89,0,0,1,2.28,1.31l6,4.29v-5.59Z"/><path d="M460.4,393.17c4.68,0,7.56,2.07,7.56,5.41s-2.9,5.4-7.56,5.4-7.56-2.07-7.56-5.42S455.74,393.17,460.4,393.17Zm0,9c3.78,0,6.12-1.38,6.12-3.65s-2.34-3.62-6.12-3.62-6.14,1.38-6.14,3.65S456.62,402.21,460.4,402.21Z"/><rect class="繧ｰ繝ｩ繝輔ぅ繝け繧ｹ繧ｿ繧､繝ｫ-2" x="220.44" y="45.45" width="266.24" height="150.95"/><polygon class="繧ｰ繝ｩ繝輔ぅ繝け繧ｹ繧ｿ繧､繝ｫ-2" points="459.07 365.57 443.51 381.97 220.44 381.97 220.44 196.41 486.68 196.41 486.68 334.84 459.07 365.57"/><polygon class="繧ｰ繝ｩ繝輔ぅ繝け繧ｹ繧ｿ繧､繝ｫ-8" points="375.1 81.01 375.1 55.75 240.84 55.75 240.84 138.88 399.25 138.88 399.25 81.01 375.1 81.01"/><path class="cls-1" d="M456.09,145.6a64.72,64.72,0,0,1-15.11,0c-5.8-.73-10.14-6.61-9.83-12a518.7,518.7,0,0,0,0-52.76c-.3-5.1,3.82-10.68,9.32-11.42a64.34,64.34,0,0,1,16.17,0c5.5.74,9.63,6.32,9.33,11.42a515.82,515.82,0,0,0,0,52.76C466.23,139,461.89,144.87,456.09,145.6Z"/><path class="cls-5" d="M448.54,146.24a63.86,63.86,0,0,1-7.58-.45c-5.67-.71-10.34-6.4-10-12.19a521,521,0,0,0,0-52.73,11.51,11.51,0,0,1,9.5-11.62,64.66,64.66,0,0,1,16.21,0,11.5,11.5,0,0,1,9.5,11.62,521.22,521.22,0,0,0,0,52.74c.34,5.78-4.33,11.47-10,12.18h0A63.81,63.81,0,0,1,448.54,146.24Zm0-77.11a63.78,63.78,0,0,0-8.06.51,11.1,11.1,0,0,0-9.16,11.21,522,522,0,0,1,0,52.78A11.61,11.61,0,0,0,441,145.41a65.39,65.39,0,0,0,15.06,0c5.47-.69,10-6.2,9.66-11.78a519.09,519.09,0,0,1,0-52.78,11.1,11.1,0,0,0-9.16-11.21A63.74,63.74,0,0,0,448.54,69.13Z"/><path class="cls-6" d="M460.59,135.7h-24.1c0,.28.06.57.09.85h23.91C460.52,136.27,460.56,136,460.59,135.7Z"/><path class="cls-5" d="M463,127.08l-.21-.72a72.09,72.09,0,0,1-2.31-19.2c0-.8,0-1.6,0-2.41v0l3.65-8.6,0,.67c0,2,.07,4,.07,5.88a232.45,232.45,0,0,1-1.18,23.68Zm-2.2-22.29c0,.79,0,1.59,0,2.37a73,73,0,0,0,2.1,18.37c.73-7.34,1.1-15,1.1-22.88,0-1.68,0-3.43-.06-5.19Z"/><path class="cls-5" d="M434,127.08l-.08-.75a232.45,232.45,0,0,1-1.18-23.68c0-1.88,0-3.86.07-5.88l0-.67,3.66,8.65c0,.81,0,1.61,0,2.41a72.06,72.06,0,0,1-2.32,19.2Zm-.91-29.62c0,1.78-.06,3.52-.06,5.19,0,7.85.37,15.54,1.1,22.88a73,73,0,0,0,2.1-18.37c0-.78,0-1.58,0-2.37Z"/><path class="cls-1" d="M464,94.45V81.8a13.54,13.54,0,0,0-13.49-13.51H446.6A13.54,13.54,0,0,0,433.11,81.8V94.45a69.24,69.24,0,0,1,30.85,0Z"/><path d="M464.1,94.63l-.18,0a66.88,66.88,0,0,0-15.38-1.74h-.21a68.06,68.06,0,0,0-15.18,1.74l-.18,0V81.8A13.65,13.65,0,0,1,446.6,68.15h3.87A13.65,13.65,0,0,1,464.1,81.8ZM446.6,68.44A13.36,13.36,0,0,0,433.26,81.8V94.26a68.21,68.21,0,0,1,15.07-1.7h.41a68.21,68.21,0,0,1,15.07,1.7V81.8a13.36,13.36,0,0,0-13.34-13.36Z"/><path class="cls-1" d="M459.68,124.07a73.7,73.7,0,0,0-22.29,0,32.39,32.39,0,0,0-.95,11.64h24.19A32.39,32.39,0,0,0,459.68,124.07Z"/><path d="M460.76,135.86H436.31v-.13a32.49,32.49,0,0,1,.95-11.7l0-.09.09,0a74.62,74.62,0,0,1,22.33,0l.1,0,0,.09a32.47,32.47,0,0,1,.95,11.7Zm-24.19-.29H460.5a32.48,32.48,0,0,0-.94-11.37,74.08,74.08,0,0,0-22.05,0A32.48,32.48,0,0,0,436.57,135.57Z"/><path class="cls-6" d="M460.63,135.71H436.44c0,.28.06.57.1.85h24C460.57,136.28,460.6,136,460.63,135.71Z"/><path class="cls-1" d="M436.54,136.56v6.07a29.07,29.07,0,0,0,24,0v-6.07Z"/><path d="M448.54,145.37a26.43,26.43,0,0,1-12.07-2.61l-.08,0v-6.31h24.29v6.31l-.08,0A26.41,26.41,0,0,1,448.54,145.37Zm-11.85-2.83a28.89,28.89,0,0,0,23.69,0V136.7H436.69Z"/><path class="cls-6" d="M463.86,94.37l.3-.82a58.74,58.74,0,0,0-31.24,0l.29.82A58.79,58.79,0,0,1,463.86,94.37Z"/><path class="cls-1" d="M433.64,94.33l3.75,10.26h22.29l3.75-10.26A57,57,0,0,0,433.64,94.33Z"/><path d="M459.78,104.73H437.29l-3.84-10.5.16,0a57.07,57.07,0,0,1,29.86,0l.15,0Zm-22.29-.29h22.09l3.66-10a56.8,56.8,0,0,0-29.4,0Z"/><path class="cls-5" d="M460.49,142.62h.15a3.31,3.31,0,0,0,3.3-3.3v-.24A8,8,0,0,1,460.49,142.62Z"/><path class="cls-5" d="M436.58,142.62h-.15a3.31,3.31,0,0,1-3.3-3.3v-.24A8,8,0,0,0,436.58,142.62Z"/><path class="cls-1" d="M468.06,102.47a1.38,1.38,0,0,0-.23-1.19L465.14,99a.34.34,0,0,0-.15-.07v2.16l3,1.69Z"/><path class="cls-5" d="M468.09,103l-3.24-1.82V98.71l.17,0a.43.43,0,0,1,.21.11l2.69,2.32a1.46,1.46,0,0,1,.28,1.33Zm-2.95-2,2.76,1.55,0-.09a1.18,1.18,0,0,0-.19-1l-2.59-2.24Z"/><path class="cls-1" d="M429,102.47a1.35,1.35,0,0,1,.24-1.19L431.94,99a.27.27,0,0,1,.14-.07v2.16l-3,1.69Z"/><path class="cls-5" d="M429,103l-.11-.46a1.46,1.46,0,0,1,.28-1.33l2.69-2.32a.43.43,0,0,1,.21-.11l.17,0v2.43Zm2.95-3.8-2.59,2.24a1.18,1.18,0,0,0-.19,1l0,.09,2.76-1.55Z"/><path class="cls-5" d="M456.47,86.64c0-4.86-.86-9.12-2.16-11.59a30.08,30.08,0,0,1,1.57,10.27,38.32,38.32,0,0,1-.39,5.54h.76A40.47,40.47,0,0,0,456.47,86.64Z"/><path class="cls-5" d="M440.6,86.64c0-4.86.86-9.12,2.16-11.59a30.08,30.08,0,0,0-1.57,10.27,36.9,36.9,0,0,0,.4,5.54h-.77A40.47,40.47,0,0,1,440.6,86.64Z"/><rect class="cls-1" x="437.39" y="104.59" width="22.29" height="19.49"/><path d="M459.82,124.22H437.25V104.44h22.57Zm-22.28-.3h22V104.73h-22Z"/><path class="cls-1" d="M343.35,297a63.65,63.65,0,0,1,15.11,0c5.8.73,10.14,6.61,9.83,12a518.7,518.7,0,0,0,0,52.76c.3,5.1-3.82,10.68-9.32,11.41a64.34,64.34,0,0,1-16.17,0c-5.5-.73-9.63-6.31-9.33-11.41a515.82,515.82,0,0,0,0-52.76C333.21,303.65,337.55,297.77,343.35,297Z"/><path class="cls-5" d="M350.9,296.4a66,66,0,0,1,7.58.44,12,12,0,0,1,10,12.19,521.22,521.22,0,0,0,0,52.74,11.51,11.51,0,0,1-9.5,11.62,64.66,64.66,0,0,1-16.21,0,11.51,11.51,0,0,1-9.5-11.62,521.22,521.22,0,0,0,0-52.74,12,12,0,0,1,10-12.19h0A66,66,0,0,1,350.9,296.4Zm0,77.11A63.78,63.78,0,0,0,359,373a11.1,11.1,0,0,0,9.16-11.21,522,522,0,0,1,0-52.78,11.6,11.6,0,0,0-9.65-11.78,64.38,64.38,0,0,0-15.07,0A11.6,11.6,0,0,0,333.72,309a522,522,0,0,1,0,52.78A11.1,11.1,0,0,0,342.85,373,63.74,63.74,0,0,0,350.9,373.51Z"/><path class="cls-6" d="M338.85,306.93H363c0-.28-.06-.56-.09-.84H339C338.92,306.37,338.88,306.65,338.85,306.93Z"/><path class="cls-5" d="M336.4,315.56l.21.72a72,72,0,0,1,2.31,19.2c0,.79,0,1.6,0,2.4v.06l-3.65,8.6,0-.68c0-2-.07-4-.07-5.87a232.45,232.45,0,0,1,1.18-23.68Zm2.2,22.29c0-.79,0-1.59,0-2.37a73.08,73.08,0,0,0-2.1-18.38c-.73,7.35-1.1,15-1.1,22.89,0,1.68,0,3.42.06,5.19Z"/><path class="cls-5" d="M365.41,315.56l.08.75A232.45,232.45,0,0,1,366.67,340c0,1.88,0,3.86-.07,5.87l0,.68-3.66-8.66c0-.8,0-1.61,0-2.4a72,72,0,0,1,2.32-19.2Zm.91,29.62c0-1.78.06-3.52.06-5.19,0-7.85-.37-15.54-1.1-22.89a73.08,73.08,0,0,0-2.1,18.38c0,.78,0,1.58,0,2.37Z"/><path class="cls-1" d="M335.48,348.19v12.65A13.53,13.53,0,0,0,349,374.34h3.87a13.53,13.53,0,0,0,13.49-13.5V348.19a69.24,69.24,0,0,1-30.85,0Z"/><path d="M335.34,348l.18,0a66.32,66.32,0,0,0,15.38,1.73h.21a68.06,68.06,0,0,0,15.18-1.74l.18,0v12.83a13.65,13.65,0,0,1-13.63,13.65H349a13.65,13.65,0,0,1-13.63-13.65Zm17.5,26.19a13.36,13.36,0,0,0,13.34-13.36V348.37a68.23,68.23,0,0,1-15.07,1.71h-.41a68.23,68.23,0,0,1-15.07-1.71v12.47A13.36,13.36,0,0,0,349,374.2Z"/><path class="cls-1" d="M339.76,318.57a74.36,74.36,0,0,0,22.29,0,32.42,32.42,0,0,0,.95-11.65H338.81A32.42,32.42,0,0,0,339.76,318.57Z"/><path d="M338.68,306.78h24.45v.13a32.49,32.49,0,0,1-.95,11.7l0,.09-.09,0a75.29,75.29,0,0,1-22.33,0l-.1,0,0-.09a32.49,32.49,0,0,1-.95-11.7Zm24.19.29H338.94a32.5,32.5,0,0,0,.94,11.37,74.08,74.08,0,0,0,22.05,0A32.5,32.5,0,0,0,362.87,307.07Z"/><path class="cls-6" d="M338.81,306.92H363c0-.28-.06-.56-.1-.84h-24C338.87,306.36,338.84,306.64,338.81,306.92Z"/><path class="cls-1" d="M362.9,306.08V300a29,29,0,0,0-24,0v6.07Z"/><path d="M350.9,297.27A26.43,26.43,0,0,1,363,299.88l.08,0v6.31H338.76v-6.31l.08,0A26.41,26.41,0,0,1,350.9,297.27Zm11.85,2.83a28.89,28.89,0,0,0-23.69,0v5.83h23.69Z"/><path class="cls-6" d="M335.58,348.27l-.3.81a58.77,58.77,0,0,0,31.25,0l-.3-.81A58.79,58.79,0,0,1,335.58,348.27Z"/><path class="cls-1" d="M365.8,348.31l-3.75-10.26H339.76L336,348.31A57.22,57.22,0,0,0,365.8,348.31Z"/><path d="M339.66,337.91h22.49l3.84,10.5-.16,0a57.28,57.28,0,0,1-29.86,0l-.15,0Zm22.29.29H339.86l-3.66,10a57,57,0,0,0,29.4,0Z"/><path class="cls-5" d="M339,300h-.15a3.32,3.32,0,0,0-3.3,3.3v.25A8.06,8.06,0,0,1,339,300Z"/><path class="cls-5" d="M362.86,300H363a3.32,3.32,0,0,1,3.3,3.3v.25A8.06,8.06,0,0,0,362.86,300Z"/><path class="cls-1" d="M331.38,340.17a1.35,1.35,0,0,0,.23,1.18l2.7,2.33a.27.27,0,0,0,.14.07v-2.17l-3-1.68Z"/><path class="cls-5" d="M331.35,339.68l3.24,1.82v2.43l-.17,0a.41.41,0,0,1-.21-.1l-2.69-2.33a1.44,1.44,0,0,1-.28-1.32Zm2.95,2-2.76-1.55,0,.08a1.2,1.2,0,0,0,.19,1l2.59,2.24Z"/><path class="cls-1" d="M370.43,340.17a1.32,1.32,0,0,1-.24,1.18l-2.69,2.33a.27.27,0,0,1-.14.07v-2.17l3-1.68Z"/><path class="cls-5" d="M370.46,339.68l.11.46a1.44,1.44,0,0,1-.28,1.32l-2.69,2.33a.41.41,0,0,1-.21.1l-.17,0V341.5Zm-2.95,3.8,2.59-2.24a1.2,1.2,0,0,0,.19-1l0-.08-2.76,1.55Z"/><path class="cls-5" d="M343,356c0,4.85.86,9.12,2.16,11.59a30.12,30.12,0,0,1-1.57-10.27,38.32,38.32,0,0,1,.39-5.54h-.76A40.47,40.47,0,0,0,343,356Z"/><path class="cls-5" d="M358.84,356c0,4.85-.86,9.12-2.16,11.59a30.12,30.12,0,0,0,1.57-10.27,36.9,36.9,0,0,0-.4-5.54h.77A40.47,40.47,0,0,1,358.84,356Z"/><rect class="cls-1" x="339.76" y="318.57" width="22.29" height="19.49" transform="translate(701.81 656.62) rotate(180)"/><path d="M339.62,318.42h22.57V338.2H339.62Zm22.28.29h-22v19.2h22Z"/><path class="cls-1" d="M392.48,297a63.65,63.65,0,0,1,15.11,0c5.8.73,10.14,6.61,9.83,12a518.7,518.7,0,0,0,0,52.76c.3,5.1-3.82,10.68-9.32,11.41a64.34,64.34,0,0,1-16.17,0c-5.51-.73-9.63-6.31-9.33-11.41a515.82,515.82,0,0,0,0-52.76C382.34,303.65,386.68,297.77,392.48,297Z"/><path class="cls-5" d="M400,296.4a66,66,0,0,1,7.58.44,12,12,0,0,1,10,12.19,518.31,518.31,0,0,0,0,52.74,11.51,11.51,0,0,1-9.5,11.62,64.66,64.66,0,0,1-16.21,0,11.5,11.5,0,0,1-9.5-11.62,521.22,521.22,0,0,0,0-52.74c-.34-5.78,4.33-11.47,10-12.19h0A66,66,0,0,1,400,296.4Zm0,77.11a63.78,63.78,0,0,0,8.06-.51,11.1,11.1,0,0,0,9.16-11.21,519.09,519.09,0,0,1,0-52.78,11.61,11.61,0,0,0-9.66-11.78,64.29,64.29,0,0,0-15.06,0c-5.47.69-10,6.19-9.66,11.78a519.09,519.09,0,0,1,0,52.78A11.1,11.1,0,0,0,392,373,63.74,63.74,0,0,0,400,373.51Z"/><path class="cls-6" d="M388,306.93h24.1c0-.28-.06-.56-.09-.84H388.08C388.05,306.37,388,306.65,388,306.93Z"/><path class="cls-5" d="M385.53,315.56l.21.72a72,72,0,0,1,2.31,19.2c0,.79,0,1.6,0,2.4v.06l-3.65,8.6,0-.68c0-2-.07-4-.07-5.87a232.45,232.45,0,0,1,1.18-23.68Zm2.2,22.29c0-.79,0-1.59,0-2.37a73.08,73.08,0,0,0-2.1-18.38c-.73,7.35-1.1,15-1.1,22.89,0,1.68,0,3.42.06,5.19Z"/><path class="cls-5" d="M414.54,315.56l.08.75A232.45,232.45,0,0,1,415.8,340c0,1.88,0,3.86-.07,5.87l0,.68L412,337.88c0-.8,0-1.61,0-2.4a72,72,0,0,1,2.32-19.2Zm.91,29.62c0-1.78.06-3.52.06-5.19,0-7.85-.37-15.54-1.11-22.89a73.58,73.58,0,0,0-2.09,18.38c0,.78,0,1.58,0,2.37Z"/><path class="cls-1" d="M384.61,348.19v12.65a13.53,13.53,0,0,0,13.49,13.5H402a13.53,13.53,0,0,0,13.49-13.5V348.19a69.24,69.24,0,0,1-30.85,0Z"/><path d="M384.47,348l.18,0A66.32,66.32,0,0,0,400,349.78h.21a68.06,68.06,0,0,0,15.18-1.74l.18,0v12.83A13.65,13.65,0,0,1,402,374.49H398.1a13.65,13.65,0,0,1-13.63-13.65ZM402,374.2a13.36,13.36,0,0,0,13.34-13.36V348.37a68.23,68.23,0,0,1-15.07,1.71h-.41a68.23,68.23,0,0,1-15.07-1.71v12.47A13.36,13.36,0,0,0,398.1,374.2Z"/><path class="cls-1" d="M388.89,318.57a74.36,74.36,0,0,0,22.29,0,32.42,32.42,0,0,0,.95-11.65H387.94A32.42,32.42,0,0,0,388.89,318.57Z"/><path d="M387.81,306.78h24.45v.13a32.49,32.49,0,0,1-.95,11.7l0,.09-.09,0a75.29,75.29,0,0,1-22.33,0l-.1,0,0-.09a32.49,32.49,0,0,1-.95-11.7Zm24.18.29H388.07a32.5,32.5,0,0,0,.94,11.37,74.08,74.08,0,0,0,22.05,0A32.26,32.26,0,0,0,412,307.07Z"/><path class="cls-6" d="M387.94,306.92h24.19c0-.28-.07-.56-.1-.84H388C388,306.36,388,306.64,387.94,306.92Z"/><path class="cls-1" d="M412,306.08V300a29,29,0,0,0-24,0v6.07Z"/><path d="M400,297.27a26.43,26.43,0,0,1,12.07,2.61l.08,0v6.31H387.89v-6.31l.08,0A26.38,26.38,0,0,1,400,297.27Zm11.85,2.83a28.89,28.89,0,0,0-23.69,0v5.83h23.69Z"/><path class="cls-6" d="M384.71,348.27l-.3.81a58.74,58.74,0,0,0,31.24,0l-.29-.81A58.79,58.79,0,0,1,384.71,348.27Z"/><path class="cls-1" d="M414.93,348.31l-3.75-10.26H388.89l-3.75,10.26A57.22,57.22,0,0,0,414.93,348.31Z"/><path d="M388.79,337.91h22.49l3.84,10.5-.16,0a57.28,57.28,0,0,1-29.86,0l-.15,0Zm22.28.29H389l-3.66,10a57,57,0,0,0,29.4,0Z"/><path class="cls-5" d="M388.08,300h-.15a3.31,3.31,0,0,0-3.3,3.3v.25A8.06,8.06,0,0,1,388.08,300Z"/><path class="cls-5" d="M412,300h.16a3.32,3.32,0,0,1,3.3,3.3v.25A8,8,0,0,0,412,300Z"/><path class="cls-1" d="M380.51,340.17a1.32,1.32,0,0,0,.23,1.18l2.69,2.33a.34.34,0,0,0,.15.07v-2.17l-3-1.68Z"/><path class="cls-5" d="M380.48,339.68l3.24,1.82v2.43l-.17,0a.41.41,0,0,1-.21-.1l-2.69-2.33a1.44,1.44,0,0,1-.28-1.32Zm2.95,2-2.76-1.55,0,.08a1.2,1.2,0,0,0,.19,1l2.59,2.24Z"/><path class="cls-1" d="M419.56,340.17a1.32,1.32,0,0,1-.24,1.18l-2.69,2.33a.27.27,0,0,1-.14.07v-2.17l3-1.68Z"/><path class="cls-5" d="M419.59,339.68l.11.46a1.44,1.44,0,0,1-.28,1.32l-2.69,2.33a.5.5,0,0,1-.21.1l-.17,0V341.5Zm-2.95,3.8,2.59-2.24a1.17,1.17,0,0,0,.18-1v-.08l-2.76,1.55Z"/><path class="cls-5" d="M392.1,356c0,4.85.86,9.12,2.16,11.59a30.12,30.12,0,0,1-1.57-10.27,38.32,38.32,0,0,1,.39-5.54h-.76A40.47,40.47,0,0,0,392.1,356Z"/><path class="cls-5" d="M408,356c0,4.85-.86,9.12-2.16,11.59a30.37,30.37,0,0,0,1.57-10.27,36.9,36.9,0,0,0-.4-5.54h.77A40.47,40.47,0,0,1,408,356Z"/><rect class="cls-1" x="388.89" y="318.57" width="22.29" height="19.49" transform="translate(800.07 656.62) rotate(180)"/><path d="M388.74,318.42h22.58V338.2H388.74Zm22.29.29H389v19.2h22Z"/><path class="cls-1" d="M341.74,175.85a64.72,64.72,0,0,1,0-15.11c.73-5.8,6.61-10.14,12-9.83a515.82,515.82,0,0,0,52.76,0c5.1-.3,10.68,3.82,11.42,9.32a64.34,64.34,0,0,1,0,16.17c-.74,5.51-6.32,9.63-11.42,9.33a515.82,515.82,0,0,0-52.76,0C348.35,186,342.47,181.65,341.74,175.85Z"/><path class="cls-5" d="M341.1,168.3a64,64,0,0,1,.45-7.58c.71-5.67,6.4-10.34,12.18-10a515.43,515.43,0,0,0,52.74,0,11.51,11.51,0,0,1,11.62,9.5,64.74,64.74,0,0,1,0,16.22,11.5,11.5,0,0,1-11.62,9.49,518.31,518.31,0,0,0-52.74,0c-5.78.33-11.47-4.34-12.18-10h0A64.11,64.11,0,0,1,341.1,168.3Zm77.11,0a63.78,63.78,0,0,0-.51-8.06,11.1,11.1,0,0,0-11.21-9.16,516.21,516.21,0,0,1-52.78,0,11.62,11.62,0,0,0-11.78,9.66,65.39,65.39,0,0,0,0,15.06c.69,5.47,6.2,10,11.78,9.66a519.09,519.09,0,0,1,52.78,0,11.1,11.1,0,0,0,11.21-9.15A64,64,0,0,0,418.21,168.3Z"/><path class="cls-6" d="M351.64,180.35v-24.1l-.85.1v23.9Z"/><path class="cls-5" d="M360.26,182.8l.72-.21a72.09,72.09,0,0,1,19.2-2.31l2.41,0h.05l8.6,3.65-.68,0c-2,0-4,.07-5.87.07A229.61,229.61,0,0,1,361,182.88Zm22.29-2.2-2.37,0a73,73,0,0,0-18.37,2.1c7.34.73,15,1.1,22.88,1.1,1.68,0,3.43,0,5.19-.06Z"/><path class="cls-5" d="M360.26,153.79l.75-.08a232.45,232.45,0,0,1,23.68-1.18c1.88,0,3.86,0,5.87.07l.68,0-8.65,3.67-2.41,0A72.06,72.06,0,0,1,361,154Zm29.62-.91c-1.78,0-3.52-.06-5.19-.06-7.85,0-15.54.37-22.88,1.11A73.5,73.5,0,0,0,380.18,156l2.37,0Z"/><path class="cls-1" d="M392.89,183.72h12.65a13.54,13.54,0,0,0,13.51-13.49v-3.87a13.53,13.53,0,0,0-13.51-13.48H392.89a69.2,69.2,0,0,1,0,30.84Z"/><path d="M392.71,183.87l0-.18a67,67,0,0,0,1.74-15.39v-.2a68.08,68.08,0,0,0-1.74-15.19l0-.18h12.83a13.65,13.65,0,0,1,13.65,13.63v3.87a13.66,13.66,0,0,1-13.65,13.64Zm26.19-17.51A13.37,13.37,0,0,0,405.54,153H393.08a68.21,68.21,0,0,1,1.7,15.07v.41a68.21,68.21,0,0,1-1.7,15.07h12.46a13.36,13.36,0,0,0,13.36-13.34Z"/><path class="cls-1" d="M363.27,179.44a73.7,73.7,0,0,0,0-22.29,32.61,32.61,0,0,0-11.64-1v24.19A32.39,32.39,0,0,0,363.27,179.44Z"/><path d="M351.48,180.52V156.07h.13a32.72,32.72,0,0,1,11.7.95l.09,0,0,.09a74.62,74.62,0,0,1,0,22.33l0,.1-.09,0a32.7,32.7,0,0,1-11.7,1Zm.29-24.18v23.92a32.24,32.24,0,0,0,11.37-.94,74.08,74.08,0,0,0,0-22A32.24,32.24,0,0,0,351.77,156.34Z"/><path class="cls-6" d="M351.63,180.39V156.2l-.85.1v24Z"/><path class="cls-1" d="M350.78,156.3h-6.07a29.07,29.07,0,0,0,0,24h6.07Z"/><path d="M342,168.3a26.43,26.43,0,0,1,2.61-12.07l0-.07h6.31v24.28h-6.31l0-.08A26.38,26.38,0,0,1,342,168.3Zm2.83-11.85a28.91,28.91,0,0,0,0,23.7h5.84v-23.7Z"/><path class="cls-6" d="M393,183.62l.82.3a58.74,58.74,0,0,0,0-31.24l-.82.3A58.75,58.75,0,0,1,393,183.62Z"/><path class="cls-1" d="M393,153.41l-10.26,3.74v22.29L393,183.19A57,57,0,0,0,393,153.41Z"/><path d="M382.61,179.54V157.05l10.5-3.84,0,.16a57.07,57.07,0,0,1,0,29.86l0,.15Zm.29-22.28v22.08l10,3.66a56.8,56.8,0,0,0,0-29.4Z"/><path class="cls-5" d="M344.72,180.25v.15a3.3,3.3,0,0,0,3.3,3.3h.24A8,8,0,0,1,344.72,180.25Z"/><path class="cls-5" d="M344.72,156.35v-.16a3.31,3.31,0,0,1,3.3-3.3h.24A8,8,0,0,0,344.72,156.35Z"/><path class="cls-1" d="M384.87,187.82a1.35,1.35,0,0,0,1.19-.23l2.32-2.69a.37.37,0,0,0,.07-.14h-2.16l-1.69,3Z"/><path class="cls-5" d="M384.38,187.85l1.82-3.24h2.43l0,.17a.43.43,0,0,1-.11.21l-2.32,2.69a1.46,1.46,0,0,1-1.33.28Zm2-2.95-1.55,2.76.09,0a1.18,1.18,0,0,0,1-.19l2.24-2.59Z"/><path class="cls-1" d="M384.87,148.77a1.35,1.35,0,0,1,1.19.24l2.32,2.69a.27.27,0,0,1,.07.14h-2.16l-1.69-3Z"/><path class="cls-5" d="M384.38,148.74l.46-.11a1.48,1.48,0,0,1,1.33.28l2.32,2.69a.53.53,0,0,1,.11.21l0,.18H386.2Zm3.8,2.95-2.24-2.59a1.15,1.15,0,0,0-1-.18l-.09,0,1.55,2.75Z"/><path class="cls-5" d="M400.7,176.24c4.86,0,9.12-.87,11.59-2.17A30.06,30.06,0,0,1,402,175.65a38.27,38.27,0,0,1-5.54-.4V176A37.84,37.84,0,0,0,400.7,176.24Z"/><path class="cls-5" d="M400.7,160.36c4.86,0,9.12.86,11.59,2.16A30.33,30.33,0,0,0,402,161a36.9,36.9,0,0,0-5.54.4v-.76A37.84,37.84,0,0,1,400.7,160.36Z"/><rect class="cls-1" x="361.87" y="158.55" width="22.29" height="19.49" transform="translate(541.31 -204.71) rotate(90)"/><path d="M363.12,179.59V157H382.9v22.58Zm.29-22.29v22h19.2v-22Z"/><polygon class="繧ｰ繝ｩ繝輔ぅ繝け繧ｹ繧ｿ繧､繝ｫ-8" points="386.18 241.16 404.39 241.16 404.39 213.54 240.84 213.54 240.84 323.7 306.41 323.7 306.41 285.19 375.45 285.19 375.45 267.72 386.18 267.72 386.18 241.16"/><rect class="繧ｰ繝ｩ繝輔ぅ繝け繧ｹ繧ｿ繧､繝ｫ-4" x="394.61" y="251.55" width="26.74" height="5.95" transform="translate(662.51 -153.45) rotate(90)"/><rect class="繧ｰ繝ｩ繝輔ぅ繝け繧ｹ繧ｿ繧､繝ｫ-4" x="400.47" y="251.55" width="26.74" height="5.95" transform="translate(668.38 -159.32) rotate(90)"/><rect class="繧ｰ繝ｩ繝輔ぅ繝け繧ｹ繧ｿ繧､繝ｫ-4" x="388.66" y="251.55" width="26.74" height="5.95" transform="translate(656.56 -147.5) rotate(90)"/><rect class="繧ｰ繝ｩ繝輔ぅ繝け繧ｹ繧ｿ繧､繝ｫ-4" x="379.2" y="248.04" width="26.74" height="12.97" transform="translate(647.1 -138.04) rotate(90)"/><polygon points="388.92 254.53 394.44 258.49 394.44 250.57 388.92 254.53"/><rect class="繧ｰ繝ｩ繝輔ぅ繝け繧ｹ繧ｿ繧､繝ｫ-4" x="384.7" y="65.29" width="25.02" height="5.95" transform="translate(465.47 -328.95) rotate(90)"/><rect class="繧ｰ繝ｩ繝輔ぅ繝け繧ｹ繧ｿ繧､繝ｫ-4" x="390.56" y="65.29" width="25.02" height="5.95" transform="translate(471.33 -334.81) rotate(90)"/><rect class="繧ｰ繝ｩ繝輔ぅ繝け繧ｹ繧ｿ繧､繝ｫ-4" x="378.75" y="65.29" width="25.02" height="5.95" transform="translate(459.52 -323) rotate(90)"/><rect class="繧ｰ繝ｩ繝輔ぅ繝け繧ｹ繧ｿ繧､繝ｫ-4" x="369.29" y="61.78" width="25.02" height="12.97" transform="translate(450.06 -313.54) rotate(90)"/><polygon points="378.31 68.26 383.58 72.04 383.58 64.48 378.31 68.26"/><path d="M271.6,260.31c.83-3.44,3.66-6.88,8-9.77l.84-.55c4.5-2.92,5.68-4.33,5.68-6.68,0-2.63-2.18-4.4-5.49-4.4-2.7,0-4.59,1-6.65,3.44l-2-1.7a10.34,10.34,0,0,1,8.8-4.31c5,0,8.67,3,8.67,7,0,3.24-1.25,4.75-7,8.41l-1.16.74c-3.82,2.51-6.23,5.27-6.52,7.58h15.07v2.73H271.6Z"/><path d="M304.65,250.22a33,33,0,0,1-1.06,3.15h18.05a30.47,30.47,0,0,1-1.7,9.18c-.8,1.8-1.83,2.32-4.72,2.32-1.7,0-4-.1-5.56-.23l-.58-2.44c2.22.19,4.37.32,5.91.32s2.09-.26,2.54-1.28a29.57,29.57,0,0,0,1.22-5.69h-16c-.41.9-.86,1.83-1.34,2.73l-2.61-.74a42.9,42.9,0,0,0,3.18-7.32h-7.16V248h30.52v2.18Zm15.87-5.11h-21V236h21Zm-18.37-2.05h15.77v-4.95H302.15Z"/><path d="M333.6,249.16a38.11,38.11,0,0,1-3.89,8.7l-1.19-2.57a36,36,0,0,0,4.85-11.59H329v-2.25h4.63v-6.87H336v6.87h3.34v2.25H336v3a37.31,37.31,0,0,1,3.95,3.75l-1.35,2.16a36.08,36.08,0,0,0-2.6-3.31v15.8H333.6Zm17.92,4.46a24,24,0,0,0,8.19,7.26l-1.51,2.25a26.35,26.35,0,0,1-8.29-8.22v10.18h-2.28v-10a24.76,24.76,0,0,1-8.25,8.48l-1.61-2a22.76,22.76,0,0,0,8.42-8h-5.94V242.19h7.38v-2.38h-9.05v-2.08h9.05v-3.15h2.28v3.15h9.26v2.08h-9.26v2.38h7.62v11.43Zm-9-9.47v2.73h5.1v-2.73Zm0,4.69v2.79h5.1v-2.79Zm7.38-2h5.37v-2.73h-5.37Zm0,4.75h5.37v-2.79h-5.37Z"/><path d="M281,91.92a39.38,39.38,0,0,1-6.24,1.93l-.7-2.41a25.5,25.5,0,0,0,7.77-2.86H284v26.5h-3Z"/><path d="M306.47,102.46c-.32,1.15-.71,2.25-1.06,3.15h18a30.92,30.92,0,0,1-1.7,9.18c-.8,1.8-1.83,2.31-4.72,2.31-1.71,0-4-.09-5.56-.22l-.58-2.44c2.22.19,4.37.32,5.91.32s2.09-.26,2.54-1.28a30.37,30.37,0,0,0,1.22-5.69h-16c-.42.9-.87,1.83-1.35,2.73l-2.6-.74a43.25,43.25,0,0,0,3.18-7.32h-7.16v-2.19h30.51v2.19Zm15.87-5.11h-21V88.23h21ZM304,95.3h15.77v-5H304Z"/><path d="M335.42,101.4a38.3,38.3,0,0,1-3.89,8.7l-1.19-2.57a36,36,0,0,0,4.85-11.59h-4.4V93.69h4.63V86.82h2.37v6.87h3.34v2.25h-3.34v3a36.48,36.48,0,0,1,3.95,3.76l-1.35,2.15a34.07,34.07,0,0,0-2.6-3.3v15.8h-2.37Zm17.92,4.46a23.89,23.89,0,0,0,8.19,7.26L360,115.37a26.35,26.35,0,0,1-8.29-8.22v10.18h-2.28v-10a24.76,24.76,0,0,1-8.25,8.48l-1.61-2a22.84,22.84,0,0,0,8.42-8h-5.95V94.43h7.39V92.05h-9.06V90h9.06V86.82h2.28V90H361v2.09h-9.25v2.38h7.61v11.43Zm-9-9.47v2.73h5.11V96.39Zm0,4.69v2.79h5.11v-2.79Zm7.39-2h5.37V96.39h-5.37Zm0,4.75h5.37v-2.79h-5.37Z"/></g></svg>