<svg xmlns="http://www.w3.org/2000/svg" xmlns:xlink="http://www.w3.org/1999/xlink" width="700" height="500" viewBox="0 0 700 500"><defs><style>.cls-1,.cls-10,.cls-11,.cls-2,.cls-4,.cls-5,.cls-9,.繧ｰ繝ｩ繝輔ぅ繝け繧ｹ繧ｿ繧､繝ｫ{fill:none;}.cls-10,.cls-11,.cls-12,.cls-13,.cls-2,.cls-4,.cls-5,.cls-9,.繧ｰ繝ｩ繝輔ぅ繝け繧ｹ繧ｿ繧､繝ｫ,.繧ｰ繝ｩ繝輔ぅ繝け繧ｹ繧ｿ繧､繝ｫ-2,.繧ｰ繝ｩ繝輔ぅ繝け繧ｹ繧ｿ繧､繝ｫ-6{stroke:#000;}.cls-2{stroke-width:2.16px;}.cls-12,.cls-13,.cls-3{fill:#fff;}.繧ｰ繝ｩ繝輔ぅ繝け繧ｹ繧ｿ繧､繝ｫ-2{fill:#d8eacc;}.繧ｰ繝ｩ繝輔ぅ繝け繧ｹ繧ｿ繧､繝ｫ,.繧ｰ繝ｩ繝輔ぅ繝け繧ｹ繧ｿ繧､繝ｫ-2{stroke-width:2px;}.cls-4,.cls-5{stroke-linecap:round;stroke-linejoin:round;}.cls-4{stroke-width:1.43px;}.cls-5{stroke-width:1.83px;}.cls-6{fill:#e83589;}.cls-7{fill:#030201;}.cls-8{fill:#242323;}.cls-10,.cls-12,.cls-13,.cls-9,.繧ｰ繝ｩ繝輔ぅ繝け繧ｹ繧ｿ繧､繝ｫ{stroke-miterlimit:10;}.cls-10{stroke-dasharray:3.03 3.03;}.cls-11{stroke-linejoin:bevel;}.cls-11,.cls-12{stroke-width:1.5px;}.繧ｰ繝ｩ繝輔ぅ繝け繧ｹ繧ｿ繧､繝ｫ-6{stroke-width:1.15px;fill:url(#_10_lpi_30_);}</style><pattern id="_10_lpi_30_" data-name="10 lpi 30%" width="72" height="72" patternTransform="translate(-190.73 -222.02) rotate(-135) scale(0.48)" patternUnits="userSpaceOnUse" viewBox="0 0 72 72"><rect class="cls-1" width="72" height="72"/><line class="cls-2" x1="71.75" y1="68.4" x2="144.25" y2="68.4"/><line class="cls-2" x1="71.75" y1="54" x2="144.25" y2="54"/><line class="cls-2" x1="71.75" y1="39.6" x2="144.25" y2="39.6"/><line class="cls-2" x1="71.75" y1="25.2" x2="144.25" y2="25.2"/><line class="cls-2" x1="71.75" y1="10.8" x2="144.25" y2="10.8"/><line class="cls-2" x1="71.75" y1="61.2" x2="144.25" y2="61.2"/><line class="cls-2" x1="71.75" y1="46.8" x2="144.25" y2="46.8"/><line class="cls-2" x1="71.75" y1="32.4" x2="144.25" y2="32.4"/><line class="cls-2" x1="71.75" y1="18" x2="144.25" y2="18"/><line class="cls-2" x1="71.75" y1="3.6" x2="144.25" y2="3.6"/><line class="cls-2" x1="-0.25" y1="68.4" x2="72.25" y2="68.4"/><line class="cls-2" x1="-0.25" y1="54" x2="72.25" y2="54"/><line class="cls-2" x1="-0.25" y1="39.6" x2="72.25" y2="39.6"/><line class="cls-2" x1="-0.25" y1="25.2" x2="72.25" y2="25.2"/><line class="cls-2" x1="-0.25" y1="10.8" x2="72.25" y2="10.8"/><line class="cls-2" x1="-0.25" y1="61.2" x2="72.25" y2="61.2"/><line class="cls-2" x1="-0.25" y1="46.8" x2="72.25" y2="46.8"/><line class="cls-2" x1="-0.25" y1="32.4" x2="72.25" y2="32.4"/><line class="cls-2" x1="-0.25" y1="18" x2="72.25" y2="18"/><line class="cls-2" x1="-0.25" y1="3.6" x2="72.25" y2="3.6"/><line class="cls-2" x1="-72.25" y1="68.4" x2="0.25" y2="68.4"/><line class="cls-2" x1="-72.25" y1="54" x2="0.25" y2="54"/><line class="cls-2" x1="-72.25" y1="39.6" x2="0.25" y2="39.6"/><line class="cls-2" x1="-72.25" y1="25.2" x2="0.25" y2="25.2"/><line class="cls-2" x1="-72.25" y1="10.8" x2="0.25" y2="10.8"/><line class="cls-2" x1="-72.25" y1="61.2" x2="0.25" y2="61.2"/><line class="cls-2" x1="-72.25" y1="46.8" x2="0.25" y2="46.8"/><line class="cls-2" x1="-72.25" y1="32.4" x2="0.25" y2="32.4"/><line class="cls-2" x1="-72.25" y1="18" x2="0.25" y2="18"/><line class="cls-2" x1="-72.25" y1="3.6" x2="0.25" y2="3.6"/></pattern></defs><title>kukakuzu</title><g id="レイヤー_2" data-name="レイヤー 2"><rect class="cls-3" width="700" height="500"/><polygon class="繧ｰ繝ｩ繝輔ぅ繝け繧ｹ繧ｿ繧､繝ｫ-2" points="101.9 162.77 111.16 335.47 348.3 335.47 348.3 162.77 101.9 162.77"/><polygon class="繧ｰ繝ｩ繝輔ぅ繝け繧ｹ繧ｿ繧､繝ｫ-2" points="594.7 162.77 348.3 162.77 348.3 335.47 568.71 335.47 594.7 162.77"/><path d="M92.51,215.31l.06,1.33-8.12.36.11,2.36,6.25-.28.33,7.36c0,1.07-.42,1.48-1.73,1.54-.75,0-1.51,0-2.27,0l-.3-1.39a15.23,15.23,0,0,0,2.24.08c.48,0,.58-.11.56-.56l-.25-5.66-4.77.21.44,10-1.46.06-.44-10-4.54.2.34,7.73-1.45.06-.4-9,6-.26-.1-2.36-8,.35L75,216.09l8-.35-.12-2.53,1.46-.06.11,2.52Z"/><path d="M80.48,246.61c1.56,1.43,3.3,1.92,6.4,1.81l7.25-.33a7.62,7.62,0,0,0-.38,1.33l-7,.31c-3.23.11-5-.42-6.7-1.95a19,19,0,0,1-2.76,2.84l-.87-1.28a17.13,17.13,0,0,0,2.69-2.24l-.22-4.95-2.73.13L76.1,241l4.13-.18Zm-1.2-9.17a18.87,18.87,0,0,0-2.83-3l1-.9a18.51,18.51,0,0,1,2.91,2.89Zm1.77-1.05L81,235.22l3.27-.14A10.94,10.94,0,0,0,83,233.36l1.27-.56A14.18,14.18,0,0,1,85.7,235l2.39-.1a17.33,17.33,0,0,0,.92-2.35l1.47.3a14.56,14.56,0,0,1-1,2l3.45-.15.06,1.16-5.33.24c-.08.32-.34,1.11-.51,1.56l4.63-.21.42,9.41-9.39.41-.42-9.4,3.4-.15a12.68,12.68,0,0,0,.41-1.56Zm2.86,4.16,6.64-.3-.08-1.7-6.63.3Zm.12,2.67,6.64-.3-.08-1.67-6.64.29Zm.13,2.9,6.64-.3L90.72,244l-6.64.29Z"/><path d="M52.85,156.07a21.87,21.87,0,0,0-3-2.71l.93-1.06a17.55,17.55,0,0,1,3.06,2.64Zm.46-4.73a19.35,19.35,0,0,0-2.93-2.75l.91-1a16.65,16.65,0,0,1,3,2.63Zm-2.56,12.35a27.85,27.85,0,0,0,3-6.2l1.2.86a31.14,31.14,0,0,1-3,6.37Zm10.09-7.44v0a41.65,41.65,0,0,1-2.37,5.84l-.06.16,1.36-.17c1.36-.17,3.43-.48,5.06-.78-.61-.93-1.32-1.9-2.06-2.84l1.13-.7a33.27,33.27,0,0,1,3.88,5.43l-1.27.89c-.46-.85-.66-1.21-1-1.75l-.19,0c-2,.5-6.35,1.26-9.37,1.66l-.54-1.44.74-.07.22,0,.49-.06a42,42,0,0,0,2.46-6.24l-4.65.21,0-1.24,5.62-.25-.16-3.73-4.63.21-.06-1.27L60,150l-.13-3,1.44-.06.13,3,4.91-.22,0,1.27-4.9.22.16,3.73,5.87-.27,0,1.24-6.71.3Z"/><path d="M61.59,203.63l-1.43.06-.26-5.9A17.82,17.82,0,0,1,53,203.27l-.91-1.14a17.92,17.92,0,0,0,6.64-4.64l-6.75.3-.06-1.23,7.95-.35-.09-2,1.42-.06.09,2,8.08-.36.06,1.24-6.83.3a19.34,19.34,0,0,0,7.11,3.6l-.85,1.34a18.73,18.73,0,0,1-7.5-4.64Zm4.29-16a17,17,0,0,1-4.07,4,25.25,25.25,0,0,0,7.11,1.87l-.71,1.29a28.57,28.57,0,0,1-7.62-2.31,25.74,25.74,0,0,1-7.6,3.17l-.79-1.11a24.87,24.87,0,0,0,7.22-2.74,23.26,23.26,0,0,1-2.73-2.21,15.14,15.14,0,0,1-3.12,2.11l-1-.92a12.62,12.62,0,0,0,5.32-4.65l1.42.22c-.26.43-.33.51-.57.87l6.3-.28Zm-8,.82c-.12.15-.18.19-.28.31a14.2,14.2,0,0,0,3,2.28,16.4,16.4,0,0,0,3.18-2.85Z"/><path d="M60.7,208.17a23.27,23.27,0,0,1-3.57,1.25l-.43-1.31a17.81,17.81,0,0,0,4.37-1.84l1.2-.05L63,221.43l-1.66.08Z"/><path d="M57.58,235.82l.11,0,.07,0c.68-.25,1.53-.62,2.05-.88l.21,1.3a51.21,51.21,0,0,1-5.86,2.44l-.58-1.4c1-.32,1.16-.36,2.15-.7l.43-.15-.38-8.67-2.4.11-.06-1.31,5.85-.26.06,1.31-2,.09Zm11.68-8.3.44,9.83-8.85.4-.44-9.83,2.88-.13a17.87,17.87,0,0,0,.41-1.9l-4.61.2L59,224.87l11.4-.5,0,1.21-5.35.24a16.74,16.74,0,0,1-.54,1.91ZM59.11,240.6a11.17,11.17,0,0,0,3.76-2.72l1.16.71a13.74,13.74,0,0,1-3.86,3ZM61.82,229l.08,1.79L68,230.5l-.08-1.79Zm.21,4.59,6.1-.27-.07-1.71-6.11.27Zm.13,3,6.11-.27-.09-1.9-6.1.27Zm8,4.56a25.1,25.1,0,0,0-3.81-2.6l1-.85A24.75,24.75,0,0,1,71.21,240Z"/><path d="M62.38,246a23.27,23.27,0,0,1-3.57,1.25l-.43-1.31a17.81,17.81,0,0,0,4.37-1.84l1.2,0,.68,15.21-1.66.08Z"/><path d="M60.82,270.86a17.82,17.82,0,0,1-.53,1.83l10.37-.46a18,18,0,0,1-.74,5.32c-.42,1.05-1,1.37-2.66,1.45-1,0-2.29,0-3.19,0l-.4-1.39c1.28.06,2.52.07,3.41,0s1.19-.2,1.42-.81a16.67,16.67,0,0,0,.55-3.29l-9.2.41c-.22.52-.45,1.07-.7,1.6l-1.52-.36a24.39,24.39,0,0,0,1.64-4.29l-4.11.19-.06-1.26,17.53-.78.05,1.26Zm9-3.34-12,.53-.23-5.24,12-.53Zm-10.6-.71,9.06-.41-.13-2.84-9.06.41Z"/><path d="M60.37,295.17c1.56,1.43,3.3,1.93,6.4,1.81l7.25-.33a6.85,6.85,0,0,0-.39,1.33l-7,.31c-3.23.11-5-.42-6.71-2a19,19,0,0,1-2.75,2.84l-.87-1.28A17.13,17.13,0,0,0,59,295.66l-.22-4.94-2.73.12L56,289.58l4.13-.18ZM59.17,286a18.46,18.46,0,0,0-2.84-3l1-.9a18.44,18.44,0,0,1,2.9,2.89ZM60.93,285l0-1.17,3.26-.14a10.94,10.94,0,0,0-1.26-1.72l1.27-.56a13.48,13.48,0,0,1,1.43,2.21l2.4-.1a18.69,18.69,0,0,0,.91-2.35l1.48.3a15.83,15.83,0,0,1-1,2l3.45-.15.05,1.16-5.33.24c-.08.32-.34,1.11-.5,1.56L71.7,286l.41,9.41-9.38.41-.42-9.4,3.39-.15a11.1,11.1,0,0,0,.41-1.56Zm2.87,4.16,6.64-.3-.08-1.7-6.64.3Zm.11,2.67,6.64-.3-.07-1.67-6.64.29Zm.13,2.9,6.64-.3-.08-1.84-6.64.29Z"/><path d="M63.92,307.65l-2.38.1.13,2.92,2.4-.11.05,1.22-2.4.11.17,3.85c.5-.15,1.88-.62,2.79-.95l.18,1.19a65.49,65.49,0,0,1-7.17,2.39l-.54-1.29,1-.25-.32-7.19,1.25-.06.31,6.92.45-.13.44-.13.39-.11-.37-8.32-2.7.12-.26-6,6.34-.29Zm-5.09-1,3.72-.16L62.4,303l-3.73.16Zm14-4.24A15.51,15.51,0,0,1,70.26,307a15.3,15.3,0,0,0,4.34,2.37L74,310.62a16,16,0,0,1-4.54-2.68,15.44,15.44,0,0,1-4.64,3.26L64,310.09a12.12,12.12,0,0,0,4.48-3,13.67,13.67,0,0,1-1.76-2.27l-.07.1,0,.05a11.89,11.89,0,0,1-1.55,1.75l-1-.93a11.11,11.11,0,0,0,3.16-5l1.37.16c-.18.49-.23.64-.36,1l3.58-.16ZM73.4,318l-1.35.06L72,317l-4.7.21,0,1.09-1.35.06-.32-7.27,7.4-.33Zm-6.16-2,4.71-.2-.17-3.73-4.7.21Zm.11-12.22a11.44,11.44,0,0,0,1.94,2.39,12.55,12.55,0,0,0,1.85-3.2l-3.43.15-.29.55Z"/><path d="M55.09,167.28l.44,10,2.86-.12.06,1.42-2.85.12.16,3.64-1.63.07L54,178.75l-7.6.33-.06-1.4,6.75-10.31ZM53.67,172c0-.84-.06-2.28-.05-3.19h-.07a23.23,23.23,0,0,1-1.24,2.41l-4.12,6.35,5.72-.25Z"/><path d="M60.21,180.65c.39-2,1.92-4,4.34-5.81l.47-.34c2.5-1.79,3.15-2.63,3.09-4-.07-1.51-1.37-2.47-3.27-2.38a4.58,4.58,0,0,0-3.73,2.14l-1.2-.93a5.92,5.92,0,0,1,4.94-2.69c2.88-.13,5.06,1.47,5.16,3.82.08,1.86-.6,2.76-3.8,5l-.65.45c-2.13,1.54-3.44,3.18-3.55,4.52l8.65-.39.07,1.57-10.46.47Z"/><path d="M623.43,153.27a28.64,28.64,0,0,0,4.27-5.67l1,1.11a32.43,32.43,0,0,1-4.29,5.86Zm3.68-7.29a23.7,23.7,0,0,0-2.49-3.35l1.16-.89a18.07,18.07,0,0,1,2.55,3.3Zm1.42-4.7a19.88,19.88,0,0,0-2.41-3.38l1.13-.83a17.79,17.79,0,0,1,2.51,3.26Zm6.64,6.51,0,0a42.56,42.56,0,0,1-3.58,5.43l-.11.15,1.42.11c1.41.1,3.57.2,5.29.24-.43-1.07-1-2.2-1.52-3.31l1.29-.47a34.33,34.33,0,0,1,2.83,6.29l-1.47.64c-.29-1-.43-1.36-.66-2h-.19c-2.16.09-6.7,0-9.83-.23l-.26-1.56.76.07.23,0,.52,0a44.35,44.35,0,0,0,3.75-5.82l-4.74-.74.19-1.26,5.75.89.59-3.81-4.73-.73.2-1.3,4.73.73.47-3,1.47.22-.47,3,5,.78-.2,1.3-5-.78-.59,3.81,6,.93-.19,1.26-6.86-1.06Z"/><path d="M626.28,195.93l-1.46-.22.94-6a18.7,18.7,0,0,1-8.15,4.14l-.68-1.34a18.78,18.78,0,0,0,7.66-3.35l-6.9-1.07.2-1.26,8.12,1.26.32-2.06,1.45.23-.32,2.05,8.26,1.28-.2,1.26-7-1.08a20.05,20.05,0,0,0,6.46,5.1L633.89,196a19.25,19.25,0,0,1-6.66-6.22Zm7.6-15.34a17.69,17.69,0,0,1-4.94,3.27,25.77,25.77,0,0,0,6.82,3.33l-1,1.16a29.49,29.49,0,0,1-7.25-3.88,26.59,26.59,0,0,1-8.34,1.66l-.58-1.29a24.94,24.94,0,0,0,7.87-1.31,23.13,23.13,0,0,1-2.31-2.79,15.53,15.53,0,0,1-3.59,1.51l-.77-1.12a13.13,13.13,0,0,0,6.33-3.63l1.39.5c-.35.39-.44.46-.76.77l6.45,1Zm-8.29-.8a2.94,2.94,0,0,1-.35.25,15.33,15.33,0,0,0,2.58,2.93,17.15,17.15,0,0,0,3.8-2.25Z"/><path d="M617.66,211.89c.82-1.88,2.67-3.53,5.59-4.93l.59-.27a17.9,17.9,0,0,0,2.54-1.36,3,3,0,0,0,1.36-2.05c.24-1.55-.91-2.81-2.82-3.1a5.12,5.12,0,0,0-4.28,1.36l-1-1.22a6.44,6.44,0,0,1,5.56-1.63c3,.47,4.82,2.5,4.45,4.94a4,4,0,0,1-2.09,2.9,29.26,29.26,0,0,1-2.71,1.39l-.73.35c-2.6,1.24-4.11,2.49-4.62,3.82l8.84,1.37-.25,1.6-10.63-1.65Z"/><path d="M615.58,228.29l.12,0,.08,0c.74-.12,1.68-.32,2.26-.48l-.06,1.36a51.85,51.85,0,0,1-6.43,1.28l-.3-1.53c1.1-.12,1.25-.14,2.32-.28l.47-.06,1.37-8.86L613,219.3l.21-1.34,6,.93-.21,1.34-2.06-.32Zm.58,5.15a11.47,11.47,0,0,0,4.36-2l1,1a13.84,13.84,0,0,1-4.53,2.29Zm12.94-11.18-1.55,10.05-9-1.4,1.56-10,2.94.46a17.8,17.8,0,0,0,.8-1.85l-4.71-.73.19-1.24,11.65,1.8-.19,1.25-5.47-.85a14.78,14.78,0,0,1-.94,1.82Zm-9,7.7,6.23,1,.3-1.94-6.23-1Zm.47-3,6.23,1,.28-1.76-6.24-1Zm.72-4.69-.28,1.83,6.24,1,.28-1.83Zm6,14a24.94,24.94,0,0,0-3.33-3.41l1.17-.67a26,26,0,0,1,3.44,3.2Z"/><path d="M611.59,251.08q1.21-2.82,5.59-4.92l.58-.28a16.64,16.64,0,0,0,2.55-1.36,3.09,3.09,0,0,0,1.36-2.05c.24-1.54-.92-2.8-2.82-3.1a5.16,5.16,0,0,0-4.29,1.36l-1-1.22a6.41,6.41,0,0,1,5.56-1.62c3,.46,4.82,2.5,4.44,4.93a3.89,3.89,0,0,1-2.09,2.9,26.74,26.74,0,0,1-2.7,1.4l-.73.35c-2.61,1.23-4.11,2.49-4.63,3.81l8.84,1.37-.25,1.61-10.63-1.65Z"/><path d="M611.65,265a17.53,17.53,0,0,1-.91,1.75l10.6,1.65a18.32,18.32,0,0,1-1.84,5.23c-.63,1-1.28,1.19-3,.93-1-.16-2.33-.42-3.24-.64l-.12-1.48c1.29.31,2.54.58,3.44.72s1.25,0,1.61-.52a18.3,18.3,0,0,0,1.23-3.22L610,268c-.32.49-.67,1-1,1.48l-1.46-.67a26.29,26.29,0,0,0,2.53-4l-4.21-.65.2-1.28L624,265.6l-.2,1.28Zm9.78-1.55-12.31-1.91.83-5.35,12.31,1.91Zm-10.6-2.88,9.26,1.44.45-2.91-9.26-1.43Z"/><path d="M606.25,289.54c1.29,1.77,3,2.62,6.11,3.13l7.41,1.15a7.22,7.22,0,0,0-.66,1.27L612,294c-3.29-.55-5-1.46-6.39-3.35a19.26,19.26,0,0,1-3.37,2.32l-.62-1.47a18.14,18.14,0,0,0,3.18-1.73l.78-5.05-2.79-.43.2-1.28,4.22.65Zm.64-9.53a19.38,19.38,0,0,0-2.25-3.63l1.17-.71a19.38,19.38,0,0,1,2.35,3.51Zm2-.71.18-1.19,3.34.52a12.32,12.32,0,0,0-.93-2l1.4-.3a14.56,14.56,0,0,1,1,2.53l2.45.38a20.4,20.4,0,0,0,1.4-2.2l1.43.61a16,16,0,0,1-1.38,1.81l3.52.55-.18,1.18-5.45-.84c-.14.31-.57,1-.83,1.47l4.74.74-1.49,9.61-9.6-1.49,1.49-9.61,3.47.54a13.2,13.2,0,0,0,.73-1.49Zm1.17,10.49,6.78,1,.3-1.89-6.79-1.05Zm.46-3,6.78,1.05.27-1.72-6.79-1.05Zm.42-2.74,6.79,1.06.26-1.74-6.78-1.05Z"/><path d="M607.3,302.9l-2.43-.37-.46,3,2.45.38-.19,1.25-2.45-.38-.61,3.94c.53-.06,2-.25,3-.4l-.06,1.24a65.37,65.37,0,0,1-7.75,1l-.28-1.41,1-.05,1.14-7.36,1.28.2-1.1,7.07.49,0,.47,0,.41,0,1.32-8.51-2.75-.42.95-6.13,6.48,1Zm-4.95-2,3.8.59.57-3.64-3.81-.59Zm15-1.46a16,16,0,0,1-3.48,4.11,15.72,15.72,0,0,0,3.91,3.29l-.91,1.14a16.55,16.55,0,0,1-4-3.64,16,16,0,0,1-5.37,2.35l-.57-1.29a12.51,12.51,0,0,0,5.16-2.15,13.49,13.49,0,0,1-1.33-2.66l-.09.09,0,0a12.71,12.71,0,0,1-1.93,1.46l-.77-1.15a11.47,11.47,0,0,0,4.23-4.46l1.36.45c-.29.45-.37.6-.57.89l3.66.57Zm-2.54,15.92-1.38-.22.17-1.11-4.81-.74-.17,1.11-1.37-.22,1.15-7.42,7.56,1.17ZM609,312l4.8.75.59-3.81-4.8-.75Zm2.59-12.35a12,12,0,0,0,1.47,2.81,12.87,12.87,0,0,0,2.53-2.87l-3.5-.54-.41.49Z"/><path d="M627,158.35l-1.58,10.2,2.92.45-.22,1.45L625.2,170l-.58,3.71-1.66-.25.58-3.72-7.77-1.2.23-1.43,8.93-9.08Zm-2.39,4.51c.13-.86.4-2.33.6-3.24h-.08a20.4,20.4,0,0,1-1.75,2.18l-5.46,5.6,5.84.9Z"/><path d="M634.7,166.3c2.7.42,4.34-.33,4.62-2.1.24-1.57-.87-2.74-2.91-3.06a4.71,4.71,0,0,0-3.95,1.07l-1-1.23a6.65,6.65,0,0,1,5.17-1.32c3,.47,4.9,2.4,4.54,4.7-.29,1.9-1.89,3-4.25,2.91v.08c2.7.61,4,2.32,3.69,4.64-.41,2.7-2.9,4.07-6.45,3.52a7,7,0,0,1-5-3l1.29-.94a5.81,5.81,0,0,0,4,2.35c2.42.37,4-.53,4.33-2.4.33-2.11-1-3.32-4.31-3.83l-1.22-.19.22-1.43Z"/><path d="M352,368.28v3.91l8.14-1.08.85.83a10.22,10.22,0,0,1-4.28,5.71l-1-.88a8,8,0,0,0,3.64-4.34L352,373.49v6.08c0,.73.15,1,.58,1.19a11.44,11.44,0,0,0,2.85.22,45.74,45.74,0,0,0,4.62-.24v1.4c-1.37.1-2.66.15-4.07.15a15.58,15.58,0,0,1-4.32-.32c-.72-.31-1-.94-1-2.11v-6.19l-3.59.51-.14-1.31,3.73-.49v-4.1Z"/><path d="M366.27,376.77a23.08,23.08,0,0,0-1.43-4.37l1.12-.56a23.15,23.15,0,0,1,1.53,4.43Zm1.44,4.84c4.68-1.29,6.44-3.82,7.12-10.27l1.28.38c-.88,6.81-2.7,9.41-7.7,11ZM370,376a24.31,24.31,0,0,0-1.4-4.33l1.21-.49a23.68,23.68,0,0,1,1.41,4.37Z"/><path d="M383.25,368.27V373a57,57,0,0,1,8.14,3.11l-.69,1.26a55.51,55.51,0,0,0-7.45-3v8.5h-1.39V368.27Z"/><path d="M394.68,381.1c1.78-2.38,3.43-7.51,3.73-11.68l1.37.29c-.68,5.29-2.16,10-4,12.41Zm12.9,1c-1.65-2.6-3.45-7.75-4.39-12.44l1.29-.41a39,39,0,0,0,4.27,11.92Zm-.73-11a14.64,14.64,0,0,0-1.5-2.79l1-.39a13.71,13.71,0,0,1,1.51,2.75Zm2.12-.6a12.24,12.24,0,0,0-1.48-2.78l1-.36a11.38,11.38,0,0,1,1.5,2.7Z"/><path d="M414.55,376.77a23.08,23.08,0,0,0-1.43-4.37l1.12-.56a23.15,23.15,0,0,1,1.53,4.43Zm1.44,4.84c4.68-1.29,6.45-3.82,7.12-10.27l1.28.38c-.88,6.81-2.7,9.41-7.7,11Zm2.3-5.58a24.31,24.31,0,0,0-1.4-4.33l1.21-.49a23.68,23.68,0,0,1,1.41,4.37Z"/><path d="M441.07,371.22c-1.14,6.43-3.93,9.68-10,11.56l-.78-1.19c5.45-1.54,8.31-4.64,9.26-10H433.5a13.67,13.67,0,0,1-4,4.15l-1-1a12.07,12.07,0,0,0,5-6.47l1.31.37c-.22.61-.48,1.21-.72,1.72h5.87Z"/><path d="M447,375.68a4.06,4.06,0,0,1,3.64-2A4.32,4.32,0,0,1,455,378a4.49,4.49,0,0,1-4.63,4.72,4.58,4.58,0,0,1-4-2.07,6.7,6.7,0,0,1-1.16-4.15,8.82,8.82,0,0,1,2.09-5.29,10.41,10.41,0,0,1,5-3.17l.61,1.2c-3.47,1.24-5.65,3.54-6.07,6.43Zm.17,2.36a3.34,3.34,0,0,0,3.21,3.35,3.08,3.08,0,0,0,3-3.28,3,3,0,0,0-3.06-3.18A3.28,3.28,0,0,0,447.14,378Z"/><path d="M461.64,380.05v2.43h-2.43v-2.43Z"/><path d="M476.6,375.59c0,4.42-2,7.14-5.1,7.14s-5.1-2.73-5.1-7.14,2-7.14,5.12-7.14S476.6,371.19,476.6,375.59Zm-8.54,0c0,3.57,1.31,5.78,3.46,5.78s3.41-2.21,3.41-5.78-1.31-5.79-3.45-5.79S468.06,372,468.06,375.59Z"/><path d="M489.86,368.71v1.38H483.4l-.53,4.82h.07a4.59,4.59,0,0,1,3.18-1.15,4.24,4.24,0,0,1,4.55,4.35c0,2.7-2.05,4.62-5,4.62A6.88,6.88,0,0,1,481,381.1l.94-1.09a5.89,5.89,0,0,0,3.75,1.35,3.18,3.18,0,0,0,3.28-3.25,2.92,2.92,0,0,0-3.14-3.08,4,4,0,0,0-3.13,1.46l-1.43-.23.75-7.55Z"/><path d="M496.93,374.18a3.19,3.19,0,0,1,2.8-1.92,2.74,2.74,0,0,1,2.78,2.09,3.26,3.26,0,0,1,3-2.09,2.93,2.93,0,0,1,2.52,1.29,4.38,4.38,0,0,1,.59,2.59v6.34h-1.51v-6.31c0-1.67-.68-2.6-1.89-2.6a2.84,2.84,0,0,0-2.4,2.38v6.53H501.3v-6.39c0-1.53-.73-2.52-1.87-2.52s-2.06,1.05-2.43,2.58v6.33h-1.53v-10h1.46Zm9.31-3.24a2.45,2.45,0,0,1,1.14-1.3l.36-.22.14-.08c.71-.43.86-.58.86-.85s-.37-.5-.81-.5a1.43,1.43,0,0,0-1.12.6l-.57-.53a2,2,0,0,1,1.7-.8c1,0,1.74.51,1.74,1.21a1.26,1.26,0,0,1-.78,1.14l-.34.19a3,3,0,0,0-1.23.95h2.49v.76h-3.58Z"/><path d="M515.15,405.68c.24-1.06.38-1.75.54-2.67l1.37.17,0,.12c-.24,1.12-.39,1.82-.53,2.38h5.7v1.19h-6a61.72,61.72,0,0,1-3.65,11l-1.29-.5a61,61,0,0,0,3.58-10.48h-3.55v-1.19Zm10.4,11.69a19.39,19.39,0,0,1-2.83.19,14.61,14.61,0,0,1-3.93-.44,2,2,0,0,1-1.5-2,2.6,2.6,0,0,1,.58-1.67l1.07.67a1.52,1.52,0,0,0-.27.83,1,1,0,0,0,.68,1,12,12,0,0,0,2.86.32,22.17,22.17,0,0,0,3.19-.24Zm-7.44-7.87a51,51,0,0,1,6.07-.37h.73l.08,1.24h-1.07a49.74,49.74,0,0,0-5.64.32Z"/><path d="M533.34,405.68c.24-1.06.38-1.75.55-2.67l1.36.17,0,.12c-.24,1.12-.39,1.82-.53,2.38h4.76v1.19h-5.05a61.72,61.72,0,0,1-3.65,11l-1.29-.5a61,61,0,0,0,3.58-10.48H529.5v-1.19Zm10.4,11.69a19.39,19.39,0,0,1-2.83.19,14.61,14.61,0,0,1-3.93-.44,2,2,0,0,1-1.5-2,2.6,2.6,0,0,1,.58-1.67l1.07.67a1.52,1.52,0,0,0-.27.83,1,1,0,0,0,.68,1,12,12,0,0,0,2.86.32,22.17,22.17,0,0,0,3.19-.24Zm-7.44-7.87a51,51,0,0,1,6.07-.37h.73l.08,1.24h-1.07a49.74,49.74,0,0,0-5.64.32Zm5.32-3.16a13.77,13.77,0,0,0-1.48-2.75l1-.4a15.44,15.44,0,0,1,1.48,2.72Zm2.11-.66a13.21,13.21,0,0,0-1.46-2.76l1-.37a12.66,12.66,0,0,1,1.5,2.67Z"/><path d="M550.09,403.55v9.59c0,2.21,1.2,3.37,3.53,3.37a4.55,4.55,0,0,0,3.73-2,13.66,13.66,0,0,0,1.71-4l1.21.76a13.16,13.16,0,0,1-1.79,4.07,5.82,5.82,0,0,1-4.93,2.46c-3.14,0-4.84-1.65-4.84-4.71v-9.57Z"/><path d="M570.18,402.48h1.31v1H577v2h2v.93h-2v2h-5.46v.93h6.37v.94h-6.37v1H579v1H562.82v-1h7.36v-1H564v-.94h6.14v-.93h-5.42v-.92h5.42v-1.09h-7.36v-.93h7.36v-1h-5.42v-.92h5.42Zm6.72,16.15h-1.35v-.75h-9.31v.75h-1.35v-5.58h12ZM566.24,415h9.31v-1h-9.31Zm0,2h9.31v-1.05h-9.31Zm5.25-12.49v1h4.15v-1Zm0,2v1.09h4.15v-1.09Z"/><path d="M587.66,405.08c-.19-.51-.51-1.53-.65-2l1.33-.09c.13.5.47,1.52.68,2.06h5.78v1.16h-5.36c.31.81.82,1.94,1.23,2.75h5.27v1.16h-4.66a24.77,24.77,0,0,0,1.9,3l-1.32.45a29.54,29.54,0,0,1-2.06-3.4h-7.63V409h7.07c-.43-.9-.84-1.87-1.16-2.75h-5.62v-1.16Zm5.42,12.51c-1.33.07-2,.1-2.72.1a16.8,16.8,0,0,1-4.71-.49,3.08,3.08,0,0,1-2.48-2.92,2.66,2.66,0,0,1,.53-1.68l1,.59a2.91,2.91,0,0,0-.26,1.11c0,1.47,1.74,2.14,5.58,2.14.92,0,1.82-.05,2.89-.14Z"/><path d="M602.85,415.08c1.28,1.32,2.89,1.88,5.7,1.94h7a4.43,4.43,0,0,0-.44,1.18h-6.55c-3,0-4.84-.68-6.22-2.19a14.61,14.61,0,0,1-2.45,2.62l-.69-1.21a22.92,22.92,0,0,0,2.39-2.05v-4.44H599.2v-1.16h3.65Zm-.66-8.42a18,18,0,0,0-2.43-3l.94-.78a17.71,17.71,0,0,1,2.51,2.83Zm12-.08v8.36c0,.92-.31,1.22-1.25,1.22a15.87,15.87,0,0,1-1.73-.1L611,415a10,10,0,0,0,1.53.11c.35,0,.4,0,.4-.42v-1.79h-3v3H608.7v-3h-2.94v3.23h-1.24v-9.53h4.56c-.94-.51-1.93-1-3-1.46l.8-.7c1,.44,1.41.66,2.27,1.12a23.93,23.93,0,0,0,2.4-1.38h-7v-1.05h8.55l.7.71a23.26,23.26,0,0,1-3.69,2.25l.2.13c.39.23.43.24.63.38Zm-8.42,2.65h2.94v-1.67h-2.94Zm0,2.67h2.94v-1.7h-2.94Zm4.13-2.67h3v-1.67h-3Zm3,1h-3v1.7h3Z"/><path d="M624.12,408.7h-2.19v2.69h2.21v1.12h-2.21v3.55c.46-.12,1.75-.49,2.6-.76l.12,1.1a60.15,60.15,0,0,1-6.7,1.91l-.44-1.21.9-.19v-6.63h1.16v6.38l.42-.1.41-.11.36-.08V408.7h-2.49v-5.52h5.85Zm-4.64-1.1h3.43v-3.28h-3.43Zm13-3.33a14,14,0,0,1-2.49,4.09,14,14,0,0,0,3.89,2.37l-.65,1.12a15.08,15.08,0,0,1-4.06-2.65,14.21,14.21,0,0,1-4.4,2.8l-.68-1.05a11.32,11.32,0,0,0,4.25-2.6,11.92,11.92,0,0,1-1.53-2.16l-.07.08,0,.05a11,11,0,0,1-1.5,1.55l-.83-.9a10.29,10.29,0,0,0,3.11-4.51l1.25.21c-.18.44-.23.58-.37.87h3.3Zm-.06,14.36h-1.24v-1h-4.34v1H625.6v-6.7h6.82Zm-5.58-2.12h4.34v-3.44h-4.34Zm.6-11.24a10.52,10.52,0,0,0,1.68,2.28,11.64,11.64,0,0,0,1.83-2.88h-3.16c-.06.12-.13.24-.29.5Z"/><path d="M589.06,336.44c2,.32,3.18-.22,3.4-1.52s-.63-2-2.12-2.26a3.44,3.44,0,0,0-2.9.76l-.69-.91a4.9,4.9,0,0,1,3.8-.94c2.22.37,3.58,1.79,3.31,3.48-.23,1.4-1.41,2.18-3.15,2.11v.06c2,.46,3,1.73,2.69,3.43-.32,2-2.16,3-4.76,2.54A5.06,5.06,0,0,1,585,341l.95-.68a4.26,4.26,0,0,0,2.9,1.75c1.77.29,3-.37,3.2-1.73.25-1.55-.74-2.45-3.14-2.85l-.9-.14.17-1Z"/><path d="M596.51,342.23l-.33,2-2-.32.32-2Z"/><path d="M606.15,334.27l-1.22,7.48,2.14.35-.17,1.06-2.15-.35-.44,2.72-1.22-.19.45-2.73-5.7-.93.17-1.05,6.62-6.61Zm-1.79,3.3c.11-.64.31-1.71.46-2.38h-.05a14.93,14.93,0,0,1-1.3,1.59l-4,4.08,4.28.7Z"/><path d="M616.72,341.82c-.59,3.59-2.54,5.54-5.1,5.13s-3.78-2.91-3.19-6.49,2.54-5.54,5.11-5.12S617.31,338.24,616.72,341.82Zm-6.94-1.14c-.47,2.91.3,4.88,2,5.16s3.07-1.34,3.55-4.24-.3-4.89-2-5.18S610.26,337.78,609.78,340.68Z"/><path d="M622.55,338.29a17.29,17.29,0,0,1-2.82.39l-.14-1.09a11.16,11.16,0,0,0,3.55-.68l.93.15-1.87,11.4-1.29-.21Z"/><path d="M59.7,343.65v9.18h2.63v1.31H59.7v3.35H58.21v-3.35h-7v-1.29l6.62-9.2Zm-1.49,4.29c0-.78,0-2.1.08-2.94h-.07A18.5,18.5,0,0,1,57,347.16l-4,5.67h5.27Z"/><path d="M65.9,355.06v2.43H63.47v-2.43Z"/><path d="M78.3,350.61c0,4.41-2,7.13-5.1,7.13s-5.09-2.73-5.09-7.13,2-7.13,5.11-7.13S78.3,346.21,78.3,350.61Zm-8.53,0c0,3.56,1.31,5.77,3.45,5.77s3.41-2.21,3.41-5.77-1.31-5.79-3.45-5.79S69.77,347,69.77,350.61Z"/><path d="M90,350.61c0,4.41-2,7.13-5.09,7.13s-5.1-2.73-5.1-7.13,2-7.13,5.12-7.13S90,346.21,90,350.61Zm-8.52,0c0,3.56,1.31,5.77,3.45,5.77s3.41-2.21,3.41-5.77-1.31-5.79-3.45-5.79S81.49,347,81.49,350.61Z"/><path d="M101.73,350.61c0,4.41-2,7.13-5.09,7.13s-5.1-2.73-5.1-7.13,1.95-7.13,5.11-7.13S101.73,346.21,101.73,350.61Zm-8.52,0c0,3.56,1.3,5.77,3.44,5.77s3.42-2.21,3.42-5.77-1.31-5.79-3.45-5.79S93.21,347,93.21,350.61Z"/><polyline class="cls-4" points="309.84 126.63 309.84 114.89 316.74 126.63 316.74 114.89"/><circle class="cls-5" cx="278.08" cy="116.14" r="24.35"/><polygon points="264.42 115.73 257.06 126.89 301.82 116.85 257.74 104.15 264.42 115.73"/><rect class="cls-6" x="154.11" y="59.53" width="39.3" height="95.53" transform="translate(66.47 281.06) rotate(-90)"/><path class="cls-3" d="M143.23,113.14h15.55v2.1H143.23v1.41h-2.32V98.09h17.33v2h-15Zm.68-2.34a19.38,19.38,0,0,0,5.42-4,51.66,51.66,0,0,0-4.84-3.52l1.41-1.58a58.94,58.94,0,0,1,4.86,3.4,26.84,26.84,0,0,0,2.69-4.43l2.1,1a30.68,30.68,0,0,1-3,4.85c1.16,1,2.7,2.33,4.25,3.8L155.15,112c-1.34-1.35-2.86-2.74-4.08-3.79a21.08,21.08,0,0,1-5.77,4.35Z"/><path class="cls-3" d="M172.39,99.91H163.7V98h19.7v1.87h-8.81v2H179v10.35h-11V101.9h4.33Zm8.21,13.69V101.9h2.12v14.75H180.6V115.5H166.48v1.15h-2.09V101.9h2.09v11.7ZM170,103.6v2.51h2.44V103.6Zm0,4.11v2.8h2.44v-2.8Zm4.48-1.6h2.55V103.6h-2.55Zm0,4.4h2.55v-2.8h-2.55Z"/><path class="cls-3" d="M206.59,116.65h-2.26v-1.06H190.9v1.06h-2.24V97.9h17.93Zm-15.69-3h13.43V99.79H190.9Zm11.5-.89c-1.3-.81-2.84-1.68-4.23-2.39a17.43,17.43,0,0,1-5.37,3l-1.28-1.56a13.55,13.55,0,0,0,4.66-2.44l-.54-.25c-1.34-.67-2.34-1.1-4.1-1.83l.93-1.53a54.85,54.85,0,0,1,5.29,2.18,17.63,17.63,0,0,0,3.86-7l2,.62a23.63,23.63,0,0,1-3.94,7.34l.18.1c1,.52,2.18,1.14,3.76,2.08ZM193.67,106A18.26,18.26,0,0,0,192,101.9l1.91-.77a20.3,20.3,0,0,1,1.72,4.05Zm3.57-.81a24.05,24.05,0,0,0-1.68-4.09l1.83-.72a19.21,19.21,0,0,1,1.72,4Z"/><path class="cls-3" d="M194.45,190.54a54.38,54.38,0,0,1-.11,13.67c-.74,5.24-6.43,9.12-11.59,8.79q-25.37-1.41-50.74-.38c-4.91.23-10.25-3.54-10.91-8.52a54.71,54.71,0,0,1,.11-14.63c.75-5,6.15-8.65,11-8.34q25.37,1.44,50.74.43C188.17,181.32,193.79,185.29,194.45,190.54Z"/><path class="cls-7" d="M195,197.38a56,56,0,0,1-.48,6.85c-.73,5.12-6.24,9.3-11.8,9-16.81-.94-33.88-1.07-50.71-.39-5.27.25-10.46-3.8-11.11-8.67a55.42,55.42,0,0,1,.12-14.67c.73-4.86,6-8.83,11.24-8.5,16.83,1,33.89,1.1,50.72.43,5.56-.26,11,4,11.65,9.14h0A54.28,54.28,0,0,1,195,197.38Zm-74.16-.6a57.28,57.28,0,0,0,.43,7.29c.63,4.7,5.64,8.61,10.72,8.37,16.85-.68,33.93-.55,50.76.39,5.37.33,10.7-3.71,11.4-8.65a54.93,54.93,0,0,0,.11-13.62c-.63-4.95-5.89-9.08-11.26-8.82-16.85.66-33.92.52-50.76-.44-5.07-.32-10.14,3.51-10.85,8.2A55.48,55.48,0,0,0,120.85,196.78Z"/><path class="cls-8" d="M185,186.4l-.18,21.79.82-.08.17-21.62Z"/><path class="cls-7" d="M176.69,184.11l-.69.18a72.73,72.73,0,0,1-18.49,2c-.76,0-1.54,0-2.31,0l0,0-8.24-3.37h.65c1.92,0,3.82,0,5.65,0,7.82.07,15.48.49,22.76,1.26Zm-21.45,1.82c.76,0,1.53,0,2.27,0a74.67,74.67,0,0,0,17.69-1.76c-7-.72-14.45-1.11-22-1.17-1.62,0-3.3,0-5,0Z"/><path class="cls-7" d="M176.48,210.35l-.72.06c-7.3.65-15,1-22.78.89-1.82,0-3.72-.05-5.65-.11l-.65,0,8.35-3.25c.77,0,1.55,0,2.31,0a73,73,0,0,1,18.45,2.25Zm-28.49.59c1.71.05,3.38.08,5,.1,7.55.06,15-.22,22-.83a74.93,74.93,0,0,0-17.66-2c-.75,0-1.52,0-2.28,0Z"/><path class="cls-3" d="M145.31,183l-12.16-.1c-7.14-.05-13,5.39-13.09,12.09l0,3.51c-.06,6.7,5.74,12.24,12.88,12.3l12.17.09a59.06,59.06,0,0,1,.22-27.89Z"/><path d="M145.49,182.9l0,.16A57.3,57.3,0,0,0,143.67,197v.18a58,58,0,0,0,1.56,13.75l0,.16-12.35-.1c-7.23-.06-13.08-5.64-13-12.43l0-3.51c.06-6.79,6-12.28,13.23-12.22Zm-25.31,15.63c-.06,6.65,5.66,12.11,12.75,12.16l12,.1a58,58,0,0,1-1.52-13.64v-.37a58.07,58.07,0,0,1,1.75-13.62l-12-.09c-7.09-.06-12.89,5.3-12.94,12Z"/><path class="cls-3" d="M173.77,187.13a63.07,63.07,0,0,0-.16,20.15,32.92,32.92,0,0,0,11.19.95l.18-21.87A33,33,0,0,0,173.77,187.13Z"/><path d="M185.12,186.24l-.18,22.11-.12,0a33.54,33.54,0,0,1-11.25-1l-.09,0v-.09a63.6,63.6,0,0,1,.16-20.19l0-.09.09,0a33.17,33.17,0,0,1,11.25-.77Zm-.46,21.87.18-21.63a33,33,0,0,0-11,.76,63.51,63.51,0,0,0-.16,19.94A33,33,0,0,0,184.66,208.11Z"/><path class="cls-8" d="M185,186.36l-.18,21.87.82-.08.17-21.69Z"/><path class="cls-3" d="M185.62,208.15l5.83,0a24.8,24.8,0,0,0,.18-21.7l-5.84,0Z"/><path d="M194.18,197.37a22.75,22.75,0,0,1-2.6,10.89l0,.07-6.07-.05.18-22,6.06.05,0,.07A22.67,22.67,0,0,1,194.18,197.37Zm-2.81,10.7a24.72,24.72,0,0,0,.17-21.44l-5.61,0L185.76,208Z"/><path class="cls-8" d="M145.24,183.12l-.78-.28a50,50,0,0,0-.23,28.26l.79-.27A50,50,0,0,1,145.24,183.12Z"/><path class="cls-3" d="M145,210.44l9.89-3.31L155,187l-9.83-3.47A48.63,48.63,0,0,0,145,210.44Z"/><path d="M155.18,186.89,155,207.23l-10.13,3.39,0-.14a48.82,48.82,0,0,1,.22-27l0-.13ZM154.73,207l.16-20-9.6-3.39a48.54,48.54,0,0,0-.21,26.59Z"/><path class="cls-7" d="M191.62,186.54v-.14a3.09,3.09,0,0,0-3.15-3h-.23A7.55,7.55,0,0,1,191.62,186.54Z"/><path class="cls-7" d="M191.45,208.16v.14a3.1,3.1,0,0,1-3.2,3H188A7.46,7.46,0,0,0,191.45,208.16Z"/><path class="cls-3" d="M153.06,179.38a1.34,1.34,0,0,0-1.14.21L149.66,182a.42.42,0,0,0-.07.13h2.09l1.64-2.7Z"/><path class="cls-7" d="M153.53,179.36l-1.77,2.92-2.34,0,0-.16a.32.32,0,0,1,.1-.19l2.25-2.41a1.45,1.45,0,0,1,1.28-.24ZM151.6,182l1.5-2.48-.07,0a1.23,1.23,0,0,0-1,.16L149.85,182Z"/><path class="cls-3" d="M152.77,214.7a1.35,1.35,0,0,1-1.13-.22L149.42,212a.37.37,0,0,1-.07-.12h2.09l1.6,2.73Z"/><path class="cls-7" d="M153.25,214.73l-.44.1a1.5,1.5,0,0,1-1.28-.27l-2.21-2.45a.32.32,0,0,1-.1-.19l0-.16,2.34,0Zm-3.64-2.7,2.14,2.36a1.21,1.21,0,0,0,1,.18l.08,0L151.35,212Z"/><path class="cls-7" d="M137.75,189.74c-4.67,0-8.78.71-11.16,1.86a30.9,30.9,0,0,1,9.89-1.34,39.72,39.72,0,0,1,5.32.4V190A37.26,37.26,0,0,0,137.75,189.74Z"/><path class="cls-7" d="M137.64,204.1c-4.67,0-8.77-.85-11.14-2a30.82,30.82,0,0,0,9.87,1.5,38.83,38.83,0,0,0,5.33-.31v.68A37.93,37.93,0,0,1,137.64,204.1Z"/><rect class="cls-3" x="154.25" y="187.76" width="20.16" height="18.74" transform="translate(-34.12 359.86) rotate(-89.54)"/><path d="M173.92,187l-.17,20.42-19-.15.17-20.42Zm-.45,20.15.16-19.89-18.46-.15L155,207Z"/><path class="cls-3" d="M391.24,318.18a54.3,54.3,0,0,1,.11-13.66c.74-5.24,6.43-9.12,11.59-8.8q25.37,1.41,50.74.39c4.91-.24,10.24,3.53,10.91,8.52a54.23,54.23,0,0,1-.12,14.62c-.74,5-6.14,8.66-11,8.35q-25.37-1.44-50.74-.44C397.52,327.41,391.9,323.43,391.24,318.18Z"/><path class="cls-7" d="M390.68,311.34a56,56,0,0,1,.48-6.84c.73-5.12,6.24-9.3,11.79-9,16.82.94,33.89,1.07,50.72.39,5.27-.25,10.46,3.81,11.11,8.68a55.35,55.35,0,0,1-.12,14.66c-.73,4.86-6,8.83-11.25,8.5-16.82-.95-33.88-1.1-50.71-.43-5.56.26-11-4-11.65-9.14h0A54.18,54.18,0,0,1,390.68,311.34Zm74.15.6a55.59,55.59,0,0,0-.42-7.29c-.63-4.7-5.64-8.61-10.72-8.37-16.85.68-33.93.55-50.76-.38-5.37-.34-10.7,3.7-11.4,8.64a54.93,54.93,0,0,0-.11,13.62c.62,4.95,5.88,9.08,11.26,8.83,16.84-.67,33.92-.52,50.76.43,5.07.32,10.14-3.51,10.85-8.2A55.34,55.34,0,0,0,464.83,311.94Z"/><path class="cls-8" d="M400.72,322.32l.18-21.79-.82.08-.17,21.62Z"/><path class="cls-7" d="M409,324.61l.69-.18a73.59,73.59,0,0,1,18.49-1.95c.76,0,1.53,0,2.31,0h.05l8.24,3.37h-.65c-1.92,0-3.82,0-5.65,0-7.82-.06-15.48-.48-22.77-1.25Zm21.45-1.82c-.76,0-1.53,0-2.28,0a74.24,74.24,0,0,0-17.69,1.75c7.06.72,14.46,1.12,22,1.18,1.62,0,3.3,0,5,0Z"/><path class="cls-7" d="M409.21,298.37l.72-.06c7.3-.65,15-.95,22.78-.89,1.81,0,3.71.06,5.65.11l.65,0-8.35,3.25c-.77,0-1.55,0-2.31,0a73.06,73.06,0,0,1-18.45-2.24Zm28.49-.59c-1.71,0-3.39-.08-5-.09-7.55-.06-14.95.21-22,.82a74.82,74.82,0,0,0,17.66,2h2.28Z"/><path class="cls-3" d="M440.37,325.69l12.17.1c7.14.06,13-5.38,13.08-12.09l0-3.5c.06-6.71-5.74-12.25-12.89-12.3l-12.16-.1a58.09,58.09,0,0,1,1.56,14A57.46,57.46,0,0,1,440.37,325.69Z"/><path d="M440.2,325.82l0-.16a57.28,57.28,0,0,0,1.78-13.9v-.19a57.82,57.82,0,0,0-1.56-13.74l0-.16,12.35.09c7.23.06,13.08,5.64,13,12.44l0,3.5c-.05,6.8-6,12.28-13.22,12.22Zm25.31-15.62c.05-6.66-5.66-12.11-12.75-12.17l-12-.1a58.14,58.14,0,0,1,1.53,13.65v.36a58.53,58.53,0,0,1-1.75,13.62l12,.1c7.08,0,12.89-5.31,12.94-12Z"/><path class="cls-3" d="M411.92,321.59a63.06,63.06,0,0,0,.16-20.15,33,33,0,0,0-11.19-.95l-.18,21.87A33,33,0,0,0,411.92,321.59Z"/><path d="M400.57,322.48l.18-22.11h.12a33.27,33.27,0,0,1,11.25.95l.09,0v.09a63.6,63.6,0,0,1-.16,20.19l0,.09-.09,0a33.23,33.23,0,0,1-11.26.77Zm.46-21.87-.18,21.63a32.89,32.89,0,0,0,10.94-.75,63.27,63.27,0,0,0,.16-19.95A33.14,33.14,0,0,0,401,300.61Z"/><path class="cls-8" d="M400.71,322.36l.18-21.87-.82.08-.17,21.7Z"/><path class="cls-3" d="M400.07,300.57l-5.84-.05a24.84,24.84,0,0,0-.17,21.7l5.84,0Z"/><path d="M391.51,311.35a22.64,22.64,0,0,1,2.6-10.89l0-.07,6.07.05-.18,22-6.07,0,0-.07A22.76,22.76,0,0,1,391.51,311.35Zm2.81-10.69a22.39,22.39,0,0,0-2.53,10.69,22.67,22.67,0,0,0,2.35,10.74l5.62,0,.17-21.43Z"/><path class="cls-8" d="M440.45,325.6l.78.28a50,50,0,0,0,.23-28.25l-.79.26A50,50,0,0,1,440.45,325.6Z"/><path class="cls-3" d="M440.71,298.28l-9.89,3.31-.17,20.15,9.84,3.47A48.63,48.63,0,0,0,440.71,298.28Z"/><path d="M430.51,321.84l.17-20.34,10.13-3.39,0,.14a48.7,48.7,0,0,1-.21,27l0,.14Zm.45-20.16-.17,20L440.4,325a48.54,48.54,0,0,0,.21-26.59Z"/><path class="cls-7" d="M394.07,322.18v.14a3.1,3.1,0,0,0,3.15,3h.24A7.49,7.49,0,0,1,394.07,322.18Z"/><path class="cls-7" d="M394.24,300.56v-.13a3.08,3.08,0,0,1,3.2-3h.23A7.49,7.49,0,0,0,394.24,300.56Z"/><path class="cls-3" d="M432.63,329.34a1.34,1.34,0,0,0,1.14-.2l2.25-2.42a.28.28,0,0,0,.08-.12l-2.09,0-1.64,2.7Z"/><path class="cls-7" d="M432.16,329.37l1.77-2.92h2.34l0,.16a.39.39,0,0,1-.1.19l-2.26,2.41a1.45,1.45,0,0,1-1.27.25Zm1.93-2.66-1.51,2.48.08,0a1.2,1.2,0,0,0,1-.16l2.17-2.32Z"/><path class="cls-3" d="M432.91,294a1.33,1.33,0,0,1,1.14.22l2.22,2.45a.22.22,0,0,1,.06.13l-2.08,0-1.6-2.73Z"/><path class="cls-7" d="M432.44,294l.44-.09a1.47,1.47,0,0,1,1.28.26l2.21,2.45a.35.35,0,0,1,.1.19l0,.16-2.33,0Zm3.64,2.7-2.14-2.36a1.21,1.21,0,0,0-1-.17h-.08l1.46,2.51Z"/><path class="cls-7" d="M447.94,319c4.67,0,8.78-.7,11.16-1.86a30.9,30.9,0,0,1-9.89,1.34,38.13,38.13,0,0,1-5.32-.4v.69A40,40,0,0,0,447.94,319Z"/><path class="cls-7" d="M448.05,304.63c4.67,0,8.77.85,11.13,2a30.71,30.71,0,0,0-9.86-1.5,38.67,38.67,0,0,0-5.33.32v-.69C445.27,304.68,446.64,304.62,448.05,304.63Z"/><rect class="cls-3" x="411.29" y="302.22" width="20.16" height="18.74" transform="translate(736.34 -107.25) rotate(90.46)"/><path d="M411.77,321.72l.17-20.41,19,.15-.17,20.42Zm.45-20.15-.16,19.89,18.45.15.16-19.89Z"/><path class="cls-3" d="M483.72,318.18a55.26,55.26,0,0,1,.11-13.66c.75-5.24,6.44-9.12,11.6-8.8q25.37,1.41,50.74.39c4.91-.24,10.24,3.53,10.91,8.52a54.23,54.23,0,0,1-.12,14.62c-.74,5-6.14,8.66-11,8.35q-25.36-1.44-50.74-.44C490,327.41,484.38,323.43,483.72,318.18Z"/><path class="cls-7" d="M483.17,311.34a54.1,54.1,0,0,1,.48-6.84c.73-5.12,6.24-9.3,11.79-9,16.82.94,33.89,1.07,50.72.39,5.26-.25,10.45,3.81,11.11,8.68a55.35,55.35,0,0,1-.12,14.66c-.73,4.86-6,8.83-11.25,8.5-16.82-.95-33.88-1.1-50.71-.43-5.56.26-11-4-11.65-9.14h0A54.18,54.18,0,0,1,483.17,311.34Zm74.15.6a55.59,55.59,0,0,0-.42-7.29c-.63-4.7-5.64-8.61-10.72-8.37-16.85.68-33.93.55-50.76-.38-5.37-.34-10.7,3.7-11.4,8.64a54.93,54.93,0,0,0-.11,13.62c.62,4.95,5.88,9.08,11.26,8.83,16.84-.67,33.92-.52,50.76.43,5.07.32,10.14-3.51,10.85-8.2A55.34,55.34,0,0,0,557.32,311.94Z"/><path class="cls-8" d="M493.21,322.32l.17-21.79-.81.08-.17,21.62Z"/><path class="cls-7" d="M501.49,324.61l.69-.18a73.59,73.59,0,0,1,18.49-1.95c.76,0,1.53,0,2.31,0h0l8.24,3.37h-.65c-1.92,0-3.82,0-5.65,0-7.82-.06-15.48-.48-22.77-1.25Zm21.45-1.82c-.76,0-1.53,0-2.28,0A74.24,74.24,0,0,0,503,324.5c7.06.72,14.46,1.12,22,1.18,1.62,0,3.3,0,5,0Z"/><path class="cls-7" d="M501.7,298.37l.72-.06c7.3-.65,15-.95,22.78-.89,1.81,0,3.71.06,5.65.11l.65,0-8.35,3.25c-.77,0-1.55,0-2.31,0a73.06,73.06,0,0,1-18.45-2.24Zm28.49-.59c-1.71,0-3.39-.08-5-.09-7.55-.06-15,.21-22,.82a74.82,74.82,0,0,0,17.66,2h2.28Z"/><path class="cls-3" d="M532.86,325.69l12.17.1c7.14.06,13-5.38,13.08-12.09l0-3.5c.06-6.71-5.74-12.25-12.89-12.3l-12.16-.1a58.89,58.89,0,0,1-.23,27.89Z"/><path d="M532.69,325.82l0-.16a57.28,57.28,0,0,0,1.78-13.9v-.19A57.82,57.82,0,0,0,533,297.83l0-.16,12.34.09c7.24.06,13.09,5.64,13,12.44l0,3.5c0,6.8-6,12.28-13.22,12.22ZM558,310.2c0-6.66-5.66-12.11-12.75-12.17l-12-.1a58.14,58.14,0,0,1,1.53,13.65v.36A58.53,58.53,0,0,1,533,325.56l12,.1c7.08,0,12.89-5.31,12.94-12Z"/><path class="cls-3" d="M504.41,321.59a63.06,63.06,0,0,0,.16-20.15,33,33,0,0,0-11.19-.95l-.18,21.87A33,33,0,0,0,504.41,321.59Z"/><path d="M493.06,322.48l.18-22.11h.12a33.27,33.27,0,0,1,11.25.95l.09,0v.09a63.6,63.6,0,0,1-.16,20.19l0,.09-.09,0a33.23,33.23,0,0,1-11.26.77Zm.46-21.87-.18,21.63a32.89,32.89,0,0,0,10.94-.75,63.27,63.27,0,0,0,.16-19.95A33.14,33.14,0,0,0,493.52,300.61Z"/><path class="cls-8" d="M493.2,322.36l.18-21.87-.82.08-.17,21.7Z"/><path class="cls-3" d="M492.56,300.57l-5.84-.05a24.84,24.84,0,0,0-.17,21.7l5.84,0Z"/><path d="M484,311.35a22.64,22.64,0,0,1,2.6-10.89l0-.07,6.06.05-.17,22-6.07,0,0-.07A22.76,22.76,0,0,1,484,311.35Zm2.81-10.69a22.39,22.39,0,0,0-2.53,10.69,22.67,22.67,0,0,0,2.35,10.74l5.62,0,.17-21.43Z"/><path class="cls-8" d="M532.94,325.6l.78.28a50,50,0,0,0,.23-28.25l-.79.26A50,50,0,0,1,532.94,325.6Z"/><path class="cls-3" d="M533.2,298.28l-9.89,3.31-.17,20.15,9.84,3.47A48.63,48.63,0,0,0,533.2,298.28Z"/><path d="M523,321.84l.17-20.34,10.12-3.39,0,.14a48.7,48.7,0,0,1-.21,27l0,.14Zm.45-20.16-.17,20,9.61,3.39a48.54,48.54,0,0,0,.21-26.59Z"/><path class="cls-7" d="M486.55,322.18v.14a3.1,3.1,0,0,0,3.15,3h.24A7.52,7.52,0,0,1,486.55,322.18Z"/><path class="cls-7" d="M486.73,300.56v-.13a3.08,3.08,0,0,1,3.2-3h.23A7.49,7.49,0,0,0,486.73,300.56Z"/><path class="cls-3" d="M525.12,329.34a1.34,1.34,0,0,0,1.14-.2l2.25-2.42a.25.25,0,0,0,.07-.12l-2.08,0-1.64,2.7Z"/><path class="cls-7" d="M524.65,329.37l1.77-2.92h2.34l0,.16a.39.39,0,0,1-.1.19l-2.26,2.41a1.45,1.45,0,0,1-1.27.25Zm1.93-2.66-1.51,2.48.08,0a1.2,1.2,0,0,0,1-.16l2.17-2.32Z"/><path class="cls-3" d="M525.4,294a1.33,1.33,0,0,1,1.14.22l2.21,2.45a.19.19,0,0,1,.07.13l-2.08,0-1.6-2.73Z"/><path class="cls-7" d="M524.93,294l.44-.09a1.47,1.47,0,0,1,1.28.26l2.21,2.45a.44.44,0,0,1,.1.19l0,.16-2.33,0Zm3.63,2.7-2.13-2.36a1.23,1.23,0,0,0-1-.17h-.07l1.46,2.51Z"/><path class="cls-7" d="M540.43,319c4.66,0,8.78-.7,11.16-1.86a30.9,30.9,0,0,1-9.89,1.34,38.13,38.13,0,0,1-5.32-.4v.69A40,40,0,0,0,540.43,319Z"/><path class="cls-7" d="M540.54,304.63c4.67,0,8.77.85,11.13,2a30.71,30.71,0,0,0-9.86-1.5,38.67,38.67,0,0,0-5.33.32v-.69C537.76,304.68,539.13,304.62,540.54,304.63Z"/><rect class="cls-3" x="503.78" y="302.22" width="20.16" height="18.74" transform="translate(829.57 -199.74) rotate(90.46)"/><path d="M504.26,321.72l.17-20.41,19,.15-.17,20.42Zm.44-20.15-.16,19.89,18.46.15.16-19.89Z"/><path class="cls-3" d="M561.28,283.66a47.13,47.13,0,0,1-11.66-1.24c-4.42-1.08-7.25-6.27-6.54-10.65q3.34-21.54,4.6-43.3c.21-4.21,3.88-8.45,8.19-8.6a46.83,46.83,0,0,1,12.48,1.33c4.19,1.06,6.88,6,6.2,10.14q-3.36,21.53-4.64,43.29C569.68,279.07,565.82,283.54,561.28,283.66Z"/><path class="cls-7" d="M555.39,283.56a48,48,0,0,1-5.81-1c-4.31-1.05-7.42-6.11-6.65-10.82,2.22-14.29,3.76-28.85,4.6-43.29.23-4.51,4.13-8.61,8.34-8.75A47.12,47.12,0,0,1,568.39,221c4.09,1,7,5.86,6.31,10.32-2.23,14.29-3.79,28.85-4.64,43.28-.24,4.77-4.35,9.06-8.78,9.18h0A46.36,46.36,0,0,1,555.39,283.56Zm6.75-63.28a46.75,46.75,0,0,0-6.26-.25c-4.07.14-7.83,4.09-8,8.45-.84,14.45-2.38,29-4.6,43.32-.74,4.56,2.26,9.44,6.42,10.46a47.42,47.42,0,0,0,11.63,1.24c4.28-.12,8.24-4.26,8.48-8.87.85-14.45,2.41-29,4.64-43.32.7-4.31-2.14-9-6.08-10A48.11,48.11,0,0,0,562.14,220.28Z"/><path class="cls-8" d="M565.61,275.91l-18.6-2c0,.24,0,.47,0,.71l18.44,2C565.52,276.37,565.57,276.14,565.61,275.91Z"/><path class="cls-7" d="M568.26,269l-.09-.61a62.22,62.22,0,0,1-.11-16c.07-.65.15-1.31.23-2l0,0,3.57-6.76,0,.56c-.13,1.64-.29,3.27-.45,4.83-.72,6.67-1.72,13.17-3,19.34Zm.25-18.47c-.08.64-.16,1.3-.23,1.94a64.47,64.47,0,0,0,0,15.25c1.21-6,2.17-12.25,2.86-18.69.15-1.38.28-2.81.41-4.26Z"/><path class="cls-7" d="M545.87,266.64V266c.06-6.29.45-12.86,1.16-19.53.16-1.55.36-3.17.57-4.82l.07-.55,2.07,7.41c0,.66-.11,1.32-.18,2a63.33,63.33,0,0,1-3.47,15.57Zm1.89-24.38c-.18,1.45-.35,2.88-.5,4.26-.68,6.43-1.07,12.78-1.15,18.87a63.9,63.9,0,0,0,3.23-14.91c.07-.64.13-1.3.18-1.95Z"/><path class="cls-3" d="M571.83,242.32l1.1-10.38c.65-6.09-3.5-11.58-9.22-12.19l-3-.32c-5.72-.61-10.94,3.88-11.59,10L548,239.79a50.71,50.71,0,0,1,23.81,2.53Z"/><path d="M571.92,242.49l-.13-.05a48.54,48.54,0,0,0-11.73-2.69l-.15,0a49.16,49.16,0,0,0-11.87.18h-.15L549,229.39c.66-6.18,5.91-10.7,11.71-10.08l3,.32c5.8.62,10,6.15,9.33,12.32Zm-11.21-22.94c-5.68-.6-10.82,3.82-11.47,9.87l-1.09,10.23a50,50,0,0,1,11.78-.16l.32,0a50.26,50.26,0,0,1,11.48,2.64l1.09-10.23c.65-6-3.45-11.45-9.12-12.06Z"/><path class="cls-3" d="M565.93,266.28a54.23,54.23,0,0,0-17.2-1.83,28.53,28.53,0,0,0-1.75,9.48l18.67,2A28.31,28.31,0,0,0,565.93,266.28Z"/><path d="M565.74,276.05l-18.88-2v-.11a28.27,28.27,0,0,1,1.76-9.52l0-.08h.08A54.45,54.45,0,0,1,566,266.17l.07,0v.07a28.55,28.55,0,0,1-.28,9.68Zm-18.65-2.23,18.47,2a28.52,28.52,0,0,0,.27-9.41,54.29,54.29,0,0,0-17-1.81A28.45,28.45,0,0,0,547.09,273.82Z"/><path class="cls-8" d="M565.65,275.92l-18.67-2v.7l18.52,2Z"/><path class="cls-3" d="M547,274.63l-.53,5a21.3,21.3,0,0,0,18.51,2l.54-5Z"/><path d="M555.47,282.85a19.41,19.41,0,0,1-9.08-3.14l-.06,0,.55-5.17,18.74,2-.55,5.17-.06,0A19.44,19.44,0,0,1,555.47,282.85Zm-8.9-3.3a21.21,21.21,0,0,0,18.29,1.95l.51-4.79-18.29-1.95Z"/><path class="cls-8" d="M571.76,242.25l.3-.64A42.88,42.88,0,0,0,548,239l.16.69A43,43,0,0,1,571.76,242.25Z"/><path class="cls-3" d="M548.44,239.73l2,8.73,17.2,1.83,3.79-8.11A41.82,41.82,0,0,0,548.44,239.73Z"/><path d="M567.7,250.42l-17.35-1.85-2.05-8.94.13,0a41.93,41.93,0,0,1,23,2.46l.12.05Zm-17.17-2.07,17,1.82,3.7-7.92a41.6,41.6,0,0,0-22.69-2.42Z"/><path class="cls-7" d="M564.93,281.58h.12a2.65,2.65,0,0,0,2.84-2.43l0-.21A6.41,6.41,0,0,1,564.93,281.58Z"/><path class="cls-7" d="M546.48,279.61h-.11a2.66,2.66,0,0,1-2.26-3l0-.2A6.41,6.41,0,0,0,546.48,279.61Z"/><path class="cls-3" d="M574.29,249.25a1.13,1.13,0,0,0-.08-1l-1.87-2.13a.35.35,0,0,0-.1-.08l-.19,1.78,2.17,1.63Z"/><path class="cls-7" d="M574.27,249.65l-2.34-1.76.21-2,.13,0a.31.31,0,0,1,.15.1l1.88,2.13a1.29,1.29,0,0,1,.1,1.11Zm-2.1-1.87,2,1.49,0-.06a1,1,0,0,0,0-.87l-1.8-2.05Z"/><path class="cls-3" d="M544.16,246a1.12,1.12,0,0,1,.28-.95l2.28-1.69a.19.19,0,0,1,.11,0l-.19,1.77-2.46,1.14Z"/><path class="cls-7" d="M544.09,246.43l-.05-.38a1.27,1.27,0,0,1,.33-1.07l2.28-1.69a.32.32,0,0,1,.17-.06l.14,0-.21,2Zm2.61-2.87-2.2,1.62a1,1,0,0,0-.23.84v.06l2.26-1Z"/><path class="cls-7" d="M566.73,235.3a23.27,23.27,0,0,0-.65-9.69,26.42,26.42,0,0,1,.31,8.56,32,32,0,0,1-.79,4.51l.59.06A31.38,31.38,0,0,0,566.73,235.3Z"/><path class="cls-7" d="M554.48,234c.43-4,1.46-7.41,2.69-9.33a26.35,26.35,0,0,0-2.12,8.3,33,33,0,0,0-.17,4.58l-.59-.06A32.75,32.75,0,0,1,554.48,234Z"/><rect class="cls-3" x="549.54" y="249.33" width="17.3" height="16.08" transform="translate(30.44 -57.74) rotate(6.09)"/><path d="M566,266.42l-17.42-1.86,1.73-16.23,17.42,1.86Zm-17.17-2.08,17,1.81,1.68-15.75-17-1.81Z"/><path class="cls-3" d="M194.45,241.56a54.3,54.3,0,0,1-.11,13.66c-.74,5.24-6.43,9.12-11.59,8.8q-25.37-1.41-50.74-.39c-4.91.23-10.25-3.54-10.91-8.52a54.64,54.64,0,0,1,.11-14.62c.75-5,6.15-8.66,11-8.35q25.37,1.44,50.74.43C188.17,232.33,193.79,236.3,194.45,241.56Z"/><path class="cls-7" d="M195,248.39a56,56,0,0,1-.48,6.85c-.73,5.12-6.24,9.3-11.8,8.95-16.81-.93-33.88-1.06-50.71-.38-5.27.25-10.46-3.81-11.11-8.68a55.35,55.35,0,0,1,.12-14.66c.73-4.87,6-8.84,11.24-8.5,16.83.95,33.89,1.09,50.72.43,5.56-.26,11,4,11.65,9.14h0A54,54,0,0,1,195,248.39Zm-74.16-.59a57.39,57.39,0,0,0,.43,7.29c.63,4.7,5.64,8.61,10.72,8.37,16.85-.69,33.93-.56,50.76.38,5.37.34,10.7-3.7,11.4-8.64a54.94,54.94,0,0,0,.11-13.62c-.63-5-5.89-9.08-11.26-8.83-16.85.67-33.92.52-50.76-.43-5.07-.32-10.14,3.51-10.85,8.19A55.63,55.63,0,0,0,120.85,247.8Z"/><path class="cls-8" d="M185,237.41l-.18,21.8.82-.08.17-21.62Z"/><path class="cls-7" d="M176.69,235.13l-.69.18a73.64,73.64,0,0,1-18.49,1.95c-.76,0-1.54,0-2.31,0h0l-8.24-3.37h.65c1.92,0,3.82,0,5.65,0,7.82.06,15.48.48,22.76,1.25ZM155.24,237c.76,0,1.53,0,2.27,0a74.71,74.71,0,0,0,17.69-1.75c-7-.72-14.45-1.12-22-1.18-1.62,0-3.3,0-5,0Z"/><path class="cls-7" d="M176.48,261.36l-.72.07c-7.3.65-15,.95-22.78.88-1.82,0-3.72-.05-5.65-.11l-.65,0,8.35-3.25h2.31a73.06,73.06,0,0,1,18.45,2.24ZM148,262c1.71.05,3.38.08,5,.09,7.55.06,15-.22,22-.82a74.89,74.89,0,0,0-17.66-2c-.75,0-1.52,0-2.28,0Z"/><path class="cls-3" d="M145.31,234.05l-12.16-.1c-7.14-.06-13,5.38-13.09,12.09l0,3.5c-.06,6.71,5.74,12.24,12.88,12.3l12.17.1a59.06,59.06,0,0,1,.22-27.89Z"/><path d="M145.49,233.92l0,.16a57.28,57.28,0,0,0-1.78,13.9v.18a57.9,57.9,0,0,0,1.56,13.75l0,.16-12.35-.1c-7.23-.05-13.08-5.63-13-12.43l0-3.5c.06-6.8,6-12.28,13.23-12.22Zm-25.31,15.62c-.06,6.65,5.66,12.11,12.75,12.17l12,.1a58.13,58.13,0,0,1-1.52-13.65v-.37a57.92,57.92,0,0,1,1.75-13.61l-12-.1c-7.09-.06-12.89,5.31-12.94,12Z"/><path class="cls-3" d="M173.77,238.14a63.13,63.13,0,0,0-.16,20.16,32.92,32.92,0,0,0,11.19.95l.18-21.87A33,33,0,0,0,173.77,238.14Z"/><path d="M185.12,237.26l-.18,22.11h-.12a33.27,33.27,0,0,1-11.25-.95l-.09,0v-.08a63.67,63.67,0,0,1,.16-20.2l0-.08.09,0a33.44,33.44,0,0,1,11.25-.78Zm-.46,21.87.18-21.64a33.24,33.24,0,0,0-11,.76,63.51,63.51,0,0,0-.16,19.94A33,33,0,0,0,184.66,259.13Z"/><path class="cls-8" d="M185,237.38l-.18,21.87.82-.08.17-21.7Z"/><path class="cls-3" d="M185.62,259.17l5.83,0a24.77,24.77,0,0,0,.18-21.69l-5.84-.05Z"/><path d="M194.18,248.39a22.75,22.75,0,0,1-2.6,10.89l0,.07-6.07-.05.18-22,6.06,0,0,.07A22.64,22.64,0,0,1,194.18,248.39Zm-2.81,10.69a24.7,24.7,0,0,0,.17-21.43l-5.61-.05L185.76,259Z"/><path class="cls-8" d="M145.24,234.14l-.78-.28a50,50,0,0,0-.23,28.25l.79-.26A50,50,0,0,1,145.24,234.14Z"/><path class="cls-3" d="M145,261.46l9.89-3.31L155,238l-9.83-3.47A48.67,48.67,0,0,0,145,261.46Z"/><path d="M155.18,237.9,155,258.24l-10.13,3.39,0-.14a48.79,48.79,0,0,1,.22-27l0-.14Zm-.45,20.15.16-20-9.6-3.39a48.54,48.54,0,0,0-.21,26.59Z"/><path class="cls-7" d="M191.62,237.56v-.14a3.08,3.08,0,0,0-3.15-3h-.23A7.44,7.44,0,0,1,191.62,237.56Z"/><path class="cls-7" d="M191.45,259.17v.14a3.1,3.1,0,0,1-3.2,3H188A7.43,7.43,0,0,0,191.45,259.17Z"/><path class="cls-3" d="M153.06,230.4a1.34,1.34,0,0,0-1.14.2L149.66,233a.37.37,0,0,0-.07.12l2.09,0,1.64-2.7Z"/><path class="cls-7" d="M153.53,230.37l-1.77,2.92-2.34,0,0-.15a.32.32,0,0,1,.1-.19l2.25-2.42a1.52,1.52,0,0,1,1.28-.24ZM151.6,233l1.5-2.48-.07,0a1.2,1.2,0,0,0-1,.16L149.85,233Z"/><path class="cls-3" d="M152.77,265.71a1.35,1.35,0,0,1-1.13-.22L149.42,263a.42.42,0,0,1-.07-.13l2.09,0,1.6,2.73Z"/><path class="cls-7" d="M153.25,265.75l-.44.09a1.5,1.5,0,0,1-1.28-.26l-2.21-2.45a.35.35,0,0,1-.1-.19l0-.16,2.34,0Zm-3.64-2.7,2.14,2.36a1.21,1.21,0,0,0,1,.17h.08l-1.47-2.51Z"/><path class="cls-7" d="M137.75,240.75c-4.67,0-8.78.71-11.16,1.87a30.9,30.9,0,0,1,9.89-1.34,38.13,38.13,0,0,1,5.32.4V241A40,40,0,0,0,137.75,240.75Z"/><path class="cls-7" d="M137.64,255.11c-4.67,0-8.77-.85-11.14-2a30.82,30.82,0,0,0,9.87,1.5,38.76,38.76,0,0,0,5.33-.32v.69C140.41,255.06,139.05,255.12,137.64,255.11Z"/><rect class="cls-3" x="154.25" y="238.78" width="20.16" height="18.74" transform="translate(-85.14 410.47) rotate(-89.54)"/><path d="M173.92,238l-.17,20.42-19-.15.17-20.42Zm-.45,20.16.16-19.89-18.46-.15L155,258Z"/><path class="cls-3" d="M194.45,292.57a54.38,54.38,0,0,1-.11,13.67c-.74,5.24-6.43,9.12-11.59,8.79q-25.37-1.41-50.74-.38c-4.91.23-10.25-3.54-10.91-8.53a54.64,54.64,0,0,1,.11-14.62c.75-5,6.15-8.65,11-8.34q25.37,1.43,50.74.43C188.17,283.35,193.79,287.32,194.45,292.57Z"/><path class="cls-7" d="M195,299.41a56,56,0,0,1-.48,6.85c-.73,5.12-6.24,9.3-11.8,8.95-16.81-.94-33.88-1.07-50.71-.39-5.27.25-10.46-3.8-11.11-8.67a55.42,55.42,0,0,1,.12-14.67c.73-4.86,6-8.83,11.24-8.5,16.83.95,33.89,1.1,50.72.43,5.56-.26,11,4,11.65,9.14h0A54.28,54.28,0,0,1,195,299.41Zm-74.16-.6a57.28,57.28,0,0,0,.43,7.29c.63,4.7,5.64,8.61,10.72,8.37,16.85-.68,33.93-.55,50.76.39,5.37.33,10.7-3.71,11.4-8.65a54.93,54.93,0,0,0,.11-13.62c-.63-4.95-5.89-9.08-11.26-8.82-16.85.66-33.92.52-50.76-.44-5.07-.32-10.14,3.51-10.85,8.2A55.48,55.48,0,0,0,120.85,298.81Z"/><path class="cls-8" d="M185,288.43l-.18,21.79.82-.08.17-21.62Z"/><path class="cls-7" d="M176.69,286.14l-.69.18a72.73,72.73,0,0,1-18.49,1.95c-.76,0-1.54,0-2.31,0l0,0-8.24-3.37h.65c1.92,0,3.82,0,5.65,0,7.82.07,15.48.49,22.76,1.26ZM155.24,288c.76,0,1.53,0,2.27.05a74.67,74.67,0,0,0,17.69-1.76c-7-.72-14.45-1.11-22-1.17-1.62,0-3.3,0-5,0Z"/><path class="cls-7" d="M176.48,312.38l-.72.06c-7.3.65-15,.95-22.78.89-1.82,0-3.72-.05-5.65-.11l-.65,0L155,310c.77,0,1.55,0,2.31,0a73.52,73.52,0,0,1,18.45,2.24ZM148,313c1.71,0,3.38.08,5,.1,7.55.06,15-.22,22-.83a75.42,75.42,0,0,0-17.66-2h-2.28Z"/><path class="cls-3" d="M145.31,285.06l-12.16-.1c-7.14,0-13,5.39-13.09,12.09l0,3.51c-.06,6.7,5.74,12.24,12.88,12.3l12.17.09a59.06,59.06,0,0,1,.22-27.89Z"/><path d="M145.49,284.93l0,.16a57.28,57.28,0,0,0-1.78,13.9v.19a58,58,0,0,0,1.56,13.75l0,.16-12.35-.1c-7.23-.06-13.08-5.64-13-12.43l0-3.51c.06-6.79,6-12.28,13.23-12.22Zm-25.31,15.63c-.06,6.65,5.66,12.11,12.75,12.16l12,.1a58,58,0,0,1-1.52-13.64v-.37a58.07,58.07,0,0,1,1.75-13.62l-12-.09c-7.09-.06-12.89,5.3-12.94,11.95Z"/><path class="cls-3" d="M173.77,289.16a63.07,63.07,0,0,0-.16,20.15,32.92,32.92,0,0,0,11.19.95l.18-21.87A33,33,0,0,0,173.77,289.16Z"/><path d="M185.12,288.27l-.18,22.11-.12,0a33.54,33.54,0,0,1-11.25-1l-.09,0v-.09a63.6,63.6,0,0,1,.16-20.19l0-.09.09,0a33.17,33.17,0,0,1,11.25-.77Zm-.46,21.87.18-21.63a33,33,0,0,0-11,.76,63.51,63.51,0,0,0-.16,19.94A33,33,0,0,0,184.66,310.14Z"/><path class="cls-8" d="M185,288.39l-.18,21.87.82-.08.17-21.69Z"/><path class="cls-3" d="M185.62,310.18l5.83.05a24.8,24.8,0,0,0,.18-21.7l-5.84,0Z"/><path d="M194.18,299.4a22.75,22.75,0,0,1-2.6,10.89l0,.07-6.07-.05.18-22,6.06,0,0,.07A22.67,22.67,0,0,1,194.18,299.4Zm-2.81,10.7a24.72,24.72,0,0,0,.17-21.44l-5.61,0-.17,21.43Z"/><path class="cls-8" d="M145.24,285.15l-.78-.28a50,50,0,0,0-.23,28.26l.79-.27A50,50,0,0,1,145.24,285.15Z"/><path class="cls-3" d="M145,312.47l9.89-3.31L155,289l-9.83-3.47A48.63,48.63,0,0,0,145,312.47Z"/><path d="M155.18,288.92,155,309.26l-10.13,3.39,0-.14a48.82,48.82,0,0,1,.22-27l0-.14Zm-.45,20.15.16-20-9.6-3.39a48.54,48.54,0,0,0-.21,26.59Z"/><path class="cls-7" d="M191.62,288.57v-.14a3.09,3.09,0,0,0-3.15-3h-.23A7.49,7.49,0,0,1,191.62,288.57Z"/><path class="cls-7" d="M191.45,310.19v.14a3.1,3.1,0,0,1-3.2,3H188A7.46,7.46,0,0,0,191.45,310.19Z"/><path class="cls-3" d="M153.06,281.41a1.34,1.34,0,0,0-1.14.21L149.66,284a.33.33,0,0,0-.07.13h2.09l1.64-2.7Z"/><path class="cls-7" d="M153.53,281.39l-1.77,2.92-2.34,0,0-.16a.32.32,0,0,1,.1-.19l2.25-2.41a1.45,1.45,0,0,1,1.28-.24ZM151.6,284l1.5-2.48-.07,0a1.23,1.23,0,0,0-1,.16L149.85,284Z"/><path class="cls-3" d="M152.77,316.73a1.35,1.35,0,0,1-1.13-.22l-2.22-2.46a.37.37,0,0,1-.07-.12h2.09l1.6,2.73Z"/><path class="cls-7" d="M153.25,316.76l-.44.09a1.47,1.47,0,0,1-1.28-.26l-2.21-2.45a.32.32,0,0,1-.1-.19l0-.16,2.34,0Zm-3.64-2.7,2.14,2.36a1.21,1.21,0,0,0,1,.18l.08,0-1.47-2.51Z"/><path class="cls-7" d="M137.75,291.77c-4.67,0-8.78.71-11.16,1.86a30.9,30.9,0,0,1,9.89-1.34,39.72,39.72,0,0,1,5.32.4V292A37.26,37.26,0,0,0,137.75,291.77Z"/><path class="cls-7" d="M137.64,306.13c-4.67,0-8.77-.85-11.14-2.05a30.82,30.82,0,0,0,9.87,1.5,38.83,38.83,0,0,0,5.33-.31V306A37.93,37.93,0,0,1,137.64,306.13Z"/><rect class="cls-3" x="154.25" y="289.79" width="20.16" height="18.74" transform="translate(-136.15 461.07) rotate(-89.54)"/><path d="M173.92,289l-.17,20.42-19-.16.17-20.41Zm-.45,20.15.16-19.89-18.46-.15L155,309Z"/><line class="繧ｰ繝ｩ繝輔ぅ繝け繧ｹ繧ｿ繧､繝ｫ" x1="612.86" y1="126.81" x2="575.65" y2="367.16"/><line class="繧ｰ繝ｩ繝輔ぅ繝け繧ｹ繧ｿ繧､繝ｫ" x1="658.97" y1="130.08" x2="624.79" y2="376.24"/><line class="cls-9" x1="667.68" y1="130.08" x2="667.47" y2="131.56"/><line class="cls-10" x1="667.06" y1="134.56" x2="633.91" y2="373.25"/><line class="cls-9" x1="633.7" y1="374.75" x2="633.5" y2="376.24"/><polyline class="cls-11" points="622.48 332.26 631.52 327.81 571.18 319.08 583.88 314.01"/><polygon class="繧ｰ繝ｩ繝輔ぅ繝け繧ｹ繧ｿ繧､繝ｫ-6" points="607.3 162.77 594.7 162.77 568.71 335.47 580.56 335.47 607.3 162.77"/><polyline class="繧ｰ繝ｩ繝輔ぅ繝け繧ｹ繧ｿ繧､繝ｫ" points="101.9 126.81 101.9 162.77 111.16 335.47 111.16 369.29"/><line class="繧ｰ繝ｩ繝輔ぅ繝け繧ｹ繧ｿ繧､繝ｫ" x1="31.4" y1="130.08" x2="43.15" y2="375.7"/><polyline class="cls-11" points="47.82 328.7 41.22 335.47 111.16 335.47 102.57 340.45"/><rect class="cls-12" x="204.81" y="202.3" width="121.06" height="111.09"/><polygon class="cls-12" points="390.68 191.62 390.68 284.9 516.01 284.9 516.01 226.15 539.16 226.15 539.16 191.62 390.68 191.62"/><rect class="cls-13" x="299.51" y="176.65" width="17.82" height="33.47" transform="translate(115.04 501.81) rotate(-90)"/><rect class="cls-13" x="280.19" y="191.16" width="17.82" height="4.45" transform="translate(95.72 482.49) rotate(-90)"/><polygon points="308.42 199.56 314.47 190.75 302.38 190.75 308.42 199.56"/><rect class="cls-13" x="514.52" y="164.8" width="20.24" height="33.38" transform="translate(343.15 706.14) rotate(-90)"/><rect class="cls-13" x="533.62" y="179.09" width="20.24" height="4.81" transform="translate(362.25 725.23) rotate(-90)"/><polygon points="524.65 188.66 531.16 179.17 518.13 179.17 524.65 188.66"/><rect class="繧ｰ繝ｩ繝輔ぅ繝け繧ｹ繧ｿ繧､繝ｫ-6" x="279.74" y="365.73" width="56.47" height="19.95"/><line class="cls-11" x1="598.02" y1="360.44" x2="584.98" y2="396.59"/><path d="M252.41,251.58c.87-3.59,3.82-7.18,8.34-10.2l.88-.57c4.69-3.05,5.93-4.52,5.93-7,0-2.75-2.28-4.59-5.73-4.59-2.82,0-4.8,1-6.94,3.59l-2.11-1.78a10.77,10.77,0,0,1,9.18-4.49c5.23,0,9.05,3.08,9.05,7.34,0,3.38-1.31,5-7.31,8.78l-1.2.77c-4,2.62-6.51,5.5-6.81,7.91h15.72v2.85h-19Z"/><path d="M238.62,276.14a32.4,32.4,0,0,1-1.1,3.29h18.84c-.27,4.09-.94,7.74-1.78,9.59s-1.91,2.41-4.93,2.41c-1.77,0-4.15-.1-5.8-.23l-.6-2.55c2.31.2,4.56.33,6.17.33s2.18-.26,2.65-1.34a30.91,30.91,0,0,0,1.27-5.93H236.61c-.43.94-.9,1.91-1.4,2.85l-2.72-.77a46.12,46.12,0,0,0,3.32-7.65h-7.48v-2.28h31.85v2.28Zm16.57-5.33h-21.9v-9.52h21.9ZM236,268.67h16.46v-5.16H236Z"/><path d="M268.84,275a40,40,0,0,1-4.06,9.08l-1.24-2.68a37.73,37.73,0,0,0,5.06-12.1H264V267h4.83v-7.17h2.48V267h3.48v2.35h-3.48v3.12a39.62,39.62,0,0,1,4.12,3.92L274,278.62a38.39,38.39,0,0,0-2.71-3.45v16.5h-2.48Zm18.7,4.66a25.07,25.07,0,0,0,8.55,7.57l-1.58,2.35a27.44,27.44,0,0,1-8.64-8.58v10.63h-2.39V281.24a25.83,25.83,0,0,1-8.61,8.85l-1.68-2A23.85,23.85,0,0,0,282,279.7h-6.21V267.76h7.71v-2.48H274V263.1h9.45v-3.28h2.39v3.28h9.65v2.18h-9.65v2.48h7.94V279.7Zm-9.39-9.89v2.85h5.33v-2.85Zm0,4.89v2.92h5.33V274.7Zm7.72-2h5.59v-2.85h-5.59Zm0,5h5.59V274.7h-5.59Z"/><path d="M452.36,207.77a41,41,0,0,1-6.5,2l-.74-2.52a26.61,26.61,0,0,0,8.11-3h2.25v27.66h-3.12Z"/><path d="M429.63,253.86c-.34,1.2-.74,2.34-1.11,3.28h18.84c-.27,4.09-.94,7.75-1.78,9.59s-1.91,2.41-4.92,2.41c-1.78,0-4.16-.1-5.8-.23l-.61-2.55c2.32.2,4.56.34,6.17.34s2.18-.27,2.65-1.35a30.72,30.72,0,0,0,1.27-5.93H427.61c-.43.94-.9,1.91-1.4,2.85l-2.72-.77a46,46,0,0,0,3.32-7.64h-7.48v-2.28h31.85v2.28Zm16.56-5.33H424.3V239h21.89ZM427,246.38h16.46v-5.16H427Z"/><path d="M459.84,252.75a40,40,0,0,1-4.06,9.08l-1.24-2.68a37.73,37.73,0,0,0,5.06-12.1H455V244.7h4.83v-7.17h2.48v7.17h3.48v2.35h-3.48v3.12a38.64,38.64,0,0,1,4.12,3.92L465,256.34a37,37,0,0,0-2.71-3.46v16.5h-2.48Zm18.7,4.66a25.2,25.2,0,0,0,8.55,7.58l-1.57,2.34a27.37,27.37,0,0,1-8.65-8.58v10.63h-2.38V259a25.86,25.86,0,0,1-8.62,8.85l-1.68-2a23.88,23.88,0,0,0,8.79-8.35h-6.2V245.48h7.71V243H465v-2.17h9.46v-3.29h2.38v3.29h9.65V243h-9.65v2.49h7.94v11.93Zm-9.38-9.89v2.85h5.33v-2.85Zm0,4.89v2.92h5.33v-2.92Zm7.71-2h5.6v-2.85h-5.6Zm0,5h5.6v-2.92h-5.6Z"/></g></svg>