<svg xmlns="http://www.w3.org/2000/svg" width="700" height="500" viewBox="0 0 700 500"><defs><style>.cls-1,.繧ｰ繝ｩ繝輔ぅ繝け繧ｹ繧ｿ繧､繝ｫ-3,.繧ｰ繝ｩ繝輔ぅ繝け繧ｹ繧ｿ繧､繝ｫ-4{fill:#fff;}.繧ｰ繝ｩ繝輔ぅ繝け繧ｹ繧ｿ繧､繝ｫ-2{fill:#d8eacc;}.cls-2,.cls-3,.繧ｰ繝ｩ繝輔ぅ繝け繧ｹ繧ｿ繧､繝ｫ,.繧ｰ繝ｩ繝輔ぅ繝け繧ｹ繧ｿ繧､繝ｫ-2,.繧ｰ繝ｩ繝輔ぅ繝け繧ｹ繧ｿ繧､繝ｫ-3,.繧ｰ繝ｩ繝輔ぅ繝け繧ｹ繧ｿ繧､繝ｫ-4,.繧ｰ繝ｩ繝輔ぅ繝け繧ｹ繧ｿ繧､繝ｫ-7{stroke:#000;}.繧ｰ繝ｩ繝輔ぅ繝け繧ｹ繧ｿ繧､繝ｫ,.繧ｰ繝ｩ繝輔ぅ繝け繧ｹ繧ｿ繧､繝ｫ-2,.繧ｰ繝ｩ繝輔ぅ繝け繧ｹ繧ｿ繧､繝ｫ-3{stroke-width:2px;}.cls-2,.cls-3,.繧ｰ繝ｩ繝輔ぅ繝け繧ｹ繧ｿ繧､繝ｫ,.繧ｰ繝ｩ繝輔ぅ繝け繧ｹ繧ｿ繧､繝ｫ-7{fill:none;}.cls-2,.cls-3{stroke-linecap:round;stroke-linejoin:round;}.cls-2{stroke-width:1.43px;}.cls-3{stroke-width:1.83px;}.cls-4{fill:#e83589;}.cls-5{fill:#030201;}.cls-6{fill:#242323;}.繧ｰ繝ｩ繝輔ぅ繝け繧ｹ繧ｿ繧､繝ｫ,.繧ｰ繝ｩ繝輔ぅ繝け繧ｹ繧ｿ繧､繝ｫ-3,.繧ｰ繝ｩ繝輔ぅ繝け繧ｹ繧ｿ繧､繝ｫ-4{stroke-miterlimit:10;}.繧ｰ繝ｩ繝輔ぅ繝け繧ｹ繧ｿ繧､繝ｫ-4{stroke-width:1.27px;}.繧ｰ繝ｩ繝輔ぅ繝け繧ｹ繧ｿ繧､繝ｫ-7{stroke-linejoin:bevel;stroke-width:1.5px;}</style></defs><title>kukakuzu</title><g id="レイヤー_2" data-name="レイヤー 2"><rect class="cls-1" width="700" height="500"/><polygon class="繧ｰ繝ｩ繝輔ぅ繝け繧ｹ繧ｿ繧､繝ｫ-2" points="181.72 58.18 395.43 58.18 395.43 360.31 156.02 360.31 181.72 58.18"/><rect class="繧ｰ繝ｩ繝輔ぅ繝け繧ｹ繧ｿ繧､繝ｫ-2" x="395.43" y="58.18" width="210.77" height="302.13"/><path d="M502.75,384.57v1.87H491.3v3.34h8.82v10.38c0,1.51-.67,2.06-2.52,2.06a31,31,0,0,1-3.2-.16l-.34-2a21.52,21.52,0,0,0,3.15.26c.68,0,.83-.13.83-.75v-8H491.3v14.13h-2.06V391.6h-6.4v10.91h-2.06V389.78h8.46v-3.34H478v-1.87h11.22V381h2.06v3.57Z"/><path d="M511.44,400.32c2.11,2.11,4.53,2.91,8.9,2.94h10.23a9.8,9.8,0,0,0-.62,1.85h-9.89c-4.56-.05-7.08-.91-9.32-3.18a25.7,25.7,0,0,1-4.06,3.83l-1.15-1.85a25.11,25.11,0,0,0,3.93-3v-7h-3.85v-1.77h5.83Zm-1.12-13a26.62,26.62,0,0,0-3.8-4.43l1.43-1.19a25.74,25.74,0,0,1,3.91,4.24Zm2.55-1.38v-1.64h4.61a16.25,16.25,0,0,0-1.67-2.5l1.83-.7a18.9,18.9,0,0,1,1.87,3.2h3.38a25.32,25.32,0,0,0,1.44-3.25l2,.52a20.29,20.29,0,0,1-1.48,2.73h4.87V386h-7.53c-.13.44-.54,1.54-.8,2.16H528v13.28H514.72V388.11h4.79a18.09,18.09,0,0,0,.68-2.16Zm3.78,6H526v-2.4h-9.37Zm0,3.77H526v-2.37h-9.37Zm0,4.09H526v-2.6h-9.37Z"/><path d="M387.51,422.32a31.22,31.22,0,0,0-4.06-4l1.38-1.43a24.69,24.69,0,0,1,4.14,3.9Zm-3.44,10.6a39.4,39.4,0,0,0,4.59-8.54l1.64,1.27a44.11,44.11,0,0,1-4.56,8.8Zm4.38-17.24a27.45,27.45,0,0,0-4-4.06l1.35-1.35a23.7,23.7,0,0,1,4.07,3.88Zm10.31,7.4,0,.05a57.07,57.07,0,0,1-3.7,8.07l-.1.23,1.93-.16c1.92-.15,4.86-.46,7.18-.78-.81-1.35-1.74-2.76-2.73-4.14l1.64-.91a47.81,47.81,0,0,1,5.13,7.89l-1.85,1.17c-.6-1.22-.86-1.74-1.3-2.52l-.26,0c-2.89.57-9,1.38-13.31,1.74l-.67-2,1-.05.31,0,.7-.05a59.9,59.9,0,0,0,3.86-8.65H390V421.2H398v-5.26h-6.54v-1.79H398V410h2v4.19h6.92v1.79H400v5.26h8.27v1.74h-9.47Z"/><path d="M424.49,411.65v14.08h4v2h-4v5.13H422.2v-5.13H411.48v-2l10.15-14.11Zm-2.29,6.58c0-1.19.06-3.22.13-4.5h-.1a28.55,28.55,0,0,1-1.9,3.31l-6.2,8.69h8.07Z"/><path d="M434.25,430.81c.68-2.79,3-5.57,6.48-7.92l.68-.44c3.64-2.37,4.61-3.51,4.61-5.41,0-2.14-1.77-3.57-4.45-3.57-2.19,0-3.73.81-5.39,2.79l-1.64-1.38a8.36,8.36,0,0,1,7.13-3.49c4.06,0,7,2.39,7,5.7,0,2.63-1,3.85-5.68,6.82l-.93.6c-3.1,2-5,4.27-5.29,6.14H449v2.21H434.25Z"/><path d="M467.1,434.69h-2v-8.34A25.28,25.28,0,0,1,455,433.64l-1.2-1.66a25.62,25.62,0,0,0,9.63-6.12h-9.53v-1.74h11.22v-2.84h2v2.84h11.4v1.74h-9.63a27.27,27.27,0,0,0,9.78,5.52l-1.27,1.82a26.4,26.4,0,0,1-10.28-7Zm7-22.29a23.81,23.81,0,0,1-6,5.44,35.64,35.64,0,0,0,9.9,3.07L477,422.69a40.74,40.74,0,0,1-10.6-3.73,36,36,0,0,1-10.9,4l-1.05-1.61a34.27,34.27,0,0,0,10.34-3.41,32.85,32.85,0,0,1-3.7-3.28,21.23,21.23,0,0,1-4.53,2.79l-1.27-1.36a17.85,17.85,0,0,0,7.78-6.22l2,.39c-.39.6-.49.7-.86,1.2h8.9Zm-11.35.65a5.53,5.53,0,0,1-.42.42,20.53,20.53,0,0,0,4.09,3.41,23.11,23.11,0,0,0,4.66-3.83Z"/><path d="M488.72,414a33.27,33.27,0,0,1-5.1,1.54l-.52-1.88a25.24,25.24,0,0,0,6.27-2.31h1.7v21.47h-2.35Z"/><path d="M505,426.43l.15-.05.11-.05c1-.31,2.18-.78,2.94-1.12l.21,1.85a71.12,71.12,0,0,1-8.41,3.07l-.73-2c1.46-.4,1.67-.45,3.07-.86l.63-.19V414.85h-3.39V413h8.25v1.85H505Zm1.85,6.82a15.64,15.64,0,0,0,5.46-3.59l1.59,1.07a19.15,19.15,0,0,1-5.62,4ZM522,415.47v13.88h-12.5V415.47h4.07a24.62,24.62,0,0,0,.7-2.65h-6.51V411.1h16.09v1.72h-7.55a22.4,22.4,0,0,1-.89,2.65Zm-10.57,1.59v2.53H520v-2.53Zm0,6.48H520v-2.42h-8.62Zm0,4.19H520v-2.68h-8.62Zm11,6.93a35.09,35.09,0,0,0-5.21-3.91l1.43-1.14a35.07,35.07,0,0,1,5.31,3.59Z"/><path d="M534.27,414a33.77,33.77,0,0,1-5.11,1.54l-.52-1.88a25.34,25.34,0,0,0,6.28-2.31h1.69v21.47h-2.34Z"/><path d="M552.9,422.63a25.22,25.22,0,0,1-.86,2.55h14.63a24.94,24.94,0,0,1-1.38,7.45c-.65,1.46-1.48,1.87-3.83,1.87-1.38,0-3.23-.07-4.5-.18l-.47-2c1.8.16,3.54.26,4.79.26s1.69-.2,2.06-1a24.4,24.4,0,0,0,1-4.61h-13c-.34.73-.71,1.49-1.1,2.22l-2.1-.6a36.32,36.32,0,0,0,2.57-5.94h-5.8v-1.77h24.73v1.77Zm12.86-4.14h-17V411.1h17Zm-14.89-1.66h12.78v-4H550.87Z"/><path d="M578.32,429.27c2.11,2.11,4.54,2.92,8.91,2.94h10.23a9.8,9.8,0,0,0-.63,1.85h-9.89c-4.55-.05-7.08-.91-9.32-3.17a25.66,25.66,0,0,1-4.06,3.82l-1.14-1.85a25.11,25.11,0,0,0,3.93-3v-7h-3.86v-1.77h5.83Zm-1.11-13a27,27,0,0,0-3.81-4.42l1.44-1.2a26.07,26.07,0,0,1,3.9,4.24Zm2.55-1.38v-1.64h4.6a16.16,16.16,0,0,0-1.66-2.5l1.82-.7a19.69,19.69,0,0,1,1.88,3.2h3.38a26.72,26.72,0,0,0,1.43-3.25l2.06.52a21.51,21.51,0,0,1-1.49,2.73h4.87v1.64h-7.52c-.13.44-.55,1.54-.81,2.16h6.54v13.28H581.61V417.06h4.79a17.8,17.8,0,0,0,.67-2.16Zm3.77,6h9.37v-2.39h-9.37Zm0,3.78h9.37v-2.37h-9.37Zm0,4.08h9.37v-2.6h-9.37Z"/><path d="M610.13,419.48h-3.36v4.12h3.38v1.71h-3.38v5.44c.7-.18,2.68-.75,4-1.17l.19,1.69a90.05,90.05,0,0,1-10.26,2.92l-.68-1.85,1.38-.28V421.9h1.77v9.77l.65-.16.63-.16.54-.13V419.48h-3.8V411h9ZM603,417.79h5.26v-5H603Zm19.92-5.1a21.94,21.94,0,0,1-3.83,6.27,21.55,21.55,0,0,0,6,3.62l-1,1.72a22.68,22.68,0,0,1-6.22-4.06,21.63,21.63,0,0,1-6.74,4.29l-1-1.61a17.29,17.29,0,0,0,6.5-4,18.89,18.89,0,0,1-2.34-3.31l-.1.13-.06.08a16.08,16.08,0,0,1-2.29,2.37l-1.27-1.38a15.73,15.73,0,0,0,4.76-6.9l1.93.31c-.29.68-.37.89-.57,1.33h5.05Zm-.11,22h-1.9v-1.54h-6.64v1.54h-1.9V424.43h10.44Zm-8.54-3.26h6.64v-5.26h-6.64Zm.91-17.2a16.65,16.65,0,0,0,2.58,3.48,17.36,17.36,0,0,0,2.81-4.4h-4.84c-.1.19-.21.37-.44.76Z"/><path d="M323.52,423.48H334.9v-3.27h1.62v3.27h4.15v1.85h-4.15V434h-1.6l-11.4-8.21Zm5.32,1.85c-1,0-2.61,0-3.64-.11v.09a22.14,22.14,0,0,1,2.68,1.53l7,5v-6.52Z"/><path d="M337.66,416.21h3v3h-3Z"/><path d="M332.15,401.27c5.47,0,8.83,2.42,8.83,6.32s-3.38,6.31-8.83,6.31-8.84-2.42-8.84-6.33S326.7,401.27,332.15,401.27Zm0,10.57c4.42,0,7.15-1.62,7.15-4.27s-2.73-4.23-7.15-4.23S325,405,325,407.61,327.73,411.84,332.15,411.84Z"/><path d="M325.5,393.91a24.93,24.93,0,0,1,1.26,4.08l-1.58.46a16.88,16.88,0,0,0-1.87-5.09V392h17.36v2Z"/><path d="M332.15,373.07c5.47,0,8.83,2.42,8.83,6.32s-3.38,6.31-8.83,6.31-8.84-2.42-8.84-6.33S326.7,373.07,332.15,373.07Zm0,10.57c4.42,0,7.15-1.62,7.15-4.27s-2.73-4.23-7.15-4.23-7.18,1.62-7.18,4.27S327.73,383.64,332.15,383.64Z"/><polyline class="cls-2" points="61.87 172.28 61.87 160.54 68.77 172.28 68.77 160.54"/><circle class="cls-3" cx="98.13" cy="179.51" r="24.35"/><polygon points="110.36 185.6 121.72 178.56 76.87 168.92 111.58 198.92 110.36 185.6"/><rect class="cls-4" x="78.25" y="54.57" width="39.3" height="95.53" transform="translate(-4.44 200.23) rotate(-90)"/><path class="cls-1" d="M67.36,108.18H82.92v2.09H67.36v1.41H65V93.13H82.38v2h-15Zm.69-2.34a19.34,19.34,0,0,0,5.41-4,52.79,52.79,0,0,0-4.83-3.52L70,96.71c1.72,1.08,3.21,2.14,4.85,3.4a26.2,26.2,0,0,0,2.7-4.43l2.09,1a30.67,30.67,0,0,1-3,4.85c1.16,1,2.69,2.33,4.25,3.8l-1.64,1.72c-1.35-1.35-2.86-2.74-4.09-3.79a21,21,0,0,1-5.76,4.35Z"/><path class="cls-1" d="M96.53,95H87.84V93.08h19.7V95H98.73v2h4.43v10.35h-11V96.94h4.34Zm8.21,13.69V96.94h2.11v14.74h-2.11v-1.14H90.62v1.14h-2.1V96.94h2.1v11.7Zm-10.58-10v2.51h2.45V98.64Zm0,4.11v2.8h2.45v-2.8Zm4.48-1.6h2.55V98.64H98.64Zm0,4.4h2.55v-2.8H98.64Z"/><path class="cls-1" d="M130.73,111.68h-2.26v-1.05H115v1.05h-2.24V92.94h17.94Zm-15.7-3h13.44V94.83H115Zm11.51-.89c-1.31-.81-2.84-1.68-4.23-2.39a17.54,17.54,0,0,1-5.37,3l-1.29-1.56a13.5,13.5,0,0,0,4.67-2.44l-.54-.25c-1.35-.67-2.34-1.1-4.11-1.83l.94-1.53a53.22,53.22,0,0,1,5.28,2.18,17.63,17.63,0,0,0,3.86-7l2,.62a23.43,23.43,0,0,1-3.94,7.34l.19.1c1,.52,2.18,1.14,3.75,2.08ZM117.81,101a19.38,19.38,0,0,0-1.66-4.06l1.91-.77a21.25,21.25,0,0,1,1.72,4Zm3.57-.8a24.05,24.05,0,0,0-1.68-4.09l1.82-.72a18.48,18.48,0,0,1,1.72,4Z"/><path class="cls-1" d="M177.46,334.75a67.55,67.55,0,0,1,.13-16.87c.92-6.47,7.94-11.26,14.32-10.86q31.31,1.74,62.64.47c6.06-.28,12.65,4.37,13.47,10.53a67.76,67.76,0,0,1-.14,18.05c-.93,6.14-7.58,10.69-13.64,10.3q-31.31-1.77-62.64-.53C185.22,346.14,178.27,341.24,177.46,334.75Z"/><path class="cls-5" d="M176.77,326.31a68.45,68.45,0,0,1,.59-8.46c.9-6.32,7.7-11.48,14.56-11.05,20.77,1.16,41.83,1.32,62.62.48C261,307,267.45,312,268.25,318a68.21,68.21,0,0,1-.14,18.11c-.91,6-7.39,10.9-13.89,10.49-20.77-1.18-41.83-1.36-62.61-.53-6.87.32-13.59-4.95-14.38-11.28h0A66.43,66.43,0,0,1,176.77,326.31Zm91.55.74a66.23,66.23,0,0,0-.53-9c-.77-5.8-7-10.62-13.23-10.33-20.8.84-41.89.68-62.67-.47-6.63-.42-13.2,4.57-14.07,10.67a67.62,67.62,0,0,0-.13,16.82c.76,6.11,7.26,11.2,13.89,10.89,20.8-.82,41.89-.64,62.67.53,6.27.4,12.53-4.33,13.4-10.11A67.73,67.73,0,0,0,268.32,327.05Z"/><path class="cls-6" d="M189.17,339.86l.21-26.91-1,.11-.22,26.69Z"/><path class="cls-5" d="M199.39,342.69l.85-.23a90.37,90.37,0,0,1,22.82-2.4l2.86.06H226l10.18,4.16h-.8c-2.38,0-4.72.05-7,0-9.66-.08-19.11-.6-28.11-1.55Zm26.48-2.25c-.94,0-1.88-.05-2.81-.05a92.37,92.37,0,0,0-21.84,2.16c8.71.89,17.84,1.38,27.16,1.45,2,0,4.07,0,6.16,0Z"/><path class="cls-5" d="M199.65,310.29l.88-.07c9-.81,18.48-1.18,28.13-1.1,2.24,0,4.59.06,7,.14l.8,0-10.31,4c-.95,0-1.91,0-2.85,0a90.26,90.26,0,0,1-22.78-2.78Zm35.17-.73c-2.11-.06-4.18-.1-6.16-.11-9.32-.08-18.46.26-27.18,1a92.53,92.53,0,0,0,21.8,2.52c.93,0,1.87,0,2.81,0Z"/><path class="cls-1" d="M238.12,344l15,.12c8.82.07,16.09-6.64,16.16-14.92l0-4.33c.07-8.28-7.09-15.11-15.91-15.18l-15-.13a72.66,72.66,0,0,1-.28,34.44Z"/><path d="M237.9,344.18l0-.2a70.17,70.17,0,0,0,2.2-17.16,1.77,1.77,0,0,0,0-.23,72,72,0,0,0-1.93-17l0-.2,15.24.12c8.94.07,16.15,7,16.09,15.35l0,4.33c-.07,8.39-7.39,15.16-16.33,15.09Zm31.26-19.29c.06-8.21-7-14.95-15.74-15l-14.8-.12a71.94,71.94,0,0,1,1.88,16.84v.46a71.35,71.35,0,0,1-2.16,16.81l14.8.12c8.75.07,15.92-6.55,16-14.77Z"/><path class="cls-1" d="M203,339a77.78,77.78,0,0,0,.2-24.88,40.49,40.49,0,0,0-13.82-1.17l-.22,27A40.75,40.75,0,0,0,203,339Z"/><path d="M189,340.06l.22-27.3.15,0a41.39,41.39,0,0,1,13.89,1.18l.11,0v.11a78.09,78.09,0,0,1-.2,24.93l0,.1-.11,0a41.09,41.09,0,0,1-13.9.95Zm.56-27-.21,26.71a40.88,40.88,0,0,0,13.51-.94,78.5,78.5,0,0,0,.2-24.62A40.66,40.66,0,0,0,189.54,313.06Z"/><path class="cls-6" d="M189.15,339.91l.22-27-1,.1-.22,26.78Z"/><path class="cls-1" d="M188.37,313l-7.21-.06a30.67,30.67,0,0,0-.22,26.79l7.21.05Z"/><path d="M177.79,326.32A28.22,28.22,0,0,1,181,312.87l.05-.08,7.49.06L188.32,340l-7.48-.06-.05-.09A27.94,27.94,0,0,1,177.79,326.32Zm3.47-13.21a30.54,30.54,0,0,0-.21,26.46l6.93.06.21-26.46Z"/><path class="cls-6" d="M238.22,343.91l1,.34a61.79,61.79,0,0,0,.28-34.88l-1,.33A61.79,61.79,0,0,1,238.22,343.91Z"/><path class="cls-1" d="M238.54,310.18l-12.22,4.08-.2,24.89,12.15,4.28A60.14,60.14,0,0,0,238.54,310.18Z"/><path d="M226,339.26l.2-25.11L238.66,310l0,.18a60.18,60.18,0,0,1-.26,33.34l-.06.17Zm.54-24.88L226.3,339l11.85,4.18a59.85,59.85,0,0,0,.27-32.83Z"/><path class="cls-5" d="M181,339.69v.17a3.81,3.81,0,0,0,3.89,3.71h.29A9.24,9.24,0,0,1,181,339.69Z"/><path class="cls-5" d="M181.16,313v-.17a3.8,3.8,0,0,1,3.94-3.65h.29A9.23,9.23,0,0,0,181.16,313Z"/><path class="cls-1" d="M228.56,348.53a1.67,1.67,0,0,0,1.41-.25l2.78-3a.3.3,0,0,0,.09-.15l-2.57,0-2,3.33Z"/><path class="cls-5" d="M228,348.56l2.19-3.61,2.88,0,0,.19a.49.49,0,0,1-.13.23l-2.78,3a1.8,1.8,0,0,1-1.58.3Zm2.39-3.28-1.86,3.06.09,0a1.54,1.54,0,0,0,1.24-.2l2.68-2.87Z"/><path class="cls-1" d="M228.91,304.93a1.63,1.63,0,0,1,1.4.27l2.74,3a.3.3,0,0,1,.09.15l-2.58,0-2-3.36Z"/><path class="cls-5" d="M228.33,304.89l.54-.12a1.82,1.82,0,0,1,1.58.32l2.73,3a.49.49,0,0,1,.13.23l0,.2-2.89,0Zm4.49,3.33-2.64-2.91a1.46,1.46,0,0,0-1.23-.22l-.1,0,1.82,3.09Z"/><path class="cls-5" d="M247.46,335.74c5.76.05,10.84-.87,13.78-2.3A38,38,0,0,1,249,335.09a46.12,46.12,0,0,1-6.57-.49v.85A46.76,46.76,0,0,0,247.46,335.74Z"/><path class="cls-5" d="M247.6,318c5.77.05,10.83,1.05,13.75,2.53a38.07,38.07,0,0,0-12.18-1.85,47.11,47.11,0,0,0-6.59.39v-.85C244.17,318.08,245.86,318,247.6,318Z"/><rect class="cls-1" x="202.21" y="315.04" width="24.89" height="23.14" transform="translate(542.98 114.59) rotate(90.46)"/><path d="M202.81,339.12l.2-25.21,23.49.19-.21,25.21Zm.55-24.88-.2,24.56L226,339l.2-24.55Z"/><path class="cls-1" d="M347.59,259.37a67.55,67.55,0,0,1,16.87.13c6.47.92,11.26,7.95,10.86,14.32q-1.74,31.31-.48,62.65c.29,6.06-4.36,12.64-10.52,13.47a67.34,67.34,0,0,1-18.05-.15c-6.14-.92-10.69-7.58-10.3-13.64q1.77-31.31.53-62.64C336.2,267.13,341.1,260.18,347.59,259.37Z"/><path class="cls-5" d="M356,258.68a66.58,66.58,0,0,1,8.46.6c6.32.89,11.48,7.7,11.05,14.56-1.16,20.76-1.32,41.83-.48,62.62.31,6.49-4.7,12.9-10.71,13.71a68.21,68.21,0,0,1-18.11-.15c-6-.9-10.9-7.39-10.49-13.88,1.18-20.77,1.36-41.84.53-62.62-.32-6.87,5-13.59,11.28-14.38h0A68.32,68.32,0,0,1,356,258.68Zm-.74,91.56a69.61,69.61,0,0,0,9-.53c5.8-.78,10.62-7,10.33-13.23-.84-20.81-.68-41.89.47-62.67.42-6.63-4.57-13.21-10.67-14.08a67.62,67.62,0,0,0-16.82-.13c-6.11.77-11.2,7.26-10.89,13.9.82,20.8.64,41.88-.54,62.67-.39,6.26,4.34,12.52,10.12,13.39A67.75,67.75,0,0,0,355.29,350.24Z"/><path class="cls-6" d="M342.48,271.08l26.9.22c0-.34-.06-.67-.1-1l-26.69-.21C342.55,270.41,342.51,270.74,342.48,271.08Z"/><path class="cls-5" d="M339.65,281.3l.23.86a90.32,90.32,0,0,1,2.4,22.82c0,.94,0,1.9-.06,2.85v.06l-4.16,10.18v-.8c0-2.37-.05-4.72,0-7,.08-9.65.6-19.11,1.55-28.11Zm2.25,26.48c0-.93.05-1.88.05-2.81a92.37,92.37,0,0,0-2.16-21.84c-.89,8.72-1.38,17.85-1.45,27.16,0,2,0,4.07,0,6.17Z"/><path class="cls-5" d="M372.05,281.56l.07.89c.81,9,1.18,18.47,1.1,28.12,0,2.24-.07,4.59-.14,7l0,.8-4-10.31c0-1,0-1.91,0-2.85a90.88,90.88,0,0,1,2.77-22.78Zm.73,35.18c.06-2.11.1-4.18.11-6.17.08-9.31-.26-18.45-1-27.18a92.53,92.53,0,0,0-2.52,21.8c0,.93,0,1.88,0,2.82Z"/><path class="cls-1" d="M338.32,320l-.12,15c-.07,8.81,6.64,16.08,14.92,16.15l4.33,0c8.28.06,15.11-7.1,15.18-15.92l.12-15a72.79,72.79,0,0,1-34.43-.27Z"/><path d="M338.16,319.82l.19.05a70.8,70.8,0,0,0,17.17,2.2h.23a70.94,70.94,0,0,0,17-1.93l.2,0-.12,15.24c-.07,8.93-7,16.15-15.35,16.08l-4.33,0C344.73,351.32,338,344,338,335.06Zm19.29,31.25c8.21.07,14.95-7,15-15.74l.12-14.8a72,72,0,0,1-16.85,1.89h-.45a71.86,71.86,0,0,1-16.81-2.15l-.12,14.8c-.07,8.74,6.55,15.91,14.76,16Z"/><path class="cls-1" d="M343.38,284.9a77.78,77.78,0,0,0,24.88.2,40.47,40.47,0,0,0,1.17-13.82l-27-.21A40.7,40.7,0,0,0,343.38,284.9Z"/><path d="M342.28,270.89l27.3.22,0,.16a41.36,41.36,0,0,1-1.18,13.88l0,.11-.11,0a78.68,78.68,0,0,1-24.93-.2l-.1,0,0-.11a41.1,41.1,0,0,1-1-13.9Zm27,.57-26.71-.22a40.88,40.88,0,0,0,.94,13.51,78.2,78.2,0,0,0,24.62.2A40.6,40.6,0,0,0,369.28,271.46Z"/><path class="cls-6" d="M342.43,271.07l27,.21c0-.33-.06-.66-.1-1l-26.78-.21C342.5,270.4,342.46,270.73,342.43,271.07Z"/><path class="cls-1" d="M369.33,270.28l.06-7.21a30.62,30.62,0,0,0-26.79-.21l-.05,7.21Z"/><path d="M356,259.71a28,28,0,0,1,13.45,3.21l.08.05-.06,7.49-27.11-.22.06-7.49.09-.05A28.05,28.05,0,0,1,356,259.71Zm13.21,3.46a30.63,30.63,0,0,0-26.46-.21l-.06,6.93,26.46.22Z"/><path class="cls-6" d="M338.43,320.13l-.34,1a61.87,61.87,0,0,0,34.88.28l-.33-1A61.79,61.79,0,0,1,338.43,320.13Z"/><path class="cls-1" d="M372.16,320.45l-4.09-12.21-24.88-.2-4.28,12.14A60,60,0,0,0,372.16,320.45Z"/><path d="M343.08,307.86l25.11.2,4.19,12.51-.18.05a60.18,60.18,0,0,1-33.34-.27l-.17-.05Zm24.88.55-24.66-.2-4.18,11.86a60,60,0,0,0,32.83.26Z"/><path class="cls-5" d="M342.65,262.86h-.17a3.82,3.82,0,0,0-3.71,3.89V267A9.29,9.29,0,0,1,342.65,262.86Z"/><path class="cls-5" d="M369.34,263.08h.17a3.81,3.81,0,0,1,3.65,3.95v.29A9.23,9.23,0,0,0,369.34,263.08Z"/><path class="cls-1" d="M333.81,310.48a1.65,1.65,0,0,0,.25,1.4l3,2.79a.48.48,0,0,0,.16.08l0-2.57-3.33-2Z"/><path class="cls-5" d="M333.78,309.89l3.61,2.19,0,2.89-.19-.05a.47.47,0,0,1-.23-.12L334,312a1.79,1.79,0,0,1-.3-1.58Zm3.28,2.39L334,310.42l0,.1a1.46,1.46,0,0,0,.2,1.23l2.87,2.68Z"/><path class="cls-1" d="M377.41,310.83a1.65,1.65,0,0,1-.27,1.4l-3,2.73a.29.29,0,0,1-.16.09l0-2.57,3.36-2Z"/><path class="cls-5" d="M377.45,310.24l.12.55a1.8,1.8,0,0,1-.32,1.57l-3,2.74a.57.57,0,0,1-.23.12l-.2,0,0-2.89Zm-3.33,4.49L377,312.1a1.52,1.52,0,0,0,.22-1.24l0-.09-3.09,1.81Z"/><path class="cls-5" d="M346.6,329.38c-.05,5.76.87,10.83,2.3,13.78A38.34,38.34,0,0,1,347.24,331a47.84,47.84,0,0,1,.5-6.58h-.85A46.61,46.61,0,0,0,346.6,329.38Z"/><path class="cls-5" d="M364.32,329.52c0,5.76-1,10.82-2.52,13.74a38.07,38.07,0,0,0,1.85-12.18,46.87,46.87,0,0,0-.39-6.58h.85A47.37,47.37,0,0,1,364.32,329.52Z"/><rect class="cls-1" x="343.28" y="285" width="24.89" height="23.14" transform="translate(709.05 595.99) rotate(-179.54)"/><path d="M343.22,284.72l25.21.21-.19,23.48-25.21-.2Zm24.88.55-24.56-.2-.18,22.79,24.55.2Z"/><path class="cls-1" d="M423.28,259.37a67.55,67.55,0,0,1,16.87.13c6.47.92,11.26,7.95,10.86,14.32q-1.74,31.31-.48,62.65c.29,6.06-4.36,12.64-10.52,13.47a67.34,67.34,0,0,1-18.05-.15c-6.14-.92-10.69-7.58-10.3-13.64q1.77-31.31.53-62.64C411.89,267.13,416.79,260.18,423.28,259.37Z"/><path class="cls-5" d="M431.72,258.68a66.58,66.58,0,0,1,8.46.6c6.31.89,11.48,7.7,11.05,14.56-1.16,20.76-1.32,41.83-.48,62.62.31,6.49-4.7,12.9-10.71,13.71a68.21,68.21,0,0,1-18.11-.15c-6-.9-10.9-7.39-10.49-13.88,1.17-20.77,1.35-41.84.53-62.62-.32-6.87,4.95-13.59,11.28-14.38h0A68.48,68.48,0,0,1,431.72,258.68ZM431,350.24a69.61,69.61,0,0,0,9-.53c5.79-.78,10.62-7,10.33-13.23-.85-20.81-.69-41.89.47-62.67.42-6.63-4.57-13.21-10.67-14.08a67.62,67.62,0,0,0-16.82-.13c-6.11.77-11.2,7.26-10.89,13.9.82,20.8.64,41.88-.54,62.67-.39,6.26,4.33,12.52,10.12,13.39A67.75,67.75,0,0,0,431,350.24Z"/><path class="cls-6" d="M418.16,271.08l26.91.22c0-.34-.06-.67-.1-1l-26.69-.21Z"/><path class="cls-5" d="M415.34,281.3l.23.86A90.32,90.32,0,0,1,418,305c0,.94,0,1.9-.06,2.85v.06l-4.16,10.18,0-.8c0-2.37,0-4.72,0-7,.08-9.65.6-19.11,1.55-28.11Zm2.25,26.48c0-.93.05-1.88.05-2.81a92.37,92.37,0,0,0-2.16-21.84c-.89,8.72-1.38,17.85-1.45,27.16,0,2,0,4.07,0,6.17Z"/><path class="cls-5" d="M447.73,281.56l.08.89c.81,9,1.17,18.47,1.1,28.12,0,2.24-.07,4.59-.14,7l0,.8-4-10.31c0-1,0-1.91,0-2.85a90.88,90.88,0,0,1,2.77-22.78Zm.74,35.18c.06-2.11.09-4.18.11-6.17.08-9.31-.27-18.45-1-27.18a92,92,0,0,0-2.52,21.8c0,.93,0,1.88,0,2.82Z"/><path class="cls-1" d="M414,320l-.13,15c-.07,8.81,6.65,16.08,14.93,16.15l4.33,0c8.28.06,15.11-7.1,15.18-15.92l.12-15A72.79,72.79,0,0,1,414,320Z"/><path d="M413.84,319.82l.2.05a70.8,70.8,0,0,0,17.17,2.2h.23a71,71,0,0,0,17-1.93l.2,0-.12,15.24c-.08,8.93-7,16.15-15.35,16.08l-4.33,0c-8.39-.06-15.16-7.39-15.09-16.32Zm19.3,31.25c8.21.07,14.95-7,15-15.74l.12-14.8a72,72,0,0,1-16.85,1.89H431a71.86,71.86,0,0,1-16.81-2.15l-.12,14.8c-.07,8.74,6.55,15.91,14.76,16Z"/><path class="cls-1" d="M419.07,284.9a77.78,77.78,0,0,0,24.88.2,41,41,0,0,0,1.17-13.82l-27-.21A40.44,40.44,0,0,0,419.07,284.9Z"/><path d="M418,270.89l27.3.22v.16a41.09,41.09,0,0,1-1.17,13.88l0,.11-.11,0a78.68,78.68,0,0,1-24.93-.2l-.11,0,0-.11a41.37,41.37,0,0,1-1-13.9Zm27,.57-26.71-.22a40.88,40.88,0,0,0,.94,13.51,78.2,78.2,0,0,0,24.62.2A40.6,40.6,0,0,0,445,271.46Z"/><path class="cls-6" d="M418.12,271.07l27,.21c0-.33-.06-.66-.1-1l-26.79-.21C418.19,270.4,418.15,270.73,418.12,271.07Z"/><path class="cls-1" d="M445,270.28l.06-7.21a30.62,30.62,0,0,0-26.79-.21l-.06,7.21Z"/><path d="M431.71,259.71a28,28,0,0,1,13.45,3.21l.08.05-.06,7.49-27.11-.22.06-7.49.09-.05A28.05,28.05,0,0,1,431.71,259.71Zm13.2,3.46a30.63,30.63,0,0,0-26.46-.21l-.05,6.93,26.46.22Z"/><path class="cls-6" d="M414.12,320.13l-.35,1a61.91,61.91,0,0,0,34.89.28l-.33-1A61.78,61.78,0,0,1,414.12,320.13Z"/><path class="cls-1" d="M447.85,320.45l-4.09-12.21-24.88-.2-4.28,12.14A60,60,0,0,0,447.85,320.45Z"/><path d="M418.77,307.86l25.11.2,4.18,12.51-.17.05a60.18,60.18,0,0,1-33.34-.27l-.17-.05Zm24.88.55-24.66-.2-4.18,11.86a60,60,0,0,0,32.83.26Z"/><path class="cls-5" d="M418.34,262.86h-.17a3.83,3.83,0,0,0-3.72,3.89V267A9.29,9.29,0,0,1,418.34,262.86Z"/><path class="cls-5" d="M445,263.08h.17a3.81,3.81,0,0,1,3.65,3.95v.29A9.23,9.23,0,0,0,445,263.08Z"/><path class="cls-1" d="M409.5,310.48a1.65,1.65,0,0,0,.25,1.4l3,2.79a.4.4,0,0,0,.16.08l0-2.57-3.33-2Z"/><path class="cls-5" d="M409.47,309.89l3.61,2.19,0,2.89-.19-.05a.47.47,0,0,1-.23-.12l-3-2.79a1.86,1.86,0,0,1-.3-1.58Zm3.28,2.39-3.07-1.86,0,.1a1.46,1.46,0,0,0,.2,1.23l2.87,2.68Z"/><path class="cls-1" d="M453.1,310.83a1.68,1.68,0,0,1-.27,1.4l-3,2.73a.29.29,0,0,1-.16.09l0-2.57,3.37-2Z"/><path class="cls-5" d="M453.14,310.24l.12.55a1.8,1.8,0,0,1-.33,1.57l-3,2.74a.55.55,0,0,1-.24.12l-.19,0,0-2.89Zm-3.33,4.49,2.91-2.63a1.52,1.52,0,0,0,.22-1.24l0-.09-3.09,1.81Z"/><path class="cls-5" d="M422.29,329.38c-.05,5.76.87,10.83,2.3,13.78A38.06,38.06,0,0,1,422.93,331a47.84,47.84,0,0,1,.5-6.58h-.85A46.61,46.61,0,0,0,422.29,329.38Z"/><path class="cls-5" d="M440,329.52c0,5.76-1,10.82-2.52,13.74a38.07,38.07,0,0,0,1.85-12.18,46.87,46.87,0,0,0-.39-6.58h.85A47.37,47.37,0,0,1,440,329.52Z"/><rect class="cls-1" x="418.97" y="285" width="24.89" height="23.14" transform="translate(860.43 596.6) rotate(-179.54)"/><path d="M418.9,284.72l25.21.21-.18,23.48-25.22-.2Zm24.88.55-24.55-.2L419,307.86l24.56.2Z"/><path class="cls-1" d="M597.63,315.21a67.55,67.55,0,0,1-.14,16.87c-.92,6.47-7.94,11.26-14.31,10.86q-31.32-1.74-62.65-.48c-6.06.29-12.65-4.36-13.47-10.52a67.76,67.76,0,0,1,.14-18.05c.93-6.14,7.59-10.69,13.64-10.3q31.32,1.77,62.65.53C589.87,303.82,596.81,308.72,597.63,315.21Z"/><path class="cls-5" d="M598.32,323.65a68.47,68.47,0,0,1-.6,8.46c-.9,6.32-7.7,11.48-14.56,11.05-20.76-1.16-41.83-1.32-62.62-.48-6.5.31-12.9-4.7-13.71-10.71a67.79,67.79,0,0,1,.15-18.11c.9-6,7.39-10.9,13.88-10.49,20.77,1.18,41.84,1.36,62.62.53,6.86-.32,13.58,5,14.38,11.28h0A68.32,68.32,0,0,1,598.32,323.65Zm-91.56-.74a67.88,67.88,0,0,0,.53,9c.78,5.8,7,10.62,13.23,10.33,20.8-.84,41.89-.68,62.67.47,6.63.42,13.21-4.57,14.07-10.67a67.62,67.62,0,0,0,.14-16.82c-.77-6.11-7.27-11.2-13.9-10.89-20.8.82-41.88.64-62.67-.54-6.27-.39-12.52,4.33-13.4,10.12A69.46,69.46,0,0,0,506.76,322.91Z"/><path class="cls-6" d="M585.92,310.1,585.7,337c.34,0,.67-.06,1-.1l.21-26.69Z"/><path class="cls-5" d="M575.7,307.27l-.86.23A90.37,90.37,0,0,1,552,309.9c-.94,0-1.9,0-2.85-.06h-.07l-10.18-4.16h.81c2.37,0,4.72-.05,7,0,9.65.08,19.1.6,28.1,1.55Zm-26.49,2.25c.94,0,1.89.05,2.81.05a92.26,92.26,0,0,0,21.84-2.16C565.15,306.52,556,306,546.7,306c-2,0-4.07,0-6.16,0Z"/><path class="cls-5" d="M575.44,339.67l-.89.07c-9,.81-18.48,1.18-28.13,1.1-2.24,0-4.58-.07-7-.14l-.81,0,10.31-4c1,0,1.92,0,2.86,0a90.74,90.74,0,0,1,22.77,2.77Zm-35.18.73c2.11.06,4.18.1,6.17.11,9.31.08,18.45-.26,27.17-1A92.47,92.47,0,0,0,551.8,337c-.92,0-1.87,0-2.81,0Z"/><path class="cls-1" d="M537,305.94l-15-.12c-8.82-.07-16.09,6.64-16.15,14.92l0,4.33c-.07,8.28,7.09,15.11,15.91,15.18l15,.12a73,73,0,0,1,.28-34.43Z"/><path d="M537.18,305.78l0,.19a70.8,70.8,0,0,0-2.2,17.17v.23a71.44,71.44,0,0,0,1.92,17l0,.2-15.24-.12c-8.94-.07-16.15-7-16.08-15.35l0-4.33c.07-8.39,7.39-15.16,16.33-15.09Zm-31.26,19.29c-.06,8.21,7,14.95,15.74,15l14.81.12a71.45,71.45,0,0,1-1.89-16.85v-.45a71.88,71.88,0,0,1,2.16-16.81l-14.8-.12c-8.75-.07-15.91,6.55-16,14.76Z"/><path class="cls-1" d="M572.09,311a78.07,78.07,0,0,0-.2,24.88,40.49,40.49,0,0,0,13.82,1.17l.22-27A40.75,40.75,0,0,0,572.09,311Z"/><path d="M586.1,309.9l-.21,27.3-.16,0A41.36,41.36,0,0,1,571.85,336l-.11,0,0-.11a78.68,78.68,0,0,1,.2-24.93l0-.1.11,0a41.09,41.09,0,0,1,13.9-.95Zm-.56,27,.22-26.71a40.87,40.87,0,0,0-13.51.94,77.91,77.91,0,0,0-.2,24.62A40.6,40.6,0,0,0,585.54,336.9Z"/><path class="cls-6" d="M585.93,310.05l-.22,27,1-.1.21-26.78C586.6,310.12,586.26,310.08,585.93,310.05Z"/><path class="cls-1" d="M586.72,337l7.21.06a30.71,30.71,0,0,0,.21-26.79l-7.21-.05Z"/><path d="M597.29,323.64a28,28,0,0,1-3.21,13.45l-.05.08-7.49-.06.22-27.11,7.49.06,0,.09A28.05,28.05,0,0,1,597.29,323.64Zm-3.47,13.21a30.58,30.58,0,0,0,.22-26.46l-6.94-.06-.21,26.46Z"/><path class="cls-6" d="M536.87,306.05l-1-.34a61.79,61.79,0,0,0-.28,34.88l1-.33A61.79,61.79,0,0,1,536.87,306.05Z"/><path class="cls-1" d="M536.55,339.78l12.21-4.09.2-24.88-12.15-4.28A60.14,60.14,0,0,0,536.55,339.78Z"/><path d="M549.14,310.7l-.21,25.11L536.43,340l0-.18a60.18,60.18,0,0,1,.27-33.34l.05-.17Zm-.55,24.88.2-24.66-11.86-4.18a60,60,0,0,0-.26,32.83Z"/><path class="cls-5" d="M594.13,310.27v-.17a3.81,3.81,0,0,0-3.89-3.71H590A9.26,9.26,0,0,1,594.13,310.27Z"/><path class="cls-5" d="M593.92,337v.17a3.82,3.82,0,0,1-3.95,3.65h-.29A9.23,9.23,0,0,0,593.92,337Z"/><path class="cls-1" d="M546.52,301.43a1.68,1.68,0,0,0-1.41.25l-2.78,3a.38.38,0,0,0-.09.16l2.58,0,2-3.33Z"/><path class="cls-5" d="M547.11,301.4,544.92,305,542,305l0-.19a.49.49,0,0,1,.13-.23l2.78-3a1.8,1.8,0,0,1,1.58-.3Zm-2.39,3.28,1.86-3.07-.1,0a1.46,1.46,0,0,0-1.23.2l-2.68,2.87Z"/><path class="cls-1" d="M546.17,345a1.65,1.65,0,0,1-1.4-.27l-2.74-3a.35.35,0,0,1-.08-.16l2.57,0,2,3.36Z"/><path class="cls-5" d="M546.76,345.07l-.55.12a1.8,1.8,0,0,1-1.57-.32l-2.74-3a.47.47,0,0,1-.12-.23l0-.2,2.88,0Zm-4.49-3.33,2.63,2.91a1.49,1.49,0,0,0,1.23.22l.1,0-1.81-3.09Z"/><path class="cls-5" d="M527.62,314.22c-5.76-.05-10.84.87-13.78,2.3a38.3,38.3,0,0,1,12.21-1.66,47.57,47.57,0,0,1,6.57.5v-.85A46.76,46.76,0,0,0,527.62,314.22Z"/><path class="cls-5" d="M527.48,331.94c-5.76,0-10.83-1-13.74-2.52a38,38,0,0,0,12.18,1.85,47,47,0,0,0,6.58-.39v.85A47.37,47.37,0,0,1,527.48,331.94Z"/><rect class="cls-1" x="547.99" y="311.78" width="24.89" height="23.14" transform="translate(232.58 881.16) rotate(-89.54)"/><path d="M572.27,310.84l-.2,25.21-23.48-.19.2-25.21Zm-.54,24.88.19-24.56L549.13,311l-.19,24.55Z"/><line class="繧ｰ繝ｩ繝輔ぅ繝け繧ｹ繧ｿ繧､繝ｫ" x1="121.5" y1="360.31" x2="637.78" y2="360.31"/><line class="繧ｰ繝ｩ繝輔ぅ繝け繧ｹ繧ｿ繧､繝ｫ" x1="146.84" y1="451.04" x2="617.65" y2="451.04"/><polygon class="繧ｰ繝ｩ繝輔ぅ繝け繧ｹ繧ｿ繧､繝ｫ-3" points="197.5 87.74 197.5 260.06 276.6 260.06 276.6 213.52 376.22 213.52 376.22 90.49 197.5 87.74"/><polygon class="繧ｰ繝ｩ繝輔ぅ繝け繧ｹ繧ｿ繧､繝ｫ-3" points="411.63 90.13 411.63 210.93 509.63 210.93 509.63 250.96 591.8 250.96 591.8 90.13 411.63 90.13"/><rect class="繧ｰ繝ｩ繝輔ぅ繝け繧ｹ繧ｿ繧､繝ｫ-4" x="276.72" y="233.1" width="40.15" height="6.68" transform="translate(593.58 472.87) rotate(180)"/><rect class="繧ｰ繝ｩ繝輔ぅ繝け繧ｹ繧ｿ繧､繝ｫ-4" x="276.72" y="239.78" width="40.15" height="6.68" transform="translate(593.58 486.23) rotate(180)"/><rect class="繧ｰ繝ｩ繝輔ぅ繝け繧ｹ繧ｿ繧､繝ｫ-4" x="276.72" y="246.46" width="40.15" height="6.68" transform="translate(593.58 499.6) rotate(180)"/><rect class="繧ｰ繝ｩ繝輔ぅ繝け繧ｹ繧ｿ繧､繝ｫ-4" x="276.72" y="213.52" width="40.15" height="19.58" transform="translate(593.58 446.61) rotate(180)"/><polygon points="296.79 217.79 288.9 229.27 304.68 229.27 296.79 217.79"/><rect class="繧ｰ繝ｩ繝輔ぅ繝け繧ｹ繧ｿ繧､繝ｫ-4" x="469.49" y="231.79" width="40.15" height="7.12" transform="translate(979.13 470.69) rotate(180)"/><rect class="繧ｰ繝ｩ繝輔ぅ繝け繧ｹ繧ｿ繧､繝ｫ-4" x="469.49" y="238.9" width="40.15" height="7.12" transform="translate(979.13 484.93) rotate(180)"/><rect class="繧ｰ繝ｩ繝輔ぅ繝け繧ｹ繧ｿ繧､繝ｫ-4" x="469.49" y="246.02" width="40.15" height="7.12" transform="translate(979.13 499.16) rotate(180)"/><rect class="繧ｰ繝ｩ繝輔ぅ繝け繧ｹ繧ｿ繧､繝ｫ-4" x="469.49" y="210.93" width="40.15" height="20.86" transform="translate(979.13 442.72) rotate(180)"/><polygon points="489.57 215.48 481.68 227.72 497.45 227.72 489.57 215.48"/><polyline class="繧ｰ繝ｩ繝輔ぅ繝け繧ｹ繧ｿ繧､繝ｫ-7" points="356.69 375.43 346.6 360.31 346.6 450.16 338.91 438.59"/><path d="M483.39,143.83c1.08-4.45,4.74-8.89,10.35-12.63l1.08-.71c5.82-3.78,7.35-5.61,7.35-8.64,0-3.41-2.82-5.69-7.1-5.69-3.49,0-5.94,1.29-8.6,4.44l-2.62-2.2c3.16-3.9,6.52-5.57,11.38-5.57,6.49,0,11.22,3.83,11.22,9.1,0,4.2-1.62,6.15-9.06,10.89l-1.49,1c-4.95,3.25-8.06,6.82-8.44,9.81H507v3.53H483.39Z"/><path d="M466.31,174.28a41.05,41.05,0,0,1-1.37,4.07h23.35c-.33,5.07-1.16,9.59-2.2,11.88s-2.37,3-6.11,3c-2.2,0-5.15-.12-7.18-.29l-.75-3.16c2.86.25,5.65.42,7.64.42s2.7-.33,3.29-1.66a39.09,39.09,0,0,0,1.57-7.36H463.82c-.54,1.17-1.12,2.37-1.74,3.53l-3.37-.95a56.08,56.08,0,0,0,4.11-9.47h-9.26v-2.83H493v2.83Zm20.53-6.61H459.71v-11.8h27.13ZM463.07,165h20.4v-6.4h-20.4Z"/><path d="M503.75,172.9a49.05,49.05,0,0,1-5,11.26l-1.53-3.32a46.81,46.81,0,0,0,6.27-15h-5.69v-2.91h6V154h3.08v8.89h4.32v2.91h-4.32v3.86a47.59,47.59,0,0,1,5.11,4.87l-1.75,2.78a47.61,47.61,0,0,0-3.36-4.28v20.44h-3.08Zm23.19,5.78a31.08,31.08,0,0,0,10.59,9.39L535.58,191a34,34,0,0,1-10.72-10.64v13.17h-3V180.59a32.08,32.08,0,0,1-10.68,11L509.15,189A29.63,29.63,0,0,0,520,178.68h-7.69V163.89h9.56v-3.08H510.19v-2.7h11.72V154h3v4.07h12v2.7h-12v3.08h9.85v14.79ZM515.3,166.42V170h6.61v-3.53Zm0,6.07v3.61h6.61v-3.61Zm9.56-2.54h6.94v-3.53h-6.94Zm0,6.15h6.94v-3.61h-6.94Z"/><path d="M286,115a50.21,50.21,0,0,1-8.06,2.5l-.92-3.12c3.83-.79,8.11-2.37,10.06-3.7h2.78V145H286Z"/><path d="M257.86,172.12c-.42,1.5-.92,2.91-1.37,4.07h23.35c-.34,5.07-1.17,9.6-2.21,11.89s-2.36,3-6.1,3c-2.21,0-5.16-.13-7.19-.29l-.75-3.16c2.87.25,5.65.42,7.65.42s2.7-.34,3.28-1.67A38.58,38.58,0,0,0,276.1,179H255.36c-.54,1.16-1.12,2.37-1.74,3.53l-3.37-1a56.64,56.64,0,0,0,4.12-9.48H245.1V169.3h39.47v2.82Zm20.52-6.6H251.25v-11.8h27.13Zm-23.76-2.66H275v-6.4h-20.4Z"/><path d="M295.3,170.75a49.48,49.48,0,0,1-5,11.26l-1.54-3.32a46.81,46.81,0,0,0,6.27-15h-5.69v-2.91h6v-8.89h3.07v8.89h4.32v2.91h-4.32v3.86a48.52,48.52,0,0,1,5.11,4.86l-1.75,2.79a44.23,44.23,0,0,0-3.36-4.28v20.44H295.3Zm23.18,5.78a31.18,31.18,0,0,0,10.59,9.39l-1.95,2.91a34.25,34.25,0,0,1-10.72-10.64v13.17h-2.95V178.44a32.17,32.17,0,0,1-10.68,11l-2.07-2.54a29.5,29.5,0,0,0,10.88-10.34H303.9V161.74h9.55v-3.08H301.73V156h11.72v-4.07h2.95V156h12v2.7h-12v3.08h9.85v14.79Zm-11.63-12.26v3.53h6.6v-3.53Zm0,6.07V174h6.6v-3.61Zm9.55-2.54h6.94v-3.53H316.4Zm0,6.15h6.94v-3.61H316.4Z"/></g></svg>