<svg xmlns="http://www.w3.org/2000/svg" width="700" height="500" viewBox="0 0 700 500"><defs><style>.cls-1,.cls-8,.繧ｰ繝ｩ繝輔ぅ繝け繧ｹ繧ｿ繧､繝ｫ-4,.繧ｰ繝ｩ繝輔ぅ繝け繧ｹ繧ｿ繧､繝ｫ-8{fill:#fff;}.cls-2{fill:#d8eacc;}.cls-2,.cls-3,.cls-4,.cls-8,.cls-9,.繧ｰ繝ｩ繝輔ぅ繝け繧ｹ繧ｿ繧､繝ｫ,.繧ｰ繝ｩ繝輔ぅ繝け繧ｹ繧ｿ繧､繝ｫ-4,.繧ｰ繝ｩ繝輔ぅ繝け繧ｹ繧ｿ繧､繝ｫ-7,.繧ｰ繝ｩ繝輔ぅ繝け繧ｹ繧ｿ繧､繝ｫ-8{stroke:#000;}.cls-2,.繧ｰ繝ｩ繝輔ぅ繝け繧ｹ繧ｿ繧､繝ｫ-7,.繧ｰ繝ｩ繝輔ぅ繝け繧ｹ繧ｿ繧､繝ｫ-8{stroke-width:1.5px;}.cls-8,.cls-9,.繧ｰ繝ｩ繝輔ぅ繝け繧ｹ繧ｿ繧､繝ｫ,.繧ｰ繝ｩ繝輔ぅ繝け繧ｹ繧ｿ繧､繝ｫ-4,.繧ｰ繝ｩ繝輔ぅ繝け繧ｹ繧ｿ繧､繝ｫ-8{stroke-miterlimit:10;}.cls-3,.cls-4,.cls-9,.繧ｰ繝ｩ繝輔ぅ繝け繧ｹ繧ｿ繧､繝ｫ,.繧ｰ繝ｩ繝輔ぅ繝け繧ｹ繧ｿ繧､繝ｫ-7{fill:none;}.cls-3,.cls-4{stroke-linecap:round;stroke-linejoin:round;}.cls-3{stroke-width:1.43px;}.cls-4{stroke-width:1.83px;}.cls-5{fill:#e83589;}.cls-6{fill:#030201;}.cls-7{fill:#242323;}.繧ｰ繝ｩ繝輔ぅ繝け繧ｹ繧ｿ繧､繝ｫ-4{stroke-width:1.27px;}.繧ｰ繝ｩ繝輔ぅ繝け繧ｹ繧ｿ繧､繝ｫ-7{stroke-linejoin:bevel;}.繧ｰ繝ｩ繝輔ぅ繝け繧ｹ繧ｿ繧､繝ｫ{stroke-width:2px;}.cls-9{stroke-width:3px;stroke-dasharray:5;}</style></defs><title>kukakuzu</title><g id="レイヤー_2" data-name="レイヤー 2"><rect class="cls-1" width="700" height="500"/><polygon class="cls-2" points="455.26 141.4 455.26 279.44 271.38 279.44 255.66 184.93 295.48 141.4 455.26 141.4"/><polygon class="cls-2" points="455.26 292.19 455.26 425.72 549.78 425.72 549.78 141.4 455.26 141.4 455.26 292.19"/><polygon class="cls-2" points="373.81 279.44 455.26 279.44 455.26 425.72 295.57 424.93 271.38 279.44 373.81 279.44"/><rect class="繧ｰ繝ｩ繝輔ぅ繝け繧ｹ繧ｿ繧､繝ｫ-8" x="319.9" y="154.46" width="128.09" height="98.94"/><rect class="繧ｰ繝ｩ繝輔ぅ繝け繧ｹ繧ｿ繧､繝ｫ-8" x="307.27" y="289.86" width="140.72" height="91.41"/><polygon class="繧ｰ繝ｩ繝輔ぅ繝け繧ｹ繧ｿ繧､繝ｫ-8" points="466.3 173.74 466.3 378.93 536.26 378.93 536.26 226.43 497.08 226.43 497.08 173.74 466.3 173.74"/><path d="M607.16,54.4a13.77,13.77,0,0,1,1,1.87l-1.73.51a12.31,12.31,0,0,0-1.19-2.38h-1.63a12.74,12.74,0,0,1-2.28,2.75L600.05,56a11.44,11.44,0,0,0,3.34-5.1l1.81.3c-.28.73-.42,1.08-.72,1.71h6V54.4Zm3.19,12.1a21.39,21.39,0,0,1-8.5,5.63l-1.19-1.44a21.2,21.2,0,0,0,8.08-4.57l.12-.11h-7a50.45,50.45,0,0,0,.84-5.25h7.64V58.62h-8.29V57.15H620v5h-7.86v2.4h9.11a18.33,18.33,0,0,1-.86,5.43c-.39,1-1.07,1.28-2.54,1.28a22.93,22.93,0,0,1-2.79-.16l-.45-1.72a27.46,27.46,0,0,0,2.85.23c.86,0,1.14-.16,1.35-.79A12.49,12.49,0,0,0,619.3,66h-7.18v7.08h-1.77Zm-6-4.34c0,.51-.21,1.75-.33,2.4h6.29v-2.4Zm12.32-7.76a13.63,13.63,0,0,1,1.15,1.75l-1.71.56a15,15,0,0,0-1.35-2.31h-1.56a10.88,10.88,0,0,1-1.79,2.52l-1.35-1a12,12,0,0,0,2.72-5l1.8.25c-.24.7-.38,1.12-.66,1.8h7.72V54.4Zm1.47,4.22h-6.06v2.14h6.06Z"/><path d="M611.84,122.5h-1.79V115a22.65,22.65,0,0,1-9.06,6.53l-1.08-1.49a22.81,22.81,0,0,0,8.62-5.48H600V113h10V110.5h1.79V113h10.21v1.56h-8.62a24.36,24.36,0,0,0,8.76,4.94l-1.14,1.63a23.52,23.52,0,0,1-9.21-6.27Zm6.32-19.94a21.66,21.66,0,0,1-5.36,4.87,32,32,0,0,0,8.85,2.74l-.95,1.59a36.71,36.71,0,0,1-9.49-3.33,32.61,32.61,0,0,1-9.76,3.56l-.93-1.44a30.69,30.69,0,0,0,9.25-3.06,29.06,29.06,0,0,1-3.31-2.93,19.76,19.76,0,0,1-4.05,2.49l-1.14-1.21a16,16,0,0,0,7-5.57l1.77.35c-.35.54-.44.63-.77,1.07h8Zm-10.16.58c-.16.18-.23.23-.37.37a18,18,0,0,0,3.65,3,21.34,21.34,0,0,0,4.18-3.42Z"/><path d="M606.39,129.22c.33-1.45.51-2.4.75-3.66l1.86.23,0,.17c-.33,1.53-.54,2.49-.72,3.26h7.8v1.63h-8.2a85.24,85.24,0,0,1-5,15.05l-1.77-.67A84.94,84.94,0,0,0,606,130.85h-4.87v-1.63Zm14.26,16a27.52,27.52,0,0,1-3.89.25,20,20,0,0,1-5.38-.6,2.74,2.74,0,0,1-2-2.75,3.56,3.56,0,0,1,.79-2.28l1.47.9a2.11,2.11,0,0,0-.38,1.15,1.31,1.31,0,0,0,.94,1.35,16.22,16.22,0,0,0,3.91.44,29.79,29.79,0,0,0,4.38-.33Zm-10.2-10.79a69.56,69.56,0,0,1,8.31-.51h1l.11,1.7h-1.47a68.57,68.57,0,0,0-7.73.44Z"/><path d="M606.39,153.69c.33-1.44.51-2.4.75-3.66l1.86.24,0,.16c-.33,1.54-.54,2.49-.72,3.26h6.52v1.63h-6.92a85,85,0,0,1-5,15.05l-1.77-.67A84.64,84.64,0,0,0,606,155.32h-4.87v-1.63Zm14.26,16a27.39,27.39,0,0,1-3.89.26,20,20,0,0,1-5.38-.61,2.74,2.74,0,0,1-2-2.75,3.56,3.56,0,0,1,.79-2.28l1.47.91a2.07,2.07,0,0,0-.38,1.14,1.31,1.31,0,0,0,.94,1.35,15.73,15.73,0,0,0,3.91.44,29.8,29.8,0,0,0,4.38-.32Zm-10.2-10.79a71.71,71.71,0,0,1,8.31-.51h1l.11,1.7h-1.47a68.57,68.57,0,0,0-7.73.44Zm7.29-4.33a19.79,19.79,0,0,0-2-3.78l1.4-.53a20.73,20.73,0,0,1,2,3.73Zm2.89-.91a17.65,17.65,0,0,0-2-3.77l1.36-.52a17.66,17.66,0,0,1,2,3.66Z"/><path d="M606,174.55v13.14c0,3,1.66,4.62,4.85,4.62a6.2,6.2,0,0,0,5.1-2.71,18.12,18.12,0,0,0,2.35-5.47l1.66,1.05a18.16,18.16,0,0,1-2.45,5.56,8,8,0,0,1-6.75,3.38c-4.32,0-6.65-2.26-6.65-6.45V174.55Z"/><path d="M610.05,197.56h1.79V199h7.48v2.68h2.78v1.28h-2.78v2.75h-7.48V207h8.74v1.28h-8.74v1.3H622.1v1.33H600v-1.33h10.09v-1.3h-8.41V207h8.41v-1.29h-7.43v-1.25h7.43v-1.5H600v-1.28h10.09v-1.42h-7.43V199h7.43Zm9.2,22.13h-1.84v-1H604.64v1H602.8v-7.64h16.45Zm-14.61-5h12.77v-1.33H604.64Zm0,2.68h12.77v-1.45H604.64Zm7.2-17.13v1.42h5.69v-1.42Zm0,2.7v1.5h5.69v-1.5Z"/><path d="M609.07,225.59c-.26-.7-.7-2.1-.88-2.7l1.81-.12c.19.68.66,2.08.93,2.82h7.93v1.59h-7.34c.42,1.11,1.12,2.65,1.67,3.77h7.23v1.59H614a36.41,36.41,0,0,0,2.61,4.05l-1.81.61a41.48,41.48,0,0,1-2.82-4.66H601.55V231h9.69c-.58-1.23-1.14-2.56-1.59-3.77h-7.71v-1.59Zm7.43,17.15c-1.81.09-2.77.14-3.72.14a22.55,22.55,0,0,1-6.46-.68c-2.19-.69-3.4-2.14-3.4-4a3.76,3.76,0,0,1,.72-2.31l1.45.82a3.77,3.77,0,0,0-.35,1.51c0,2,2.37,2.94,7.64,2.94,1.26,0,2.49-.07,4-.19Z"/><path d="M605.18,264c1.89,1.89,4.05,2.61,8,2.63h9.16a8.3,8.3,0,0,0-.56,1.66h-8.86c-4.08-.05-6.34-.82-8.34-2.84a23.39,23.39,0,0,1-3.63,3.42l-1-1.65a22.67,22.67,0,0,0,3.52-2.68v-6.25H600v-1.58h5.22Zm-1-11.62a24.47,24.47,0,0,0-3.4-4l1.28-1.07a22.85,22.85,0,0,1,3.49,3.8Zm2.28-1.24v-1.47h4.13a14.28,14.28,0,0,0-1.5-2.23l1.64-.63a16.51,16.51,0,0,1,1.67,2.86h3a22.75,22.75,0,0,0,1.28-2.91l1.84.47a19.53,19.53,0,0,1-1.32,2.44h4.35v1.47h-6.73c-.12.4-.49,1.37-.72,1.93H620V265H608.12V253.09h4.28a16.26,16.26,0,0,0,.61-1.93Zm3.38,5.41h8.39v-2.15h-8.39Zm0,3.37h8.39v-2.12h-8.39Zm0,3.66h8.39v-2.33h-8.39Z"/><path d="M609,280h-3v3.68h3v1.54h-3v4.87c.63-.17,2.4-.68,3.56-1.05l.17,1.51a83.83,83.83,0,0,1-9.18,2.61l-.61-1.65,1.24-.26v-9.09h1.58v8.74l.58-.14.56-.14.49-.12V280h-3.4v-7.58h8Zm-6.36-1.52h4.71V274h-4.71Zm17.83-4.57A19.58,19.58,0,0,1,617,279.5a19.32,19.32,0,0,0,5.34,3.24l-.89,1.54a20.8,20.8,0,0,1-5.57-3.64,19.4,19.4,0,0,1-6,3.85l-.93-1.45a15.29,15.29,0,0,0,5.82-3.56,16.2,16.2,0,0,1-2.09-3l-.1.11,0,.07a14.73,14.73,0,0,1-2,2.12l-1.15-1.23a14,14,0,0,0,4.27-6.18l1.72.28c-.25.61-.32.8-.51,1.19h4.52Zm-.1,19.69h-1.7V292.2h-5.94v1.37H611v-9.18h9.34Zm-7.64-2.91h5.94V286h-5.94Zm.82-15.4a14.81,14.81,0,0,0,2.3,3.12,15.39,15.39,0,0,0,2.52-3.94H614l-.4.68Z"/><path d="M605.73,77.21v12.6h3.62v1.8h-3.62V96.2h-2.05V91.61h-9.6V89.84l9.09-12.63Zm-2.05,5.89c0-1.07.05-2.89.12-4h-.09a26.1,26.1,0,0,1-1.7,3l-5.55,7.78h7.22Z"/><path d="M616.53,85.36c3.33,0,5.17-1.21,5.17-3.4,0-1.93-1.56-3.14-4.08-3.14a5.75,5.75,0,0,0-4.57,2l-1.37-1.3a8.12,8.12,0,0,1,6-2.56c3.75,0,6.36,2,6.36,4.82,0,2.35-1.72,4-4.59,4.31v.09c3.38.24,5.34,2,5.34,4.92,0,3.33-2.75,5.45-7.13,5.45A8.49,8.49,0,0,1,611,93.94l1.38-1.38a7.12,7.12,0,0,0,5.24,2.1c3,0,4.78-1.4,4.78-3.7,0-2.61-1.87-3.83-5.92-3.83H615V85.36Z"/><path d="M241.68,242.56l.27,1.51-9.21,1.61.47,2.68,7.09-1.24,1.47,8.35c.21,1.21-.25,1.75-1.74,2-.86.15-1.72.26-2.6.33l-.55-1.55a17.78,17.78,0,0,0,2.57-.23c.55-.1.65-.22.57-.73l-1.13-6.42-5.43,1,2,11.37-1.65.29-2-11.37-5.15.9,1.54,8.78-1.65.29-1.8-10.24,6.8-1.2-.47-2.68-9,1.59-.26-1.51,9-1.58-.51-2.87,1.66-.29.5,2.87Z"/><path d="M229.87,269.79a21.58,21.58,0,0,0-3.68-3l1-1.17a21.57,21.57,0,0,1,3.74,2.86Zm2.73,10.29c2,1.4,4.06,1.7,7.58,1.11l8.23-1.45a7.79,7.79,0,0,0-.25,1.58l-7.95,1.39c-3.67.61-5.82.27-7.94-1.23a21.57,21.57,0,0,1-2.73,3.65l-1.18-1.33a20.53,20.53,0,0,0,2.74-3l-1-5.61-3.1.54-.25-1.42,4.69-.82Zm-.87-11.76L231.5,267l3.7-.65a12.73,12.73,0,0,0-1.69-1.77l1.36-.83a15.35,15.35,0,0,1,2,2.31l2.72-.47a21.91,21.91,0,0,0,.7-2.82l1.72.13a16.08,16.08,0,0,1-.8,2.4l3.91-.68.23,1.32L239.26,267c0,.37-.22,1.31-.34,1.85l5.25-.92,1.88,10.67-10.66,1.87-1.87-10.67,3.85-.68a14.22,14.22,0,0,0,.24-1.83Zm3.88,4.33,7.54-1.33-.34-1.92-7.53,1.32Zm.54,3,7.53-1.32-.33-1.91-7.54,1.33Zm.57,3.29,7.54-1.33-.37-2.09-7.53,1.32Z"/><path d="M187.43,175.34a22.64,22.64,0,0,0-3.76-2.71l.9-1.28a19.35,19.35,0,0,1,3.81,2.55Zm.18,5.47a25.89,25.89,0,0,0-3.83-2.65l.9-1.35a20.59,20.59,0,0,1,3.89,2.56Zm-1.27,9a31.93,31.93,0,0,0,2.48-7.52l1.5.8a36.32,36.32,0,0,1-2.42,7.72Zm10.42-10v0a47.37,47.37,0,0,1-1.84,7l0,.2,1.53-.4c1.53-.39,3.85-1.06,5.67-1.64-.84-1-1.79-2-2.78-2.94l1.18-1a38.88,38.88,0,0,1,5.24,5.62L204.38,188c-.65-.9-.94-1.29-1.4-1.85l-.2.08c-2.25.87-7.07,2.38-10.46,3.28l-.83-1.56.83-.19.25-.06.56-.14A49,49,0,0,0,195,180l-5.27.93-.25-1.41,6.39-1.12-.74-4.23-5.26.93-.25-1.45,5.25-.92-.59-3.37,1.63-.29.59,3.37,5.57-1,.26,1.45-5.57,1,.74,4.23,6.66-1.17.24,1.4-7.62,1.34Z"/><path d="M207.17,214.9a19.79,19.79,0,0,1-4,5.22,29.08,29.08,0,0,0,8.39,1.07l-.61,1.58a33.25,33.25,0,0,1-9-1.5,29.5,29.5,0,0,1-8.21,4.74l-1.07-1.15a28.49,28.49,0,0,0,7.83-4.2,27.17,27.17,0,0,1-3.44-2.12,17.51,17.51,0,0,1-3.25,2.88l-1.21-.91a14.58,14.58,0,0,0,5.38-6.1l1.65,0c-.23.54-.3.64-.53,1.09l7.16-1.26Zm-2.53,18.91-1.61.29-1.18-6.7a20.66,20.66,0,0,1-7.11,7.29l-1.2-1.17a21,21,0,0,0,6.88-6.28l-7.66,1.34-.25-1.4,9-1.58-.4-2.29,1.61-.28.4,2.28,9.17-1.61.24,1.4-7.74,1.37a22.21,22.21,0,0,0,8.65,3.05l-.77,1.65a21.54,21.54,0,0,1-9.26-4.18ZM198.13,217c-.11.19-.17.25-.27.4a16.78,16.78,0,0,0,3.76,2.16,19.17,19.17,0,0,0,3.21-3.74Z"/><path d="M204.3,239.13a28.44,28.44,0,0,1-3.88,2l-.69-1.44a20.48,20.48,0,0,0,4.72-2.75l1.36-.24,3,17.28-1.88.33Z"/><path d="M204.85,271.16l.12-.06.08-.06a25.35,25.35,0,0,0,2.21-1.31l.43,1.45a58.08,58.08,0,0,1-6.33,3.66l-.87-1.51c1.11-.52,1.27-.59,2.35-1.12l.47-.24-1.72-9.84-2.73.48-.26-1.49,6.64-1.16.26,1.49-2.28.4ZM217,260l2,11.16-10,1.77-2-11.16,3.26-.58a18.46,18.46,0,0,0,.19-2.23l-5.23.92-.24-1.38,12.94-2.28.24,1.39L212,258.62a18.47,18.47,0,0,1-.34,2.26Zm-9.66,16.44a12.91,12.91,0,0,0,3.89-3.66l1.43.63a15.52,15.52,0,0,1-4,4Zm1.38-13.67.36,2,6.93-1.21-.36-2Zm.92,5.22,6.93-1.22-.35-2L209.25,266Zm.59,3.37,6.93-1.22-.38-2.16-6.93,1.22Zm9.81,4a28.11,28.11,0,0,0-4.74-2.4l1-1.13a29.32,29.32,0,0,1,4.78,2.14Z"/><path d="M211.84,282a28.61,28.61,0,0,1-3.89,2l-.68-1.44a20.38,20.38,0,0,0,4.71-2.75l1.36-.24,3,17.27-1.89.34Z"/><path d="M213.76,310.68c-.08.79-.21,1.55-.33,2.17l11.76-2.06a20.35,20.35,0,0,1-.06,6.18c-.31,1.26-.93,1.72-2.81,2-1.11.19-2.61.39-3.65.49L218,318c1.46-.13,2.88-.29,3.88-.47s1.34-.4,1.51-1.12a19.51,19.51,0,0,0,.15-3.85l-10.45,1.84c-.17.63-.36,1.29-.57,1.93l-1.78-.18A29.6,29.6,0,0,0,212,311l-4.67.82-.25-1.42,19.89-3.5.25,1.43Zm9.75-5.14-13.67,2.4-1-5.95,13.67-2.4Zm-12.21.76,10.28-1.81-.56-3.22-10.28,1.8Z"/><path d="M214.12,328.22a21.58,21.58,0,0,0-3.68-3l1-1.17a21.12,21.12,0,0,1,3.74,2.87Zm2.73,10.29c2,1.4,4.06,1.7,7.58,1.11l8.22-1.45a8.57,8.57,0,0,0-.24,1.58l-7.95,1.4c-3.67.6-5.83.26-8-1.24a21,21,0,0,1-2.72,3.65l-1.18-1.33a20,20,0,0,0,2.73-3l-1-5.61-3.1.54-.25-1.42,4.69-.82ZM216,326.75l-.23-1.32,3.71-.65a13.34,13.34,0,0,0-1.69-1.77l1.36-.82a15,15,0,0,1,2,2.31l2.72-.48a20,20,0,0,0,.69-2.82l1.73.13a16.1,16.1,0,0,1-.81,2.4l3.92-.68.23,1.32-6.05,1.06c0,.37-.22,1.31-.34,1.85l5.25-.92L230.3,337l-10.66,1.87-1.87-10.67,3.85-.68a14.22,14.22,0,0,0,.24-1.83Zm3.89,4.32,7.54-1.32-.34-1.92-7.54,1.32Zm.54,3,7.53-1.32-.33-1.91-7.54,1.33Zm.57,3.29,7.54-1.33-.37-2.09-7.54,1.32Z"/><path d="M222.76,352.23l-2.7.47.58,3.31,2.72-.48.24,1.38-2.72.48.77,4.38c.54-.25,2-1,3-1.51l.39,1.34a74.91,74.91,0,0,1-7.84,3.79l-.8-1.39,1.07-.43-1.44-8.16,1.43-.25,1.38,7.85.5-.22.48-.21.42-.18L218.61,353l-3.06.53-1.19-6.8,7.2-1.26Zm-6-.36,4.23-.74-.71-4-4.23.74ZM232.1,345a18.17,18.17,0,0,1-2.19,5.58,17.5,17.5,0,0,0,5.3,2.07l-.55,1.52a18.46,18.46,0,0,1-5.58-2.39,17.49,17.49,0,0,1-4.82,4.41L223.2,355a14.07,14.07,0,0,0,4.67-4.12,15.24,15.24,0,0,1-2.35-2.33l-.07.12,0,.07a13.8,13.8,0,0,1-1.5,2.23l-1.23-.93a12.74,12.74,0,0,0,2.86-6.22l1.6,0c-.14.58-.17.76-.28,1.15l4.06-.72Zm3,17.7-1.53.27-.22-1.24-5.33.94.21,1.24-1.53.27-1.44-8.25,8.39-1.48Zm-9-15.38a13.64,13.64,0,0,0,2.56,2.45,14.4,14.4,0,0,0,1.64-3.94l-3.89.68-.25.67Zm1.69,14,5.34-.94-.74-4.23-5.34.94Z"/><path d="M191.83,193.27l2,11.33,3.25-.57.28,1.61-3.24.57.72,4.12-1.84.33-.72-4.13-8.63,1.52-.28-1.59,6.17-12.78Zm-.92,5.62c-.17-1-.41-2.6-.53-3.64l-.08,0a24.12,24.12,0,0,1-1.06,2.92l-3.76,7.87,6.49-1.14Z"/><path d="M199.66,207.78c.15-2.34,1.6-4.9,4.09-7.28l.48-.45c2.6-2.42,3.21-3.48,2.94-5-.3-1.71-1.92-2.61-4.08-2.24a5.31,5.31,0,0,0-3.94,3l-1.51-.88a6.83,6.83,0,0,1,5.24-3.82c3.27-.57,6,.94,6.46,3.6.37,2.11-.27,3.24-3.6,6.28l-.67.62c-2.21,2.07-3.46,4.14-3.38,5.68l9.81-1.72.32,1.78L200,209.43Z"/><path d="M237.61,446.54l.27,1.42-6.65,1.29.42,5.07h.07a4.83,4.83,0,0,1,3-1.83,4.46,4.46,0,0,1,5.56,3.57c.54,2.78-1.19,5.17-4.18,5.75a7.22,7.22,0,0,1-5.17-.74l.74-1.3a6.28,6.28,0,0,0,4.13.63,3.33,3.33,0,0,0,2.73-4,3.06,3.06,0,0,0-3.85-2.54,4.18,4.18,0,0,0-2.93,2.13l-1.51,0-.74-7.91Z"/><path d="M244.82,457.25l.48,2.5-2.5.49-.48-2.5Z"/><path d="M255.47,443.07l.22,1.18a47.05,47.05,0,0,0-2.22,13.92l-1.64.31a56.43,56.43,0,0,1,2.07-13.65l-6.82,1.32.63,3.28-1.52.29-.91-4.67Z"/><path d="M266.35,441l.27,1.42L260,443.67l.42,5.07h.07a4.77,4.77,0,0,1,3.05-1.82,4.44,4.44,0,0,1,5.55,3.57c.54,2.78-1.19,5.16-4.18,5.75a7.27,7.27,0,0,1-5.17-.74l.74-1.31a6.3,6.3,0,0,0,4.14.63,3.33,3.33,0,0,0,2.72-4,3.05,3.05,0,0,0-3.85-2.53,4.15,4.15,0,0,0-2.92,2.12l-1.52.05-.74-7.92Z"/><path d="M280.84,445.5c.88,4.55-.59,7.74-3.82,8.37s-5.8-1.8-6.68-6.33.59-7.74,3.84-8.37S280,441,280.84,445.5Zm-8.78,1.71c.71,3.67,2.5,5.68,4.7,5.26s3.08-3,2.37-6.63-2.51-5.71-4.71-5.28S271.35,443.53,272.06,447.21Z"/><path d="M456.74,110.89c2.54,0,3.95-.93,3.95-2.6,0-1.48-1.19-2.41-3.12-2.41a4.39,4.39,0,0,0-3.49,1.55l-1.05-1a6.19,6.19,0,0,1,4.58-2c2.87,0,4.86,1.51,4.86,3.68,0,1.8-1.31,3-3.51,3.3v.07c2.59.18,4.09,1.57,4.09,3.76,0,2.55-2.11,4.17-5.46,4.17a6.49,6.49,0,0,1-5.08-2l1.05-1a5.44,5.44,0,0,0,4,1.6c2.29,0,3.66-1.07,3.66-2.83,0-2-1.43-2.92-4.53-2.92h-1.16v-1.36Z"/><path d="M467.29,116.63v2.55h-2.55v-2.55Z"/><path d="M473,111.82c-1.93-.77-2.95-2-2.95-3.53,0-2.21,2.05-3.81,4.87-3.81s4.81,1.56,4.81,3.68a3.09,3.09,0,0,1-1.23,2.52,5,5,0,0,1-2,1v0c2.32.71,3.64,2.09,3.64,3.83,0,2.32-2.14,3.91-5.28,3.91s-5.26-1.52-5.26-3.84c0-1.72,1.2-3.06,3.36-3.74Zm-.79,1.87a2.29,2.29,0,0,0-.8,1.76c0,1.61,1.35,2.62,3.51,2.62s3.46-1.1,3.46-2.69a2.33,2.33,0,0,0-.89-1.78,5.88,5.88,0,0,0-1.82-1c-.25-.09-.84-.25-.88-.25A5.93,5.93,0,0,0,472.22,113.69Zm5.85-5.38c0-1.48-1.32-2.57-3.12-2.57s-3.14,1.05-3.14,2.57a2,2,0,0,0,.73,1.67,6.74,6.74,0,0,0,1.16.71,6.39,6.39,0,0,0,1.25.41C476.85,110.68,478.07,109.59,478.07,108.31Z"/><path d="M490.59,112a4.26,4.26,0,0,1-3.88,2.44,4.54,4.54,0,0,1-4.65-4.74,5.38,5.38,0,0,1,1.46-3.67,4.67,4.67,0,0,1,3.56-1.51c3.19,0,5.21,2.53,5.21,6.54,0,5.57-2.37,8.12-8,8.66l-.73-1.32c4.58-.2,6.81-2.19,7.14-6.4Zm-6.84-2.44c0,2.08,1.28,3.53,3.17,3.53a3.3,3.3,0,0,0,2.53-1.25,3.79,3.79,0,0,0,.89-2.26,4.41,4.41,0,0,0-1-2.69,2.83,2.83,0,0,0-2.29-1A3.5,3.5,0,0,0,483.75,109.52Z"/><path d="M352.55,203.67a31.23,31.23,0,0,1-5.09,1.58l-.58-2a21.28,21.28,0,0,0,6.35-2.33H355v21.63h-2.43Z"/><path d="M369.12,212.28a26.59,26.59,0,0,1-.86,2.57H383a24.89,24.89,0,0,1-1.39,7.5c-.66,1.47-1.5,1.89-3.86,1.89-1.39,0-3.25-.08-4.53-.19l-.48-2c1.81.16,3.57.26,4.83.26s1.71-.21,2.07-1a23.71,23.71,0,0,0,1-4.64H367.55c-.34.73-.71,1.5-1.1,2.23l-2.13-.6a35.93,35.93,0,0,0,2.6-6h-5.85v-1.79H386v1.79Zm13-4.17H365v-7.45h17.13Zm-15-1.68H380v-4H367.08Z"/><path d="M392.76,211.41a31,31,0,0,1-3.17,7.11l-1-2.1a29.72,29.72,0,0,0,4-9.47H389v-1.83h3.78V199.5h1.94v5.62h2.73V207H394.7v2.44a30.61,30.61,0,0,1,3.23,3.07l-1.1,1.76a29.76,29.76,0,0,0-2.13-2.7v12.9h-1.94Zm14.64,3.65a19.46,19.46,0,0,0,6.69,5.92l-1.24,1.84a21.58,21.58,0,0,1-6.77-6.71v8.31h-1.86v-8.16a20.2,20.2,0,0,1-6.74,6.93l-1.31-1.6a18.64,18.64,0,0,0,6.87-6.53h-4.85v-9.34h6v-1.94h-7.39v-1.71h7.39V199.5h1.86v2.57h7.56v1.71h-7.56v1.94h6.22v9.34Zm-7.35-7.74v2.23h4.17v-2.23Zm0,3.83v2.28h4.17v-2.28Zm6-1.6h4.38v-2.23h-4.38Zm0,3.88h4.38v-2.28h-4.38Z"/><path d="M342.57,345.5c.68-2.81,3-5.62,6.53-8l.68-.44c3.67-2.39,4.64-3.54,4.64-5.46,0-2.15-1.78-3.59-4.48-3.59-2.21,0-3.75.81-5.43,2.8l-1.65-1.39a8.43,8.43,0,0,1,7.18-3.51c4.09,0,7.08,2.41,7.08,5.74,0,2.65-1,3.89-5.71,6.88l-1,.6c-3.12,2.05-5.09,4.3-5.32,6.19h12.3v2.23H342.57Z"/><path d="M370.35,337.26c-.27.95-.58,1.84-.87,2.57h14.74a24.89,24.89,0,0,1-1.39,7.5c-.65,1.47-1.49,1.89-3.85,1.89-1.39,0-3.26-.08-4.54-.18l-.47-2c1.81.16,3.56.27,4.82.27s1.71-.21,2.07-1.05a23.85,23.85,0,0,0,1-4.65H368.77c-.34.74-.71,1.5-1.1,2.23l-2.12-.6a35.59,35.59,0,0,0,2.59-6h-5.85v-1.78h24.92v1.78Zm12.95-4.17H366.18v-7.45H383.3Zm-15-1.68h12.88v-4H368.3Z"/><path d="M394,336.4a31.15,31.15,0,0,1-3.17,7.1l-1-2.09a29.82,29.82,0,0,0,4-9.47h-3.59V330.1H394v-5.61h1.94v5.61h2.73v1.84h-2.73v2.44a30.59,30.59,0,0,1,3.23,3.06l-1.1,1.76a28.08,28.08,0,0,0-2.13-2.7v12.91H394ZM408.62,340a19.58,19.58,0,0,0,6.69,5.93l-1.24,1.84a21.58,21.58,0,0,1-6.76-6.72v8.32h-1.87v-8.16a20.26,20.26,0,0,1-6.74,6.92l-1.31-1.6a18.64,18.64,0,0,0,6.87-6.53h-4.85V330.7h6v-1.94h-7.39v-1.7h7.39v-2.57h1.87v2.57h7.55v1.7h-7.55v1.94h6.21V340Zm-7.35-7.74v2.23h4.17V332.3Zm0,3.83v2.29h4.17v-2.29Zm6-1.6h4.38V332.3h-4.38Zm0,3.89h4.38v-2.29h-4.38Z"/><path d="M497.87,300.67c3.75,0,5.82-1.37,5.82-3.83,0-2.18-1.76-3.54-4.59-3.54a6.45,6.45,0,0,0-5.14,2.28l-1.55-1.47a9.16,9.16,0,0,1,6.74-2.89c4.23,0,7.16,2.23,7.16,5.43,0,2.65-1.94,4.46-5.16,4.86v.1c3.8.26,6,2.31,6,5.54,0,3.75-3.09,6.13-8,6.13a9.52,9.52,0,0,1-7.48-3l1.55-1.55a8,8,0,0,0,5.9,2.36c3.36,0,5.38-1.57,5.38-4.17,0-2.94-2.1-4.3-6.67-4.3h-1.7v-2Z"/><path d="M481.37,331.06c-.27.94-.58,1.83-.87,2.57h14.74a24.89,24.89,0,0,1-1.39,7.5c-.65,1.47-1.49,1.89-3.85,1.89-1.39,0-3.26-.08-4.54-.18l-.47-2c1.81.16,3.56.26,4.82.26s1.71-.21,2.07-1a23.85,23.85,0,0,0,1-4.65H479.79c-.34.74-.71,1.5-1.1,2.23l-2.12-.6a35.59,35.59,0,0,0,2.59-6h-5.85v-1.79h24.92v1.79Zm12.95-4.17H477.2v-7.45h17.12Zm-15-1.68H492.2v-4H479.32Z"/><path d="M505,330.19a31,31,0,0,1-3.17,7.11l-1-2.1a29.72,29.72,0,0,0,4-9.47h-3.59V323.9H505v-5.62h1.94v5.62h2.73v1.83h-2.73v2.44a29.67,29.67,0,0,1,3.23,3.07l-1.1,1.76a28.08,28.08,0,0,0-2.13-2.7v12.9H505Zm14.64,3.65a19.68,19.68,0,0,0,6.69,5.93l-1.24,1.83a21.44,21.44,0,0,1-6.76-6.71v8.31h-1.87V335a20.2,20.2,0,0,1-6.74,6.93l-1.31-1.6a18.64,18.64,0,0,0,6.87-6.53h-4.85V324.5h6v-1.94h-7.39v-1.71h7.39v-2.57h1.87v2.57h7.55v1.71h-7.55v1.94h6.21v9.34Zm-7.35-7.74v2.23h4.17V326.1Zm0,3.83v2.28h4.17v-2.28Zm6-1.6h4.38V326.1h-4.38Zm0,3.88h4.38v-2.28h-4.38Z"/><polyline class="cls-3" points="56.68 311.06 56.68 299.32 63.58 311.06 63.58 299.32"/><circle class="cls-4" cx="85.34" cy="334.54" r="24.35"/><polygon points="94.7 344.48 107.8 341.79 69.04 317.25 91.25 357.4 94.7 344.48"/><rect class="cls-5" x="65.45" y="209.6" width="39.3" height="95.53" transform="translate(-172.26 342.46) rotate(-90)"/><path class="cls-1" d="M54.57,263.21H70.12v2.09H54.57v1.41H52.24V248.15H69.58v2h-15Zm.68-2.35a19.35,19.35,0,0,0,5.41-4,53.29,53.29,0,0,0-4.83-3.53l1.41-1.57a56.47,56.47,0,0,1,4.85,3.4,26.71,26.71,0,0,0,2.7-4.44l2.09,1a31.62,31.62,0,0,1-3,4.85c1.16.95,2.69,2.32,4.25,3.79l-1.64,1.73c-1.35-1.35-2.86-2.74-4.08-3.8a21.26,21.26,0,0,1-5.77,4.36Z"/><path class="cls-1" d="M83.73,250H75v-1.87h19.7V250H85.93v2h4.43v10.34h-11V252h4.34Zm8.21,13.68V252h2.12v14.74H91.94v-1.14H77.82v1.14h-2.1V252h2.1v11.69Zm-10.58-10v2.51h2.45v-2.51Zm0,4.1v2.8h2.45v-2.8Zm4.48-1.59h2.55v-2.51H85.84Zm0,4.39h2.55v-2.8H85.84Z"/><path class="cls-1" d="M117.93,266.71h-2.26v-1.06H102.23v1.06H100V248h17.94Zm-15.7-3h13.44V249.85H102.23Zm11.51-.89c-1.31-.81-2.84-1.68-4.23-2.38a17.52,17.52,0,0,1-5.37,3l-1.29-1.55a13.52,13.52,0,0,0,4.67-2.45l-.54-.25c-1.35-.66-2.34-1.1-4.1-1.82l.93-1.54c2.09.77,3.3,1.25,5.29,2.18a17.36,17.36,0,0,0,3.85-7l2,.62a23.21,23.21,0,0,1-3.94,7.34l.19.11c1,.52,2.18,1.14,3.75,2.07ZM105,256a19.15,19.15,0,0,0-1.66-4.06l1.91-.77a21.43,21.43,0,0,1,1.72,4Zm3.57-.81a24.27,24.27,0,0,0-1.68-4.08l1.82-.73a18.91,18.91,0,0,1,1.72,4Z"/><path class="cls-1" d="M366.26,400.77a47.6,47.6,0,0,1,0,11.19,8.79,8.79,0,0,1-8.87,7.28,383,383,0,0,0-39.08,0,8.39,8.39,0,0,1-8.45-6.9,48,48,0,0,1,0-12,8.39,8.39,0,0,1,8.45-6.91,380.16,380.16,0,0,0,39.08,0A8.8,8.8,0,0,1,366.26,400.77Z"/><path class="cls-6" d="M366.73,406.37a47.84,47.84,0,0,1-.32,5.61,8.91,8.91,0,0,1-9,7.41,382.63,382.63,0,0,0-39.06,0,8.52,8.52,0,0,1-8.6-7,47.33,47.33,0,0,1,0-12,8.51,8.51,0,0,1,8.6-7,382.63,382.63,0,0,0,39.06,0,8.91,8.91,0,0,1,9,7.41h0A47.71,47.71,0,0,1,366.73,406.37Zm-57.1,0a47.72,47.72,0,0,0,.37,6,8.23,8.23,0,0,0,8.31,6.78,383,383,0,0,1,39.08,0,8.61,8.61,0,0,0,8.73-7.15,48.43,48.43,0,0,0,0-11.16,8.6,8.6,0,0,0-8.72-7.15,386.11,386.11,0,0,1-39.09,0A8.23,8.23,0,0,0,310,400.4,47.61,47.61,0,0,0,309.63,406.37Z"/><path class="cls-7" d="M358.93,397.44v17.85l.63-.07v-17.7Z"/><path class="cls-6" d="M352.54,395.62l-.53.16a53,53,0,0,1-14.22,1.72l-1.78,0h0l-6.37-2.7h.5c1.48,0,2.95-.06,4.35-.06a171.47,171.47,0,0,1,17.54.88ZM336,397.26l1.75,0a54.42,54.42,0,0,0,13.61-1.55,169.29,169.29,0,0,0-16.95-.82c-1.24,0-2.53,0-3.84,0Z"/><path class="cls-6" d="M352.54,417.11l-.55.06a171.47,171.47,0,0,1-17.54.88c-1.39,0-2.86,0-4.35-.06h-.5l6.41-2.72,1.78,0A53,53,0,0,1,352,417Zm-21.93.68c1.32,0,2.61,0,3.84,0,5.81,0,11.51-.28,16.95-.82a54.42,54.42,0,0,0-13.61-1.55l-1.75,0Z"/><path class="cls-1" d="M328.38,395H319a10,10,0,0,0-10,10v2.87a10,10,0,0,0,10,10h9.37a51.19,51.19,0,0,1,0-22.84Z"/><path d="M328.51,394.84l0,.13a49.58,49.58,0,0,0-1.28,11.4v.15a50.55,50.55,0,0,0,1.28,11.25l0,.13H319a10.11,10.11,0,0,1-10.11-10.1v-2.87A10.11,10.11,0,0,1,319,394.84Zm-19.39,13a9.89,9.89,0,0,0,9.89,9.88h9.23A50.32,50.32,0,0,1,327,406.52v-.3a50.26,50.26,0,0,1,1.26-11.16H319a9.89,9.89,0,0,0-9.89,9.87Z"/><path class="cls-1" d="M350.31,398.12a55,55,0,0,0,0,16.5,23.87,23.87,0,0,0,8.63.7V397.41A23.87,23.87,0,0,0,350.31,398.12Z"/><path d="M359.05,397.31v18.11H359a24.24,24.24,0,0,1-8.66-.7l-.07,0v-.07a55.25,55.25,0,0,1,0-16.54V398l.07,0a24.24,24.24,0,0,1,8.66-.71Zm-.22,17.92V397.51a24.06,24.06,0,0,0-8.42.69,55.17,55.17,0,0,0,0,16.33A23.85,23.85,0,0,0,358.83,415.23Z"/><path class="cls-7" d="M358.94,397.41v17.91l.63-.07V397.48Z"/><path class="cls-1" d="M359.57,415.25h4.49a21.52,21.52,0,0,0,0-17.77h-4.49Z"/><path d="M366.09,406.37a19.52,19.52,0,0,1-1.93,8.93l0,.06h-4.67v-18h4.67l0,.05A19.56,19.56,0,0,1,366.09,406.37ZM364,415.14a21.42,21.42,0,0,0,0-17.55h-4.33v17.55Z"/><path class="cls-7" d="M328.32,395l-.6-.22a43.48,43.48,0,0,0,0,23.14l.6-.22A43.48,43.48,0,0,1,328.32,395Z"/><path class="cls-1" d="M328.29,417.4l7.6-2.78v-16.5l-7.6-2.78A42.32,42.32,0,0,0,328.29,417.4Z"/><path d="M336,398V414.7l-7.78,2.84,0-.11a42.34,42.34,0,0,1,0-22.12l0-.11Zm-.22,16.51V398.19l-7.42-2.71a42.29,42.29,0,0,0,0,21.77Z"/><path class="cls-6" d="M364.06,397.52v-.12a2.45,2.45,0,0,0-2.45-2.44h-.18A5.92,5.92,0,0,1,364.06,397.52Z"/><path class="cls-6" d="M364.06,415.22v.11a2.45,2.45,0,0,1-2.45,2.45h-.18A5.92,5.92,0,0,0,364.06,415.22Z"/><path class="cls-1" d="M334.32,391.91a1,1,0,0,0-.88.17l-1.72,2a.18.18,0,0,0-.05.11h1.6l1.25-2.22Z"/><path class="cls-6" d="M334.68,391.88l-1.34,2.41h-1.81l0-.13a.35.35,0,0,1,.08-.16l1.72-2a1.12,1.12,0,0,1,1-.21Zm-1.47,2.19,1.14-2-.06,0a.94.94,0,0,0-.77.14l-1.65,1.92Z"/><path class="cls-1" d="M334.32,420.83a1,1,0,0,1-.88-.18l-1.72-2a.16.16,0,0,1-.05-.1h1.6l1.25,2.22Z"/><path class="cls-6" d="M334.68,420.85l-.34.08a1.09,1.09,0,0,1-1-.2l-1.72-2a.31.31,0,0,1-.08-.15l0-.13h1.81Zm-2.81-2.18,1.65,1.91a.87.87,0,0,0,.77.14h.06l-1.14-2Z"/><path class="cls-6" d="M322.59,400.49a19.94,19.94,0,0,0-8.58,1.6,22.55,22.55,0,0,1,7.61-1.16,27.66,27.66,0,0,1,4.1.29v-.56A28.42,28.42,0,0,0,322.59,400.49Z"/><path class="cls-6" d="M322.59,412.25a19.94,19.94,0,0,1-8.58-1.6,22.55,22.55,0,0,0,7.61,1.16,27.66,27.66,0,0,0,4.1-.29v.56A28.42,28.42,0,0,1,322.59,412.25Z"/><rect class="cls-1" x="334.85" y="399.15" width="16.51" height="14.43" transform="translate(-63.27 749.47) rotate(-90)"/><path d="M350.43,398v16.72H335.78V398Zm-.22,16.5V398.22H336v16.29Z"/><path class="cls-1" d="M302.15,259A47.6,47.6,0,0,1,291,259a8.8,8.8,0,0,1-7.28-8.88,382.82,382.82,0,0,0,0-39.07,8.39,8.39,0,0,1,6.91-8.45,47,47,0,0,1,12,0,8.39,8.39,0,0,1,6.91,8.45,382.82,382.82,0,0,0,0,39.07A8.8,8.8,0,0,1,302.15,259Z"/><path class="cls-6" d="M296.55,259.47a47.85,47.85,0,0,1-5.61-.33,8.9,8.9,0,0,1-7.4-9,385.33,385.33,0,0,0,0-39.05,8.52,8.52,0,0,1,7-8.61,48.27,48.27,0,0,1,12,0,8.52,8.52,0,0,1,7,8.61,385.52,385.52,0,0,0,0,39.06,8.9,8.9,0,0,1-7.4,9h0A47.89,47.89,0,0,1,296.55,259.47Zm0-57.11a47.62,47.62,0,0,0-6,.38,8.2,8.2,0,0,0-6.78,8.3,386.11,386.11,0,0,1,0,39.09,8.6,8.6,0,0,0,7.16,8.72,47.26,47.26,0,0,0,11.15,0,8.61,8.61,0,0,0,7.16-8.72,386.11,386.11,0,0,1,0-39.09,8.2,8.2,0,0,0-6.78-8.3A47.58,47.58,0,0,0,296.56,202.36Z"/><path class="cls-7" d="M305.48,251.67H287.63c0,.21.05.42.07.62h17.71C305.43,252.09,305.46,251.88,305.48,251.67Z"/><path class="cls-6" d="M307.3,245.28l-.16-.53a53.49,53.49,0,0,1-1.71-14.22c0-.59,0-1.19,0-1.78v0l2.71-6.37v.5c0,1.48.05,2.94.05,4.35a171.66,171.66,0,0,1-.87,17.54Zm-1.63-16.51c0,.59,0,1.18,0,1.76a54,54,0,0,0,1.56,13.61c.54-5.44.82-11.14.82-16.95,0-1.25,0-2.54,0-3.84Z"/><path class="cls-6" d="M285.81,245.28l-.06-.55a171.66,171.66,0,0,1-.87-17.54c0-1.4,0-2.86.05-4.35v-.5l2.72,6.41c0,.59,0,1.19,0,1.78A53.49,53.49,0,0,1,286,244.75Zm-.67-21.93c0,1.31-.05,2.6-.05,3.84,0,5.81.28,11.51.82,16.95a54,54,0,0,0,1.56-13.61c0-.58,0-1.17,0-1.76Z"/><path class="cls-1" d="M308,221.11v-9.37a10,10,0,0,0-10-10h-2.87a10,10,0,0,0-10,10v9.37a51.24,51.24,0,0,1,22.85,0Z"/><path d="M308.08,221.25l-.13,0a49.44,49.44,0,0,0-11.39-1.29h-.15a50.5,50.5,0,0,0-11.25,1.29l-.13,0v-9.51a10.1,10.1,0,0,1,10.09-10.1H298a10.1,10.1,0,0,1,10.09,10.1Zm-13-19.4a9.9,9.9,0,0,0-9.88,9.89V221a50.39,50.39,0,0,1,11.16-1.26h.31A50.39,50.39,0,0,1,307.87,221v-9.24a9.9,9.9,0,0,0-9.88-9.89Z"/><path class="cls-1" d="M304.81,243.05a55,55,0,0,0-16.51,0,24.07,24.07,0,0,0-.7,8.63h17.91A24.07,24.07,0,0,0,304.81,243.05Z"/><path d="M305.61,251.78H287.5v-.09a24.3,24.3,0,0,1,.71-8.67l0-.07h.07a55.18,55.18,0,0,1,16.53,0h.07l0,.07a24.3,24.3,0,0,1,.71,8.67Zm-17.91-.21h17.71a23.8,23.8,0,0,0-.69-8.42,55.17,55.17,0,0,0-16.33,0A23.8,23.8,0,0,0,287.7,251.57Z"/><path class="cls-7" d="M305.51,251.68H287.6c0,.2,0,.41.07.62h17.77C305.47,252.09,305.49,251.88,305.51,251.68Z"/><path class="cls-1" d="M287.67,252.3v4.5a21.52,21.52,0,0,0,17.77,0v-4.5Z"/><path d="M296.55,258.83a19.55,19.55,0,0,1-8.93-1.94l-.06,0v-4.67h18v4.67l-.06,0A19.56,19.56,0,0,1,296.55,258.83Zm-8.77-2.1a21.42,21.42,0,0,0,17.55,0v-4.32H287.78Z"/><path class="cls-7" d="M307.9,221.06l.22-.61a43.45,43.45,0,0,0-23.13,0l.22.61A43.44,43.44,0,0,1,307.9,221.06Z"/><path class="cls-1" d="M285.53,221l2.77,7.59h16.51l2.77-7.59A42.08,42.08,0,0,0,285.53,221Z"/><path d="M304.88,228.73H288.23L285.38,221l.12,0a42.3,42.3,0,0,1,22.11,0l.12,0Zm-16.5-.22h16.35l2.71-7.41a42.07,42.07,0,0,0-21.77,0Z"/><path class="cls-6" d="M305.41,256.79h.11a2.45,2.45,0,0,0,2.44-2.44v-.18A5.93,5.93,0,0,1,305.41,256.79Z"/><path class="cls-6" d="M287.7,256.79h-.11a2.45,2.45,0,0,1-2.44-2.44v-.18A5.93,5.93,0,0,0,287.7,256.79Z"/><path class="cls-1" d="M311,227.05a1,1,0,0,0-.17-.87l-2-1.72a.3.3,0,0,0-.11-.06V226l2.23,1.24Z"/><path class="cls-6" d="M311,227.42l-2.4-1.35v-1.8l.13,0a.34.34,0,0,1,.15.07l2,1.73a1,1,0,0,1,.21,1Zm-2.19-1.48,2,1.15,0-.06a.89.89,0,0,0-.14-.77l-1.92-1.66Z"/><path class="cls-1" d="M282.1,227.05a1,1,0,0,1,.17-.87l2-1.72a.3.3,0,0,1,.11-.06V226l-2.23,1.24Z"/><path class="cls-6" d="M282.07,227.42l-.08-.34a1,1,0,0,1,.21-1l2-1.73a.34.34,0,0,1,.15-.07l.13,0v1.8Zm2.19-2.82-1.92,1.66a.89.89,0,0,0-.14.77l0,.06,2-1.15Z"/><path class="cls-6" d="M302.43,215.33a19.76,19.76,0,0,0-1.6-8.58,22.18,22.18,0,0,1,1.17,7.6,27.75,27.75,0,0,1-.3,4.11h.57A28.49,28.49,0,0,0,302.43,215.33Z"/><path class="cls-6" d="M290.68,215.33a19.76,19.76,0,0,1,1.6-8.58,22.18,22.18,0,0,0-1.17,7.6,27.75,27.75,0,0,0,.3,4.11h-.57A28.49,28.49,0,0,1,290.68,215.33Z"/><rect class="cls-1" x="288.3" y="228.62" width="16.51" height="14.43"/><path d="M304.92,243.16H288.19V228.51h16.73ZM288.41,243H304.7V228.73H288.41Z"/><path class="cls-1" d="M523,221.46a47.6,47.6,0,0,1-11.19,0,8.8,8.8,0,0,1-7.28-8.88,382.82,382.82,0,0,0,0-39.07,8.41,8.41,0,0,1,6.91-8.46,48,48,0,0,1,12,0,8.41,8.41,0,0,1,6.91,8.46,380,380,0,0,0,0,39.07A8.8,8.8,0,0,1,523,221.46Z"/><path class="cls-6" d="M517.43,221.93a47.85,47.85,0,0,1-5.61-.33,8.91,8.91,0,0,1-7.41-9,385.32,385.32,0,0,0,0-39,8.52,8.52,0,0,1,7-8.61,48.27,48.27,0,0,1,12,0,8.53,8.53,0,0,1,7,8.61,385.52,385.52,0,0,0,0,39.06,8.9,8.9,0,0,1-7.4,9h0A48,48,0,0,1,517.43,221.93Zm0-57.11a47.74,47.74,0,0,0-6,.38,8.21,8.21,0,0,0-6.78,8.3,383.21,383.21,0,0,1,0,39.09,8.6,8.6,0,0,0,7.16,8.72,47.26,47.26,0,0,0,11.15,0,8.6,8.6,0,0,0,7.15-8.72,386.11,386.11,0,0,1,0-39.09,8.21,8.21,0,0,0-6.78-8.3A47.62,47.62,0,0,0,517.43,164.82Z"/><path class="cls-7" d="M526.36,214.13H508.51c0,.21,0,.42.07.62h17.7C526.31,214.55,526.34,214.34,526.36,214.13Z"/><path class="cls-6" d="M528.18,207.74l-.16-.53A53.49,53.49,0,0,1,526.31,193c0-.59,0-1.19,0-1.78v0l2.7-6.37,0,.5c0,1.48.05,2.94.05,4.35a168.8,168.8,0,0,1-.88,17.54Zm-1.64-16.51c0,.59,0,1.18,0,1.76a54,54,0,0,0,1.56,13.61c.54-5.44.81-11.14.81-16.95,0-1.25,0-2.54,0-3.85Z"/><path class="cls-6" d="M506.69,207.74l-.06-.55a171.66,171.66,0,0,1-.87-17.54c0-1.4,0-2.86.05-4.35v-.5l2.72,6.41c0,.59,0,1.19,0,1.78a53,53,0,0,1-1.72,14.22ZM506,185.8c0,1.32,0,2.61,0,3.85,0,5.81.28,11.51.82,16.95A54.47,54.47,0,0,0,508.34,193c0-.58,0-1.17,0-1.76Z"/><path class="cls-1" d="M528.85,183.57V174.2a10,10,0,0,0-10-10H516a10,10,0,0,0-10,10v9.37a51.19,51.19,0,0,1,22.84,0Z"/><path d="M529,183.71l-.13,0a49.59,49.59,0,0,0-11.4-1.29h-.15A49.9,49.9,0,0,0,506,183.68l-.14,0V174.2A10.11,10.11,0,0,1,516,164.1h2.87A10.11,10.11,0,0,1,529,174.2Zm-13-19.4a9.9,9.9,0,0,0-9.88,9.89v9.24a50.32,50.32,0,0,1,11.16-1.26h.3a50.41,50.41,0,0,1,11.17,1.26V174.2a9.9,9.9,0,0,0-9.88-9.89Z"/><path class="cls-1" d="M525.69,205.51a55,55,0,0,0-16.51,0,23.85,23.85,0,0,0-.7,8.63h17.91A24.07,24.07,0,0,0,525.69,205.51Z"/><path d="M526.49,214.24H508.38v-.09a24.07,24.07,0,0,1,.71-8.67v-.07h.07a55.25,55.25,0,0,1,16.54,0h.07l0,.07a24.3,24.3,0,0,1,.71,8.67ZM508.57,214h17.72a24,24,0,0,0-.69-8.42,55.17,55.17,0,0,0-16.33,0A24,24,0,0,0,508.57,214Z"/><path class="cls-7" d="M526.39,214.14H508.48c0,.2,0,.41.07.62h17.77C526.34,214.55,526.37,214.34,526.39,214.14Z"/><path class="cls-1" d="M508.55,214.76v4.5a21.52,21.52,0,0,0,17.77,0v-4.5Z"/><path d="M517.43,221.29a19.52,19.52,0,0,1-8.93-1.94l-.06,0v-4.67h18v4.67l0,0A19.56,19.56,0,0,1,517.43,221.29Zm-8.77-2.1a21.42,21.42,0,0,0,17.55,0v-4.32H508.66Z"/><path class="cls-7" d="M528.78,183.52l.22-.61a43.48,43.48,0,0,0-23.14,0l.23.61A43.44,43.44,0,0,1,528.78,183.52Z"/><path class="cls-1" d="M506.4,183.49l2.78,7.59h16.51l2.77-7.59A42.12,42.12,0,0,0,506.4,183.49Z"/><path d="M525.76,191.19H509.1l-2.84-7.78.12,0a42.3,42.3,0,0,1,22.11,0l.11,0Zm-16.5-.22h16.35l2.71-7.41a42.07,42.07,0,0,0-21.77,0Z"/><path class="cls-6" d="M526.28,219.25h.12a2.45,2.45,0,0,0,2.44-2.44v-.18A5.9,5.9,0,0,1,526.28,219.25Z"/><path class="cls-6" d="M508.58,219.25h-.11a2.45,2.45,0,0,1-2.45-2.44v-.18A6,6,0,0,0,508.58,219.25Z"/><path class="cls-1" d="M531.89,189.51a1,1,0,0,0-.17-.87l-2-1.72a.3.3,0,0,0-.11-.06v1.61l2.23,1.24Z"/><path class="cls-6" d="M531.92,189.88l-2.41-1.35v-1.8l.13,0a.33.33,0,0,1,.16.07l2,1.73a1.07,1.07,0,0,1,.21,1Zm-2.19-1.48,2,1.15,0-.06a.93.93,0,0,0-.14-.77l-1.92-1.66Z"/><path class="cls-1" d="M503,189.51a1,1,0,0,1,.18-.87l2-1.72a.27.27,0,0,1,.1-.06v1.61L503,189.71Z"/><path class="cls-6" d="M503,189.88l-.08-.34a1,1,0,0,1,.21-1l2-1.73a.34.34,0,0,1,.15-.07l.13,0v1.8Zm2.19-2.82-1.92,1.66a.86.86,0,0,0-.14.77v.06l2.05-1.15Z"/><path class="cls-6" d="M523.31,177.79a19.91,19.91,0,0,0-1.6-8.58,22.2,22.2,0,0,1,1.16,7.6,27.8,27.8,0,0,1-.29,4.11h.56A28.42,28.42,0,0,0,523.31,177.79Z"/><path class="cls-6" d="M511.55,177.79a19.74,19.74,0,0,1,1.61-8.58,22.18,22.18,0,0,0-1.17,7.6,27.75,27.75,0,0,0,.3,4.11h-.57A28.42,28.42,0,0,1,511.55,177.79Z"/><rect class="cls-1" x="509.18" y="191.08" width="16.51" height="14.43"/><path d="M525.79,205.62H509.07V191h16.72Zm-16.5-.21h16.29V191.19H509.29Z"/><rect class="cls-8" x="517.43" y="238.01" width="18.7" height="33.84"/><rect class="cls-8" x="517.43" y="233.04" width="18.7" height="4.97"/><rect class="cls-8" x="517.43" y="228.07" width="18.7" height="4.97"/><polygon points="520.31 254.93 529.54 261.69 529.54 248.18 520.31 254.93"/><rect class="繧ｰ繝ｩ繝輔ぅ繝け繧ｹ繧ｿ繧､繝ｫ-4" x="301.7" y="167.63" width="31.25" height="5.2" transform="translate(147.09 487.56) rotate(-90)"/><rect class="繧ｰ繝ｩ繝輔ぅ繝け繧ｹ繧ｿ繧､繝ｫ-4" x="296.5" y="167.63" width="31.25" height="5.2" transform="translate(141.89 482.36) rotate(-90)"/><rect class="繧ｰ繝ｩ繝輔ぅ繝け繧ｹ繧ｿ繧､繝ｫ-4" x="311.92" y="162.61" width="31.25" height="15.24" transform="translate(157.31 497.78) rotate(-90)"/><polygon points="331.84 170.23 322.9 164.09 322.9 176.37 331.84 170.23"/><rect class="繧ｰ繝ｩ繝輔ぅ繝け繧ｹ繧ｿ繧､繝ｫ-4" x="290.59" y="301.17" width="27.82" height="5.2" transform="translate(0.74 608.28) rotate(-90)"/><rect class="繧ｰ繝ｩ繝輔ぅ繝け繧ｹ繧ｿ繧､繝ｫ-4" x="285.39" y="301.17" width="27.82" height="5.2" transform="translate(-4.46 603.08) rotate(-90)"/><rect class="繧ｰ繝ｩ繝輔ぅ繝け繧ｹ繧ｿ繧､繝ｫ-4" x="300.82" y="296.15" width="27.82" height="15.24" transform="translate(10.96 618.5) rotate(-90)"/><polygon points="319.02 303.77 310.08 298.31 310.08 309.24 319.02 303.77"/><polyline class="繧ｰ繝ｩ繝輔ぅ繝け繧ｹ繧ｿ繧､繝ｫ-7" points="146.85 89.79 195.35 395.1 166.12 433.03"/><polyline class="繧ｰ繝ｩ繝輔ぅ繝け繧ｹ繧ｿ繧､繝ｫ" points="295.57 424.93 549.78 426.19 549.78 133.94 302.3 133.94 255.66 184.93 299.81 450.44"/><polyline class="繧ｰ繝ｩ繝輔ぅ繝け繧ｹ繧ｿ繧､繝ｫ-7" points="258.77 61.34 284.42 82.33 574.77 78.13"/><line class="cls-9" x1="207.94" y1="463.34" x2="195.35" y2="397.59"/><line class="cls-9" x1="574.77" y1="71.84" x2="274.37" y2="71.84"/><polyline class="繧ｰ繝ｩ繝輔ぅ繝け繧ｹ繧ｿ繧､繝ｫ-7" points="216.57 447.95 205.38 441.89 295.86 426.66 285.82 420.21"/><polyline class="繧ｰ繝ｩ繝輔ぅ繝け繧ｹ繧ｿ繧､繝ｫ-7" points="452.47 86.68 443.45 80.03 443.45 141.4 433.81 131.14"/><line class="繧ｰ繝ｩ繝輔ぅ繝け繧ｹ繧ｿ繧､繝ｫ-7" x1="525.58" y1="141.4" x2="577.81" y2="141.4"/><line class="繧ｰ繝ｩ繝輔ぅ繝け繧ｹ繧ｿ繧､繝ｫ-7" x1="559.11" y1="104.71" x2="588.96" y2="118.73"/></g></svg>