<svg xmlns="http://www.w3.org/2000/svg" width="700" height="500" viewBox="0 0 700 500"><defs><style>.cls-1,.cls-12,.cls-9,.繧ｰ繝ｩ繝輔ぅ繝け繧ｹ繧ｿ繧､繝ｫ-4{fill:#fff;}.cls-2,.cls-3,.cls-5,.cls-6,.cls-7,.cls-8,.cls-9,.繧ｰ繝ｩ繝輔ぅ繝け繧ｹ繧ｿ繧､繝ｫ-4{stroke:#000;}.cls-12,.cls-7,.cls-9,.繧ｰ繝ｩ繝輔ぅ繝け繧ｹ繧ｿ繧､繝ｫ-4{stroke-miterlimit:10;}.繧ｰ繝ｩ繝輔ぅ繝け繧ｹ繧ｿ繧､繝ｫ-4{stroke-width:1.27px;}.cls-2,.cls-3,.cls-5,.cls-7,.cls-8{fill:none;}.cls-2,.cls-3{stroke-linecap:round;stroke-linejoin:round;}.cls-2{stroke-width:1.43px;}.cls-3{stroke-width:1.83px;}.cls-4{fill:#e83589;}.cls-5,.cls-8{stroke-linejoin:bevel;}.cls-5,.cls-6,.cls-7,.cls-9{stroke-width:1.5px;}.cls-6{fill:#d8eacc;}.cls-10{fill:#030201;}.cls-11{fill:#242323;}.cls-12{stroke:#de0000;stroke-width:2px;}.cls-13{fill:#de0000;}</style></defs><title>kukakuzu</title><g id="レイヤー_2" data-name="レイヤー 2"><rect class="cls-1" width="700" height="500"/><path d="M588.26,314.33l-.55,1.35-8.26-3.33-1,2.41,6.37,2.56-3,7.49c-.44,1.09-1.09,1.29-2.42.75a24.23,24.23,0,0,1-2.26-1l.33-1.52a17.14,17.14,0,0,0,2.19,1.1c.49.2.64.15.82-.3l2.32-5.77-4.86-2-4.11,10.2-1.48-.6,4.11-10.2-4.63-1.86-3.16,7.87-1.49-.59,3.7-9.19,6.11,2.46,1-2.4-8.09-3.26.54-1.36,8.1,3.26,1-2.57,1.49.6L580,311Z"/><path d="M562,340.12c.91,2.13,2.42,3.41,5.57,4.7l7.38,3a6.62,6.62,0,0,0-1,1.15l-7.14-2.88c-3.27-1.36-4.84-2.71-5.8-5a20.39,20.39,0,0,1-4,1.58l-.29-1.67a19,19,0,0,0,3.71-1l2-5-2.78-1.12.52-1.28,4.21,1.7Zm3-9.7a20.58,20.58,0,0,0-1.45-4.3l1.38-.45a20.4,20.4,0,0,1,1.58,4.2Zm2.24-.26.48-1.18,3.33,1.34a12.32,12.32,0,0,0-.48-2.29l1.52,0a14.76,14.76,0,0,1,.42,2.86l2.44,1a19,19,0,0,0,2-1.93l1.33,1a15.49,15.49,0,0,1-1.86,1.54l3.51,1.42-.47,1.18L574,332.89c-.22.28-.84.94-1.21,1.32l4.71,1.9-3.86,9.58-9.56-3.85,3.86-9.58,3.46,1.39a13.72,13.72,0,0,0,1.11-1.36Zm-1.31,11.13,6.76,2.72.76-1.88-6.76-2.72Zm1.19-3,6.76,2.72.69-1.71-6.76-2.72Zm1.09-2.72,6.77,2.72.69-1.73-6.76-2.72Z"/><path d="M570,243.79a30.88,30.88,0,0,0,5.78-4.83l.81,1.39a34.42,34.42,0,0,1-5.84,5Zm5.55-6.65a23.75,23.75,0,0,0-1.76-4.07l1.41-.64a19.49,19.49,0,0,1,1.85,4Zm7.9,3.81,0,0a43.32,43.32,0,0,1-5,4.75l-.14.14,1.43.44c1.44.45,3.65,1.08,5.42,1.53-.19-1.21-.46-2.5-.77-3.78l1.44-.18a35.86,35.86,0,0,1,1.41,7.18l-1.67.31c-.08-1.06-.11-1.51-.21-2.2l-.2,0c-2.25-.43-6.92-1.63-10.1-2.61l.11-1.68.76.27.23.07.53.17a47,47,0,0,0,5.29-5.12l-4.74-1.91.51-1.26,5.73,2.31,1.53-3.79-4.72-1.9.52-1.3,4.72,1.9,1.22-3,1.46.59-1.22,3,5,2-.52,1.3-5-2L584.93,240l6,2.41-.51,1.25-6.84-2.75Zm-5.29-8.33a21.73,21.73,0,0,0-1.68-4.08l1.37-.58a18.84,18.84,0,0,1,1.81,4Z"/><path d="M562.69,288.6l-1.45-.59,2.42-6a19.66,19.66,0,0,1-9.42,2.32l-.38-1.55a19.93,19.93,0,0,0,8.73-1.61l-6.88-2.77.51-1.26,8.09,3.26.83-2.05,1.45.58-.83,2.05,8.23,3.31-.51,1.26-7-2.8a21.29,21.29,0,0,0,5.46,6.83l-1.45.94a20.39,20.39,0,0,1-5.38-8Zm11.56-14a18.55,18.55,0,0,1-5.9,2.18,27.68,27.68,0,0,0,6.25,5.09l-1.29,1a31.23,31.23,0,0,1-6.56-5.76,28.25,28.25,0,0,1-9-.3l-.28-1.46a26.92,26.92,0,0,0,8.45.54,25.55,25.55,0,0,1-1.72-3.44,16.92,16.92,0,0,1-4.07.69l-.53-1.35A13.76,13.76,0,0,0,567,269.5l1.32.86c-.46.32-.56.37-1,.62l6.42,2.58Zm-8.37-2.83c-.2.1-.27.11-.43.18a16.2,16.2,0,0,0,2,3.65,18.11,18.11,0,0,0,4.48-1.41Z"/><path d="M559.74,292.74a26.36,26.36,0,0,1-4.13-.38l.17-1.5a19.57,19.57,0,0,0,5.2.15l1.22.49L556,307l-1.69-.68Z"/><path d="M544.06,318.93h.22c.78.06,1.8.07,2.45.05l-.39,1.39a55.71,55.71,0,0,1-7-.22l.06-1.66c1.16.14,1.33.16,2.46.27l.51.05L546,310l-2.44-1,.54-1.33,6,2.39-.54,1.34-2-.83Zm-.65,5.46a12.35,12.35,0,0,0,5-1l.84,1.23A15.24,15.24,0,0,1,544,325.9ZM559.49,316l-4,10-9-3.63,4-10,2.93,1.18a16.46,16.46,0,0,0,1.27-1.71L550,309.9l.5-1.24,11.61,4.68-.5,1.23-5.45-2.19a16.82,16.82,0,0,1-1.41,1.66Zm-11.19,5.78,6.22,2.5.78-1.93-6.22-2.5Zm1.22-3,6.22,2.5.7-1.75-6.21-2.5ZM551.4,314l-.73,1.82,6.22,2.5.73-1.82Zm2.82,15.89a27.72,27.72,0,0,0-2.62-4.33l1.36-.41a27.07,27.07,0,0,1,2.79,4.13Z"/><path d="M544.23,331.25a26.34,26.34,0,0,1-4.13-.37l.17-1.51a19.58,19.58,0,0,0,5.2.15l1.22.49-6.24,15.5-1.69-.68Z"/><path d="M531.37,355.39A19.78,19.78,0,0,1,530,357l10.56,4.25a19.62,19.62,0,0,1-3.16,5c-.9.87-1.62.92-3.31.24-1-.4-2.31-1-3.2-1.44l.24-1.56c1.25.63,2.48,1.22,3.38,1.58s1.28.34,1.79-.16a18.53,18.53,0,0,0,2.05-3L529,358.05c-.46.43-.94.87-1.43,1.28l-1.35-1a27.54,27.54,0,0,0,3.58-3.54l-4.19-1.68.52-1.28L544,359l-.51,1.27Zm10.48.75-12.26-4.94,2.14-5.33L544,350.81Zm-10.26-5.53,9.22,3.71,1.17-2.89-9.22-3.71Z"/><path d="M519.87,379.47c.9,2.13,2.42,3.42,5.56,4.71l7.39,3a7,7,0,0,0-1,1.15l-7.14-2.87c-3.27-1.37-4.84-2.72-5.8-5a20.25,20.25,0,0,1-4,1.58l-.29-1.67a18.89,18.89,0,0,0,3.7-1l2-5-2.78-1.12.51-1.28,4.21,1.7Zm3-9.7a20,20,0,0,0-1.46-4.3l1.38-.45a19.88,19.88,0,0,1,1.59,4.2Zm2.24-.26.48-1.18,3.32,1.34a12.27,12.27,0,0,0-.47-2.29l1.52,0a14.76,14.76,0,0,1,.42,2.86l2.44,1a20,20,0,0,0,2-1.93l1.33,1a15.49,15.49,0,0,1-1.86,1.54l3.51,1.42-.48,1.18-5.43-2.18c-.22.28-.84.95-1.2,1.32l4.71,1.9L531.48,385l-9.56-3.85,3.86-9.58,3.46,1.39a15.32,15.32,0,0,0,1.11-1.36Zm-1.31,11.13,6.76,2.72.76-1.88-6.77-2.72Zm1.19-2.95,6.76,2.72.69-1.71L525.63,376ZM526,375l6.76,2.72.7-1.73-6.76-2.72Z"/><path d="M517.73,393.54l-2.42-1-1.19,3,2.44,1-.5,1.24-2.44-1L512,400.7c.56.07,2.15.24,3.21.31l-.36,1.28a70.8,70.8,0,0,1-8.25-.88l.05-1.53,1.08.19,3-7.32,1.28.51-2.84,7.05.52.07.49.07.43.07,3.41-8.47-2.74-1.11,2.46-6.1,6.46,2.6Zm-4.63-3.28,3.79,1.52,1.46-3.62-3.79-1.53Zm9.38,17.94-1.37-.55.45-1.11-4.79-1.93-.45,1.11-1.37-.55,3-7.4,7.53,3ZM529,392.36a17.22,17.22,0,0,1-4.58,3.42,16.26,16.26,0,0,0,3.25,4.34l-1.22.95a17.83,17.83,0,0,1-3.31-4.74,16.6,16.6,0,0,1-6.11,1.14L516.7,396a13.36,13.36,0,0,0,5.85-1,14.2,14.2,0,0,1-.73-3.06l-.11.06-.06,0a12.82,12.82,0,0,1-2.34,1.05l-.52-1.37a12.15,12.15,0,0,0,5.44-3.59l1.3.78c-.41.41-.52.53-.8.79l3.64,1.47Zm-11.68,11,4.79,1.93,1.53-3.79-4.79-1.93Zm5.65-12.15a13.07,13.07,0,0,0,.85,3.27,13.89,13.89,0,0,0,3.31-2.36l-3.5-1.41c-.12.11-.25.21-.53.42Z"/><path d="M572.73,249.35l-4.09,10.16,2.91,1.17-.58,1.45L568.05,261l-1.48,3.7-1.66-.66,1.49-3.7-7.74-3.12.58-1.42,11.42-7.24Zm-3.57,4.08c.35-.86,1-2.31,1.4-3.21l-.07,0a22.76,22.76,0,0,1-2.33,1.83l-7,4.48,5.82,2.34Z"/><path d="M571.77,265c1.29-1.81,3.76-3.15,7-3.82l.62-.13c3.32-.65,4.34-1.19,4.9-2.56.62-1.54-.24-3.09-2.18-3.87a5.06,5.06,0,0,0-4.7.44l-.78-1.47a6.5,6.5,0,0,1,6.16-.44c2.93,1.18,4.38,3.77,3.42,6.15-.77,1.9-1.86,2.49-6.08,3.27l-.85.16c-2.83.57-4.88,1.62-5.6,2.9l8.81,3.55-.64,1.6-10.65-4.29Z"/><path d="M239.26,331.36a21.51,21.51,0,0,1-3.66,5.28l-.81-1.54a20.31,20.31,0,0,0,4.42-6.28l-3.78-.27.1-1.39,4,.28.23-3.23c-.95.15-2,.26-3,.33l-.58-1.29a35.76,35.76,0,0,0,7.44-1.31l.84,1.26a28.92,28.92,0,0,1-3.13.73l-.26,3.62,3.6.25-.1,1.39-3.59-.25-.11,1.6a22.3,22.3,0,0,1,3.3,3l-1,1.33a28.27,28.27,0,0,0-2.4-2.75l-.62,8.77-1.55-.11Zm4.34,6.71c1.72-4.93,3.31-10.3,4.49-15.21l1.57.41A131.66,131.66,0,0,1,245,338.32l.41,0c1.91-.11,4.7-.4,5.86-.58-.6-2.09-1-3.53-1.62-5.21l1.39-.49a69.64,69.64,0,0,1,2.69,8.65l-1.55.66c-.2-.9-.32-1.46-.57-2.35l-.2,0a81.66,81.66,0,0,1-9,1.08l-.43-1.6c.44,0,.89,0,1-.05h.39Z"/><path d="M260.63,338.07c1.52,1.75,3.36,2.51,6.75,2.76l7.94.56a7.1,7.1,0,0,0-.59,1.4l-7.67-.54c-3.54-.29-5.45-1.09-7.06-3a19.82,19.82,0,0,1-3.36,2.75l-.79-1.5a18.62,18.62,0,0,0,3.21-2.1l.38-5.42-3-.21.1-1.37,4.52.32Zm-.16-10.14a20.62,20.62,0,0,0-2.71-3.64l1.17-.85a19.54,19.54,0,0,1,2.8,3.5Zm2-.93.09-1.28,3.57.25a11.89,11.89,0,0,0-1.15-2l1.45-.44a14.69,14.69,0,0,1,1.28,2.58l2.63.19a19.69,19.69,0,0,0,1.28-2.45l1.57.52a16.11,16.11,0,0,1-1.3,2l3.78.26-.09,1.27-5.84-.41c-.12.34-.51,1.17-.74,1.64l5.07.35-.72,10.3-10.28-.72.72-10.3,3.71.26a14.81,14.81,0,0,0,.65-1.64Zm2.17,11,7.28.51.14-2-7.27-.51Zm.23-3.17,7.27.5.13-1.83-7.27-.51Zm.2-2.93,7.27.51.13-1.86-7.27-.51Z"/><path d="M277.73,342.11a31,31,0,0,0,4-6.38l1.2,1.08a34.68,34.68,0,0,1-4,6.58Zm3.24-8a23.58,23.58,0,0,0-2.94-3.33l1.15-1a18.92,18.92,0,0,1,3,3.26Zm1.09-5.1a22.46,22.46,0,0,0-2.85-3.37l1.12-1a18.45,18.45,0,0,1,2.94,3.23Zm7.59,6.3,0,0a45.82,45.82,0,0,1-3.31,6.06l-.09.17h1.5c1.51,0,3.81-.1,5.62-.22-.55-1.09-1.2-2.24-1.9-3.36l1.33-.62a37.49,37.49,0,0,1,3.55,6.4l-1.5.81c-.4-1-.57-1.4-.87-2l-.21,0c-2.27.28-7.08.58-10.41.63l-.42-1.64.81,0h.8a46.45,46.45,0,0,0,3.45-6.5l-5.09-.36.1-1.35,6.16.43.28-4.08-5.07-.36.1-1.39,5.07.36.23-3.26,1.57.11-.22,3.26,5.37.37-.1,1.4L291,329.8l-.29,4.08,6.43.45-.1,1.35-7.35-.51Z"/><path d="M310.25,327.8l-.76,10.92,3.13.22-.11,1.56-3.13-.22-.28,4-1.78-.13.28-4-8.32-.58.11-1.53,8.64-10.4Zm-2.13,5c.06-.93.21-2.5.34-3.48h-.08a23.32,23.32,0,0,1-1.65,2.46l-5.28,6.41,6.26.44Z"/><path d="M316.79,343.19c.68-2.12,2.61-4.16,5.46-5.79l.55-.3c3-1.64,3.77-2.48,3.87-4,.11-1.66-1.18-2.87-3.26-3a5,5,0,0,0-4.33,1.87l-1.2-1.16a6.51,6.51,0,0,1,5.72-2.32c3.15.22,5.33,2.24,5.15,4.8-.15,2-1,2.94-4.78,5l-.76.41c-2.51,1.41-4.15,3-4.43,4.48l9.47.66-.12,1.72-11.45-.8Z"/><path d="M342.07,348l-1.55-.11.45-6.47a19.68,19.68,0,0,1-8.25,5.11l-.84-1.36a19.91,19.91,0,0,0,7.81-4.22l-7.4-.52.1-1.35,8.7.61.16-2.21,1.55.11-.15,2.2,8.85.62-.1,1.36-7.47-.53a21.17,21.17,0,0,0,7.29,4.82l-1.09,1.34a20.38,20.38,0,0,1-7.59-6Zm6.69-16.91a18.84,18.84,0,0,1-4.94,3.89,27.66,27.66,0,0,0,7.51,2.93l-.93,1.31a31.71,31.71,0,0,1-8-3.46,28.5,28.5,0,0,1-8.68,2.5l-.72-1.31a26.79,26.79,0,0,0,8.21-2.09,25.15,25.15,0,0,1-2.69-2.74,16.85,16.85,0,0,1-3.67,1.91l-.92-1.12a13.84,13.84,0,0,0,6.38-4.4l1.52.41c-.34.44-.43.52-.74.88l6.91.48Zm-8.84-.11c-.16.15-.22.18-.35.3a15.73,15.73,0,0,0,3,2.87,18.88,18.88,0,0,0,3.82-2.72Z"/><path d="M360,333.14a25.66,25.66,0,0,1-4,.92l-.3-1.49a19.45,19.45,0,0,0,5-1.45l1.32.09-1.17,16.66-1.82-.12Z"/><path d="M371.94,343.64l.12,0,.09,0a23.5,23.5,0,0,0,2.34-.71l.06,1.45a55.59,55.59,0,0,1-6.69,1.93l-.46-1.6c1.16-.22,1.32-.25,2.43-.5l.5-.11.66-9.49-2.62-.18.1-1.44,6.4.45-.1,1.43-2.2-.15ZM373,349a12.14,12.14,0,0,0,4.44-2.49l1.17.92a15,15,0,0,1-4.58,2.82Zm12.7-13L385,346.82l-9.69-.68.75-10.76,3.15.22a18.5,18.5,0,0,0,.69-2l-5.05-.36.09-1.33,12.48.87-.09,1.34-5.86-.41a16.79,16.79,0,0,1-.83,2ZM376.84,345l6.68.46.15-2.08-6.69-.46Zm.22-3.25,6.69.46.13-1.88-6.68-.46Zm.36-5-.14,1.95,6.68.47.14-2ZM385,351a26.92,26.92,0,0,0-3.82-3.32l1.17-.81a27.48,27.48,0,0,1,3.93,3.08Z"/><path d="M401.8,334.3l-.11,1.64L394,335.4l-1,5.69h.08a5.42,5.42,0,0,1,3.87-1.11,5.06,5.06,0,0,1,5.05,5.55c-.22,3.21-2.83,5.32-6.28,5.08a8.24,8.24,0,0,1-5.46-2.33l1.2-1.22A7.09,7.09,0,0,0,395.8,349,3.78,3.78,0,0,0,400,345.4a3.47,3.47,0,0,0-3.48-3.92,4.73,4.73,0,0,0-3.84,1.48l-1.67-.4,1.51-8.91Z"/><path d="M412,343.47a19.78,19.78,0,0,1-.8,1.94l11.35.79a19.28,19.28,0,0,1-1.47,5.7c-.59,1.1-1.26,1.38-3.07,1.25-1.08-.07-2.51-.24-3.49-.39l-.26-1.56c1.39.22,2.74.4,3.71.47s1.32-.07,1.65-.7a19.34,19.34,0,0,0,1-3.52l-10.08-.71c-.3.55-.63,1.12-1,1.66l-1.6-.58a28.31,28.31,0,0,0,2.32-4.46l-4.51-.32.1-1.37L425.05,343l-.1,1.37ZM422.17,341,409,340l.4-5.74,13.19.92Zm-11.47-2.1,9.92.69.22-3.11-9.92-.69Z"/><path d="M431.34,350c1.52,1.75,3.36,2.5,6.75,2.76l7.94.56a7.75,7.75,0,0,0-.59,1.4l-7.67-.54c-3.53-.29-5.45-1.09-7.06-3a19.43,19.43,0,0,1-3.36,2.75l-.79-1.5a18.72,18.72,0,0,0,3.21-2.11l.38-5.41-3-.21.1-1.37,4.52.31Zm-.16-10.14a20.62,20.62,0,0,0-2.71-3.64l1.18-.86a20.36,20.36,0,0,1,2.79,3.51Zm2.05-.94.09-1.27,3.58.25a12.68,12.68,0,0,0-1.16-2l1.45-.44a14.69,14.69,0,0,1,1.28,2.58l2.63.19a22.06,22.06,0,0,0,1.29-2.45l1.56.51a14.8,14.8,0,0,1-1.3,2l3.78.27-.09,1.27-5.84-.41c-.12.34-.5,1.16-.74,1.64l5.07.35-.72,10.3L433.83,351l.72-10.3,3.72.26a12.8,12.8,0,0,0,.64-1.64Zm2.18,11,7.27.51.14-2-7.27-.51Zm.22-3.17,7.27.51.13-1.84-7.27-.5Zm.2-2.93,7.28.51.13-1.85L436,342Z"/><path d="M456.56,344.14,454,344l-.22,3.19,2.63.18-.1,1.33-2.62-.18-.3,4.22c.56-.1,2.12-.44,3.16-.69l.05,1.32a71.92,71.92,0,0,1-8.12,1.71l-.42-1.47,1.08-.15.55-7.88,1.38.1-.53,7.57.51-.08.49-.09.43-.07.64-9.11-2.95-.21.46-6.56,6.95.48Zm-5.42-1.7,4.08.28.27-3.89-4.08-.29Zm15.73-2.88a16.94,16.94,0,0,1-3.31,4.66,16.51,16.51,0,0,0,4.43,3.13l-.86,1.28a17.39,17.39,0,0,1-4.61-3.49,16.9,16.9,0,0,1-5.47,3l-.72-1.31a13.41,13.41,0,0,0,5.27-2.74,13.54,13.54,0,0,1-1.64-2.69l-.09.1,0,0a12.38,12.38,0,0,1-1.91,1.72L457,342.1a12.2,12.2,0,0,0,4.07-5.1l1.48.35c-.26.51-.33.67-.52,1l3.92.27Zm-1.28,17.06-1.47-.1.08-1.19-5.15-.36-.08,1.19-1.48-.1.56-8,8.1.56Zm-6.45-3,5.15.37.29-4.09-5.15-.36Zm1.64-13.3a13.07,13.07,0,0,0,1.81,2.85,13.42,13.42,0,0,0,2.42-3.26l-3.75-.26c-.09.13-.18.27-.39.56Z"/><path d="M603.66,178.46l-.5,1.22-5.73-2.37-2.24,4.09.06,0a4.36,4.36,0,0,1,3.24.15,4.08,4.08,0,0,1,2.45,5.53,4.43,4.43,0,0,1-6.1,2.27,6.65,6.65,0,0,1-3.58-3.17l1.23-.62a5.72,5.72,0,0,0,2.84,2.57,3.06,3.06,0,0,0,4.1-1.68,2.79,2.79,0,0,0-1.66-3.88,3.8,3.8,0,0,0-3.31.15l-1.18-.74,3.43-6.41Z"/><path d="M603.77,190.28l-.89,2.16-2.15-.9.89-2.15Z"/><path d="M619.06,184.83l-.42,1a42.78,42.78,0,0,0-8.72,9.51l-1.42-.59a51.78,51.78,0,0,1,8.48-9.38L611.1,183l-1.17,2.82-1.31-.54,1.67-4Z"/><path d="M619.4,192.21a3.89,3.89,0,0,1,4-.44,4.14,4.14,0,0,1,2.33,5.46,4.31,4.31,0,0,1-5.83,2.5,4.44,4.44,0,0,1-2.79-3.31,6.49,6.49,0,0,1,.5-4.1,8.43,8.43,0,0,1,3.79-3.92,10,10,0,0,1,5.62-1l.1,1.3c-3.53-.18-6.31,1.06-7.74,3.47Zm-.72,2.16a3.21,3.21,0,0,0,1.62,4.15,3,3,0,0,0,3.9-1.8,2.84,2.84,0,0,0-1.54-3.94A3.15,3.15,0,0,0,618.68,194.37Z"/><path d="M637.22,199.5c-1.62,3.92-4.35,5.61-7.14,4.46s-3.52-4.3-1.91-8.21,4.36-5.61,7.16-4.45S638.83,195.59,637.22,199.5Zm-7.57-3.13c-1.31,3.16-1,5.6.94,6.39s3.84-.71,5.15-3.87,1-5.62-.93-6.41S631,193.2,629.65,196.37Z"/><path d="M178.53,337.13l7,.58.17-2,1,.08-.17,2,2.55.21-.09,1.14-2.56-.21-.44,5.34-1-.08-6.61-5.64Zm3.18,1.41c-.59-.05-1.6-.16-2.23-.25v0a14.44,14.44,0,0,1,1.57,1.08l4.07,3.44.34-4Z"/><path d="M187.63,333.12l1.85.15-.15,1.86-1.85-.16Z"/><path d="M185,323.38c3.37.28,5.32,1.94,5.12,4.34s-2.41,3.71-5.76,3.44-5.32-2-5.12-4.36S181.67,323.1,185,323.38Zm-.54,6.51c2.72.22,4.49-.64,4.62-2.27s-1.46-2.74-4.18-3-4.5.63-4.64,2.27S181.76,329.66,184.48,329.89Z"/><path d="M185.76,314.44c3.37.28,5.32,1.95,5.12,4.34s-2.41,3.71-5.76,3.44-5.32-2-5.12-4.36S182.41,314.16,185.76,314.44Zm-.54,6.51c2.72.22,4.49-.64,4.63-2.27s-1.47-2.74-4.19-3-4.5.63-4.64,2.27S182.5,320.72,185.22,321Z"/><path d="M186.51,305.5c3.36.28,5.31,1.94,5.11,4.34s-2.4,3.72-5.76,3.44-5.32-1.95-5.12-4.35S183.15,305.22,186.51,305.5ZM186,312c2.72.22,4.48-.63,4.62-2.27s-1.47-2.74-4.19-3-4.5.63-4.64,2.27S183.25,311.78,186,312Z"/><rect class="繧ｰ繝ｩ繝輔ぅ繝け繧ｹ繧ｿ繧､繝ｫ-4" x="507.7" y="206.04" width="24.73" height="4.12" transform="translate(728.16 -311.97) rotate(90)"/><rect class="繧ｰ繝ｩ繝輔ぅ繝け繧ｹ繧ｿ繧､繝ｫ-4" x="511.81" y="206.04" width="24.73" height="4.12" transform="translate(732.27 -316.08) rotate(90)"/><rect class="繧ｰ繝ｩ繝輔ぅ繝け繧ｹ繧ｿ繧､繝ｫ-4" x="499.61" y="202.06" width="24.73" height="12.06" transform="translate(720.07 -303.88) rotate(90)"/><polygon points="506.95 207.76 514.03 212.62 514.03 202.91 506.95 207.76"/><polyline class="cls-2" points="234.16 102.85 234.16 91.11 241.06 102.85 241.06 91.11"/><circle class="cls-3" cx="229.62" cy="133.15" r="24.35"/><polygon points="226.74 146.5 236.38 155.77 234.63 109.93 214.14 150.97 226.74 146.5"/><rect class="cls-4" x="105.66" y="76.54" width="39.3" height="95.53" transform="translate(1 249.62) rotate(-90)"/><path class="cls-1" d="M94.78,130.15h15.55v2.09H94.78v1.41H92.45V115.1h17.34v2h-15Zm.68-2.34a19.19,19.19,0,0,0,5.41-4A51.44,51.44,0,0,0,96,120.26l1.41-1.58a58.79,58.79,0,0,1,4.85,3.4,26.2,26.2,0,0,0,2.7-4.43l2.09,1a30,30,0,0,1-3,4.85c1.16,1,2.69,2.33,4.25,3.8L106.7,129c-1.35-1.35-2.86-2.74-4.08-3.79a21.23,21.23,0,0,1-5.77,4.35Z"/><path class="cls-1" d="M123.94,116.92h-8.69v-1.87H135v1.87h-8.81v2h4.43v10.35h-11V118.91h4.33Zm8.21,13.69v-11.7h2.12v14.74h-2.12v-1.14H118v1.14h-2.1V118.91H118v11.7Zm-10.57-10v2.51H124v-2.51Zm0,4.11v2.8H124v-2.8Zm4.47-1.6h2.56v-2.51h-2.56Zm0,4.4h2.56v-2.8h-2.56Z"/><path class="cls-1" d="M158.14,133.65h-2.26V132.6H142.44v1.05H140.2V114.91h17.94Zm-15.7-3h13.44V116.8H142.44Zm11.51-.89c-1.3-.81-2.84-1.68-4.23-2.39a17.54,17.54,0,0,1-5.37,3l-1.28-1.56a13.55,13.55,0,0,0,4.66-2.44l-.54-.25c-1.35-.67-2.34-1.1-4.1-1.83l.93-1.53a55.92,55.92,0,0,1,5.29,2.18,17.5,17.5,0,0,0,3.85-7l2,.62a23.43,23.43,0,0,1-3.94,7.34l.19.1c1,.52,2.18,1.14,3.75,2.08ZM145.22,123a19.26,19.26,0,0,0-1.66-4.07l1.91-.77a21.25,21.25,0,0,1,1.72,4Zm3.57-.81a24.05,24.05,0,0,0-1.68-4.09l1.82-.72a18.48,18.48,0,0,1,1.72,4Z"/><line class="cls-5" x1="577.3" y1="191.28" x2="37.72" y2="191.28"/><polygon class="cls-6" points="64.66 292.85 67.71 191.28 206.34 191.28 199.23 302.49 64.66 292.85"/><polygon class="cls-6" points="322.29 312.48 331.43 191.28 206.34 191.28 199.23 302.49 322.29 312.48"/><polygon class="cls-6" points="436.04 320.27 445.85 191.28 331.43 191.28 322.29 312.48 436.04 320.27"/><polygon class="cls-6" points="521.01 326.36 575.85 191.28 445.85 191.28 436.04 320.27 521.01 326.36"/><line class="cls-7" x1="605.3" y1="113.42" x2="575.85" y2="191.28"/><line class="cls-7" x1="669.46" y1="140" x2="561.8" y2="413.19"/><polyline class="cls-7" points="99.19 366.48 99.19 352.26 106.3 345.15 505.94 373.59 499.34 392.37"/><polyline class="cls-8" points="203.63 309.35 199.23 302.49 196.85 351.59 190.27 344.73"/><polygon class="cls-9" points="77.53 275.43 80.24 197.04 191.58 202.12 189.26 243.14 104.95 240.71 103.93 276.64 77.53 275.43"/><polygon class="cls-9" points="212.94 197.04 207.69 271.25 289.67 277.6 292.67 223.44 315.53 225.14 316.84 204.32 212.94 197.04"/><polygon class="cls-9" points="333.46 280.98 338.8 200.65 436.04 204.8 432.51 236.69 387.63 232.24 377.47 284.89 333.46 280.98"/><path class="cls-1" d="M177.88,251.13a32.29,32.29,0,0,1,8.1,0c3.11.42,5.43,3.77,5.27,6.83q-.72,15,0,30.07c.16,2.91-2,6.08-5,6.5a32.2,32.2,0,0,1-8.66,0c-2.95-.42-5.16-3.59-5-6.5q.74-15,0-30.07C172.45,254.9,174.77,251.55,177.88,251.13Z"/><path class="cls-10" d="M181.93,250.77A32.42,32.42,0,0,1,186,251c3,.41,5.54,3.65,5.36,7-.47,10-.47,20.08,0,30a6.45,6.45,0,0,1-5.08,6.62,32.49,32.49,0,0,1-8.7,0c-2.88-.41-5.26-3.5-5.09-6.62.49-10,.49-20.08,0-30.06-.18-3.29,2.32-6.53,5.36-6.94h0A32.42,32.42,0,0,1,181.93,250.77Zm0,43.94a31.25,31.25,0,0,0,4.32-.29c2.78-.39,5.07-3.38,4.91-6.39-.49-10-.49-20.1,0-30.08.18-3.18-2.24-6.32-5.17-6.71a32.13,32.13,0,0,0-8.08,0c-2.93.39-5.35,3.53-5.17,6.71.47,10,.47,20.1,0,30.08-.16,3,2.13,6,4.91,6.39A31.25,31.25,0,0,0,181.93,294.71Z"/><path class="cls-11" d="M175.47,256.77h12.92l-.06-.48H175.52C175.5,256.45,175.49,256.61,175.47,256.77Z"/><path class="cls-10" d="M174.16,261.69l.11.41A43.38,43.38,0,0,1,175.51,273c0,.45,0,.91,0,1.37v0l-2,4.9V279c0-1.14,0-2.27,0-3.35,0-4.64.21-9.18.63-13.5Zm1.18,12.7c0-.45,0-.91,0-1.35a44.6,44.6,0,0,0-1.12-10.47c-.39,4.18-.59,8.57-.59,13,0,1,0,1.95,0,3Z"/><path class="cls-10" d="M189.7,261.69l.05.42c.42,4.32.63,8.86.63,13.5,0,1.07,0,2.2,0,3.35v.38l-2-4.93c0-.46,0-.92,0-1.37a43.38,43.38,0,0,1,1.24-10.94Zm.49,16.88c0-1,0-2,0-3,0-4.47-.2-8.86-.59-13A44.08,44.08,0,0,0,188.51,273c0,.44,0,.9,0,1.35Z"/><path class="cls-1" d="M173.66,280.28v7.21a7.51,7.51,0,0,0,7.23,7.7H183a7.5,7.5,0,0,0,7.22-7.7v-7.21a35,35,0,0,1-16.53,0Z"/><path d="M173.59,280.18l.09,0a33.6,33.6,0,0,0,8.25,1H182a34.21,34.21,0,0,0,8.14-1l.09,0v7.31a7.56,7.56,0,0,1-7.3,7.78h-2.08a7.56,7.56,0,0,1-7.3-7.78ZM183,295.1a7.4,7.4,0,0,0,7.15-7.61v-7.1a34.73,34.73,0,0,1-8.08,1h-.22a34.73,34.73,0,0,1-8.08-1v7.1a7.4,7.4,0,0,0,7.15,7.61Z"/><path class="cls-1" d="M176,263.4a37.37,37.37,0,0,0,11.94,0,19.63,19.63,0,0,0,.51-6.64h-13A19.63,19.63,0,0,0,176,263.4Z"/><path d="M175.38,256.68h13.1v.08a19.77,19.77,0,0,1-.51,6.66l0,.06h-.05a37.49,37.49,0,0,1-12,0h-.06v-.06a19.77,19.77,0,0,1-.51-6.66Zm13,.17H175.52a19.48,19.48,0,0,0,.5,6.48,37.79,37.79,0,0,0,11.82,0A19.48,19.48,0,0,0,188.34,256.85Z"/><path class="cls-11" d="M175.45,256.76h13c0-.16,0-.32,0-.48H175.5C175.48,256.44,175.46,256.6,175.45,256.76Z"/><path class="cls-1" d="M188.36,256.28v-3.46a14.71,14.71,0,0,0-12.86,0v3.46Z"/><path d="M181.93,251.26a13.42,13.42,0,0,1,6.47,1.49l0,0v3.6h-13v-3.6l0,0A13.42,13.42,0,0,1,181.93,251.26Zm6.35,1.61a14.72,14.72,0,0,0-12.7,0v3.33h12.7Z"/><path class="cls-11" d="M173.72,280.33l-.16.46a29.61,29.61,0,0,0,16.74,0l-.16-.46A29.76,29.76,0,0,1,173.72,280.33Z"/><path class="cls-1" d="M189.91,280.35l-2-5.85H176l-2,5.85A28.86,28.86,0,0,0,189.91,280.35Z"/><path d="M175.9,274.42H188l2,6-.08,0a28.82,28.82,0,0,1-16,0l-.08,0Zm11.95.17H176l-2,5.7a28.71,28.71,0,0,0,15.76,0Z"/><path class="cls-10" d="M175.52,252.83h-.08a1.83,1.83,0,0,0-1.77,1.88v.14A4.44,4.44,0,0,1,175.52,252.83Z"/><path class="cls-10" d="M188.33,252.83h.09a1.82,1.82,0,0,1,1.76,1.88v.14A4.33,4.33,0,0,0,188.33,252.83Z"/><path class="cls-1" d="M171.47,275.71a.82.82,0,0,0,.12.68l1.44,1.32s.05,0,.08,0v-1.23l-1.61-1Z"/><path class="cls-10" d="M171.45,275.43l1.74,1v1.38l-.1,0s-.07,0-.11-.06l-1.44-1.32a.89.89,0,0,1-.15-.76Zm1.58,1.14-1.48-.89v.05a.73.73,0,0,0,.1.59L173,277.6Z"/><path class="cls-1" d="M192.39,275.71a.82.82,0,0,1-.12.68l-1.44,1.32s-.05,0-.08,0v-1.23l1.61-1Z"/><path class="cls-10" d="M192.41,275.43l.06.26a.89.89,0,0,1-.15.76l-1.44,1.32a.24.24,0,0,1-.11.06l-.1,0v-1.38Zm-1.58,2.17,1.39-1.28a.73.73,0,0,0,.1-.59v-.05l-1.48.89Z"/><path class="cls-10" d="M177.68,284.73a16.31,16.31,0,0,0,1.15,6.61,18.41,18.41,0,0,1-.84-5.85,23.71,23.71,0,0,1,.21-3.16h-.4A23,23,0,0,0,177.68,284.73Z"/><path class="cls-10" d="M186.18,284.73a16.12,16.12,0,0,1-1.16,6.61,18.11,18.11,0,0,0,.85-5.85,22.08,22.08,0,0,0-.22-3.16h.41A23,23,0,0,1,186.18,284.73Z"/><rect class="cls-1" x="175.96" y="263.4" width="11.94" height="11.11" transform="translate(363.86 537.9) rotate(180)"/><path d="M175.88,263.32H188v11.27h-12.1Zm11.94.16H176v10.94h11.78Z"/><path class="cls-1" d="M303.14,256.68a32.29,32.29,0,0,1,8.1,0c3.11.41,5.43,3.76,5.26,6.83q-.71,15,0,30.06c.16,2.91-2,6.09-5,6.51a32.2,32.2,0,0,1-8.66,0c-3-.42-5.16-3.6-5-6.51q.72-15,0-30.06C297.7,260.44,300,257.09,303.14,256.68Z"/><path class="cls-10" d="M307.19,256.31a32.55,32.55,0,0,1,4.06.26c3,.4,5.54,3.65,5.36,6.94-.48,10-.47,20.08,0,30.06.17,3.12-2.2,6.21-5.09,6.62a32.42,32.42,0,0,1-8.69,0c-2.88-.41-5.26-3.5-5.09-6.62.49-10,.49-20.09,0-30.06-.18-3.29,2.32-6.54,5.36-6.94h0A32.31,32.31,0,0,1,307.19,256.31Zm0,43.95a33,33,0,0,0,4.32-.29,6.23,6.23,0,0,0,4.9-6.39c-.48-10-.49-20.1,0-30.08.17-3.18-2.24-6.32-5.18-6.71a32.05,32.05,0,0,0-8.07,0c-2.93.39-5.35,3.53-5.17,6.71.47,10,.47,20.1,0,30.08a6.24,6.24,0,0,0,4.91,6.39A32.77,32.77,0,0,0,307.19,300.26Z"/><path class="cls-11" d="M300.73,262.32h12.92l-.06-.49H300.78C300.76,262,300.74,262.16,300.73,262.32Z"/><path class="cls-10" d="M299.41,267.23l.12.41a43.46,43.46,0,0,1,1.24,10.95c0,.45,0,.91,0,1.37v0l-1.95,4.9v-.39c0-1.14,0-2.26,0-3.35,0-4.63.21-9.17.63-13.49Zm1.18,12.71c0-.46,0-.91,0-1.35a44.69,44.69,0,0,0-1.12-10.48c-.4,4.19-.6,8.57-.6,13,0,1,0,2,0,3Z"/><path class="cls-10" d="M315,267.23l0,.43c.42,4.32.64,8.86.64,13.49,0,1.08,0,2.21,0,3.35v.39l-2-4.93c0-.46,0-.92,0-1.37a43.46,43.46,0,0,1,1.24-10.95Zm.49,16.88c0-1,0-2,0-3,0-4.47-.2-8.85-.59-13a44.13,44.13,0,0,0-1.13,10.48c0,.44,0,.89,0,1.35Z"/><path class="cls-1" d="M298.92,285.83V293a7.49,7.49,0,0,0,7.23,7.69h2.08a7.49,7.49,0,0,0,7.22-7.69v-7.21a35,35,0,0,1-16.53,0Z"/><path d="M298.84,285.72l.1,0a34.09,34.09,0,0,0,8.25,1h.11a34.06,34.06,0,0,0,8.13-1l.1,0V293a7.56,7.56,0,0,1-7.3,7.78h-2.08a7.56,7.56,0,0,1-7.31-7.78Zm9.39,14.93a7.39,7.39,0,0,0,7.14-7.61v-7.11a34.13,34.13,0,0,1-8.07,1,.81.81,0,0,0-.22,0,34.21,34.21,0,0,1-8.08-1V293a7.4,7.4,0,0,0,7.15,7.61Z"/><path class="cls-1" d="M301.22,269a37.37,37.37,0,0,0,11.94,0,19.65,19.65,0,0,0,.51-6.64h-13A19.4,19.4,0,0,0,301.22,269Z"/><path d="M300.64,262.23h13.1v.07a19.83,19.83,0,0,1-.51,6.67l0,0h-.05a37.55,37.55,0,0,1-12,0h-.05v0a19.81,19.81,0,0,1-.51-6.67Zm13,.16H300.78a19.46,19.46,0,0,0,.5,6.48,37.2,37.2,0,0,0,11.82,0A19.75,19.75,0,0,0,313.6,262.39Z"/><path class="cls-11" d="M300.71,262.31h13c0-.16,0-.32-.05-.48H300.76C300.74,262,300.72,262.15,300.71,262.31Z"/><path class="cls-1" d="M313.62,261.83v-3.46a14.71,14.71,0,0,0-12.86,0v3.46Z"/><path d="M307.19,256.81a13.38,13.38,0,0,1,6.46,1.49l0,0v3.59h-13v-3.59l0,0A13.42,13.42,0,0,1,307.19,256.81Zm6.35,1.61a14.63,14.63,0,0,0-12.7,0v3.33h12.7Z"/><path class="cls-11" d="M299,285.87l-.16.47a29.61,29.61,0,0,0,16.74,0l-.16-.47A29.57,29.57,0,0,1,299,285.87Z"/><path class="cls-1" d="M315.17,285.9l-2-5.85H301.22l-2,5.85A28.86,28.86,0,0,0,315.17,285.9Z"/><path d="M301.16,280h12l2.06,6-.08,0a29,29,0,0,1-16,0l-.09,0Zm11.94.16H301.27l-2,5.71a28.71,28.71,0,0,0,15.76,0Z"/><path class="cls-10" d="M300.78,258.37h-.08a1.84,1.84,0,0,0-1.77,1.88v.14A4.49,4.49,0,0,1,300.78,258.37Z"/><path class="cls-10" d="M313.59,258.37h.08a1.83,1.83,0,0,1,1.77,1.88v.14A4.38,4.38,0,0,0,313.59,258.37Z"/><path class="cls-1" d="M296.72,281.26a.79.79,0,0,0,.13.67l1.44,1.33.08,0v-1.24l-1.61-1Z"/><path class="cls-10" d="M296.71,281l1.74,1v1.39l-.1,0a.24.24,0,0,1-.11-.06L296.8,282a.86.86,0,0,1-.15-.76Zm1.58,1.13-1.48-.88v0a.74.74,0,0,0,.1.59l1.39,1.27Z"/><path class="cls-1" d="M317.65,281.26a.79.79,0,0,1-.12.67l-1.45,1.33-.07,0v-1.24l1.61-1Z"/><path class="cls-10" d="M317.67,281l.06.26a.92.92,0,0,1-.15.76l-1.45,1.32a.24.24,0,0,1-.11.06l-.09,0V282Zm-1.58,2.16,1.38-1.27a.67.67,0,0,0,.1-.59v0l-1.47.88Z"/><path class="cls-10" d="M302.93,290.28a16.12,16.12,0,0,0,1.16,6.61,18.24,18.24,0,0,1-.84-5.86,23.94,23.94,0,0,1,.21-3.16h-.41C303,288.63,302.93,289.44,302.93,290.28Z"/><path class="cls-10" d="M311.44,290.28a16.12,16.12,0,0,1-1.16,6.61,18.22,18.22,0,0,0,.85-5.86,22.29,22.29,0,0,0-.22-3.16h.41A23.14,23.14,0,0,1,311.44,290.28Z"/><rect class="cls-1" x="301.22" y="268.95" width="11.94" height="11.11" transform="translate(614.37 549) rotate(180)"/><path d="M301.14,268.86h12.1v11.27h-12.1Zm11.94.17H301.29V280h11.79Z"/><path class="cls-1" d="M222,292.47a32.2,32.2,0,0,1,.63-8.07c.66-3.07,4.18-5.12,7.22-4.72q14.94,1.89,30,2.33c2.91.07,5.91,2.52,6.1,5.49a32.56,32.56,0,0,1-.68,8.64c-.65,2.91-4,4.86-6.88,4.48q-14.92-1.9-30-2.36C225.28,298.19,222.12,295.61,222,292.47Z"/><path class="cls-10" d="M221.9,288.41a34.28,34.28,0,0,1,.57-4c.64-3,4.08-5.24,7.35-4.8,9.9,1.25,20,2,30,2.33A6.48,6.48,0,0,1,266,287.5a32.71,32.71,0,0,1-.68,8.66c-.63,2.85-3.9,5-7,4.56-9.9-1.26-20-2.05-30-2.36-3.3-.07-6.34-2.82-6.51-5.88h0A34.52,34.52,0,0,1,221.9,288.41Zm43.82,3.43a32.94,32.94,0,0,0,0-4.33,6.24,6.24,0,0,0-6-5.39c-10-.3-20.08-1.08-30-2.33-3.16-.43-6.48,1.74-7.1,4.63a33,33,0,0,0-.63,8.05c.16,2.95,3.1,5.61,6.29,5.68,10,.31,20.08,1.1,30,2.36a6.23,6.23,0,0,0,6.75-4.39A32.72,32.72,0,0,0,265.72,291.84Z"/><path class="cls-11" d="M227.39,295.32l1-12.88h-.48l-1,12.78Z"/><path class="cls-10" d="M232.19,297l.41-.08a43.53,43.53,0,0,1,11-.38c.45,0,.91.07,1.36.12h0l4.74,2.33-.39,0c-1.13-.06-2.26-.14-3.34-.22-4.62-.36-9.13-.93-13.4-1.68Zm12.75-.19-1.34-.12a44.56,44.56,0,0,0-10.53.31c4.14.72,8.5,1.26,13,1.6,1,.08,1.95.15,3,.2Z"/><path class="cls-10" d="M233.4,281.51h.42c4.35-.08,8.89.06,13.51.42l3.33.3.39,0L246,283.84l-1.37-.09a43.61,43.61,0,0,1-10.81-2.1Zm16.86.83c-1-.1-2-.19-2.94-.26-4.46-.35-8.85-.49-13-.43a44.39,44.39,0,0,0,10.35,1.94l1.35.09Z"/><path class="cls-1" d="M250.69,299l7.18.56a7.5,7.5,0,0,0,8.24-6.6l.16-2.07a7.5,7.5,0,0,0-7.11-7.81l-7.18-.56A35.06,35.06,0,0,1,250.69,299Z"/><path d="M250.58,299l0-.09a34.36,34.36,0,0,0,1.63-8.15v-.11a34.17,34.17,0,0,0-.36-8.19v-.1l7.29.57a7.57,7.57,0,0,1,7.19,7.89l-.17,2.07a7.56,7.56,0,0,1-8.32,6.68Zm15.61-8.19a7.4,7.4,0,0,0-7-7.72l-7.09-.55a34.15,34.15,0,0,1,.34,8.13c0,.07,0,.14,0,.21a34.45,34.45,0,0,1-1.6,8l7.08.55A7.4,7.4,0,0,0,266,292.9Z"/><path class="cls-1" d="M234,295.35a37.87,37.87,0,0,0,.93-11.91,19.62,19.62,0,0,0-6.58-1l-1,12.92A19.59,19.59,0,0,0,234,295.35Z"/><path d="M227.29,295.4l1-13.06h.08a19.71,19.71,0,0,1,6.6,1h.06v.06a37.73,37.73,0,0,1-.93,11.93v.05h-.06a20,20,0,0,1-6.69,0Zm1.18-12.91-1,12.78a19.43,19.43,0,0,0,6.5,0,37.35,37.35,0,0,0,.92-11.78A19.41,19.41,0,0,0,228.47,282.49Z"/><path class="cls-11" d="M227.38,295.34l1-12.92h-.48l-1,12.82Z"/><path class="cls-1" d="M227.91,282.43l-3.45-.27a14.71,14.71,0,0,0-1,12.82l3.45.27Z"/><path d="M222.4,288.45a13.34,13.34,0,0,1,2-6.33l0,0,3.58.28-1,13-3.58-.28,0,0A13.4,13.4,0,0,1,222.4,288.45Zm2.1-6.21a14.63,14.63,0,0,0-1,12.66l3.32.26,1-12.66Z"/><path class="cls-11" d="M250.74,298.9l.45.2a29.65,29.65,0,0,0,1.3-16.7l-.47.13A29.76,29.76,0,0,1,250.74,298.9Z"/><path class="cls-1" d="M252,282.76l-6,1.55-.94,11.9,5.68,2.46A28.86,28.86,0,0,0,252,282.76Z"/><path d="M245,296.26l.94-12,6.13-1.59v.09a28.83,28.83,0,0,1-1.24,15.95l0,.08Zm1.09-11.89-.92,11.8,5.54,2.4A28.82,28.82,0,0,0,252,282.86Z"/><path class="cls-10" d="M223.46,295V295a1.84,1.84,0,0,0,1.74,1.91h.14A4.4,4.4,0,0,1,223.46,295Z"/><path class="cls-10" d="M224.46,282.18v-.08a1.84,1.84,0,0,1,2-1.61h.14A4.43,4.43,0,0,0,224.46,282.18Z"/><path class="cls-1" d="M246,300.79a.8.8,0,0,0,.68-.08l1.43-1.33a.15.15,0,0,0,.05-.07l-1.23-.1-1.08,1.53Z"/><path class="cls-10" d="M245.68,300.78l1.17-1.65,1.38.11,0,.09a.23.23,0,0,1-.07.11l-1.43,1.33a.86.86,0,0,1-.77.09Zm1.25-1.49-1,1.41h0a.76.76,0,0,0,.6,0l1.38-1.29Z"/><path class="cls-1" d="M247.59,279.92a.82.82,0,0,1,.66.18l1.21,1.54a.3.3,0,0,1,0,.08l-1.24-.1-.83-1.67Z"/><path class="cls-10" d="M247.31,279.88l.27,0a.87.87,0,0,1,.74.2l1.21,1.55a.22.22,0,0,1,.05.11v.1l-1.38-.11Zm2,1.75-1.17-1.48a.71.71,0,0,0-.58-.15h0l.76,1.54Z"/><path class="cls-10" d="M255.44,295.3a16.31,16.31,0,0,0,6.67-.64,18.34,18.34,0,0,1-5.9.38,21.76,21.76,0,0,1-3.13-.46l0,.41A23.9,23.9,0,0,0,255.44,295.3Z"/><path class="cls-10" d="M256.1,286.82a15.89,15.89,0,0,1,6.49,1.67,18.05,18.05,0,0,0-5.76-1.3,22.54,22.54,0,0,0-3.17,0l0-.41A22.11,22.11,0,0,1,256.1,286.82Z"/><rect class="cls-1" x="234.06" y="284.27" width="11.94" height="11.11" transform="translate(547.69 73.12) rotate(94.47)"/><path d="M233.94,295.42l.95-12.06,11.24.87-.95,12.07Zm1.1-11.89-.92,11.75,10.91.85.92-11.75Z"/><path class="cls-1" d="M339,301.55a32.12,32.12,0,0,1,.63-8.07c.65-3.07,4.18-5.13,7.22-4.72q14.93,1.89,30,2.33c2.92.07,5.91,2.52,6.1,5.49a32.56,32.56,0,0,1-.67,8.64c-.65,2.91-4,4.86-6.88,4.47q-14.94-1.89-30-2.35C342.28,307.27,339.12,304.68,339,301.55Z"/><path class="cls-10" d="M338.9,297.49a30.3,30.3,0,0,1,.57-4c.64-3,4.07-5.24,7.34-4.8,9.9,1.25,20,2,30,2.33,3.12.07,6,2.68,6.2,5.59a32.71,32.71,0,0,1-.68,8.66c-.63,2.84-3.9,5-7,4.56-9.9-1.26-20-2.06-30-2.36-3.3-.08-6.34-2.83-6.51-5.88h0A32.49,32.49,0,0,1,338.9,297.49Zm43.81,3.42a32.91,32.91,0,0,0,.05-4.33,6.25,6.25,0,0,0-6-5.39c-10-.29-20.08-1.07-30-2.33-3.16-.42-6.47,1.75-7.09,4.64a32,32,0,0,0-.63,8.05c.16,2.95,3.1,5.61,6.29,5.68,10,.31,20.07,1.1,30,2.36,3,.4,6.15-1.65,6.76-4.39A32.84,32.84,0,0,0,382.71,300.91Z"/><path class="cls-11" d="M344.38,304.39l1-12.87h-.49l-1,12.77Z"/><path class="cls-10" d="M349.18,306.09l.42-.08a43.38,43.38,0,0,1,11-.39l1.37.13h0l4.73,2.33-.38,0c-1.14-.06-2.26-.14-3.35-.22-4.61-.36-9.12-.93-13.4-1.69Zm12.76-.19-1.35-.12a44.05,44.05,0,0,0-10.53.31c4.14.71,8.5,1.25,13,1.6,1,.08,2,.14,3,.2Z"/><path class="cls-10" d="M350.39,290.59h.43c4.34-.08,8.88.06,13.5.42,1.07.08,2.2.18,3.34.3l.38,0L363,292.91c-.46,0-.92-.05-1.37-.09a43.18,43.18,0,0,1-10.81-2.09Zm16.87.83c-1-.1-2-.19-2.95-.26-4.46-.35-8.84-.5-13.05-.43a44.38,44.38,0,0,0,10.36,1.94l1.34.09Z"/><path class="cls-1" d="M367.68,308l7.19.56a7.49,7.49,0,0,0,8.23-6.6l.17-2.07a7.5,7.5,0,0,0-7.11-7.81l-7.19-.56A35.06,35.06,0,0,1,367.68,308Z"/><path d="M367.57,308.1l0-.1a33.79,33.79,0,0,0,1.63-8.14v-.11a34.68,34.68,0,0,0-.35-8.19l0-.1,7.29.57a7.57,7.57,0,0,1,7.19,7.89l-.16,2.07a7.57,7.57,0,0,1-8.33,6.68Zm15.61-8.19a7.39,7.39,0,0,0-7-7.72l-7.08-.55a34.62,34.62,0,0,1,.34,8.12,1.8,1.8,0,0,0,0,.22,34.55,34.55,0,0,1-1.6,8l7.09.55A7.39,7.39,0,0,0,383,302Z"/><path class="cls-1" d="M351,304.43a37.29,37.29,0,0,0,.93-11.91,19.81,19.81,0,0,0-6.58-1l-1,12.93A19.85,19.85,0,0,0,351,304.43Z"/><path d="M344.28,304.48l1-13.06h.07a19.75,19.75,0,0,1,6.61,1l.05,0v.05a37.39,37.39,0,0,1-.93,11.93v.05h-.05a19.52,19.52,0,0,1-6.69,0Zm1.18-12.91-1,12.78a19.43,19.43,0,0,0,6.5,0,37.37,37.37,0,0,0,.92-11.78A19.41,19.41,0,0,0,345.46,291.57Z"/><path class="cls-11" d="M344.37,304.42l1-12.93-.48,0-1,12.82Z"/><path class="cls-1" d="M344.9,291.51l-3.45-.27a14.66,14.66,0,0,0-1,12.82l3.45.27Z"/><path d="M339.39,297.53a13.42,13.42,0,0,1,2-6.33l0,0,3.58.28-1,13-3.58-.28,0,0A13.52,13.52,0,0,1,339.39,297.53Zm2.1-6.21a14.73,14.73,0,0,0-1,12.66l3.32.26,1-12.66Z"/><path class="cls-11" d="M367.73,308l.45.19a29.7,29.7,0,0,0,1.31-16.69l-.48.13A29.67,29.67,0,0,1,367.73,308Z"/><path class="cls-1" d="M369,291.84l-6,1.54-.93,11.91,5.67,2.46A28.77,28.77,0,0,0,369,291.84Z"/><path d="M362,305.34l.94-12,6.13-1.58,0,.08a29,29,0,0,1-1.25,16l0,.08Zm1.1-11.89-.92,11.79,5.53,2.4a28.68,28.68,0,0,0,1.23-15.7Z"/><path class="cls-10" d="M340.45,304v.09a1.82,1.82,0,0,0,1.73,1.9l.14,0A4.53,4.53,0,0,1,340.45,304Z"/><path class="cls-10" d="M341.45,291.26v-.08a1.83,1.83,0,0,1,2-1.62l.14,0A4.38,4.38,0,0,0,341.45,291.26Z"/><path class="cls-1" d="M363,309.86a.76.76,0,0,0,.68-.07l1.44-1.33s0,0,0-.08l-1.23-.09-1.08,1.53Z"/><path class="cls-10" d="M362.67,309.86l1.17-1.65,1.38.1,0,.1a.36.36,0,0,1-.07.1l-1.44,1.34a.9.9,0,0,1-.76.09Zm1.26-1.49-1,1.4.05,0a.76.76,0,0,0,.6-.05l1.37-1.29Z"/><path class="cls-1" d="M364.58,289a.79.79,0,0,1,.67.18l1.2,1.54a.1.1,0,0,1,0,.08l-1.23-.1-.83-1.68Z"/><path class="cls-10" d="M364.31,289l.26,0a.86.86,0,0,1,.74.21l1.21,1.54a.21.21,0,0,1,.05.12l0,.09-1.39-.1Zm2,1.75-1.16-1.49a.73.73,0,0,0-.58-.14h-.05l.76,1.54Z"/><path class="cls-10" d="M372.43,304.38a16.36,16.36,0,0,0,6.68-.64,18.37,18.37,0,0,1-5.9.38,23.65,23.65,0,0,1-3.14-.46l0,.41A23.9,23.9,0,0,0,372.43,304.38Z"/><path class="cls-10" d="M373.09,295.89a16.32,16.32,0,0,1,6.5,1.67,18.42,18.42,0,0,0-5.77-1.29,22.6,22.6,0,0,0-3.17,0l0-.4C371.45,295.81,372.26,295.83,373.09,295.89Z"/><rect class="cls-1" x="351.06" y="293.35" width="11.94" height="11.11" transform="translate(682.86 -33.74) rotate(94.47)"/><path d="M350.94,304.5l.94-12.07,11.24.88-.94,12.07Zm1.1-11.9-.92,11.75,10.9.86.92-11.75Z"/><path class="cls-1" d="M420.52,259.53a32.2,32.2,0,0,1,8.07.63c3.07.65,5.12,4.18,4.72,7.22q-1.89,14.92-2.33,30c-.07,2.92-2.52,5.91-5.49,6.1a32.56,32.56,0,0,1-8.64-.67c-2.91-.65-4.86-4-4.48-6.88q1.9-14.92,2.36-30C414.8,262.86,417.38,259.7,420.52,259.53Z"/><path class="cls-10" d="M424.58,259.48a34.28,34.28,0,0,1,4,.57c3,.64,5.24,4.07,4.8,7.34-1.25,9.9-2,20-2.33,30-.07,3.12-2.68,6-5.59,6.2a32.3,32.3,0,0,1-8.66-.68c-2.85-.63-5-3.9-4.56-7,1.26-9.91,2.05-20,2.36-30,.07-3.3,2.82-6.34,5.88-6.5h0A30.69,30.69,0,0,1,424.58,259.48Zm-3.43,43.81a32.94,32.94,0,0,0,4.33,0,6.23,6.23,0,0,0,5.39-6c.3-10,1.08-20.08,2.33-30,.43-3.16-1.74-6.47-4.63-7.09a32,32,0,0,0-8.05-.63c-2.95.16-5.61,3.1-5.68,6.29-.31,10-1.1,20.07-2.36,30-.4,3,1.65,6.15,4.39,6.76A32.69,32.69,0,0,0,421.15,303.29Z"/><path class="cls-11" d="M417.67,265l12.88,1c0-.16,0-.32,0-.49l-12.78-1Z"/><path class="cls-10" d="M416,269.76l.08.42a43.42,43.42,0,0,1,.38,11c0,.45-.07.91-.12,1.37v0L414,287.31l0-.38c.06-1.14.14-2.26.22-3.34.36-4.62.93-9.13,1.68-13.41Zm.19,12.76.12-1.35a44.58,44.58,0,0,0-.31-10.53c-.72,4.14-1.26,8.5-1.6,13-.08,1-.15,1.95-.2,2.95Z"/><path class="cls-10" d="M431.48,271v.43c.08,4.34-.06,8.88-.42,13.5-.09,1.08-.19,2.2-.3,3.34l0,.38-1.58-5.07.09-1.36a43.6,43.6,0,0,1,2.1-10.82Zm-.83,16.87c.1-1,.19-2,.26-2.95.35-4.46.49-8.84.43-13.05a44.48,44.48,0,0,0-1.94,10.36l-.09,1.34Z"/><path class="cls-1" d="M414,288.26l-.56,7.19a7.5,7.5,0,0,0,6.6,8.24l2.07.16a7.5,7.5,0,0,0,7.81-7.11l.56-7.19A34.72,34.72,0,0,1,414,288.26Z"/><path d="M414,288.15l.09,0a33.39,33.39,0,0,0,8.15,1.63h.11a34.68,34.68,0,0,0,8.19-.35l.1,0-.57,7.29a7.57,7.57,0,0,1-7.89,7.19l-2.07-.16a7.57,7.57,0,0,1-6.68-8.33Zm8.19,15.61a7.39,7.39,0,0,0,7.72-7l.55-7.08a34.68,34.68,0,0,1-8.13.34l-.21,0a34.45,34.45,0,0,1-8-1.6l-.55,7.09a7.39,7.39,0,0,0,6.53,8.14Z"/><path class="cls-1" d="M417.64,271.61a37.29,37.29,0,0,0,11.91.93,19.54,19.54,0,0,0,1-6.58l-12.92-1A19.59,19.59,0,0,0,417.64,271.61Z"/><path d="M417.59,264.87l13.06,1V266a19.77,19.77,0,0,1-1,6.61v.05h-.06a37.73,37.73,0,0,1-11.93-.94h-.05v-.05a20,20,0,0,1,0-6.69ZM430.5,266l-12.78-1a19.43,19.43,0,0,0,0,6.5,37.35,37.35,0,0,0,11.78.92A19.41,19.41,0,0,0,430.5,266Z"/><path class="cls-11" d="M417.65,265l12.92,1c0-.16,0-.32,0-.48l-12.82-1Z"/><path class="cls-1" d="M430.56,265.48l.27-3.45A14.75,14.75,0,0,0,418,261l-.27,3.45Z"/><path d="M424.54,260a13.45,13.45,0,0,1,6.33,2l0,0-.28,3.58-13-1,.28-3.59,0,0A13.52,13.52,0,0,1,424.54,260Zm6.21,2.1a14.73,14.73,0,0,0-12.66-1l-.26,3.32,12.66,1Z"/><path class="cls-11" d="M414.09,288.31l-.2.45a29.74,29.74,0,0,0,16.7,1.31l-.13-.48A29.67,29.67,0,0,1,414.09,288.31Z"/><path class="cls-1" d="M430.23,289.6l-1.55-6-11.9-.93-2.46,5.67A28.77,28.77,0,0,0,430.23,289.6Z"/><path d="M416.73,282.59l12,.94,1.59,6.13-.09,0a28.92,28.92,0,0,1-15.95-1.25l-.08,0Zm11.89,1.1-11.8-.92-2.4,5.53a28.72,28.72,0,0,0,15.71,1.23Z"/><path class="cls-10" d="M418,261H418a1.82,1.82,0,0,0-1.91,1.73v.14A4.51,4.51,0,0,1,418,261Z"/><path class="cls-10" d="M430.8,262h.09a1.82,1.82,0,0,1,1.61,2v.14A4.39,4.39,0,0,0,430.8,262Z"/><path class="cls-1" d="M412.2,283.53a.82.82,0,0,0,.08.69l1.33,1.43.07.05.1-1.24-1.53-1.08Z"/><path class="cls-10" d="M412.21,283.25l1.65,1.17-.11,1.38-.09,0-.11-.07-1.33-1.44a.83.83,0,0,1-.09-.76Zm1.49,1.26-1.41-1v.05a.76.76,0,0,0,.05.6l1.29,1.38Z"/><path class="cls-1" d="M433.07,285.16a.86.86,0,0,1-.18.67L431.35,287a.13.13,0,0,1-.08,0l.1-1.23L433,285Z"/><path class="cls-10" d="M433.11,284.89l0,.26a.86.86,0,0,1-.2.74l-1.55,1.21a.16.16,0,0,1-.11,0l-.1,0,.11-1.39Zm-1.75,2,1.48-1.16a.72.72,0,0,0,.15-.58v-.05l-1.54.76Z"/><path class="cls-10" d="M417.69,293a16.36,16.36,0,0,0,.64,6.68,18.37,18.37,0,0,1-.38-5.9,21.76,21.76,0,0,1,.46-3.13l-.41,0C417.86,291.37,417.76,292.18,417.69,293Z"/><path class="cls-10" d="M426.17,293.67a16,16,0,0,1-1.67,6.5,18.12,18.12,0,0,0,1.3-5.77,22.4,22.4,0,0,0,0-3.16l.41,0A21.86,21.86,0,0,1,426.17,293.67Z"/><rect class="cls-1" x="417.19" y="272.06" width="11.94" height="11.11" transform="translate(823.4 587.36) rotate(-175.53)"/><path d="M417.57,271.52l12.06.94-.87,11.24-12.07-.94Zm11.89,1.1-11.75-.92-.85,10.9,11.75.92Z"/><path class="cls-1" d="M538.27,201a32.77,32.77,0,0,1,8.1.07c3.1.44,5.4,3.81,5.21,6.87q-.84,15-.23,30.07c.14,2.91-2.09,6.07-5.05,6.46a31.79,31.79,0,0,1-8.66-.07c-2.95-.44-5.13-3.63-4.95-6.54q.85-15,.26-30.07C532.8,204.71,535.16,201.38,538.27,201Z"/><path class="cls-10" d="M542.32,200.65a32.46,32.46,0,0,1,4.06.29c3,.43,5.51,3.7,5.3,7-.55,10-.63,20.08-.22,30,.14,3.12-2.26,6.2-5.15,6.58a32.42,32.42,0,0,1-8.69-.07c-2.88-.43-5.23-3.54-5-6.66.56-10,.65-20.08.25-30.05-.15-3.3,2.38-6.52,5.42-6.91h0A34.41,34.41,0,0,1,542.32,200.65ZM542,244.6a33,33,0,0,0,4.32-.26,6.25,6.25,0,0,0,5-6.35c-.41-10-.33-20.1.23-30.08.2-3.18-2.2-6.33-5.13-6.75a32.53,32.53,0,0,0-8.07-.07c-2.93.37-5.38,3.49-5.23,6.68.4,10,.31,20.1-.25,30.07-.19,3,2.07,6,4.85,6.43A31.18,31.18,0,0,0,542,244.6Z"/><path class="cls-11" d="M535.82,206.6l12.91.11c0-.16,0-.32-.05-.48l-12.81-.11C535.85,206.28,535.83,206.44,535.82,206.6Z"/><path class="cls-10" d="M534.46,211.51l.11.41a43.44,43.44,0,0,1,1.15,11c0,.46,0,.92,0,1.37v0l-2,4.89v-.39c0-1.13,0-2.26,0-3.34,0-4.64.29-9.18.74-13.5Zm1.08,12.71,0-1.35a44,44,0,0,0-1.05-10.48c-.42,4.18-.66,8.57-.69,13,0,1,0,1.95,0,3Z"/><path class="cls-10" d="M550,211.64l0,.42c.38,4.33.56,8.87.52,13.5,0,1.08,0,2.2-.07,3.35v.39l-1.92-5c0-.46,0-.92,0-1.37A44,44,0,0,1,549.89,212Zm.35,16.88c0-1,0-2,0-3,0-4.47-.12-8.86-.48-13.05A44.25,44.25,0,0,0,548.72,223v1.35Z"/><path class="cls-1" d="M533.82,230.1l-.06,7.21a7.51,7.51,0,0,0,7.17,7.76H543a7.49,7.49,0,0,0,7.29-7.63l.06-7.21a34.9,34.9,0,0,1-8.27.92A33.89,33.89,0,0,1,533.82,230.1Z"/><path d="M533.74,230l.1,0a34,34,0,0,0,8.24,1.06h.1a34.15,34.15,0,0,0,8.15-.93l.1,0-.06,7.32a7.57,7.57,0,0,1-7.37,7.72l-2.07,0a7.57,7.57,0,0,1-7.25-7.84ZM543,245a7.4,7.4,0,0,0,7.21-7.56l.06-7.1a34.73,34.73,0,0,1-8.09.91H542a34.6,34.6,0,0,1-8.07-1l-.06,7.1a7.4,7.4,0,0,0,7.09,7.67Z"/><path class="cls-1" d="M536.25,213.24a37.66,37.66,0,0,0,11.94.1,19.41,19.41,0,0,0,.56-6.64l-13-.1A19.38,19.38,0,0,0,536.25,213.24Z"/><path d="M535.72,206.52l13.11.1v.08a19.55,19.55,0,0,1-.56,6.66l0,0h0a37.49,37.49,0,0,1-12-.1h-.06v-.05a20.05,20.05,0,0,1-.46-6.67Zm13,.27-12.82-.11a19.79,19.79,0,0,0,.45,6.49,37.79,37.79,0,0,0,11.82.09A19.44,19.44,0,0,0,548.68,206.79Z"/><path class="cls-11" d="M535.79,206.6l13,.1c0-.16,0-.32,0-.48l-12.86-.1Z"/><path class="cls-1" d="M548.71,206.22l0-3.46a14.69,14.69,0,0,0-12.85-.1l0,3.46Z"/><path d="M542.32,201.15a13.42,13.42,0,0,1,6.45,1.54l0,0,0,3.6-13-.11,0-3.59,0,0A13.49,13.49,0,0,1,542.32,201.15Zm6.33,1.66a14.63,14.63,0,0,0-12.7-.1l0,3.33,12.7.1Z"/><path class="cls-11" d="M533.87,230.15l-.16.46a29.7,29.7,0,0,0,16.74.14l-.16-.47A29.67,29.67,0,0,1,533.87,230.15Z"/><path class="cls-1" d="M550.06,230.3l-2-5.86-11.94-.1-2.06,5.83A28.77,28.77,0,0,0,550.06,230.3Z"/><path d="M536.1,224.26l12.06.1,2,6-.09,0a28.82,28.82,0,0,1-16-.13l-.08,0Zm11.95.26-11.84-.09-2,5.69a28.68,28.68,0,0,0,15.75.12Z"/><path class="cls-10" d="M535.9,202.66h-.08a1.84,1.84,0,0,0-1.79,1.87v.14A4.45,4.45,0,0,1,535.9,202.66Z"/><path class="cls-10" d="M548.71,202.76h.08a1.82,1.82,0,0,1,1.75,1.89v.14A4.49,4.49,0,0,0,548.71,202.76Z"/><path class="cls-1" d="M531.66,225.51a.78.78,0,0,0,.12.68l1.43,1.34.07,0v-1.24l-1.6-1Z"/><path class="cls-10" d="M531.64,225.23l1.73,1.05v1.39l-.09,0a.24.24,0,0,1-.11-.06l-1.43-1.34a.89.89,0,0,1-.15-.76Zm1.58,1.15-1.48-.89v0a.76.76,0,0,0,.1.6l1.38,1.28Z"/><path class="cls-1" d="M552.58,225.68a.78.78,0,0,1-.13.68L551,227.67a.2.2,0,0,1-.08,0v-1.24l1.62-.94Z"/><path class="cls-10" d="M552.6,225.4l.06.26a.89.89,0,0,1-.16.76l-1.45,1.31a.24.24,0,0,1-.11.06l-.09,0v-1.38Zm-1.6,2.16,1.4-1.27a.72.72,0,0,0,.11-.59v0l-1.49.87Z"/><path class="cls-10" d="M537.79,234.59a16.09,16.09,0,0,0,1.11,6.61,18.36,18.36,0,0,1-.8-5.86,23.75,23.75,0,0,1,.24-3.16h-.41C537.85,232.94,537.8,233.75,537.79,234.59Z"/><path class="cls-10" d="M546.3,234.65a16.09,16.09,0,0,1-1.21,6.6,18.22,18.22,0,0,0,.89-5.85,22.46,22.46,0,0,0-.19-3.16h.41A23.1,23.1,0,0,1,546.3,234.65Z"/><rect class="cls-1" x="536.2" y="213.29" width="11.94" height="11.11" transform="matrix(-1, -0.01, 0.01, -1, 1082.57, 442.03)"/><path d="M536.17,213.15l12.1.1-.09,11.27-12.1-.09Zm11.94.27-11.78-.1-.09,10.94,11.78.1Z"/><path class="cls-1" d="M474.7,315.24a32.23,32.23,0,0,1,.31-8.09c.54-3.09,4-5.28,7-5q15,1.31,30.05,1.16c2.91-.05,6,2.28,6.3,5.24a32.22,32.22,0,0,1-.33,8.66c-.54,2.93-3.8,5-6.7,4.74q-15-1.31-30-1.18C478.25,320.82,475,318.37,474.7,315.24Z"/><path class="cls-10" d="M474.49,311.18a32.5,32.5,0,0,1,.41-4.05c.53-3,3.87-5.39,7.15-5.08,9.95.86,20.05,1.25,30,1.15,3.12-.05,6.12,2.45,6.42,5.34a32.86,32.86,0,0,1-.34,8.69c-.52,2.86-3.71,5.12-6.82,4.83-9.94-.87-20.05-1.27-30-1.18-3.3.05-6.44-2.58-6.73-5.63h0A32.49,32.49,0,0,1,474.49,311.18Zm43.91,1.71a31.32,31.32,0,0,0-.12-4.33c-.28-2.79-3.18-5.2-6.19-5.15-10,.1-20.11-.29-30.06-1.15-3.17-.3-6.4,2-6.91,4.91a32.46,32.46,0,0,0-.31,8.06c.28,2.95,3.32,5.49,6.51,5.44,10-.09,20.1.31,30.05,1.18,3,.28,6.08-1.89,6.58-4.66A31,31,0,0,0,518.4,312.89Z"/><path class="cls-11" d="M480.24,317.87l.5-12.91-.48,0-.5,12.8Z"/><path class="cls-10" d="M485.1,319.37l.42-.09a43.2,43.2,0,0,1,11-.82l1.37.07h0l4.82,2.15h-.39c-1.13,0-2.26-.05-3.34-.09-4.63-.18-9.16-.57-13.47-1.16Zm12.74-.68-1.35-.07a44.1,44.1,0,0,0-10.51.72c4.17.55,8.54.92,13,1.09,1,0,1.95.07,3,.09Z"/><path class="cls-10" d="M485.71,303.84l.42,0c4.34-.25,8.88-.29,13.51-.11,1.08.05,2.2.1,3.35.17l.38,0-5,1.77-1.37,0A43.65,43.65,0,0,1,486.11,304Zm16.88.17-2.95-.15c-4.47-.17-8.86-.15-13.06.08A44,44,0,0,0,497,305.47l1.35,0Z"/><path class="cls-1" d="M503.67,320.59l7.2.28a7.49,7.49,0,0,0,8-6.93l.08-2.07a7.49,7.49,0,0,0-7.41-7.52l-7.2-.28a35,35,0,0,1-.64,16.52Z"/><path d="M503.56,320.66l0-.09a34,34,0,0,0,1.3-8.21v-.1a34.82,34.82,0,0,0-.67-8.18l0-.09,7.3.28a7.56,7.56,0,0,1,7.49,7.6l-.08,2.08a7.55,7.55,0,0,1-8,7Zm15.28-8.79a7.4,7.4,0,0,0-7.33-7.44l-7.1-.28a34.72,34.72,0,0,1,.66,8.11,1.62,1.62,0,0,0,0,.22,34.58,34.58,0,0,1-1.29,8l7.1.28a7.41,7.41,0,0,0,7.89-6.85Z"/><path class="cls-1" d="M486.89,317.64a37.62,37.62,0,0,0,.46-11.93,19.36,19.36,0,0,0-6.61-.77l-.51,12.95A19.67,19.67,0,0,0,486.89,317.64Z"/><path d="M480.15,318l.51-13.1h.07a19.75,19.75,0,0,1,6.64.77l.06,0v.05a37.53,37.53,0,0,1-.46,12v0h-.06a19.77,19.77,0,0,1-6.68.25Zm.67-12.95-.5,12.81a19.43,19.43,0,0,0,6.49-.25,37.1,37.1,0,0,0,.46-11.8A19.44,19.44,0,0,0,480.82,305Z"/><path class="cls-11" d="M480.23,317.89l.51-12.95-.49,0-.5,12.85Z"/><path class="cls-1" d="M480.25,305l-3.45-.13a14.69,14.69,0,0,0-.5,12.85l3.45.13Z"/><path d="M475,311.2a13.35,13.35,0,0,1,1.73-6.4l0,0,3.59.14-.5,13-3.6-.14,0,0A13.4,13.4,0,0,1,475,311.2Zm1.85-6.28a14.66,14.66,0,0,0-.49,12.69l3.32.13.5-12.69Z"/><path class="cls-11" d="M503.71,320.54l.46.17a29.69,29.69,0,0,0,.65-16.73l-.47.14A29.69,29.69,0,0,1,503.71,320.54Z"/><path class="cls-1" d="M504.36,304.36l-5.92,1.78L498,318.07l5.76,2.24A28.76,28.76,0,0,0,504.36,304.36Z"/><path d="M497.9,318.12l.46-12,6.06-1.82,0,.08a28.9,28.9,0,0,1-.63,16l0,.08Zm.63-11.93L498.07,318l5.62,2.18a28.66,28.66,0,0,0,.61-15.74Z"/><path class="cls-10" d="M476.3,317.66v.08a1.83,1.83,0,0,0,1.81,1.84h.14A4.44,4.44,0,0,1,476.3,317.66Z"/><path class="cls-10" d="M476.8,304.86v-.08a1.84,1.84,0,0,1,1.95-1.69h.14A4.39,4.39,0,0,0,476.8,304.86Z"/><path class="cls-1" d="M499,322.61a.82.82,0,0,0,.68-.1l1.38-1.39a.35.35,0,0,0,.05-.08l-1.24,0-1,1.57Z"/><path class="cls-10" d="M498.73,322.61l1.11-1.69,1.38.05,0,.09a.26.26,0,0,1-.07.11l-1.38,1.39a.86.86,0,0,1-.76.12Zm1.2-1.53-.94,1.44h0a.73.73,0,0,0,.6-.08l1.33-1.33Z"/><path class="cls-1" d="M499.82,301.7a.78.78,0,0,1,.67.15l1.27,1.49a.12.12,0,0,1,0,.08l-1.23-.05-.9-1.65Z"/><path class="cls-10" d="M499.54,301.67l.27-.05a.86.86,0,0,1,.75.18l1.27,1.49a.18.18,0,0,1,.05.11l0,.1-1.39-.06Zm2.11,1.66-1.22-1.43a.72.72,0,0,0-.59-.13h0l.83,1.51Z"/><path class="cls-10" d="M508.27,316.75a16.11,16.11,0,0,0,6.64-.9,18.22,18.22,0,0,1-5.88.62,24.35,24.35,0,0,1-3.14-.34l0,.41A22.1,22.1,0,0,0,508.27,316.75Z"/><path class="cls-10" d="M508.6,308.25a16.17,16.17,0,0,1,6.55,1.41,18.28,18.28,0,0,0-5.81-1.06,21.79,21.79,0,0,0-3.17.09l0-.41A23.91,23.91,0,0,1,508.6,308.25Z"/><rect class="cls-1" x="486.69" y="306.34" width="11.94" height="11.11" transform="translate(823.44 -168.3) rotate(92.22)"/><path d="M486.8,317.72l.47-12.1,11.26.44-.47,12.09Zm.63-11.93L487,317.57l10.93.42.46-11.78Z"/><path class="cls-1" d="M149.11,251.13a32.21,32.21,0,0,1,8.09,0c3.11.42,5.44,3.77,5.27,6.83q-.72,15,0,30.07c.17,2.91-2,6.08-5,6.5a32.27,32.27,0,0,1-8.67,0c-2.95-.42-5.16-3.59-5-6.5q.74-15,0-30.07C143.67,254.9,146,251.55,149.11,251.13Z"/><path class="cls-10" d="M153.15,250.77a32.58,32.58,0,0,1,4.07.25c3,.41,5.54,3.65,5.35,7-.47,10-.47,20.08,0,30,.17,3.12-2.21,6.21-5.09,6.62a32.42,32.42,0,0,1-8.69,0c-2.89-.41-5.26-3.5-5.09-6.62.48-10,.49-20.08,0-30.06-.18-3.29,2.33-6.53,5.36-6.94h0A32.54,32.54,0,0,1,153.15,250.77Zm0,43.94a31.14,31.14,0,0,0,4.32-.29,6.24,6.24,0,0,0,4.91-6.39c-.48-10-.49-20.1,0-30.08.17-3.18-2.25-6.32-5.18-6.71a32.05,32.05,0,0,0-8.07,0c-2.93.39-5.35,3.53-5.18,6.71.48,10,.47,20.1,0,30.08a6.23,6.23,0,0,0,4.91,6.39A31.1,31.1,0,0,0,153.15,294.71Z"/><path class="cls-11" d="M146.7,256.77h12.91c0-.16,0-.32-.05-.48H146.75C146.73,256.45,146.71,256.61,146.7,256.77Z"/><path class="cls-10" d="M145.38,261.69l.11.41A43.38,43.38,0,0,1,146.73,273c0,.45,0,.91,0,1.37v0l-2,4.9V279c0-1.14,0-2.27,0-3.35,0-4.64.22-9.18.64-13.5Zm1.18,12.7c0-.45,0-.91,0-1.35a44,44,0,0,0-1.13-10.47c-.39,4.18-.59,8.57-.59,13,0,1,0,1.95,0,3Z"/><path class="cls-10" d="M160.93,261.69l0,.42c.42,4.32.63,8.86.63,13.5,0,1.07,0,2.2,0,3.35v.38l-2-4.93c0-.46,0-.92,0-1.37a43.34,43.34,0,0,1,1.25-10.94Zm.49,16.88c0-1,0-2,0-3,0-4.47-.2-8.86-.59-13A44,44,0,0,0,159.73,273c0,.44,0,.9,0,1.35Z"/><path class="cls-1" d="M144.89,280.28v7.21a7.5,7.5,0,0,0,7.23,7.7h2.07a7.5,7.5,0,0,0,7.23-7.7v-7.21a35,35,0,0,1-16.53,0Z"/><path d="M144.81,280.18l.1,0a33.47,33.47,0,0,0,8.24,1h.11a34.21,34.21,0,0,0,8.14-1l.1,0v7.31a7.56,7.56,0,0,1-7.31,7.78h-2.07a7.56,7.56,0,0,1-7.31-7.78Zm9.38,14.92a7.4,7.4,0,0,0,7.15-7.61v-7.1a34.73,34.73,0,0,1-8.08,1H153a34.65,34.65,0,0,1-8.07-1v7.1a7.39,7.39,0,0,0,7.15,7.61Z"/><path class="cls-1" d="M147.18,263.4a37.43,37.43,0,0,0,11.95,0,19.63,19.63,0,0,0,.51-6.64h-13A19.63,19.63,0,0,0,147.18,263.4Z"/><path d="M146.6,256.68h13.11v.08a19.77,19.77,0,0,1-.51,6.66v.06h-.05a37.55,37.55,0,0,1-12,0h0v-.06a19.77,19.77,0,0,1-.52-6.66Zm13,.17H146.74a20,20,0,0,0,.5,6.48,37.79,37.79,0,0,0,11.82,0A19.48,19.48,0,0,0,159.56,256.85Z"/><path class="cls-11" d="M146.67,256.76h13l-.06-.48H146.73Z"/><path class="cls-1" d="M159.58,256.28v-3.46a14.69,14.69,0,0,0-12.85,0v3.46Z"/><path d="M153.15,251.26a13.42,13.42,0,0,1,6.47,1.49l0,0v3.6h-13v-3.6l0,0A13.38,13.38,0,0,1,153.15,251.26Zm6.35,1.61a14.72,14.72,0,0,0-12.7,0v3.33h12.7Z"/><path class="cls-11" d="M144.94,280.33l-.16.46a29.65,29.65,0,0,0,16.75,0l-.16-.46A29.79,29.79,0,0,1,144.94,280.33Z"/><path class="cls-1" d="M161.13,280.35l-2-5.85H147.18l-2,5.85A28.86,28.86,0,0,0,161.13,280.35Z"/><path d="M147.13,274.42h12.05l2.06,6-.08,0a28.86,28.86,0,0,1-16,0l-.08,0Zm11.94.17H147.24l-2,5.7a28.68,28.68,0,0,0,15.75,0Z"/><path class="cls-10" d="M146.75,252.83h-.08a1.82,1.82,0,0,0-1.77,1.88v.14A4.33,4.33,0,0,1,146.75,252.83Z"/><path class="cls-10" d="M159.56,252.83h.08a1.83,1.83,0,0,1,1.77,1.88v.14A4.44,4.44,0,0,0,159.56,252.83Z"/><path class="cls-1" d="M142.69,275.71a.78.78,0,0,0,.13.68l1.44,1.32a.13.13,0,0,0,.07,0v-1.23l-1.6-1Z"/><path class="cls-10" d="M142.67,275.43l1.74,1v1.38l-.09,0a.17.17,0,0,1-.11-.06l-1.45-1.32a.92.92,0,0,1-.15-.76Zm1.59,1.14-1.48-.89v.05a.69.69,0,0,0,.1.59l1.39,1.28Z"/><path class="cls-1" d="M163.62,275.71a.82.82,0,0,1-.13.68l-1.44,1.32a.12.12,0,0,1-.08,0v-1.23l1.61-1Z"/><path class="cls-10" d="M163.64,275.43l.05.26a.86.86,0,0,1-.15.76l-1.44,1.32a.17.17,0,0,1-.11.06l-.09,0v-1.38Zm-1.59,2.17,1.39-1.28a.69.69,0,0,0,.1-.59v-.05l-1.48.89Z"/><path class="cls-10" d="M148.9,284.73a16.12,16.12,0,0,0,1.16,6.61,18.13,18.13,0,0,1-.84-5.85,22.14,22.14,0,0,1,.21-3.16H149A23,23,0,0,0,148.9,284.73Z"/><path class="cls-10" d="M157.41,284.73a16.12,16.12,0,0,1-1.16,6.61,18.13,18.13,0,0,0,.84-5.85,22.14,22.14,0,0,0-.21-3.16h.41A23,23,0,0,1,157.41,284.73Z"/><rect class="cls-1" x="147.18" y="263.4" width="11.94" height="11.11" transform="translate(306.31 537.9) rotate(180)"/><path d="M147.1,263.32h12.1v11.27H147.1Zm12,.16H147.26v10.94h11.79Z"/><rect class="繧ｰ繝ｩ繝輔ぅ繝け繧ｹ繧ｿ繧､繝ｫ-4" x="290.38" y="236.05" width="24.39" height="4.06" transform="translate(589.38 494.95) rotate(-176.35)"/><rect class="繧ｰ繝ｩ繝輔ぅ繝け繧ｹ繧ｿ繧､繝ｫ-4" x="290.12" y="240.1" width="24.39" height="4.06" transform="translate(588.6 503.03) rotate(-176.35)"/><rect class="繧ｰ繝ｩ繝輔ぅ繝け繧ｹ繧ｿ繧､繝ｫ-4" x="290.89" y="224.17" width="24.39" height="11.9" transform="translate(590.9 479.08) rotate(-176.35)"/><polygon points="303.72 225.2 298.5 231.86 308.06 232.47 303.72 225.2"/><polygon class="繧ｰ繝ｩ繝輔ぅ繝け繧ｹ繧ｿ繧､繝ｫ-4" points="103.91 290.95 76.93 289.76 77.45 275.58 104.42 276.78 103.91 290.95"/><polygon points="90.11 289.15 95.71 281.07 85.11 280.61 90.11 289.15"/><circle class="cls-12" cx="132.51" cy="246.02" r="45.95"/><path class="cls-13" d="M110.57,232.78a77.53,77.53,0,0,0-11-8.08l2.88-3.87a60.5,60.5,0,0,1,11.06,7.75Zm.76,16.75a67.71,67.71,0,0,0-11.25-8.11l2.85-4.07a65.4,65.4,0,0,1,11.38,7.77Zm-3.71,27.69c3-5.66,5.68-13.85,7.63-23.37l4.51,2.38a108.27,108.27,0,0,1-7.32,24Zm44.08-54.69A41.79,41.79,0,0,1,143,234.29,94.16,94.16,0,0,0,163,235.91l-1.67,4.78c-2.38-.05-3.45-.12-5.52-.29l5.58,31.8-4.87.86-2.48-14.14-22.39,3.93c0,6.19-1.91,10.88-6.37,15.56l-4.4-2.92c5.13-4.6,6.76-10.29,5.29-18.68l-1.74-9.91c-1.7.83-3.36,1.51-5.08,2.21l-3.5-3.41a79.26,79.26,0,0,0,18.62-9.6,50.66,50.66,0,0,1-13.12-8.25L115,229l-.73-4.15,19-3.34-1.19-6.78,5-.88,1.19,6.79,20-3.52.73,4.16Zm-24.89,4.37A38.32,38.32,0,0,0,138.24,233a40,40,0,0,0,7.7-9.47Zm11.92,11.16a82.48,82.48,0,0,1-9.7,6.39l.66,3.71,21.81-3.83-.77-4.42a69.43,69.43,0,0,1-11.48-2.27Zm-8.35,14.06.39,2.24a42.73,42.73,0,0,1,.63,4.31l21.94-3.85-1.14-6.53Z"/><circle class="cls-12" cx="384.99" cy="248.93" r="45.95"/><path class="cls-13" d="M363,235.69a77.05,77.05,0,0,0-11-8.09l2.88-3.87a60.58,60.58,0,0,1,11.05,7.75Zm.77,16.75a67.24,67.24,0,0,0-11.25-8.12l2.84-4.06A65.6,65.6,0,0,1,366.79,248Zm-3.72,27.69c3-5.67,5.68-13.86,7.64-23.37l4.51,2.37a107.4,107.4,0,0,1-7.33,24Zm44.09-54.7a41.65,41.65,0,0,1-8.75,11.76,94.16,94.16,0,0,0,20.07,1.62l-1.67,4.78c-2.38,0-3.45-.12-5.53-.28l5.58,31.79L409,276l-2.48-14.14-22.39,3.93c0,6.19-1.92,10.89-6.37,15.56l-4.41-2.92c5.13-4.6,6.77-10.29,5.3-18.67l-1.74-9.92c-1.7.83-3.36,1.52-5.08,2.21l-3.5-3.41A79.26,79.26,0,0,0,387,239a50.4,50.4,0,0,1-13.12-8.25l-6.33,1.12-.73-4.16,19-3.34-1.19-6.78,5-.87,1.19,6.78,20-3.52.73,4.16Zm-24.89,4.37a38.1,38.1,0,0,0,11.43,6.11,39.77,39.77,0,0,0,7.7-9.47ZM391.21,241a83.84,83.84,0,0,1-9.7,6.38l.65,3.71L404,247.23l-.77-4.41a70.45,70.45,0,0,1-11.48-2.28ZM382.86,255l.39,2.24a42.33,42.33,0,0,1,.63,4.31l21.94-3.86-1.14-6.52Z"/><polygon class="cls-9" points="451.61 197.04 451.61 297.95 525.75 297.95 525.75 220.34 506.18 220.34 506.18 197.04 451.61 197.04"/><polyline class="cls-8" points="628.83 216.34 639.68 215.56 576.48 189.62 585.91 188.58"/><path d="M239.45,233c.68-2.8,3-5.6,6.52-8l.68-.44c3.67-2.38,4.64-3.54,4.64-5.45,0-2.14-1.78-3.58-4.48-3.58-2.2,0-3.75.81-5.42,2.8l-1.65-1.39a8.43,8.43,0,0,1,7.17-3.51c4.09,0,7.07,2.41,7.07,5.74,0,2.64-1,3.87-5.71,6.86l-.94.6c-3.11,2-5.08,4.29-5.31,6.18H254.3V235H239.45Z"/><path d="M228.69,252.15c-.26.94-.58,1.83-.86,2.56h14.71a24.82,24.82,0,0,1-1.39,7.49c-.65,1.47-1.49,1.89-3.85,1.89-1.38,0-3.24-.08-4.53-.19l-.47-2c1.81.16,3.56.27,4.82.27s1.7-.21,2.07-1.05a24.65,24.65,0,0,0,1-4.64H227.12c-.34.74-.71,1.5-1.1,2.23l-2.12-.6a36.67,36.67,0,0,0,2.59-6h-5.84v-1.78h24.88v1.78ZM241.62,248H224.53v-7.43h17.09Zm-15-1.67H239.5v-4H226.65Z"/><path d="M252.28,251.28a31.15,31.15,0,0,1-3.17,7.1l-1-2.1a29.6,29.6,0,0,0,4-9.45h-3.59V245h3.77v-5.6h1.94V245h2.72v1.83h-2.72v2.44a29.48,29.48,0,0,1,3.22,3.06l-1.1,1.75a30.92,30.92,0,0,0-2.12-2.69v12.88h-1.94Zm14.61,3.64a19.61,19.61,0,0,0,6.68,5.92l-1.23,1.83a21.31,21.31,0,0,1-6.76-6.7v8.3h-1.86v-8.14A20.2,20.2,0,0,1,257,263l-1.31-1.6a18.43,18.43,0,0,0,6.86-6.52H257.7V245.6h6v-1.94h-7.38V242h7.38V239.4h1.86V242h7.54v1.7h-7.54v1.94h6.21v9.32Zm-7.33-7.72v2.22h4.16V247.2Zm0,3.82v2.28h4.16V251Zm6-1.6H270V247.2h-4.37Zm0,3.88H270V251h-4.37Z"/><path d="M491.84,228.26v14.17h4.06v2h-4.06v5.16h-2.3v-5.16H478.75v-2L489,228.26Zm-2.3,6.63c0-1.21,0-3.25.13-4.53h-.1a30.19,30.19,0,0,1-1.91,3.32l-6.24,8.75h8.12Z"/><path d="M469.43,266.72a25.45,25.45,0,0,1-.86,2.56h14.71a25.19,25.19,0,0,1-1.38,7.49c-.66,1.47-1.5,1.89-3.85,1.89-1.39,0-3.25-.08-4.53-.19l-.47-2c1.8.16,3.56.27,4.81.27s1.71-.21,2.07-1.05a23.71,23.71,0,0,0,1-4.64H467.86c-.34.74-.71,1.5-1.1,2.23l-2.12-.6a35.82,35.82,0,0,0,2.59-6h-5.84v-1.78h24.88v1.78Zm12.94-4.17h-17.1v-7.43h17.1Zm-15-1.67h12.86v-4H467.39Z"/><path d="M493,265.85a31.15,31.15,0,0,1-3.17,7.1l-1-2.1a29.6,29.6,0,0,0,3.95-9.45h-3.59v-1.83H493V254H495v5.6h2.72v1.83H495v2.44a29.48,29.48,0,0,1,3.22,3.06l-1.1,1.75A29.1,29.1,0,0,0,495,266v12.88H493Zm14.61,3.64a19.61,19.61,0,0,0,6.68,5.92l-1.23,1.83a21.52,21.52,0,0,1-6.76-6.7v8.3h-1.86V270.7a20.17,20.17,0,0,1-6.72,6.91l-1.31-1.6a18.58,18.58,0,0,0,6.86-6.52h-4.85v-9.32h6v-1.94h-7.38v-1.7h7.38V254h1.86v2.56h7.55v1.7h-7.55v1.94h6.21v9.32Zm-7.33-7.72V264h4.16v-2.22Zm0,3.82v2.28h4.16v-2.28Zm6-1.6h4.38v-2.22h-4.38Zm0,3.88h4.38v-2.28h-4.38Z"/></g></svg>