<svg xmlns="http://www.w3.org/2000/svg" width="700" height="500" viewBox="0 0 700 500"><defs><style>.cls-1,.繧ｰ繝ｩ繝輔ぅ繝け繧ｹ繧ｿ繧､繝ｫ-3,.繧ｰ繝ｩ繝輔ぅ繝け繧ｹ繧ｿ繧､繝ｫ-4{fill:#fff;}.繧ｰ繝ｩ繝輔ぅ繝け繧ｹ繧ｿ繧､繝ｫ-2{fill:#d8eacc;}.cls-2,.cls-3,.cls-6,.繧ｰ繝ｩ繝輔ぅ繝け繧ｹ繧ｿ繧､繝ｫ,.繧ｰ繝ｩ繝輔ぅ繝け繧ｹ繧ｿ繧､繝ｫ-2,.繧ｰ繝ｩ繝輔ぅ繝け繧ｹ繧ｿ繧､繝ｫ-3,.繧ｰ繝ｩ繝輔ぅ繝け繧ｹ繧ｿ繧､繝ｫ-4{stroke:#000;}.cls-6,.繧ｰ繝ｩ繝輔ぅ繝け繧ｹ繧ｿ繧､繝ｫ,.繧ｰ繝ｩ繝輔ぅ繝け繧ｹ繧ｿ繧､繝ｫ-2,.繧ｰ繝ｩ繝輔ぅ繝け繧ｹ繧ｿ繧､繝ｫ-3{stroke-width:2px;}.cls-2,.cls-3,.cls-6,.繧ｰ繝ｩ繝輔ぅ繝け繧ｹ繧ｿ繧､繝ｫ{fill:none;}.cls-2,.cls-3{stroke-linecap:round;}.cls-2,.cls-3,.cls-6{stroke-linejoin:round;}.cls-2{stroke-width:1.43px;}.cls-3{stroke-width:1.83px;}.繧ｰ繝ｩ繝輔ぅ繝け繧ｹ繧ｿ繧､繝ｫ,.繧ｰ繝ｩ繝輔ぅ繝け繧ｹ繧ｿ繧､繝ｫ-3,.繧ｰ繝ｩ繝輔ぅ繝け繧ｹ繧ｿ繧､繝ｫ-4{stroke-miterlimit:10;}.繧ｰ繝ｩ繝輔ぅ繝け繧ｹ繧ｿ繧､繝ｫ-4{stroke-width:1.27px;}.cls-4{fill:#030201;}.cls-5{fill:#242323;}.cls-7{fill:#e83589;}</style></defs><title>kukakuzu</title><g id="レイヤー_2" data-name="レイヤー 2"><rect class="cls-1" width="700" height="500"/><polyline class="繧ｰ繝ｩ繝輔ぅ繝け繧ｹ繧ｿ繧､繝ｫ-2" points="473.43 134.12 76.98 134.12 76.98 352 107.37 382.39 510.12 382.39"/><polyline class="cls-2" points="216.71 59.01 216.71 47.26 223.61 59.01 223.61 47.26"/><circle class="cls-3" cx="212.17" cy="89.31" r="24.35"/><polygon points="209.29 102.66 218.93 111.93 217.18 66.09 196.69 107.13 209.29 102.66"/><path d="M544.12,193.68a24.1,24.1,0,0,0-3.71-3.39l1.06-1.18a21.82,21.82,0,0,1,3.79,3.19Zm2.45,10.76c1.9,1.47,4.09,1.89,7.73,1.42l9-1.32a6.51,6.51,0,0,0-.35,1.63l-8.46,1.24c-3.92.53-6.39,0-8.46-1.66a19.24,19.24,0,0,1-2.67,3.85l-1.13-1.43a30.36,30.36,0,0,0,2.71-3.12l-.84-5.73-3.05.45-.22-1.5,4.72-.69Zm13-13.14,1.58,10.82c.18,1.18-.16,1.64-1.37,1.81a20.43,20.43,0,0,1-2.26.2l-.47-1.37a13,13,0,0,0,2-.13c.46-.07.52-.15.45-.63l-.34-2.31-3.94.58.58,3.91-1.54.23-.58-3.92-3.8.56.61,4.18-1.6.23-1.81-12.33,5.89-.86c-1.3-.48-2.67-.94-4.1-1.33l.9-1.06c1.32.4,2,.6,3.16,1a32.24,32.24,0,0,0,2.84-2.23L546.74,190l-.2-1.37L557.6,187l1,.79a29.93,29.93,0,0,1-4.35,3.61l.29.13a8.43,8.43,0,0,1,.89.37Zm-10.38,5,3.8-.55-.31-2.16-3.81.56Zm.5,3.46,3.81-.56-.32-2.2-3.81.56Zm4.84-4.24,3.94-.57-.32-2.16-3.93.58Zm4.12.68-3.94.57.33,2.2,3.93-.57Z"/><path d="M552.53,218.94l-2.84.41.51,3.48,2.86-.42.21,1.45-2.85.42.67,4.59c.57-.24,2.17-1,3.22-1.48l.36,1.41a79.82,79.82,0,0,1-8.3,3.73l-.8-1.48,1.13-.41-1.26-8.58,1.5-.21,1.21,8.24.53-.21.5-.21.45-.18-1.45-9.91-3.21.47-1.05-7.15,7.56-1.11Zm-6.21-.55,4.44-.65-.62-4.24-4.44.65Zm16.19-6.77a18.87,18.87,0,0,1-2.46,5.77,18.48,18.48,0,0,0,5.48,2.32l-.62,1.57a19.52,19.52,0,0,1-5.76-2.66,18.35,18.35,0,0,1-5.16,4.46l-1.08-1.23a14.72,14.72,0,0,0,5-4.17,15.61,15.61,0,0,1-2.38-2.5l-.08.12,0,.07a14,14,0,0,1-1.64,2.29l-1.25-1a13.33,13.33,0,0,0,3.17-6.42l1.67,0c-.16.61-.2.79-.32,1.19l4.26-.62Zm2.63,18.59-1.61.23-.19-1.3-5.6.82.19,1.3-1.61.24-1.27-8.66,8.82-1.29Zm-9-16.34a14,14,0,0,0,2.6,2.63,14.67,14.67,0,0,0,1.83-4.07l-4.08.6-.28.7Zm1.35,14.64,5.61-.82-.65-4.44-5.61.82Z"/><path d="M502.61,98.72a25.54,25.54,0,0,0-3.93-2.88l1-1.38a20.87,20.87,0,0,1,4,2.78Zm0-5.72a23.28,23.28,0,0,0-3.84-2.94l1-1.31a20,20,0,0,1,3.91,2.77ZM501,108.09a33.82,33.82,0,0,0,2.81-7.78l1.54.88a37.17,37.17,0,0,1-2.76,8ZM512.2,98l0,0a48.84,48.84,0,0,1-2.12,7.28l-.06.21,1.61-.37c1.61-.37,4-1,6-1.55-.85-1-1.82-2.12-2.82-3.16l1.27-1a41.15,41.15,0,0,1,5.31,6l-1.42,1.22c-.66-1-.94-1.36-1.41-2l-.21.08c-2.37.84-7.46,2.28-11,3.11l-.83-1.65.88-.17.26-.06.58-.13a50.64,50.64,0,0,0,2.19-7.78l-5.54.81-.22-1.47,6.71-1L510.66,92l-5.52.81-.22-1.52,5.52-.81L509.92,87l1.71-.25.52,3.54,5.85-.86.22,1.52-5.85.86.65,4.44,7-1,.22,1.47-8,1.17Z"/><path d="M508.42,114.32a12.24,12.24,0,0,1,1.22,1.62l-1.55.72a12.09,12.09,0,0,0-1.45-2.08l-1.54.23a12.6,12.6,0,0,1-1.78,2.91l-1.38-.88a11,11,0,0,0,2.44-5.27l1.75,0c-.16.72-.24,1.07-.44,1.71l5.65-.83.2,1.38Zm4.68,11a20.44,20.44,0,0,1-7.24,6.49l-1.32-1.2a20,20,0,0,0,7-5.42l.1-.13-6.6,1c.11-1.84.13-3.57.07-5.06l7.21-1.06-.3-2L504.19,119l-.21-1.38,16.91-2.48.69,4.73L514.17,121l.33,2.26,8.6-1.26a17.69,17.69,0,0,1-.06,5.24c-.25,1-.84,1.36-2.22,1.56a23.67,23.67,0,0,1-2.66.24l-.66-1.57a25.61,25.61,0,0,0,2.71-.17c.82-.12,1.06-.32,1.17-.94a11.44,11.44,0,0,0,.09-2.73l-6.77,1,1,6.68-1.67.25ZM506.88,122c0,.49,0,1.68,0,2.31l5.93-.87-.33-2.26Zm10.55-9a13.32,13.32,0,0,1,1.32,1.49l-1.53.76a14.76,14.76,0,0,0-1.59-2l-1.47.21a10.57,10.57,0,0,1-1.35,2.62l-1.41-.76a11.28,11.28,0,0,0,1.87-5.12H515c-.12.69-.19,1.11-.37,1.79l7.28-1.07.2,1.39Zm2,3.78-5.72.83.3,2,5.72-.84Z"/><path d="M522.24,177.9l-1.69.24-1-7a21.71,21.71,0,0,1-7.65,7.41l-1.22-1.26A21.82,21.82,0,0,0,518,170.9l-8,1.18-.21-1.47,9.47-1.39-.35-2.4,1.69-.24.35,2.39,9.63-1.41.22,1.47-8.13,1.2a23.37,23.37,0,0,0,8.94,3.45l-.85,1.69a22.48,22.48,0,0,1-9.55-4.64Zm3.2-19.69a20.41,20.41,0,0,1-4.38,5.33,30.47,30.47,0,0,0,8.73,1.37l-.68,1.63a34.7,34.7,0,0,1-9.41-1.83,31.06,31.06,0,0,1-8.72,4.71l-1.07-1.24a29.46,29.46,0,0,0,8.3-4.15,27.76,27.76,0,0,1-3.53-2.32,18,18,0,0,1-3.48,2.91l-1.24-1a15.16,15.16,0,0,0,5.8-6.22l1.72.09c-.25.55-.33.65-.58,1.12l7.52-1.1Zm-9.5,1.95c-.13.2-.19.25-.3.4a17.37,17.37,0,0,0,3.87,2.38,19.74,19.74,0,0,0,3.46-3.81Z"/><path d="M518,185c.11-1.4.16-2.33.2-3.55l1.79,0v.16c-.09,1.5-.16,2.43-.23,3.18l7.37-1.08.22,1.54-7.74,1.13A80,80,0,0,1,517,201.2l-1.77-.39a80.12,80.12,0,0,0,2.66-14.24l-4.6.67-.22-1.54Zm15.67,13.16a26.09,26.09,0,0,1-3.63.78,19.14,19.14,0,0,1-5.17.17,2.62,2.62,0,0,1-2.31-2.31,3.41,3.41,0,0,1,.43-2.26l1.51.65a1.94,1.94,0,0,0-.19,1.13,1.23,1.23,0,0,0,1.06,1.14,15,15,0,0,0,3.76-.12,28,28,0,0,0,4.09-.91Zm-11.12-8.77a67.55,67.55,0,0,1,7.78-1.63l.95-.14.34,1.59-1.39.2a65.93,65.93,0,0,0-7.23,1.49Z"/><path d="M521.4,208.05c.11-1.41.15-2.33.2-3.55l1.79,0v.16c-.09,1.49-.16,2.42-.23,3.17l6.16-.9.22,1.54-6.53,1a80.74,80.74,0,0,1-2.65,14.89l-1.76-.39a79.21,79.21,0,0,0,2.65-14.25l-4.59.68-.23-1.54Zm15.67,13.16a26,26,0,0,1-3.64.77,19.14,19.14,0,0,1-5.16.18,2.62,2.62,0,0,1-2.31-2.31,3.44,3.44,0,0,1,.43-2.27l1.51.66a1.93,1.93,0,0,0-.19,1.13,1.23,1.23,0,0,0,1.06,1.14,15,15,0,0,0,3.76-.12,28.9,28.9,0,0,0,4.08-.91ZM526,212.44a67.57,67.57,0,0,1,7.78-1.64l.94-.13.35,1.58-1.39.21a63.59,63.59,0,0,0-7.23,1.48Zm6.28-5.1a18.09,18.09,0,0,0-2.43-3.28l1.24-.7a18.86,18.86,0,0,1,2.43,3.24Zm2.6-1.26a16.82,16.82,0,0,0-2.41-3.28l1.21-.67a16.69,16.69,0,0,1,2.44,3.17Z"/><path d="M524,227.77l1.82,12.4c.42,2.85,2.2,4.12,5.21,3.68a5.92,5.92,0,0,0,4.44-3.26,17.81,17.81,0,0,0,1.46-5.49l1.71.76a17.79,17.79,0,0,1-1.54,5.6,7.64,7.64,0,0,1-5.91,4.12c-4.07.59-6.58-1.22-7.16-5.18L522.17,228Z"/><path d="M530.91,248.91l1.69-.25.2,1.32,7.05-1,.37,2.53,2.62-.38.17,1.21-2.61.38.38,2.6-7.06,1,.18,1.21,8.24-1.21.18,1.21-8.24,1.21.18,1.23,9.67-1.42.18,1.25-20.88,3.06-.18-1.25,9.51-1.4-.18-1.23-7.93,1.17-.18-1.21,7.94-1.16-.18-1.21-7,1-.18-1.18,7-1-.21-1.41-9.52,1.4-.18-1.21,9.52-1.4-.19-1.34-7,1-.17-1.19,7-1Zm11.74,19.61-1.74.25-.14-1-12,1.77.14,1-1.74.25-1-7.21,15.51-2.27Zm-14.48-2.73L540.22,264l-.18-1.25-12,1.77Zm.37,2.53,12.05-1.77-.2-1.36-12,1.76ZM533,251.16l.2,1.35,5.36-.79-.2-1.34Zm.37,2.55.21,1.41,5.36-.78-.2-1.41Z"/><path d="M533.86,275.48c-.34-.62-1-1.88-1.21-2.43l1.7-.36c.27.61.9,1.87,1.27,2.53l7.47-1.09.22,1.5-6.93,1c.56,1,1.43,2.35,2.11,3.33l6.81-1,.22,1.49-6,.89a33.56,33.56,0,0,0,3,3.46l-1.63.82a39.43,39.43,0,0,1-3.3-4l-9.87,1.44-.22-1.49,9.14-1.34c-.72-1.09-1.43-2.26-2-3.34L527.35,278l-.22-1.49Zm9.38,15.15c-1.7.34-2.6.52-3.5.65a21.33,21.33,0,0,1-6.18.25c-2.16-.35-3.51-1.55-3.76-3.31a3.47,3.47,0,0,1,.36-2.27l1.47.57a3.84,3.84,0,0,0-.12,1.47c.28,1.92,2.65,2.45,7.62,1.72,1.19-.17,2.34-.41,3.71-.72Z"/><path d="M532.84,301.51a23.09,23.09,0,0,0-3.71-3.38l1.07-1.19a23.08,23.08,0,0,1,3.79,3.19Zm2.45,10.76c1.9,1.47,4.1,1.89,7.73,1.43l9-1.32a6.33,6.33,0,0,0-.35,1.62l-8.46,1.24c-3.92.53-6.4,0-8.46-1.66a19.24,19.24,0,0,1-2.67,3.85L531,316a31.47,31.47,0,0,0,2.71-3.11l-.84-5.74-3.06.45-.22-1.5,4.73-.69Zm13-13.14L549.91,310c.17,1.19-.17,1.64-1.38,1.82a20.16,20.16,0,0,1-2.26.19l-.47-1.36a12.82,12.82,0,0,0,2-.14c.47-.07.52-.14.45-.63l-.34-2.31-3.93.58.57,3.91-1.54.23-.57-3.91-3.8.55.61,4.18-1.61.23L535.84,301l5.89-.86c-1.31-.48-2.68-.93-4.1-1.33l.9-1c1.31.39,2,.59,3.16,1,.93-.66,2.26-1.71,2.84-2.24l-9.06,1.33-.2-1.37,11.06-1.62,1,.8a29.79,29.79,0,0,1-4.34,3.6l.29.13c.54.22.59.23.88.37Zm-10.38,5,3.81-.56-.32-2.15-3.8.55Zm.51,3.45,3.8-.56-.32-2.2-3.8.56Zm4.84-4.24,3.93-.57-.31-2.16-3.94.58Zm4.11.68-3.93.58.32,2.19,3.94-.57Z"/><path d="M541.26,326.77l-2.84.42.51,3.47,2.86-.42.21,1.45-2.86.42.67,4.59c.57-.24,2.17-1,3.22-1.48l.37,1.41a78.86,78.86,0,0,1-8.31,3.73l-.8-1.48,1.13-.41-1.25-8.57,1.49-.22,1.21,8.24.53-.21.51-.21.44-.18-1.45-9.91-3.21.47-1-7.15,7.56-1.1Zm-6.21-.55,4.44-.65-.63-4.24-4.44.65Zm16.18-6.77a18.75,18.75,0,0,1-2.45,5.77,18.22,18.22,0,0,0,5.48,2.32l-.63,1.57a19.46,19.46,0,0,1-5.75-2.66,18.39,18.39,0,0,1-5.17,4.46l-1.07-1.23a14.81,14.81,0,0,0,5-4.17,16.13,16.13,0,0,1-2.39-2.5l-.07.12,0,.07a14.8,14.8,0,0,1-1.64,2.29l-1.25-1a13.39,13.39,0,0,0,3.17-6.41l1.66,0c-.16.61-.2.79-.32,1.19l4.27-.62ZM553.86,338l-1.6.23-.19-1.29-5.61.82.19,1.29-1.6.24-1.27-8.66,8.81-1.29Zm-9-16.34a14.09,14.09,0,0,0,2.61,2.63,15,15,0,0,0,1.83-4.06l-4.09.59c-.06.17-.13.34-.28.7Zm1.36,14.64,5.61-.82-.65-4.44-5.61.82Z"/><path d="M510.06,134.89l1.74,11.89,3.41-.5.25,1.7-3.41.5.63,4.33-1.93.28-.64-4.33-9.05,1.33-.25-1.67,6.83-13.17Zm-1.12,5.85c-.15-1-.35-2.74-.45-3.82h-.08a25.72,25.72,0,0,1-1.2,3l-4.16,8.1,6.82-1Z"/><path d="M521.36,141.1c3.14-.46,4.71-1.86,4.41-3.93-.27-1.82-1.91-2.75-4.28-2.4a5.46,5.46,0,0,0-4,2.54l-1.48-1a7.74,7.74,0,0,1,5.3-3.25c3.54-.51,6.27,1,6.67,3.68.32,2.22-1.08,4-3.74,4.7v.08c3.22-.24,5.32,1.2,5.72,3.91.46,3.14-1.84,5.52-6,6.13a8.06,8.06,0,0,1-6.62-1.57l1.1-1.49a6.77,6.77,0,0,0,5.24,1.25c2.81-.41,4.31-2,4-4.15-.36-2.46-2.28-3.35-6.11-2.79l-1.43.21-.24-1.67Z"/><path d="M539.44,355.13,541,365.29l2.91-.43.21,1.44-2.91.44.56,3.7-1.65.25-.56-3.7-7.74,1.16-.21-1.43,5.79-11.28Zm-.94,5c-.13-.86-.31-2.33-.4-3.26H538a22.47,22.47,0,0,1-1,2.59l-3.53,6.95,5.82-.88Z"/><path d="M548.19,366.72l.4,2.69-2.68.4-.4-2.68Z"/><path d="M561.16,359.74c.74,4.89-1,8.22-4.45,8.74s-6.09-2.18-6.82-7,1-8.22,4.47-8.75S560.43,354.88,561.16,359.74Zm-9.43,1.42c.6,3.94,2.41,6.17,4.78,5.81s3.41-3,2.81-7-2.41-6.19-4.77-5.84S551.14,357.21,551.73,361.16Z"/><path d="M574.13,357.79c.73,4.89-1,8.22-4.45,8.74s-6.09-2.18-6.83-7,1-8.22,4.47-8.74S573.39,352.93,574.13,357.79Zm-9.44,1.42c.6,4,2.41,6.17,4.78,5.81s3.41-3,2.81-6.95-2.4-6.19-4.77-5.83S564.1,355.27,564.69,359.21Z"/><path d="M587.09,355.84c.73,4.89-1,8.22-4.45,8.74s-6.09-2.18-6.82-7,1-8.22,4.46-8.74S586.36,351,587.09,355.84Zm-9.43,1.42c.59,3.95,2.4,6.17,4.77,5.82s3.41-3,2.82-7-2.41-6.19-4.78-5.83S577.06,353.32,577.66,357.26Z"/><line class="繧ｰ繝ｩ繝輔ぅ繝け繧ｹ繧ｿ繧､繝ｫ" x1="469.55" y1="107.59" x2="521.48" y2="463.44"/><rect class="繧ｰ繝ｩ繝輔ぅ繝け繧ｹ繧ｿ繧､繝ｫ-3" x="100.45" y="162.54" width="277.92" height="136.27"/><rect class="繧ｰ繝ｩ繝輔ぅ繝け繧ｹ繧ｿ繧､繝ｫ-4" x="360.32" y="272.07" width="46.78" height="10.46" transform="translate(661.02 -106.41) rotate(90)"/><rect class="繧ｰ繝ｩ繝輔ぅ繝け繧ｹ繧ｿ繧､繝ｫ-4" x="343.68" y="265.9" width="46.78" height="22.81" transform="translate(644.38 -89.77) rotate(90)"/><polygon points="357.57 276.69 370.96 285.88 370.96 267.5 357.57 276.69"/><path class="cls-1" d="M421.18,168a80.08,80.08,0,0,1,20.05,0c7.7,1,13.45,9.33,13,16.9q-1.77,37.23,0,74.44c.4,7.2-5.06,15.07-12.37,16.11a81.08,81.08,0,0,1-21.45,0c-7.3-1-12.77-8.91-12.37-16.11q1.8-37.22,0-74.44C407.73,177.34,413.49,169,421.18,168Z"/><path class="cls-4" d="M431.21,167.11a80.47,80.47,0,0,1,10.05.63c7.52,1,13.71,9,13.27,17.19-1.18,24.68-1.17,49.72,0,74.41.43,7.71-5.46,15.37-12.59,16.39a80.76,80.76,0,0,1-21.52,0c-7.14-1-13-8.68-12.6-16.4,1.2-24.68,1.21-49.72,0-74.4-.44-8.15,5.76-16.19,13.27-17.19h0A80.63,80.63,0,0,1,431.21,167.11Zm0,108.79a79.77,79.77,0,0,0,10.69-.72c6.88-1,12.56-8.37,12.15-15.81-1.2-24.72-1.22-49.77,0-74.47.43-7.88-5.55-15.65-12.81-16.62a80.55,80.55,0,0,0-20,0C414,169.25,408,177,408.4,184.9c1.18,24.7,1.17,49.75,0,74.46-.41,7.45,5.26,14.84,12.15,15.82A79.54,79.54,0,0,0,431.21,275.9Z"/><path class="cls-5" d="M415.22,182h32c0-.4-.08-.8-.13-1.19H415.35C415.3,181.17,415.26,181.57,415.22,182Z"/><path class="cls-4" d="M412,194.14l.28,1c2,7.25,3.07,16.87,3.07,27.09,0,1.11,0,2.25,0,3.39v.07l-4.85,12.14,0-1c-.07-2.81-.1-5.6-.1-8.29,0-11.47.53-22.71,1.57-33.41Zm2.92,31.45c0-1.12,0-2.24,0-3.34a109.55,109.55,0,0,0-2.78-25.93c-1,10.36-1.46,21.21-1.46,32.28,0,2.38,0,4.84.07,7.33Z"/><path class="cls-4" d="M450.45,194.14l.1,1.05c1.05,10.7,1.57,21.94,1.57,33.41,0,2.66,0,5.45-.09,8.29l0,1-4.87-12.21c0-1.14,0-2.28,0-3.39,0-10.22,1.09-19.84,3.08-27.09Zm1.21,41.79c0-2.51.08-5,.08-7.33,0-11.07-.5-21.92-1.47-32.28a109.55,109.55,0,0,0-2.78,25.93c0,1.1,0,2.22,0,3.34Z"/><path class="cls-1" d="M410.75,240.18V258c0,10.47,8.05,19.05,17.89,19.05h5.14c9.84,0,17.89-8.58,17.89-19.05V240.18a86.66,86.66,0,0,1-40.92,0Z"/><path d="M410.55,239.92l.24.06a84.48,84.48,0,0,0,20.42,2.45h.26A85.32,85.32,0,0,0,451.62,240l.24-.06V258c0,10.61-8.11,19.25-18.08,19.25h-5.14c-10,0-18.09-8.64-18.09-19.25Zm23.23,37c9.75,0,17.69-8.45,17.69-18.84V240.44a85.56,85.56,0,0,1-20,2.4h-.54a85.58,85.58,0,0,1-20-2.4V258c0,10.39,7.94,18.84,17.7,18.84Z"/><path class="cls-1" d="M416.42,198.39a92.83,92.83,0,0,0,29.57,0A48.65,48.65,0,0,0,447.25,182H415.16A48.65,48.65,0,0,0,416.42,198.39Z"/><path d="M415,181.75h32.44v.18a48.83,48.83,0,0,1-1.26,16.51l0,.13-.13,0a93.2,93.2,0,0,1-29.63,0l-.12,0,0-.13A48.83,48.83,0,0,1,415,181.93Zm32.08.41H415.34a48.39,48.39,0,0,0,1.24,16,92.64,92.64,0,0,0,29.26,0A48.38,48.38,0,0,0,447.07,182.16Z"/><path class="cls-5" d="M415.16,182h32.09c0-.4-.08-.8-.13-1.2H415.29C415.24,181.16,415.2,181.56,415.16,182Z"/><path class="cls-1" d="M447.12,180.76V172.2c-3.92-2.25-9.6-3.66-15.91-3.66s-12,1.41-15.92,3.66v8.56Z"/><path d="M431.21,168.33c6.09,0,11.92,1.34,16,3.69l.1,0V181H415.1v-8.9l.1,0C419.28,169.67,425.12,168.33,431.21,168.33Zm15.72,4c-4-2.27-9.75-3.58-15.72-3.58s-11.7,1.31-15.72,3.58v8.24h31.44Z"/><path class="cls-5" d="M410.88,240.29l-.4,1.15a73.44,73.44,0,0,0,41.45,0l-.4-1.15A73.53,73.53,0,0,1,410.88,240.29Z"/><path class="cls-1" d="M451,240.35l-5-14.48H416.42l-5,14.48A71.52,71.52,0,0,0,451,240.35Z"/><path d="M416.29,225.67h29.84l5.09,14.82-.21,0a71.5,71.5,0,0,1-39.61,0l-.21,0Zm29.56.41H416.56L411.7,240.2a71,71,0,0,0,39,0Z"/><path class="cls-4" d="M415.35,172.21h-.2a4.53,4.53,0,0,0-4.38,4.65v.35A10.88,10.88,0,0,1,415.35,172.21Z"/><path class="cls-4" d="M447.06,172.21h.2a4.53,4.53,0,0,1,4.38,4.65v.35A10.88,10.88,0,0,0,447.06,172.21Z"/><path class="cls-1" d="M405.3,228.86a2,2,0,0,0,.31,1.67l3.57,3.28a.35.35,0,0,0,.19.1v-3.06l-4-2.37Z"/><path class="cls-4" d="M405.26,228.17l4.31,2.56v3.43l-.24,0a.64.64,0,0,1-.27-.14l-3.57-3.28a2.15,2.15,0,0,1-.37-1.88Zm3.92,2.81-3.66-2.19,0,.12a1.8,1.8,0,0,0,.25,1.46l3.44,3.16Z"/><path class="cls-1" d="M457.11,228.86a2,2,0,0,1-.31,1.67l-3.57,3.28a.32.32,0,0,1-.19.1v-3.06l4-2.37Z"/><path class="cls-4" d="M457.15,228.17l.15.64a2.18,2.18,0,0,1-.37,1.88L453.36,234a.67.67,0,0,1-.28.14l-.23,0v-3.43Zm-3.91,5.36,3.43-3.16a1.77,1.77,0,0,0,.25-1.46l0-.12L453.24,231Z"/><path class="cls-4" d="M420.68,251.19c0,6.85,1.14,12.87,2.86,16.36a45.14,45.14,0,0,1-2.08-14.49,56,56,0,0,1,.53-7.82h-1A59.44,59.44,0,0,0,420.68,251.19Z"/><path class="cls-4" d="M441.74,251.19c0,6.85-1.14,12.87-2.87,16.36A45.14,45.14,0,0,0,441,253.06a56.07,56.07,0,0,0-.52-7.82h1A59.36,59.36,0,0,1,441.74,251.19Z"/><rect class="cls-1" x="416.42" y="198.38" width="29.57" height="27.49" transform="translate(862.41 424.25) rotate(180)"/><path d="M416.23,198.18h29.95v27.9H416.23Zm29.57.41H416.62v27.08H445.8Z"/><path class="cls-1" d="M361.82,356.32a81,81,0,0,1,0-20c1-7.7,9.33-13.46,16.91-13q37.22,1.77,74.43,0c7.2-.4,15.07,5.07,16.11,12.38a80.24,80.24,0,0,1,0,21.45c-1,7.3-8.91,12.77-16.11,12.37q-37.21-1.81-74.43,0C371.15,369.78,362.85,364,361.82,356.32Z"/><path class="cls-4" d="M360.92,346.3a80.35,80.35,0,0,1,.63-10.05c1-7.52,9-13.72,17.2-13.27,24.68,1.17,49.71,1.16,74.4,0,7.72-.42,15.38,5.46,16.39,12.6a80.76,80.76,0,0,1,0,21.52c-1,7.14-8.67,13-16.39,12.6-24.69-1.2-49.72-1.21-74.41,0-8.15.45-16.18-5.75-17.19-13.26h0A80.35,80.35,0,0,1,360.92,346.3Zm108.79,0a81.44,81.44,0,0,0-.71-10.69c-1-6.88-8.37-12.56-15.82-12.15-24.71,1.2-49.76,1.21-74.46,0-7.89-.43-15.65,5.56-16.62,12.82a80.47,80.47,0,0,0,0,20c1,7.26,8.73,13.25,16.61,12.82,24.71-1.18,49.76-1.17,74.47,0,7.45.41,14.84-5.27,15.82-12.15A81.44,81.44,0,0,0,469.71,346.3Z"/><path class="cls-5" d="M375.78,362.29v-32l-1.19.13v31.72Z"/><path class="cls-4" d="M388,365.55l1-.28c7.26-2,16.88-3.08,27.09-3.08,1.12,0,2.26,0,3.39.05h.08l12.13,4.85-1,0c-2.82.07-5.61.1-8.29.1-11.47,0-22.71-.53-33.41-1.57Zm31.44-2.93c-1.11,0-2.24,0-3.34,0a109.51,109.51,0,0,0-25.93,2.79c10.36,1,21.22,1.46,32.29,1.46,2.37,0,4.83,0,7.32-.08Z"/><path class="cls-4" d="M388,327.05,389,327c10.7-1,21.94-1.57,33.41-1.57,2.66,0,5.45,0,8.29.1l1,0-12.21,4.87c-1.13,0-2.27,0-3.39,0-10.21,0-19.83-1.1-27.09-3.08Zm41.78-1.2c-2.51-.05-5-.08-7.32-.08-11.07,0-21.93.49-32.29,1.46A109.51,109.51,0,0,0,416.06,330c1.1,0,2.23,0,3.34,0Z"/><path class="cls-1" d="M434,366.76h17.85c10.48,0,19.05-8.05,19.05-17.89v-5.14c0-9.84-8.57-17.89-19.05-17.89H434a86.31,86.31,0,0,1,0,40.92Z"/><path d="M433.73,367l.06-.23a84,84,0,0,0,2.45-20.42V346a84.87,84.87,0,0,0-2.45-20.15l-.06-.23h18.11c10.62,0,19.26,8.11,19.26,18.08v5.14c0,10-8.64,18.08-19.26,18.08Zm36.95-23.22c0-9.76-8.45-17.7-18.84-17.7H434.25a85.13,85.13,0,0,1,2.41,20,4.86,4.86,0,0,0,0,.54,85.13,85.13,0,0,1-2.41,20h17.59c10.39,0,18.84-7.94,18.84-17.7Z"/><path class="cls-1" d="M392.2,361.08a92.19,92.19,0,0,0,0-29.56,48.11,48.11,0,0,0-16.43-1.26v32.08A48.11,48.11,0,0,0,392.2,361.08Z"/><path d="M375.56,362.52V330.08l.19,0a49.11,49.11,0,0,1,16.51,1.27l.13,0,0,.13a93.14,93.14,0,0,1,0,29.62l0,.13-.13,0a49.11,49.11,0,0,1-16.51,1.27Zm.42-32.09v31.74a48.41,48.41,0,0,0,16-1.24,92.64,92.64,0,0,0,0-29.26A48.67,48.67,0,0,0,376,330.43Z"/><path class="cls-5" d="M375.77,362.34V330.26c-.4,0-.79.08-1.19.13v31.82C375,362.26,375.37,362.31,375.77,362.34Z"/><path class="cls-1" d="M374.58,330.39H366c-2.24,3.91-3.66,9.59-3.66,15.91s1.42,12,3.66,15.91h8.57Z"/><path d="M362.15,346.3c0-6.09,1.34-11.92,3.68-16l.06-.1h8.9v32.22h-8.9l-.06-.1C363.49,358.22,362.15,352.39,362.15,346.3Zm4-15.72c-2.28,4-3.58,9.74-3.58,15.72s1.3,11.7,3.58,15.72h8.23V330.58Z"/><path class="cls-5" d="M434.1,366.63l1.15.39a73.41,73.41,0,0,0,0-41.44l-1.15.39A73.38,73.38,0,0,1,434.1,366.63Z"/><path class="cls-1" d="M434.16,326.54l-14.47,5v29.56l14.47,5A71.37,71.37,0,0,0,434.16,326.54Z"/><path d="M419.48,361.22V331.38l14.82-5.09.06.2a71.54,71.54,0,0,1,0,39.62l-.06.2Zm.41-29.57V361L434,365.8a71.2,71.2,0,0,0,0-39Z"/><path class="cls-4" d="M366,362.16v.2a4.54,4.54,0,0,0,4.66,4.38H371A11.08,11.08,0,0,1,366,362.16Z"/><path class="cls-4" d="M366,330.45v-.21a4.54,4.54,0,0,1,4.66-4.38H371A11,11,0,0,0,366,330.45Z"/><path class="cls-1" d="M422.68,372.2a2,2,0,0,0,1.66-.31l3.28-3.57a.44.44,0,0,0,.11-.18h-3.06l-2.37,4Z"/><path class="cls-4" d="M422,372.25l2.57-4.31H428l-.05.23a.59.59,0,0,1-.15.28L424.5,372a2.14,2.14,0,0,1-1.87.37Zm2.81-3.92L422.61,372l.11,0a1.79,1.79,0,0,0,1.47-.24l3.16-3.44Z"/><path class="cls-1" d="M422.68,320.4a2,2,0,0,1,1.66.31l3.28,3.57a.41.41,0,0,1,.11.19h-3.06l-2.37-4Z"/><path class="cls-4" d="M422,320.35l.65-.14a2.14,2.14,0,0,1,1.87.37l3.28,3.57a.59.59,0,0,1,.15.28l.05.23h-3.43Zm5.37,3.92-3.16-3.43a1.75,1.75,0,0,0-1.47-.25l-.11,0,2.18,3.66Z"/><path class="cls-4" d="M445,356.83c6.85,0,12.87-1.14,16.35-2.87a45.11,45.11,0,0,1-14.49,2.09,55.87,55.87,0,0,1-7.81-.53v1A56.26,56.26,0,0,0,445,356.83Z"/><path class="cls-4" d="M445,335.77c6.85,0,12.87,1.14,16.35,2.87a45.11,45.11,0,0,0-14.49-2.09,55.87,55.87,0,0,0-7.81.53v-1A56.26,56.26,0,0,1,445,335.77Z"/><rect class="cls-1" x="391.16" y="332.55" width="29.57" height="27.49" transform="translate(752.24 -59.64) rotate(90)"/><path d="M392,361.28v-30h27.9v30Zm.41-29.57v29.18h27.08V331.71Z"/><polyline class="cls-6" points="521.48 369.73 509.48 381.23 611.56 365.8 598.73 377.33"/><line class="繧ｰ繝ｩ繝輔ぅ繝け繧ｹ繧ｿ繧､繝ｫ" x1="574.66" y1="99.99" x2="624.05" y2="455.84"/><path d="M173.68,218.53a62.19,62.19,0,0,1-10,3.1l-1.14-3.87c4.76-1,10.08-2.95,12.51-4.6h3.46v42.63h-4.81Z"/><path d="M206.35,235.48a53.38,53.38,0,0,1-1.71,5.07h29.05c-.42,6.3-1.45,11.94-2.74,14.78s-2.95,3.72-7.6,3.72c-2.74,0-6.41-.16-8.94-.36l-.93-3.93c3.56.31,7,.52,9.51.52s3.36-.42,4.08-2.07a47.52,47.52,0,0,0,2-9.15H203.25c-.68,1.45-1.4,2.95-2.18,4.39l-4.18-1.18A70.68,70.68,0,0,0,202,235.48H190.48V232h49.1v3.51Zm25.53-8.21H198.13V212.59h33.75ZM202.31,224h25.38v-8H202.31Z"/><path d="M252.91,233.78a61.17,61.17,0,0,1-6.25,14l-1.92-4.13A58.31,58.31,0,0,0,252.55,225h-7.08v-3.62h7.44V210.31h3.82v11.06h5.38V225h-5.38v4.81a59.36,59.36,0,0,1,6.36,6l-2.17,3.47a57.57,57.57,0,0,0-4.19-5.33v25.43h-3.82ZM281.75,241a38.57,38.57,0,0,0,13.18,11.68l-2.43,3.62A42.35,42.35,0,0,1,279.16,243v16.38h-3.67V243.34A39.71,39.71,0,0,1,262.21,257l-2.58-3.15A36.75,36.75,0,0,0,273.17,241h-9.56v-18.4h11.88v-3.82H260.92v-3.36h14.57v-5.07h3.67v5.07h14.89v3.36H279.16v3.82h12.25V241Zm-14.47-15.25v4.4h8.21v-4.4Zm0,7.55v4.5h8.21v-4.5Zm11.88-3.15h8.63v-4.4h-8.63Zm0,7.65h8.63v-4.5h-8.63Z"/><rect class="cls-7" x="100.7" y="32.7" width="39.3" height="95.53" transform="translate(39.89 200.81) rotate(-90)"/><path class="cls-1" d="M89.82,86.31h15.55V88.4H89.82v1.41H87.49V71.25h17.34v2h-15ZM90.5,84a19.16,19.16,0,0,0,5.41-4,51.44,51.44,0,0,0-4.83-3.52l1.41-1.58a58.79,58.79,0,0,1,4.85,3.4A26.71,26.71,0,0,0,100,73.8l2.09,1a31.62,31.62,0,0,1-3,4.85c1.16,1,2.69,2.32,4.25,3.8l-1.64,1.72c-1.35-1.35-2.86-2.74-4.08-3.8a21.06,21.06,0,0,1-5.77,4.36Z"/><path class="cls-1" d="M119,73.08h-8.69V71.21H130v1.87h-8.81v2h4.43V85.42h-11V75.07H119Zm8.21,13.68V75.07h2.12V89.81h-2.12V88.67H113.07v1.14H111V75.07h2.1V86.76Zm-10.58-10v2.51h2.45V76.77Zm0,4.1v2.8h2.45v-2.8Zm4.48-1.59h2.55V76.77h-2.55Zm0,4.39h2.55v-2.8h-2.55Z"/><path class="cls-1" d="M153.18,89.81h-2.26V88.75H137.48v1.06h-2.24V71.07h17.94Zm-15.7-3h13.44V73H137.48Zm11.51-.9c-1.31-.81-2.84-1.68-4.23-2.38a17.75,17.75,0,0,1-5.37,3L138.1,85a13.52,13.52,0,0,0,4.67-2.45l-.54-.25c-1.35-.66-2.34-1.09-4.1-1.82l.93-1.54c2.09.77,3.3,1.25,5.29,2.18a17.36,17.36,0,0,0,3.85-7l2,.62A23.37,23.37,0,0,1,146.27,82l.19.1c1,.52,2.18,1.14,3.75,2.07Zm-8.73-6.78a19.38,19.38,0,0,0-1.66-4.06l1.91-.77a21.43,21.43,0,0,1,1.72,4Zm3.57-.81a24.27,24.27,0,0,0-1.68-4.08l1.82-.73a18.76,18.76,0,0,1,1.72,4Z"/></g></svg>