<svg xmlns="http://www.w3.org/2000/svg" width="700" height="500" viewBox="0 0 700 500"><defs><style>.cls-1,.繧ｰ繝ｩ繝輔ぅ繝け繧ｹ繧ｿ繧､繝ｫ-3,.繧ｰ繝ｩ繝輔ぅ繝け繧ｹ繧ｿ繧､繝ｫ-4,.繧ｰ繝ｩ繝輔ぅ繝け繧ｹ繧ｿ繧､繝ｫ-8{fill:#fff;}.cls-2,.cls-3,.cls-7,.繧ｰ繝ｩ繝輔ぅ繝け繧ｹ繧ｿ繧､繝ｫ,.繧ｰ繝ｩ繝輔ぅ繝け繧ｹ繧ｿ繧､繝ｫ-7{fill:none;}.cls-2,.cls-3,.繧ｰ繝ｩ繝輔ぅ繝け繧ｹ繧ｿ繧､繝ｫ,.繧ｰ繝ｩ繝輔ぅ繝け繧ｹ繧ｿ繧､繝ｫ-2,.繧ｰ繝ｩ繝輔ぅ繝け繧ｹ繧ｿ繧､繝ｫ-3,.繧ｰ繝ｩ繝輔ぅ繝け繧ｹ繧ｿ繧､繝ｫ-4,.繧ｰ繝ｩ繝輔ぅ繝け繧ｹ繧ｿ繧､繝ｫ-7,.繧ｰ繝ｩ繝輔ぅ繝け繧ｹ繧ｿ繧､繝ｫ-8{stroke:#000;}.cls-2,.cls-3{stroke-linecap:round;}.cls-2,.cls-3,.cls-7{stroke-linejoin:round;}.cls-2{stroke-width:1.43px;}.cls-3{stroke-width:1.83px;}.cls-4{fill:#e83589;}.繧ｰ繝ｩ繝輔ぅ繝け繧ｹ繧ｿ繧､繝ｫ-7{stroke-linejoin:bevel;}.繧ｰ繝ｩ繝輔ぅ繝け繧ｹ繧ｿ繧､繝ｫ-7,.繧ｰ繝ｩ繝輔ぅ繝け繧ｹ繧ｿ繧､繝ｫ-8{stroke-width:1.5px;}.繧ｰ繝ｩ繝輔ぅ繝け繧ｹ繧ｿ繧､繝ｫ-2{fill:#d8eacc;}.繧ｰ繝ｩ繝輔ぅ繝け繧ｹ繧ｿ繧､繝ｫ,.繧ｰ繝ｩ繝輔ぅ繝け繧ｹ繧ｿ繧､繝ｫ-2,.繧ｰ繝ｩ繝輔ぅ繝け繧ｹ繧ｿ繧､繝ｫ-3{stroke-width:2px;}.繧ｰ繝ｩ繝輔ぅ繝け繧ｹ繧ｿ繧､繝ｫ,.繧ｰ繝ｩ繝輔ぅ繝け繧ｹ繧ｿ繧､繝ｫ-3,.繧ｰ繝ｩ繝輔ぅ繝け繧ｹ繧ｿ繧､繝ｫ-4,.繧ｰ繝ｩ繝輔ぅ繝け繧ｹ繧ｿ繧､繝ｫ-8{stroke-miterlimit:10;}.繧ｰ繝ｩ繝輔ぅ繝け繧ｹ繧ｿ繧､繝ｫ-4{stroke-width:1.27px;}.cls-5{fill:#030201;}.cls-6{fill:#242323;}.cls-7{stroke:#fff;stroke-width:0.75px;}</style></defs><title>kukakuzu</title><g id="レイヤー_2" data-name="レイヤー 2"><rect class="cls-1" width="700" height="500"/><polyline class="cls-2" points="88.87 314.8 88.87 303.06 95.77 314.8 95.77 303.06"/><circle class="cls-3" cx="101.3" cy="344.46" r="24.35"/><polygon points="105.03 357.6 117.89 361.25 94.81 321.61 96.01 367.47 105.03 357.6"/><rect class="cls-4" x="83.54" y="209.6" width="39.3" height="95.53" transform="translate(-154.17 360.55) rotate(-90)"/><path class="cls-1" d="M72.66,263.21H88.21v2.09H72.66v1.41H70.33V248.15H87.67v2h-15Zm.68-2.35a19.35,19.35,0,0,0,5.41-4,53.29,53.29,0,0,0-4.83-3.53l1.41-1.57a56.47,56.47,0,0,1,4.85,3.4,26.71,26.71,0,0,0,2.7-4.44l2.09,1a31.62,31.62,0,0,1-3,4.85c1.16.95,2.69,2.32,4.25,3.79l-1.64,1.73c-1.35-1.35-2.86-2.74-4.09-3.8a21.07,21.07,0,0,1-5.76,4.36Z"/><path class="cls-1" d="M101.82,250H93.13v-1.87h19.7V250H104v2h4.43v10.34h-11V252h4.34ZM110,263.66V252h2.12v14.74H110v-1.14H95.91v1.14h-2.1V252h2.1v11.69Zm-10.58-10v2.51h2.45v-2.51Zm0,4.1v2.8h2.45v-2.8Zm4.48-1.59h2.55v-2.51h-2.55Zm0,4.39h2.55v-2.8h-2.55Z"/><path class="cls-1" d="M136,266.71h-2.26v-1.06H120.32v1.06h-2.24V248H136Zm-15.7-3h13.44V249.85H120.32Zm11.51-.89c-1.31-.81-2.84-1.68-4.23-2.38a17.52,17.52,0,0,1-5.37,3l-1.29-1.55a13.52,13.52,0,0,0,4.67-2.45l-.54-.25c-1.35-.66-2.34-1.1-4.11-1.82l.94-1.54c2.09.77,3.29,1.25,5.29,2.18a17.36,17.36,0,0,0,3.85-7l2,.62a23.21,23.21,0,0,1-3.94,7.34l.19.11c1,.52,2.18,1.14,3.75,2.07ZM123.1,256a19.15,19.15,0,0,0-1.66-4.06l1.91-.77a21.43,21.43,0,0,1,1.72,4Zm3.57-.81a24.27,24.27,0,0,0-1.68-4.08l1.82-.73a18.91,18.91,0,0,1,1.72,4Z"/><path d="M584,259.4V261h-9.64v2.81h7.43v8.75c0,1.27-.57,1.73-2.13,1.73-.9,0-1.8,0-2.7-.13l-.28-1.67a18.21,18.21,0,0,0,2.65.22c.57,0,.7-.11.7-.63v-6.74h-5.67v11.91h-1.74V265.31h-5.39v9.19H565.5V263.78h7.12V261h-9.45V259.4h9.45v-3h1.74v3Z"/><path d="M568.08,295.91c1.78,1.77,3.82,2.45,7.5,2.47h8.62a8.93,8.93,0,0,0-.53,1.56h-8.33c-3.84,0-6-.77-7.85-2.67a21.21,21.21,0,0,1-3.42,3.22l-1-1.56a20.61,20.61,0,0,0,3.31-2.52v-5.88h-3.25V289h4.91Zm-.94-11a22.24,22.24,0,0,0-3.2-3.72l1.21-1a21.36,21.36,0,0,1,3.28,3.57Zm2.15-1.16v-1.38h3.88a13.22,13.22,0,0,0-1.4-2.1l1.53-.6a16.39,16.39,0,0,1,1.58,2.7h2.85a22.16,22.16,0,0,0,1.21-2.74l1.73.44a17.38,17.38,0,0,1-1.25,2.3h4.1v1.38h-6.34c-.11.37-.46,1.3-.68,1.82H582V296.8H570.85V285.62h4a15,15,0,0,0,.57-1.82Zm3.18,5.09h7.89v-2h-7.89Zm0,3.18h7.89v-2h-7.89Zm0,3.44h7.89v-2.19h-7.89Z"/><path d="M540.07,208.69a26.4,26.4,0,0,0-3.42-3.37l1.16-1.21a20.93,20.93,0,0,1,3.49,3.29Zm-2.9,8.93a32.82,32.82,0,0,0,3.86-7.19l1.38,1.07a36.91,36.91,0,0,1-3.83,7.41Zm3.69-14.52a23.83,23.83,0,0,0-3.34-3.42l1.14-1.14a20.4,20.4,0,0,1,3.43,3.27Zm8.68,6.23,0,0a48.33,48.33,0,0,1-3.12,6.8l-.08.2,1.62-.13c1.62-.14,4.1-.4,6-.66-.68-1.14-1.47-2.33-2.3-3.49l1.38-.77a39.52,39.52,0,0,1,4.32,6.65l-1.56,1c-.5-1-.72-1.47-1.09-2.13l-.22,0c-2.44.48-7.61,1.16-11.21,1.47l-.57-1.73.88-.05.26,0,.6,0a50.4,50.4,0,0,0,3.24-7.28h-5.53v-1.47h6.69v-4.43h-5.5v-1.51h5.5v-3.53h1.71v3.53h5.83v1.51h-5.83v4.43h7v1.47h-8Z"/><path d="M547.92,265.6h-1.69v-7a21.39,21.39,0,0,1-8.53,6.14l-1-1.4a21.38,21.38,0,0,0,8.11-5.16h-8V256.7h9.45v-2.39h1.69v2.39h9.6v1.46h-8.11a22.79,22.79,0,0,0,8.24,4.65l-1.07,1.54a22.11,22.11,0,0,1-8.66-5.9Zm5.94-18.77a20.18,20.18,0,0,1-5,4.58,30.11,30.11,0,0,0,8.33,2.59l-.9,1.49a33.85,33.85,0,0,1-8.92-3.14,30.43,30.43,0,0,1-9.19,3.36l-.88-1.36a28.9,28.9,0,0,0,8.71-2.87,27.93,27.93,0,0,1-3.12-2.77,18.44,18.44,0,0,1-3.81,2.35L538,249.92a15.06,15.06,0,0,0,6.56-5.24l1.67.33c-.33.5-.42.59-.73,1H553Zm-9.56.55c-.15.17-.22.22-.35.35a17.08,17.08,0,0,0,3.44,2.87,19.55,19.55,0,0,0,3.93-3.22Z"/><path d="M540.86,285.85c.57-2.35,2.5-4.69,5.46-6.66l.57-.38c3.07-2,3.88-3,3.88-4.56,0-1.8-1.49-3-3.75-3a5.49,5.49,0,0,0-4.54,2.34l-1.38-1.16a7.05,7.05,0,0,1,6-2.94c3.42,0,5.92,2,5.92,4.81,0,2.21-.86,3.24-4.78,5.74l-.79.5c-2.61,1.71-4.26,3.6-4.45,5.18h10.28v1.86H540.86Z"/><path d="M541.47,305.14l.13-.05.09,0c.81-.26,1.84-.66,2.48-.94l.17,1.55a59.15,59.15,0,0,1-7.08,2.59l-.61-1.69c1.23-.33,1.4-.37,2.58-.72l.53-.15V295.38h-2.85v-1.56h7v1.56h-2.39Zm1.56,5.74a13.34,13.34,0,0,0,4.6-3l1.34.89a15.92,15.92,0,0,1-4.74,3.4Zm12.74-15v11.68H545.24V295.91h3.42a22.46,22.46,0,0,0,.6-2.24h-5.49v-1.45h13.55v1.45H551a20.64,20.64,0,0,1-.75,2.24Zm-8.91,1.33v2.13h7.26v-2.13Zm0,5.46h7.26v-2h-7.26Zm0,3.53h7.26V304h-7.26Zm9.26,5.84a28.89,28.89,0,0,0-4.39-3.29l1.21-1a29.29,29.29,0,0,1,4.47,3Z"/><path d="M541.65,330.77c1.77,1.78,3.81,2.46,7.5,2.48h8.61a7.93,7.93,0,0,0-.52,1.56H548.9c-3.83-.05-6-.77-7.85-2.68a20.78,20.78,0,0,1-3.42,3.22l-1-1.55a20.61,20.61,0,0,0,3.31-2.52V325.4h-3.25v-1.49h4.92Zm-.95-10.94a22.75,22.75,0,0,0-3.2-3.73l1.21-1a21.47,21.47,0,0,1,3.29,3.57Zm2.15-1.16v-1.38h3.88a13.29,13.29,0,0,0-1.4-2.11l1.53-.59a15.09,15.09,0,0,1,1.58,2.7h2.85a22.16,22.16,0,0,0,1.21-2.74l1.73.44a18,18,0,0,1-1.25,2.3h4.1v1.38h-6.33c-.11.37-.46,1.29-.68,1.82h5.5v11.18H544.41V320.49h4a13.82,13.82,0,0,0,.57-1.82Zm3.18,5.09h7.9v-2H546Zm0,3.18h7.9v-2H546Zm0,3.44h7.9v-2.19H546Z"/><path d="M545.2,345.77h-2.83v3.47h2.85v1.44h-2.85v4.59c.59-.16,2.26-.64,3.35-1l.16,1.42a76.88,76.88,0,0,1-8.64,2.46l-.57-1.56,1.16-.24v-8.55h1.49V356l.55-.13.53-.13.46-.11v-9.89h-3.2v-7.12h7.54Zm-6-1.42h4.43v-4.24h-4.43Zm16.78-4.3a18.45,18.45,0,0,1-3.23,5.28,18.09,18.09,0,0,0,5,3.05l-.83,1.45a19.54,19.54,0,0,1-5.24-3.42A18.13,18.13,0,0,1,546,350l-.88-1.35a14.47,14.47,0,0,0,5.49-3.36,15.3,15.3,0,0,1-2-2.78l-.08.11-.05.06a13.57,13.57,0,0,1-1.93,2l-1.07-1.17a13.22,13.22,0,0,0,4-5.81l1.62.27c-.24.57-.3.74-.48,1.12h4.25Zm-.09,18.53h-1.6v-1.3h-5.59v1.3h-1.6v-8.64h8.79Zm-7.19-2.74h5.59v-4.43h-5.59Zm.76-14.5a13.88,13.88,0,0,0,2.18,2.94,14.72,14.72,0,0,0,2.36-3.71h-4.08c-.08.16-.17.31-.37.64Z"/><path d="M541.6,223.68v11.86H545v1.69h-3.4v4.32h-1.93v-4.32h-9v-1.66l8.55-11.89Zm-1.93,5.55c0-1,.05-2.72.11-3.79h-.09a23.39,23.39,0,0,1-1.6,2.78l-5.22,7.32h6.8Z"/><path d="M547,239.82c.58-2.35,2.5-4.69,5.46-6.67l.58-.37c3.06-2,3.88-3,3.88-4.56,0-1.8-1.5-3-3.75-3a5.47,5.47,0,0,0-4.54,2.34l-1.38-1.16a7,7,0,0,1,6-2.94c3.42,0,5.92,2,5.92,4.8,0,2.22-.85,3.25-4.78,5.75l-.79.5c-2.6,1.71-4.25,3.6-4.45,5.18h10.29v1.86H547Z"/><g id="アートワーク_5" data-name="アートワーク 5"><polyline class="繧ｰ繝ｩ繝輔ぅ繝け繧ｹ繧ｿ繧､繝ｫ-7" points="586.9 110.55 595.52 118.12 519.63 118.21 528.66 125.16"/><polyline class="繧ｰ繝ｩ繝輔ぅ繝け繧ｹ繧ｿ繧､繝ｫ-7" points="458.01 111.69 454.95 120.95 424.59 50.2 422.15 59.56"/><polyline class="繧ｰ繝ｩ繝輔ぅ繝け繧ｹ繧ｿ繧､繝ｫ-7" points="586.9 457.87 595.52 465.44 519.63 465.54 528.66 472.48"/><polygon class="繧ｰ繝ｩ繝輔ぅ繝け繧ｹ繧ｿ繧､繝ｫ-2" points="386.86 143.76 201.56 202.84 201.56 465.18 363.46 465.18 363.46 179.6 386.86 179.6 386.86 143.76"/><polygon class="繧ｰ繝ｩ繝輔ぅ繝け繧ｹ繧ｿ繧､繝ｫ-2" points="498.38 106.38 386.86 143.76 386.86 179.6 363.46 179.6 363.46 465.18 519.83 465.18 519.83 118.77 498.38 106.38"/><polygon class="繧ｰ繝ｩ繝輔ぅ繝け繧ｹ繧ｿ繧､繝ｫ-8" points="319.94 286.01 319.94 250.02 279.7 250.02 279.7 286.58 217.22 286.58 217.22 452.87 347.81 452.87 347.81 286.01 319.94 286.01"/><rect class="繧ｰ繝ｩ繝輔ぅ繝け繧ｹ繧ｿ繧､繝ｫ-4" x="326.16" y="264.73" width="36.03" height="6.62" transform="translate(612.21 -76.14) rotate(90)"/><rect class="繧ｰ繝ｩ繝輔ぅ繝け繧ｹ繧ｿ繧､繝ｫ-8" x="319.54" y="264.73" width="36.03" height="6.62" transform="translate(605.59 -69.52) rotate(90)"/><rect class="繧ｰ繝ｩ繝輔ぅ繝け繧ｹ繧ｿ繧､繝ｫ-4" x="309.01" y="260.82" width="36.03" height="14.44" transform="translate(595.06 -58.99) rotate(90)"/><polygon points="321.4 268.04 329.87 274.61 329.87 261.46 321.4 268.04"/><rect class="繧ｰ繝ｩ繝輔ぅ繝け繧ｹ繧ｿ繧､繝ｫ-8" x="378.65" y="226.41" width="125.99" height="212.18"/><rect class="繧ｰ繝ｩ繝輔ぅ繝け繧ｹ繧ｿ繧､繝ｫ-4" x="378.65" y="226.41" width="36.03" height="6.62"/><rect class="繧ｰ繝ｩ繝輔ぅ繝け繧ｹ繧ｿ繧､繝ｫ-4" x="378.65" y="233.03" width="36.03" height="6.62"/><rect class="繧ｰ繝ｩ繝輔ぅ繝け繧ｹ繧ｿ繧､繝ｫ-4" x="378.65" y="239.66" width="36.03" height="14.44"/><polygon points="396.67 252.49 403.24 244.02 390.09 244.02 396.67 252.49"/><path class="cls-1" d="M257.15,280.35a58.33,58.33,0,0,1-13.85,0c-5.32-.67-9.3-6.06-9-11a473,473,0,0,0,0-48.37c-.27-4.68,3.51-9.79,8.55-10.46a58.34,58.34,0,0,1,14.82,0c5.05.67,8.83,5.78,8.55,10.46a473,473,0,0,0,0,48.37C266.45,274.29,262.47,279.68,257.15,280.35Z"/><path class="cls-5" d="M250.22,280.94a59.56,59.56,0,0,1-6.94-.41,11,11,0,0,1-9.17-11.17,475.45,475.45,0,0,0,0-48.35,10.56,10.56,0,0,1,8.71-10.65,59.67,59.67,0,0,1,14.87,0,10.54,10.54,0,0,1,8.7,10.65,475.45,475.45,0,0,0,0,48.35,11,11,0,0,1-9.17,11.17h0A59.73,59.73,0,0,1,250.22,280.94Zm0-70.69a58.85,58.85,0,0,0-7.38.46,10.18,10.18,0,0,0-8.4,10.28,476.24,476.24,0,0,1,0,48.39,10.63,10.63,0,0,0,8.85,10.79,59.07,59.07,0,0,0,13.81,0A10.64,10.64,0,0,0,266,269.38,476.24,476.24,0,0,1,266,221a10.18,10.18,0,0,0-8.4-10.28A58.89,58.89,0,0,0,250.22,210.25Z"/><path class="cls-6" d="M261.27,271.28H239.18c0,.26,0,.52.09.77h21.91Z"/><path class="cls-5" d="M263.52,263.37l-.19-.66a65.83,65.83,0,0,1-2.12-17.6c0-.73,0-1.47,0-2.2l0,0L264.6,235v.62c.05,1.83.07,3.65.07,5.39a211.74,211.74,0,0,1-1.09,21.71Zm-2-20.43c0,.72,0,1.45,0,2.17A67.28,67.28,0,0,0,263.4,262c.67-6.73,1-13.79,1-21,0-1.54,0-3.14-.05-4.76Z"/><path class="cls-5" d="M236.92,263.37l-.07-.68A211.79,211.79,0,0,1,235.77,241c0-1.73,0-3.54.07-5.39V235l3.36,7.94c0,.73,0,1.47,0,2.2a65.83,65.83,0,0,1-2.12,17.6Zm-.83-27.15c0,1.63-.05,3.23-.05,4.76,0,7.19.34,14.25,1,21A67.31,67.31,0,0,0,239,245.11c0-.72,0-1.45,0-2.17Z"/><path class="cls-1" d="M264.36,233.46v-11.6A12.4,12.4,0,0,0,252,209.48h-3.55a12.4,12.4,0,0,0-12.36,12.38v11.6a63.24,63.24,0,0,1,28.27,0Z"/><path d="M264.5,233.63l-.17,0A61.38,61.38,0,0,0,250.22,232H250a62.06,62.06,0,0,0-13.92,1.59l-.17,0V221.86a12.52,12.52,0,0,1,12.5-12.51H252a12.52,12.52,0,0,1,12.5,12.51Zm-16.05-24a12.25,12.25,0,0,0-12.23,12.24v11.43A62.31,62.31,0,0,1,250,231.73h.37a62.38,62.38,0,0,1,13.82,1.56V221.86A12.25,12.25,0,0,0,252,209.62Z"/><path class="cls-1" d="M260.44,260.61a67.92,67.92,0,0,0-20.43,0,29.78,29.78,0,0,0-.87,10.68h22.17A29.78,29.78,0,0,0,260.44,260.61Z"/><path d="M261.43,271.42H239l0-.12a30,30,0,0,1,.88-10.72l0-.09H240a68.19,68.19,0,0,1,20.47,0h.09l0,.09a30,30,0,0,1,.87,10.72Zm-22.17-.26h21.93a29.52,29.52,0,0,0-.86-10.43,68.45,68.45,0,0,0-20.21,0A29.54,29.54,0,0,0,239.26,271.16Z"/><path class="cls-6" d="M261.31,271.29H239.14c0,.26.05.52.09.77h22Z"/><path class="cls-1" d="M239.23,272.06v5.57a26.59,26.59,0,0,0,22,0v-5.57Z"/><path d="M250.22,280.14a24.24,24.24,0,0,1-11.06-2.39l-.07,0v-5.78h22.26v5.78l-.07,0A24.21,24.21,0,0,1,250.22,280.14Zm-10.86-2.59a26.6,26.6,0,0,0,21.73,0V272.2H239.36Z"/><path class="cls-6" d="M264.27,233.39l.27-.75a53.75,53.75,0,0,0-28.64,0l.28.75A53.75,53.75,0,0,1,264.27,233.39Z"/><path class="cls-1" d="M236.57,233.35l3.44,9.4h20.43l3.44-9.4A52.27,52.27,0,0,0,236.57,233.35Z"/><path d="M260.53,242.89H239.91l-3.51-9.63.14,0a52.5,52.5,0,0,1,27.37,0l.14,0Zm-20.43-.27h20.25l3.35-9.18a52.18,52.18,0,0,0-26.95,0Z"/><path class="cls-5" d="M261.18,277.62h.14a3,3,0,0,0,3-3v-.23A7.28,7.28,0,0,1,261.18,277.62Z"/><path class="cls-5" d="M239.27,277.62h-.14a3,3,0,0,1-3-3v-.23A7.28,7.28,0,0,0,239.27,277.62Z"/><path class="cls-1" d="M268.12,240.81a1.21,1.21,0,0,0-.21-1.08l-2.47-2.13a.24.24,0,0,0-.13-.07v2l2.75,1.54Z"/><path class="cls-5" d="M268.15,241.26l-3-1.67v-2.22l.16,0a.37.37,0,0,1,.19.09l2.47,2.14a1.33,1.33,0,0,1,.25,1.21Zm-2.7-1.82,2.52,1.42,0-.08a1.09,1.09,0,0,0-.17-.95l-2.37-2.05Z"/><path class="cls-1" d="M232.33,240.81a1.18,1.18,0,0,1,.21-1.08L235,237.6a.24.24,0,0,1,.13-.07v2l-2.76,1.54Z"/><path class="cls-5" d="M232.29,241.26l-.09-.42a1.33,1.33,0,0,1,.25-1.21l2.47-2.14a.37.37,0,0,1,.19-.09l.16,0v2.22Zm2.71-3.48-2.37,2.05a1.06,1.06,0,0,0-.17.95v.08l2.53-1.42Z"/><path class="cls-5" d="M257.5,226.3c0-4.45-.79-8.36-2-10.63a27.84,27.84,0,0,1,1.44,9.42,35,35,0,0,1-.36,5.08h.69A34.11,34.11,0,0,0,257.5,226.3Z"/><path class="cls-5" d="M243,226.3c0-4.45.79-8.36,2-10.63a27.59,27.59,0,0,0-1.44,9.42,35,35,0,0,0,.36,5.08h-.7A36.67,36.67,0,0,1,243,226.3Z"/><rect class="cls-1" x="240.01" y="242.75" width="20.43" height="17.86"/><path d="M260.57,260.75h-20.7V242.62h20.7Zm-20.43-.27h20.17V242.89H240.14Z"/><path class="cls-1" d="M284.5,215.76A58.32,58.32,0,0,1,280,202.67c-1.11-5.24,2.69-10.77,7.44-12.1a475.33,475.33,0,0,0,45.7-15.83c4.33-1.79,10.4.11,12.69,4.66a59.31,59.31,0,0,1,4.84,14c1,5-2.59,10.23-7.1,11.5a472.67,472.67,0,0,0-45.72,15.78C293.26,222.57,286.87,220.57,284.5,215.76Z"/><path class="cls-5" d="M281.68,209.41a57.38,57.38,0,0,1-1.88-6.7,11,11,0,0,1,7.56-12.32A473.12,473.12,0,0,0,333,174.57,10.55,10.55,0,0,1,346,179.32a58.92,58.92,0,0,1,4.86,14.05,10.54,10.54,0,0,1-7.22,11.71,475,475,0,0,0-45.7,15.78,11,11,0,0,1-13.55-5h0A60,60,0,0,1,281.68,209.41Zm66.81-23.1a60,60,0,0,0-2.85-6.83,10.18,10.18,0,0,0-12.46-4.58,477.67,477.67,0,0,1-45.72,15.84,10.65,10.65,0,0,0-7.32,11.9,59.34,59.34,0,0,0,4.52,13.05,10.63,10.63,0,0,0,13.09,4.83,476.7,476.7,0,0,1,45.74-15.78,10.17,10.17,0,0,0,7-11.3A60.69,60.69,0,0,0,348.49,186.31Z"/><path class="cls-6" d="M294.42,216.69l-7.22-20.88-.71.34,7.17,20.71Z"/><path class="cls-5" d="M302.63,216.24l.56-.4a66.14,66.14,0,0,1,15.94-7.76c.69-.24,1.39-.47,2.09-.69h0l8.55.59-.58.22c-1.72.64-3.42,1.25-5.07,1.82a211.06,211.06,0,0,1-20.87,6.07Zm18.65-8.59-2.06.68a67.37,67.37,0,0,0-15.3,7.33c6.59-1.57,13.36-3.55,20.16-5.9,1.46-.51,3-1,4.48-1.61Z"/><path class="cls-5" d="M293.94,191.1l.62-.29a213.34,213.34,0,0,1,20.16-8.12c1.63-.56,3.36-1.13,5.11-1.7l.59-.18-6.4,5.76c-.68.26-1.38.51-2.07.75a65.9,65.9,0,0,1-17.33,3.75Zm25.38-9.66c-1.55.5-3.06,1-4.51,1.5-6.8,2.35-13.35,5-19.5,7.82a67.46,67.46,0,0,0,16.55-3.69c.68-.24,1.37-.48,2.05-.74Z"/><path class="cls-1" d="M331.17,207.26l11-3.79a12.41,12.41,0,0,0,7.66-15.73l-1.16-3.36a12.41,12.41,0,0,0-15.74-7.64l-11,3.79a63.34,63.34,0,0,1,9.24,26.73Z"/><path d="M331.06,207.44l0-.17a60.9,60.9,0,0,0-3.11-13.85l-.06-.18a62.37,62.37,0,0,0-6.05-12.64l-.09-.14,11.12-3.84a12.52,12.52,0,0,1,15.91,7.72l1.16,3.35a12.52,12.52,0,0,1-7.74,15.9Zm17.45-23a12.25,12.25,0,0,0-15.57-7.55l-10.8,3.73a63,63,0,0,1,6,12.55l.12.36a62.59,62.59,0,0,1,3,13.56l10.8-3.73a12.26,12.26,0,0,0,7.58-15.56Z"/><path class="cls-1" d="M304.23,212.42a68.19,68.19,0,0,0-6.68-19.31,29.46,29.46,0,0,0-10.37,2.67l7.24,20.95A29.59,29.59,0,0,0,304.23,212.42Z"/><path d="M294.33,216.89,287,195.71l.11-.05A29.74,29.74,0,0,1,297.54,193h.09l0,.08a68.36,68.36,0,0,1,6.69,19.35l0,.08-.08.05a29.74,29.74,0,0,1-9.85,4.33Zm-7-21,7.17,20.73a29.73,29.73,0,0,0,9.57-4.22,67.82,67.82,0,0,0-6.61-19.11A29.81,29.81,0,0,0,287.34,195.85Z"/><path class="cls-6" d="M294.42,216.73l-7.24-20.95-.71.34,7.19,20.78Z"/><path class="cls-1" d="M286.47,196.12l-5.26,1.82a26.62,26.62,0,0,0,7.19,20.78l5.26-1.82Z"/><path d="M282.43,209.15a24.23,24.23,0,0,1-1.35-11.24v-.08l5.47-1.88,7.27,21-5.46,1.89-.06-.05A24.24,24.24,0,0,1,282.43,209.15ZM281.33,198a26.52,26.52,0,0,0,7.1,20.53l5.06-1.75-7.1-20.53Z"/><path class="cls-6" d="M331.21,207.15h.8a53.92,53.92,0,0,0-9.36-27.07l-.62.51A53.78,53.78,0,0,1,331.21,207.15Z"/><path class="cls-1" d="M322.19,181l-7.76,6.32,6.68,19.31,10,.17A52.39,52.39,0,0,0,322.19,181Z"/><path d="M321,206.72l-6.74-19.49,8-6.47.09.12a52.45,52.45,0,0,1,8.94,25.87v.15Zm-6.42-19.4,6.61,19.13,9.77.17a52.22,52.22,0,0,0-8.8-25.47Z"/><path class="cls-5" d="M288.39,218.68l.05.13a3,3,0,0,0,3.85,1.87l.21-.07A7.3,7.3,0,0,1,288.39,218.68Z"/><path class="cls-5" d="M281.23,198l0-.13a3,3,0,0,1,1.87-3.85l.21-.07A7.34,7.34,0,0,0,281.23,198Z"/><path class="cls-1" d="M325.45,213.21a1.24,1.24,0,0,0,1-.55l1.2-3a.27.27,0,0,0,0-.15l-1.88.65-.56,3.11Z"/><path class="cls-5" d="M325,213.39l.6-3.36,2.11-.73,0,.17a.4.4,0,0,1,0,.21l-1.21,3a1.33,1.33,0,0,1-1.06.64Zm.84-3.16-.52,2.86h.08a1.09,1.09,0,0,0,.84-.47l1.16-2.92Z"/><path class="cls-1" d="M313.75,179.38a1.25,1.25,0,0,1,1.1-.15l2.82,1.63a.31.31,0,0,1,.1.1l-1.87.65-2.36-2.09Z"/><path class="cls-5" d="M313.32,179.5l.36-.23a1.36,1.36,0,0,1,1.24-.16l2.82,1.64a.43.43,0,0,1,.15.15l.08.14-2.1.73Zm4.18,1.42-2.72-1.57a1.08,1.08,0,0,0-.95.14l-.07,0,2.17,1.92Z"/><path class="cls-5" d="M335.7,198.43c4.2-1.45,7.64-3.48,9.39-5.34a28,28,0,0,1-8.43,4.44,34.39,34.39,0,0,1-4.92,1.31l.23.66A35.52,35.52,0,0,0,335.7,198.43Z"/><path class="cls-5" d="M330.94,184.68c4.21-1.46,8.16-2,10.69-1.6a27.67,27.67,0,0,0-9.37,1.71,33.93,33.93,0,0,0-4.68,2l-.23-.66A34,34,0,0,1,330.94,184.68Z"/><rect class="cls-1" x="299.11" y="190.92" width="20.43" height="17.86" transform="translate(397.12 -157.8) rotate(70.93)"/><path d="M304.14,212.59,297.38,193l17.13-5.92,6.77,19.56Zm-6.42-19.39,6.59,19.05,16.63-5.75-6.59-19.05Z"/><path class="cls-1" d="M439.71,218.55a58.42,58.42,0,0,1-13.86,0c-5.32-.67-9.29-6.06-9-11a473,473,0,0,0,0-48.37c-.28-4.68,3.5-9.79,8.55-10.46a58.34,58.34,0,0,1,14.82,0c5.05.67,8.83,5.78,8.55,10.46a473,473,0,0,0,0,48.37C449,212.49,445,217.88,439.71,218.55Z"/><path class="cls-5" d="M432.78,219.14a59.86,59.86,0,0,1-6.95-.41,11,11,0,0,1-9.17-11.17,472.58,472.58,0,0,0,0-48.35,10.55,10.55,0,0,1,8.7-10.65,59.67,59.67,0,0,1,14.87,0,10.55,10.55,0,0,1,8.71,10.65,475.45,475.45,0,0,0,0,48.35,11,11,0,0,1-9.16,11.17h0A59.86,59.86,0,0,1,432.78,219.14Zm0-70.69a60.84,60.84,0,0,0-7.39.46A10.18,10.18,0,0,0,417,159.19a476.24,476.24,0,0,1,0,48.39,10.65,10.65,0,0,0,8.86,10.8,59,59,0,0,0,13.8,0,10.65,10.65,0,0,0,8.86-10.8,473.36,473.36,0,0,1,0-48.39,10.18,10.18,0,0,0-8.39-10.28A60.84,60.84,0,0,0,432.78,148.45Z"/><path class="cls-6" d="M443.83,209.48h-22.1l.09.78h21.92Z"/><path class="cls-5" d="M446.08,201.57l-.19-.66a65.75,65.75,0,0,1-2.13-17.6c0-.72,0-1.47,0-2.2v-.05l3.35-7.89,0,.62c0,1.83.06,3.65.06,5.39a211.79,211.79,0,0,1-1.08,21.71Zm-2-20.43c0,.73,0,1.46,0,2.17A67.31,67.31,0,0,0,446,200.16c.67-6.73,1-13.79,1-21,0-1.54,0-3.14-.06-4.76Z"/><path class="cls-5" d="M419.48,201.57l-.07-.68a211.79,211.79,0,0,1-1.08-21.71c0-1.73,0-3.54.06-5.39l0-.62,3.36,7.94c0,.73,0,1.48,0,2.2a65.75,65.75,0,0,1-2.13,17.6Zm-.83-27.15c0,1.63-.06,3.23-.06,4.76a209.72,209.72,0,0,0,1,21,67.31,67.31,0,0,0,1.92-16.85c0-.71,0-1.44,0-2.17Z"/><path class="cls-1" d="M446.92,171.66v-11.6a12.41,12.41,0,0,0-12.36-12.38H431a12.4,12.4,0,0,0-12.36,12.38v11.6a63.28,63.28,0,0,1,28.28,0Z"/><path d="M447.05,171.83l-.16,0a61.38,61.38,0,0,0-14.11-1.59h-.19a62.06,62.06,0,0,0-13.92,1.59l-.16,0V160.06A12.51,12.51,0,0,1,431,147.55h3.56a12.51,12.51,0,0,1,12.49,12.51Zm-16.05-24a12.24,12.24,0,0,0-12.22,12.24v11.43a62.82,62.82,0,0,1,13.81-1.56H433a62.82,62.82,0,0,1,13.81,1.56V160.06a12.24,12.24,0,0,0-12.22-12.24Z"/><path class="cls-1" d="M443,198.81a68.65,68.65,0,0,0-20.44,0,29.78,29.78,0,0,0-.87,10.68h22.18A29.78,29.78,0,0,0,443,198.81Z"/><path d="M444,209.63H421.57v-.13a30,30,0,0,1,.87-10.72l0-.09h.08a68.85,68.85,0,0,1,20.47,0h.09l0,.09A29.78,29.78,0,0,1,444,209.5Zm-22.18-.27h21.93a29.77,29.77,0,0,0-.85-10.43,68.52,68.52,0,0,0-20.22,0A30,30,0,0,0,421.81,209.36Z"/><path class="cls-6" d="M443.87,209.49H421.69l.09.78h22Z"/><path class="cls-1" d="M421.78,210.27v5.56a26.61,26.61,0,0,0,22,0v-5.56Z"/><path d="M432.78,218.34A24.21,24.21,0,0,1,421.72,216l-.07,0v-5.78h22.26v5.78l-.07,0A24.21,24.21,0,0,1,432.78,218.34Zm-10.86-2.59a26.47,26.47,0,0,0,21.72,0V210.4H421.92Z"/><path class="cls-6" d="M446.83,171.59l.27-.75a53.75,53.75,0,0,0-28.64,0l.27.75A53.79,53.79,0,0,1,446.83,171.59Z"/><path class="cls-1" d="M419.13,171.55l3.43,9.4H443l3.44-9.4A52.45,52.45,0,0,0,419.13,171.55Z"/><path d="M443.09,181.09H422.47L419,171.46l.14,0a52.54,52.54,0,0,1,27.38,0l.14,0Zm-20.43-.27H442.9l3.36-9.18a52.22,52.22,0,0,0-27,0Z"/><path class="cls-5" d="M443.74,215.83h.14a3,3,0,0,0,3-3v-.22A7.3,7.3,0,0,1,443.74,215.83Z"/><path class="cls-5" d="M421.82,215.83h-.14a3,3,0,0,1-3-3v-.22A7.3,7.3,0,0,0,421.82,215.83Z"/><path class="cls-1" d="M450.68,179a1.21,1.21,0,0,0-.22-1.08L448,175.8a.33.33,0,0,0-.13-.07v2l2.75,1.54Z"/><path class="cls-5" d="M450.71,179.46l-3-1.66v-2.23l.16,0a.35.35,0,0,1,.19.1l2.47,2.13a1.33,1.33,0,0,1,.26,1.21ZM448,177.64l2.53,1.42,0-.08a1.13,1.13,0,0,0-.17-.95L448,176Z"/><path class="cls-1" d="M414.88,179a1.18,1.18,0,0,1,.22-1.08l2.46-2.13a.28.28,0,0,1,.13-.07v2l-2.75,1.54Z"/><path class="cls-5" d="M414.85,179.46l-.1-.42a1.31,1.31,0,0,1,.26-1.21l2.46-2.13a.42.42,0,0,1,.2-.1l.16,0v2.23Zm2.71-3.48L415.18,178a1.13,1.13,0,0,0-.17.95l0,.08,2.53-1.42Z"/><path class="cls-5" d="M440.06,164.5c0-4.45-.79-8.36-2-10.62a27.55,27.55,0,0,1,1.45,9.41,33.49,33.49,0,0,1-.37,5.08h.7A36.59,36.59,0,0,0,440.06,164.5Z"/><path class="cls-5" d="M425.5,164.5c0-4.45.79-8.36,2-10.62a27.82,27.82,0,0,0-1.44,9.41,33.49,33.49,0,0,0,.37,5.08h-.7A34.11,34.11,0,0,1,425.5,164.5Z"/><rect class="cls-1" x="422.56" y="180.95" width="20.43" height="17.86"/><path d="M443.13,199h-20.7V180.82h20.7Zm-20.43-.27h20.16V181.09H422.7Z"/><path class="cls-1" d="M489.65,218.55a58.33,58.33,0,0,1-13.85,0c-5.32-.67-9.3-6.06-9-11a475.85,475.85,0,0,0,0-48.37c-.27-4.68,3.5-9.79,8.55-10.46a58.34,58.34,0,0,1,14.82,0c5.05.67,8.83,5.78,8.55,10.46a473,473,0,0,0,0,48.37C499,212.49,495,217.88,489.65,218.55Z"/><path class="cls-5" d="M482.72,219.14a59.86,59.86,0,0,1-7-.41,11,11,0,0,1-9.16-11.17,475.45,475.45,0,0,0,0-48.35,10.56,10.56,0,0,1,8.71-10.65,59.67,59.67,0,0,1,14.87,0,10.54,10.54,0,0,1,8.7,10.65,472.58,472.58,0,0,0,0,48.35,11,11,0,0,1-9.17,11.17h0A59.86,59.86,0,0,1,482.72,219.14Zm0-70.69a60.84,60.84,0,0,0-7.39.46,10.19,10.19,0,0,0-8.39,10.28,473.36,473.36,0,0,1,0,48.39,10.66,10.66,0,0,0,8.86,10.8,59.07,59.07,0,0,0,13.81,0,10.65,10.65,0,0,0,8.85-10.8,479.16,479.16,0,0,1,0-48.39,10.17,10.17,0,0,0-8.39-10.28A60.84,60.84,0,0,0,482.72,148.45Z"/><path class="cls-6" d="M493.77,209.48h-22.1l.09.78h21.92Z"/><path class="cls-5" d="M496,201.57l-.19-.66a65.75,65.75,0,0,1-2.13-17.6c0-.72,0-1.47,0-2.2v-.05l3.35-7.89,0,.62c0,1.83.07,3.65.07,5.39a211.74,211.74,0,0,1-1.09,21.71Zm-2-20.43c0,.73,0,1.46,0,2.17a66.82,66.82,0,0,0,1.93,16.85c.67-6.73,1-13.79,1-21,0-1.54,0-3.14-.05-4.76Z"/><path class="cls-5" d="M469.42,201.57l-.07-.68a211.79,211.79,0,0,1-1.08-21.71c0-1.73,0-3.54.06-5.39l0-.62,3.36,7.94c0,.73,0,1.48,0,2.2a65.75,65.75,0,0,1-2.13,17.6Zm-.83-27.15c0,1.63,0,3.23,0,4.76,0,7.19.34,14.25,1,21a67.31,67.31,0,0,0,1.92-16.85c0-.71,0-1.44,0-2.17Z"/><path class="cls-1" d="M496.86,171.66v-11.6a12.4,12.4,0,0,0-12.36-12.38H481a12.41,12.41,0,0,0-12.37,12.38v11.6a63.28,63.28,0,0,1,28.28,0Z"/><path d="M497,171.83l-.16,0a61.38,61.38,0,0,0-14.11-1.59h-.18a62.15,62.15,0,0,0-13.93,1.59l-.16,0V160.06A12.52,12.52,0,0,1,481,147.55h3.55A12.51,12.51,0,0,1,497,160.06Zm-16-24a12.24,12.24,0,0,0-12.23,12.24v11.43a62.91,62.91,0,0,1,13.82-1.56h.37a63,63,0,0,1,13.82,1.56V160.06a12.25,12.25,0,0,0-12.23-12.24Z"/><path class="cls-1" d="M492.94,198.81a68.58,68.58,0,0,0-20.43,0,29.34,29.34,0,0,0-.87,10.68h22.17A29.78,29.78,0,0,0,492.94,198.81Z"/><path d="M493.93,209.63H471.51v-.13a29.8,29.8,0,0,1,.88-10.72l0-.09h.09a68.85,68.85,0,0,1,20.47,0H493l0,.09a30,30,0,0,1,.87,10.72Zm-22.17-.27h21.93a29.77,29.77,0,0,0-.86-10.43,68.52,68.52,0,0,0-20.22,0A29.77,29.77,0,0,0,471.76,209.36Z"/><path class="cls-6" d="M493.81,209.49H471.64q0,.39.09.78h22Z"/><path class="cls-1" d="M471.73,210.27v5.56a26.59,26.59,0,0,0,22,0v-5.56Z"/><path d="M482.72,218.34A24.21,24.21,0,0,1,471.66,216l-.07,0v-5.78h22.26v5.78l-.07,0A24.21,24.21,0,0,1,482.72,218.34Zm-10.86-2.59a26.47,26.47,0,0,0,21.72,0V210.4H471.86Z"/><path class="cls-6" d="M496.77,171.59l.27-.75a53.75,53.75,0,0,0-28.64,0l.28.75A53.75,53.75,0,0,1,496.77,171.59Z"/><path class="cls-1" d="M469.07,171.55l3.44,9.4h20.43l3.43-9.4A52.45,52.45,0,0,0,469.07,171.55Z"/><path d="M493,181.09H472.41l-3.52-9.63.15,0a52.5,52.5,0,0,1,27.37,0l.14,0Zm-20.43-.27h20.24l3.36-9.18a52.18,52.18,0,0,0-26.95,0Z"/><path class="cls-5" d="M493.68,215.83h.14a3,3,0,0,0,3-3v-.22A7.3,7.3,0,0,1,493.68,215.83Z"/><path class="cls-5" d="M471.77,215.83h-.14a3,3,0,0,1-3-3v-.22A7.33,7.33,0,0,0,471.77,215.83Z"/><path class="cls-1" d="M500.62,179a1.21,1.21,0,0,0-.21-1.08l-2.47-2.13a.28.28,0,0,0-.13-.07v2l2.75,1.54Z"/><path class="cls-5" d="M500.65,179.46l-3-1.66v-2.23l.16,0a.44.44,0,0,1,.19.1l2.46,2.13a1.31,1.31,0,0,1,.26,1.21Zm-2.71-1.82,2.53,1.42,0-.08a1.13,1.13,0,0,0-.17-.95L497.94,176Z"/><path class="cls-1" d="M464.82,179a1.21,1.21,0,0,1,.22-1.08l2.46-2.13a.33.33,0,0,1,.13-.07v2l-2.75,1.54Z"/><path class="cls-5" d="M464.79,179.46l-.1-.42a1.33,1.33,0,0,1,.26-1.21l2.47-2.13a.39.39,0,0,1,.19-.1l.16,0v2.23ZM467.5,176,465.13,178a1.09,1.09,0,0,0-.18.95l0,.08,2.53-1.42Z"/><path class="cls-5" d="M490,164.5c0-4.45-.79-8.36-2-10.62a27.82,27.82,0,0,1,1.44,9.41,33.49,33.49,0,0,1-.37,5.08h.7A34.11,34.11,0,0,0,490,164.5Z"/><path class="cls-5" d="M475.44,164.5c0-4.45.79-8.36,2-10.62a27.57,27.57,0,0,0-1.44,9.41,34.89,34.89,0,0,0,.36,5.08h-.7A36.59,36.59,0,0,1,475.44,164.5Z"/><rect class="cls-1" x="472.51" y="180.95" width="20.43" height="17.86"/><path d="M493.07,199h-20.7V180.82h20.7Zm-20.43-.27H492.8V181.09H472.64Z"/><line class="繧ｰ繝ｩ繝輔ぅ繝け繧ｹ繧ｿ繧､繝ｫ" x1="151.74" y1="219.76" x2="201.56" y2="202.84"/><line class="繧ｰ繝ｩ繝輔ぅ繝け繧ｹ繧ｿ繧､繝ｫ" x1="142.92" y1="142.79" x2="471.9" y2="32.44"/><line class="繧ｰ繝ｩ繝輔ぅ繝け繧ｹ繧ｿ繧､繝ｫ-3" x1="595.52" y1="94.68" x2="595.52" y2="474.36"/><path class="cls-7" d="M539.15,128.73V139h3v1.47h-3v3.75h-1.68v-3.75h-7.84V139l7.42-10.31Zm-1.68,4.81c0-.87,0-2.36.1-3.29h-.08a20.23,20.23,0,0,1-1.39,2.42L531.57,139h5.9Z"/><path class="cls-7" d="M545.71,141.52v2.72H543v-2.72Z"/><path class="cls-7" d="M558.08,128.82v1.55h-7.23l-.59,5.4h.08a5.07,5.07,0,0,1,3.55-1.29,4.75,4.75,0,0,1,5.1,4.87c0,3-2.3,5.17-5.55,5.17a7.75,7.75,0,0,1-5.27-1.82l1-1.22a6.71,6.71,0,0,0,4.21,1.5,3.56,3.56,0,0,0,3.67-3.63,3.27,3.27,0,0,0-3.52-3.45,4.45,4.45,0,0,0-3.5,1.64l-1.6-.27.84-8.45Z"/><path class="cls-7" d="M569.84,136.53a4.58,4.58,0,0,1-4.15,2.61,4.85,4.85,0,0,1-5-5.06,5.74,5.74,0,0,1,1.56-3.92,5,5,0,0,1,3.8-1.62c3.41,0,5.56,2.7,5.56,7,0,6-2.53,8.68-8.58,9.25l-.78-1.41c4.89-.21,7.27-2.34,7.63-6.83Zm-7.3-2.61c0,2.23,1.37,3.77,3.38,3.77a3.53,3.53,0,0,0,2.7-1.33,4.08,4.08,0,0,0,1-2.42,4.67,4.67,0,0,0-1.07-2.87,3,3,0,0,0-2.44-1.07A3.73,3.73,0,0,0,562.54,133.92Z"/><path class="cls-7" d="M584.72,136.53c0,4.95-2.18,8-5.7,8s-5.71-3.06-5.71-8,2.19-8,5.72-8S584.72,131.6,584.72,136.53Zm-9.55,0c0,4,1.47,6.47,3.86,6.47s3.83-2.47,3.83-6.47S581.39,130,579,130,575.17,132.53,575.17,136.53Z"/><path d="M539.15,128.73V139h3v1.47h-3v3.75h-1.68v-3.75h-7.84V139l7.42-10.31Zm-1.68,4.81c0-.87,0-2.36.1-3.29h-.08a20.23,20.23,0,0,1-1.39,2.42L531.57,139h5.9Z"/><path d="M545.71,141.52v2.72H543v-2.72Z"/><path d="M558.08,128.82v1.55h-7.23l-.59,5.4h.08a5.07,5.07,0,0,1,3.55-1.29,4.75,4.75,0,0,1,5.1,4.87c0,3-2.3,5.17-5.55,5.17a7.75,7.75,0,0,1-5.27-1.82l1-1.22a6.71,6.71,0,0,0,4.21,1.5,3.56,3.56,0,0,0,3.67-3.63,3.27,3.27,0,0,0-3.52-3.45,4.45,4.45,0,0,0-3.5,1.64l-1.6-.27.84-8.45Z"/><path d="M569.84,136.53a4.58,4.58,0,0,1-4.15,2.61,4.85,4.85,0,0,1-5-5.06,5.74,5.74,0,0,1,1.56-3.92,5,5,0,0,1,3.8-1.62c3.41,0,5.56,2.7,5.56,7,0,6-2.53,8.68-8.58,9.25l-.78-1.41c4.89-.21,7.27-2.34,7.63-6.83Zm-7.3-2.61c0,2.23,1.37,3.77,3.38,3.77a3.53,3.53,0,0,0,2.7-1.33,4.08,4.08,0,0,0,1-2.42,4.67,4.67,0,0,0-1.07-2.87,3,3,0,0,0-2.44-1.07A3.73,3.73,0,0,0,562.54,133.92Z"/><path d="M584.72,136.53c0,4.95-2.18,8-5.7,8s-5.71-3.06-5.71-8,2.19-8,5.72-8S584.72,131.6,584.72,136.53Zm-9.55,0c0,4,1.47,6.47,3.86,6.47s3.83-2.47,3.83-6.47S581.39,130,579,130,575.17,132.53,575.17,136.53Z"/><path class="cls-7" d="M443.93,54.91a4.52,4.52,0,0,1,3.61,2.92,4.83,4.83,0,0,1-2.63,6.41,5,5,0,0,1-6.85-2.8,5.14,5.14,0,0,1,.47-5,7.53,7.53,0,0,1,3.81-2.94,9.73,9.73,0,0,1,6.36-.06,11.57,11.57,0,0,1,5.41,3.86l-1,1.14c-2.75-3.07-6.05-4.36-9.22-3.58Zm-2.38,1.17a3.74,3.74,0,0,0-2.12,4.74,3.44,3.44,0,0,0,4.68,1.77,3.31,3.31,0,0,0,2-4.51A3.66,3.66,0,0,0,441.55,56.08Z"/><path class="cls-7" d="M444.36,69l-2.52,1-1-2.52,2.52-1Z"/><path class="cls-7" d="M454.07,79.6c-4.59,1.87-8.23,1-9.56-2.27s.69-6.45,5.26-8.3,8.23-1,9.56,2.3S458.63,77.75,454.07,79.6Zm-3.6-8.84c-3.7,1.5-5.44,3.79-4.54,6s3.73,2.61,7.43,1.11,5.46-3.8,4.56-6S454.17,69.25,450.47,70.76Z"/><path class="cls-7" d="M457.28,84.48c1,2.52,2.51,3.54,4.16,2.87,1.47-.59,1.9-2.15,1.13-4a4.65,4.65,0,0,0-2.94-2.83L460.2,79A6.59,6.59,0,0,1,464,82.77c1.15,2.84.46,5.42-1.7,6.29-1.78.73-3.52-.08-4.67-2.14l-.07,0c.86,2.63.09,4.67-2.08,5.55-2.52,1-5-.4-6.31-3.72a6.87,6.87,0,0,1,0-5.83l1.46.62a5.82,5.82,0,0,0,0,4.61c.92,2.26,2.53,3.18,4.28,2.48,2-.81,2.31-2.59,1.07-5.66l-.47-1.14,1.34-.55Z"/><path class="cls-7" d="M463.67,103.23c-4.59,1.86-8.23,1-9.56-2.28s.69-6.44,5.26-8.3,8.23-1,9.56,2.3S468.23,101.37,463.67,103.23Zm-3.6-8.85c-3.7,1.51-5.44,3.8-4.54,6s3.73,2.61,7.43,1.1,5.46-3.8,4.56-6S463.77,92.88,460.07,94.38Z"/><path d="M443.93,54.91a4.52,4.52,0,0,1,3.61,2.92,4.83,4.83,0,0,1-2.63,6.41,5,5,0,0,1-6.85-2.8,5.14,5.14,0,0,1,.47-5,7.53,7.53,0,0,1,3.81-2.94,9.73,9.73,0,0,1,6.36-.06,11.57,11.57,0,0,1,5.41,3.86l-1,1.14c-2.75-3.07-6.05-4.36-9.22-3.58Zm-2.38,1.17a3.74,3.74,0,0,0-2.12,4.74,3.44,3.44,0,0,0,4.68,1.77,3.31,3.31,0,0,0,2-4.51A3.66,3.66,0,0,0,441.55,56.08Z"/><path d="M444.36,69l-2.52,1-1-2.52,2.52-1Z"/><path d="M454.07,79.6c-4.59,1.87-8.23,1-9.56-2.27s.69-6.45,5.26-8.3,8.23-1,9.56,2.3S458.63,77.75,454.07,79.6Zm-3.6-8.84c-3.7,1.5-5.44,3.79-4.54,6s3.73,2.61,7.43,1.11,5.46-3.8,4.56-6S454.17,69.25,450.47,70.76Z"/><path d="M457.28,84.48c1,2.52,2.51,3.54,4.16,2.87,1.47-.59,1.9-2.15,1.13-4a4.65,4.65,0,0,0-2.94-2.83L460.2,79A6.59,6.59,0,0,1,464,82.77c1.15,2.84.46,5.42-1.7,6.29-1.78.73-3.52-.08-4.67-2.14l-.07,0c.86,2.63.09,4.67-2.08,5.55-2.52,1-5-.4-6.31-3.72a6.87,6.87,0,0,1,0-5.83l1.46.62a5.82,5.82,0,0,0,0,4.61c.92,2.26,2.53,3.18,4.28,2.48,2-.81,2.31-2.59,1.07-5.66l-.47-1.14,1.34-.55Z"/><path d="M463.67,103.23c-4.59,1.86-8.23,1-9.56-2.28s.69-6.44,5.26-8.3,8.23-1,9.56,2.3S468.23,101.37,463.67,103.23Zm-3.6-8.85c-3.7,1.51-5.44,3.8-4.54,6s3.73,2.61,7.43,1.1,5.46-3.8,4.56-6S463.77,92.88,460.07,94.38Z"/><polyline class="繧ｰ繝ｩ繝輔ぅ繝け繧ｹ繧ｿ繧､繝ｫ-7" points="205.27 194.48 202.21 203.74 171.85 133 169.41 142.36"/><path class="cls-7" d="M194.21,138.21a4.57,4.57,0,0,1,3.62,2.93,4.84,4.84,0,0,1-2.64,6.41,5,5,0,0,1-6.84-2.8,5.17,5.17,0,0,1,.46-5,7.46,7.46,0,0,1,3.82-2.94,9.73,9.73,0,0,1,6.36-.06,11.6,11.6,0,0,1,5.41,3.86l-1,1.14c-2.75-3.07-6-4.36-9.22-3.59Zm-2.37,1.18a3.74,3.74,0,0,0-2.12,4.74,3.44,3.44,0,0,0,4.68,1.77,3.32,3.32,0,0,0,2-4.51A3.66,3.66,0,0,0,191.84,139.39Z"/><path class="cls-7" d="M194.65,152.27l-2.52,1-1-2.52,2.52-1Z"/><path class="cls-7" d="M204.35,162.91c-4.58,1.87-8.22,1-9.55-2.28s.69-6.44,5.25-8.29,8.23-1,9.56,2.29S208.92,161.06,204.35,162.91Zm-3.59-8.85c-3.71,1.51-5.45,3.8-4.54,6s3.73,2.61,7.43,1.11,5.46-3.8,4.56-6S204.46,152.56,200.76,154.06Z"/><path class="cls-7" d="M199.2,166.71c2.07-.31,4.59.48,7.14,2.22l.49.33c2.61,1.82,3.65,2.15,4.93,1.63,1.45-.59,1.93-2.18,1.19-4a4.75,4.75,0,0,0-3.36-2.89l.48-1.49a6.14,6.14,0,0,1,4.32,3.87c1.12,2.75.32,5.42-1.92,6.33-1.78.72-2.89.37-6.18-2l-.67-.47c-2.22-1.54-4.28-2.25-5.61-1.89l3.36,8.27-1.5.6-4.06-10Z"/><path class="cls-7" d="M214,186.54c-4.58,1.86-8.22,1-9.55-2.28s.69-6.44,5.25-8.3,8.23-1,9.56,2.3S218.52,184.68,214,186.54Zm-3.59-8.85c-3.71,1.5-5.44,3.79-4.54,6s3.73,2.61,7.43,1.11,5.46-3.8,4.56-6S214.06,176.18,210.36,177.69Z"/><path d="M194.21,138.21a4.57,4.57,0,0,1,3.62,2.93,4.84,4.84,0,0,1-2.64,6.41,5,5,0,0,1-6.84-2.8,5.17,5.17,0,0,1,.46-5,7.46,7.46,0,0,1,3.82-2.94,9.73,9.73,0,0,1,6.36-.06,11.6,11.6,0,0,1,5.41,3.86l-1,1.14c-2.75-3.07-6-4.36-9.22-3.59Zm-2.37,1.18a3.74,3.74,0,0,0-2.12,4.74,3.44,3.44,0,0,0,4.68,1.77,3.32,3.32,0,0,0,2-4.51A3.66,3.66,0,0,0,191.84,139.39Z"/><path d="M194.65,152.27l-2.52,1-1-2.52,2.52-1Z"/><path d="M204.35,162.91c-4.58,1.87-8.22,1-9.55-2.28s.69-6.44,5.25-8.29,8.23-1,9.56,2.29S208.92,161.06,204.35,162.91Zm-3.59-8.85c-3.71,1.51-5.45,3.8-4.54,6s3.73,2.61,7.43,1.11,5.46-3.8,4.56-6S204.46,152.56,200.76,154.06Z"/><path d="M199.2,166.71c2.07-.31,4.59.48,7.14,2.22l.49.33c2.61,1.82,3.65,2.15,4.93,1.63,1.45-.59,1.93-2.18,1.19-4a4.75,4.75,0,0,0-3.36-2.89l.48-1.49a6.14,6.14,0,0,1,4.32,3.87c1.12,2.75.32,5.42-1.92,6.33-1.78.72-2.89.37-6.18-2l-.67-.47c-2.22-1.54-4.28-2.25-5.61-1.89l3.36,8.27-1.5.6-4.06-10Z"/><path d="M214,186.54c-4.58,1.86-8.22,1-9.55-2.28s.69-6.44,5.25-8.3,8.23-1,9.56,2.3S218.52,184.68,214,186.54Zm-3.59-8.85c-3.71,1.5-5.44,3.79-4.54,6s3.73,2.61,7.43,1.11,5.46-3.8,4.56-6S214.06,176.18,210.36,177.69Z"/><path class="cls-7" d="M539.15,437.83v10.3h3v1.46h-3v3.75h-1.68v-3.75h-7.84v-1.44l7.42-10.32Zm-1.68,4.82c0-.88,0-2.36.1-3.3h-.08a20.23,20.23,0,0,1-1.39,2.42l-4.53,6.36h5.9Z"/><path class="cls-7" d="M545.71,450.62v2.72H543v-2.72Z"/><path class="cls-7" d="M558.08,437.93v1.54h-7.23l-.59,5.4h.08a5.12,5.12,0,0,1,3.55-1.29,4.76,4.76,0,0,1,5.1,4.87c0,3-2.3,5.18-5.55,5.18a7.71,7.71,0,0,1-5.27-1.83l1-1.22a6.71,6.71,0,0,0,4.21,1.5,3.56,3.56,0,0,0,3.67-3.63,3.27,3.27,0,0,0-3.52-3.44,4.44,4.44,0,0,0-3.5,1.63l-1.6-.26.84-8.45Z"/><path class="cls-7" d="M564.19,445.48c-2.05-.82-3.14-2.11-3.14-3.77,0-2.36,2.19-4.07,5.2-4.07s5.13,1.68,5.13,3.94a3.27,3.27,0,0,1-1.31,2.68,5.16,5.16,0,0,1-2.09,1.05v.06c2.47.76,3.88,2.22,3.88,4.09,0,2.47-2.28,4.17-5.63,4.17s-5.62-1.62-5.62-4.1c0-1.84,1.28-3.27,3.58-4Zm-.84,2a2.45,2.45,0,0,0-.85,1.88c0,1.72,1.44,2.8,3.75,2.8s3.69-1.18,3.69-2.87a2.49,2.49,0,0,0-1-1.91,6.41,6.41,0,0,0-1.94-1.06,9.43,9.43,0,0,0-.94-.27A6.37,6.37,0,0,0,563.35,447.48Zm6.24-5.75c0-1.58-1.4-2.74-3.33-2.74s-3.34,1.13-3.34,2.74a2.11,2.11,0,0,0,.78,1.79,7,7,0,0,0,1.23.76,8.2,8.2,0,0,0,1.33.44C568.3,444.26,569.59,443.1,569.59,441.73Z"/><path class="cls-7" d="M584.72,445.63c0,4.95-2.18,8-5.7,8s-5.71-3.07-5.71-8,2.19-8,5.72-8S584.72,440.71,584.72,445.63Zm-9.55,0c0,4,1.47,6.47,3.86,6.47s3.83-2.47,3.83-6.47-1.47-6.48-3.86-6.48S575.17,441.64,575.17,445.63Z"/><path d="M539.15,437.83v10.3h3v1.46h-3v3.75h-1.68v-3.75h-7.84v-1.44l7.42-10.32Zm-1.68,4.82c0-.88,0-2.36.1-3.3h-.08a20.23,20.23,0,0,1-1.39,2.42l-4.53,6.36h5.9Z"/><path d="M545.71,450.62v2.72H543v-2.72Z"/><path d="M558.08,437.93v1.54h-7.23l-.59,5.4h.08a5.12,5.12,0,0,1,3.55-1.29,4.76,4.76,0,0,1,5.1,4.87c0,3-2.3,5.18-5.55,5.18a7.71,7.71,0,0,1-5.27-1.83l1-1.22a6.71,6.71,0,0,0,4.21,1.5,3.56,3.56,0,0,0,3.67-3.63,3.27,3.27,0,0,0-3.52-3.44,4.44,4.44,0,0,0-3.5,1.63l-1.6-.26.84-8.45Z"/><path d="M564.19,445.48c-2.05-.82-3.14-2.11-3.14-3.77,0-2.36,2.19-4.07,5.2-4.07s5.13,1.68,5.13,3.94a3.27,3.27,0,0,1-1.31,2.68,5.16,5.16,0,0,1-2.09,1.05v.06c2.47.76,3.88,2.22,3.88,4.09,0,2.47-2.28,4.17-5.63,4.17s-5.62-1.62-5.62-4.1c0-1.84,1.28-3.27,3.58-4Zm-.84,2a2.45,2.45,0,0,0-.85,1.88c0,1.72,1.44,2.8,3.75,2.8s3.69-1.18,3.69-2.87a2.49,2.49,0,0,0-1-1.91,6.41,6.41,0,0,0-1.94-1.06,9.43,9.43,0,0,0-.94-.27A6.37,6.37,0,0,0,563.35,447.48Zm6.24-5.75c0-1.58-1.4-2.74-3.33-2.74s-3.34,1.13-3.34,2.74a2.11,2.11,0,0,0,.78,1.79,7,7,0,0,0,1.23.76,8.2,8.2,0,0,0,1.33.44C568.3,444.26,569.59,443.1,569.59,441.73Z"/><path d="M584.72,445.63c0,4.95-2.18,8-5.7,8s-5.71-3.07-5.71-8,2.19-8,5.72-8S584.72,440.71,584.72,445.63Zm-9.55,0c0,4,1.47,6.47,3.86,6.47s3.83-2.47,3.83-6.47-1.47-6.48-3.86-6.48S575.17,441.64,575.17,445.63Z"/><path d="M243.12,353.36a47.39,47.39,0,0,1-7.65,2.37l-.87-3a31.35,31.35,0,0,0,9.54-3.5h2.64v32.51h-3.66Z"/><path d="M266.45,366.29a39.4,39.4,0,0,1-1.3,3.86H287.3c-.32,4.81-1.1,9.11-2.09,11.28s-2.25,2.84-5.79,2.84c-2.09,0-4.89-.12-6.82-.28l-.71-3c2.72.24,5.36.4,7.25.4s2.56-.32,3.11-1.58a35.67,35.67,0,0,0,1.5-7H264.09c-.52,1.11-1.07,2.25-1.66,3.36l-3.19-.91a53.43,53.43,0,0,0,3.9-9h-8.79v-2.68h37.44v2.68ZM285.92,360H260.18v-11.2h25.74Zm-22.54-2.53h19.35v-6.07H263.38Z"/><path d="M302,365a46.69,46.69,0,0,1-4.77,10.68l-1.46-3.15a44.24,44.24,0,0,0,6-14.23h-5.4v-2.76H302V347.1h2.92v8.43H309v2.76h-4.1V362a45.53,45.53,0,0,1,4.85,4.61l-1.66,2.64a45,45,0,0,0-3.19-4.06v19.39H302Zm22,5.48A29.6,29.6,0,0,0,334,379.38l-1.85,2.76A32.45,32.45,0,0,1,322,372.05v12.49h-2.8V372.28a30.42,30.42,0,0,1-10.12,10.41l-2-2.41a28,28,0,0,0,10.32-9.81h-7.29v-14h9.06v-2.92H308.07V351h11.11V347.1H322V351h11.35v2.56H322v2.92h9.34v14Zm-11-11.63v3.35h6.26v-3.35Zm0,5.76V368h6.26V364.6Zm9.06-2.41h6.59v-3.35H322Zm0,5.84h6.59V364.6H322Z"/><path d="M389.58,346.13c1-4.22,4.5-8.44,9.82-12l1-.67c5.52-3.59,7-5.32,7-8.2,0-3.23-2.68-5.4-6.74-5.4-3.31,0-5.64,1.22-8.16,4.22L390,322c3-3.71,6.19-5.28,10.8-5.28,6.15,0,10.64,3.62,10.64,8.63,0,4-1.54,5.83-8.59,10.32l-1.42.91c-4.69,3.08-7.65,6.47-8,9.3h18.48v3.35H389.58Z"/><path d="M427.38,333.75a38,38,0,0,1-1.3,3.87h22.15c-.31,4.8-1.1,9.1-2.09,11.27s-2.24,2.84-5.79,2.84c-2.09,0-4.89-.12-6.82-.28l-.71-3c2.72.24,5.36.4,7.25.4s2.57-.32,3.12-1.58a36.64,36.64,0,0,0,1.49-7H425c-.51,1.1-1.07,2.24-1.66,3.35l-3.19-.91a53.43,53.43,0,0,0,3.9-9h-8.79v-2.68h37.45v2.68Zm19.47-6.26H421.12v-11.2h25.73ZM424.31,325h19.35v-6.07H424.31Z"/><path d="M462.89,332.45a46.26,46.26,0,0,1-4.77,10.68L456.67,340a44.46,44.46,0,0,0,5.95-14.23h-5.4V323h5.67v-8.43h2.92V323h4.1v2.76h-4.1v3.67a45.53,45.53,0,0,1,4.85,4.61L469,336.67a45,45,0,0,0-3.19-4.06V352h-2.92Zm22,5.48a29.41,29.41,0,0,0,10.05,8.91l-1.86,2.76a32.31,32.31,0,0,1-10.16-10.09V352h-2.8V339.74A30.54,30.54,0,0,1,470,350.15l-2-2.41a28,28,0,0,0,10.32-9.81h-7.29v-14h9.07V321H469v-2.56h11.12v-3.86h2.8v3.86h11.35V321H482.92v2.92h9.34v14Zm-11-11.63v3.35h6.27V326.3Zm0,5.76v3.43h6.27v-3.43Zm9.07-2.41h6.58V326.3h-6.58Zm0,5.84h6.58v-3.43h-6.58Z"/></g><path d="M307.8,101.48l.52,1.57-9.57,3.23.94,2.78,7.38-2.48,2.92,8.68c.43,1.26,0,1.91-1.53,2.43a28.13,28.13,0,0,1-2.72.77l-.84-1.56a18.42,18.42,0,0,0,2.71-.67c.56-.19.66-.34.48-.86l-2.25-6.68-5.64,1.9,4,11.81-1.72.58-4-11.81-5.35,1.8,3.08,9.12-1.72.58L290.9,112l7.07-2.39-.94-2.78L287.65,110l-.53-1.56,9.38-3.17-1-3,1.71-.58,1,3Z"/><path d="M314.91,101.65A23.81,23.81,0,0,0,310.49,99l.86-1.4a22.66,22.66,0,0,1,4.46,2.45Zm4.6,10.55c2.36,1.16,4.61,1.15,8.27-.06l8.55-2.88a9,9,0,0,0,0,1.72l-8.27,2.79c-3.82,1.24-6.17,1.23-8.68,0a22.61,22.61,0,0,1-2.32,4.35l-1.48-1.23a21,21,0,0,0,2.44-3.61l-2-5.83-3.22,1.09-.5-1.48,4.87-1.65Zm-2.86-12.42-.46-1.37,3.85-1.3A14,14,0,0,0,318,95.49l1.32-1.1a16.15,16.15,0,0,1,2.47,2.15l2.83-1a21.92,21.92,0,0,0,.28-3.12l1.86-.15a19.14,19.14,0,0,1-.46,2.71l4.06-1.37.47,1.37-6.29,2.12c0,.4,0,1.44-.07,2l5.46-1.84,3.75,11.1-11.08,3.73-3.74-11.1,4-1.35a15.32,15.32,0,0,0,0-2Zm4.86,4,7.84-2.64-.68-2-7.83,2.64Zm1.07,3.16,7.83-2.64-.67-2-7.83,2.64Zm1.15,3.42,7.83-2.65-.73-2.17L323,108.16Z"/><path d="M239.25,155.7a24.43,24.43,0,0,0-4.45-2.28l.75-1.51A21.32,21.32,0,0,1,240,154Zm1.09,5.82a26.45,26.45,0,0,0-4.52-2.21l.75-1.59a22.18,22.18,0,0,1,4.56,2.1Zm.12,9.82a34.85,34.85,0,0,0,1.42-8.43l1.73.61a38.89,38.89,0,0,1-1.33,8.63ZM250,159V159a50.13,50.13,0,0,1-.82,7.78l0,.23,1.57-.67c1.56-.68,3.94-1.77,5.78-2.68-1-.91-2.23-1.82-3.45-2.69l1.12-1.23a42.49,42.49,0,0,1,6.51,5.15l-1.22,1.5c-.84-.85-1.21-1.21-1.8-1.74l-.2.12c-2.25,1.29-7.16,3.7-10.63,5.2l-1.14-1.52.85-.34.26-.11.57-.24a51.61,51.61,0,0,0,.78-8.31l-5.48,1.84-.49-1.45,6.63-2.24-1.48-4.4-5.46,1.85-.51-1.51,5.46-1.84-1.18-3.5,1.7-.57,1.18,3.5,5.79-1.95.51,1.5L249,152.66l1.48,4.4,6.92-2.34.49,1.46L250,158.85Z"/><path d="M268.26,142.16l4,11.78,3.37-1.14.57,1.67-3.37,1.14,1.44,4.29-1.91.64-1.45-4.28-9,3-.56-1.65L265.87,143Zm-.06,6.15c-.34-1-.86-2.71-1.16-3.8l-.09,0a23.92,23.92,0,0,1-.65,3.3l-2.73,9,6.75-2.28Z"/><path d="M281.83,155.42c-.22-2.51.91-5.49,3.18-8.44l.44-.56c2.38-3,2.86-4.23,2.33-5.82-.6-1.79-2.49-2.49-4.73-1.73a5.74,5.74,0,0,0-3.72,3.85l-1.76-.69a7.41,7.41,0,0,1,5-4.93c3.4-1.15,6.55,0,7.48,2.78.75,2.2.24,3.51-2.82,7.31l-.61.76c-2,2.57-3,5-2.69,6.62l10.21-3.44.62,1.85-12.33,4.16Z"/><path d="M310,128.79a21.26,21.26,0,0,1-3.47,6.23,31.18,31.18,0,0,0,9.13-.22l-.39,1.78a35.5,35.5,0,0,1-9.91-.12,31.72,31.72,0,0,1-8,6.4l-1.32-1.05a30.45,30.45,0,0,0,7.67-5.77,27.7,27.7,0,0,1-4-1.7,19.58,19.58,0,0,1-3,3.61l-1.45-.77a15.79,15.79,0,0,0,4.75-7.4l1.76-.23a11.56,11.56,0,0,1-.38,1.24l7.45-2.51Zm.38,20.61-1.67.57-2.35-7A22.34,22.34,0,0,1,300,152l-1.47-1a22.62,22.62,0,0,0,6.33-7.83l-8,2.68-.49-1.45,9.38-3.17-.8-2.37,1.68-.56.8,2.37,9.53-3.22.49,1.46-8.05,2.72a24.07,24.07,0,0,0,9.73,1.85l-.55,1.88A23.25,23.25,0,0,1,308,142.31Zm-9.68-16.87c-.1.23-.15.29-.24.47a18.22,18.22,0,0,0,4.38,1.7,20.73,20.73,0,0,0,2.82-4.52Z"/><path d="M322.74,141.62c-.21-2.52.91-5.49,3.19-8.44l.44-.56c2.38-3,2.86-4.24,2.33-5.83-.6-1.78-2.49-2.48-4.73-1.72a5.74,5.74,0,0,0-3.72,3.85l-1.76-.69a7.39,7.39,0,0,1,5-4.93c3.4-1.15,6.55,0,7.48,2.78.75,2.2.24,3.51-2.82,7.3l-.61.77c-2,2.57-3,5-2.69,6.62L335,137.33l.62,1.85-12.34,4.16Z"/><path d="M342.58,130.86l.12-.08.07-.08c.71-.53,1.61-1.27,2.14-1.76l.7,1.48a62,62,0,0,1-6.17,4.94l-1.17-1.47c1.11-.74,1.27-.84,2.32-1.58l.48-.33-3.45-10.23-2.83,1-.52-1.55,6.89-2.33.53,1.55-2.38.8Zm11.1-13.94,3.91,11.59L347.14,132l-3.91-11.6,3.4-1.15c0-.8-.07-1.62-.16-2.41L341,118.71l-.49-1.44L354,112.74l.48,1.44-6.31,2.12a18.51,18.51,0,0,1,0,2.47Zm-8.39,4.3.71,2.11,7.21-2.43-.72-2.11Zm.76,14.82a13.87,13.87,0,0,0,3.55-4.54l1.63.44a16.87,16.87,0,0,1-3.56,5Zm1.07-9.4,7.2-2.43-.68-2-7.2,2.43Zm1.18,3.5,7.2-2.43-.75-2.24-7.21,2.43Zm11.13,2.7A30,30,0,0,0,354,131l.88-1.36a30.64,30.64,0,0,1,5.45,1.5Z"/><path d="M362,114.85a24.19,24.19,0,0,0-4.43-2.63l.86-1.4a22.87,22.87,0,0,1,4.46,2.44Zm4.6,10.54c2.35,1.17,4.6,1.16,8.27,0l8.55-2.88a8.23,8.23,0,0,0,0,1.72L375.18,127c-3.82,1.24-6.18,1.23-8.69,0a22.2,22.2,0,0,1-2.31,4.34l-1.48-1.22a21,21,0,0,0,2.44-3.61l-2-5.83L360,121.71l-.5-1.48,4.88-1.65ZM363.77,113l-.46-1.37,3.85-1.3a14,14,0,0,0-2.1-1.62l1.33-1.1a16.64,16.64,0,0,1,2.47,2.15l2.83-1a25.29,25.29,0,0,0,.28-3.12l1.86-.15a17.81,17.81,0,0,1-.47,2.71l4.07-1.37.46,1.37-6.29,2.12c0,.4,0,1.43-.06,2l5.46-1.84,3.74,11.1-11.07,3.73-3.74-11.1,4-1.35a15.32,15.32,0,0,0,0-2Zm4.86,4,7.83-2.64-.67-2L368,115Zm1.06,3.16,7.84-2.64-.67-2L369,118.14Zm1.16,3.41,7.83-2.64-.73-2.17-7.84,2.64Z"/><path d="M390.46,108.24l-2.8,1,1.16,3.44,2.82-1,.49,1.44-2.83,1,1.53,4.55c.54-.35,2-1.39,3-2.1l.63,1.36a80,80,0,0,1-7.75,5.33l-1.09-1.35,1.08-.63-2.87-8.49,1.48-.5,2.76,8.16.5-.31.47-.31.42-.26-3.31-9.82L383,110.77l-2.39-7.08,7.49-2.52Zm-6.41.59,4.39-1.48-1.42-4.2-4.39,1.48ZM399.25,99a19.11,19.11,0,0,1-1.43,6.32,18.9,18.9,0,0,0,6,1.35l-.35,1.71a20.05,20.05,0,0,1-6.34-1.64,18.88,18.88,0,0,1-4.43,5.49l-1.32-1.05a15.31,15.31,0,0,0,4.32-5.17,15.89,15.89,0,0,1-2.9-2.1l-.05.14,0,.08a14.74,14.74,0,0,1-1.24,2.63l-1.46-.8a13.91,13.91,0,0,0,2-7.11l1.7-.28c0,.65-.06.84-.11,1.27l4.22-1.42Zm-6,3.46a14.47,14.47,0,0,0,3.14,2.19,15.37,15.37,0,0,0,1.11-4.46l-4.05,1.36c0,.18-.07.36-.15.76Zm12.15,15-1.59.53-.43-1.28-5.55,1.87.43,1.28-1.59.54-2.89-8.57,8.73-2.95Zm-8.06-.31,5.55-1.88-1.48-4.39-5.55,1.87Z"/></g></svg>