<svg xmlns="http://www.w3.org/2000/svg" width="700" height="500" viewBox="0 0 700 500"><defs><style>.cls-1,.繧ｰ繝ｩ繝輔ぅ繝け繧ｹ繧ｿ繧､繝ｫ-3,.繧ｰ繝ｩ繝輔ぅ繝け繧ｹ繧ｿ繧､繝ｫ-4{fill:#fff;}.繧ｰ繝ｩ繝輔ぅ繝け繧ｹ繧ｿ繧､繝ｫ-2{fill:#d8eacc;}.cls-4,.cls-5,.cls-7,.繧ｰ繝ｩ繝輔ぅ繝け繧ｹ繧ｿ繧､繝ｫ,.繧ｰ繝ｩ繝輔ぅ繝け繧ｹ繧ｿ繧､繝ｫ-2,.繧ｰ繝ｩ繝輔ぅ繝け繧ｹ繧ｿ繧､繝ｫ-3,.繧ｰ繝ｩ繝輔ぅ繝け繧ｹ繧ｿ繧､繝ｫ-4{stroke:#000;}.cls-7,.繧ｰ繝ｩ繝輔ぅ繝け繧ｹ繧ｿ繧､繝ｫ,.繧ｰ繝ｩ繝輔ぅ繝け繧ｹ繧ｿ繧､繝ｫ-2,.繧ｰ繝ｩ繝輔ぅ繝け繧ｹ繧ｿ繧､繝ｫ-3{stroke-width:2px;}.繧ｰ繝ｩ繝輔ぅ繝け繧ｹ繧ｿ繧､繝ｫ,.繧ｰ繝ｩ繝輔ぅ繝け繧ｹ繧ｿ繧､繝ｫ-3,.繧ｰ繝ｩ繝輔ぅ繝け繧ｹ繧ｿ繧､繝ｫ-4{stroke-miterlimit:10;}.cls-2{fill:#030201;}.cls-3{fill:#242323;}.cls-4,.cls-5,.cls-7,.繧ｰ繝ｩ繝輔ぅ繝け繧ｹ繧ｿ繧､繝ｫ{fill:none;}.cls-4,.cls-5{stroke-linecap:round;}.cls-4,.cls-5,.cls-7{stroke-linejoin:round;}.cls-4{stroke-width:1.43px;}.cls-5{stroke-width:1.83px;}.cls-6{fill:#e83589;}.繧ｰ繝ｩ繝輔ぅ繝け繧ｹ繧ｿ繧､繝ｫ-4{stroke-width:1.27px;}</style></defs><title>kukakuzu</title><g id="レイヤー_2" data-name="レイヤー 2"><rect class="cls-1" width="700" height="500"/><polygon class="繧ｰ繝ｩ繝輔ぅ繝け繧ｹ繧ｿ繧､繝ｫ-2" points="190.53 46.02 190.53 268.76 213.64 292.04 534 292.04 534 46.02 190.53 46.02"/><path d="M373.6,346.49v1.87H362.15v3.33H371v10.38c0,1.51-.68,2.06-2.52,2.06a31,31,0,0,1-3.2-.16l-.34-2a23,23,0,0,0,3.15.26c.67,0,.83-.13.83-.76v-8h-6.74v14.13h-2V353.51h-6.4v10.91h-2.06V351.69h8.46v-3.33H348.88v-1.87H360.1v-3.56h2v3.56Z"/><path d="M382.28,362.23c2.11,2.11,4.53,2.91,8.9,2.94h10.23a9.8,9.8,0,0,0-.63,1.85H390.9c-4.56-.06-7.08-.91-9.32-3.18a25.28,25.28,0,0,1-4.06,3.83l-1.14-1.85a25.11,25.11,0,0,0,3.93-3v-7h-3.85v-1.77h5.82Zm-1.11-13a26.68,26.68,0,0,0-3.8-4.43l1.43-1.19a25.67,25.67,0,0,1,3.9,4.24Zm2.55-1.38v-1.64h4.6a15.55,15.55,0,0,0-1.67-2.5l1.83-.7a18.9,18.9,0,0,1,1.87,3.2h3.38a25.26,25.26,0,0,0,1.43-3.25l2.06.52a20.33,20.33,0,0,1-1.49,2.73h4.87v1.64h-7.52c-.13.44-.55,1.53-.8,2.16h6.52V363.3H385.56V350h4.79a18.09,18.09,0,0,0,.68-2.16Zm3.77,6h9.36v-2.39h-9.36Zm0,3.78h9.36v-2.37h-9.36Zm0,4.08h9.36v-2.6h-9.36Z"/><path d="M258.41,386.65a31.22,31.22,0,0,0-4.06-4l1.38-1.43a24.63,24.63,0,0,1,4.13,3.9ZM255,397.23a38.65,38.65,0,0,0,4.58-8.53l1.64,1.28a43.76,43.76,0,0,1-4.55,8.79ZM259.34,380a27.87,27.87,0,0,0-3.95-4.06l1.35-1.35a23.65,23.65,0,0,1,4.06,3.88Zm10.31,7.39,0,.05a59.3,59.3,0,0,1-3.69,8.07l-.11.23,1.93-.15c1.92-.16,4.86-.47,7.18-.79-.81-1.35-1.75-2.75-2.74-4.13l1.64-.91a47.34,47.34,0,0,1,5.13,7.88l-1.85,1.17c-.6-1.22-.86-1.74-1.3-2.52l-.26.05c-2.89.57-9,1.38-13.29,1.74l-.68-2,1-.05.31,0,.71,0a61.36,61.36,0,0,0,3.85-8.64h-6.56v-1.74h7.93v-5.26h-6.53v-1.79h6.53v-4.19h2v4.19h6.92v1.79h-6.92v5.26h8.28v1.74H269.7Z"/><path d="M295.37,376v14.07h4v2h-4v5.12h-2.29v-5.12H282.36v-2L292.51,376Zm-2.29,6.58c0-1.2.06-3.23.13-4.5h-.1a27.45,27.45,0,0,1-1.9,3.3L285,390.05h8.06Z"/><path d="M305.13,395.13c.67-2.79,3-5.57,6.48-7.91l.67-.44c3.64-2.37,4.61-3.52,4.61-5.42,0-2.13-1.77-3.56-4.45-3.56-2.19,0-3.72.81-5.39,2.78l-1.64-1.37a8.38,8.38,0,0,1,7.13-3.49c4.06,0,7,2.39,7,5.7,0,2.62-1,3.85-5.68,6.81l-.93.6c-3.1,2-5,4.27-5.28,6.14h12.2v2.21H305.13Z"/><path d="M338,399h-2v-8.32A25.29,25.29,0,0,1,325.83,398l-1.19-1.66a25.38,25.38,0,0,0,9.62-6.12h-9.52v-1.74H336V385.6h2v2.84h11.39v1.74h-9.62a27.27,27.27,0,0,0,9.78,5.52l-1.28,1.82a26.18,26.18,0,0,1-10.27-7ZM345,376.73a24,24,0,0,1-6,5.44,35.67,35.67,0,0,0,9.89,3.07L347.84,387a40.3,40.3,0,0,1-10.59-3.72,36.19,36.19,0,0,1-10.9,4l-1-1.61a34.39,34.39,0,0,0,10.33-3.41A32.83,32.83,0,0,1,332,379a21.7,21.7,0,0,1-4.53,2.78l-1.27-1.35a17.75,17.75,0,0,0,7.77-6.22l2,.39c-.39.6-.49.71-.86,1.2h8.9Zm-11.35.65c-.18.21-.26.26-.41.42a20.18,20.18,0,0,0,4.08,3.41,23.11,23.11,0,0,0,4.66-3.83Z"/><path d="M359.57,378.37a33.47,33.47,0,0,1-5.09,1.54L354,378a25.4,25.4,0,0,0,6.27-2.31h1.69v21.46h-2.35Z"/><path d="M375.83,390.76l.16-.06.1-.05a31,31,0,0,0,2.94-1.12l.21,1.85a70.94,70.94,0,0,1-8.4,3.07l-.73-2c1.46-.39,1.66-.45,3.07-.86l.62-.18V379.18h-3.38v-1.85h8.25v1.85h-2.84Zm1.85,6.81a15.64,15.64,0,0,0,5.46-3.59l1.59,1.07a19.2,19.2,0,0,1-5.62,4ZM392.8,379.8v13.87H380.31V379.8h4.06a24.62,24.62,0,0,0,.7-2.65h-6.5v-1.72h16.07v1.72H387.1a22.4,22.4,0,0,1-.89,2.65Zm-10.57,1.59v2.52h8.61v-2.52Zm0,6.48h8.61v-2.42h-8.61Zm0,4.19h8.61v-2.68h-8.61Zm11,6.92a35,35,0,0,0-5.2-3.91l1.43-1.14a35.59,35.59,0,0,1,5.31,3.59Z"/><path d="M405.1,378.37a33.27,33.27,0,0,1-5.1,1.54l-.52-1.88a25.4,25.4,0,0,0,6.27-2.31h1.69v21.46H405.1Z"/><path d="M423.73,387c-.27.93-.58,1.82-.86,2.55h14.62a24.93,24.93,0,0,1-1.38,7.44c-.65,1.45-1.48,1.87-3.83,1.87-1.38,0-3.22-.08-4.5-.18l-.46-2c1.79.16,3.53.26,4.78.26s1.69-.21,2.06-1a24.44,24.44,0,0,0,1-4.6h-13c-.33.72-.7,1.48-1.09,2.21l-2.11-.6a35.33,35.33,0,0,0,2.58-5.93h-5.8v-1.77h24.71V387Zm12.85-4.14h-17v-7.39h17Zm-14.88-1.66h12.77v-4H421.7Z"/><path d="M449.14,393.59c2.11,2.11,4.53,2.92,8.9,2.94h10.22a9.13,9.13,0,0,0-.62,1.85h-9.89c-4.55-.05-7.08-.91-9.31-3.17a26.1,26.1,0,0,1-4.06,3.82l-1.15-1.85a24.22,24.22,0,0,0,3.93-3v-7h-3.85v-1.77h5.83Zm-1.12-13a26.52,26.52,0,0,0-3.8-4.42l1.43-1.2a26.15,26.15,0,0,1,3.91,4.24Zm2.55-1.38v-1.64h4.61a17,17,0,0,0-1.67-2.5l1.82-.7a18.9,18.9,0,0,1,1.87,3.2h3.39a26.72,26.72,0,0,0,1.43-3.25l2.05.52a20.29,20.29,0,0,1-1.48,2.73h4.87v1.64h-7.52c-.13.44-.55,1.54-.81,2.16h6.53v13.27H452.42V381.39h4.78a16.42,16.42,0,0,0,.68-2.16Zm3.77,6h9.37v-2.4h-9.37Zm0,3.77h9.37v-2.37h-9.37Zm0,4.08h9.37v-2.6h-9.37Z"/><path d="M480.93,383.81h-3.36v4.11H481v1.72h-3.39v5.43c.71-.18,2.68-.75,4-1.17l.19,1.7a94.81,94.81,0,0,1-10.25,2.91l-.68-1.85,1.38-.28V386.23H474V396l.65-.16.62-.16.55-.13V383.81H472v-8.46h8.95Zm-7.1-1.69h5.25v-5h-5.25Zm19.9-5.1a21.72,21.72,0,0,1-3.83,6.27,21.55,21.55,0,0,0,6,3.62l-1,1.71a22.63,22.63,0,0,1-6.21-4.06,21.66,21.66,0,0,1-6.74,4.3l-1-1.62a17.16,17.16,0,0,0,6.5-4A18,18,0,0,1,485,380l-.1.13-.06.08a16.08,16.08,0,0,1-2.29,2.37l-1.27-1.38a15.67,15.67,0,0,0,4.76-6.9l1.93.31c-.29.68-.37.89-.58,1.33h5.05Zm-.1,22h-1.9v-1.53h-6.64V399h-1.9V388.75h10.44Zm-8.54-3.25h6.64V390.5h-6.64Zm.91-17.2a16.11,16.11,0,0,0,2.58,3.49,17.64,17.64,0,0,0,2.81-4.4h-4.84l-.44.76Z"/><path d="M181,395.51h1.61A62.66,62.66,0,0,0,200.41,402v2.25c-4.58-.81-11.68-3.36-17.52-6.24v9.36h4.49v2.09H181Z"/><path d="M197,390.35h3.43v3.43H197Z"/><path d="M190.69,372.83c6.25,0,10.09,2.76,10.09,7.2s-3.87,7.2-10.09,7.2-10.08-2.76-10.08-7.22S184.48,372.83,190.69,372.83Zm0,12.05c5,0,8.17-1.85,8.17-4.87s-3.13-4.83-8.17-4.83-8.18,1.85-8.18,4.88S185.65,384.88,190.69,384.88Z"/><path d="M190.81,368a5.75,5.75,0,0,1-2.83-5.14,6.1,6.1,0,0,1,6.12-6.24,6.35,6.35,0,0,1,6.68,6.53,6.51,6.51,0,0,1-2.93,5.64,9.51,9.51,0,0,1-5.86,1.63,12.37,12.37,0,0,1-7.46-2.95,14.62,14.62,0,0,1-4.49-7.08l1.7-.86c1.75,4.89,5,8,9.07,8.57Zm3.34-.24a4.72,4.72,0,0,0,4.73-4.54,4.34,4.34,0,0,0-4.63-4.29,4.19,4.19,0,0,0-4.49,4.32A4.63,4.63,0,0,0,194.15,367.79Z"/><path d="M190.69,339.71c6.25,0,10.09,2.76,10.09,7.2s-3.87,7.2-10.09,7.2-10.08-2.76-10.08-7.23S184.48,339.71,190.69,339.71Zm0,12.05c5,0,8.17-1.85,8.17-4.88s-3.13-4.82-8.17-4.82-8.18,1.85-8.18,4.87S185.65,351.76,190.69,351.76Z"/><rect class="繧ｰ繝ｩ繝輔ぅ繝け繧ｹ繧ｿ繧､繝ｫ-3" x="209.77" y="71.91" width="244.67" height="128.97" transform="translate(664.22 272.8) rotate(180)"/><path class="cls-1" d="M321.83,258.25a74.27,74.27,0,0,1,0-19.42c1.06-7.46,9.55-13,17.31-12.63q38.08,1.71,76.18,0c7.37-.38,15.43,4.91,16.49,12a73.8,73.8,0,0,1,0,20.78c-1.06,7.08-9.12,12.37-16.49,12q-38.08-1.76-76.18,0C331.38,271.29,322.89,265.71,321.83,258.25Z"/><path class="cls-2" d="M320.91,248.54a75.62,75.62,0,0,1,.64-9.74c1-7.28,9.26-13.29,17.6-12.85,25.27,1.14,50.89,1.12,76.16,0,7.9-.41,15.74,5.29,16.78,12.21a74.23,74.23,0,0,1,0,20.84c-1,6.92-8.88,12.62-16.78,12.21-25.27-1.16-50.89-1.18-76.16,0-8.34.44-16.57-5.57-17.6-12.85h0A75.62,75.62,0,0,1,320.91,248.54Zm111.35,0a73.44,73.44,0,0,0-.73-10.36c-1-6.67-8.57-12.17-16.19-11.77-25.29,1.17-50.93,1.18-76.22,0-8.06-.42-16,5.38-17,12.41a73.81,73.81,0,0,0,0,19.36c1,7,8.95,12.83,17,12.41,25.29-1.14,50.93-1.13,76.22,0,7.62.4,15.19-5.1,16.19-11.77A73.44,73.44,0,0,0,432.26,248.54Z"/><path class="cls-3" d="M336.12,264v-31l-1.22.13V263.9Z"/><path class="cls-2" d="M348.58,267.18l1-.26c7.43-1.92,17.28-3,27.73-3,1.14,0,2.31,0,3.47,0h.08l12.42,4.7-1,0c-2.88.06-5.74.09-8.49.09-11.74,0-23.24-.51-34.19-1.52Zm32.19-2.83c-1.15,0-2.3,0-3.42,0a118.34,118.34,0,0,0-26.54,2.7c10.6.94,21.71,1.42,33,1.42,2.44,0,4.95,0,7.5-.08Z"/><path class="cls-2" d="M348.58,229.89l1.08-.09c10.95-1,22.45-1.52,34.19-1.52,2.73,0,5.58,0,8.49.09l1,0-12.5,4.71c-1.16,0-2.33,0-3.47,0-10.45,0-20.3-1.06-27.73-3Zm42.77-1.17c-2.57,0-5.08-.07-7.5-.07-11.33,0-22.44.48-33,1.42a118.34,118.34,0,0,0,26.54,2.7c1.12,0,2.27,0,3.42,0Z"/><path class="cls-1" d="M395.7,268.36H414c10.72,0,19.5-7.8,19.5-17.33v-5c0-9.53-8.78-17.33-19.5-17.33H395.7a79.51,79.51,0,0,1,0,39.64Z"/><path d="M395.44,268.55l.06-.23a77.18,77.18,0,0,0,2.5-19.78v-.26a78.41,78.41,0,0,0-2.5-19.52l-.06-.23H414c10.87,0,19.71,7.86,19.71,17.52v5c0,9.66-8.84,17.52-19.71,17.52Zm37.82-22.5c0-9.45-8.66-17.14-19.29-17.14H396a78.53,78.53,0,0,1,2.46,19.37v.52A78.53,78.53,0,0,1,396,268.17h18c10.63,0,19.29-7.69,19.29-17.14Z"/><path class="cls-1" d="M352.93,262.86a85,85,0,0,0,0-28.64A52.28,52.28,0,0,0,336.11,233v31.08A52.28,52.28,0,0,0,352.93,262.86Z"/><path d="M335.9,264.25V232.83l.19,0A52.72,52.72,0,0,1,353,234l.14,0,0,.12a85.87,85.87,0,0,1,0,28.7l0,.12-.14,0a52.7,52.7,0,0,1-16.89,1.23Zm.42-31.08v30.74a52.39,52.39,0,0,0,16.42-1.2,85.31,85.31,0,0,0,0-28.34A52.39,52.39,0,0,0,336.32,233.17Z"/><path class="cls-3" d="M336.11,264.08V233c-.41,0-.81.08-1.22.12V264C335.3,264,335.7,264.05,336.11,264.08Z"/><path class="cls-1" d="M334.89,233.12h-8.77c-2.3,3.8-3.74,9.3-3.74,15.42s1.44,11.62,3.74,15.42h8.77Z"/><path d="M322.16,248.54c0-5.9,1.38-11.55,3.78-15.51l.06-.09h9.1v31.2H326l-.06-.09C323.54,260.09,322.16,254.44,322.16,248.54Zm4.09-15.23c-2.33,3.9-3.66,9.44-3.66,15.23s1.33,11.33,3.66,15.23h8.43V233.31Z"/><path class="cls-3" d="M395.81,268.23l1.18.39a67.57,67.57,0,0,0,0-40.16l-1.18.39A67.4,67.4,0,0,1,395.81,268.23Z"/><path class="cls-1" d="M395.87,229.4l-14.81,4.82v28.64l14.81,4.82A65.53,65.53,0,0,0,395.87,229.4Z"/><path d="M380.85,263v-28.9L396,229.15l.06.2a65.87,65.87,0,0,1,0,38.38l-.06.2Zm.42-28.64v28.38l14.46,4.7a65.34,65.34,0,0,0,0-37.78Z"/><path class="cls-2" d="M326.13,263.9v.2a4.55,4.55,0,0,0,4.77,4.24h.35A11,11,0,0,1,326.13,263.9Z"/><path class="cls-2" d="M326.13,233.18V233a4.55,4.55,0,0,1,4.77-4.24h.35A11,11,0,0,0,326.13,233.18Z"/><path class="cls-1" d="M384.12,273.63a2.1,2.1,0,0,0,1.71-.3l3.35-3.46a.38.38,0,0,0,.11-.18h-3.13l-2.43,3.86Z"/><path class="cls-2" d="M383.41,273.68l2.63-4.17h3.51l-.05.22a.77.77,0,0,1-.16.27L386,273.46a2.35,2.35,0,0,1-1.92.36Zm2.87-3.8-2.23,3.54.12,0a1.9,1.9,0,0,0,1.5-.24l3.23-3.33Z"/><path class="cls-1" d="M384.12,223.45a2.1,2.1,0,0,1,1.71.3l3.35,3.46a.38.38,0,0,1,.11.18h-3.13l-2.43-3.86Z"/><path class="cls-2" d="M383.41,223.4l.66-.14a2.35,2.35,0,0,1,1.92.36l3.35,3.46a.63.63,0,0,1,.16.27l.05.22H386Zm5.49,3.8-3.23-3.33a1.9,1.9,0,0,0-1.5-.24l-.12,0,2.23,3.55Z"/><path class="cls-2" d="M407,258.74c7,0,13.17-1.1,16.73-2.78a48.55,48.55,0,0,1-14.83,2,60.48,60.48,0,0,1-8-.51v1C402.8,258.64,404.85,258.74,407,258.74Z"/><path class="cls-2" d="M407,238.34c7,0,13.17,1.1,16.73,2.78a48.55,48.55,0,0,0-14.83-2,60.48,60.48,0,0,0-8,.51v-1C402.8,238.44,404.85,238.34,407,238.34Z"/><rect class="cls-1" x="352.67" y="234.47" width="28.64" height="28.14" transform="translate(615.53 -118.45) rotate(90)"/><path d="M352.71,263.05V234h28.56v29Zm.42-28.64v28.26h27.72V234.41Z"/><path class="cls-1" d="M484.3,155.47a73.49,73.49,0,0,1,19.43,0c7.45,1.06,13,9.55,12.63,17.3q-1.73,38.1,0,76.19c.39,7.37-4.91,15.42-12,16.49a73.73,73.73,0,0,1-20.77,0c-7.08-1.07-12.38-9.12-12-16.49q1.75-38.09,0-76.19C471.27,165,476.85,156.53,484.3,155.47Z"/><path class="cls-2" d="M494,154.55a73.72,73.72,0,0,1,9.73.64c7.29,1,13.29,9.25,12.86,17.6-1.14,25.26-1.13,50.89,0,76.16.42,7.89-5.29,15.74-12.2,16.77a74.3,74.3,0,0,1-20.85,0c-6.91-1-12.62-8.89-12.2-16.79,1.16-25.26,1.17-50.89,0-76.15-.43-8.35,5.57-16.57,12.85-17.6h0A73.76,73.76,0,0,1,494,154.55Zm0,111.35a74.74,74.74,0,0,0,10.36-.73c6.67-1,12.17-8.57,11.77-16.19-1.16-25.29-1.17-50.94,0-76.22.42-8.07-5.39-16-12.42-17a73.73,73.73,0,0,0-19.35,0c-7,1-12.84,8.94-12.42,17,1.14,25.28,1.13,50.93,0,76.21-.4,7.63,5.1,15.19,11.77,16.2A74.71,74.71,0,0,0,494,265.9Z"/><path class="cls-3" d="M478.53,169.76h31c0-.41-.08-.81-.12-1.22H478.65C478.61,169,478.56,169.35,478.53,169.76Z"/><path class="cls-2" d="M475.37,182.22l.27,1c1.92,7.43,3,17.27,3,27.73,0,1.14,0,2.31,0,3.46l0,.08L473.87,227l0-1c-.06-2.89-.09-5.74-.09-8.49,0-11.74.51-23.24,1.52-34.2Zm2.83,32.18c0-1.14,0-2.29,0-3.41a117.75,117.75,0,0,0-2.7-26.54c-.94,10.6-1.41,21.71-1.41,33,0,2.43,0,4.95.07,7.5Z"/><path class="cls-2" d="M512.66,182.22l.1,1.07c1,11,1.52,22.46,1.52,34.2,0,2.72,0,5.58-.09,8.49l0,1-4.71-12.5c0-1.15,0-2.32,0-3.46,0-10.46,1.06-20.3,3-27.73ZM513.83,225c0-2.57.07-5.09.07-7.5,0-11.33-.47-22.44-1.41-33a117.75,117.75,0,0,0-2.7,26.54c0,1.12,0,2.27,0,3.41Z"/><path class="cls-1" d="M474.19,229.34v18.27c0,10.72,7.8,19.49,17.34,19.49h5c9.54,0,17.34-8.77,17.34-19.49V229.34a79.55,79.55,0,0,1-39.65,0Z"/><path d="M474,229.07l.23.06A77.12,77.12,0,0,0,494,231.64h.26a77.9,77.9,0,0,0,19.52-2.51l.23-.06v18.54c0,10.86-7.86,19.71-17.52,19.71h-5c-9.66,0-17.52-8.85-17.52-19.71Zm22.49,37.82c9.46,0,17.15-8.65,17.15-19.28v-18a78.17,78.17,0,0,1-19.37,2.46h-.53a78.17,78.17,0,0,1-19.37-2.46v18c0,10.63,7.69,19.28,17.15,19.28Z"/><path class="cls-1" d="M479.69,186.57a85.05,85.05,0,0,0,28.65,0,52.58,52.58,0,0,0,1.22-16.82H478.47A52.58,52.58,0,0,0,479.69,186.57Z"/><path d="M478.3,169.54h31.43l0,.19a53,53,0,0,1-1.23,16.89l0,.13-.12,0a85.35,85.35,0,0,1-28.7,0l-.13,0,0-.13a52.71,52.71,0,0,1-1.22-16.89Zm31.09.42H478.64a52.39,52.39,0,0,0,1.2,16.42,85.37,85.37,0,0,0,28.35,0A52.39,52.39,0,0,0,509.39,170Z"/><path class="cls-3" d="M478.47,169.75h31.09c0-.41-.08-.82-.13-1.22H478.6C478.55,168.93,478.51,169.34,478.47,169.75Z"/><path class="cls-1" d="M509.43,168.53v-8.77c-3.79-2.3-9.29-3.75-15.41-3.75s-11.63,1.45-15.42,3.75v8.77Z"/><path d="M494,155.8c5.89,0,11.55,1.38,15.5,3.77l.1.06v9.11H478.41v-9.11l.1-.06C482.46,157.18,488.12,155.8,494,155.8Zm15.22,4.09c-3.89-2.33-9.44-3.67-15.22-3.67s-11.34,1.34-15.23,3.67v8.43h30.45Z"/><path class="cls-3" d="M474.32,229.45l-.38,1.18a67.54,67.54,0,0,0,40.15,0l-.38-1.18A67.44,67.44,0,0,1,474.32,229.45Z"/><path class="cls-1" d="M513.15,229.51l-4.81-14.81H479.69l-4.81,14.81A65.5,65.5,0,0,0,513.15,229.51Z"/><path d="M479.56,214.49h28.91l4.93,15.16-.2.06a65.67,65.67,0,0,1-38.37,0l-.2-.06Zm28.65.42H479.82l-4.7,14.46a65.55,65.55,0,0,0,37.79,0Z"/><path class="cls-2" d="M478.66,159.77h-.2a4.54,4.54,0,0,0-4.24,4.76v.36A11,11,0,0,1,478.66,159.77Z"/><path class="cls-2" d="M509.37,159.77h.2a4.54,4.54,0,0,1,4.24,4.76v.36A11,11,0,0,0,509.37,159.77Z"/><path class="cls-1" d="M468.92,217.76a2.12,2.12,0,0,0,.3,1.7l3.46,3.36a.44.44,0,0,0,.18.11V219.8L469,217.37Z"/><path class="cls-2" d="M468.88,217l4.17,2.63v3.51l-.23-.05a.54.54,0,0,1-.26-.15l-3.46-3.36a2.28,2.28,0,0,1-.36-1.91Zm3.79,2.88-3.54-2.23,0,.11a1.86,1.86,0,0,0,.24,1.5l3.32,3.23Z"/><path class="cls-1" d="M519.11,217.76a2.12,2.12,0,0,1-.3,1.7l-3.46,3.36a.44.44,0,0,1-.18.11V219.8l3.86-2.43Z"/><path class="cls-2" d="M519.15,217l.14.67a2.28,2.28,0,0,1-.36,1.91L515.47,223a.52.52,0,0,1-.27.15l-.22.05v-3.51Zm-3.79,5.49,3.32-3.23a1.86,1.86,0,0,0,.24-1.5l0-.11-3.54,2.23Z"/><path class="cls-2" d="M483.81,240.61c0,7,1.11,13.18,2.78,16.74a48.55,48.55,0,0,1-2-14.83,60.48,60.48,0,0,1,.51-8h-1C483.91,236.44,483.81,238.49,483.81,240.61Z"/><path class="cls-2" d="M504.22,240.61c0,7-1.11,13.18-2.78,16.74a48.55,48.55,0,0,0,2-14.83,60.48,60.48,0,0,0-.51-8h1C504.12,236.44,504.22,238.49,504.22,240.61Z"/><rect class="cls-1" x="479.69" y="186.56" width="28.64" height="28.14" transform="translate(988.03 401.26) rotate(180)"/><path d="M479.51,186.35h29v28.56h-29Zm28.64.42H479.88v27.72h28.27Z"/><path d="M278.94,125.23a64.12,64.12,0,0,1-10.33,3.19l-1.17-4c4.9-1,10.38-3,12.88-4.74h3.57V163.6h-4.95Z"/><path d="M312.57,142.68a54.76,54.76,0,0,1-1.75,5.22h29.91c-.43,6.49-1.49,12.29-2.82,15.22s-3,3.83-7.83,3.83c-2.82,0-6.6-.16-9.2-.37l-1-4c3.67.31,7.24.53,9.79.53s3.46-.43,4.2-2.13a49.93,49.93,0,0,0,2-9.42H309.38c-.69,1.49-1.44,3-2.24,4.52l-4.31-1.22a71.77,71.77,0,0,0,5.27-12.14H296.23v-3.62H346.8v3.62Zm26.29-8.46H304.11V119.11h34.75Zm-30.44-3.41h26.13v-8.19H308.42Z"/><path d="M360.52,140.93a62.77,62.77,0,0,1-6.44,14.42l-2-4.26a59.94,59.94,0,0,0,8-19.21h-7.29v-3.73h7.66V116.76h3.94v11.39H370v3.73h-5.53v5a62,62,0,0,1,6.55,6.23l-2.24,3.56a60.14,60.14,0,0,0-4.31-5.48v26.19h-3.94Zm29.7,7.4a39.84,39.84,0,0,0,13.57,12l-2.5,3.73a43.49,43.49,0,0,1-13.73-13.63v16.88h-3.78V150.77a41,41,0,0,1-13.68,14l-2.66-3.24a37.87,37.87,0,0,0,13.94-13.25h-9.84v-19h12.24v-3.94h-15V122h15v-5.22h3.78V122h15.33v3.46H387.56v3.94h12.61v19Zm-14.9-15.71v4.53h8.46v-4.53Zm0,7.78V145h8.46V140.4Zm12.24-3.25h8.89v-4.53h-8.89Zm0,7.88h8.89V140.4h-8.89Z"/><polyline class="cls-4" points="99.3 138.25 99.3 126.5 106.2 138.25 106.2 126.5"/><circle class="cls-5" cx="94.77" cy="168.55" r="24.35"/><polygon points="91.89 181.9 101.52 191.17 99.77 145.33 79.28 186.37 91.89 181.9"/><rect class="cls-6" x="78.13" y="30.57" width="39.3" height="95.53" transform="translate(19.44 176.12) rotate(-90)"/><path class="cls-1" d="M67.25,84.18H82.8v2.1H67.25v1.41H64.93V69.13H82.26v2h-15Zm.68-2.34a19.24,19.24,0,0,0,5.42-4,54.75,54.75,0,0,0-4.83-3.52l1.41-1.58c1.72,1.08,3.21,2.14,4.85,3.4a26.84,26.84,0,0,0,2.69-4.43l2.1,1a30.53,30.53,0,0,1-3,4.86c1.16,1,2.7,2.32,4.25,3.79l-1.64,1.72c-1.34-1.35-2.86-2.74-4.08-3.79a21.08,21.08,0,0,1-5.77,4.35Z"/><path class="cls-1" d="M96.41,71H87.72V69.08h19.7V71H98.61v2h4.44V83.29h-11V72.94h4.33Zm8.21,13.69V72.94h2.12V87.69h-2.12V86.55H90.5v1.14H88.41V72.94H90.5v11.7Zm-10.57-10v2.51h2.44V74.64Zm0,4.11v2.8h2.44v-2.8Zm4.48-1.6h2.55V74.64H98.53Zm0,4.4h2.55v-2.8H98.53Z"/><path class="cls-1" d="M130.61,87.69h-2.26V86.63H114.92v1.06h-2.24V68.94h17.93Zm-15.69-3h13.43V70.83H114.92Zm11.5-.89c-1.3-.81-2.84-1.68-4.23-2.39a17.43,17.43,0,0,1-5.37,3l-1.28-1.56a13.55,13.55,0,0,0,4.66-2.44l-.54-.25c-1.34-.67-2.34-1.1-4.1-1.83l.93-1.53A54.85,54.85,0,0,1,121.78,79a17.63,17.63,0,0,0,3.86-7l2,.62a23.63,23.63,0,0,1-3.94,7.34l.19.1c1,.52,2.17,1.14,3.75,2.08ZM117.69,77A18.76,18.76,0,0,0,116,72.94l1.9-.77a20.3,20.3,0,0,1,1.72,4Zm3.57-.81a24.05,24.05,0,0,0-1.68-4.09l1.83-.72a19.21,19.21,0,0,1,1.72,4Z"/><rect class="繧ｰ繝ｩ繝輔ぅ繝け繧ｹ繧ｿ繧､繝ｫ-4" x="438.24" y="88.11" width="39.49" height="7.09" transform="translate(549.64 -366.33) rotate(90)"/><rect class="繧ｰ繝ｩ繝輔ぅ繝け繧ｹ繧ｿ繧､繝ｫ-4" x="424.32" y="81.27" width="39.49" height="20.77" transform="translate(535.72 -352.4) rotate(90)"/><polygon points="437.77 91.66 448.31 98.89 448.31 84.42 437.77 91.66"/><polyline class="繧ｰ繝ｩ繝輔ぅ繝け繧ｹ繧ｿ繧､繝ｫ" points="115.07 292.04 213.64 292.04 609.46 292.04"/><polyline class="繧ｰ繝ｩ繝輔ぅ繝け繧ｹ繧ｿ繧､繝ｫ" points="115.07 457.78 213.64 457.78 609.46 457.78"/><polyline class="cls-7" points="201.81 306.14 213.64 292.04 213.64 457.78 222.62 443.67"/></g></svg>