<svg xmlns="http://www.w3.org/2000/svg" width="700" height="500" viewBox="0 0 700 500"><defs><style>.cls-1,.cls-7,.繧ｰ繝ｩ繝輔ぅ繝け繧ｹ繧ｿ繧､繝ｫ-3{fill:#fff;}.繧ｰ繝ｩ繝輔ぅ繝け繧ｹ繧ｿ繧､繝ｫ-2{fill:#d8eacc;}.cls-2,.cls-3,.cls-7,.cls-8,.繧ｰ繝ｩ繝輔ぅ繝け繧ｹ繧ｿ繧､繝ｫ,.繧ｰ繝ｩ繝輔ぅ繝け繧ｹ繧ｿ繧､繝ｫ-2,.繧ｰ繝ｩ繝輔ぅ繝け繧ｹ繧ｿ繧､繝ｫ-3{stroke:#000;}.cls-8,.繧ｰ繝ｩ繝輔ぅ繝け繧ｹ繧ｿ繧､繝ｫ,.繧ｰ繝ｩ繝輔ぅ繝け繧ｹ繧ｿ繧､繝ｫ-2,.繧ｰ繝ｩ繝輔ぅ繝け繧ｹ繧ｿ繧､繝ｫ-3{stroke-width:2px;}.cls-2,.cls-3,.cls-8,.繧ｰ繝ｩ繝輔ぅ繝け繧ｹ繧ｿ繧､繝ｫ{fill:none;}.cls-2,.cls-3{stroke-linecap:round;stroke-linejoin:round;}.cls-2{stroke-width:1.43px;}.cls-3{stroke-width:1.83px;}.cls-7,.繧ｰ繝ｩ繝輔ぅ繝け繧ｹ繧ｿ繧､繝ｫ,.繧ｰ繝ｩ繝輔ぅ繝け繧ｹ繧ｿ繧､繝ｫ-3{stroke-miterlimit:10;}.cls-4{fill:#030201;}.cls-5{fill:#242323;}.cls-6{fill:#e83589;}.cls-7{stroke-width:1.27px;}.cls-8{stroke-linejoin:bevel;}</style></defs><title>kukakuzu</title><g id="レイヤー_2" data-name="レイヤー 2"><rect class="cls-1" width="700" height="500"/><polygon class="繧ｰ繝ｩ繝輔ぅ繝け繧ｹ繧ｿ繧､繝ｫ-2" points="228.81 69.93 254.29 37.93 650.74 37.93 637.41 159.7 229.65 159.7 228.81 69.93"/><polygon class="繧ｰ繝ｩ繝輔ぅ繝け繧ｹ繧ｿ繧､繝ｫ-2" points="637.41 159.7 623.18 254.19 623.18 329.74 630.29 396.15 475.63 392.59 475.63 208.05 230.29 208.05 229.65 159.7 637.41 159.7"/><polygon class="繧ｰ繝ｩ繝輔ぅ繝け繧ｹ繧ｿ繧､繝ｫ-2" points="232.07 378.83 475.63 392.59 475.63 208.05 230.29 208.05 232.07 378.83"/><polyline class="cls-2" points="85.53 138.25 85.53 126.5 92.43 138.25 92.43 126.5"/><circle class="cls-3" cx="80.99" cy="168.55" r="24.35"/><polygon points="78.11 181.9 87.75 191.17 86 145.33 65.51 186.37 78.11 181.9"/><path d="M211.86,287.73v1.36h-8.31v2.41H210V299c0,1.09-.49,1.49-1.83,1.49a22.53,22.53,0,0,1-2.32-.12l-.25-1.43a16.89,16.89,0,0,0,2.29.19c.49,0,.6-.1.6-.55v-5.79h-4.89v10.25h-1.49V292.83h-4.64v7.9h-1.49V291.5h6.13v-2.41h-8.13v-1.36h8.13v-2.59h1.49v2.59Z"/><path d="M198.15,319.15c1.53,1.53,3.29,2.11,6.46,2.13H212a7.54,7.54,0,0,0-.46,1.34H204.4c-3.3,0-5.13-.66-6.76-2.3a18.27,18.27,0,0,1-2.94,2.77l-.83-1.34a17,17,0,0,0,2.85-2.17v-5.05h-2.79v-1.29h4.22Zm-.81-9.42a19.81,19.81,0,0,0-2.75-3.21l1-.87a18.93,18.93,0,0,1,2.84,3.08Zm1.85-1v-1.19h3.34a11,11,0,0,0-1.21-1.81l1.33-.51a13.45,13.45,0,0,1,1.35,2.32h2.46a19,19,0,0,0,1-2.36l1.49.38a14.37,14.37,0,0,1-1.08,2h3.53v1.19H206c-.1.32-.4,1.11-.59,1.57h4.74v9.62h-9.61V310.3H204a13.54,13.54,0,0,0,.5-1.57Zm2.74,4.38h6.79v-1.74h-6.79Zm0,2.74h6.79v-1.72h-6.79Zm0,3h6.79v-1.89h-6.79Z"/><path d="M174.05,204.86a22.93,22.93,0,0,0-3-2.9l1-1a17.5,17.5,0,0,1,3,2.83Zm-2.49,7.68a28.67,28.67,0,0,0,3.32-6.19l1.19.93a32.23,32.23,0,0,1-3.31,6.38Zm3.17-12.49a19.87,19.87,0,0,0-2.87-3l1-1a17.42,17.42,0,0,1,2.94,2.82Zm7.47,5.36,0,0a42.78,42.78,0,0,1-2.68,5.85l-.07.17,1.39-.12c1.4-.11,3.53-.33,5.21-.56-.58-1-1.26-2-2-3l1.19-.66a34.16,34.16,0,0,1,3.72,5.72l-1.34.85c-.44-.89-.63-1.27-1-1.84l-.19,0c-2.09.42-6.54,1-9.64,1.27l-.49-1.49.75,0,.23,0,.51,0a42.18,42.18,0,0,0,2.79-6.27h-4.75v-1.26h5.75v-3.81H176.9v-1.3h4.73v-3h1.48v3h5v1.3h-5v3.81h6v1.26h-6.87Z"/><path d="M177,218.69a9.84,9.84,0,0,1,.83,1.51l-1.4.42a9.39,9.39,0,0,0-1-1.93h-1.32a10.76,10.76,0,0,1-1.85,2.23l-1.06-.91a9.24,9.24,0,0,0,2.7-4.13l1.47.24c-.22.59-.34.87-.58,1.38h4.85v1.19Zm2.59,9.8a17.36,17.36,0,0,1-6.89,4.56l-1-1.17a17,17,0,0,0,6.55-3.7l.1-.09h-5.66a41.84,41.84,0,0,0,.67-4.25h6.2v-1.73h-6.72v-1.19h14.51V225H181v1.94h7.38a14.75,14.75,0,0,1-.7,4.4c-.32.77-.87,1-2.06,1a18.25,18.25,0,0,1-2.26-.14l-.36-1.39a21.29,21.29,0,0,0,2.3.19c.7,0,.93-.14,1.1-.65a9.68,9.68,0,0,0,.41-2.28H181v5.74H179.6ZM174.76,225c0,.41-.17,1.41-.26,1.94h5.1V225Zm10-6.29a10.35,10.35,0,0,1,.92,1.42l-1.37.45a12,12,0,0,0-1.1-1.87h-1.26a9.18,9.18,0,0,1-1.46,2l-1.09-.81a9.78,9.78,0,0,0,2.21-4.08l1.45.21c-.19.56-.3.9-.53,1.45h6.25v1.19Zm1.19,3.42H181v1.73h4.91Z"/><path d="M180.8,273.83h-1.45v-6a18.34,18.34,0,0,1-7.34,5.28l-.87-1.2a18.49,18.49,0,0,0,7-4.44h-6.9v-1.26h8.13v-2.06h1.45v2.06h8.27v1.26h-7a19.64,19.64,0,0,0,7.09,4l-.92,1.32a19.17,19.17,0,0,1-7.46-5.07Zm5.12-16.16a17.47,17.47,0,0,1-4.34,3.95,26.07,26.07,0,0,0,7.17,2.22l-.77,1.29a29.52,29.52,0,0,1-7.69-2.7,26.3,26.3,0,0,1-7.9,2.89l-.76-1.17a24.74,24.74,0,0,0,7.49-2.48,24,24,0,0,1-2.68-2.37,15.27,15.27,0,0,1-3.28,2l-.93-1a12.84,12.84,0,0,0,5.65-4.51l1.43.29c-.28.43-.36.51-.62.86h6.46Zm-8.23.47c-.13.15-.19.19-.3.31a15,15,0,0,0,3,2.47,16.62,16.62,0,0,0,3.38-2.78Z"/><path d="M176.39,279.26c.26-1.17.41-1.95.6-3l1.51.19,0,.14c-.26,1.24-.43,2-.58,2.64h6.32v1.32h-6.64a68.78,68.78,0,0,1-4.06,12.19l-1.44-.54a67.9,67.9,0,0,0,4-11.65h-3.95v-1.32Zm11.55,13a20.83,20.83,0,0,1-3.15.21,16.14,16.14,0,0,1-4.36-.49,2.21,2.21,0,0,1-1.66-2.23,2.9,2.9,0,0,1,.64-1.85l1.19.74a1.7,1.7,0,0,0-.31.93,1.06,1.06,0,0,0,.76,1.09,12.75,12.75,0,0,0,3.17.36,24.2,24.2,0,0,0,3.55-.27Zm-8.27-8.73a56,56,0,0,1,6.74-.42h.81l.1,1.38h-1.19a54.08,54.08,0,0,0-6.27.36Z"/><path d="M176.39,299.07c.26-1.17.41-1.94.6-3l1.51.19,0,.13c-.26,1.24-.43,2-.58,2.64h5.28v1.32h-5.6a68.23,68.23,0,0,1-4.06,12.19l-1.44-.54a67.9,67.9,0,0,0,4-11.65h-3.95v-1.32Zm11.55,13a22.35,22.35,0,0,1-3.15.2,15.75,15.75,0,0,1-4.36-.49,2.21,2.21,0,0,1-1.66-2.22,2.86,2.86,0,0,1,.64-1.85l1.19.73a1.72,1.72,0,0,0-.31.93,1.06,1.06,0,0,0,.76,1.09,12.75,12.75,0,0,0,3.17.36,24.21,24.21,0,0,0,3.55-.26Zm-8.27-8.74a56,56,0,0,1,6.74-.42h.81l.1,1.38h-1.19a54.08,54.08,0,0,0-6.27.36Zm5.91-3.51a15.57,15.57,0,0,0-1.64-3.06l1.13-.44a16.86,16.86,0,0,1,1.64,3Zm2.34-.74A14.64,14.64,0,0,0,186.3,296l1.09-.41a13.58,13.58,0,0,1,1.66,3Z"/><path d="M176.1,316V326.6c0,2.46,1.34,3.74,3.93,3.74a5,5,0,0,0,4.13-2.19,14.84,14.84,0,0,0,1.91-4.44l1.34.85a14.7,14.7,0,0,1-2,4.51,6.46,6.46,0,0,1-5.48,2.74c-3.49,0-5.38-1.83-5.38-5.23V316Z"/><path d="M179.35,334.58h1.45v1.13h6.06v2.17h2.25v1h-2.25v2.23H180.8v1h7.08v1H180.8v1.06h8.31v1.08H171.18v-1.08h8.17v-1.06h-6.81v-1h6.81v-1h-6v-1h6v-1.21h-8.17v-1h8.17v-1.15h-6v-1h6Zm7.46,17.93h-1.49v-.83H175v.83h-1.49v-6.19h13.33ZM175,348.43h10.35v-1.07H175Zm0,2.17h10.35v-1.17H175Zm5.83-13.87v1.15h4.61v-1.15Zm0,2.19v1.21h4.61v-1.21Z"/><path d="M178.56,357.28c-.21-.57-.57-1.7-.72-2.19l1.47-.09c.15.54.53,1.68.76,2.28h6.41v1.28h-5.94c.34.91.91,2.15,1.36,3.06h5.85v1.28h-5.17a27.56,27.56,0,0,0,2.11,3.29l-1.47.49a33.52,33.52,0,0,1-2.28-3.78h-8.48v-1.28h7.85c-.47-1-.92-2.08-1.28-3.06h-6.25v-1.28Zm6,13.89c-1.47.08-2.25.11-3,.11a18.48,18.48,0,0,1-5.23-.54c-1.77-.57-2.76-1.74-2.76-3.25a3,3,0,0,1,.59-1.87l1.17.66a3.18,3.18,0,0,0-.28,1.23c0,1.64,1.92,2.38,6.19,2.38,1,0,2-.06,3.21-.15Z"/><path d="M175.24,388.38c1.41,1.47,3.2,2.09,6.32,2.15h7.74a5.39,5.39,0,0,0-.49,1.32h-7.27c-3.36,0-5.38-.75-6.91-2.43a16.42,16.42,0,0,1-2.72,2.9l-.77-1.34a25.67,25.67,0,0,0,2.66-2.28v-4.93h-2.62v-1.28h4.06ZM174.5,379a20.64,20.64,0,0,0-2.7-3.3l1-.87a19.22,19.22,0,0,1,2.79,3.16Zm13.31-.09v9.29c0,1-.34,1.36-1.38,1.36a17.33,17.33,0,0,1-1.93-.12l-.22-1.21a10,10,0,0,0,1.7.14c.39,0,.45-.06.45-.48v-2h-3.38v3.36h-1.32v-3.36h-3.27v3.59h-1.37V378.94h5c-1-.57-2.13-1.11-3.28-1.62l.89-.78c1.05.49,1.56.74,2.53,1.25a30.46,30.46,0,0,0,2.66-1.53h-7.78v-1.17h9.49l.78.79a24.59,24.59,0,0,1-4.1,2.49l.23.16c.43.24.47.26.7.41Zm-9.35,2.94h3.27V380h-3.27Zm0,3h3.27V383h-3.27Zm4.59-3h3.38V380h-3.38Zm3.38,1.08h-3.38v1.89h3.38Z"/><path d="M178.46,401.3H176v3h2.45v1.25H176v3.94c.51-.13,1.94-.54,2.89-.85l.13,1.23a66.37,66.37,0,0,1-7.44,2.11l-.49-1.34,1-.2v-7.36h1.28v7.07l.48-.11.45-.11.4-.1V401.3H172v-6.13h6.49Zm-5.15-1.23h3.81v-3.64h-3.81Zm14.44-3.7a15.87,15.87,0,0,1-2.77,4.55,15.39,15.39,0,0,0,4.32,2.63l-.72,1.24a16.43,16.43,0,0,1-4.51-2.94,15.66,15.66,0,0,1-4.89,3.11l-.75-1.17a12.38,12.38,0,0,0,4.71-2.89,12.77,12.77,0,0,1-1.69-2.39l-.08.09,0,.06a12.29,12.29,0,0,1-1.66,1.72l-.92-1a11.41,11.41,0,0,0,3.45-5l1.4.23c-.21.49-.27.64-.42,1h3.66Zm-.08,15.95H186.3v-1.11h-4.82v1.11h-1.37v-7.43h7.56ZM181.48,410h4.82v-3.81h-4.82Zm.66-12.47A12.21,12.21,0,0,0,184,400a12.76,12.76,0,0,0,2-3.19h-3.51l-.32.54Z"/><path d="M177.66,237.46v10.22h2.93v1.45h-2.93v3.72H176v-3.72h-7.77v-1.44l7.36-10.23ZM176,242.24c0-.87,0-2.34.1-3.27H176a20.69,20.69,0,0,1-1.38,2.4l-4.49,6.31H176Z"/><path d="M186.4,244.07c2.7,0,4.19-1,4.19-2.76,0-1.56-1.27-2.54-3.3-2.54a4.63,4.63,0,0,0-3.7,1.64l-1.12-1.06a6.59,6.59,0,0,1,4.85-2.07c3,0,5.16,1.6,5.16,3.9,0,1.91-1.4,3.21-3.72,3.49v.08c2.74.19,4.32,1.66,4.32,4,0,2.7-2.23,4.42-5.77,4.42a6.85,6.85,0,0,1-5.38-2.13L183,249.9a5.74,5.74,0,0,0,4.25,1.7c2.41,0,3.87-1.13,3.87-3,0-2.11-1.51-3.1-4.8-3.1h-1.23v-1.43Z"/><path d="M127.29,294.41l1,.76c-.71,2.5-1.07,3.69-1.46,4.79a16,16,0,0,1,4.53,1.35c.08-.88.11-1.66.11-2.45l0-1.28,1.41.16c0,1.68-.07,3-.2,4.18.81.41,1.5.81,2.34,1.33l-.59,1.37c-.87-.58-1.24-.81-2-1.24a7.57,7.57,0,0,1-4.82,5.89l-.83-1.08a6.83,6.83,0,0,0,4.38-5.51,14.89,14.89,0,0,0-4.77-1.55,25.66,25.66,0,0,1-3,6,3.13,3.13,0,0,1-2.28,1.37c-1.3,0-2.24-1.37-2.24-3.26,0-3.23,2.53-5.3,6.56-5.35a38.38,38.38,0,0,0,1.28-4.18h-6.12v-1.26ZM125,301.06a5.65,5.65,0,0,0-3.51,1.2,3.91,3.91,0,0,0-1.24,2.92c0,1,.41,1.84,1,1.84.86,0,2.12-1.95,3.65-5.66Z"/><path d="M122.77,315.54c.29-.93.51-1.71.78-2.79l1.4.2c-.23.85-.5,1.78-.76,2.59h3.35v1.26h-3.76a31.83,31.83,0,0,1-3.58,7.57l-1.21-.71a28.29,28.29,0,0,0,3.37-6.86h-2.83v-1.26Zm7.53,3v5a27.73,27.73,0,0,1,4.23,2.41l-.76,1.21A25.87,25.87,0,0,0,130.3,325c0,2.3-1.23,3.47-3.53,3.47S123,327.39,123,325.7s1.59-2.88,4-2.88a7.94,7.94,0,0,1,1.86.23v-4.46Zm-1.42,5.79a6.2,6.2,0,0,0-2.07-.37c-1.48,0-2.47.66-2.47,1.65s1,1.62,2.41,1.62a2.08,2.08,0,0,0,2.13-2.32Zm5-5.15a27.52,27.52,0,0,0-4.25-3.7l.83-1a29.36,29.36,0,0,1,4.39,3.58Z"/><path d="M122.9,332.12v10.16c0,2.34,1.28,3.56,3.74,3.56a4.81,4.81,0,0,0,4-2.09,14.29,14.29,0,0,0,1.81-4.23l1.28.81a14.06,14.06,0,0,1-1.89,4.31,6.16,6.16,0,0,1-5.22,2.61c-3.33,0-5.13-1.75-5.13-5V332.12Z"/><path d="M122.07,363.59c1.35,1.4,3.06,2,6,2.05h7.38a5.5,5.5,0,0,0-.46,1.26h-6.94c-3.2,0-5.13-.72-6.59-2.32a15.27,15.27,0,0,1-2.59,2.77l-.74-1.28a24.47,24.47,0,0,0,2.54-2.17v-4.7h-2.5V358h3.87Zm-.7-8.91a18.82,18.82,0,0,0-2.58-3.15l1-.83a17.69,17.69,0,0,1,2.67,3Zm12.69-.09v8.85c0,1-.32,1.3-1.31,1.3a15.67,15.67,0,0,1-1.84-.11l-.22-1.15a10.22,10.22,0,0,0,1.63.13c.37,0,.43-.06.43-.45v-1.89h-3.23v3.2h-1.26v-3.2h-3.11v3.42h-1.32v-10.1h4.83c-1-.54-2-1.07-3.13-1.55l.84-.74c1,.47,1.5.7,2.42,1.19a28.89,28.89,0,0,0,2.53-1.46h-7.41v-1.12H133l.74.76a23.79,23.79,0,0,1-3.91,2.38l.22.14a6.8,6.8,0,0,1,.67.4Zm-8.91,2.81h3.11v-1.77h-3.11Zm0,2.82h3.11v-1.8h-3.11Zm4.37-2.82h3.23v-1.77h-3.23Zm3.23,1h-3.23v1.8h3.23Z"/><path d="M125.15,376.28h-2.32v2.84h2.34v1.19h-2.34v3.76c.48-.12,1.85-.52,2.75-.81l.13,1.17a63,63,0,0,1-7.1,2l-.46-1.28.95-.2v-7h1.22v6.75l.45-.1.44-.11.37-.09v-8.12H119v-5.85h6.2Zm-4.92-1.17h3.64v-3.48h-3.64ZM134,371.58a15.43,15.43,0,0,1-2.65,4.34,14.85,14.85,0,0,0,4.12,2.5l-.68,1.19a15.68,15.68,0,0,1-4.3-2.81,15.15,15.15,0,0,1-4.67,3l-.72-1.12a11.83,11.83,0,0,0,4.5-2.75,13,13,0,0,1-1.62-2.29l-.07.09,0,.06a11.16,11.16,0,0,1-1.59,1.63l-.88-.95a10.82,10.82,0,0,0,3.29-4.77l1.34.21c-.2.47-.26.62-.4.92h3.49Zm-.07,15.21h-1.32v-1.06H128v1.06h-1.31V379.7h7.22ZM128,384.54h4.59V380.9H128Zm.63-11.9a11.17,11.17,0,0,0,1.78,2.41,12.33,12.33,0,0,0,1.95-3H129c-.07.13-.15.25-.31.52Z"/><path d="M286.06,431.58v4.14l8.63-1.15.9.88a10.75,10.75,0,0,1-4.54,6.05l-1.06-.94a8.44,8.44,0,0,0,3.85-4.59l-7.78,1.12v6.44c0,.78.17,1.1.62,1.26a11.93,11.93,0,0,0,3,.24,48.75,48.75,0,0,0,4.9-.26v1.48c-1.46.11-2.83.16-4.32.16a16.3,16.3,0,0,1-4.58-.34c-.75-.32-1.08-1-1.08-2.23v-6.56l-3.8.54-.14-1.38,3.94-.52v-4.34Z"/><path d="M301.18,440.56a23.92,23.92,0,0,0-1.51-4.63l1.19-.59a24.34,24.34,0,0,1,1.62,4.7Zm1.53,5.13c5-1.37,6.83-4.05,7.55-10.87l1.35.39c-.94,7.22-2.86,10-8.16,11.64Zm2.44-5.9a25.62,25.62,0,0,0-1.48-4.59l1.28-.53a26.36,26.36,0,0,1,1.49,4.63Z"/><path d="M319.17,431.56v5a59.41,59.41,0,0,1,8.62,3.3l-.74,1.33a57.68,57.68,0,0,0-7.88-3.22v9h-1.48V431.56Z"/><path d="M331.26,445.15c1.89-2.52,3.64-8,4-12.37l1.44.31c-.72,5.6-2.28,10.53-4.21,13.14Zm13.67,1.08c-1.75-2.75-3.66-8.21-4.65-13.18l1.37-.43a41.23,41.23,0,0,0,4.52,12.62Zm-.78-11.63a14.64,14.64,0,0,0-1.58-3l1.08-.42a15.43,15.43,0,0,1,1.6,2.92Zm2.25-.63a13.1,13.1,0,0,0-1.56-3l1.06-.38a12,12,0,0,1,1.58,2.86Z"/><path d="M352.3,440.56a23.92,23.92,0,0,0-1.51-4.63l1.19-.59a24.34,24.34,0,0,1,1.62,4.7Zm1.53,5.13c5-1.37,6.83-4.05,7.55-10.87l1.35.39c-.94,7.22-2.86,10-8.16,11.64Zm2.44-5.9a25.62,25.62,0,0,0-1.48-4.59l1.28-.53a26.36,26.36,0,0,1,1.49,4.63Z"/><path d="M380.39,434.69c-1.21,6.81-4.16,10.25-10.57,12.25l-.83-1.27c5.78-1.63,8.8-4.91,9.81-10.62h-6.42a14.61,14.61,0,0,1-4.2,4.4l-1-1a12.88,12.88,0,0,0,5.32-6.86l1.38.4c-.23.64-.5,1.27-.75,1.81h6.21Z"/><path d="M398.17,436.58v9.65c0,1.17-.38,1.5-1.75,1.5-.88,0-1.81,0-2.68-.11l-.27-1.31c1,.1,2.07.16,2.63.16s.65-.09.65-.56v-2.18h-7.6v4.14h-1.42v-9.63a17.38,17.38,0,0,1-3.28,2.7l-.9-1.1a14.34,14.34,0,0,0,5.37-5.56h-5.08v-1.19h5.63a14.11,14.11,0,0,0,.81-2.36l1.48.18a16,16,0,0,1-.74,2.18h9.58v1.19H390.46a18.64,18.64,0,0,1-1.36,2.3Zm-9,3h7.6v-1.79h-7.6Zm0,3.07h7.6v-2h-7.6Z"/><path d="M409.44,438.87c-1,1.82-2.15,2.92-3,2.92-1,0-1.62-1.71-1.62-4.85a31.31,31.31,0,0,1,.56-5.24l1.41.2a30.15,30.15,0,0,0-.54,5.06c0,2,.16,3.1.46,3.1s1.3-1.21,1.84-2.31Zm-.74,7.06a8.42,8.42,0,0,0,4.05-2.36c1.1-1.28,1.62-3.08,1.62-5.62a46.77,46.77,0,0,0-.56-6.3l1.46-.15a41.37,41.37,0,0,1,.59,6.52c0,5-1.76,7.55-6.39,9.11Z"/><path d="M154.89,460a21.18,21.18,0,0,1-3.49,1.08l-.4-1.35a14.45,14.45,0,0,0,4.36-1.6h1.21V473h-1.68Z"/><path d="M169.51,465.89a17.94,17.94,0,0,1-.6,1.76H179a17.08,17.08,0,0,1-.95,5.15c-.45,1-1,1.3-2.65,1.3-1,0-2.23-.06-3.11-.13L172,472.6c1.24.11,2.45.18,3.31.18s1.18-.14,1.43-.72a17.39,17.39,0,0,0,.68-3.18h-9c-.24.5-.49,1-.76,1.53l-1.46-.42a24.44,24.44,0,0,0,1.78-4.1h-4v-1.23h17.1v1.23ZM178.4,463H166.64v-5.11H178.4Zm-10.3-1.15h8.84V459.1H168.1Z"/><path d="M186.08,465.29a20.68,20.68,0,0,1-2.18,4.88l-.66-1.44a20.3,20.3,0,0,0,2.72-6.5h-2.47V461h2.59v-3.85h1.34V461h1.87v1.26h-1.87v1.68a20.18,20.18,0,0,1,2.21,2.1l-.76,1.21a19.72,19.72,0,0,0-1.45-1.86v8.86h-1.34Zm10,2.51a13.53,13.53,0,0,0,4.59,4.06l-.84,1.27a14.73,14.73,0,0,1-4.65-4.61v5.7H194v-5.6a13.86,13.86,0,0,1-4.63,4.76l-.9-1.1a12.84,12.84,0,0,0,4.72-4.48h-3.33v-6.41H194v-1.34h-5.08v-1.17H194v-1.76h1.28v1.76h5.19v1.17h-5.19v1.34h4.27v6.41Zm-5-5.32V464H194v-1.53Zm0,2.63v1.57H194v-1.57Zm4.14-1.1h3v-1.53h-3Zm0,2.67h3v-1.57h-3Z"/><path d="M214.65,465.67c0,4.68-2.07,7.56-5.4,7.56s-5.4-2.9-5.4-7.56,2.07-7.56,5.42-7.56S214.65,461,214.65,465.67Zm-9,0c0,3.78,1.39,6.12,3.66,6.12s3.62-2.34,3.62-6.12-1.39-6.14-3.66-6.14S205.61,461.89,205.61,465.67Z"/><path d="M221.36,470.39V473h-2.57v-2.57Z"/><path d="M231.44,460a21.18,21.18,0,0,1-3.49,1.08l-.39-1.35a14.37,14.37,0,0,0,4.35-1.6h1.21V473h-1.68Z"/><path d="M252.33,465.67c0,4.68-2.07,7.56-5.41,7.56s-5.4-2.9-5.4-7.56,2.07-7.56,5.42-7.56S252.33,461,252.33,465.67Zm-9,0c0,3.78,1.38,6.12,3.65,6.12s3.62-2.34,3.62-6.12-1.38-6.14-3.65-6.14S243.29,461.89,243.29,465.67Z"/><path d="M258.73,464.18a3.39,3.39,0,0,1,3-2,2.9,2.9,0,0,1,2.94,2.22,3.45,3.45,0,0,1,3.15-2.22,3.09,3.09,0,0,1,2.66,1.37,4.57,4.57,0,0,1,.63,2.74V473h-1.6v-6.68c0-1.76-.72-2.75-2-2.75a3,3,0,0,0-2.54,2.52V473h-1.58v-6.77c0-1.62-.78-2.66-2-2.66s-2.18,1.11-2.58,2.73V473h-1.62V462.34h1.55Zm9.87-3.44a2.52,2.52,0,0,1,1.21-1.37l.37-.24.15-.09c.75-.45.92-.61.92-.9s-.4-.52-.87-.52a1.52,1.52,0,0,0-1.19.63l-.59-.56a2.13,2.13,0,0,1,1.8-.84c1.06,0,1.84.54,1.84,1.28a1.32,1.32,0,0,1-.83,1.2l-.36.2a3.18,3.18,0,0,0-1.3,1h2.63v.81H268.6Z"/><path d="M279.27,474a34.44,34.44,0,0,0-3.37-4l1.08-1a29.59,29.59,0,0,1,3.44,4Z"/><path d="M288.63,471.5c.49-1.87,2-3.67,4.5-5.4l.51-.34a15.25,15.25,0,0,0,2.17-1.64,2.85,2.85,0,0,0,1-2.1c0-1.48-1.26-2.49-3.08-2.49a4.85,4.85,0,0,0-3.8,1.89l-1.14-1a6.08,6.08,0,0,1,5-2.32c2.86,0,4.86,1.64,4.86,4a3.72,3.72,0,0,1-1.53,3c-.44.37-1.08.84-2.33,1.69l-.63.43c-2.25,1.53-3.47,2.92-3.76,4.23h8.44V473H288.63Z"/><path d="M308,465.89c-.18.64-.4,1.26-.59,1.76h10.12a17.34,17.34,0,0,1-1,5.15c-.45,1-1,1.3-2.65,1.3-.95,0-2.23-.06-3.11-.13l-.32-1.37c1.24.11,2.44.18,3.31.18s1.17-.14,1.42-.72a16.58,16.58,0,0,0,.68-3.18h-9c-.23.5-.49,1-.76,1.53l-1.45-.42a25.28,25.28,0,0,0,1.78-4.1h-4v-1.23h17.11v1.23Zm8.89-2.87H305.12v-5.11h11.75Zm-10.29-1.15h8.84V459.1h-8.84Z"/><path d="M324.56,465.29a21.53,21.53,0,0,1-2.18,4.88l-.67-1.44a20.3,20.3,0,0,0,2.72-6.5H322V461h2.59v-3.85h1.33V461h1.87v1.26h-1.87v1.68a20.3,20.3,0,0,1,2.22,2.1l-.76,1.21a20,20,0,0,0-1.46-1.86v8.86h-1.33Zm10.05,2.51a13.43,13.43,0,0,0,4.59,4.06l-.85,1.27a14.83,14.83,0,0,1-4.65-4.61v5.7h-1.27v-5.6a14,14,0,0,1-4.63,4.76l-.9-1.1a12.92,12.92,0,0,0,4.72-4.48h-3.34v-6.41h4.15v-1.34h-5.08v-1.17h5.08v-1.76h1.27v1.76h5.19v1.17H333.7v1.34H338v6.41Zm-5.05-5.32V464h2.87v-1.53Zm0,2.63v1.57h2.87v-1.57Zm4.14-1.1h3v-1.53h-3Zm0,2.67h3v-1.57h-3Z"/><path d="M353.13,465.67c0,4.68-2.07,7.56-5.41,7.56s-5.4-2.9-5.4-7.56,2.07-7.56,5.42-7.56S353.13,461,353.13,465.67Zm-9,0c0,3.78,1.38,6.12,3.65,6.12s3.62-2.34,3.62-6.12-1.38-6.14-3.65-6.14S344.09,461.89,344.09,465.67Z"/><path d="M359.84,470.39V473h-2.58v-2.57Z"/><path d="M369.92,460a21.49,21.49,0,0,1-3.49,1.08l-.4-1.35a14.45,14.45,0,0,0,4.36-1.6h1.2V473h-1.67Z"/><path d="M380.23,471.54c.47-1.93,2-3.85,4.48-5.47l.47-.31c2.52-1.64,3.19-2.43,3.19-3.74,0-1.48-1.22-2.47-3.08-2.47a4.51,4.51,0,0,0-3.73,1.93l-1.13-1a5.8,5.8,0,0,1,4.93-2.41c2.81,0,4.86,1.66,4.86,3.94,0,1.82-.7,2.67-3.92,4.72l-.65.41c-2.14,1.41-3.49,3-3.65,4.25h8.44V473H380.23Z"/><path d="M397.21,464.18a3.38,3.38,0,0,1,3-2,2.9,2.9,0,0,1,2.93,2.22,3.45,3.45,0,0,1,3.15-2.22,3.1,3.1,0,0,1,2.67,1.37,4.57,4.57,0,0,1,.63,2.74V473H408v-6.68c0-1.76-.72-2.75-2-2.75a3,3,0,0,0-2.54,2.52V473h-1.59v-6.77c0-1.62-.77-2.66-2-2.66s-2.18,1.11-2.57,2.73V473h-1.62V462.34h1.55Zm9.86-3.44a2.56,2.56,0,0,1,1.21-1.37l.38-.24.14-.09c.76-.45.92-.61.92-.9s-.4-.52-.86-.52a1.5,1.5,0,0,0-1.19.63l-.6-.56a2.15,2.15,0,0,1,1.8-.84c1.07,0,1.84.54,1.84,1.28a1.3,1.3,0,0,1-.83,1.2l-.36.2a3.06,3.06,0,0,0-1.29,1h2.62v.81h-3.78Z"/><path d="M417.74,474a34.34,34.34,0,0,0-3.36-4l1.08-1a30.32,30.32,0,0,1,3.44,4Z"/><path d="M430.87,464.59c2.53,0,4-1,4-2.68,0-1.46-1.24-2.42-3.11-2.42a5,5,0,0,0-3.69,1.59l-1-1.1a6.89,6.89,0,0,1,4.79-1.87c2.84,0,4.82,1.49,4.82,3.65,0,1.89-1.31,3.19-3.49,3.46v.07c2.58.27,4,1.62,4,3.77,0,2.57-2.07,4.19-5.41,4.19a6.92,6.92,0,0,1-5.22-2.05l1.05-1.12a5.75,5.75,0,0,0,4.17,1.73c2.24,0,3.61-1.06,3.61-2.79a2.62,2.62,0,0,0-1.34-2.43,7.28,7.28,0,0,0-3.22-.63h-1.1v-1.37Z"/><path d="M446.45,465.89a18.06,18.06,0,0,1-.59,1.76H456a17.34,17.34,0,0,1-1,5.15c-.45,1-1,1.3-2.64,1.3-1,0-2.23-.06-3.12-.13l-.32-1.37c1.24.11,2.45.18,3.31.18s1.17-.14,1.42-.72a16.41,16.41,0,0,0,.69-3.18h-9c-.23.5-.48,1-.75,1.53l-1.46-.42a24.44,24.44,0,0,0,1.78-4.1h-4v-1.23H458v1.23Zm8.9-2.87H443.59v-5.11h11.76Zm-10.3-1.15h8.84V459.1h-8.84Z"/><path d="M463,465.29a20.68,20.68,0,0,1-2.18,4.88l-.66-1.44a20.3,20.3,0,0,0,2.72-6.5h-2.47V461H463v-3.85h1.33V461h1.88v1.26h-1.88v1.68a20.3,20.3,0,0,1,2.22,2.1l-.76,1.21a20,20,0,0,0-1.46-1.86v8.86H463Zm10.05,2.51a13.43,13.43,0,0,0,4.59,4.06l-.85,1.27a14.8,14.8,0,0,1-4.64-4.61v5.7H470.9v-5.6a14,14,0,0,1-4.63,4.76l-.9-1.1a12.92,12.92,0,0,0,4.72-4.48h-3.33v-6.41h4.14v-1.34h-5.08v-1.17h5.08v-1.76h1.28v1.76h5.18v1.17h-5.18v1.34h4.27v6.41Zm-5-5.32V464h2.86v-1.53Zm0,2.63v1.57h2.86v-1.57Zm4.14-1.1h3v-1.53h-3Zm0,2.67h3v-1.57h-3Z"/><path d="M491.6,465.67c0,4.68-2.07,7.56-5.4,7.56s-5.4-2.9-5.4-7.56,2.07-7.56,5.42-7.56S491.6,461,491.6,465.67Zm-9,0c0,3.78,1.39,6.12,3.66,6.12s3.62-2.34,3.62-6.12-1.39-6.14-3.66-6.14S482.56,461.89,482.56,465.67Z"/><path d="M498.31,470.39V473h-2.57v-2.57Z"/><path d="M507.51,464.59c2.57,0,4-.94,4-2.63,0-1.49-1.21-2.43-3.15-2.43a4.41,4.41,0,0,0-3.53,1.57l-1.07-1a6.3,6.3,0,0,1,4.63-2c2.9,0,4.92,1.53,4.92,3.73,0,1.81-1.33,3.06-3.55,3.33v.07c2.61.18,4.12,1.58,4.12,3.8,0,2.57-2.12,4.21-5.51,4.21a6.56,6.56,0,0,1-5.13-2l1.06-1.07a5.5,5.5,0,0,0,4.06,1.62c2.3,0,3.69-1.08,3.69-2.86,0-2-1.44-3-4.58-3H506.3v-1.37Z"/><path d="M527.26,465.67a4.34,4.34,0,0,1-3.93,2.47,4.6,4.6,0,0,1-4.7-4.79,5.44,5.44,0,0,1,1.48-3.71,4.72,4.72,0,0,1,3.6-1.53c3.22,0,5.26,2.56,5.26,6.61,0,5.63-2.4,8.21-8.12,8.75l-.74-1.34c4.63-.19,6.88-2.21,7.22-6.46Zm-6.92-2.47c0,2.11,1.3,3.57,3.21,3.57a3.36,3.36,0,0,0,2.55-1.26,3.82,3.82,0,0,0,.9-2.29,4.46,4.46,0,0,0-1-2.72,2.89,2.89,0,0,0-2.31-1A3.54,3.54,0,0,0,520.34,463.2Z"/><path d="M535.68,464.18a3.39,3.39,0,0,1,3-2,2.89,2.89,0,0,1,2.93,2.22,3.46,3.46,0,0,1,3.16-2.22,3.09,3.09,0,0,1,2.66,1.37,4.57,4.57,0,0,1,.63,2.74V473h-1.6v-6.68c0-1.76-.72-2.75-2-2.75a3,3,0,0,0-2.54,2.52V473h-1.58v-6.77c0-1.62-.78-2.66-2-2.66s-2.18,1.11-2.58,2.73V473h-1.62V462.34h1.55Zm9.87-3.44a2.54,2.54,0,0,1,1.2-1.37l.38-.24.14-.09c.76-.45.92-.61.92-.9s-.39-.52-.86-.52a1.52,1.52,0,0,0-1.19.63l-.59-.56a2.13,2.13,0,0,1,1.8-.84c1.06,0,1.83.54,1.83,1.28a1.31,1.31,0,0,1-.82,1.2l-.37.2a3.13,3.13,0,0,0-1.29,1h2.63v.81h-3.78Z"/><path d="M164.49,163.48c2.88,0,4.48-1,4.48-2.94,0-1.68-1.35-2.73-3.53-2.73a5,5,0,0,0-4,1.76l-1.19-1.13a7,7,0,0,1,5.19-2.22c3.25,0,5.5,1.72,5.5,4.18,0,2-1.49,3.43-4,3.73v.08c2.93.2,4.62,1.77,4.62,4.26,0,2.88-2.38,4.72-6.17,4.72a7.33,7.33,0,0,1-5.75-2.28l1.19-1.19a6.15,6.15,0,0,0,4.54,1.81c2.58,0,4.13-1.21,4.13-3.21,0-2.26-1.61-3.3-5.12-3.3h-1.31v-1.54Z"/><path d="M176.43,170v2.88h-2.89V170Z"/><path d="M188.89,164.69a4.84,4.84,0,0,1-4.39,2.77,5.15,5.15,0,0,1-5.27-5.37,6.08,6.08,0,0,1,1.66-4.15,5.31,5.31,0,0,1,4-1.72c3.61,0,5.89,2.86,5.89,7.4,0,6.32-2.68,9.2-9.1,9.81l-.82-1.5c5.18-.22,7.7-2.48,8.08-7.24Zm-7.74-2.76c0,2.36,1.45,4,3.59,4a3.74,3.74,0,0,0,2.86-1.41,4.27,4.27,0,0,0,1-2.56,5,5,0,0,0-1.13-3,3.21,3.21,0,0,0-2.58-1.13A4,4,0,0,0,181.15,161.93Z"/><path d="M195.19,164.79a4.82,4.82,0,0,1,4.31-2.38,5.13,5.13,0,0,1,5.25,5.15,5.33,5.33,0,0,1-5.49,5.61,5.45,5.45,0,0,1-4.74-2.47,8,8,0,0,1-1.37-4.92,10.42,10.42,0,0,1,2.48-6.27,12.24,12.24,0,0,1,6-3.77l.73,1.43c-4.12,1.47-6.7,4.19-7.21,7.62Zm.2,2.81a4,4,0,0,0,3.81,4,3.65,3.65,0,0,0,3.61-3.89,3.52,3.52,0,0,0-3.63-3.77A3.88,3.88,0,0,0,195.39,167.6Z"/><path d="M217.78,156.52v1.64h-7.67l-.63,5.73h.09a5.37,5.37,0,0,1,3.77-1.38,5,5,0,0,1,5.4,5.17c0,3.21-2.44,5.49-5.89,5.49a8.18,8.18,0,0,1-5.58-1.94l1.1-1.29a7.08,7.08,0,0,0,4.46,1.59,3.78,3.78,0,0,0,3.9-3.85A3.47,3.47,0,0,0,213,164a4.71,4.71,0,0,0-3.71,1.73l-1.69-.28.89-9Z"/><rect class="繧ｰ繝ｩ繝輔ぅ繝け繧ｹ繧ｿ繧､繝ｫ-3" x="250.89" y="225.01" width="210.32" height="106.14"/><rect class="繧ｰ繝ｩ繝輔ぅ繝け繧ｹ繧ｿ繧､繝ｫ-3" x="463.47" y="206.23" width="177.66" height="116" transform="translate(816.53 -288.06) rotate(90)"/><rect class="繧ｰ繝ｩ繝輔ぅ繝け繧ｹ繧ｿ繧､繝ｫ-3" x="360.47" y="51.49" width="256.26" height="93.09" transform="translate(977.19 196.08) rotate(180)"/><path class="cls-1" d="M326.21,74.87a49.17,49.17,0,0,1,0,12.94c-.7,5-6.36,8.69-11.53,8.42q-25.4-1.14-50.78,0c-4.91.26-10.28-3.27-11-8a48.62,48.62,0,0,1,0-13.84c.7-4.72,6.07-8.25,11-8q25.39,1.17,50.78,0C319.85,66.18,325.51,69.9,326.21,74.87Z"/><path class="cls-4" d="M326.82,81.34a50.28,50.28,0,0,1-.42,6.49c-.69,4.85-6.17,8.86-11.73,8.57-16.84-.76-33.92-.75-50.76,0-5.26.28-10.49-3.53-11.18-8.13a49.78,49.78,0,0,1,0-13.9c.69-4.6,5.92-8.41,11.18-8.13,16.84.77,33.92.78,50.76,0,5.56-.29,11,3.72,11.73,8.57h0A50.28,50.28,0,0,1,326.82,81.34Zm-74.21,0a49.81,49.81,0,0,0,.49,6.9c.67,4.45,5.71,8.11,10.79,7.85,16.86-.78,33.95-.79,50.8,0,5.37.28,10.67-3.58,11.33-8.27a48.87,48.87,0,0,0,0-12.9c-.66-4.69-6-8.55-11.33-8.27-16.85.76-33.94.75-50.8,0-5.08-.26-10.12,3.4-10.79,7.85A49.81,49.81,0,0,0,252.61,81.34Z"/><path class="cls-5" d="M316.69,71V91.66l.81-.08V71.1Z"/><path class="cls-4" d="M308.38,68.91l-.69.18a77.18,77.18,0,0,1-18.48,2l-2.31,0h0l-8.28-3.13h.65c1.92,0,3.83-.07,5.66-.07,7.82,0,15.49.35,22.79,1ZM286.93,70.8l2.28,0A78.92,78.92,0,0,0,306.9,69c-7.07-.63-14.47-.94-22-.94-1.63,0-3.3,0-5,0Z"/><path class="cls-4" d="M308.38,93.77l-.71.06c-7.3.67-15,1-22.79,1-1.82,0-3.72,0-5.66-.07h-.65l8.33-3.14,2.31,0a77.18,77.18,0,0,1,18.48,2Zm-28.5.78c1.71,0,3.39,0,5,0,7.55,0,14.95-.31,22-.94a78.92,78.92,0,0,0-17.69-1.8l-2.28,0Z"/><path class="cls-1" d="M277,68.13H264.81c-7.15,0-13,5.2-13,11.55V83c0,6.35,5.85,11.55,13,11.55H277a52.78,52.78,0,0,1,0-26.42Z"/><path d="M277.16,68l0,.15a51.06,51.06,0,0,0-1.67,13.18,1,1,0,0,0,0,.17,52.07,52.07,0,0,0,1.68,13l0,.16H264.81c-7.25,0-13.14-5.24-13.14-11.68V79.68c0-6.44,5.89-11.67,13.14-11.67ZM252,83c0,6.3,5.77,11.42,12.86,11.42h12a52.11,52.11,0,0,1-1.64-12.91v-.34a52.11,52.11,0,0,1,1.64-12.91h-12c-7.09,0-12.86,5.12-12.86,11.42Z"/><path class="cls-1" d="M305.49,71.79a56.7,56.7,0,0,0,0,19.1,34.77,34.77,0,0,0,11.2.81V71A34.77,34.77,0,0,0,305.49,71.79Z"/><path d="M316.84,70.87V91.81h-.13A35.12,35.12,0,0,1,305.45,91l-.09,0V90.9a56.82,56.82,0,0,1,0-19.12v-.09l.09,0a35.12,35.12,0,0,1,11.26-.81Zm-.29,20.72V71.09a34.89,34.89,0,0,0-10.94.81,57,57,0,0,0,0,18.89A35.18,35.18,0,0,0,316.55,91.59Z"/><path class="cls-5" d="M316.69,71V91.7c.28,0,.55,0,.82-.09V71.07C317.24,71,317,71,316.69,71Z"/><path class="cls-1" d="M317.51,91.61h5.84a20.29,20.29,0,0,0,2.5-10.27,20.29,20.29,0,0,0-2.5-10.27h-5.84Z"/><path d="M326,81.34a20.51,20.51,0,0,1-2.52,10.33l0,.07h-6.06V70.94h6.06l0,.07A20.51,20.51,0,0,1,326,81.34Zm-2.72,10.15a20.43,20.43,0,0,0,2.44-10.15,20.43,20.43,0,0,0-2.44-10.15h-5.62v20.3Z"/><path class="cls-5" d="M276.9,68.22l-.78-.26a45.06,45.06,0,0,0,0,26.76l.78-.26A45.11,45.11,0,0,1,276.9,68.22Z"/><path class="cls-1" d="M276.87,94.1l9.87-3.21V71.8l-9.87-3.22A43.69,43.69,0,0,0,276.87,94.1Z"/><path d="M286.88,71.71V91l-10.11,3.29,0-.13a43.89,43.89,0,0,1,0-25.58l0-.13ZM286.6,90.8V71.88L277,68.75a43.54,43.54,0,0,0,0,25.18Z"/><path class="cls-4" d="M323.34,71.1V71a3,3,0,0,0-3.17-2.82h-.24A7.28,7.28,0,0,1,323.34,71.1Z"/><path class="cls-4" d="M323.34,91.58v.13a3,3,0,0,1-3.17,2.82h-.24A7.28,7.28,0,0,0,323.34,91.58Z"/><path class="cls-1" d="M284.7,64.62a1.42,1.42,0,0,0-1.14.2l-2.24,2.3a.37.37,0,0,0-.07.12h2.09L285,64.67Z"/><path class="cls-4" d="M285.17,64.59l-1.75,2.78h-2.34l0-.15a.27.27,0,0,1,.1-.18l2.23-2.3a1.5,1.5,0,0,1,1.28-.24Zm-1.91,2.53,1.49-2.36-.08,0a1.23,1.23,0,0,0-1,.16l-2.16,2.22Z"/><path class="cls-1" d="M284.7,98.06a1.42,1.42,0,0,1-1.14-.2l-2.24-2.3a.37.37,0,0,1-.07-.12h2.09L285,98Z"/><path class="cls-4" d="M285.17,98.09l-.44.1a1.57,1.57,0,0,1-1.28-.24l-2.23-2.31a.27.27,0,0,1-.1-.18l0-.15h2.34Zm-3.66-2.53,2.16,2.22a1.23,1.23,0,0,0,1,.16l.08,0-1.49-2.36Z"/><path class="cls-4" d="M269.46,74.54c-4.67,0-8.77.74-11.15,1.85a32.61,32.61,0,0,1,9.88-1.34,40.42,40.42,0,0,1,5.34.34v-.66C272.25,74.61,270.88,74.54,269.46,74.54Z"/><path class="cls-4" d="M269.46,88.14c-4.67,0-8.77-.74-11.15-1.85a32.61,32.61,0,0,0,9.88,1.34,40.42,40.42,0,0,0,5.34-.34V88C272.25,88.07,270.88,88.14,269.46,88.14Z"/><rect class="cls-1" x="286.57" y="71.96" width="19.09" height="18.75" transform="translate(214.77 377.45) rotate(-90)"/><path d="M305.63,71.67V91h-19V71.67Zm-.28,19.09V71.92H286.88V90.76Z"/><path class="cls-1" d="M326.21,127.76a49.17,49.17,0,0,1,0,12.94c-.7,5-6.36,8.69-11.53,8.42q-25.4-1.14-50.78,0c-4.91.26-10.28-3.27-11-8a48.69,48.69,0,0,1,0-13.85c.7-4.71,6.07-8.24,11-8q25.39,1.16,50.78,0C319.85,119.07,325.51,122.79,326.21,127.76Z"/><path class="cls-4" d="M326.82,134.23a50.28,50.28,0,0,1-.42,6.49c-.69,4.85-6.17,8.85-11.73,8.57-16.84-.76-33.92-.76-50.76,0-5.26.27-10.49-3.53-11.18-8.13a49.78,49.78,0,0,1,0-13.9c.69-4.61,5.92-8.41,11.18-8.13,16.84.77,33.92.78,50.76,0,5.56-.29,11,3.72,11.73,8.57h0A50.28,50.28,0,0,1,326.82,134.23Zm-74.21,0a49.81,49.81,0,0,0,.49,6.9c.67,4.45,5.71,8.11,10.79,7.84,16.86-.77,33.95-.78,50.8,0,5.37.28,10.67-3.58,11.33-8.27a48.87,48.87,0,0,0,0-12.9c-.66-4.69-6-8.55-11.33-8.28-16.85.76-33.94.76-50.8,0-5.08-.26-10.12,3.4-10.79,7.85A49.81,49.81,0,0,0,252.61,134.23Z"/><path class="cls-5" d="M316.69,123.91v20.64l.81-.08V124Z"/><path class="cls-4" d="M308.38,121.8l-.69.18a77.18,77.18,0,0,1-18.48,2l-2.31,0h0l-8.28-3.13h.65c1.92-.05,3.83-.07,5.66-.07,7.82,0,15.49.34,22.79,1Zm-21.45,1.89,2.28,0a78.92,78.92,0,0,0,17.69-1.8c-7.07-.63-14.47-1-22-1-1.63,0-3.3,0-5,0Z"/><path class="cls-4" d="M308.38,146.66l-.71.06c-7.3.67-15,1-22.79,1-1.82,0-3.72,0-5.66-.06h-.65l8.33-3.14c.77,0,1.55,0,2.31,0a77.18,77.18,0,0,1,18.48,2Zm-28.5.77c1.71,0,3.39,0,5,0,7.55,0,14.95-.31,22-.94a78.92,78.92,0,0,0-17.69-1.8c-.75,0-1.52,0-2.28,0Z"/><path class="cls-1" d="M277,121H264.81c-7.15,0-13,5.2-13,11.55v3.32c0,6.35,5.85,11.55,13,11.55H277A52.78,52.78,0,0,1,277,121Z"/><path d="M277.16,120.89l0,.16a51.06,51.06,0,0,0-1.67,13.18,1,1,0,0,0,0,.17,52.07,52.07,0,0,0,1.68,13l0,.15H264.81c-7.25,0-13.14-5.23-13.14-11.67v-3.32c0-6.44,5.89-11.68,13.14-11.68Zm-25.21,15c0,6.3,5.77,11.42,12.86,11.42h12a52.17,52.17,0,0,1-1.64-12.91v-.35a52.23,52.23,0,0,1,1.64-12.91h-12c-7.09,0-12.86,5.13-12.86,11.43Z"/><path class="cls-1" d="M305.49,124.68a56.64,56.64,0,0,0,0,19.09,34.78,34.78,0,0,0,11.2.82V123.87A34.77,34.77,0,0,0,305.49,124.68Z"/><path d="M316.84,123.76V144.7h-.13a35.12,35.12,0,0,1-11.26-.81l-.09,0v-.08a56.82,56.82,0,0,1,0-19.12v-.09l.09,0a35.12,35.12,0,0,1,11.26-.81Zm-.29,20.71V124a35.18,35.18,0,0,0-10.94.8,57,57,0,0,0,0,18.89A34.59,34.59,0,0,0,316.55,144.47Z"/><path class="cls-5" d="M316.69,123.87v20.72l.82-.09V124Z"/><path class="cls-1" d="M317.51,144.5h5.84a22.37,22.37,0,0,0,0-20.55h-5.84Z"/><path d="M326,134.23a20.51,20.51,0,0,1-2.52,10.33l0,.07h-6.06v-20.8h6.06l0,.07A20.51,20.51,0,0,1,326,134.23Zm-2.72,10.15a22.33,22.33,0,0,0,0-20.3h-5.62v20.3Z"/><path class="cls-5" d="M276.9,121.1l-.78-.25a45.06,45.06,0,0,0,0,26.76l.78-.26A45.15,45.15,0,0,1,276.9,121.1Z"/><path class="cls-1" d="M276.87,147l9.87-3.21V124.68l-9.87-3.21A43.65,43.65,0,0,0,276.87,147Z"/><path d="M286.88,124.6v19.26l-10.11,3.29,0-.13a43.89,43.89,0,0,1,0-25.58l0-.13Zm-.28,19.09V124.77L277,121.64a43.54,43.54,0,0,0,0,25.18Z"/><path class="cls-4" d="M323.34,124v-.13a3,3,0,0,0-3.17-2.83h-.24A7.35,7.35,0,0,1,323.34,124Z"/><path class="cls-4" d="M323.34,144.47v.13a3,3,0,0,1-3.17,2.82h-.24A7.28,7.28,0,0,0,323.34,144.47Z"/><path class="cls-1" d="M284.7,117.51a1.42,1.42,0,0,0-1.14.2l-2.24,2.3a.37.37,0,0,0-.07.12h2.09l1.62-2.57Z"/><path class="cls-4" d="M285.17,117.48l-1.75,2.78h-2.34l0-.15a.27.27,0,0,1,.1-.18l2.23-2.31a1.57,1.57,0,0,1,1.28-.24ZM283.26,120l1.49-2.37h-.08a1.23,1.23,0,0,0-1,.16L281.51,120Z"/><path class="cls-1" d="M284.7,151a1.42,1.42,0,0,1-1.14-.2l-2.24-2.3a.37.37,0,0,1-.07-.12h2.09L285,150.9Z"/><path class="cls-4" d="M285.17,151l-.44.09a1.5,1.5,0,0,1-1.28-.24l-2.23-2.3a.33.33,0,0,1-.1-.18l0-.15h2.34Zm-3.66-2.53,2.16,2.22a1.23,1.23,0,0,0,1,.16l.08,0-1.49-2.36Z"/><path class="cls-4" d="M269.46,127.43c-4.67,0-8.77.74-11.15,1.85a32.3,32.3,0,0,1,9.88-1.34,40.42,40.42,0,0,1,5.34.34v-.66C272.25,127.5,270.88,127.43,269.46,127.43Z"/><path class="cls-4" d="M269.46,141c-4.67,0-8.77-.74-11.15-1.85a32.61,32.61,0,0,0,9.88,1.34,40.42,40.42,0,0,0,5.34-.34v.66C272.25,141,270.88,141,269.46,141Z"/><rect class="cls-1" x="286.57" y="124.85" width="19.09" height="18.75" transform="translate(161.88 430.34) rotate(-90)"/><path d="M305.63,124.56V143.9h-19V124.56Zm-.28,19.09V124.81H286.88v18.84Z"/><path class="cls-1" d="M326.21,180.65a49.17,49.17,0,0,1,0,12.94c-.7,5-6.36,8.69-11.53,8.42q-25.4-1.14-50.78,0c-4.91.26-10.28-3.27-11-8a48.69,48.69,0,0,1,0-13.85c.7-4.71,6.07-8.24,11-8q25.39,1.15,50.78,0C319.85,172,325.51,175.68,326.21,180.65Z"/><path class="cls-4" d="M326.82,187.12a50.28,50.28,0,0,1-.42,6.49c-.69,4.85-6.17,8.85-11.73,8.57-16.84-.76-33.92-.76-50.76,0-5.26.27-10.49-3.53-11.18-8.14a49.71,49.71,0,0,1,0-13.89c.69-4.61,5.92-8.41,11.18-8.13,16.84.77,33.92.78,50.76,0,5.56-.29,11,3.71,11.73,8.57h0A50.28,50.28,0,0,1,326.82,187.12Zm-74.21,0a49.92,49.92,0,0,0,.49,6.9c.67,4.44,5.71,8.11,10.79,7.84,16.86-.77,33.95-.78,50.8,0,5.37.28,10.67-3.59,11.33-8.27a48.87,48.87,0,0,0,0-12.9c-.66-4.69-6-8.56-11.33-8.28-16.85.76-33.94.76-50.8,0-5.08-.26-10.12,3.4-10.79,7.85A49.81,49.81,0,0,0,252.61,187.12Z"/><path class="cls-5" d="M316.69,176.8v20.64l.81-.08V176.88Z"/><path class="cls-4" d="M308.38,174.69l-.69.18a77.18,77.18,0,0,1-18.48,2l-2.31,0h0l-8.28-3.13.65,0c1.92,0,3.83-.06,5.66-.06,7.82,0,15.49.34,22.79,1Zm-21.45,1.89,2.28,0a78.92,78.92,0,0,0,17.69-1.8c-7.07-.63-14.47-.95-22-.95-1.63,0-3.3,0-5,0Z"/><path class="cls-4" d="M308.38,199.54l-.71.07c-7.3.67-15,1-22.79,1-1.82,0-3.72,0-5.66-.06h-.65l8.33-3.14c.77,0,1.55,0,2.31,0a77.23,77.23,0,0,1,18.48,2Zm-28.5.78c1.71,0,3.39.05,5,.05,7.55,0,14.95-.32,22-.94a78.92,78.92,0,0,0-17.69-1.8c-.75,0-1.52,0-2.28,0Z"/><path class="cls-1" d="M277,173.91H264.81c-7.15,0-13,5.2-13,11.55v3.32c0,6.35,5.85,11.55,13,11.55H277a52.78,52.78,0,0,1,0-26.42Z"/><path d="M277.16,173.78l0,.16a51.06,51.06,0,0,0-1.67,13.18,1,1,0,0,0,0,.17,52.07,52.07,0,0,0,1.68,13l0,.15H264.81c-7.25,0-13.14-5.23-13.14-11.67v-3.32c0-6.44,5.89-11.68,13.14-11.68Zm-25.21,15c0,6.3,5.77,11.42,12.86,11.42h12a52.23,52.23,0,0,1-1.64-12.91v-.35A52.23,52.23,0,0,1,276.8,174h-12c-7.09,0-12.86,5.13-12.86,11.43Z"/><path class="cls-1" d="M305.49,177.57a56.64,56.64,0,0,0,0,19.09,35.06,35.06,0,0,0,11.2.82V176.76A34.77,34.77,0,0,0,305.49,177.57Z"/><path d="M316.84,176.65v20.94h-.13a35.12,35.12,0,0,1-11.26-.82l-.09,0v-.08a56.88,56.88,0,0,1,0-19.13v-.08l.09,0a35.41,35.41,0,0,1,11.26-.82Zm-.29,20.71V176.87a35.18,35.18,0,0,0-10.94.8,57,57,0,0,0,0,18.89A34.59,34.59,0,0,0,316.55,197.36Z"/><path class="cls-5" d="M316.69,176.76v20.72l.82-.09V176.84Z"/><path class="cls-1" d="M317.51,197.39h5.84a22.37,22.37,0,0,0,0-20.55h-5.84Z"/><path d="M326,187.12a20.51,20.51,0,0,1-2.52,10.33l0,.07h-6.06v-20.8h6.06l0,.06A20.57,20.57,0,0,1,326,187.12Zm-2.72,10.15a22.33,22.33,0,0,0,0-20.3h-5.62v20.3Z"/><path class="cls-5" d="M276.9,174l-.78-.25a45.06,45.06,0,0,0,0,26.76l.78-.26A45.15,45.15,0,0,1,276.9,174Z"/><path class="cls-1" d="M276.87,199.87l9.87-3.21V177.57l-9.87-3.21A43.65,43.65,0,0,0,276.87,199.87Z"/><path d="M286.88,177.49v19.26L276.77,200l0-.13a43.89,43.89,0,0,1,0-25.58l0-.13Zm-.28,19.09V177.66L277,174.53a43.54,43.54,0,0,0,0,25.18Z"/><path class="cls-4" d="M323.34,176.88v-.13a3,3,0,0,0-3.17-2.83h-.24A7.35,7.35,0,0,1,323.34,176.88Z"/><path class="cls-4" d="M323.34,197.35v.14a3,3,0,0,1-3.17,2.82h-.24A7.3,7.3,0,0,0,323.34,197.35Z"/><path class="cls-1" d="M284.7,170.39a1.42,1.42,0,0,0-1.14.2l-2.24,2.31a.37.37,0,0,0-.07.12h2.09l1.62-2.57Z"/><path class="cls-4" d="M285.17,170.37l-1.75,2.78h-2.34l0-.15a.27.27,0,0,1,.1-.18l2.23-2.31a1.57,1.57,0,0,1,1.28-.24Zm-1.91,2.52,1.49-2.36h-.08a1.23,1.23,0,0,0-1,.16l-2.16,2.21Z"/><path class="cls-1" d="M284.7,203.84a1.42,1.42,0,0,1-1.14-.2l-2.24-2.3a.37.37,0,0,1-.07-.12h2.09l1.62,2.57Z"/><path class="cls-4" d="M285.17,203.87l-.44.09a1.5,1.5,0,0,1-1.28-.24l-2.23-2.3a.33.33,0,0,1-.1-.18l0-.15h2.34Zm-3.66-2.53,2.16,2.22a1.27,1.27,0,0,0,1,.16l.08,0-1.49-2.36Z"/><path class="cls-4" d="M269.46,180.32c-4.67,0-8.77.74-11.15,1.85a32.27,32.27,0,0,1,9.88-1.35,42.2,42.2,0,0,1,5.34.34v-.65C272.25,180.39,270.88,180.32,269.46,180.32Z"/><path class="cls-4" d="M269.46,193.92c-4.67,0-8.77-.74-11.15-1.85a32.61,32.61,0,0,0,9.88,1.34,40.42,40.42,0,0,0,5.34-.34v.65A40.49,40.49,0,0,1,269.46,193.92Z"/><rect class="cls-1" x="286.57" y="177.74" width="19.09" height="18.75" transform="translate(109 483.23) rotate(-90)"/><path d="M305.63,177.45v19.34h-19V177.45Zm-.28,19.09V177.7H286.88v18.84Z"/><path class="cls-1" d="M418.65,180.65a49.17,49.17,0,0,1,0,12.94c-.7,5-6.36,8.69-11.53,8.42q-25.38-1.14-50.77,0c-4.91.26-10.28-3.27-11-8a49.43,49.43,0,0,1,0-13.85c.71-4.71,6.08-8.24,11-8q25.38,1.15,50.77,0C412.29,172,418,175.68,418.65,180.65Z"/><path class="cls-4" d="M419.27,187.12a48.57,48.57,0,0,1-.43,6.49c-.69,4.85-6.17,8.85-11.73,8.57-16.84-.76-33.91-.76-50.75,0-5.27.27-10.49-3.53-11.19-8.14a49.71,49.71,0,0,1,0-13.89c.7-4.61,5.92-8.41,11.19-8.13,16.84.77,33.91.78,50.75,0,5.56-.29,11,3.71,11.73,8.57h0A48.57,48.57,0,0,1,419.27,187.12Zm-74.21,0a48.41,48.41,0,0,0,.49,6.9c.66,4.44,5.71,8.11,10.79,7.84,16.85-.77,33.94-.78,50.79,0,5.38.28,10.67-3.59,11.34-8.27a49.74,49.74,0,0,0,0-12.9c-.67-4.69-6-8.56-11.34-8.28-16.85.76-33.94.76-50.79,0-5.08-.26-10.13,3.4-10.79,7.85A48.31,48.31,0,0,0,345.06,187.12Z"/><path class="cls-5" d="M409.13,176.8v20.64l.81-.08V176.88Z"/><path class="cls-4" d="M400.83,174.69l-.69.18a77.3,77.3,0,0,1-18.48,2l-2.32,0h0L371,173.69l.65,0c1.93,0,3.83-.06,5.66-.06,7.82,0,15.49.34,22.79,1Zm-21.45,1.89,2.28,0a78.77,78.77,0,0,0,17.68-1.8c-7.07-.63-14.47-.95-22-.95-1.62,0-3.3,0-5,0Z"/><path class="cls-4" d="M400.83,199.54l-.72.07c-7.3.67-15,1-22.79,1-1.81,0-3.72,0-5.66-.06H371l8.33-3.14,2.32,0a77.35,77.35,0,0,1,18.48,2Zm-28.51.78c1.71,0,3.39.05,5,.05,7.55,0,14.95-.32,22-.94a78.77,78.77,0,0,0-17.68-1.8c-.75,0-1.52,0-2.28,0Z"/><path class="cls-1" d="M369.42,173.91H357.25c-7.15,0-13,5.2-13,11.55v3.32c0,6.35,5.85,11.55,13,11.55h12.17a53.08,53.08,0,0,1,0-26.42Z"/><path d="M369.6,173.78l0,.16a51.5,51.5,0,0,0-1.67,13.18v.17a52.06,52.06,0,0,0,1.67,13l0,.15H357.25c-7.24,0-13.14-5.23-13.14-11.67v-3.32c0-6.44,5.9-11.68,13.14-11.68Zm-25.2,15c0,6.3,5.76,11.42,12.85,11.42h12a52.23,52.23,0,0,1-1.64-12.91v-.35A52.23,52.23,0,0,1,369.25,174h-12c-7.09,0-12.85,5.13-12.85,11.43Z"/><path class="cls-1" d="M397.93,177.57a56.64,56.64,0,0,0,0,19.09,35.12,35.12,0,0,0,11.21.82V176.76A34.83,34.83,0,0,0,397.93,177.57Z"/><path d="M409.28,176.65v20.94h-.13a35.16,35.16,0,0,1-11.26-.82l-.08,0,0-.08a56.88,56.88,0,0,1,0-19.13l0-.08.08,0a35.45,35.45,0,0,1,11.26-.82ZM409,197.36V176.87a35.18,35.18,0,0,0-10.94.8,56.5,56.5,0,0,0,0,18.89A34.59,34.59,0,0,0,409,197.36Z"/><path class="cls-5" d="M409.14,176.76v20.72l.81-.09V176.84Z"/><path class="cls-1" d="M410,197.39h5.85a22.44,22.44,0,0,0,0-20.55H410Z"/><path d="M418.43,187.12a20.51,20.51,0,0,1-2.51,10.33l0,.07h-6.07v-20.8h6.07l0,.06A20.57,20.57,0,0,1,418.43,187.12Zm-2.72,10.15a22.33,22.33,0,0,0,0-20.3h-5.62v20.3Z"/><path class="cls-5" d="M369.35,174l-.79-.25a45.06,45.06,0,0,0,0,26.76l.79-.26A45,45,0,0,1,369.35,174Z"/><path class="cls-1" d="M369.31,199.87l9.87-3.21V177.57l-9.87-3.21A43.65,43.65,0,0,0,369.31,199.87Z"/><path d="M379.32,177.49v19.26L369.21,200l0-.13a43.89,43.89,0,0,1,0-25.58l0-.13ZM379,196.58V177.66l-9.63-3.13a43.54,43.54,0,0,0,0,25.18Z"/><path class="cls-4" d="M415.79,176.88v-.13a3,3,0,0,0-3.18-2.83h-.23A7.35,7.35,0,0,1,415.79,176.88Z"/><path class="cls-4" d="M415.79,197.35v.14a3,3,0,0,1-3.18,2.82h-.23A7.3,7.3,0,0,0,415.79,197.35Z"/><path class="cls-1" d="M377.14,170.39a1.38,1.38,0,0,0-1.13.2l-2.24,2.31a.25.25,0,0,0-.07.12h2.08l1.62-2.57Z"/><path class="cls-4" d="M377.62,170.37l-1.75,2.78h-2.34l0-.15a.32.32,0,0,1,.1-.18l2.24-2.31a1.57,1.57,0,0,1,1.28-.24Zm-1.92,2.52,1.49-2.36h-.08a1.24,1.24,0,0,0-1,.16L374,172.89Z"/><path class="cls-1" d="M377.14,203.84a1.38,1.38,0,0,1-1.13-.2l-2.24-2.3a.25.25,0,0,1-.07-.12h2.08l1.62,2.57Z"/><path class="cls-4" d="M377.62,203.87l-.44.09a1.5,1.5,0,0,1-1.28-.24l-2.24-2.3a.41.41,0,0,1-.1-.18l0-.15h2.34ZM374,201.34l2.15,2.22a1.28,1.28,0,0,0,1,.16l.08,0-1.49-2.36Z"/><path class="cls-4" d="M361.91,180.32c-4.67,0-8.78.74-11.16,1.85a32.34,32.34,0,0,1,9.89-1.35,42,42,0,0,1,5.33.34v-.65C364.69,180.39,363.33,180.32,361.91,180.32Z"/><path class="cls-4" d="M361.91,193.92c-4.67,0-8.78-.74-11.16-1.85a32.68,32.68,0,0,0,9.89,1.34,40.27,40.27,0,0,0,5.33-.34v.65A40.28,40.28,0,0,1,361.91,193.92Z"/><rect class="cls-1" x="379.01" y="177.74" width="19.09" height="18.75" transform="translate(201.44 575.68) rotate(-90)"/><path d="M398.08,177.45v19.34H379V177.45Zm-.29,19.09V177.7H379.32v18.84Z"/><path class="cls-1" d="M326.21,353.39a49.17,49.17,0,0,1,0,12.94c-.7,5-6.36,8.69-11.53,8.42q-25.4-1.14-50.78,0c-4.91.26-10.28-3.27-11-8a48.69,48.69,0,0,1,0-13.85c.7-4.71,6.07-8.24,11-8q25.39,1.16,50.78,0C319.85,344.7,325.51,348.42,326.21,353.39Z"/><path class="cls-4" d="M326.82,359.86a50.28,50.28,0,0,1-.42,6.49c-.69,4.85-6.17,8.85-11.73,8.57-16.84-.76-33.92-.76-50.76,0-5.26.27-10.49-3.53-11.18-8.13a49.78,49.78,0,0,1,0-13.9c.69-4.61,5.92-8.41,11.18-8.13,16.84.77,33.92.78,50.76,0,5.56-.29,11,3.72,11.73,8.57h0A50.28,50.28,0,0,1,326.82,359.86Zm-74.21,0a49.81,49.81,0,0,0,.49,6.9c.67,4.45,5.71,8.11,10.79,7.84,16.86-.77,33.95-.78,50.8,0,5.37.28,10.67-3.58,11.33-8.27a48.87,48.87,0,0,0,0-12.9c-.66-4.69-6-8.55-11.33-8.28-16.85.76-33.94.76-50.8,0-5.08-.26-10.12,3.4-10.79,7.85A49.81,49.81,0,0,0,252.61,359.86Z"/><path class="cls-5" d="M316.69,349.54v20.64l.81-.08V349.62Z"/><path class="cls-4" d="M308.38,347.43l-.69.18a77.18,77.18,0,0,1-18.48,2l-2.31,0h0l-8.28-3.13h.65c1.92-.05,3.83-.07,5.66-.07,7.82,0,15.49.34,22.79,1Zm-21.45,1.89,2.28,0a78.92,78.92,0,0,0,17.69-1.8c-7.07-.63-14.47-.95-22-.95-1.63,0-3.3,0-5,0Z"/><path class="cls-4" d="M308.38,372.28l-.71.07c-7.3.67-15,1-22.79,1-1.82,0-3.72,0-5.66-.06h-.65l8.33-3.14,2.31,0a77.18,77.18,0,0,1,18.48,2Zm-28.5.78c1.71,0,3.39.05,5,.05,7.55,0,14.95-.31,22-.94a78.92,78.92,0,0,0-17.69-1.8l-2.28,0Z"/><path class="cls-1" d="M277,346.65H264.81c-7.15,0-13,5.2-13,11.55v3.32c0,6.35,5.85,11.55,13,11.55H277a52.78,52.78,0,0,1,0-26.42Z"/><path d="M277.16,346.52l0,.16a51.06,51.06,0,0,0-1.67,13.18,1,1,0,0,0,0,.17,52.07,52.07,0,0,0,1.68,13l0,.15H264.81c-7.25,0-13.14-5.23-13.14-11.67V358.2c0-6.44,5.89-11.68,13.14-11.68Zm-25.21,15c0,6.3,5.77,11.42,12.86,11.42h12A52.17,52.17,0,0,1,275.16,360v-.35a52.23,52.23,0,0,1,1.64-12.91h-12c-7.09,0-12.86,5.13-12.86,11.43Z"/><path class="cls-1" d="M305.49,350.31a56.64,56.64,0,0,0,0,19.09,34.78,34.78,0,0,0,11.2.82V349.5A34.77,34.77,0,0,0,305.49,350.31Z"/><path d="M316.84,349.39v20.94h-.13a35.12,35.12,0,0,1-11.26-.81l-.09,0v-.08a56.82,56.82,0,0,1,0-19.12v-.09l.09,0a35.12,35.12,0,0,1,11.26-.81Zm-.29,20.71V349.61a35.18,35.18,0,0,0-10.94.8,57,57,0,0,0,0,18.89A34.59,34.59,0,0,0,316.55,370.1Z"/><path class="cls-5" d="M316.69,349.5v20.72l.82-.09V349.58Z"/><path class="cls-1" d="M317.51,370.13h5.84a22.37,22.37,0,0,0,0-20.55h-5.84Z"/><path d="M326,359.86a20.51,20.51,0,0,1-2.52,10.33l0,.07h-6.06v-20.8h6.06l0,.07A20.51,20.51,0,0,1,326,359.86ZM323.27,370a22.33,22.33,0,0,0,0-20.3h-5.62V370Z"/><path class="cls-5" d="M276.9,346.73l-.78-.25a45.06,45.06,0,0,0,0,26.76l.78-.26A45.15,45.15,0,0,1,276.9,346.73Z"/><path class="cls-1" d="M276.87,372.61l9.87-3.21V350.31l-9.87-3.21A43.65,43.65,0,0,0,276.87,372.61Z"/><path d="M286.88,350.23v19.26l-10.11,3.29,0-.13a43.89,43.89,0,0,1,0-25.58l0-.13Zm-.28,19.09V350.4L277,347.27a43.54,43.54,0,0,0,0,25.18Z"/><path class="cls-4" d="M323.34,349.62v-.13a3,3,0,0,0-3.17-2.83h-.24A7.35,7.35,0,0,1,323.34,349.62Z"/><path class="cls-4" d="M323.34,370.1v.13a3,3,0,0,1-3.17,2.82h-.24A7.28,7.28,0,0,0,323.34,370.1Z"/><path class="cls-1" d="M284.7,343.14a1.42,1.42,0,0,0-1.14.2l-2.24,2.3a.37.37,0,0,0-.07.12h2.09l1.62-2.57Z"/><path class="cls-4" d="M285.17,343.11l-1.75,2.78h-2.34l0-.15a.27.27,0,0,1,.1-.18l2.23-2.31a1.57,1.57,0,0,1,1.28-.24Zm-1.91,2.53,1.49-2.37h-.08a1.23,1.23,0,0,0-1,.16l-2.16,2.22Z"/><path class="cls-1" d="M284.7,376.58a1.42,1.42,0,0,1-1.14-.2l-2.24-2.3a.37.37,0,0,1-.07-.12h2.09l1.62,2.57Z"/><path class="cls-4" d="M285.17,376.61l-.44.09a1.5,1.5,0,0,1-1.28-.24l-2.23-2.3a.33.33,0,0,1-.1-.18l0-.15h2.34Zm-3.66-2.53,2.16,2.22a1.23,1.23,0,0,0,1,.16l.08,0-1.49-2.36Z"/><path class="cls-4" d="M269.46,353.06c-4.67,0-8.77.74-11.15,1.85a32.3,32.3,0,0,1,9.88-1.34,40.42,40.42,0,0,1,5.34.34v-.66C272.25,353.13,270.88,353.06,269.46,353.06Z"/><path class="cls-4" d="M269.46,366.66c-4.67,0-8.77-.74-11.15-1.85a32.61,32.61,0,0,0,9.88,1.34,40.42,40.42,0,0,0,5.34-.34v.66C272.25,366.59,270.88,366.66,269.46,366.66Z"/><rect class="cls-1" x="286.57" y="350.48" width="19.09" height="18.75" transform="translate(-63.74 655.97) rotate(-90)"/><path d="M305.63,350.19v19.34h-19V350.19Zm-.28,19.09V350.44H286.88v18.84Z"/><path class="cls-1" d="M429.1,353.39a49.17,49.17,0,0,1,0,12.94c-.7,5-6.37,8.69-11.53,8.42q-25.4-1.14-50.78,0c-4.91.26-10.28-3.27-11-8a48.69,48.69,0,0,1,0-13.85c.7-4.71,6.07-8.24,11-8q25.4,1.16,50.78,0C422.73,344.7,428.4,348.42,429.1,353.39Z"/><path class="cls-4" d="M429.71,359.86a48.57,48.57,0,0,1-.43,6.49c-.68,4.85-6.16,8.85-11.72,8.57-16.84-.76-33.92-.76-50.76,0-5.26.27-10.49-3.53-11.18-8.13a49.78,49.78,0,0,1,0-13.9c.69-4.61,5.92-8.41,11.18-8.13,16.84.77,33.92.78,50.76,0,5.56-.29,11,3.72,11.72,8.57h0A48.57,48.57,0,0,1,429.71,359.86Zm-74.21,0a49.81,49.81,0,0,0,.49,6.9c.67,4.45,5.71,8.11,10.79,7.84,16.86-.77,34-.78,50.8,0,5.37.28,10.67-3.58,11.33-8.27a48.87,48.87,0,0,0,0-12.9c-.66-4.69-6-8.55-11.33-8.28-16.85.76-33.94.76-50.8,0-5.08-.26-10.12,3.4-10.79,7.85A49.81,49.81,0,0,0,355.5,359.86Z"/><path class="cls-5" d="M419.57,349.54v20.64l.82-.08V349.62Z"/><path class="cls-4" d="M411.27,347.43l-.69.18a77.18,77.18,0,0,1-18.48,2l-2.31,0h-.05l-8.28-3.13h.65c1.92-.05,3.82-.07,5.66-.07,7.82,0,15.49.34,22.79,1Zm-21.45,1.89,2.28,0a78.92,78.92,0,0,0,17.69-1.8c-7.07-.63-14.47-.95-22-.95-1.63,0-3.3,0-5,0Z"/><path class="cls-4" d="M411.27,372.28l-.71.07c-7.3.67-15,1-22.79,1-1.82,0-3.72,0-5.66-.06h-.65l8.33-3.14,2.31,0a77.18,77.18,0,0,1,18.48,2Zm-28.5.78c1.71,0,3.39.05,5,.05,7.55,0,15-.31,22-.94a78.92,78.92,0,0,0-17.69-1.8l-2.28,0Z"/><path class="cls-1" d="M379.87,346.65H367.69c-7.14,0-13,5.2-13,11.55v3.32c0,6.35,5.85,11.55,13,11.55h12.18a52.78,52.78,0,0,1,0-26.42Z"/><path d="M380.05,346.52l0,.16a51.51,51.51,0,0,0-1.68,13.18V360A52.07,52.07,0,0,0,380,373l0,.15H367.69c-7.24,0-13.13-5.23-13.13-11.67V358.2c0-6.44,5.89-11.68,13.13-11.68Zm-25.21,15c0,6.3,5.77,11.42,12.85,11.42h12A52.17,52.17,0,0,1,378.05,360v-.35a52.23,52.23,0,0,1,1.64-12.91h-12c-7.08,0-12.85,5.13-12.85,11.43Z"/><path class="cls-1" d="M408.38,350.31a56.64,56.64,0,0,0,0,19.09,34.78,34.78,0,0,0,11.2.82V349.5A34.77,34.77,0,0,0,408.38,350.31Z"/><path d="M419.73,349.39v20.94h-.13a35.12,35.12,0,0,1-11.26-.81l-.09,0v-.08a56.82,56.82,0,0,1,0-19.12v-.09l.09,0a35.12,35.12,0,0,1,11.26-.81Zm-.29,20.71V349.61a35.18,35.18,0,0,0-10.94.8,57,57,0,0,0,0,18.89A34.59,34.59,0,0,0,419.44,370.1Z"/><path class="cls-5" d="M419.58,349.5v20.72l.82-.09V349.58Z"/><path class="cls-1" d="M420.4,370.13h5.84a22.37,22.37,0,0,0,0-20.55H420.4Z"/><path d="M428.88,359.86a20.51,20.51,0,0,1-2.52,10.33l0,.07h-6.06v-20.8h6.06l0,.07A20.51,20.51,0,0,1,428.88,359.86ZM426.16,370a22.33,22.33,0,0,0,0-20.3h-5.62V370Z"/><path class="cls-5" d="M379.79,346.73l-.78-.25a44.9,44.9,0,0,0,0,26.76l.78-.26A45.15,45.15,0,0,1,379.79,346.73Z"/><path class="cls-1" d="M379.75,372.61l9.88-3.21V350.31l-9.88-3.21A43.82,43.82,0,0,0,379.75,372.61Z"/><path d="M389.77,350.23v19.26l-10.11,3.29,0-.13a43.72,43.72,0,0,1,0-25.58l0-.13Zm-.28,19.09V350.4l-9.64-3.13a43.54,43.54,0,0,0,0,25.18Z"/><path class="cls-4" d="M426.23,349.62v-.13a3,3,0,0,0-3.17-2.83h-.24A7.35,7.35,0,0,1,426.23,349.62Z"/><path class="cls-4" d="M426.23,370.1v.13a3,3,0,0,1-3.17,2.82h-.24A7.28,7.28,0,0,0,426.23,370.1Z"/><path class="cls-1" d="M387.59,343.14a1.42,1.42,0,0,0-1.14.2l-2.24,2.3a.37.37,0,0,0-.07.12h2.09l1.62-2.57Z"/><path class="cls-4" d="M388.06,343.11l-1.75,2.78H384l0-.15a.34.34,0,0,1,.11-.18l2.23-2.31a1.57,1.57,0,0,1,1.28-.24Zm-1.91,2.53,1.48-2.37h-.07a1.23,1.23,0,0,0-1,.16l-2.16,2.22Z"/><path class="cls-1" d="M387.59,376.58a1.42,1.42,0,0,1-1.14-.2l-2.24-2.3a.37.37,0,0,1-.07-.12h2.09l1.62,2.57Z"/><path class="cls-4" d="M388.06,376.61l-.44.09a1.5,1.5,0,0,1-1.28-.24l-2.23-2.3A.44.44,0,0,1,384,374l0-.15h2.34Zm-3.66-2.53,2.16,2.22a1.23,1.23,0,0,0,1,.16l.07,0-1.48-2.36Z"/><path class="cls-4" d="M372.35,353.06c-4.67,0-8.77.74-11.15,1.85a32.3,32.3,0,0,1,9.88-1.34,40.42,40.42,0,0,1,5.34.34v-.66C375.14,353.13,373.77,353.06,372.35,353.06Z"/><path class="cls-4" d="M372.35,366.66c-4.67,0-8.77-.74-11.15-1.85a32.61,32.61,0,0,0,9.88,1.34,40.42,40.42,0,0,0,5.34-.34v.66C375.14,366.59,373.77,366.66,372.35,366.66Z"/><rect class="cls-1" x="389.46" y="350.48" width="19.09" height="18.75" transform="translate(39.14 758.86) rotate(-90)"/><path d="M408.52,350.19v19.34h-19V350.19Zm-.28,19.09V350.44H389.77v18.84Z"/><path d="M439.91,87.68a52.9,52.9,0,0,1-8.67,2.69l-1-3.36c4.11-.85,8.72-2.55,10.82-4h3v36.89h-4.16Z"/><path d="M468.17,102.35a43.84,43.84,0,0,1-1.47,4.38h25.13c-.36,5.45-1.26,10.33-2.37,12.79s-2.55,3.22-6.58,3.22c-2.37,0-5.54-.14-7.73-.32l-.81-3.4c3.09.27,6.08.45,8.23.45s2.91-.36,3.53-1.79a40.52,40.52,0,0,0,1.7-7.91H465.49c-.58,1.25-1.21,2.55-1.88,3.8l-3.62-1a61,61,0,0,0,4.43-10.19h-10v-3h42.47v3Zm22.09-7.11H461.07V82.54h29.19Zm-25.57-2.86h21.95V85.49H464.69Z"/><path d="M508.46,100.87A52.83,52.83,0,0,1,503.05,113l-1.65-3.58a50.12,50.12,0,0,0,6.75-16.14H502V90.14h6.43V80.58h3.31v9.56h4.65v3.13h-4.65v4.16a51,51,0,0,1,5.5,5.23l-1.88,3a48.87,48.87,0,0,0-3.62-4.61v22h-3.31Zm24.95,6.22a33.41,33.41,0,0,0,11.4,10.1l-2.1,3.13a36.62,36.62,0,0,1-11.53-11.44v14.17H528V109.14A34.58,34.58,0,0,1,516.51,121l-2.23-2.73A31.82,31.82,0,0,0,526,107.09h-8.27V91.17H528V87.86H515.39V85H528V80.58h3.18V85h12.87v2.9H531.18v3.31h10.59v15.92ZM520.89,93.9v3.8H528V93.9Zm0,6.53v3.89H528v-3.89Zm10.29-2.73h7.46V93.9h-7.46Zm0,6.62h7.46v-3.89h-7.46Z"/><path d="M307.29,280.65c6.4,0,9.93-2.33,9.93-6.53,0-3.71-3-6-7.82-6-3.63,0-6,1.08-8.77,3.89l-2.64-2.5a15.63,15.63,0,0,1,11.49-4.92c7.2,0,12.21,3.8,12.21,9.26,0,4.51-3.31,7.6-8.81,8.27v.18c6.48.44,10.24,3.93,10.24,9.43,0,6.39-5.28,10.46-13.68,10.46-5.46,0-9.57-1.61-12.74-5l2.64-2.64a13.61,13.61,0,0,0,10.06,4c5.72,0,9.16-2.69,9.16-7.11,0-5-3.58-7.33-11.36-7.33h-2.9v-3.4Z"/><path d="M344.9,283.87c-.45,1.61-1,3.13-1.48,4.38h25.13c-.36,5.45-1.25,10.33-2.37,12.78s-2.55,3.22-6.57,3.22c-2.37,0-5.55-.13-7.74-.31l-.8-3.4c3.08.27,6.08.45,8.22.45s2.91-.36,3.54-1.79a42.08,42.08,0,0,0,1.7-7.91H342.22c-.59,1.25-1.21,2.55-1.88,3.8l-3.62-1a61,61,0,0,0,4.42-10.19h-10v-3h42.48v3ZM367,276.76H337.79v-12.7H367Zm-25.57-2.86h21.95V267H341.41Z"/><path d="M385.19,282.39a53.46,53.46,0,0,1-5.41,12.12l-1.66-3.58a50.31,50.31,0,0,0,6.75-16.14h-6.12v-3.13h6.44v-9.57h3.31v9.57h4.65v3.13H388.5V279a49.94,49.94,0,0,1,5.49,5.23l-1.87,3a50.58,50.58,0,0,0-3.62-4.61v22h-3.31Zm24.94,6.22a33.51,33.51,0,0,0,11.4,10.1l-2.1,3.13a36.54,36.54,0,0,1-11.53-11.45v14.18h-3.17V290.66a34.52,34.52,0,0,1-11.5,11.81L391,299.74a31.9,31.9,0,0,0,11.71-11.13h-8.27V272.69h10.29v-3.31H392.12v-2.9h12.61v-4.39h3.17v4.39h12.88v2.9H407.9v3.31h10.59v15.92Zm-12.51-13.19v3.8h7.11v-3.8Zm0,6.52v3.89h7.11v-3.89Zm10.28-2.72h7.47v-3.8H407.9Zm0,6.61h7.47v-3.89H407.9Z"/><path d="M536.38,264.65c1.16-4.78,5.1-9.57,11.13-13.59l1.16-.76c6.26-4.07,7.92-6,7.92-9.3,0-3.67-3-6.12-7.65-6.12-3.75,0-6.39,1.38-9.25,4.78l-2.82-2.37c3.4-4.2,7-6,12.25-6,7,0,12.07,4.11,12.07,9.79,0,4.52-1.74,6.62-9.74,11.71l-1.61,1c-5.32,3.49-8.68,7.33-9.08,10.55h21v3.8H536.38Z"/><path d="M518,298.55a43.72,43.72,0,0,1-1.48,4.38h25.13c-.36,5.46-1.25,10.33-2.37,12.79s-2.55,3.22-6.57,3.22c-2.37,0-5.55-.14-7.74-.31l-.8-3.4c3.08.27,6.08.44,8.23.44s2.9-.35,3.53-1.78a42.42,42.42,0,0,0,1.7-7.92H515.32c-.59,1.26-1.21,2.55-1.88,3.8l-3.62-1a61.1,61.1,0,0,0,4.42-10.2h-10v-3h42.48v3Zm22.08-7.11H510.89V278.75h29.19Zm-25.57-2.86h22V281.7h-22Z"/><path d="M558.29,297.08a53.18,53.18,0,0,1-5.41,12.11l-1.66-3.57A50.54,50.54,0,0,0,558,289.48h-6.13v-3.13h6.44v-9.57h3.31v9.57h4.65v3.13H561.6v4.15a53,53,0,0,1,5.5,5.23l-1.88,3a50.58,50.58,0,0,0-3.62-4.6v22h-3.31Zm24.94,6.21a33.58,33.58,0,0,0,11.41,10.11l-2.11,3.12A36.62,36.62,0,0,1,581,305.08v14.17h-3.17v-13.9a34.55,34.55,0,0,1-11.49,11.8l-2.24-2.73a31.74,31.74,0,0,0,11.71-11.13h-8.27V287.37h10.29v-3.3H565.22v-2.91h12.61v-4.38H581v4.38h12.88v2.91H581v3.3h10.6v15.92ZM570.72,290.1v3.8h7.11v-3.8Zm0,6.53v3.89h7.11v-3.89ZM581,293.9h7.47v-3.8H581Zm0,6.62h7.47v-3.89H581Z"/><rect class="cls-6" x="64.36" y="30.57" width="39.3" height="95.53" transform="translate(5.67 162.34) rotate(-90)"/><path class="cls-1" d="M53.47,84.18H69v2.1H53.47v1.41H51.15V69.13H68.49v2h-15Zm.69-2.34a19.34,19.34,0,0,0,5.41-4,54.75,54.75,0,0,0-4.83-3.52l1.41-1.58c1.72,1.08,3.21,2.14,4.85,3.4a26.2,26.2,0,0,0,2.7-4.43l2.09,1a30.53,30.53,0,0,1-3,4.86c1.17,1,2.7,2.32,4.26,3.79L65.4,83.06c-1.35-1.35-2.86-2.74-4.09-3.79a21,21,0,0,1-5.76,4.35Z"/><path class="cls-1" d="M82.64,71H74V69.08h19.7V71H84.83v2h4.44V83.29h-11V72.94h4.34Zm8.21,13.69V72.94H93V87.69H90.85V86.55H76.73v1.14h-2.1V72.94h2.1v11.7Zm-10.58-10v2.51h2.45V74.64Zm0,4.11v2.8h2.45v-2.8Zm4.48-1.6H87.3V74.64H84.75Zm0,4.4H87.3v-2.8H84.75Z"/><path class="cls-1" d="M116.84,87.69h-2.26V86.63H101.14v1.06H98.9V68.94h17.94Zm-15.7-3h13.44V70.83H101.14Zm11.51-.89c-1.31-.81-2.84-1.68-4.23-2.39a17.66,17.66,0,0,1-5.37,3l-1.29-1.56a13.5,13.5,0,0,0,4.67-2.44l-.54-.25c-1.35-.67-2.35-1.1-4.11-1.83l.94-1.53A55.73,55.73,0,0,1,108,79a17.63,17.63,0,0,0,3.86-7l2,.62a23.43,23.43,0,0,1-3.94,7.34l.19.1c1,.52,2.18,1.14,3.75,2.08ZM103.92,77a19.26,19.26,0,0,0-1.66-4.07l1.91-.77a21.53,21.53,0,0,1,1.72,4Zm3.56-.81a23.28,23.28,0,0,0-1.67-4.09l1.82-.72a18.69,18.69,0,0,1,1.72,4Z"/><rect class="cls-7" x="356.06" y="57.32" width="29.9" height="21.1" transform="translate(303.15 438.88) rotate(-90)"/><polygon points="376.51 67.86 367.13 61.42 367.13 74.3 376.51 67.86"/><rect class="cls-7" x="487.05" y="165.7" width="49.02" height="26.36"/><polygon points="520.72 186.87 527.15 177.49 514.27 177.49 520.72 186.87"/><rect class="cls-7" x="230.76" y="238.47" width="33.18" height="7.08" transform="translate(5.35 489.36) rotate(-90)"/><rect class="cls-7" x="223.69" y="238.47" width="33.18" height="7.08" transform="translate(-1.73 482.28) rotate(-90)"/><rect class="cls-7" x="244.67" y="231.64" width="33.18" height="20.74" transform="translate(19.25 503.26) rotate(-90)"/><polygon points="267.48 242 257.35 235.05 257.35 248.96 267.48 242"/><line class="繧ｰ繝ｩ繝輔ぅ繝け繧ｹ繧ｿ繧､繝ｫ" x1="228.52" y1="37.93" x2="232.07" y2="420.4"/><line class="繧ｰ繝ｩ繝輔ぅ繝け繧ｹ繧ｿ繧､繝ｫ" x1="148.52" y1="47.4" x2="148.52" y2="413.93"/><polyline class="cls-8" points="157.7 134.23 148.52 143.65 230.29 143.65 225.26 149.32"/></g></svg>