<svg xmlns="http://www.w3.org/2000/svg" width="700" height="500" viewBox="0 0 700 500"><defs><style>.cls-1,.繧ｰ繝ｩ繝輔ぅ繝け繧ｹ繧ｿ繧､繝ｫ-4,.繧ｰ繝ｩ繝輔ぅ繝け繧ｹ繧ｿ繧､繝ｫ-8{fill:#fff;}.cls-2,.cls-3,.繧ｰ繝ｩ繝輔ぅ繝け繧ｹ繧ｿ繧､繝ｫ,.繧ｰ繝ｩ繝輔ぅ繝け繧ｹ繧ｿ繧､繝ｫ-7{fill:none;}.cls-2,.cls-3,.繧ｰ繝ｩ繝輔ぅ繝け繧ｹ繧ｿ繧､繝ｫ,.繧ｰ繝ｩ繝輔ぅ繝け繧ｹ繧ｿ繧､繝ｫ-2,.繧ｰ繝ｩ繝輔ぅ繝け繧ｹ繧ｿ繧､繝ｫ-4,.繧ｰ繝ｩ繝輔ぅ繝け繧ｹ繧ｿ繧､繝ｫ-7,.繧ｰ繝ｩ繝輔ぅ繝け繧ｹ繧ｿ繧､繝ｫ-8{stroke:#000;}.cls-2,.cls-3{stroke-linecap:round;stroke-linejoin:round;}.cls-2{stroke-width:1.43px;}.cls-3{stroke-width:1.83px;}.cls-4{fill:#e83589;}.繧ｰ繝ｩ繝輔ぅ繝け繧ｹ繧ｿ繧､繝ｫ-2{fill:#d8eacc;}.繧ｰ繝ｩ繝輔ぅ繝け繧ｹ繧ｿ繧､繝ｫ,.繧ｰ繝ｩ繝輔ぅ繝け繧ｹ繧ｿ繧､繝ｫ-2{stroke-width:2px;}.繧ｰ繝ｩ繝輔ぅ繝け繧ｹ繧ｿ繧､繝ｫ,.繧ｰ繝ｩ繝輔ぅ繝け繧ｹ繧ｿ繧､繝ｫ-4,.繧ｰ繝ｩ繝輔ぅ繝け繧ｹ繧ｿ繧､繝ｫ-8{stroke-miterlimit:10;}.繧ｰ繝ｩ繝輔ぅ繝け繧ｹ繧ｿ繧､繝ｫ-7{stroke-linejoin:bevel;}.繧ｰ繝ｩ繝輔ぅ繝け繧ｹ繧ｿ繧､繝ｫ-7,.繧ｰ繝ｩ繝輔ぅ繝け繧ｹ繧ｿ繧､繝ｫ-8{stroke-width:1.5px;}.cls-5{fill:#030201;}.cls-6{fill:#242323;}.繧ｰ繝ｩ繝輔ぅ繝け繧ｹ繧ｿ繧､繝ｫ-4{stroke-width:1.27px;}</style></defs><title>kukakuzu</title><g id="レイヤー_2" data-name="レイヤー 2"><rect class="cls-1" width="700" height="500"/><polyline class="cls-2" points="144.49 288.55 144.49 276.81 151.39 288.55 151.39 276.81"/><circle class="cls-3" cx="156.92" cy="318.21" r="24.35"/><polygon points="160.65 331.35 173.52 335 150.43 295.36 151.63 341.22 160.65 331.35"/><rect class="cls-4" x="139.16" y="183.34" width="39.3" height="95.53" transform="translate(-72.3 389.92) rotate(-90)"/><path class="cls-1" d="M128.28,237h15.55v2.1H128.28v1.41H126V221.9h17.33v2h-15Zm.68-2.34a19.54,19.54,0,0,0,5.42-4,51.65,51.65,0,0,0-4.84-3.53l1.41-1.57a56,56,0,0,1,4.86,3.4,27.37,27.37,0,0,0,2.69-4.44l2.1,1a31.27,31.27,0,0,1-3,4.86c1.16,1,2.7,2.32,4.25,3.79l-1.64,1.72c-1.35-1.34-2.86-2.73-4.08-3.79a21.08,21.08,0,0,1-5.77,4.35Z"/><path class="cls-1" d="M157.44,223.72h-8.69v-1.86h19.7v1.86h-8.81v2h4.44v10.35h-11V225.71h4.33Zm8.21,13.69v-11.7h2.12v14.75h-2.12v-1.14H151.53v1.14h-2.09V225.71h2.09v11.7Zm-10.57-10v2.51h2.44v-2.51Zm0,4.11v2.8h2.44v-2.8Zm4.48-1.6h2.55v-2.51h-2.55Zm0,4.4h2.55v-2.8h-2.55Z"/><path class="cls-1" d="M191.64,240.46h-2.26V239.4H175.94v1.06H173.7V221.71h17.94Zm-15.7-3h13.44V223.6H175.94Zm11.51-.89c-1.3-.81-2.84-1.68-4.23-2.39a17.54,17.54,0,0,1-5.37,3l-1.28-1.55a13.74,13.74,0,0,0,4.66-2.45l-.54-.25c-1.35-.66-2.34-1.1-4.1-1.83l.93-1.53a55.92,55.92,0,0,1,5.29,2.18,17.5,17.5,0,0,0,3.85-7l2,.62a23.52,23.52,0,0,1-3.94,7.34l.18.1c1,.52,2.18,1.15,3.76,2.08Zm-8.73-6.78a18.26,18.26,0,0,0-1.66-4.07L179,225a20.2,20.2,0,0,1,1.72,4Zm3.57-.81a24.4,24.4,0,0,0-1.68-4.09l1.82-.72a19.51,19.51,0,0,1,1.73,4Z"/><polygon class="繧ｰ繝ｩ繝輔ぅ繝け繧ｹ繧ｿ繧､繝ｫ-2" points="242.64 111.27 399.83 111.27 399.83 427.43 356.16 432.17 242.64 463.82 242.64 111.27"/><polygon class="繧ｰ繝ｩ繝輔ぅ繝け繧ｹ繧ｿ繧､繝ｫ-2" points="399.83 111.27 557.02 111.27 557.02 413.33 399.83 427.43 399.83 111.27"/><line class="繧ｰ繝ｩ繝輔ぅ繝け繧ｹ繧ｿ繧､繝ｫ" x1="242.64" y1="463.82" x2="198.64" y2="478.94"/><line class="繧ｰ繝ｩ繝輔ぅ繝け繧ｹ繧ｿ繧､繝ｫ" x1="198.64" y1="111.26" x2="574.62" y2="111.26"/><line class="繧ｰ繝ｩ繝輔ぅ繝け繧ｹ繧ｿ繧､繝ｫ" x1="198.64" y1="35.79" x2="574.62" y2="35.79"/><polyline class="繧ｰ繝ｩ繝輔ぅ繝け繧ｹ繧ｿ繧､繝ｫ-7" points="231.35 99.31 242.64 111.27 242.64 35.79 252.85 45.73"/><path d="M247.75,98.69h9.81V95.88H259v2.81h3.57v1.6H259v7.47h-1.38l-9.83-7.07Zm4.59,1.6c-.84,0-2.25,0-3.14-.09v.07a20.74,20.74,0,0,1,2.3,1.32l6.06,4.32v-5.62Z"/><path d="M259.94,91.35h2.59v2.59h-2.59Z"/><path d="M255.18,77.38c4.72,0,7.62,2.09,7.62,5.44s-2.92,5.45-7.62,5.45-7.61-2.09-7.61-5.47S250.49,77.38,255.18,77.38Zm0,9.11c3.81,0,6.17-1.4,6.17-3.69s-2.36-3.64-6.17-3.64S249,80.55,249,82.84,251.37,86.49,255.18,86.49Z"/><path d="M247.84,64h1.21a47.39,47.39,0,0,0,13.48,4.92v1.71a57.14,57.14,0,0,1-13.24-4.72V73h3.39v1.58h-4.84Z"/><path d="M255.18,50.9c4.72,0,7.62,2.08,7.62,5.44s-2.92,5.44-7.62,5.44-7.61-2.08-7.61-5.46S250.49,50.9,255.18,50.9Zm0,9.11c3.81,0,6.17-1.4,6.17-3.69s-2.36-3.64-6.17-3.64S249,54.07,249,56.36,251.37,60,255.18,60Z"/><path d="M416.45,52.85v1.63h-10v2.91h7.68v9c0,1.32-.59,1.79-2.2,1.79-.93,0-1.86,0-2.79-.13l-.29-1.73a19.54,19.54,0,0,0,2.74.23c.59,0,.73-.11.73-.66V59h-5.87V71.29h-1.8V59h-5.57v9.5h-1.79V57.39h7.36V54.48h-9.77V52.85h9.77V49.74h1.8v3.11Z"/><path d="M424,66.57c1.84,1.84,4,2.54,7.76,2.56h8.91a8.46,8.46,0,0,0-.55,1.61h-8.61c-4,0-6.17-.79-8.12-2.76a22.24,22.24,0,0,1-3.54,3.33l-1-1.61a21.92,21.92,0,0,0,3.42-2.61V61h-3.36V59.47H424Zm-1-11.32a23,23,0,0,0-3.31-3.85l1.24-1a22.12,22.12,0,0,1,3.41,3.69Zm2.22-1.2V52.62h4a13.45,13.45,0,0,0-1.45-2.17l1.59-.61a16,16,0,0,1,1.63,2.78H434a23,23,0,0,0,1.25-2.83l1.79.45a17.94,17.94,0,0,1-1.29,2.38H440v1.43h-6.55c-.11.39-.47,1.34-.7,1.89h5.69V67.5H426.88V55.94h4.17a15.38,15.38,0,0,0,.59-1.89Zm3.29,5.26h8.16V57.23h-8.16Zm0,3.29h8.16V60.54h-8.16Zm0,3.56h8.16V63.89h-8.16Z"/><path d="M334.42,87.72a26.94,26.94,0,0,0-3.53-3.49l1.2-1.25a21.49,21.49,0,0,1,3.6,3.4Zm-3,9.23a34,34,0,0,0,4-7.44l1.43,1.11a38.17,38.17,0,0,1-4,7.67Zm3.81-15a23.88,23.88,0,0,0-3.45-3.54L333,77.22a21,21,0,0,1,3.54,3.38Zm9,6.44,0,0a51,51,0,0,1-3.22,7l-.09.21,1.67-.14c1.68-.13,4.24-.41,6.26-.68-.7-1.18-1.52-2.4-2.38-3.6l1.43-.8a41.78,41.78,0,0,1,4.47,6.87l-1.61,1c-.53-1.06-.75-1.52-1.14-2.2l-.22.05c-2.52.5-7.87,1.2-11.59,1.52l-.59-1.79.91,0,.27,0,.61,0a52.17,52.17,0,0,0,3.36-7.52h-5.72V86.75h6.92V82.17h-5.69V80.6h5.69V77h1.77V80.6h6v1.57h-6v4.58h7.21v1.52h-8.26Z"/><path d="M366.64,78.42V90.69h3.52v1.75h-3.52V96.9h-2V92.44H355.3V90.71l8.85-12.29Zm-2,5.74c0-1,0-2.81.11-3.92h-.09A24.24,24.24,0,0,1,363,83.12l-5.39,7.57h7Z"/><path d="M375.14,95.11c.59-2.42,2.59-4.85,5.65-6.89l.59-.39c3.17-2.06,4-3.06,4-4.71,0-1.86-1.54-3.11-3.88-3.11a5.65,5.65,0,0,0-4.69,2.43l-1.43-1.2a7.27,7.27,0,0,1,6.21-3c3.54,0,6.13,2.08,6.13,5,0,2.29-.89,3.36-5,5.94l-.81.53c-2.7,1.76-4.4,3.71-4.61,5.35H388V96.9H375.14Z"/><path d="M403.75,98.49H402V91.24a22.17,22.17,0,0,1-8.82,6.34l-1-1.45a22.22,22.22,0,0,0,8.38-5.32h-8.29V89.29H402V86.81h1.74v2.48h9.94v1.52H405.3a23.82,23.82,0,0,0,8.52,4.8l-1.11,1.59a22.94,22.94,0,0,1-9-6.1Zm6.15-19.41a20.7,20.7,0,0,1-5.22,4.74,31.33,31.33,0,0,0,8.62,2.68L412.37,88a35.35,35.35,0,0,1-9.23-3.24,31.53,31.53,0,0,1-9.5,3.47l-.91-1.41a30,30,0,0,0,9-3A27.77,27.77,0,0,1,398.52,81a18.81,18.81,0,0,1-3.95,2.43l-1.11-1.18a15.55,15.55,0,0,0,6.78-5.42l1.72.34c-.34.52-.43.61-.74,1H409Zm-9.89.57a4.06,4.06,0,0,1-.36.36,17.66,17.66,0,0,0,3.56,3,20.33,20.33,0,0,0,4.06-3.33Z"/><path d="M417.76,95.11c.59-2.42,2.59-4.85,5.65-6.89l.59-.39c3.17-2.06,4-3.06,4-4.71,0-1.86-1.54-3.11-3.87-3.11a5.65,5.65,0,0,0-4.7,2.43L418,81.24a7.29,7.29,0,0,1,6.22-3c3.53,0,6.12,2.08,6.12,5,0,2.29-.89,3.36-5,5.94l-.81.53c-2.7,1.76-4.4,3.71-4.6,5.35h10.63V96.9H417.76Z"/><path d="M439.71,91.3l.14,0,.09-.05c.84-.27,1.9-.68,2.56-1l.18,1.61a62.58,62.58,0,0,1-7.32,2.67l-.64-1.74c1.27-.34,1.45-.39,2.68-.75l.54-.16V81.21H435V79.6h7.19v1.61h-2.47Zm1.61,5.94a13.64,13.64,0,0,0,4.76-3.12l1.39.93a16.93,16.93,0,0,1-4.9,3.51Zm13.17-15.48V93.84H443.61V81.76h3.54a20.28,20.28,0,0,0,.61-2.32h-5.67V78h14v1.49h-6.57a21.57,21.57,0,0,1-.77,2.32Zm-9.2,1.38v2.2h7.5v-2.2Zm0,5.65h7.5V86.68h-7.5Zm0,3.65h7.5V90.1h-7.5Zm9.57,6a29.69,29.69,0,0,0-4.54-3.4l1.25-1a29.77,29.77,0,0,1,4.62,3.13Z"/><path d="M463.92,93.77c1.84,1.84,3.95,2.54,7.76,2.57h8.91a7.81,7.81,0,0,0-.54,1.61h-8.62c-4,0-6.17-.8-8.12-2.77a21.79,21.79,0,0,1-3.54,3.33l-1-1.61a21.81,21.81,0,0,0,3.42-2.6V88.22h-3.36V86.68h5.08Zm-1-11.31a23,23,0,0,0-3.31-3.85l1.25-1a22.94,22.94,0,0,1,3.4,3.7Zm2.22-1.2V79.83h4a13.52,13.52,0,0,0-1.45-2.18l1.59-.61A15.72,15.72,0,0,1,471,79.83h2.95A23.64,23.64,0,0,0,475.15,77l1.79.45a18.59,18.59,0,0,1-1.29,2.38h4.24v1.43h-6.56c-.11.38-.47,1.34-.7,1.88h5.69V94.7H466.78V83.14H471a13.74,13.74,0,0,0,.59-1.88Zm3.29,5.26h8.16V84.43h-8.16Zm0,3.29h8.16V87.74h-8.16Zm0,3.56h8.16V91.1h-8.16Z"/><path d="M491.63,85.25H488.7v3.58h2.95v1.5H488.7v4.74c.62-.16,2.34-.66,3.47-1l.16,1.47a81.49,81.49,0,0,1-8.93,2.54l-.59-1.61,1.2-.25V87.36h1.54v8.5l.57-.13.54-.14.48-.11V85.25h-3.31V77.88h7.8Zm-6.19-1.47H490V79.4h-4.58Zm17.35-4.45a19.4,19.4,0,0,1-3.34,5.47A19,19,0,0,0,504.64,88l-.86,1.49a19.82,19.82,0,0,1-5.42-3.53,18.83,18.83,0,0,1-5.87,3.74l-.91-1.41a14.84,14.84,0,0,0,5.67-3.47,15.51,15.51,0,0,1-2-2.88l-.09.12,0,.06a14.55,14.55,0,0,1-2,2.07L492,82.94a13.68,13.68,0,0,0,4.15-6l1.68.27c-.25.59-.32.77-.5,1.16h4.4Zm-.1,19.16H501V97.15h-5.78v1.34H493.6V89.56h9.09Zm-7.43-2.83H501V91.08h-5.78Zm.79-15a14.71,14.71,0,0,0,2.25,3,15.12,15.12,0,0,0,2.44-3.83h-4.21c-.09.15-.18.31-.39.65Z"/><polygon class="繧ｰ繝ｩ繝輔ぅ繝け繧ｹ繧ｿ繧､繝ｫ-8" points="296.07 195.11 296.07 217.14 253.94 217.14 253.94 347.24 364.62 347.24 364.62 195.11 296.07 195.11"/><polygon class="繧ｰ繝ｩ繝輔ぅ繝け繧ｹ繧ｿ繧､繝ｫ-8" points="455.02 195.11 455.02 217.14 412.89 217.14 412.89 347.24 523.56 347.24 523.56 195.11 455.02 195.11"/><path class="cls-1" d="M284.9,182.23a56.17,56.17,0,0,1-13,0c-5-.63-8.7-5.68-8.43-10.28a446.38,446.38,0,0,0,0-45.25,9.73,9.73,0,0,1,8-9.8,55.5,55.5,0,0,1,13.87,0,9.74,9.74,0,0,1,8,9.8,440.63,440.63,0,0,0,0,45.25C293.6,176.55,289.87,181.6,284.9,182.23Z"/><path class="cls-5" d="M278.42,182.77a54.37,54.37,0,0,1-6.5-.38,10.3,10.3,0,0,1-8.58-10.45,446.18,446.18,0,0,0,0-45.24,9.86,9.86,0,0,1,8.14-10,55.82,55.82,0,0,1,13.91,0,9.87,9.87,0,0,1,8.15,10,443.09,443.09,0,0,0,0,45.23,10.31,10.31,0,0,1-8.58,10.45h0A54.37,54.37,0,0,1,278.42,182.77Zm0-66.13a55,55,0,0,0-6.91.43,9.54,9.54,0,0,0-7.86,9.62,441,441,0,0,1,0,45.27,10,10,0,0,0,8.29,10.1,55.83,55.83,0,0,0,12.92,0,10,10,0,0,0,8.28-10.1,446.77,446.77,0,0,1,0-45.27,9.52,9.52,0,0,0-7.85-9.62A55,55,0,0,0,278.42,116.64Z"/><path class="cls-6" d="M288.75,173.74H268.08l.09.72h20.5C288.7,174.22,288.73,174,288.75,173.74Z"/><path class="cls-5" d="M290.86,166.34l-.18-.62a61.65,61.65,0,0,1-2-16.47c0-.68,0-1.37,0-2.06v0l3.14-7.38v.58c0,1.71.06,3.41.06,5a199.26,199.26,0,0,1-1,20.31ZM289,147.22c0,.68,0,1.36,0,2a62.88,62.88,0,0,0,1.8,15.76c.63-6.29.95-12.89.95-19.62,0-1.45,0-2.94-.05-4.45Z"/><path class="cls-5" d="M266,166.34l-.07-.64a199.21,199.21,0,0,1-1-20.31c0-1.62,0-3.32.07-5v-.58l3.15,7.42c0,.69,0,1.38,0,2.06a61.25,61.25,0,0,1-2,16.47Zm-.79-25.4c0,1.52,0,3,0,4.45,0,6.73.31,13.33.94,19.62a62.88,62.88,0,0,0,1.8-15.76c0-.67,0-1.35,0-2Z"/><path class="cls-1" d="M291.65,138.35V127.5a11.61,11.61,0,0,0-11.57-11.58h-3.32a11.61,11.61,0,0,0-11.57,11.58v10.85a59.48,59.48,0,0,1,26.46,0Z"/><path d="M291.77,138.51l-.15,0a58,58,0,0,0-13.2-1.49h-.18a58.12,58.12,0,0,0-13,1.49l-.15,0v-11a11.72,11.72,0,0,1,11.69-11.71h3.32a11.72,11.72,0,0,1,11.69,11.71Zm-15-22.47a11.46,11.46,0,0,0-11.44,11.46v10.69a58.44,58.44,0,0,1,12.92-1.46h.35a58.46,58.46,0,0,1,12.93,1.46V127.5A11.46,11.46,0,0,0,280.08,116Z"/><path class="cls-1" d="M288,163.76a63.18,63.18,0,0,0-19.12,0,27.76,27.76,0,0,0-.81,10h20.74A27.76,27.76,0,0,0,288,163.76Z"/><path d="M288.9,173.87h-21v-.11a28,28,0,0,1,.82-10l0-.08h.08a64,64,0,0,1,19.15,0h.09l0,.08a28.27,28.27,0,0,1,.82,10Zm-20.74-.25h20.52a28,28,0,0,0-.8-9.75,63.82,63.82,0,0,0-18.92,0A27.56,27.56,0,0,0,268.16,173.62Z"/><path class="cls-6" d="M288.79,173.75H268.05c0,.24.05.48.08.72h20.58C288.74,174.23,288.77,174,288.79,173.75Z"/><path class="cls-1" d="M268.13,174.47v5.21a25,25,0,0,0,20.58,0v-5.21Z"/><path d="M278.42,182a22.69,22.69,0,0,1-10.35-2.24l-.07,0v-5.41h20.83v5.41l-.06,0A22.72,22.72,0,0,1,278.42,182Zm-10.16-2.43a24.77,24.77,0,0,0,20.32,0v-5H268.26Z"/><path class="cls-6" d="M291.56,138.28l.26-.7a50.57,50.57,0,0,0-26.8,0l.26.7A50.48,50.48,0,0,1,291.56,138.28Z"/><path class="cls-1" d="M265.65,138.25l3.21,8.8H288l3.21-8.8A49,49,0,0,0,265.65,138.25Z"/><path d="M288.06,147.17H268.77l-3.29-9,.13,0a49,49,0,0,1,25.61,0l.14,0ZM269,146.92h18.94l3.14-8.59a49,49,0,0,0-25.22,0Z"/><path class="cls-5" d="M288.67,179.67h.13a2.83,2.83,0,0,0,2.83-2.83v-.21A6.85,6.85,0,0,1,288.67,179.67Z"/><path class="cls-5" d="M268.17,179.67H268a2.83,2.83,0,0,1-2.83-2.83v-.21A6.85,6.85,0,0,0,268.17,179.67Z"/><path class="cls-1" d="M295.16,145.23a1.14,1.14,0,0,0-.2-1l-2.3-2a.31.31,0,0,0-.13-.06V144l2.58,1.44Z"/><path class="cls-5" d="M295.19,145.65l-2.78-1.56V142l.15,0a.38.38,0,0,1,.18.09l2.31,2a1.29,1.29,0,0,1,.24,1.14Zm-2.53-1.71,2.37,1.33v-.07a1,1,0,0,0-.16-.89l-2.22-1.92Z"/><path class="cls-1" d="M261.67,145.23a1.14,1.14,0,0,1,.2-1l2.31-2a.34.34,0,0,1,.12-.06V144l-2.57,1.44Z"/><path class="cls-5" d="M261.64,145.65l-.09-.39a1.26,1.26,0,0,1,.24-1.14l2.31-2a.31.31,0,0,1,.18-.09l.15,0v2.08Zm2.54-3.26L262,144.31a1.08,1.08,0,0,0-.16.89l0,.07,2.37-1.33Z"/><path class="cls-5" d="M285.23,131.65c0-4.16-.74-7.82-1.86-9.94a25.89,25.89,0,0,1,1.35,8.81,32,32,0,0,1-.34,4.75H285A32,32,0,0,0,285.23,131.65Z"/><path class="cls-5" d="M271.61,131.65c0-4.16.74-7.82,1.85-9.94a26.16,26.16,0,0,0-1.34,8.81,32,32,0,0,0,.34,4.75h-.66A34.59,34.59,0,0,1,271.61,131.65Z"/><rect class="cls-1" x="268.86" y="147.05" width="19.12" height="16.71"/><path d="M288.1,163.89H268.73v-17H288.1ZM269,163.64h18.86V147.17H269Z"/><path class="cls-1" d="M329.39,182.23a56.17,56.17,0,0,1-13,0c-5-.63-8.69-5.68-8.43-10.28a440.63,440.63,0,0,0,0-45.25,9.74,9.74,0,0,1,8-9.8,55.5,55.5,0,0,1,13.87,0,9.75,9.75,0,0,1,8,9.8,443.48,443.48,0,0,0,0,45.25C338.09,176.55,334.37,181.6,329.39,182.23Z"/><path class="cls-5" d="M322.91,182.77a54.37,54.37,0,0,1-6.5-.38,10.3,10.3,0,0,1-8.57-10.45,443.29,443.29,0,0,0,0-45.24,9.87,9.87,0,0,1,8.15-10,55.82,55.82,0,0,1,13.91,0,9.87,9.87,0,0,1,8.14,10,446,446,0,0,0,0,45.23,10.3,10.3,0,0,1-8.57,10.45h0A54.13,54.13,0,0,1,322.91,182.77Zm0-66.13a55.14,55.14,0,0,0-6.91.43,9.52,9.52,0,0,0-7.85,9.62,446.77,446.77,0,0,1,0,45.27,10,10,0,0,0,8.29,10.1,55.74,55.74,0,0,0,12.91,0,10,10,0,0,0,8.29-10.1,443.88,443.88,0,0,1,0-45.27,9.52,9.52,0,0,0-7.85-9.62A55.3,55.3,0,0,0,322.91,116.64Z"/><path class="cls-6" d="M333.25,173.74H312.58c0,.24.05.48.08.72h20.51C333.2,174.22,333.23,174,333.25,173.74Z"/><path class="cls-5" d="M335.36,166.34l-.18-.62a61.65,61.65,0,0,1-2-16.47c0-.68,0-1.37,0-2.06v0l3.13-7.38,0,.58c0,1.71.06,3.41.06,5a196.38,196.38,0,0,1-1,20.31Zm-1.89-19.12c0,.68,0,1.36,0,2a62.88,62.88,0,0,0,1.8,15.76c.63-6.29.95-12.89.95-19.62,0-1.45,0-2.94-.05-4.45Z"/><path class="cls-5" d="M310.47,166.34l-.06-.64a196.38,196.38,0,0,1-1-20.31c0-1.62,0-3.32.06-5l0-.58,3.14,7.42c0,.69,0,1.38,0,2.06a61.65,61.65,0,0,1-2,16.47Zm-.78-25.4c0,1.52-.05,3-.05,4.45,0,6.73.32,13.33.95,19.62a62.88,62.88,0,0,0,1.8-15.76c0-.67,0-1.35,0-2Z"/><path class="cls-1" d="M336.14,138.35V127.5a11.6,11.6,0,0,0-11.56-11.58h-3.33a11.6,11.6,0,0,0-11.56,11.58v10.85a59.44,59.44,0,0,1,26.45,0Z"/><path d="M336.27,138.51l-.16,0a57.9,57.9,0,0,0-13.2-1.49h-.17a58.27,58.27,0,0,0-13,1.49l-.15,0v-11a11.72,11.72,0,0,1,11.69-11.71h3.33a11.72,11.72,0,0,1,11.69,11.71Zm-15-22.47a11.46,11.46,0,0,0-11.44,11.46v10.69a58.53,58.53,0,0,1,12.93-1.46h.35A58.53,58.53,0,0,1,336,138.19V127.5A11.47,11.47,0,0,0,324.58,116Z"/><path class="cls-1" d="M332.47,163.76a63.11,63.11,0,0,0-19.11,0,27.55,27.55,0,0,0-.82,10h20.75A27.77,27.77,0,0,0,332.47,163.76Z"/><path d="M333.4,173.87h-21v-.11a27.82,27.82,0,0,1,.82-10l0-.08h.08a64,64,0,0,1,19.15,0h.08l0,.08a28,28,0,0,1,.82,10Zm-20.74-.25h20.51a27.56,27.56,0,0,0-.8-9.75,63.75,63.75,0,0,0-18.91,0A27.56,27.56,0,0,0,312.66,173.62Z"/><path class="cls-6" d="M333.29,173.75H312.54c0,.24,0,.48.09.72H333.2Z"/><path class="cls-1" d="M312.63,174.47v5.21a24.93,24.93,0,0,0,20.57,0v-5.21Z"/><path d="M322.91,182a22.67,22.67,0,0,1-10.34-2.24l-.07,0v-5.41h20.83v5.41l-.07,0A22.69,22.69,0,0,1,322.91,182Zm-10.16-2.43a24.79,24.79,0,0,0,20.33,0v-5H312.75Z"/><path class="cls-6" d="M336.06,138.28l.25-.7a50.54,50.54,0,0,0-26.79,0l.25.7A50.52,50.52,0,0,1,336.06,138.28Z"/><path class="cls-1" d="M310.14,138.25l3.22,8.8h19.11l3.22-8.8A49,49,0,0,0,310.14,138.25Z"/><path d="M332.56,147.17H313.27l-3.29-9,.13,0a49,49,0,0,1,25.61,0l.13,0Zm-19.12-.25h18.94l3.14-8.59a49,49,0,0,0-25.21,0Z"/><path class="cls-5" d="M333.16,179.67h.14a2.84,2.84,0,0,0,2.83-2.83v-.21A6.82,6.82,0,0,1,333.16,179.67Z"/><path class="cls-5" d="M312.66,179.67h-.13a2.84,2.84,0,0,1-2.83-2.83v-.21A6.85,6.85,0,0,0,312.66,179.67Z"/><path class="cls-1" d="M339.66,145.23a1.14,1.14,0,0,0-.2-1l-2.31-2a.34.34,0,0,0-.12-.06V144l2.58,1.44Z"/><path class="cls-5" d="M339.69,145.65l-2.78-1.56V142l.15,0a.32.32,0,0,1,.17.09l2.31,2a1.26,1.26,0,0,1,.24,1.14Zm-2.53-1.71,2.36,1.33,0-.07a1.08,1.08,0,0,0-.16-.89l-2.22-1.92Z"/><path class="cls-1" d="M306.17,145.23a1.14,1.14,0,0,1,.2-1l2.31-2a.34.34,0,0,1,.12-.06V144l-2.58,1.44Z"/><path class="cls-5" d="M306.14,145.65l-.09-.39a1.23,1.23,0,0,1,.24-1.14l2.3-2a.38.38,0,0,1,.18-.09l.15,0v2.08Zm2.53-3.26-2.22,1.92a1,1,0,0,0-.16.89l0,.07,2.36-1.33Z"/><path class="cls-5" d="M329.72,131.65c0-4.16-.74-7.82-1.85-9.94a25.89,25.89,0,0,1,1.35,8.81,33.36,33.36,0,0,1-.34,4.75h.65A34.59,34.59,0,0,0,329.72,131.65Z"/><path class="cls-5" d="M316.11,131.65c0-4.16.73-7.82,1.85-9.94a25.89,25.89,0,0,0-1.35,8.81,32,32,0,0,0,.34,4.75h-.65A32.06,32.06,0,0,1,316.11,131.65Z"/><rect class="cls-1" x="313.36" y="147.05" width="19.12" height="16.71"/><path d="M332.6,163.89H313.23v-17H332.6Zm-19.12-.25h18.87V147.17H313.48Z"/><path class="cls-1" d="M372.41,182.23a56.17,56.17,0,0,1-13,0c-5-.63-8.7-5.68-8.43-10.28a446.38,446.38,0,0,0,0-45.25,9.73,9.73,0,0,1,8-9.8,55.42,55.42,0,0,1,13.86,0,9.74,9.74,0,0,1,8,9.8,443.48,443.48,0,0,0,0,45.25C381.11,176.55,377.39,181.6,372.41,182.23Z"/><path class="cls-5" d="M365.93,182.77a54.37,54.37,0,0,1-6.5-.38,10.3,10.3,0,0,1-8.58-10.45,446.18,446.18,0,0,0,0-45.24,9.86,9.86,0,0,1,8.14-10,55.82,55.82,0,0,1,13.91,0,9.87,9.87,0,0,1,8.15,10,443.09,443.09,0,0,0,0,45.23,10.3,10.3,0,0,1-8.58,10.45h0A54.37,54.37,0,0,1,365.93,182.77Zm0-66.13a55,55,0,0,0-6.91.43,9.54,9.54,0,0,0-7.86,9.62,441,441,0,0,1,0,45.27,10,10,0,0,0,8.29,10.1,55.83,55.83,0,0,0,12.92,0,10,10,0,0,0,8.28-10.1,446.77,446.77,0,0,1,0-45.27,9.52,9.52,0,0,0-7.85-9.62A55,55,0,0,0,365.93,116.64Z"/><path class="cls-6" d="M376.26,173.74H355.59l.09.72h20.5C376.21,174.22,376.24,174,376.26,173.74Z"/><path class="cls-5" d="M378.37,166.34l-.18-.62a61.65,61.65,0,0,1-2-16.47c0-.68,0-1.37,0-2.06v0l3.14-7.38v.58c0,1.71.06,3.41.06,5a199.26,199.26,0,0,1-1,20.31Zm-1.89-19.12c0,.68,0,1.36,0,2A62.91,62.91,0,0,0,378.25,165c.63-6.29.95-12.89.95-19.62,0-1.45,0-2.94-.05-4.45Z"/><path class="cls-5" d="M353.49,166.34l-.07-.64a199.26,199.26,0,0,1-1-20.31c0-1.62,0-3.32.06-5v-.58l3.15,7.42c0,.69,0,1.38,0,2.06a61.68,61.68,0,0,1-2,16.47Zm-.78-25.4c0,1.52,0,3,0,4.45,0,6.73.31,13.33.94,19.62a62.88,62.88,0,0,0,1.8-15.76c0-.67,0-1.35,0-2Z"/><path class="cls-1" d="M379.16,138.35V127.5a11.61,11.61,0,0,0-11.57-11.58h-3.32A11.61,11.61,0,0,0,352.7,127.5v10.85a59.48,59.48,0,0,1,26.46,0Z"/><path d="M379.28,138.51l-.15,0a58,58,0,0,0-13.2-1.49h-.17a58.14,58.14,0,0,0-13,1.49l-.15,0v-11a11.72,11.72,0,0,1,11.69-11.71h3.32a11.72,11.72,0,0,1,11.69,11.71Zm-15-22.47a11.46,11.46,0,0,0-11.44,11.46v10.69a58.44,58.44,0,0,1,12.92-1.46h.35A58.46,58.46,0,0,1,379,138.19V127.5A11.46,11.46,0,0,0,367.59,116Z"/><path class="cls-1" d="M375.49,163.76a63.18,63.18,0,0,0-19.12,0,27.76,27.76,0,0,0-.81,10H376.3A27.76,27.76,0,0,0,375.49,163.76Z"/><path d="M376.41,173.87h-21v-.11a28,28,0,0,1,.82-10l0-.08h.08a64.09,64.09,0,0,1,19.16,0h.08l0,.08a28.27,28.27,0,0,1,.82,10Zm-20.74-.25h20.52a28,28,0,0,0-.8-9.75,63.82,63.82,0,0,0-18.92,0A27.56,27.56,0,0,0,355.67,173.62Z"/><path class="cls-6" d="M376.3,173.75H355.56c0,.24.05.48.08.72h20.58C376.25,174.23,376.28,174,376.3,173.75Z"/><path class="cls-1" d="M355.64,174.47v5.21a25,25,0,0,0,20.58,0v-5.21Z"/><path d="M365.93,182a22.69,22.69,0,0,1-10.35-2.24l-.07,0v-5.41h20.83v5.41l-.06,0A22.69,22.69,0,0,1,365.93,182Zm-10.16-2.43a24.77,24.77,0,0,0,20.32,0v-5H355.77Z"/><path class="cls-6" d="M379.07,138.28l.26-.7a50.57,50.57,0,0,0-26.8,0l.26.7A50.48,50.48,0,0,1,379.07,138.28Z"/><path class="cls-1" d="M353.16,138.25l3.21,8.8h19.12l3.21-8.8A49,49,0,0,0,353.16,138.25Z"/><path d="M375.57,147.17H356.28l-3.29-9,.13,0a49,49,0,0,1,25.61,0l.14,0Zm-19.11-.25H375.4l3.14-8.59a49,49,0,0,0-25.22,0Z"/><path class="cls-5" d="M376.18,179.67h.13a2.83,2.83,0,0,0,2.83-2.83v-.21A6.85,6.85,0,0,1,376.18,179.67Z"/><path class="cls-5" d="M355.68,179.67h-.13a2.83,2.83,0,0,1-2.83-2.83v-.21A6.85,6.85,0,0,0,355.68,179.67Z"/><path class="cls-1" d="M382.67,145.23a1.11,1.11,0,0,0-.2-1l-2.3-2-.12-.06V144l2.57,1.44Z"/><path class="cls-5" d="M382.7,145.65l-2.78-1.56V142l.15,0a.38.38,0,0,1,.18.09l2.31,2a1.29,1.29,0,0,1,.24,1.14Zm-2.53-1.71,2.37,1.33v-.07a1,1,0,0,0-.16-.89l-2.22-1.92Z"/><path class="cls-1" d="M349.18,145.23a1.14,1.14,0,0,1,.2-1l2.31-2a.34.34,0,0,1,.12-.06V144l-2.57,1.44Z"/><path class="cls-5" d="M349.15,145.65l-.09-.39a1.26,1.26,0,0,1,.24-1.14l2.31-2a.31.31,0,0,1,.18-.09l.15,0v2.08Zm2.54-3.26-2.22,1.92a1,1,0,0,0-.16.89v.07l2.37-1.33Z"/><path class="cls-5" d="M372.74,131.65c0-4.16-.74-7.82-1.86-9.94a25.89,25.89,0,0,1,1.35,8.81,32,32,0,0,1-.34,4.75h.65A32,32,0,0,0,372.74,131.65Z"/><path class="cls-5" d="M359.12,131.65c0-4.16.74-7.82,1.85-9.94a26.16,26.16,0,0,0-1.34,8.81,32,32,0,0,0,.34,4.75h-.66A34.59,34.59,0,0,1,359.12,131.65Z"/><rect class="cls-1" x="356.37" y="147.05" width="19.12" height="16.71"/><path d="M375.61,163.89H356.25v-17h19.36Zm-19.11-.25h18.86V147.17H356.5Z"/><path class="cls-1" d="M438.84,182.23a56.17,56.17,0,0,1-13,0c-5-.63-8.69-5.68-8.43-10.28a440.63,440.63,0,0,0,0-45.25,9.74,9.74,0,0,1,8-9.8,55.5,55.5,0,0,1,13.87,0,9.75,9.75,0,0,1,8,9.8,443.48,443.48,0,0,0,0,45.25C447.54,176.55,443.82,181.6,438.84,182.23Z"/><path class="cls-5" d="M432.36,182.77a54.37,54.37,0,0,1-6.5-.38,10.3,10.3,0,0,1-8.57-10.45,443.29,443.29,0,0,0,0-45.24,9.87,9.87,0,0,1,8.15-10,55.82,55.82,0,0,1,13.91,0,9.87,9.87,0,0,1,8.14,10,446,446,0,0,0,0,45.23,10.3,10.3,0,0,1-8.58,10.45h0A54.13,54.13,0,0,1,432.36,182.77Zm0-66.13a55,55,0,0,0-6.91.43,9.52,9.52,0,0,0-7.85,9.62,446.77,446.77,0,0,1,0,45.27,10,10,0,0,0,8.28,10.1,55.83,55.83,0,0,0,12.92,0,10,10,0,0,0,8.29-10.1,443.88,443.88,0,0,1,0-45.27,9.52,9.52,0,0,0-7.85-9.62A55.3,55.3,0,0,0,432.36,116.64Z"/><path class="cls-6" d="M442.7,173.74H422c0,.24.05.48.08.72h20.51C442.65,174.22,442.68,174,442.7,173.74Z"/><path class="cls-5" d="M444.81,166.34l-.18-.62a61.65,61.65,0,0,1-2-16.47c0-.68,0-1.37,0-2.06v0l3.13-7.38,0,.58c0,1.71.06,3.41.06,5a196.38,196.38,0,0,1-1,20.31Zm-1.89-19.12c0,.68,0,1.36,0,2a62.88,62.88,0,0,0,1.8,15.76c.63-6.29.95-12.89.95-19.62,0-1.45,0-2.94-.05-4.45Z"/><path class="cls-5" d="M419.92,166.34l-.06-.64a196.38,196.38,0,0,1-1-20.31c0-1.62,0-3.32.06-5l0-.58,3.14,7.42c0,.69,0,1.38,0,2.06a61.65,61.65,0,0,1-2,16.47Zm-.78-25.4c0,1.52-.05,3-.05,4.45,0,6.73.32,13.33,1,19.62a62.88,62.88,0,0,0,1.8-15.76c0-.67,0-1.35,0-2Z"/><path class="cls-1" d="M445.59,138.35V127.5A11.6,11.6,0,0,0,434,115.92H430.7a11.6,11.6,0,0,0-11.56,11.58v10.85a59.44,59.44,0,0,1,26.45,0Z"/><path d="M445.72,138.51l-.16,0a57.9,57.9,0,0,0-13.2-1.49h-.17a58.27,58.27,0,0,0-13,1.49l-.15,0v-11a11.72,11.72,0,0,1,11.69-11.71H434a11.72,11.72,0,0,1,11.69,11.71ZM430.7,116a11.46,11.46,0,0,0-11.44,11.46v10.69a58.53,58.53,0,0,1,12.93-1.46h.35a58.53,58.53,0,0,1,12.93,1.46V127.5A11.47,11.47,0,0,0,434,116Z"/><path class="cls-1" d="M441.92,163.76a63.11,63.11,0,0,0-19.11,0,27.55,27.55,0,0,0-.82,10h20.75A28,28,0,0,0,441.92,163.76Z"/><path d="M442.85,173.87h-21v-.11a27.82,27.82,0,0,1,.82-10l0-.08h.08a64,64,0,0,1,19.15,0H442l0,.08a28,28,0,0,1,.82,10Zm-20.75-.25h20.52a27.56,27.56,0,0,0-.8-9.75,63.75,63.75,0,0,0-18.91,0A27.8,27.8,0,0,0,422.1,173.62Z"/><path class="cls-6" d="M442.74,173.75H422c0,.24.05.48.09.72h20.57Z"/><path class="cls-1" d="M422.08,174.47v5.21a24.93,24.93,0,0,0,20.57,0v-5.21Z"/><path d="M432.36,182A22.67,22.67,0,0,1,422,179.79l-.07,0v-5.41h20.83v5.41l-.07,0A22.69,22.69,0,0,1,432.36,182ZM422.2,179.6a24.79,24.79,0,0,0,20.33,0v-5H422.2Z"/><path class="cls-6" d="M445.51,138.28l.25-.7a50.54,50.54,0,0,0-26.79,0l.25.7A50.52,50.52,0,0,1,445.51,138.28Z"/><path class="cls-1" d="M419.59,138.25l3.22,8.8h19.11l3.22-8.8A49,49,0,0,0,419.59,138.25Z"/><path d="M442,147.17H422.72l-3.29-9,.13,0a49,49,0,0,1,25.61,0l.13,0Zm-19.12-.25h18.94l3.14-8.59a49,49,0,0,0-25.21,0Z"/><path class="cls-5" d="M442.61,179.67h.14a2.84,2.84,0,0,0,2.83-2.83v-.21A6.82,6.82,0,0,1,442.61,179.67Z"/><path class="cls-5" d="M422.11,179.67H422a2.84,2.84,0,0,1-2.83-2.83v-.21A6.85,6.85,0,0,0,422.11,179.67Z"/><path class="cls-1" d="M449.11,145.23a1.14,1.14,0,0,0-.2-1l-2.31-2-.12-.06V144l2.57,1.44Z"/><path class="cls-5" d="M449.14,145.65l-2.78-1.56V142l.15,0a.32.32,0,0,1,.17.09l2.31,2a1.26,1.26,0,0,1,.24,1.14Zm-2.53-1.71,2.36,1.33,0-.07a1.08,1.08,0,0,0-.16-.89l-2.22-1.92Z"/><path class="cls-1" d="M415.62,145.23a1.14,1.14,0,0,1,.2-1l2.31-2a.34.34,0,0,1,.12-.06V144l-2.58,1.44Z"/><path class="cls-5" d="M415.59,145.65l-.09-.39a1.23,1.23,0,0,1,.24-1.14l2.3-2a.38.38,0,0,1,.18-.09l.15,0v2.08Zm2.53-3.26-2.22,1.92a1,1,0,0,0-.16.89l0,.07,2.36-1.33Z"/><path class="cls-5" d="M439.17,131.65c0-4.16-.74-7.82-1.85-9.94a25.89,25.89,0,0,1,1.35,8.81,33.36,33.36,0,0,1-.34,4.75H439A34.59,34.59,0,0,0,439.17,131.65Z"/><path class="cls-5" d="M425.56,131.65c0-4.16.73-7.82,1.85-9.94a25.89,25.89,0,0,0-1.35,8.81,32,32,0,0,0,.34,4.75h-.65A32.06,32.06,0,0,1,425.56,131.65Z"/><rect class="cls-1" x="422.81" y="147.05" width="19.12" height="16.71"/><path d="M442.05,163.89H422.68v-17h19.37Zm-19.12-.25H441.8V147.17H422.93Z"/><path class="cls-1" d="M483.34,182.23a56.17,56.17,0,0,1-13,0c-5-.63-8.7-5.68-8.43-10.28a443.48,443.48,0,0,0,0-45.25,9.73,9.73,0,0,1,8-9.8,55.42,55.42,0,0,1,13.86,0,9.73,9.73,0,0,1,8,9.8,443.48,443.48,0,0,0,0,45.25C492,176.55,488.32,181.6,483.34,182.23Z"/><path class="cls-5" d="M476.86,182.77a54.37,54.37,0,0,1-6.5-.38,10.3,10.3,0,0,1-8.58-10.45,443.29,443.29,0,0,0,0-45.24,9.86,9.86,0,0,1,8.14-10,55.82,55.82,0,0,1,13.91,0,9.86,9.86,0,0,1,8.15,10,443.09,443.09,0,0,0,0,45.23,10.3,10.3,0,0,1-8.58,10.45h0A54.37,54.37,0,0,1,476.86,182.77Zm0-66.13a55,55,0,0,0-6.91.43,9.54,9.54,0,0,0-7.86,9.62,443.88,443.88,0,0,1,0,45.27,10,10,0,0,0,8.28,10.1,55.83,55.83,0,0,0,12.92,0A10,10,0,0,0,491.6,172a443.88,443.88,0,0,1,0-45.27,9.54,9.54,0,0,0-7.86-9.62A55,55,0,0,0,476.86,116.64Z"/><path class="cls-6" d="M487.2,173.74H466.52l.09.72h20.5Z"/><path class="cls-5" d="M489.3,166.34l-.18-.62a61.68,61.68,0,0,1-2-16.47c0-.68,0-1.37,0-2.06v0l3.14-7.38v.58c0,1.71.06,3.41.06,5a199.26,199.26,0,0,1-1,20.31Zm-1.89-19.12c0,.68,0,1.36,0,2a62.42,62.42,0,0,0,1.8,15.76c.62-6.29.94-12.89.94-19.62,0-1.45,0-2.94-.05-4.45Z"/><path class="cls-5" d="M464.42,166.34l-.07-.64a199.26,199.26,0,0,1-1-20.31c0-1.62,0-3.32.06-5v-.58l3.15,7.42c0,.69,0,1.38,0,2.06a61.68,61.68,0,0,1-2,16.47Zm-.78-25.4c0,1.52-.05,3-.05,4.45,0,6.73.32,13.33.94,19.62a62.42,62.42,0,0,0,1.8-15.76c0-.67,0-1.35,0-2Z"/><path class="cls-1" d="M490.09,138.35V127.5a11.61,11.61,0,0,0-11.57-11.58H475.2a11.61,11.61,0,0,0-11.57,11.58v10.85a59.48,59.48,0,0,1,26.46,0Z"/><path d="M490.21,138.51l-.15,0a58,58,0,0,0-13.2-1.49h-.17a58.27,58.27,0,0,0-13,1.49l-.15,0v-11a11.72,11.72,0,0,1,11.69-11.71h3.32a11.72,11.72,0,0,1,11.69,11.71ZM475.2,116a11.46,11.46,0,0,0-11.44,11.46v10.69a58.46,58.46,0,0,1,12.93-1.46H477A58.46,58.46,0,0,1,490,138.19V127.5A11.46,11.46,0,0,0,478.52,116Z"/><path class="cls-1" d="M486.42,163.76a63.18,63.18,0,0,0-19.12,0,27.76,27.76,0,0,0-.81,10h20.74A27.76,27.76,0,0,0,486.42,163.76Z"/><path d="M487.35,173.87h-21v-.11a28,28,0,0,1,.82-10l0-.08h.08a64.09,64.09,0,0,1,19.16,0h.08l0,.08a28,28,0,0,1,.82,10Zm-20.75-.25h20.52a28,28,0,0,0-.8-9.75,63.82,63.82,0,0,0-18.92,0A28,28,0,0,0,466.6,173.62Z"/><path class="cls-6" d="M487.23,173.75H466.49c0,.24.05.48.08.72h20.58C487.18,174.23,487.21,174,487.23,173.75Z"/><path class="cls-1" d="M466.57,174.47v5.21a25,25,0,0,0,20.58,0v-5.21Z"/><path d="M476.86,182a22.69,22.69,0,0,1-10.35-2.24l-.06,0v-5.41h20.82v5.41l-.06,0A22.69,22.69,0,0,1,476.86,182ZM466.7,179.6a24.77,24.77,0,0,0,20.32,0v-5H466.7Z"/><path class="cls-6" d="M490,138.28l.26-.7a50.57,50.57,0,0,0-26.8,0l.26.7A50.48,50.48,0,0,1,490,138.28Z"/><path class="cls-1" d="M464.09,138.25l3.21,8.8h19.12l3.21-8.8A49,49,0,0,0,464.09,138.25Z"/><path d="M486.51,147.17h-19.3l-3.29-9,.13,0a49,49,0,0,1,25.62,0l.13,0Zm-19.12-.25h18.94l3.14-8.59a49,49,0,0,0-25.22,0Z"/><path class="cls-5" d="M487.11,179.67h.13a2.83,2.83,0,0,0,2.83-2.83v-.21A6.85,6.85,0,0,1,487.11,179.67Z"/><path class="cls-5" d="M466.61,179.67h-.13a2.83,2.83,0,0,1-2.83-2.83v-.21A6.85,6.85,0,0,0,466.61,179.67Z"/><path class="cls-1" d="M493.61,145.23a1.14,1.14,0,0,0-.2-1l-2.31-2-.12-.06V144l2.57,1.44Z"/><path class="cls-5" d="M493.63,145.65l-2.78-1.56V142l.15,0a.38.38,0,0,1,.18.09l2.31,2a1.29,1.29,0,0,1,.24,1.14Zm-2.53-1.71,2.37,1.33v-.07a1,1,0,0,0-.16-.89l-2.22-1.92Z"/><path class="cls-1" d="M460.11,145.23a1.14,1.14,0,0,1,.2-1l2.31-2a.34.34,0,0,1,.12-.06V144l-2.57,1.44Z"/><path class="cls-5" d="M460.09,145.65l-.1-.39a1.29,1.29,0,0,1,.24-1.14l2.31-2a.38.38,0,0,1,.18-.09l.15,0v2.08Zm2.53-3.26-2.22,1.92a1,1,0,0,0-.16.89v.07l2.37-1.33Z"/><path class="cls-5" d="M483.67,131.65c0-4.16-.74-7.82-1.86-9.94a25.89,25.89,0,0,1,1.35,8.81,32,32,0,0,1-.34,4.75h.65A32,32,0,0,0,483.67,131.65Z"/><path class="cls-5" d="M470.05,131.65c0-4.16.74-7.82,1.86-9.94a25.89,25.89,0,0,0-1.35,8.81,32,32,0,0,0,.34,4.75h-.65A32,32,0,0,1,470.05,131.65Z"/><rect class="cls-1" x="467.3" y="147.05" width="19.12" height="16.71"/><path d="M486.54,163.89H467.18v-17h19.36Zm-19.11-.25h18.86V147.17H467.43Z"/><path class="cls-1" d="M526.35,182.23a56.17,56.17,0,0,1-13,0c-5-.63-8.69-5.68-8.43-10.28a440.63,440.63,0,0,0,0-45.25,9.74,9.74,0,0,1,8-9.8,55.5,55.5,0,0,1,13.87,0,9.75,9.75,0,0,1,8,9.8,440.63,440.63,0,0,0,0,45.25C535.05,176.55,531.33,181.6,526.35,182.23Z"/><path class="cls-5" d="M519.87,182.77a54.37,54.37,0,0,1-6.5-.38,10.3,10.3,0,0,1-8.57-10.45,443.29,443.29,0,0,0,0-45.24,9.87,9.87,0,0,1,8.15-10,55.82,55.82,0,0,1,13.91,0,9.87,9.87,0,0,1,8.14,10,446,446,0,0,0,0,45.23,10.3,10.3,0,0,1-8.57,10.45h0A54.13,54.13,0,0,1,519.87,182.77Zm0-66.13a55.26,55.26,0,0,0-6.91.43,9.52,9.52,0,0,0-7.85,9.62,446.77,446.77,0,0,1,0,45.27,10,10,0,0,0,8.29,10.1,55.74,55.74,0,0,0,12.91,0,10,10,0,0,0,8.29-10.1,443.88,443.88,0,0,1,0-45.27,9.52,9.52,0,0,0-7.85-9.62A55.3,55.3,0,0,0,519.87,116.64Z"/><path class="cls-6" d="M530.21,173.74H509.54c0,.24,0,.48.08.72h20.51C530.16,174.22,530.19,174,530.21,173.74Z"/><path class="cls-5" d="M532.32,166.34l-.18-.62a61.65,61.65,0,0,1-2-16.47c0-.68,0-1.37,0-2.06v0l3.13-7.38,0,.58c0,1.71.06,3.41.06,5a196.38,196.38,0,0,1-1,20.31Zm-1.89-19.12c0,.68,0,1.36,0,2A62.88,62.88,0,0,0,532.2,165c.63-6.29.95-12.89.95-19.62,0-1.45,0-2.94,0-4.45Z"/><path class="cls-5" d="M507.43,166.34l-.06-.64a196.38,196.38,0,0,1-1-20.31c0-1.62,0-3.32.06-5l0-.58,3.14,7.42c0,.69,0,1.38,0,2.06a61.65,61.65,0,0,1-2,16.47Zm-.78-25.4c0,1.52,0,3,0,4.45,0,6.73.32,13.33.95,19.62a62.88,62.88,0,0,0,1.8-15.76c0-.67,0-1.35,0-2Z"/><path class="cls-1" d="M533.1,138.35V127.5a11.6,11.6,0,0,0-11.56-11.58h-3.33a11.6,11.6,0,0,0-11.56,11.58v10.85a59.44,59.44,0,0,1,26.45,0Z"/><path d="M533.23,138.51l-.16,0a57.9,57.9,0,0,0-13.2-1.49h-.17a58.12,58.12,0,0,0-13,1.49l-.16,0v-11a11.72,11.72,0,0,1,11.69-11.71h3.33a11.72,11.72,0,0,1,11.69,11.71Zm-15-22.47a11.46,11.46,0,0,0-11.44,11.46v10.69a58.53,58.53,0,0,1,12.93-1.46h.35A58.53,58.53,0,0,1,533,138.19V127.5A11.47,11.47,0,0,0,521.54,116Z"/><path class="cls-1" d="M529.43,163.76a63.11,63.11,0,0,0-19.11,0,27.77,27.77,0,0,0-.82,10h20.75A27.77,27.77,0,0,0,529.43,163.76Z"/><path d="M530.36,173.87h-21v-.11a27.82,27.82,0,0,1,.82-10l0-.08h.08a64,64,0,0,1,19.15,0h.08l0,.08a28,28,0,0,1,.82,10Zm-20.74-.25h20.51a27.56,27.56,0,0,0-.8-9.75,63.75,63.75,0,0,0-18.91,0A27.56,27.56,0,0,0,509.62,173.62Z"/><path class="cls-6" d="M530.25,173.75H509.5l.09.72h20.57Z"/><path class="cls-1" d="M509.59,174.47v5.21a24.93,24.93,0,0,0,20.57,0v-5.21Z"/><path d="M519.87,182a22.67,22.67,0,0,1-10.34-2.24l-.07,0v-5.41h20.83v5.41l-.07,0A22.69,22.69,0,0,1,519.87,182Zm-10.16-2.43a24.79,24.79,0,0,0,20.33,0v-5H509.71Z"/><path class="cls-6" d="M533,138.28l.25-.7a50.54,50.54,0,0,0-26.79,0l.25.7A50.52,50.52,0,0,1,533,138.28Z"/><path class="cls-1" d="M507.1,138.25l3.22,8.8h19.11l3.22-8.8A49,49,0,0,0,507.1,138.25Z"/><path d="M529.52,147.17H510.23l-3.29-9,.13,0a49,49,0,0,1,25.61,0l.13,0Zm-19.12-.25h18.94l3.14-8.59a49,49,0,0,0-25.21,0Z"/><path class="cls-5" d="M530.13,179.67h.13a2.84,2.84,0,0,0,2.83-2.83v-.21A6.85,6.85,0,0,1,530.13,179.67Z"/><path class="cls-5" d="M509.62,179.67h-.13a2.84,2.84,0,0,1-2.83-2.83v-.21A6.85,6.85,0,0,0,509.62,179.67Z"/><path class="cls-1" d="M536.62,145.23a1.14,1.14,0,0,0-.2-1l-2.31-2a.34.34,0,0,0-.12-.06V144l2.58,1.44Z"/><path class="cls-5" d="M536.65,145.65l-2.78-1.56V142l.15,0a.32.32,0,0,1,.17.09l2.31,2a1.26,1.26,0,0,1,.24,1.14Zm-2.53-1.71,2.36,1.33,0-.07a1,1,0,0,0-.16-.89l-2.22-1.92Z"/><path class="cls-1" d="M503.13,145.23a1.14,1.14,0,0,1,.2-1l2.31-2,.12-.06V144l-2.58,1.44Z"/><path class="cls-5" d="M503.1,145.65l-.09-.39a1.23,1.23,0,0,1,.24-1.14l2.3-2a.38.38,0,0,1,.18-.09l.15,0v2.08Zm2.53-3.26-2.22,1.92a1,1,0,0,0-.16.89l0,.07,2.36-1.33Z"/><path class="cls-5" d="M526.68,131.65c0-4.16-.73-7.82-1.85-9.94a25.89,25.89,0,0,1,1.35,8.81,32,32,0,0,1-.34,4.75h.65A32.06,32.06,0,0,0,526.68,131.65Z"/><path class="cls-5" d="M513.07,131.65c0-4.16.73-7.82,1.85-9.94a25.89,25.89,0,0,0-1.35,8.81,32,32,0,0,0,.34,4.75h-.65A32.06,32.06,0,0,1,513.07,131.65Z"/><rect class="cls-1" x="510.32" y="147.05" width="19.12" height="16.71"/><path d="M529.56,163.89H510.19v-17h19.37Zm-19.12-.25h18.87V147.17H510.44Z"/><path d="M275.76,271.45a38.55,38.55,0,0,1-6.15,1.91l-.7-2.38a25.26,25.26,0,0,0,7.68-2.83h2.12v26.18h-2.95Z"/><path d="M297.73,281.86c-.32,1.14-.7,2.22-1.05,3.11h17.84a30.32,30.32,0,0,1-1.69,9.08c-.79,1.78-1.81,2.28-4.66,2.28-1.68,0-3.94-.09-5.49-.22l-.57-2.41c2.19.19,4.31.32,5.84.32s2.06-.26,2.5-1.27a29.89,29.89,0,0,0,1.21-5.62H295.82c-.41.89-.85,1.81-1.33,2.7l-2.57-.73a43.48,43.48,0,0,0,3.14-7.24H288V279.7h30.15v2.16Zm15.67-5.05H292.68v-9H313.4Zm-18.15-2h15.58V269.9H295.25Z"/><path d="M326.32,280.81a37.27,37.27,0,0,1-3.84,8.61l-1.17-2.54a35.87,35.87,0,0,0,4.79-11.46h-4.35V273.2h4.57v-6.8h2.35v6.8H332v2.22h-3.31v2.95a36.59,36.59,0,0,1,3.91,3.71l-1.34,2.13a33.62,33.62,0,0,0-2.57-3.27v15.62h-2.35ZM344,285.23a23.7,23.7,0,0,0,8.09,7.17l-1.49,2.22a25.82,25.82,0,0,1-8.19-8.12v10.06h-2.26v-9.87a24.33,24.33,0,0,1-8.15,8.37l-1.59-1.93a22.68,22.68,0,0,0,8.32-7.9H332.9v-11.3h7.29v-2.35h-8.95v-2.06h8.95V266.4h2.26v3.12h9.14v2.06h-9.14v2.35H350v11.3Zm-8.89-9.37v2.7h5v-2.7Zm0,4.64v2.76h5V280.5Zm7.3-1.94h5.3v-2.7h-5.3Zm0,4.7h5.3V280.5h-5.3Z"/><path d="M425.93,291.83c.83-3.4,3.62-6.79,7.91-9.65l.82-.54c4.44-2.89,5.62-4.29,5.62-6.6,0-2.6-2.16-4.35-5.43-4.35-2.66,0-4.54,1-6.57,3.4l-2-1.69a10.22,10.22,0,0,1,8.7-4.25c4.95,0,8.57,2.92,8.57,7,0,3.21-1.24,4.7-6.92,8.32l-1.14.73c-3.78,2.47-6.16,5.2-6.45,7.49h14.89v2.69h-18Z"/><path d="M459.55,281.86c-.32,1.14-.7,2.22-1.05,3.11h17.83a30.06,30.06,0,0,1-1.68,9.08c-.79,1.78-1.81,2.28-4.66,2.28-1.68,0-3.94-.09-5.49-.22l-.57-2.41c2.19.19,4.31.32,5.84.32s2.06-.26,2.5-1.27a29.89,29.89,0,0,0,1.21-5.62H457.64c-.41.89-.86,1.81-1.33,2.7l-2.57-.73a43.48,43.48,0,0,0,3.14-7.24H449.8V279.7H480v2.16Zm15.67-5.05H454.5v-9h20.72Zm-18.15-2h15.58V269.9H457.07Z"/><path d="M488.14,280.81a37.27,37.27,0,0,1-3.84,8.61l-1.17-2.54a35.87,35.87,0,0,0,4.79-11.46h-4.35V273.2h4.57v-6.8h2.35v6.8h3.3v2.22h-3.3v2.95a37.57,37.57,0,0,1,3.91,3.71l-1.34,2.13a35.25,35.25,0,0,0-2.57-3.27v15.62h-2.35Zm17.71,4.42a23.83,23.83,0,0,0,8.1,7.17l-1.49,2.22a25.82,25.82,0,0,1-8.19-8.12v10.06H502v-9.87a24.42,24.42,0,0,1-8.15,8.37l-1.59-1.93a22.58,22.58,0,0,0,8.31-7.9h-5.87v-11.3H502v-2.35h-8.95v-2.06H502V266.4h2.26v3.12h9.14v2.06h-9.14v2.35h7.52v11.3ZM497,275.86v2.7h5v-2.7Zm0,4.64v2.76h5V280.5Zm7.3-1.94h5.3v-2.7h-5.3Zm0,4.7h5.3V280.5h-5.3Z"/><rect class="繧ｰ繝ｩ繝輔ぅ繝け繧ｹ繧ｿ繧､繝ｫ-4" x="253.94" y="189.65" width="41.9" height="6.56"/><rect class="繧ｰ繝ｩ繝輔ぅ繝け繧ｹ繧ｿ繧､繝ｫ-4" x="253.94" y="196.21" width="41.9" height="6.56"/><rect class="繧ｰ繝ｩ繝輔ぅ繝け繧ｹ繧ｿ繧､繝ｫ-4" x="253.94" y="202.77" width="41.9" height="14.3"/><polygon points="274.89 215.48 280.9 207.09 268.88 207.09 274.89 215.48"/><rect class="繧ｰ繝ｩ繝輔ぅ繝け繧ｹ繧ｿ繧､繝ｫ-4" x="412.89" y="189.65" width="41.9" height="6.56"/><rect class="繧ｰ繝ｩ繝輔ぅ繝け繧ｹ繧ｿ繧､繝ｫ-4" x="412.89" y="196.21" width="41.9" height="6.56"/><rect class="繧ｰ繝ｩ繝輔ぅ繝け繧ｹ繧ｿ繧､繝ｫ-4" x="412.89" y="202.77" width="41.9" height="14.3"/><polygon points="433.83 215.48 439.85 207.09 427.82 207.09 433.83 215.48"/></g></svg>