<svg xmlns="http://www.w3.org/2000/svg" width="700" height="500" viewBox="0 0 700 500"><defs><style>.cls-1,.繧ｰ繝ｩ繝輔ぅ繝け繧ｹ繧ｿ繧､繝ｫ-3,.繧ｰ繝ｩ繝輔ぅ繝け繧ｹ繧ｿ繧､繝ｫ-4{fill:#fff;}.繧ｰ繝ｩ繝輔ぅ繝け繧ｹ繧ｿ繧､繝ｫ-2{fill:#d8eacc;}.cls-2,.cls-3,.cls-6,.cls-7,.繧ｰ繝ｩ繝輔ぅ繝け繧ｹ繧ｿ繧､繝ｫ,.繧ｰ繝ｩ繝輔ぅ繝け繧ｹ繧ｿ繧､繝ｫ-2,.繧ｰ繝ｩ繝輔ぅ繝け繧ｹ繧ｿ繧､繝ｫ-3,.繧ｰ繝ｩ繝輔ぅ繝け繧ｹ繧ｿ繧､繝ｫ-4{stroke:#000;}.cls-6,.cls-7,.繧ｰ繝ｩ繝輔ぅ繝け繧ｹ繧ｿ繧､繝ｫ,.繧ｰ繝ｩ繝輔ぅ繝け繧ｹ繧ｿ繧､繝ｫ-2,.繧ｰ繝ｩ繝輔ぅ繝け繧ｹ繧ｿ繧､繝ｫ-3{stroke-width:2px;}.cls-2,.cls-3,.cls-6,.cls-7,.繧ｰ繝ｩ繝輔ぅ繝け繧ｹ繧ｿ繧､繝ｫ{fill:none;}.cls-2,.cls-3{stroke-linecap:round;}.cls-2,.cls-3,.cls-6{stroke-linejoin:round;}.cls-2{stroke-width:1.43px;}.cls-3{stroke-width:1.83px;}.繧ｰ繝ｩ繝輔ぅ繝け繧ｹ繧ｿ繧､繝ｫ,.繧ｰ繝ｩ繝輔ぅ繝け繧ｹ繧ｿ繧､繝ｫ-3,.繧ｰ繝ｩ繝輔ぅ繝け繧ｹ繧ｿ繧､繝ｫ-4{stroke-miterlimit:10;}.繧ｰ繝ｩ繝輔ぅ繝け繧ｹ繧ｿ繧､繝ｫ-4{stroke-width:1.27px;}.cls-4{fill:#030201;}.cls-5{fill:#242323;}.cls-7{stroke-linejoin:bevel;}.cls-8{fill:#e83589;}</style></defs><title>kukakuzu</title><g id="レイヤー_2" data-name="レイヤー 2"><rect class="cls-1" width="700" height="500"/><polygon class="繧ｰ繝ｩ繝輔ぅ繝け繧ｹ繧ｿ繧､繝ｫ-2" points="576.48 176.92 161.84 182.38 170.31 377.37 585.55 351.55 576.48 176.92"/><polyline class="cls-2" points="225.31 59.01 225.31 47.26 232.22 59.01 232.22 47.26"/><circle class="cls-3" cx="220.78" cy="89.31" r="24.35"/><polygon points="217.9 102.66 227.53 111.93 225.78 66.09 205.29 107.13 217.9 102.66"/><path d="M134.47,222.68l.07,1.48-9,.41.13,2.63,7-.32.37,8.21c.06,1.19-.46,1.65-1.92,1.71-.84,0-1.69,0-2.53,0l-.34-1.55a19.14,19.14,0,0,0,2.49.09c.54,0,.66-.14.64-.63L131,228.4l-5.33.24.51,11.17-1.62.07-.51-11.16L119,229l.39,8.61-1.62.08-.46-10.06,6.68-.3-.12-2.64-8.86.41-.07-1.48,8.86-.41-.13-2.81,1.63-.08.13,2.82Z"/><path d="M121.11,257.6c1.74,1.59,3.68,2.14,7.14,2l8.08-.37a8,8,0,0,0-.43,1.48l-7.81.36c-3.6.12-5.63-.46-7.48-2.17a20,20,0,0,1-3.07,3.17l-1-1.42a19.46,19.46,0,0,0,3-2.51l-.25-5.51-3,.14-.06-1.4,4.61-.21Zm-1.35-10.22A21.14,21.14,0,0,0,116.6,244l1.08-1a21,21,0,0,1,3.24,3.21Zm2-1.18-.06-1.3,3.64-.17a12.76,12.76,0,0,0-1.4-1.91l1.41-.62a14.87,14.87,0,0,1,1.6,2.46l2.67-.12a19.92,19.92,0,0,0,1-2.62l1.65.33a16.31,16.31,0,0,1-1.08,2.22l3.85-.18.06,1.3-5.94.27c-.09.35-.38,1.23-.56,1.73l5.16-.23.48,10.48-10.47.48-.48-10.48,3.78-.18a13,13,0,0,0,.46-1.73Zm3.2,4.63,7.4-.34-.08-1.89-7.4.34Zm.14,3,7.4-.34-.08-1.87-7.41.34Zm.15,3.23,7.4-.34-.1-2-7.4.33Z"/><path d="M90.17,156.65a24.3,24.3,0,0,0-3.35-3l1-1.18a19.47,19.47,0,0,1,3.4,2.93Zm.5-5.28a21.87,21.87,0,0,0-3.27-3.06l1-1.12a18.92,18.92,0,0,1,3.35,2.92Zm-2.83,13.77a31.23,31.23,0,0,0,3.31-6.91l1.34,1a34.88,34.88,0,0,1-3.28,7.12Zm11.24-8.3,0,0a45.07,45.07,0,0,1-2.63,6.51l-.07.19,1.51-.19c1.52-.2,3.83-.55,5.65-.88-.68-1-1.48-2.12-2.31-3.17l1.27-.78a37.74,37.74,0,0,1,4.33,6.05l-1.42,1c-.51-.95-.74-1.35-1.12-1.95l-.2,0c-2.26.56-7.09,1.42-10.44,1.86L93,164l.82-.08.24,0,.56-.07a47.22,47.22,0,0,0,2.73-7l-5.18.24-.07-1.38,6.27-.28-.19-4.16-5.16.24L93,150.05l5.16-.23L98,146.5l1.6-.07.15,3.31,5.47-.25.07,1.42-5.47.25.19,4.15,6.54-.29.06,1.37-7.48.34Z"/><path d="M100,209.68l-1.58.07-.31-6.58a20.05,20.05,0,0,1-7.73,6.13l-1-1.28a20.13,20.13,0,0,0,7.39-5.18l-7.53.35-.06-1.38L98,201.4l-.1-2.24,1.58-.07.11,2.24,9-.41.07,1.38-7.61.35a21.58,21.58,0,0,0,7.93,4l-.94,1.49A20.82,20.82,0,0,1,99.66,203Zm4.77-17.86a19.08,19.08,0,0,1-4.54,4.52,28.56,28.56,0,0,0,7.93,2.07l-.78,1.43a31.69,31.69,0,0,1-8.5-2.55,29,29,0,0,1-8.48,3.54l-.88-1.24a27.06,27.06,0,0,0,8-3.07,25.86,25.86,0,0,1-3-2.46A17.24,17.24,0,0,1,91,196.43l-1.06-1a14.14,14.14,0,0,0,5.93-5.19l1.57.24c-.28.48-.36.57-.63,1l7-.32Zm-8.94.93c-.14.17-.2.21-.32.34a16.35,16.35,0,0,0,3.35,2.55,18.51,18.51,0,0,0,3.55-3.19Z"/><path d="M99,214.76a26.61,26.61,0,0,1-4,1.39l-.48-1.46a20,20,0,0,0,4.87-2.06l1.34-.06.77,17-1.85.08Z"/><path d="M95.55,245.6l.12,0,.08,0c.75-.29,1.7-.7,2.29-1l.23,1.46a57.33,57.33,0,0,1-6.53,2.73l-.65-1.56c1.14-.36,1.3-.41,2.39-.79l.49-.17-.44-9.66-2.67.12-.07-1.46,6.52-.3.07,1.46-2.25.11Zm13-9.27.5,11-9.87.45-.5-11,3.21-.15a17.43,17.43,0,0,0,.46-2.12l-5.14.23-.06-1.35,12.71-.58.06,1.35-6,.28a17.51,17.51,0,0,1-.6,2.13Zm-11.3,14.59a12.54,12.54,0,0,0,4.19-3l1.29.79a15.39,15.39,0,0,1-4.3,3.39Zm3-13,.09,2,6.81-.31-.09-2Zm.24,5.12,6.8-.31-.09-1.91-6.8.31Zm.15,3.31,6.8-.31-.09-2.11-6.81.31Zm8.92,5.08a27,27,0,0,0-4.25-2.9l1.09-1a27.56,27.56,0,0,1,4.32,2.65Z"/><path d="M100.91,256.92a27,27,0,0,1-4,1.39l-.48-1.46a20,20,0,0,0,4.87-2.06l1.34-.06.77,17-1.85.08Z"/><path d="M99.21,284.67c-.17.75-.39,1.46-.58,2.05l11.55-.53a19.81,19.81,0,0,1-.82,5.93c-.46,1.17-1.1,1.53-3,1.62-1.09.05-2.56.05-3.57,0l-.44-1.55c1.42.06,2.81.08,3.79,0s1.33-.22,1.59-.89a18.81,18.81,0,0,0,.61-3.68l-10.26.47c-.24.59-.5,1.2-.78,1.79l-1.69-.4a27.69,27.69,0,0,0,1.82-4.78L92.9,285l-.06-1.4,19.53-.89.06,1.4Zm10-3.73-13.43.61-.26-5.84L109,275.1Zm-11.82-.78,10.09-.46-.14-3.17-10.1.46Z"/><path d="M98.74,311.79c1.74,1.59,3.68,2.14,7.14,2l8.08-.37a8.34,8.34,0,0,0-.43,1.49l-7.81.35c-3.6.13-5.63-.46-7.48-2.17a19.63,19.63,0,0,1-3.07,3.17l-1-1.42a19.93,19.93,0,0,0,3-2.5L97,306.83l-3,.13-.06-1.39,4.61-.21Zm-1.35-10.22a21.58,21.58,0,0,0-3.16-3.36l1.08-1a20.57,20.57,0,0,1,3.24,3.22Zm2-1.18-.06-1.3,3.64-.16a13.36,13.36,0,0,0-1.4-1.92l1.41-.62a15.29,15.29,0,0,1,1.6,2.46l2.67-.12a19.39,19.39,0,0,0,1-2.62l1.65.34a16.77,16.77,0,0,1-1.08,2.21l3.85-.18.06,1.3-5.94.27c-.09.36-.38,1.23-.56,1.74l5.16-.24.48,10.49-10.47.48L100.89,302l3.78-.17a13.43,13.43,0,0,0,.46-1.73Zm3.2,4.63,7.41-.33-.09-1.9-7.4.34Zm.14,3,7.4-.34L110,305.8l-7.41.33Zm.15,3.22,7.4-.33-.1-2.06-7.4.34Z"/><path d="M102.71,325.71l-2.65.12.15,3.25,2.67-.13.07,1.36-2.68.12.2,4.3c.55-.17,2.09-.69,3.1-1.07l.21,1.33a72.14,72.14,0,0,1-8,2.68l-.6-1.44,1.08-.28-.37-8,1.4-.06.35,7.71.51-.14.49-.15.43-.12-.43-9.28-3,.14-.3-6.68,7.07-.33ZM97,324.63l4.15-.19-.18-4-4.15.19Zm15.55-4.75a17.34,17.34,0,0,1-2.8,5.09,16.89,16.89,0,0,0,4.84,2.64l-.72,1.4a17.82,17.82,0,0,1-5.06-3,17.15,17.15,0,0,1-5.17,3.64l-.88-1.24a13.53,13.53,0,0,0,5-3.38,14.89,14.89,0,0,1-2-2.52l-.07.1,0,.07a12.43,12.43,0,0,1-1.73,1.95l-1-1a12.4,12.4,0,0,0,3.51-5.63l1.53.18c-.2.55-.25.71-.4,1.07l4-.18Zm.71,17.38-1.5.07-.06-1.22-5.24.24,0,1.22-1.5.06-.37-8.1,8.25-.37ZM106.44,335l5.24-.23-.19-4.16-5.24.24Zm.09-13.62A13.2,13.2,0,0,0,108.7,324a14.2,14.2,0,0,0,2.06-3.57l-3.83.17c-.07.15-.15.3-.32.61Z"/><path d="M92.67,169.15l.51,11.12,3.19-.14.07,1.58-3.18.14.18,4.05-1.81.09-.19-4.05-8.47.38-.07-1.56,7.51-11.51Zm-1.57,5.28c0-.94-.07-2.55-.06-3.56H91a21.92,21.92,0,0,1-1.38,2.68L85,180.64l6.37-.29Z"/><path d="M98.41,184.05c.43-2.22,2.14-4.51,4.83-6.49l.52-.37c2.79-2,3.51-2.94,3.44-4.44-.07-1.69-1.52-2.76-3.64-2.66a5.14,5.14,0,0,0-4.16,2.4l-1.34-1a6.61,6.61,0,0,1,5.51-3c3.2-.14,5.63,1.64,5.75,4.25.1,2.08-.66,3.08-4.23,5.59l-.72.51c-2.38,1.72-3.84,3.56-4,5l9.64-.44.08,1.75-11.66.53Z"/><path d="M604.86,219.16a24.3,24.3,0,0,0-3.35-3l1-1.19a19.23,19.23,0,0,1,3.41,2.94Zm.5-5.28a22.45,22.45,0,0,0-3.27-3.07l1-1.12a19.28,19.28,0,0,1,3.34,2.92Zm-2.83,13.77a31.45,31.45,0,0,0,3.31-6.91l1.34.95a35,35,0,0,1-3.28,7.11Zm11.24-8.3,0,0a46.73,46.73,0,0,1-2.63,6.51l-.07.18,1.51-.19c1.52-.19,3.83-.54,5.65-.87-.69-1-1.48-2.12-2.31-3.17l1.26-.78a37.17,37.17,0,0,1,4.34,6l-1.42,1c-.52-.94-.74-1.34-1.12-1.94l-.2.05c-2.26.55-7.09,1.41-10.45,1.85l-.6-1.6.82-.07.24,0,.56-.06a48.81,48.81,0,0,0,2.73-7l-5.18.24-.07-1.38,6.27-.29-.19-4.15-5.16.24-.06-1.42,5.16-.24-.15-3.31,1.6-.07.15,3.31,5.47-.25.07,1.42-5.47.25.19,4.15,6.54-.3.06,1.38-7.49.34Z"/><path d="M612.87,235.4c-.06.85-.07,1-.19,2,0,.06.13.14.22.24a25.18,25.18,0,0,0,2.62,2.35l-.37-8.06,1.62-.07.43,9.33a22.39,22.39,0,0,0,5.39,2.52l-.9,1.56a24.16,24.16,0,0,1-4.4-2.21l.38,8.33-1.63.07-.43-9.54a23.56,23.56,0,0,1-3.18-2.82A18,18,0,0,1,605,251.52l-1.23-1.16a16.77,16.77,0,0,0,5.65-6.71,22,22,0,0,0-3.63-2.73,15.77,15.77,0,0,1-1.92,2.68l-1.12-1.21c2.12-2.34,3.43-5.51,4.14-10l1.57.17c-.16,1.08-.26,1.56-.41,2.29l3.91-.18Zm-5.15.92a22.32,22.32,0,0,1-1.23,3.31,30.14,30.14,0,0,1,3.6,2.45,25.26,25.26,0,0,0,1.15-5.92Z"/><path d="M608.51,270.63c1.61,1.54,3.6,2.13,7,2l8.43-.38a6.14,6.14,0,0,0-.46,1.46l-7.92.36c-3.66.13-5.9-.55-7.65-2.31a18.3,18.3,0,0,1-2.81,3.31l-.91-1.43a27.93,27.93,0,0,0,2.78-2.62l-.24-5.36-2.86.13-.07-1.4,4.42-.2Zm-1.27-10.14a22.42,22.42,0,0,0-3.1-3.46l1.08-1a20.58,20.58,0,0,1,3.2,3.29Zm14.49-.76.47,10.11c0,1.11-.31,1.5-1.44,1.55a18.85,18.85,0,0,1-2.1,0l-.31-1.3a11.72,11.72,0,0,0,1.86.06c.43,0,.49-.09.47-.54l-.1-2.16-3.68.17.17,3.66-1.44.07-.17-3.66-3.56.16.18,3.91-1.5.07-.53-11.54,5.51-.25c-1.16-.57-2.37-1.11-3.65-1.61l.92-.88c1.18.48,1.75.72,2.82,1.23a29.39,29.39,0,0,0,2.82-1.8l-8.47.39-.06-1.28,10.35-.47.88.82a27.16,27.16,0,0,1-4.34,2.92l.26.16c.48.24.52.26.78.41Zm-10,3.67,3.56-.16-.09-2-3.56.16Zm.15,3.23,3.56-.17-.1-2-3.56.16Zm4.85-3.46,3.68-.17-.09-2-3.68.17Zm3.73,1-3.68.17.09,2.06,3.69-.17Z"/><path d="M612.72,285.79l-2.65.13.15,3.24,2.67-.12.07,1.36-2.68.12.2,4.3c.55-.17,2.09-.69,3.1-1.07l.21,1.33a72.13,72.13,0,0,1-8,2.67l-.6-1.43,1.08-.28-.37-8,1.4-.06.35,7.71.51-.15.49-.14.43-.13-.43-9.27-3,.14-.3-6.68,7.07-.33Zm-5.67-1.08,4.15-.19-.18-4-4.15.19ZM622.6,280a17.6,17.6,0,0,1-2.8,5.09,16.89,16.89,0,0,0,4.84,2.64l-.72,1.4a17.82,17.82,0,0,1-5.06-3,17.15,17.15,0,0,1-5.17,3.64l-.88-1.24a13.53,13.53,0,0,0,5-3.38,14.57,14.57,0,0,1-2-2.53l-.07.11,0,.06a13,13,0,0,1-1.73,2l-1-1.05a12.32,12.32,0,0,0,3.51-5.62l1.53.18c-.2.54-.25.71-.4,1.07l4-.18Zm.71,17.38-1.5.06-.06-1.21-5.24.24,0,1.21-1.5.07-.37-8.1,8.25-.38Zm-6.86-2.27,5.24-.24-.19-4.15-5.24.24Zm.09-13.62a13.2,13.2,0,0,0,2.17,2.66,14.09,14.09,0,0,0,2.06-3.58l-3.83.18c-.07.15-.15.29-.32.61Z"/><path d="M101.1,389.14l.5,10.27,2.94-.15.07,1.46-2.94.15.19,3.73-1.67.09L100,401l-7.82.38-.07-1.44L99,389.24ZM99.66,394c0-.87-.08-2.35-.07-3.28h-.07a19.64,19.64,0,0,1-1.27,2.48l-4.2,6.56,5.88-.29Z"/><path d="M108.65,401.55l.13,2.72-2.71.13-.14-2.71Z"/><path d="M119.18,388.25l.5,10.27,2.94-.15.07,1.46-2.94.15.19,3.74-1.67.08-.19-3.74-7.82.38-.07-1.44,6.9-10.64Zm-1.44,4.89c0-.88-.08-2.36-.06-3.29h-.08a19.64,19.64,0,0,1-1.27,2.48l-4.2,6.56,5.88-.29Z"/><path d="M135.12,387.57l.06,1.27a49.73,49.73,0,0,0-4.45,14.35l-1.78.08a59.4,59.4,0,0,1,4.25-14.09l-7.4.37.17,3.54-1.65.08-.25-5.06Z"/><path d="M148.43,394.61c.25,4.94-1.79,8.08-5.3,8.25s-5.84-2.77-6.08-7.69,1.79-8.07,5.32-8.25S148.19,389.7,148.43,394.61Zm-9.52.47c.2,4,1.78,6.38,4.17,6.26s3.69-2.65,3.5-6.63-1.78-6.4-4.17-6.29S138.71,391.1,138.91,395.08Z"/><rect class="繧ｰ繝ｩ繝輔ぅ繝け繧ｹ繧ｿ繧､繝ｫ-3" x="298.33" y="204.54" width="216.66" height="136.27"/><rect class="繧ｰ繝ｩ繝輔ぅ繝け繧ｹ繧ｿ繧､繝ｫ-4" x="274.57" y="221.52" width="40.74" height="6.78" transform="translate(70.03 519.86) rotate(-90)"/><rect class="繧ｰ繝ｩ繝輔ぅ繝け繧ｹ繧ｿ繧､繝ｫ-4" x="267.79" y="221.52" width="40.74" height="6.78" transform="translate(63.25 513.08) rotate(-90)"/><rect class="繧ｰ繝ｩ繝輔ぅ繝け繧ｹ繧ｿ繧､繝ｫ-4" x="287.9" y="214.98" width="40.74" height="19.87" transform="translate(83.36 533.18) rotate(-90)"/><polygon points="316.54 225.45 304.89 217.45 304.89 233.46 316.54 225.45"/><path class="cls-1" d="M271.64,261.37a68.67,68.67,0,0,1,0,16.95c-.88,6.5-7.89,11.37-14.3,11q-31.45-1.5-62.93,0c-6.08.34-12.74-4.29-13.61-10.46a67.12,67.12,0,0,1,0-18.13c.87-6.18,7.53-10.8,13.61-10.46q31.47,1.52,62.93,0C263.75,250,270.76,254.86,271.64,261.37Z"/><path class="cls-4" d="M272.4,269.84a69,69,0,0,1-.53,8.5c-.85,6.36-7.65,11.6-14.54,11.22-20.87-1-42-1-62.91,0-6.52.36-13-4.62-13.85-10.65a68.39,68.39,0,0,1,0-18.19c.86-6,7.34-11,13.87-10.65,20.87,1,42,1,62.9,0,6.89-.38,13.69,4.86,14.54,11.21h0A69,69,0,0,1,272.4,269.84Zm-92,0a66.75,66.75,0,0,0,.61,9c.82,5.82,7.07,10.62,13.37,10.27,20.89-1,42.07-1,63,0,6.67.37,13.23-4.69,14-10.83a67.23,67.23,0,0,0,0-16.89c-.82-6.14-7.38-11.2-14-10.84-20.89,1-42.07,1-63,0-6.3-.35-12.55,4.45-13.37,10.27A66.75,66.75,0,0,0,180.42,269.84Z"/><path class="cls-5" d="M259.83,256.33v27l1-.11V256.44Z"/><path class="cls-4" d="M249.54,253.57l-.86.24a91.06,91.06,0,0,1-22.9,2.6c-.94,0-1.91,0-2.87,0h-.06l-10.26-4.1.81,0c2.38-.05,4.74-.08,7-.08,9.69,0,19.2.44,28.24,1.33ZM223,256c.94,0,1.89,0,2.82,0a92.64,92.64,0,0,0,21.92-2.36c-8.76-.82-17.94-1.23-27.29-1.23-2,0-4.09,0-6.2.06Z"/><path class="cls-4" d="M249.54,286.11l-.89.09c-9,.88-18.55,1.33-28.24,1.33-2.25,0-4.61,0-7-.08l-.81,0,10.32-4.12,2.87,0a90.6,90.6,0,0,1,22.9,2.6Zm-35.33,1c2.12.05,4.2.07,6.2.07,9.35,0,18.53-.42,27.29-1.24a92.68,92.68,0,0,0-21.92-2.35l-2.82,0Z"/><path class="cls-1" d="M210.62,252.55H195.53c-8.86,0-16.1,6.8-16.1,15.12V272c0,8.31,7.24,15.12,16.1,15.12h15.09a72.94,72.94,0,0,1,0-34.59Z"/><path d="M210.84,252.38l-.05.2a70.92,70.92,0,0,0-2.07,17.26v.23a71.55,71.55,0,0,0,2.07,17l.05.2H195.53c-9,0-16.28-6.85-16.28-15.28v-4.35c0-8.43,7.3-15.29,16.28-15.29ZM179.6,272c0,8.24,7.15,15,15.93,15H210.4a72.13,72.13,0,0,1-2-16.91v-.46a72,72,0,0,1,2-16.9H195.53c-8.78,0-15.93,6.71-15.93,15Z"/><path class="cls-1" d="M246,257.34a78.24,78.24,0,0,0,0,25,41.1,41.1,0,0,0,13.89,1.07V256.28A41.1,41.1,0,0,0,246,257.34Z"/><path d="M260,256.13v27.43h-.16a41.45,41.45,0,0,1-14-1.07l-.11,0,0-.1a78.55,78.55,0,0,1,0-25.05l0-.11.11,0a40.93,40.93,0,0,1,14-1.07Zm-.35,27.13V256.43a41,41,0,0,0-13.56,1,78.36,78.36,0,0,0,0,24.74A41,41,0,0,0,259.67,283.26Z"/><path class="cls-5" d="M259.84,256.28v27.13l1-.11V256.39Z"/><path class="cls-1" d="M260.85,283.3h7.24a30.75,30.75,0,0,0,0-26.91h-7.24Z"/><path d="M271.36,269.84a28.12,28.12,0,0,1-3.11,13.53l-.05.09h-7.52V256.22h7.52l.05.09A28.12,28.12,0,0,1,271.36,269.84ZM268,283.13a30.75,30.75,0,0,0,0-26.58h-7v26.58Z"/><path class="cls-5" d="M210.53,252.66l-1-.34a62.16,62.16,0,0,0,0,35l1-.33A62,62,0,0,1,210.53,252.66Z"/><path class="cls-1" d="M210.48,286.55l12.23-4.21v-25l-12.23-4.2A60.43,60.43,0,0,0,210.48,286.55Z"/><path d="M222.89,257.23v25.23l-12.53,4.3-.05-.17a60.52,60.52,0,0,1,0-33.49l.05-.18Zm-.35,25V257.46l-11.94-4.11a60.2,60.2,0,0,0,0,33Z"/><path class="cls-4" d="M268.09,256.44v-.17a3.85,3.85,0,0,0-3.94-3.71h-.29A9.28,9.28,0,0,1,268.09,256.44Z"/><path class="cls-4" d="M268.09,283.25v.17a3.84,3.84,0,0,1-3.94,3.7h-.29A9.32,9.32,0,0,0,268.09,283.25Z"/><path class="cls-1" d="M220.19,247.94a1.66,1.66,0,0,0-1.41.27l-2.78,3a.48.48,0,0,0-.08.16h2.58l2-3.36Z"/><path class="cls-4" d="M220.78,247.91l-2.18,3.64h-2.9l.05-.2a.47.47,0,0,1,.12-.23l2.77-3a1.85,1.85,0,0,1,1.59-.32Zm-2.38,3.31,1.84-3.09-.09,0a1.52,1.52,0,0,0-1.24.21l-2.67,2.91Z"/><path class="cls-1" d="M220.19,291.74a1.66,1.66,0,0,1-1.41-.26l-2.78-3a.35.35,0,0,1-.08-.16h2.58l2,3.37Z"/><path class="cls-4" d="M220.78,291.78l-.55.12a1.85,1.85,0,0,1-1.59-.31l-2.77-3a.46.46,0,0,1-.12-.24l-.05-.19h2.9Zm-4.54-3.31,2.67,2.9a1.52,1.52,0,0,0,1.24.21l.09,0-1.84-3.09Z"/><path class="cls-4" d="M201.31,260.94c-5.79,0-10.88,1-13.83,2.42a38.23,38.23,0,0,1,12.25-1.76,46.94,46.94,0,0,1,6.61.45v-.86C204.75,261,203.06,260.94,201.31,260.94Z"/><path class="cls-4" d="M201.31,278.75c-5.79,0-10.88-1-13.83-2.43a38.23,38.23,0,0,0,12.25,1.76,48.55,48.55,0,0,0,6.61-.44v.85A47.51,47.51,0,0,1,201.31,278.75Z"/><rect class="cls-1" x="221.84" y="258.22" width="25" height="23.24" transform="translate(-35.51 504.18) rotate(-90)"/><path d="M246.13,257.18v25.33H222.54V257.18Zm-.35,25V257.51H222.89v24.67Z"/><path class="cls-1" d="M271.64,318.85a68.67,68.67,0,0,1,0,16.95c-.88,6.51-7.89,11.37-14.3,11q-31.45-1.5-62.93,0c-6.08.34-12.74-4.28-13.61-10.46a67.12,67.12,0,0,1,0-18.13c.87-6.18,7.53-10.8,13.61-10.46q31.47,1.51,62.93,0C263.75,307.47,270.76,312.34,271.64,318.85Z"/><path class="cls-4" d="M272.4,327.32a69,69,0,0,1-.53,8.5c-.85,6.36-7.65,11.6-14.54,11.22-20.87-1-42-1-62.91,0-6.52.36-13-4.62-13.85-10.65a68.39,68.39,0,0,1,0-18.19c.86-6,7.34-11,13.87-10.65,20.87,1,42,1,62.9,0,6.89-.38,13.69,4.86,14.54,11.21h0A69,69,0,0,1,272.4,327.32Zm-92,0a66.75,66.75,0,0,0,.61,9c.82,5.82,7.07,10.62,13.37,10.27,20.89-1,42.07-1,63,0,6.67.37,13.23-4.69,14-10.83a67.23,67.23,0,0,0,0-16.89c-.82-6.14-7.38-11.2-14-10.84-20.89,1-42.07,1-63,0-6.3-.34-12.55,4.46-13.37,10.28A66.5,66.5,0,0,0,180.42,327.32Z"/><path class="cls-5" d="M259.83,313.81v27l1-.11V313.92Z"/><path class="cls-4" d="M249.54,311.05l-.86.24a91.06,91.06,0,0,1-22.9,2.6c-.94,0-1.91,0-2.87,0h-.06l-10.26-4.1.81,0c2.38-.05,4.74-.08,7-.08,9.69,0,19.2.45,28.24,1.33ZM223,313.52c.94,0,1.89,0,2.82,0a92.68,92.68,0,0,0,21.92-2.35c-8.76-.83-17.94-1.24-27.29-1.24-2,0-4.09,0-6.2.06Z"/><path class="cls-4" d="M249.54,343.6l-.89.08c-9,.88-18.55,1.33-28.24,1.33-2.25,0-4.61,0-7-.08l-.81,0,10.32-4.11c1,0,1.93,0,2.87,0a90.6,90.6,0,0,1,22.9,2.6Zm-35.33,1c2.12,0,4.2.06,6.2.06,9.35,0,18.53-.42,27.29-1.24a92.68,92.68,0,0,0-21.92-2.35l-2.82,0Z"/><path class="cls-1" d="M210.62,310H195.53c-8.86,0-16.1,6.8-16.1,15.12v4.35c0,8.32,7.24,15.12,16.1,15.12h15.09a72.94,72.94,0,0,1,0-34.59Z"/><path d="M210.84,309.86l-.05.2a71,71,0,0,0-2.07,17.26v.23a71.49,71.49,0,0,0,2.07,17l.05.21H195.53c-9,0-16.28-6.86-16.28-15.29v-4.35c0-8.43,7.3-15.29,16.28-15.29ZM179.6,329.5c0,8.25,7.15,15,15.93,15H210.4a72.13,72.13,0,0,1-2-16.91v-.45a72.07,72.07,0,0,1,2-16.91H195.53c-8.78,0-15.93,6.71-15.93,15Z"/><path class="cls-1" d="M246,314.83a78.18,78.18,0,0,0,0,25,40.85,40.85,0,0,0,13.89,1.07V313.76A40.85,40.85,0,0,0,246,314.83Z"/><path d="M260,313.61V341h-.16a41.45,41.45,0,0,1-14-1.07l-.11,0,0-.1a78.55,78.55,0,0,1,0-25.05l0-.11.11,0a40.93,40.93,0,0,1,14-1.07Zm-.35,27.13V313.91a41,41,0,0,0-13.56,1,78.3,78.3,0,0,0,0,24.73A41,41,0,0,0,259.67,340.74Z"/><path class="cls-5" d="M259.84,313.76v27.13l1-.11V313.87Z"/><path class="cls-1" d="M260.85,340.78h7.24a30.75,30.75,0,0,0,0-26.91h-7.24Z"/><path d="M271.36,327.32a28.19,28.19,0,0,1-3.11,13.54l-.05.08h-7.52V313.71h7.52l.05.08A28.15,28.15,0,0,1,271.36,327.32ZM268,340.61A30.75,30.75,0,0,0,268,314h-7v26.58Z"/><path class="cls-5" d="M210.53,310.14l-1-.34a62.16,62.16,0,0,0,0,35l1-.33A62,62,0,0,1,210.53,310.14Z"/><path class="cls-1" d="M210.48,344l12.23-4.21v-25l-12.23-4.21A60.43,60.43,0,0,0,210.48,344Z"/><path d="M222.89,314.71v25.23l-12.53,4.3-.05-.17a60.52,60.52,0,0,1,0-33.49l.05-.17Zm-.35,25V314.94l-11.94-4.1a60.16,60.16,0,0,0,0,33Z"/><path class="cls-4" d="M268.09,313.92v-.17a3.84,3.84,0,0,0-3.94-3.7h-.29A9.32,9.32,0,0,1,268.09,313.92Z"/><path class="cls-4" d="M268.09,340.73v.17a3.84,3.84,0,0,1-3.94,3.7h-.29A9.32,9.32,0,0,0,268.09,340.73Z"/><path class="cls-1" d="M220.19,305.43a1.63,1.63,0,0,0-1.41.26l-2.78,3a.37.37,0,0,0-.08.15h2.58l2-3.36Z"/><path class="cls-4" d="M220.78,305.39,218.6,309h-2.9l.05-.2a.47.47,0,0,1,.12-.23l2.77-3a1.82,1.82,0,0,1,1.59-.31Zm-2.38,3.31,1.84-3.09-.09,0a1.49,1.49,0,0,0-1.24.2l-2.67,2.91Z"/><path class="cls-1" d="M220.19,349.22a1.66,1.66,0,0,1-1.41-.26l-2.78-3a.35.35,0,0,1-.08-.16h2.58l2,3.37Z"/><path class="cls-4" d="M220.78,349.26l-.55.12a1.82,1.82,0,0,1-1.59-.31l-2.77-3a.47.47,0,0,1-.12-.23l-.05-.2h2.9ZM216.24,346l2.67,2.9a1.48,1.48,0,0,0,1.24.21l.09,0L218.4,346Z"/><path class="cls-4" d="M201.31,318.42c-5.79,0-10.88,1-13.83,2.43a37.92,37.92,0,0,1,12.25-1.77,46.94,46.94,0,0,1,6.61.45v-.86C204.75,318.51,203.06,318.42,201.31,318.42Z"/><path class="cls-4" d="M201.31,336.23c-5.79,0-10.88-1-13.83-2.43a37.92,37.92,0,0,0,12.25,1.77,46.94,46.94,0,0,0,6.61-.45V336A47.51,47.51,0,0,1,201.31,336.23Z"/><rect class="cls-1" x="221.84" y="315.7" width="25" height="23.24" transform="translate(-92.99 561.66) rotate(-90)"/><path d="M246.13,314.66V340H222.54V314.66Zm-.35,25V315H222.89v24.67Z"/><path d="M353.94,262.84a62.65,62.65,0,0,1-10,3.1l-1.14-3.87c4.76-1,10.08-2.95,12.51-4.6h3.46V300.1h-4.8Z"/><path d="M386.6,279.79a53.38,53.38,0,0,1-1.71,5.07h29.05c-.41,6.3-1.45,11.94-2.74,14.78s-2.95,3.72-7.6,3.72c-2.74,0-6.41-.16-8.94-.36l-.93-3.93c3.57.31,7,.52,9.51.52s3.36-.42,4.08-2.07a48.14,48.14,0,0,0,2-9.15H383.5c-.67,1.45-1.4,2.95-2.17,4.39l-4.19-1.18a70.66,70.66,0,0,0,5.12-11.79H370.73v-3.51h49.1v3.51Zm25.53-8.22H378.38V256.9h33.75Zm-29.56-3.3h25.37v-8H382.57Z"/><path d="M433.16,278.09a61.17,61.17,0,0,1-6.25,14L425,288a58.41,58.41,0,0,0,7.8-18.66h-7.08v-3.62h7.44V254.62H437v11.06h5.37v3.62H437v4.81a60.19,60.19,0,0,1,6.35,6l-2.17,3.47a57.3,57.3,0,0,0-4.18-5.33v25.43h-3.83ZM462,285.27A38.57,38.57,0,0,0,475.18,297l-2.43,3.62a42.32,42.32,0,0,1-13.33-13.23v16.38h-3.67V287.65a39.89,39.89,0,0,1-13.28,13.64l-2.59-3.15a36.67,36.67,0,0,0,13.54-12.87h-9.56v-18.4h11.89v-3.82H441.17v-3.36h14.58v-5.07h3.67v5.07H474.3v3.36H459.42v3.82h12.25v18.4ZM447.53,270v4.4h8.22V270Zm0,7.55v4.5h8.22v-4.5Zm11.89-3.15h8.63V270h-8.63Zm0,7.65h8.63v-4.5h-8.63Z"/><line class="cls-6" x1="52.78" y1="127.43" x2="69.67" y2="436.04"/><line class="繧ｰ繝ｩ繝輔ぅ繝け繧ｹ繧ｿ繧､繝ｫ" x1="159.44" y1="127.43" x2="172.78" y2="433.41"/><line class="繧ｰ繝ｩ繝輔ぅ繝け繧ｹ繧ｿ繧､繝ｫ" x1="573.67" y1="122.7" x2="588.78" y2="413.68"/><line class="繧ｰ繝ｩ繝輔ぅ繝け繧ｹ繧ｿ繧､繝ｫ" x1="639.44" y1="119.83" x2="653.67" y2="413.68"/><polyline class="cls-7" points="77.22 389.96 66.68 381.53 170.31 377.37 158.85 368.92"/><rect class="cls-8" x="98.84" y="32.7" width="39.3" height="95.53" transform="translate(38.03 198.96) rotate(-90)"/><path class="cls-1" d="M88,86.31h15.55V88.4H88v1.41H85.64V71.25H103v2H88ZM88.64,84a19.2,19.2,0,0,0,5.42-4,52.79,52.79,0,0,0-4.83-3.52l1.41-1.58c1.72,1.08,3.21,2.14,4.85,3.4a27.37,27.37,0,0,0,2.69-4.44l2.1,1a31.62,31.62,0,0,1-3,4.85c1.16,1,2.7,2.32,4.25,3.8l-1.64,1.72c-1.34-1.35-2.86-2.74-4.08-3.8A20.91,20.91,0,0,1,90,85.75Z"/><path class="cls-1" d="M117.12,73.08h-8.69V71.21h19.7v1.87h-8.81v2h4.44V85.42h-11V75.07h4.33Zm8.21,13.68V75.07h2.12V89.81h-2.12V88.67H111.21v1.14h-2.09V75.07h2.09V86.76Zm-10.57-10v2.51h2.45V76.77Zm0,4.1v2.8h2.45v-2.8Zm4.48-1.59h2.55V76.77h-2.55Zm0,4.39h2.55v-2.8h-2.55Z"/><path class="cls-1" d="M151.32,89.81h-2.26V88.75H135.63v1.06h-2.24V71.07h17.93Zm-15.69-3h13.43V73H135.63Zm11.5-.9c-1.3-.81-2.84-1.68-4.23-2.38a17.63,17.63,0,0,1-5.37,3L136.25,85a13.56,13.56,0,0,0,4.66-2.45l-.54-.25c-1.34-.66-2.34-1.09-4.1-1.82l.93-1.54c2.1.77,3.3,1.25,5.29,2.18a17.5,17.5,0,0,0,3.86-7l2,.62A23.57,23.57,0,0,1,144.42,82l.18.1c1,.52,2.18,1.14,3.76,2.07Zm-8.73-6.78a18.87,18.87,0,0,0-1.65-4.06l1.9-.77a20.2,20.2,0,0,1,1.72,4Zm3.57-.81a24.27,24.27,0,0,0-1.68-4.08l1.83-.73a19.28,19.28,0,0,1,1.72,4Z"/></g></svg>