<svg xmlns="http://www.w3.org/2000/svg" width="700" height="500" viewBox="0 0 700 500"><defs><style>.cls-1,.繧ｰ繝ｩ繝輔ぅ繝け繧ｹ繧ｿ繧､繝ｫ-3,.繧ｰ繝ｩ繝輔ぅ繝け繧ｹ繧ｿ繧､繝ｫ-4{fill:#fff;}.cls-2,.cls-3,.cls-7,.繧ｰ繝ｩ繝輔ぅ繝け繧ｹ繧ｿ繧､繝ｫ,.繧ｰ繝ｩ繝輔ぅ繝け繧ｹ繧ｿ繧､繝ｫ-7,.繧ｰ繝ｩ繝輔ぅ繝け繧ｹ繧ｿ繧､繝ｫ-9{fill:none;}.cls-2,.cls-3,.繧ｰ繝ｩ繝輔ぅ繝け繧ｹ繧ｿ繧､繝ｫ,.繧ｰ繝ｩ繝輔ぅ繝け繧ｹ繧ｿ繧､繝ｫ-2,.繧ｰ繝ｩ繝輔ぅ繝け繧ｹ繧ｿ繧､繝ｫ-3,.繧ｰ繝ｩ繝輔ぅ繝け繧ｹ繧ｿ繧､繝ｫ-4,.繧ｰ繝ｩ繝輔ぅ繝け繧ｹ繧ｿ繧､繝ｫ-7,.繧ｰ繝ｩ繝輔ぅ繝け繧ｹ繧ｿ繧､繝ｫ-9{stroke:#000;}.cls-2,.cls-3{stroke-linecap:round;}.cls-2,.cls-3,.cls-7{stroke-linejoin:round;}.cls-2{stroke-width:1.43px;}.cls-3{stroke-width:1.83px;}.cls-4{fill:#e83589;}.繧ｰ繝ｩ繝輔ぅ繝け繧ｹ繧ｿ繧､繝ｫ-7{stroke-linejoin:bevel;stroke-width:1.5px;}.繧ｰ繝ｩ繝輔ぅ繝け繧ｹ繧ｿ繧､繝ｫ-2{fill:#d8eacc;}.繧ｰ繝ｩ繝輔ぅ繝け繧ｹ繧ｿ繧､繝ｫ,.繧ｰ繝ｩ繝輔ぅ繝け繧ｹ繧ｿ繧､繝ｫ-2,.繧ｰ繝ｩ繝輔ぅ繝け繧ｹ繧ｿ繧､繝ｫ-3{stroke-width:2px;}.繧ｰ繝ｩ繝輔ぅ繝け繧ｹ繧ｿ繧､繝ｫ,.繧ｰ繝ｩ繝輔ぅ繝け繧ｹ繧ｿ繧､繝ｫ-3,.繧ｰ繝ｩ繝輔ぅ繝け繧ｹ繧ｿ繧､繝ｫ-4,.繧ｰ繝ｩ繝輔ぅ繝け繧ｹ繧ｿ繧､繝ｫ-9{stroke-miterlimit:10;}.繧ｰ繝ｩ繝輔ぅ繝け繧ｹ繧ｿ繧､繝ｫ-4{stroke-width:1.27px;}.cls-5{fill:#030201;}.cls-6{fill:#242323;}.繧ｰ繝ｩ繝輔ぅ繝け繧ｹ繧ｿ繧､繝ｫ-9{stroke-dasharray:5;}.cls-7{stroke:#fff;stroke-width:3px;}</style></defs><title>kukakuzu</title><g id="レイヤー_2" data-name="レイヤー 2"><rect class="cls-1" width="700" height="500"/><polyline class="cls-2" points="276.29 84.48 276.29 72.74 283.19 84.48 283.19 72.74"/><circle class="cls-3" cx="247.27" cy="85.74" r="24.35"/><polygon points="233.87 88.4 229.19 100.92 270.57 81.12 224.76 78.61 233.87 88.4"/><rect class="cls-4" x="109.72" y="36.18" width="39.3" height="95.53" transform="translate(45.42 213.32) rotate(-90)"/><path class="cls-1" d="M98.83,89.79h15.56v2.1H98.83V93.3H96.51V74.74h17.34v2h-15Zm.69-2.34a19.49,19.49,0,0,0,5.41-4,52.78,52.78,0,0,0-4.83-3.53l1.41-1.58a58.2,58.2,0,0,1,4.85,3.41,26.71,26.71,0,0,0,2.7-4.44l2.09,1a30.53,30.53,0,0,1-3,4.86c1.17,1,2.7,2.32,4.26,3.79l-1.64,1.72c-1.35-1.35-2.86-2.73-4.09-3.79a21,21,0,0,1-5.76,4.35Z"/><path class="cls-1" d="M128,76.56h-8.68V74.7H139v1.86h-8.82v2h4.44V88.9h-11V78.55H128Zm8.22,13.69V78.55h2.11V93.3h-2.11V92.16H122.09V93.3H120V78.55h2.1v11.7Zm-10.58-10v2.51h2.45V80.25Zm0,4.11v2.8h2.45v-2.8Zm4.48-1.6h2.55V80.25h-2.55Zm0,4.4h2.55v-2.8h-2.55Z"/><path class="cls-1" d="M162.2,93.3h-2.26V92.24H146.5V93.3h-2.24V74.55H162.2Zm-15.7-3h13.44V76.44H146.5ZM158,89.4c-1.31-.81-2.84-1.68-4.23-2.39a17.66,17.66,0,0,1-5.37,3l-1.29-1.56A13.5,13.5,0,0,0,151.79,86l-.54-.25c-1.35-.67-2.35-1.1-4.11-1.83l.93-1.53a54.85,54.85,0,0,1,5.29,2.18,17.63,17.63,0,0,0,3.86-7l2,.62a23.43,23.43,0,0,1-3.94,7.34l.19.1c1,.52,2.17,1.14,3.75,2.08Zm-8.73-6.78a19.26,19.26,0,0,0-1.66-4.07l1.91-.76a21.15,21.15,0,0,1,1.72,4Zm3.56-.81a22.52,22.52,0,0,0-1.68-4.09L153,77a18.69,18.69,0,0,1,1.72,4Z"/><polyline class="繧ｰ繝ｩ繝輔ぅ繝け繧ｹ繧ｿ繧､繝ｫ-7" points="214.23 195.67 222.43 186.19 81.6 193.85 92.37 182.91"/><polyline class="繧ｰ繝ｩ繝輔ぅ繝け繧ｹ繧ｿ繧､繝ｫ-7" points="226.16 408.36 234.36 398.88 53.69 398.92 64.46 387.98"/><path d="M115.87,210.72a24,24,0,0,1-3.8,1.45l-.53-1.47a15.83,15.83,0,0,0,4.71-2.09l1.34-.09L118.66,225l-1.86.12Z"/><path d="M134.84,215.82c.34,5.19-1.75,8.53-5.44,8.78s-6.2-2.83-6.54-8,1.75-8.53,5.47-8.77S134.5,210.65,134.84,215.82Zm-10,.65c.27,4.2,2,6.69,4.49,6.53s3.85-2.86,3.57-7.05-2-6.71-4.49-6.54S124.55,212.28,124.82,216.47Z"/><path d="M140.83,220.69l.18,2.85-2.85.19-.19-2.86Z"/><path d="M154.29,206.44l.09,1.34A52.55,52.55,0,0,0,149.93,223l-1.87.12a63,63,0,0,1,4.24-14.91l-7.78.51.24,3.73-1.74.11-.35-5.32Z"/><path d="M166.59,213.76a4.8,4.8,0,0,1-4.17,3,5.11,5.11,0,0,1-5.56-5,6.12,6.12,0,0,1,1.37-4.22,5.3,5.3,0,0,1,3.89-2c3.57-.23,6,2.46,6.3,7,.41,6.25-2.06,9.27-8.37,10.29l-.92-1.43c5.12-.55,7.47-2.95,7.54-7.69Zm-7.84-2.24c.15,2.34,1.69,3.86,3.81,3.72a3.67,3.67,0,0,0,2.74-1.58,4.27,4.27,0,0,0,.84-2.6,5,5,0,0,0-1.32-2.94,3.17,3.17,0,0,0-2.62-1A3.93,3.93,0,0,0,158.75,211.52Z"/><path d="M183.4,212.67c.33,5.19-1.75,8.53-5.45,8.77s-6.19-2.82-6.53-8,1.75-8.54,5.46-8.78S183.06,207.5,183.4,212.67Zm-10,.65c.27,4.19,2,6.69,4.49,6.52s3.84-2.85,3.57-7-2-6.71-4.49-6.55S173.1,209.13,173.38,213.32Z"/><path d="M111.83,418.56A24.84,24.84,0,0,1,108,419.8l-.45-1.5a16.22,16.22,0,0,0,4.82-1.82l1.34,0,.15,16.5L112,433Z"/><path d="M118.41,431.34c.5-2.14,2.24-4.3,4.92-6.12l.52-.35c2.78-1.85,3.51-2.73,3.5-4.19,0-1.64-1.39-2.73-3.45-2.71a5,5,0,0,0-4.12,2.18l-1.27-1a6.44,6.44,0,0,1,5.46-2.73c3.12,0,5.42,1.79,5.44,4.33,0,2-.75,3-4.31,5.28l-.72.47c-2.36,1.58-3.85,3.31-4,4.75l9.38-.08v1.7l-11.34.1Z"/><path d="M135.8,429.9l0,2.86-2.86,0,0-2.86Z"/><path d="M148.67,416.44l0,1.62-7.6.07-.57,5.69h.08a5.39,5.39,0,0,1,3.73-1.39,5,5,0,0,1,5.4,5.07c0,3.18-2.36,5.46-5.79,5.49a8.08,8.08,0,0,1-5.55-1.86l1.09-1.29a7,7,0,0,0,4.43,1.54,3.74,3.74,0,0,0,3.82-3.86,3.43,3.43,0,0,0-3.73-3.59,4.67,4.67,0,0,0-3.66,1.76l-1.69-.27.8-8.89Z"/><path d="M162.43,416.21l.1,10.82,3.1,0,0,1.54-3.1,0,0,3.94-1.76,0,0-3.94-8.25.08v-1.52l7.7-10.92Zm-1.71,5.08c0-.92,0-2.48.06-3.46h-.08a22.9,22.9,0,0,1-1.43,2.55l-4.7,6.73,6.2-.06Z"/><path d="M180.35,424.25c.05,5.2-2.23,8.42-5.93,8.45s-6-3.16-6.07-8.34,2.22-8.42,5.94-8.46S180.3,419.06,180.35,424.25Zm-10,.09c0,4.2,1.6,6.79,4.12,6.76s4-2.63,4-6.84-1.61-6.8-4.13-6.78S170.27,420.14,170.31,424.34Z"/><path d="M145,278.3v1.44h-8.8v2.56h6.78v8c0,1.16-.52,1.58-1.94,1.58q-1.23,0-2.46-.12l-.26-1.52a17.44,17.44,0,0,0,2.42.2c.52,0,.64-.1.64-.58V283.7h-5.18v10.86h-1.58V283.7h-4.92v8.38h-1.58V282.3h6.5v-2.56H126V278.3h8.62v-2.74h1.58v2.74Z"/><path d="M151.63,290.4c1.62,1.62,3.48,2.24,6.84,2.26h7.86a7.4,7.4,0,0,0-.48,1.42h-7.6c-3.5,0-5.44-.7-7.16-2.44a19.65,19.65,0,0,1-3.12,2.94l-.88-1.42a18.91,18.91,0,0,0,3-2.3V285.5h-3v-1.36h4.48Zm-.86-10a20.41,20.41,0,0,0-2.92-3.4l1.1-.92a19.79,19.79,0,0,1,3,3.26Zm2-1.06V278.1h3.54a12.33,12.33,0,0,0-1.28-1.92l1.4-.54a14.5,14.5,0,0,1,1.44,2.46h2.6a19.77,19.77,0,0,0,1.1-2.5l1.58.4a16.14,16.14,0,0,1-1.14,2.1h3.74v1.26h-5.78c-.1.34-.42,1.18-.62,1.66h5v10.2H154.15V281h3.68a13.54,13.54,0,0,0,.52-1.66Zm2.9,4.64h7.2v-1.84h-7.2Zm0,2.9h7.2v-1.82h-7.2Zm0,3.14h7.2v-2h-7.2Z"/><path d="M93.79,309.06A23.77,23.77,0,0,0,90.67,306l1.06-1.1a18.84,18.84,0,0,1,3.18,3Zm-2.64,8.14a30.23,30.23,0,0,0,3.52-6.56l1.26,1a33.89,33.89,0,0,1-3.5,6.76ZM94.51,304a21.2,21.2,0,0,0-3-3.12l1-1a18.31,18.31,0,0,1,3.12,3Zm7.92,5.68,0,0a44.3,44.3,0,0,1-2.84,6.2l-.08.18,1.48-.12c1.48-.12,3.74-.36,5.52-.6-.62-1-1.34-2.12-2.1-3.18l1.26-.7a36.51,36.51,0,0,1,3.94,6.06l-1.42.9c-.46-.94-.66-1.34-1-1.94l-.2,0c-2.22.44-6.94,1.06-10.22,1.34l-.52-1.58.8,0,.24,0,.54,0a45.69,45.69,0,0,0,3-6.64h-5V308.2h6.1v-4h-5v-1.38h5v-3.22h1.56v3.22h5.32v1.38h-5.32v4h6.36v1.34h-7.28Z"/><path d="M122.21,300.86v10.82h3.1v1.54h-3.1v3.94h-1.76v-3.94h-8.24V311.7l7.8-10.84Zm-1.76,5.06c0-.92,0-2.48.1-3.46h-.08A22,22,0,0,1,119,305l-4.76,6.68h6.2Z"/><path d="M129.71,315.58c.52-2.14,2.28-4.28,5-6.08l.52-.34c2.8-1.82,3.54-2.7,3.54-4.16,0-1.64-1.36-2.74-3.42-2.74a5,5,0,0,0-4.14,2.14l-1.26-1.06a6.44,6.44,0,0,1,5.48-2.68c3.12,0,5.4,1.84,5.4,4.38,0,2-.78,3-4.36,5.24l-.72.46c-2.38,1.56-3.88,3.28-4.06,4.72h9.38v1.7H129.71Z"/><path d="M155,318.56h-1.54v-6.4a19.48,19.48,0,0,1-7.78,5.6l-.92-1.28a19.6,19.6,0,0,0,7.4-4.7h-7.32v-1.34h8.62v-2.18H155v2.18h8.76v1.34h-7.4a21,21,0,0,0,7.52,4.24l-1,1.4A20.22,20.22,0,0,1,155,312Zm5.42-17.12a18.45,18.45,0,0,1-4.6,4.18,27.38,27.38,0,0,0,7.6,2.36l-.82,1.36a31,31,0,0,1-8.14-2.86,27.82,27.82,0,0,1-8.38,3.06l-.8-1.24a26.41,26.41,0,0,0,7.94-2.62,25,25,0,0,1-2.84-2.52,16.78,16.78,0,0,1-3.48,2.14l-1-1a13.71,13.71,0,0,0,6-4.78l1.52.3c-.3.46-.38.54-.66.92h6.84Zm-8.72.5c-.14.16-.2.2-.32.32a15.61,15.61,0,0,0,3.14,2.62,17.88,17.88,0,0,0,3.58-2.94Z"/><path d="M167.31,315.58c.52-2.14,2.28-4.28,5-6.08l.52-.34c2.8-1.82,3.54-2.7,3.54-4.16,0-1.64-1.36-2.74-3.42-2.74a5,5,0,0,0-4.14,2.14l-1.26-1.06a6.44,6.44,0,0,1,5.48-2.68c3.12,0,5.4,1.84,5.4,4.38,0,2-.78,3-4.36,5.24l-.72.46c-2.38,1.56-3.88,3.28-4.06,4.72h9.38v1.7H167.31Z"/><path d="M186.67,312.22l.12,0,.08,0c.74-.24,1.68-.6,2.26-.86l.16,1.42a54.82,54.82,0,0,1-6.46,2.36l-.56-1.54c1.12-.3,1.28-.34,2.36-.66l.48-.14v-9.4h-2.6V301.9h6.34v1.42h-2.18Zm1.42,5.24a12.09,12.09,0,0,0,4.2-2.76l1.22.82a14.75,14.75,0,0,1-4.32,3.1Zm11.62-13.66v10.66h-9.6V303.8h3.12a18,18,0,0,0,.54-2h-5v-1.32h12.36v1.32h-5.8a17.2,17.2,0,0,1-.68,2ZM191.59,305V307h6.62V305Zm0,5h6.62v-1.86h-6.62Zm0,3.22h6.62v-2.06h-6.62Zm8.44,5.32a26.77,26.77,0,0,0-4-3l1.1-.88a26.66,26.66,0,0,1,4.08,2.76Z"/><path d="M130.43,338.4c1.62,1.62,3.48,2.24,6.84,2.26h7.86a7.4,7.4,0,0,0-.48,1.42h-7.6c-3.5,0-5.44-.7-7.16-2.44a19.65,19.65,0,0,1-3.12,2.94l-.88-1.42a18.91,18.91,0,0,0,3-2.3V333.5h-3v-1.36h4.48Zm-.86-10a20.41,20.41,0,0,0-2.92-3.4l1.1-.92a19.79,19.79,0,0,1,3,3.26Zm2-1.06V326.1h3.54a12.33,12.33,0,0,0-1.28-1.92l1.4-.54a14.5,14.5,0,0,1,1.44,2.46h2.6a19.77,19.77,0,0,0,1.1-2.5l1.58.4a16.14,16.14,0,0,1-1.14,2.1h3.74v1.26h-5.78c-.1.34-.42,1.18-.62,1.66h5v10.2H133V329h3.68a13.54,13.54,0,0,0,.52-1.66Zm2.9,4.64h7.2v-1.84h-7.2Zm0,2.9h7.2v-1.82h-7.2Zm0,3.14h7.2v-2h-7.2Z"/><path d="M154.87,330.88h-2.58V334h2.6v1.32h-2.6v4.18c.54-.14,2.06-.58,3.06-.9l.14,1.3a70.9,70.9,0,0,1-7.88,2.24l-.52-1.42,1.06-.22v-7.8h1.36v7.5l.5-.12.48-.12.42-.1v-9H148v-6.5h6.88Zm-5.46-1.3h4v-3.86h-4Zm15.3-3.92a16.81,16.81,0,0,1-2.94,4.82,16.47,16.47,0,0,0,4.58,2.78l-.76,1.32a17.48,17.48,0,0,1-4.78-3.12,16.63,16.63,0,0,1-5.18,3.3l-.8-1.24a13.22,13.22,0,0,0,5-3.06,13.93,13.93,0,0,1-1.8-2.54l-.08.1,0,.06a12.66,12.66,0,0,1-1.76,1.82l-1-1.06a12,12,0,0,0,3.66-5.3l1.48.24c-.22.52-.28.68-.44,1h3.88Zm-.08,16.9h-1.46v-1.18h-5.1v1.18h-1.46v-7.88h8Zm-6.56-2.5h5.1v-4h-5.1Zm.7-13.22a12.67,12.67,0,0,0,2,2.68,13.52,13.52,0,0,0,2.16-3.38h-3.72l-.34.58Z"/><polygon class="繧ｰ繝ｩ繝輔ぅ繝け繧ｹ繧ｿ繧､繝ｫ-2" points="661.39 177.98 483.14 177.98 222.43 186.19 233.74 398.92 650.74 398.92 661.39 371.92 661.39 177.98"/><polygon class="繧ｰ繝ｩ繝輔ぅ繝け繧ｹ繧ｿ繧､繝ｫ-2" points="495.8 352.65 437.98 355.93 437.98 340.06 252.72 337.47 229.15 320.37 222.43 186.19 495.8 177.98 495.8 352.65"/><polyline class="繧ｰ繝ｩ繝輔ぅ繝け繧ｹ繧ｿ繧､繝ｫ" points="219.98 136.5 222.43 186.19 232.63 386.44 237.49 441.08"/><polyline class="繧ｰ繝ｩ繝輔ぅ繝け繧ｹ繧ｿ繧､繝ｫ" points="72.83 140.43 81.6 193.85 47.95 441.08"/><polygon class="繧ｰ繝ｩ繝輔ぅ繝け繧ｹ繧ｿ繧､繝ｫ-3" points="484.55 199.55 484.55 334.36 452.9 334.36 452.9 324.68 333.09 324.68 333.09 270.83 342.79 270.83 342.79 199.55 484.55 199.55"/><polygon class="繧ｰ繝ｩ繝輔ぅ繝け繧ｹ繧ｿ繧､繝ｫ-3" points="645.57 195.84 555.77 195.84 555.77 250.1 529.56 250.1 529.56 381.06 555.77 381.06 619.36 381.06 645.57 381.06 645.57 195.84"/><rect class="繧ｰ繝ｩ繝輔ぅ繝け繧ｹ繧ｿ繧､繝ｫ-4" x="294.46" y="301.97" width="37.38" height="7.44" transform="translate(7.45 618.84) rotate(-90)"/><rect class="繧ｰ繝ｩ繝輔ぅ繝け繧ｹ繧ｿ繧､繝ｫ-4" x="306.29" y="297.58" width="37.38" height="16.22" transform="translate(19.29 630.67) rotate(-90)"/><polygon points="331.3 305.69 321.78 298.88 321.78 312.51 331.3 305.69"/><rect class="繧ｰ繝ｩ繝輔ぅ繝け繧ｹ繧ｿ繧､繝ｫ-4" x="491.15" y="358.65" width="37.38" height="7.44" transform="translate(147.48 872.21) rotate(-90)"/><rect class="繧ｰ繝ｩ繝輔ぅ繝け繧ｹ繧ｿ繧､繝ｫ-4" x="502.99" y="354.26" width="37.38" height="16.22" transform="translate(159.31 884.04) rotate(-90)"/><polygon points="527.99 362.37 518.47 355.55 518.47 369.19 527.99 362.37"/><path class="cls-1" d="M419.25,360.81a71.1,71.1,0,0,1,0,16.75c-.81,6.43-7.33,11.24-13.28,10.9a573.22,573.22,0,0,0-58.48,0c-5.66.34-11.84-4.23-12.66-10.33a71.72,71.72,0,0,1,0-17.93c.82-6.1,7-10.67,12.66-10.33a576.11,576.11,0,0,0,58.48,0C411.92,349.57,418.44,354.38,419.25,360.81Z"/><path class="cls-5" d="M420,369.19a71.57,71.57,0,0,1-.49,8.4c-.79,6.28-7.11,11.46-13.51,11.08a575.72,575.72,0,0,0-58.46,0c-6.07.36-12.09-4.56-12.88-10.52a71.18,71.18,0,0,1,0-18c.79-6,6.81-10.89,12.88-10.53a575.72,575.72,0,0,0,58.46,0c6.4-.37,12.72,4.81,13.51,11.08h0A71.32,71.32,0,0,1,420,369.19Zm-85.48,0a72.09,72.09,0,0,0,.56,8.93c.77,5.75,6.58,10.49,12.43,10.15a576.71,576.71,0,0,1,58.51,0c6.19.36,12.29-4.64,13.06-10.71a71.67,71.67,0,0,0,0-16.69c-.77-6.07-6.87-11.07-13.06-10.71a576.71,576.71,0,0,1-58.51,0c-5.85-.34-11.66,4.4-12.43,10.15A72.25,72.25,0,0,0,334.48,369.19Z"/><path class="cls-6" d="M408.28,355.83v26.71l.94-.11V355.94Z"/><path class="cls-5" d="M398.72,353.1l-.8.24a79.85,79.85,0,0,1-21.28,2.57c-.88,0-1.78,0-2.67,0h-.06l-9.53-4.05.75,0c2.21-.05,4.4-.08,6.51-.08A256.14,256.14,0,0,1,397.89,353ZM374,355.55l2.63,0A81.35,81.35,0,0,0,397,353.26c-8.14-.82-16.67-1.23-25.37-1.23-1.86,0-3.8,0-5.75.07Z"/><path class="cls-5" d="M398.72,385.27l-.83.08a256.14,256.14,0,0,1-26.25,1.31c-2.09,0-4.28,0-6.51-.08l-.75,0L374,382.5l2.67,0A79.88,79.88,0,0,1,397.92,385Zm-32.83,1c2,0,3.9.06,5.75.06,8.7,0,17.23-.41,25.37-1.22a80.85,80.85,0,0,0-20.37-2.33l-2.63,0Z"/><path class="cls-1" d="M362.55,352.09h-14a15,15,0,0,0-15,15v4.29a15,15,0,0,0,15,14.95h14a76.67,76.67,0,0,1,0-34.19Z"/><path d="M362.75,351.93l0,.2a74.22,74.22,0,0,0-1.93,17.06v.22a75.13,75.13,0,0,0,1.93,16.83l0,.2H348.53a15.14,15.14,0,0,1-15.14-15.11V367a15.14,15.14,0,0,1,15.14-15.11Zm-29,19.4a14.81,14.81,0,0,0,14.81,14.79h13.81a75.77,75.77,0,0,1-1.88-16.71V369a75.84,75.84,0,0,1,1.88-16.71H348.53A14.82,14.82,0,0,0,333.72,367Z"/><path class="cls-1" d="M395.38,356.83a82.53,82.53,0,0,0,0,24.71,35.82,35.82,0,0,0,12.91,1V355.78A35.82,35.82,0,0,0,395.38,356.83Z"/><path d="M408.46,355.63v27.11h-.15a36.14,36.14,0,0,1-13-1.06l-.1,0,0-.11a82.8,82.8,0,0,1,0-24.75l0-.11.1,0a36.12,36.12,0,0,1,13-1.06Zm-.33,26.81V355.93a35.91,35.91,0,0,0-12.6,1,82.12,82.12,0,0,0,0,24.45A35.91,35.91,0,0,0,408.13,382.44Z"/><path class="cls-6" d="M408.29,355.78v26.81l.94-.11V355.89Z"/><path class="cls-1" d="M409.23,382.48H416a32.13,32.13,0,0,0,0-26.59h-6.73Z"/><path d="M419,369.19a29.26,29.26,0,0,1-2.9,13.37l0,.08h-7V355.73h7l0,.08A29.28,29.28,0,0,1,419,369.19Zm-3.14,13.13a32.1,32.1,0,0,0,0-26.27h-6.47v26.27Z"/><path class="cls-6" d="M362.46,352.2l-.9-.33a65,65,0,0,0,0,34.63l.9-.33A65.23,65.23,0,0,1,362.46,352.2Z"/><path class="cls-1" d="M362.42,385.69l11.37-4.15V356.83l-11.37-4.15A63.29,63.29,0,0,0,362.42,385.69Z"/><path d="M374,356.72v24.93l-11.64,4.26-.05-.17a63.42,63.42,0,0,1,0-33.1l.05-.18Zm-.32,24.7V357l-11.1-4.06a63,63,0,0,0,0,32.59Z"/><path class="cls-5" d="M416,355.94v-.17a3.67,3.67,0,0,0-3.65-3.66H412A8.77,8.77,0,0,1,416,355.94Z"/><path class="cls-5" d="M416,382.43v.17a3.66,3.66,0,0,1-3.65,3.66H412A8.77,8.77,0,0,0,416,382.43Z"/><path class="cls-1" d="M371.44,347.54a1.49,1.49,0,0,0-1.31.26l-2.58,3a.48.48,0,0,0-.08.16h2.4l1.87-3.33Z"/><path class="cls-5" d="M372,347.51l-2,3.59h-2.7l0-.19a.57.57,0,0,1,.12-.23l2.58-3a1.58,1.58,0,0,1,1.47-.31Zm-2.21,3.27,1.71-3.06-.09,0a1.33,1.33,0,0,0-1.15.21l-2.48,2.87Z"/><path class="cls-1" d="M371.44,390.83a1.46,1.46,0,0,1-1.31-.26l-2.58-3a.4.4,0,0,1-.08-.16h2.4l1.87,3.33Z"/><path class="cls-5" d="M372,390.87l-.51.12a1.61,1.61,0,0,1-1.47-.32l-2.58-3a.57.57,0,0,1-.12-.23l0-.19H370Zm-4.22-3.28,2.48,2.87a1.33,1.33,0,0,0,1.15.21l.09,0-1.71-3.06Z"/><path class="cls-5" d="M353.89,360.39c-5.38,0-10.11.95-12.85,2.39A33.55,33.55,0,0,1,352.43,361a42,42,0,0,1,6.14.44v-.84A41.07,41.07,0,0,0,353.89,360.39Z"/><path class="cls-5" d="M353.89,378c-5.38,0-10.11-1-12.85-2.4a33.55,33.55,0,0,0,11.39,1.74,42,42,0,0,0,6.14-.44v.84A41,41,0,0,1,353.89,378Z"/><rect class="cls-1" x="372.24" y="358.39" width="24.71" height="21.6" transform="translate(15.4 753.77) rotate(-90)"/><path d="M395.55,356.67v25H373.63v-25Zm-.32,24.71V357H374v24.38Z"/><path class="cls-1" d="M324.27,360.81a71.1,71.1,0,0,1,0,16.75c-.81,6.43-7.33,11.24-13.28,10.9a573.22,573.22,0,0,0-58.48,0c-5.66.34-11.84-4.23-12.66-10.33a71.72,71.72,0,0,1,0-17.93c.82-6.1,7-10.67,12.66-10.33a576.11,576.11,0,0,0,58.48,0C316.94,349.57,323.46,354.38,324.27,360.81Z"/><path class="cls-5" d="M325,369.19a71.57,71.57,0,0,1-.49,8.4c-.79,6.28-7.11,11.46-13.51,11.08a575.72,575.72,0,0,0-58.46,0c-6.07.36-12.09-4.56-12.88-10.52a71.65,71.65,0,0,1,0-18,12.75,12.75,0,0,1,12.88-10.53,575.72,575.72,0,0,0,58.46,0c6.4-.37,12.72,4.81,13.51,11.08h0A71.32,71.32,0,0,1,325,369.19Zm-85.47,0a70.2,70.2,0,0,0,.56,8.93,12.3,12.3,0,0,0,12.42,10.15,576.71,576.71,0,0,1,58.51,0c6.19.36,12.3-4.64,13.06-10.71a71.67,71.67,0,0,0,0-16.69c-.76-6.07-6.87-11.07-13.06-10.71a576.51,576.51,0,0,1-58.5,0c-5.86-.34-11.66,4.4-12.43,10.15A70.36,70.36,0,0,0,239.51,369.19Z"/><path class="cls-6" d="M313.3,355.83v26.71l.94-.11V355.94Z"/><path class="cls-5" d="M303.74,353.1l-.8.24a79.85,79.85,0,0,1-21.28,2.57c-.88,0-1.78,0-2.67,0h-.05l-9.54-4.05.75,0c2.21-.05,4.41-.08,6.51-.08A256,256,0,0,1,302.91,353ZM279,355.55l2.63,0A81.35,81.35,0,0,0,302,353.26c-8.14-.82-16.67-1.23-25.37-1.23-1.86,0-3.8,0-5.75.07Z"/><path class="cls-5" d="M303.74,385.27l-.83.08a256,256,0,0,1-26.25,1.31c-2.09,0-4.28,0-6.51-.08l-.75,0L279,382.5l2.67,0A79.88,79.88,0,0,1,302.94,385Zm-32.83,1c2,0,3.9.06,5.75.06,8.7,0,17.23-.41,25.37-1.22a80.85,80.85,0,0,0-20.37-2.33l-2.63,0Z"/><path class="cls-1" d="M267.57,352.09h-14a15,15,0,0,0-15,15v4.29a15,15,0,0,0,15,14.95h14a76.67,76.67,0,0,1,0-34.19Z"/><path d="M267.77,351.93l0,.2a74.22,74.22,0,0,0-1.93,17.06v.22a75.13,75.13,0,0,0,1.93,16.83l0,.2H253.55a15.13,15.13,0,0,1-15.13-15.11V367a15.13,15.13,0,0,1,15.13-15.11Zm-29,19.4a14.81,14.81,0,0,0,14.81,14.79h13.82a75.19,75.19,0,0,1-1.89-16.71V369a75.26,75.26,0,0,1,1.89-16.71H253.55A14.82,14.82,0,0,0,238.74,367Z"/><path class="cls-1" d="M300.4,356.83a82.53,82.53,0,0,0,0,24.71,35.82,35.82,0,0,0,12.91,1V355.78A35.82,35.82,0,0,0,300.4,356.83Z"/><path d="M313.48,355.63v27.11h-.15a36.14,36.14,0,0,1-13-1.06l-.1,0,0-.11a82.8,82.8,0,0,1,0-24.75l0-.11.1,0a36.14,36.14,0,0,1,13-1.06Zm-.33,26.81V355.93a35.91,35.91,0,0,0-12.6,1,82.12,82.12,0,0,0,0,24.45A35.91,35.91,0,0,0,313.15,382.44Z"/><path class="cls-6" d="M313.31,355.78v26.81l.94-.11V355.89Z"/><path class="cls-1" d="M314.25,382.48H321a32.13,32.13,0,0,0,0-26.59h-6.73Z"/><path d="M324,369.19a29.26,29.26,0,0,1-2.9,13.37l0,.08h-7V355.73h7l0,.08A29.28,29.28,0,0,1,324,369.19Zm-3.14,13.13a32,32,0,0,0,0-26.27h-6.47v26.27Z"/><path class="cls-6" d="M267.48,352.2l-.9-.33a65,65,0,0,0,0,34.63l.9-.33A65.23,65.23,0,0,1,267.48,352.2Z"/><path class="cls-1" d="M267.44,385.69l11.37-4.15V356.83l-11.37-4.15A63.29,63.29,0,0,0,267.44,385.69Z"/><path d="M279,356.72v24.93l-11.64,4.26-.05-.17a63.42,63.42,0,0,1,0-33.1l.05-.18Zm-.32,24.7V357l-11.1-4.06a63,63,0,0,0,0,32.59Z"/><path class="cls-5" d="M321,355.94v-.17a3.67,3.67,0,0,0-3.65-3.66h-.27A8.8,8.8,0,0,1,321,355.94Z"/><path class="cls-5" d="M321,382.43v.17a3.66,3.66,0,0,1-3.65,3.66h-.27A8.8,8.8,0,0,0,321,382.43Z"/><path class="cls-1" d="M276.46,347.54a1.49,1.49,0,0,0-1.31.26l-2.58,3a.48.48,0,0,0-.08.16h2.4l1.87-3.33Z"/><path class="cls-5" d="M277,347.51l-2,3.59h-2.7l0-.19a.57.57,0,0,1,.12-.23l2.58-3a1.58,1.58,0,0,1,1.47-.31Zm-2.21,3.27,1.71-3.06-.09,0a1.33,1.33,0,0,0-1.15.21l-2.48,2.87Z"/><path class="cls-1" d="M276.46,390.83a1.46,1.46,0,0,1-1.31-.26l-2.58-3a.4.4,0,0,1-.08-.16h2.4l1.87,3.33Z"/><path class="cls-5" d="M277,390.87l-.51.12a1.61,1.61,0,0,1-1.47-.32l-2.58-3a.57.57,0,0,1-.12-.23l0-.19H275Zm-4.22-3.28,2.48,2.87a1.33,1.33,0,0,0,1.15.21l.09,0-1.71-3.06Z"/><path class="cls-5" d="M258.91,360.39c-5.38,0-10.11.95-12.84,2.39A33.44,33.44,0,0,1,257.45,361a42,42,0,0,1,6.14.44v-.84A41,41,0,0,0,258.91,360.39Z"/><path class="cls-5" d="M258.91,378c-5.38,0-10.11-1-12.84-2.4a33.44,33.44,0,0,0,11.38,1.74,42,42,0,0,0,6.14-.44v.84A40.88,40.88,0,0,1,258.91,378Z"/><rect class="cls-1" x="277.26" y="358.39" width="24.71" height="21.6" transform="translate(-79.58 658.79) rotate(-90)"/><path d="M300.57,356.67v25H278.65v-25Zm-.32,24.71V357H279v24.38Z"/><path class="cls-1" d="M324.27,204.56a71.1,71.1,0,0,1,0,16.75c-.81,6.43-7.33,11.25-13.28,10.9a570.36,570.36,0,0,0-58.48,0c-5.66.33-11.84-4.24-12.66-10.34a71.64,71.64,0,0,1,0-17.92c.82-6.11,7-10.67,12.66-10.34a570.36,570.36,0,0,0,58.48,0C316.94,193.32,323.46,198.13,324.27,204.56Z"/><path class="cls-5" d="M325,212.94a71.45,71.45,0,0,1-.49,8.4c-.79,6.28-7.11,11.46-13.51,11.09a572.83,572.83,0,0,0-58.46,0c-6.07.36-12.09-4.56-12.88-10.52a71.65,71.65,0,0,1,0-18c.8-6,6.81-10.88,12.88-10.53a570,570,0,0,0,58.46,0c6.4-.37,12.72,4.81,13.51,11.09h0A71.45,71.45,0,0,1,325,212.94Zm-85.47,0a70.2,70.2,0,0,0,.56,8.93A12.29,12.29,0,0,0,252.49,232,576.71,576.71,0,0,1,311,232c6.19.36,12.3-4.64,13.06-10.7a71.75,71.75,0,0,0,0-16.7c-.76-6.06-6.87-11.07-13.06-10.71a573.61,573.61,0,0,1-58.5,0A12.29,12.29,0,0,0,240.07,204,70.09,70.09,0,0,0,239.51,212.94Z"/><path class="cls-6" d="M313.3,199.58V226.3l.94-.11v-26.5Z"/><path class="cls-5" d="M303.74,196.86l-.8.23a79.44,79.44,0,0,1-21.28,2.57c-.88,0-1.78,0-2.67,0h-.05l-9.54-4.05.75,0c2.21,0,4.41-.08,6.51-.08a256,256,0,0,1,26.25,1.31ZM279,199.3l2.63,0A81.35,81.35,0,0,0,302,197c-8.14-.81-16.67-1.22-25.37-1.22-1.86,0-3.8,0-5.75.06Z"/><path class="cls-5" d="M303.74,229l-.83.08a253.14,253.14,0,0,1-26.25,1.32c-2.09,0-4.28,0-6.51-.08l-.75,0,9.59-4.07c.89,0,1.79,0,2.67,0a79.44,79.44,0,0,1,21.28,2.57Zm-32.83,1c2,0,3.9.06,5.75.06,8.7,0,17.23-.41,25.37-1.22a81.32,81.32,0,0,0-20.37-2.33c-.87,0-1.75,0-2.63,0Z"/><path class="cls-1" d="M267.57,195.84h-14a15,15,0,0,0-15,14.95v4.3a15,15,0,0,0,15,14.94h14a76.67,76.67,0,0,1,0-34.19Z"/><path d="M267.77,195.68l0,.2a74.28,74.28,0,0,0-1.93,17.06v.22A75.28,75.28,0,0,0,267.73,230l0,.2H253.55a15.13,15.13,0,0,1-15.13-15.11v-4.3a15.13,15.13,0,0,1,15.13-15.11Zm-29,19.41a14.81,14.81,0,0,0,14.81,14.78h13.82a75.19,75.19,0,0,1-1.89-16.71v-.45a75.17,75.17,0,0,1,1.89-16.7H253.55a14.81,14.81,0,0,0-14.81,14.78Z"/><path class="cls-1" d="M300.4,200.59a82.47,82.47,0,0,0,0,24.7,35.82,35.82,0,0,0,12.91,1.05V199.53A36.05,36.05,0,0,0,300.4,200.59Z"/><path d="M313.48,199.39v27.1l-.15,0a36.37,36.37,0,0,1-13-1.06l-.1,0,0-.1a82.87,82.87,0,0,1,0-24.76l0-.1.1,0a36.14,36.14,0,0,1,13-1.06Zm-.33,26.81V199.68a35.69,35.69,0,0,0-12.6,1,82.06,82.06,0,0,0,0,24.44A35.92,35.92,0,0,0,313.15,226.2Z"/><path class="cls-6" d="M313.31,199.53v26.81l.94-.1v-26.6Z"/><path class="cls-1" d="M314.25,226.24H321a32.15,32.15,0,0,0,0-26.6h-6.73Z"/><path d="M324,212.94a29.23,29.23,0,0,1-2.9,13.37l0,.09h-7V199.48h7l0,.09A29.23,29.23,0,0,1,324,212.94Zm-3.14,13.13a32,32,0,0,0,0-26.27h-6.47v26.27Z"/><path class="cls-6" d="M267.48,196l-.9-.33a65,65,0,0,0,0,34.63l.9-.33A65.23,65.23,0,0,1,267.48,196Z"/><path class="cls-1" d="M267.44,229.45l11.37-4.16v-24.7l-11.37-4.16A63.33,63.33,0,0,0,267.44,229.45Z"/><path d="M279,200.47V225.4l-11.64,4.26-.05-.17a63.42,63.42,0,0,1,0-33.1l.05-.17Zm-.32,24.71V200.7l-11.1-4.06a63,63,0,0,0,0,32.59Z"/><path class="cls-5" d="M321,199.69v-.17a3.67,3.67,0,0,0-3.65-3.66h-.27A8.85,8.85,0,0,1,321,199.69Z"/><path class="cls-5" d="M321,226.19v.17a3.66,3.66,0,0,1-3.65,3.65h-.27A8.78,8.78,0,0,0,321,226.19Z"/><path class="cls-1" d="M276.46,191.3a1.46,1.46,0,0,0-1.31.26l-2.58,3a.37.37,0,0,0-.08.15h2.4l1.87-3.32Z"/><path class="cls-5" d="M277,191.26l-2,3.6h-2.7l0-.2a.57.57,0,0,1,.12-.23l2.58-3a1.61,1.61,0,0,1,1.47-.31Zm-2.21,3.27,1.71-3.05-.09,0a1.33,1.33,0,0,0-1.15.21l-2.48,2.87Z"/><path class="cls-1" d="M276.46,234.58a1.46,1.46,0,0,1-1.31-.26l-2.58-3a.35.35,0,0,1-.08-.16h2.4l1.87,3.33Z"/><path class="cls-5" d="M277,234.62l-.51.12a1.63,1.63,0,0,1-1.47-.31l-2.58-3a.6.6,0,0,1-.12-.24l0-.19H275Zm-4.22-3.28,2.48,2.88a1.34,1.34,0,0,0,1.15.2l.09,0-1.71-3.06Z"/><path class="cls-5" d="M258.91,204.14c-5.38,0-10.11,1-12.84,2.4a33.42,33.42,0,0,1,11.38-1.75,42,42,0,0,1,6.14.44v-.84A43.37,43.37,0,0,0,258.91,204.14Z"/><path class="cls-5" d="M258.91,221.74c-5.38,0-10.11-1-12.84-2.4a33.44,33.44,0,0,0,11.38,1.74,40.66,40.66,0,0,0,6.14-.44v.85A43.37,43.37,0,0,1,258.91,221.74Z"/><rect class="cls-1" x="277.26" y="202.14" width="24.71" height="21.6" transform="translate(76.67 502.55) rotate(-90)"/><path d="M300.57,200.42v25H278.65v-25Zm-.32,24.71V200.75H279v24.38Z"/><path class="cls-1" d="M324.27,253.61a71.1,71.1,0,0,1,0,16.75c-.81,6.44-7.33,11.25-13.28,10.9a570.36,570.36,0,0,0-58.48,0c-5.66.33-11.84-4.24-12.66-10.34a71.64,71.64,0,0,1,0-17.92c.82-6.11,7-10.67,12.66-10.34a570.36,570.36,0,0,0,58.48,0C316.94,242.37,323.46,247.18,324.27,253.61Z"/><path class="cls-5" d="M325,262a71.45,71.45,0,0,1-.49,8.4c-.79,6.28-7.11,11.46-13.51,11.09a572.83,572.83,0,0,0-58.46,0c-6.07.36-12.09-4.56-12.88-10.52a71.65,71.65,0,0,1,0-18c.8-6,6.81-10.88,12.88-10.53a570,570,0,0,0,58.46,0c6.4-.37,12.72,4.81,13.51,11.09h0A71.45,71.45,0,0,1,325,262Zm-85.47,0a70.2,70.2,0,0,0,.56,8.93,12.29,12.29,0,0,0,12.42,10.15A576.71,576.71,0,0,1,311,281c6.19.36,12.3-4.64,13.06-10.7a71.75,71.75,0,0,0,0-16.7c-.76-6.06-6.87-11.07-13.06-10.71a573.61,573.61,0,0,1-58.5,0,12.29,12.29,0,0,0-12.43,10.15A70.09,70.09,0,0,0,239.51,262Z"/><path class="cls-6" d="M313.3,248.63v26.72l.94-.11v-26.5Z"/><path class="cls-5" d="M303.74,245.91l-.8.23a79.44,79.44,0,0,1-21.28,2.57c-.88,0-1.78,0-2.67,0h-.05l-9.54-4,.75,0c2.21-.05,4.41-.08,6.51-.08a256,256,0,0,1,26.25,1.31ZM279,248.35l2.63,0A81.35,81.35,0,0,0,302,246.06c-8.14-.81-16.67-1.22-25.37-1.22-1.86,0-3.8,0-5.75.06Z"/><path class="cls-5" d="M303.74,278.07l-.83.09a256,256,0,0,1-26.25,1.31c-2.09,0-4.28,0-6.51-.08l-.75,0L279,275.3c.89,0,1.79,0,2.67,0a79.44,79.44,0,0,1,21.28,2.57Zm-32.83,1c2,0,3.9.06,5.75.06,8.7,0,17.23-.41,25.37-1.22a81.32,81.32,0,0,0-20.37-2.33c-.87,0-1.75,0-2.63,0Z"/><path class="cls-1" d="M267.57,244.89h-14a15,15,0,0,0-15,14.95v4.3a15,15,0,0,0,15,14.94h14a76.67,76.67,0,0,1,0-34.19Z"/><path d="M267.77,244.73l0,.2A74.28,74.28,0,0,0,265.8,262v.22a75.28,75.28,0,0,0,1.93,16.84l0,.2H253.55a15.13,15.13,0,0,1-15.13-15.11v-4.3a15.13,15.13,0,0,1,15.13-15.11Zm-29,19.41a14.81,14.81,0,0,0,14.81,14.78h13.82a75.19,75.19,0,0,1-1.89-16.71v-.45a75.17,75.17,0,0,1,1.89-16.7H253.55a14.81,14.81,0,0,0-14.81,14.78Z"/><path class="cls-1" d="M300.4,249.64a82.47,82.47,0,0,0,0,24.7,35.82,35.82,0,0,0,12.91,1.05V248.58A36.05,36.05,0,0,0,300.4,249.64Z"/><path d="M313.48,248.44v27.1l-.15,0a36.37,36.37,0,0,1-13-1.06l-.1,0,0-.1a82.87,82.87,0,0,1,0-24.76l0-.1.1,0a36.37,36.37,0,0,1,13-1.06Zm-.33,26.81V248.73a35.69,35.69,0,0,0-12.6,1,82.06,82.06,0,0,0,0,24.44A35.92,35.92,0,0,0,313.15,275.25Z"/><path class="cls-6" d="M313.31,248.58v26.81l.94-.1v-26.6Z"/><path class="cls-1" d="M314.25,275.29H321a32.15,32.15,0,0,0,0-26.6h-6.73Z"/><path d="M324,262a29.23,29.23,0,0,1-2.9,13.37l0,.09h-7V248.53h7l0,.09A29.23,29.23,0,0,1,324,262Zm-3.14,13.13a32,32,0,0,0,0-26.27h-6.47v26.27Z"/><path class="cls-6" d="M267.48,245l-.9-.33a65,65,0,0,0,0,34.63l.9-.33A65.23,65.23,0,0,1,267.48,245Z"/><path class="cls-1" d="M267.44,278.5l11.37-4.16v-24.7l-11.37-4.16A63.33,63.33,0,0,0,267.44,278.5Z"/><path d="M279,249.52v24.94l-11.64,4.25-.05-.17a63.42,63.42,0,0,1,0-33.1l.05-.17Zm-.32,24.71V249.75l-11.1-4.06a63,63,0,0,0,0,32.59Z"/><path class="cls-5" d="M321,248.74v-.17a3.67,3.67,0,0,0-3.65-3.66h-.27A8.85,8.85,0,0,1,321,248.74Z"/><path class="cls-5" d="M321,275.24v.17a3.66,3.66,0,0,1-3.65,3.65h-.27A8.78,8.78,0,0,0,321,275.24Z"/><path class="cls-1" d="M276.46,240.35a1.46,1.46,0,0,0-1.31.26l-2.58,3a.37.37,0,0,0-.08.15h2.4l1.87-3.32Z"/><path class="cls-5" d="M277,240.31l-2,3.6h-2.7l0-.2a.57.57,0,0,1,.12-.23l2.58-3a1.61,1.61,0,0,1,1.47-.31Zm-2.21,3.27,1.71-3.05-.09,0a1.33,1.33,0,0,0-1.15.21l-2.48,2.87Z"/><path class="cls-1" d="M276.46,283.63a1.46,1.46,0,0,1-1.31-.26l-2.58-3a.35.35,0,0,1-.08-.16h2.4l1.87,3.33Z"/><path class="cls-5" d="M277,283.67l-.51.12a1.63,1.63,0,0,1-1.47-.31l-2.58-3a.6.6,0,0,1-.12-.24l0-.19H275Zm-4.22-3.27,2.48,2.87a1.34,1.34,0,0,0,1.15.2l.09,0-1.71-3.05Z"/><path class="cls-5" d="M258.91,253.19c-5.38,0-10.11.95-12.84,2.4a33.42,33.42,0,0,1,11.38-1.75,42,42,0,0,1,6.14.44v-.84A43.37,43.37,0,0,0,258.91,253.19Z"/><path class="cls-5" d="M258.91,270.79c-5.38,0-10.11-1-12.84-2.4a33.44,33.44,0,0,0,11.38,1.74,40.66,40.66,0,0,0,6.14-.44v.85A43.37,43.37,0,0,1,258.91,270.79Z"/><rect class="cls-1" x="277.26" y="251.19" width="24.71" height="21.6" transform="translate(27.62 551.6) rotate(-90)"/><path d="M300.57,249.47v25H278.65v-25Zm-.32,24.71V249.8H279v24.38Z"/><path d="M382.29,253.64a36.1,36.1,0,0,1-5.82,1.8l-.66-2.25a23.84,23.84,0,0,0,7.26-2.67h2v24.75h-2.79Z"/><path d="M401.25,263.48a30.48,30.48,0,0,1-1,2.94h16.86a28.66,28.66,0,0,1-1.59,8.58c-.75,1.68-1.71,2.16-4.41,2.16-1.59,0-3.72-.09-5.19-.21l-.54-2.28c2.07.18,4.08.3,5.52.3s1.95-.24,2.37-1.2a27.88,27.88,0,0,0,1.14-5.31h-15c-.39.84-.81,1.71-1.26,2.55l-2.43-.69a41,41,0,0,0,3-6.84H392v-2h28.5v2Zm14.82-4.77H396.48v-8.52h19.59Zm-17.16-1.92h14.73v-4.62H398.91Z"/><path d="M428.28,262.49a35.59,35.59,0,0,1-3.63,8.13l-1.11-2.4a33.85,33.85,0,0,0,4.53-10.83H424v-2.1h4.32v-6.42h2.22v6.42h3.12v2.1H430.5v2.79a34.44,34.44,0,0,1,3.69,3.51l-1.26,2a33.48,33.48,0,0,0-2.43-3.09v14.76h-2.22ZM445,266.66a22.41,22.41,0,0,0,7.65,6.78l-1.41,2.1a24.58,24.58,0,0,1-7.74-7.68v9.51h-2.13V268a23.16,23.16,0,0,1-7.71,7.92l-1.5-1.83a21.34,21.34,0,0,0,7.86-7.47h-5.55V256h6.9v-2.22h-8.46v-1.95h8.46v-2.94h2.13v2.94h8.64v1.95h-8.64V256h7.11v10.68Zm-8.4-8.85v2.55h4.77v-2.55Zm0,4.38v2.61h4.77v-2.61Zm6.9-1.83h5v-2.55h-5Zm0,4.44h5v-2.61h-5Z"/><path d="M549.11,310.91c.78-3.21,3.42-6.42,7.47-9.12l.78-.51c4.2-2.73,5.31-4,5.31-6.24,0-2.46-2-4.11-5.13-4.11-2.52,0-4.29.93-6.21,3.21l-1.89-1.59a9.66,9.66,0,0,1,8.22-4c4.68,0,8.1,2.76,8.1,6.57,0,3-1.17,4.44-6.54,7.86l-1.08.69c-3.57,2.34-5.82,4.92-6.09,7.08h14.07v2.55h-17Z"/><path d="M579.08,301.49a30.48,30.48,0,0,1-1,2.94H595a28.66,28.66,0,0,1-1.59,8.58c-.75,1.68-1.71,2.16-4.41,2.16-1.59,0-3.72-.09-5.19-.21l-.54-2.28c2.07.18,4.08.3,5.52.3s2-.24,2.37-1.2a27.88,27.88,0,0,0,1.14-5.31h-15c-.39.84-.81,1.71-1.26,2.55l-2.43-.69a41,41,0,0,0,3-6.84h-6.69v-2h28.5v2Zm14.82-4.77H574.31V288.2H593.9Zm-17.16-1.92h14.73v-4.62H576.74Z"/><path d="M606.11,300.5a35.59,35.59,0,0,1-3.63,8.13l-1.11-2.4a33.85,33.85,0,0,0,4.53-10.83h-4.11v-2.1h4.32v-6.42h2.22v6.42h3.12v2.1h-3.12v2.79A34.44,34.44,0,0,1,612,301.7l-1.26,2a33.48,33.48,0,0,0-2.43-3.09v14.76h-2.22Zm16.74,4.17a22.41,22.41,0,0,0,7.65,6.78l-1.41,2.1a24.58,24.58,0,0,1-7.74-7.68v9.51h-2.13v-9.33a23.16,23.16,0,0,1-7.71,7.92l-1.5-1.83a21.34,21.34,0,0,0,7.86-7.47h-5.55V294h6.9v-2.22h-8.46v-1.95h8.46v-2.94h2.13v2.94H630v1.95h-8.64V294h7.11v10.68Zm-8.4-8.85v2.55h4.77v-2.55Zm0,4.38v2.61h4.77V300.2Zm6.9-1.83h5v-2.55h-5Zm0,4.44h5V300.2h-5Z"/><polyline class="繧ｰ繝ｩ繝輔ぅ繝け繧ｹ繧ｿ繧､繝ｫ-9" points="87.24 136.5 96.72 191.09 61.94 441.08"/><polyline class="繧ｰ繝ｩ繝輔ぅ繝け繧ｹ繧ｿ繧､繝ｫ-9" points="204.07 136.5 219.98 398.92 224.76 441.08"/><path class="cls-7" d="M78.36,251.19a9.14,9.14,0,0,0,3.27-2.77l.9.55A10,10,0,0,1,79.08,252Zm.19,3c4.08,0,6.82-.89,9.2-3l.76.76A13.91,13.91,0,0,1,79,255.21Zm11.82-9-.13.93L86,245.5l-.26,1.93,5.93.8-.13,1-5.93-.8-.44,3.3c-.1.72-.47.94-1.4.82a11.43,11.43,0,0,1-1.38-.26l0-1a12.07,12.07,0,0,0,1.35.3c.29,0,.38,0,.43-.37l.39-2.93-5.91-.79.13-1,2.35.32.42-3.14,1.1.15L82.15,247l2.46.33.63-4.7,1.09.15-.25,1.84Zm-.35,8a21.06,21.06,0,0,0-2.66-3.49l.85-.49A18.29,18.29,0,0,1,91,252.48Z"/><path class="cls-7" d="M78.9,267.47c1,1.27,2.21,1.88,4.54,2.21l5.45.73a5.47,5.47,0,0,0-.46.94l-5.28-.71c-2.42-.35-3.71-1-4.74-2.36A14.17,14.17,0,0,1,76,270L75.49,269a12.68,12.68,0,0,0,2.31-1.32l.51-3.72-2.06-.27.13-.95,3.11.42Zm.34-7a13.92,13.92,0,0,0-1.71-2.63l.85-.54a13.83,13.83,0,0,1,1.78,2.55Zm1.46-.55.12-.88,2.45.33a8.34,8.34,0,0,0-.7-1.45l1-.24a10.34,10.34,0,0,1,.77,1.84l1.8.25a13.82,13.82,0,0,0,1-1.64l1.06.43a11.45,11.45,0,0,1-1,1.35l2.6.35-.12.88-4-.55c-.1.23-.41.78-.59,1.1l3.49.47-1,7.08-7.07-1,1-7.08,2.55.35a10,10,0,0,0,.52-1.1Zm1,7.68,5,.68.19-1.39-5-.68Zm.29-2.18,5,.68.17-1.27-5-.67Zm.28-2,5,.67.17-1.27-5-.68Z"/><path d="M78.36,251.19a9.14,9.14,0,0,0,3.27-2.77l.9.55A10,10,0,0,1,79.08,252Zm.19,3c4.08,0,6.82-.89,9.2-3l.76.76A13.91,13.91,0,0,1,79,255.21Zm11.82-9-.13.93L86,245.5l-.26,1.93,5.93.8-.13,1-5.93-.8-.44,3.3c-.1.72-.47.94-1.4.82a11.43,11.43,0,0,1-1.38-.26l0-1a12.07,12.07,0,0,0,1.35.3c.29,0,.38,0,.43-.37l.39-2.93-5.91-.79.13-1,2.35.32.42-3.14,1.1.15L82.15,247l2.46.33.63-4.7,1.09.15-.25,1.84Zm-.35,8a21.06,21.06,0,0,0-2.66-3.49l.85-.49A18.29,18.29,0,0,1,91,252.48Z"/><path d="M78.9,267.47c1,1.27,2.21,1.88,4.54,2.21l5.45.73a5.47,5.47,0,0,0-.46.94l-5.28-.71c-2.42-.35-3.71-1-4.74-2.36A14.17,14.17,0,0,1,76,270L75.49,269a12.68,12.68,0,0,0,2.31-1.32l.51-3.72-2.06-.27.13-.95,3.11.42Zm.34-7a13.92,13.92,0,0,0-1.71-2.63l.85-.54a13.83,13.83,0,0,1,1.78,2.55Zm1.46-.55.12-.88,2.45.33a8.34,8.34,0,0,0-.7-1.45l1-.24a10.34,10.34,0,0,1,.77,1.84l1.8.25a13.82,13.82,0,0,0,1-1.64l1.06.43a11.45,11.45,0,0,1-1,1.35l2.6.35-.12.88-4-.55c-.1.23-.41.78-.59,1.1l3.49.47-1,7.08-7.07-1,1-7.08,2.55.35a10,10,0,0,0,.52-1.1Zm1,7.68,5,.68.19-1.39-5-.68Zm.29-2.18,5,.68.17-1.27-5-.67Zm.28-2,5,.67.17-1.27-5-.68Z"/><path class="cls-7" d="M219.48,244.2l0,.94-4.32.13.05,1.94,6-.18,0,1-6,.18.1,3.33c0,.73-.3,1-1.24,1a10.49,10.49,0,0,1-1.4,0l-.19-1a13,13,0,0,0,1.38.07c.29,0,.37-.1.36-.43l-.09-3-6,.18,0-1,2.37-.07-.1-3.16,1.11,0,.09,3.16,2.48-.07L214,242.5l1.09,0,.06,1.86Zm-10.86,7.92a9.17,9.17,0,0,0,2.78-3.26l1,.39a10.07,10.07,0,0,1-2.91,3.57Zm.68,2.91c4-.65,6.58-2,8.58-4.52l.87.64a14,14,0,0,1-8.84,4.83Zm11.15-2.88a21,21,0,0,0-3.2-3l.77-.62a17.93,17.93,0,0,1,3.26,2.82Z"/><path class="cls-7" d="M211.82,268.09c1.17,1.1,2.48,1.5,4.83,1.44l5.51-.17a5.18,5.18,0,0,0-.31,1l-5.32.16c-2.45,0-3.82-.38-5.06-1.56a14.16,14.16,0,0,1-2.12,2.12l-.65-1a12.8,12.8,0,0,0,2.06-1.68l-.11-3.75-2.07.06,0-.95,3.14-.09Zm-.81-7a14.78,14.78,0,0,0-2.12-2.32l.75-.66a13.68,13.68,0,0,1,2.17,2.21Zm1.35-.78,0-.88,2.48-.08a8.47,8.47,0,0,0-.94-1.32l1-.4a10,10,0,0,1,1.06,1.69l1.82-.05a14.4,14.4,0,0,0,.72-1.78l1.11.25a10.37,10.37,0,0,1-.75,1.49l2.62-.07,0,.88-4,.12c-.06.24-.27.83-.4,1.17l3.51-.1.22,7.14-7.13.21-.21-7.14,2.57-.08a8,8,0,0,0,.33-1.17Zm2.12,3.19,5.05-.15,0-1.29-5,.15Zm.07,2,5-.15,0-1.28-5,.15Zm.06,2.2,5-.16,0-1.4-5,.15Z"/><path d="M219.48,244.2l0,.94-4.32.13.05,1.94,6-.18,0,1-6,.18.1,3.33c0,.73-.3,1-1.24,1a10.49,10.49,0,0,1-1.4,0l-.19-1a13,13,0,0,0,1.38.07c.29,0,.37-.1.36-.43l-.09-3-6,.18,0-1,2.37-.07-.1-3.16,1.11,0,.09,3.16,2.48-.07L214,242.5l1.09,0,.06,1.86Zm-10.86,7.92a9.17,9.17,0,0,0,2.78-3.26l1,.39a10.07,10.07,0,0,1-2.91,3.57Zm.68,2.91c4-.65,6.58-2,8.58-4.52l.87.64a14,14,0,0,1-8.84,4.83Zm11.15-2.88a21,21,0,0,0-3.2-3l.77-.62a17.93,17.93,0,0,1,3.26,2.82Z"/><path d="M211.82,268.09c1.17,1.1,2.48,1.5,4.83,1.44l5.51-.17a5.18,5.18,0,0,0-.31,1l-5.32.16c-2.45,0-3.82-.38-5.06-1.56a14.16,14.16,0,0,1-2.12,2.12l-.65-1a12.8,12.8,0,0,0,2.06-1.68l-.11-3.75-2.07.06,0-.95,3.14-.09Zm-.81-7a14.78,14.78,0,0,0-2.12-2.32l.75-.66a13.68,13.68,0,0,1,2.17,2.21Zm1.35-.78,0-.88,2.48-.08a8.47,8.47,0,0,0-.94-1.32l1-.4a10,10,0,0,1,1.06,1.69l1.82-.05a14.4,14.4,0,0,0,.72-1.78l1.11.25a10.37,10.37,0,0,1-.75,1.49l2.62-.07,0,.88-4,.12c-.06.24-.27.83-.4,1.17l3.51-.1.22,7.14-7.13.21-.21-7.14,2.57-.08a8,8,0,0,0,.33-1.17Zm2.12,3.19,5.05-.15,0-1.29-5,.15Zm.07,2,5-.15,0-1.28-5,.15Zm.06,2.2,5-.16,0-1.4-5,.15Z"/></g></svg>