<svg xmlns="http://www.w3.org/2000/svg" width="700" height="500" viewBox="0 0 700 500"><defs><style>.cls-1,.繧ｰ繝ｩ繝輔ぅ繝け繧ｹ繧ｿ繧､繝ｫ-3,.繧ｰ繝ｩ繝輔ぅ繝け繧ｹ繧ｿ繧､繝ｫ-4{fill:#fff;}.繧ｰ繝ｩ繝輔ぅ繝け繧ｹ繧ｿ繧､繝ｫ-2{fill:#d8eacc;}.cls-3,.cls-4,.繧ｰ繝ｩ繝輔ぅ繝け繧ｹ繧ｿ繧､繝ｫ,.繧ｰ繝ｩ繝輔ぅ繝け繧ｹ繧ｿ繧､繝ｫ-2,.繧ｰ繝ｩ繝輔ぅ繝け繧ｹ繧ｿ繧､繝ｫ-3,.繧ｰ繝ｩ繝輔ぅ繝け繧ｹ繧ｿ繧､繝ｫ-4,.繧ｰ繝ｩ繝輔ぅ繝け繧ｹ繧ｿ繧､繝ｫ-7{stroke:#000;}.繧ｰ繝ｩ繝輔ぅ繝け繧ｹ繧ｿ繧､繝ｫ,.繧ｰ繝ｩ繝輔ぅ繝け繧ｹ繧ｿ繧､繝ｫ-2,.繧ｰ繝ｩ繝輔ぅ繝け繧ｹ繧ｿ繧､繝ｫ-3{stroke-width:2px;}.cls-2{fill:#e83589;}.cls-3,.cls-4,.繧ｰ繝ｩ繝輔ぅ繝け繧ｹ繧ｿ繧､繝ｫ,.繧ｰ繝ｩ繝輔ぅ繝け繧ｹ繧ｿ繧､繝ｫ-7{fill:none;}.cls-3,.cls-4{stroke-linecap:round;stroke-linejoin:round;}.cls-3{stroke-width:1.43px;}.cls-4{stroke-width:1.83px;}.cls-5{fill:#030201;}.cls-6{fill:#242323;}.繧ｰ繝ｩ繝輔ぅ繝け繧ｹ繧ｿ繧､繝ｫ,.繧ｰ繝ｩ繝輔ぅ繝け繧ｹ繧ｿ繧､繝ｫ-3,.繧ｰ繝ｩ繝輔ぅ繝け繧ｹ繧ｿ繧､繝ｫ-4{stroke-miterlimit:10;}.繧ｰ繝ｩ繝輔ぅ繝け繧ｹ繧ｿ繧､繝ｫ-4{stroke-width:1.27px;}.繧ｰ繝ｩ繝輔ぅ繝け繧ｹ繧ｿ繧､繝ｫ-7{stroke-linejoin:bevel;stroke-width:1.5px;}</style></defs><title>kukakuzu</title><g id="レイヤー_2" data-name="レイヤー 2"><rect class="cls-1" width="700" height="500"/><polygon class="繧ｰ繝ｩ繝輔ぅ繝け繧ｹ繧ｿ繧､繝ｫ-2" points="236.01 451.52 476.5 454.19 472.94 155.97 236.01 155.97 236.01 451.52"/><path d="M483.18,124.29h9.19v-2.63h1.31v2.63H497v1.5h-3.35v7h-1.29l-9.21-6.63Zm4.3,1.5c-.78,0-2.11,0-2.94-.09v.07A19.39,19.39,0,0,1,486.7,127l5.67,4v-5.27Z"/><path d="M494.6,118.09H497v2.43H494.6Z"/><path d="M489.13,112c0-2.43-.89-3.77-2.48-3.77-1.42,0-2.3,1.14-2.3,3a4.16,4.16,0,0,0,1.48,3.33l-.95,1a6,6,0,0,1-1.87-4.37c0-2.74,1.44-4.64,3.52-4.64,1.71,0,2.89,1.25,3.14,3.35h.07c.17-2.47,1.49-3.9,3.59-3.9,2.43,0,4,2,4,5.2a6.17,6.17,0,0,1-1.92,4.85l-1-1a5.2,5.2,0,0,0,1.53-3.83c0-2.17-1-3.48-2.7-3.48-1.91,0-2.79,1.36-2.79,4.31v1.11h-1.29Z"/><path d="M490.15,94c4.42,0,7.14,2,7.14,5.1s-2.74,5.1-7.14,5.1S483,102.19,483,99,485.74,94,490.15,94Zm0,8.53c3.57,0,5.78-1.31,5.78-3.45s-2.21-3.42-5.78-3.42-5.8,1.31-5.8,3.45S486.58,102.48,490.15,102.48Z"/><path d="M490.15,82.22c4.42,0,7.14,2,7.14,5.1s-2.74,5.1-7.14,5.1-7.14-2-7.14-5.12S485.74,82.22,490.15,82.22Zm0,8.53c3.57,0,5.78-1.31,5.78-3.45s-2.21-3.41-5.78-3.41-5.8,1.3-5.8,3.45S486.58,90.75,490.15,90.75Z"/><path d="M214.1,120.42h9.2v-2.63h1.31v2.63H228v1.5h-3.35v7h-1.29l-9.22-6.63Zm4.3,1.5c-.78,0-2.1,0-2.94-.09v.07a18.5,18.5,0,0,1,2.16,1.24l5.68,4v-5.27Z"/><path d="M225.53,114.22H228v2.43h-2.43Z"/><path d="M220.05,108.08c0-2.43-.88-3.77-2.48-3.77-1.41,0-2.29,1.14-2.29,3a4.15,4.15,0,0,0,1.47,3.33l-.95,1a6,6,0,0,1-1.87-4.37c0-2.74,1.45-4.64,3.52-4.64,1.72,0,2.89,1.26,3.15,3.35h.06c.17-2.47,1.5-3.9,3.59-3.9,2.43,0,4,2,4,5.21a6.16,6.16,0,0,1-1.92,4.84l-1-1a5.2,5.2,0,0,0,1.53-3.83c0-2.17-1-3.48-2.7-3.48-1.9,0-2.79,1.36-2.79,4.31v1.11h-1.29Z"/><path d="M215.7,95.52a20.14,20.14,0,0,1,1,3.3l-1.28.37a13.3,13.3,0,0,0-1.51-4.11V93.94h14v1.58Z"/><path d="M221.07,78.35c4.42,0,7.14,2,7.14,5.1s-2.74,5.1-7.14,5.1-7.14-2-7.14-5.12S216.67,78.35,221.07,78.35Zm0,8.53c3.57,0,5.78-1.31,5.78-3.45S224.64,80,221.07,80s-5.79,1.3-5.79,3.45S217.5,86.88,221.07,86.88Z"/><rect class="cls-2" x="110.48" y="198.71" width="39.3" height="95.53" transform="translate(-116.34 376.61) rotate(-90)"/><path class="cls-1" d="M99.6,252.32h15.55v2.1H99.6v1.41H97.28V237.27h17.33v2h-15Zm.68-2.34a19.38,19.38,0,0,0,5.42-4,53.53,53.53,0,0,0-4.84-3.52l1.41-1.58c1.72,1.08,3.22,2.14,4.86,3.4a26.84,26.84,0,0,0,2.69-4.43l2.1,1a31.27,31.27,0,0,1-3,4.86c1.16.95,2.7,2.32,4.25,3.79l-1.64,1.72c-1.35-1.35-2.86-2.74-4.08-3.79a21.08,21.08,0,0,1-5.77,4.35Z"/><path class="cls-1" d="M128.76,239.09h-8.69v-1.86h19.7v1.86H131v2h4.44v10.35h-11V241.08h4.33ZM137,252.78v-11.7h2.12v14.75H137v-1.14H122.85v1.14h-2.09V241.08h2.09v11.7Zm-10.57-10v2.51h2.44v-2.51Zm0,4.11v2.8h2.44v-2.8Zm4.48-1.6h2.55v-2.51h-2.55Zm0,4.4h2.55v-2.8h-2.55Z"/><path class="cls-1" d="M163,255.83H160.7v-1.06H147.26v1.06H145V237.08H163Zm-15.7-3H160.7V239H147.26Zm11.51-.89c-1.3-.81-2.84-1.68-4.23-2.39a17.54,17.54,0,0,1-5.37,3L147.89,251a13.55,13.55,0,0,0,4.66-2.44l-.54-.25c-1.35-.67-2.34-1.1-4.1-1.83l.93-1.53a55.92,55.92,0,0,1,5.29,2.18,17.5,17.5,0,0,0,3.85-7l2,.62a23.63,23.63,0,0,1-3.94,7.34l.18.1c1,.52,2.18,1.14,3.76,2.08ZM150,245.15a18.26,18.26,0,0,0-1.66-4.07l1.91-.77a20.3,20.3,0,0,1,1.72,4.05Zm3.57-.81a24.05,24.05,0,0,0-1.68-4.09l1.82-.72a19.28,19.28,0,0,1,1.73,4Z"/><polyline class="cls-3" points="117.71 299.79 117.71 288.05 124.61 299.79 124.61 288.05"/><circle class="cls-4" cx="130.14" cy="329.45" r="24.35"/><polygon points="133.88 342.59 146.74 346.25 123.65 306.6 124.85 352.46 133.88 342.59"/><path class="cls-1" d="M445.46,264.37a77.57,77.57,0,0,1-18.4,0c-7.06-.89-12.35-8.05-12-14.59a625.49,625.49,0,0,0,0-64.23c-.36-6.21,4.65-13,11.36-13.9a79,79,0,0,1,19.68,0c6.7.9,11.72,7.69,11.35,13.9a631.22,631.22,0,0,0,0,64.23C457.8,256.32,452.52,263.48,445.46,264.37Z"/><path class="cls-5" d="M436.26,265.15a79.1,79.1,0,0,1-9.23-.54c-6.89-.87-12.58-7.8-12.17-14.84a633.73,633.73,0,0,0,0-64.21c-.4-6.65,5-13.27,11.55-14.14a78.64,78.64,0,0,1,19.75,0c6.55.87,11.95,7.49,11.56,14.15a630.63,630.63,0,0,0,0,64.2c.41,7-5.28,14-12.17,14.84h0A78.93,78.93,0,0,1,436.26,265.15Zm0-93.88a78.42,78.42,0,0,0-9.81.62c-6.32.84-11.53,7.22-11.15,13.65a631.81,631.81,0,0,1,0,64.26c-.4,6.8,5.1,13.5,11.76,14.34a79.22,79.22,0,0,0,18.34,0c6.66-.84,12.15-7.54,11.76-14.34a631.81,631.81,0,0,1,0-64.26c.38-6.43-4.83-12.81-11.15-13.65A78.55,78.55,0,0,0,436.26,171.27Z"/><path class="cls-6" d="M450.93,252.32H421.59c0,.35.07.69.12,1h29.1Z"/><path class="cls-5" d="M453.92,241.82l-.26-.87a87.9,87.9,0,0,1-2.82-23.38c0-1,0-1.95,0-2.93l0-.06,4.44-10.47,0,.82c.06,2.43.09,4.84.09,7.15A280,280,0,0,1,454,240.91Zm-2.68-27.13c0,1,0,1.93,0,2.88a89.15,89.15,0,0,0,2.55,22.37c.9-8.94,1.35-18.3,1.35-27.86,0-2.05,0-4.17-.07-6.32Z"/><path class="cls-5" d="M418.6,241.82l-.1-.91a282.88,282.88,0,0,1-1.44-28.83c0-2.29,0-4.7.09-7.15l0-.82,4.46,10.53c0,1,0,2,0,2.93A87.5,87.5,0,0,1,418.85,241Zm-1.11-36.06c-.05,2.17-.07,4.29-.07,6.32,0,9.56.45,18.92,1.34,27.86a89.12,89.12,0,0,0,2.56-22.37c0-.95,0-1.92,0-2.88Z"/><path class="cls-1" d="M455,202.1V186.69a16.47,16.47,0,0,0-16.41-16.44H433.9a16.48,16.48,0,0,0-16.42,16.44V202.1a84.2,84.2,0,0,1,37.55,0Z"/><path d="M455.21,202.32l-.22,0a82.09,82.09,0,0,0-18.73-2.12H436a82.35,82.35,0,0,0-18.49,2.12l-.22,0V186.69a16.63,16.63,0,0,1,16.6-16.61h4.72a16.62,16.62,0,0,1,16.59,16.61ZM433.9,170.43a16.28,16.28,0,0,0-16.24,16.26v15.18A83.48,83.48,0,0,1,436,199.8h.5a83.48,83.48,0,0,1,18.35,2.07V186.69a16.28,16.28,0,0,0-16.24-16.26Z"/><path class="cls-1" d="M449.82,238.16a90.06,90.06,0,0,0-27.13,0,39.43,39.43,0,0,0-1.16,14.18H451A39.21,39.21,0,0,0,449.82,238.16Z"/><path d="M451.14,252.51H421.37v-.16a39.8,39.8,0,0,1,1.16-14.24l0-.11.11,0a91.11,91.11,0,0,1,27.19,0l.12,0,0,.11a39.78,39.78,0,0,1,1.16,14.24Zm-29.44-.35h29.12a39.38,39.38,0,0,0-1.14-13.84,90.17,90.17,0,0,0-26.85,0A39.37,39.37,0,0,0,421.7,252.16Z"/><path class="cls-6" d="M451,252.34H421.53l.12,1h29.21Q450.94,252.85,451,252.34Z"/><path class="cls-1" d="M421.65,253.36v7.4a31.75,31.75,0,0,0,14.61,3.16c5.8,0,11-1.22,14.6-3.16v-7.4Z"/><path d="M436.26,264.09c-5.59,0-10.94-1.16-14.69-3.18l-.09-.05v-7.67H451v7.67l-.09.05C447.2,262.93,441.85,264.09,436.26,264.09Zm-14.43-3.44c3.69,2,8.94,3.09,14.43,3.09s10.73-1.13,14.42-3.09v-7.11H421.83Z"/><path class="cls-6" d="M454.91,202l.37-1a71.4,71.4,0,0,0-38,0l.36,1A71.54,71.54,0,0,1,454.91,202Z"/><path class="cls-1" d="M418.13,202l4.56,12.49h27.13L454.39,202A69.47,69.47,0,0,0,418.13,202Z"/><path d="M450,214.62H422.57l-4.68-12.79.19-.05a69.6,69.6,0,0,1,36.35,0l.19.05Zm-27.13-.36H449.7l4.45-12.19a69.38,69.38,0,0,0-35.79,0Z"/><path class="cls-5" d="M450.81,260.75H451a4,4,0,0,0,4-4v-.3A9.75,9.75,0,0,1,450.81,260.75Z"/><path class="cls-5" d="M421.71,260.75h-.19a4,4,0,0,1-4-4v-.3A9.77,9.77,0,0,0,421.71,260.75Z"/><path class="cls-1" d="M460,211.86a1.6,1.6,0,0,0-.29-1.44l-3.27-2.83a.4.4,0,0,0-.17-.09v2.64l3.65,2.05Z"/><path class="cls-5" d="M460.07,212.46l-3.95-2.22v-3l.21.05a.5.5,0,0,1,.25.13l3.28,2.83a1.74,1.74,0,0,1,.34,1.61Zm-3.6-2.42,3.36,1.88,0-.1a1.45,1.45,0,0,0-.22-1.26l-3.16-2.73Z"/><path class="cls-1" d="M412.49,211.86a1.63,1.63,0,0,1,.28-1.44l3.28-2.83a.32.32,0,0,1,.17-.09v2.64l-3.65,2.05Z"/><path class="cls-5" d="M412.45,212.46l-.13-.56a1.74,1.74,0,0,1,.34-1.61l3.27-2.83a.58.58,0,0,1,.26-.13l.21-.05v3Zm3.59-4.63-3.15,2.73a1.45,1.45,0,0,0-.23,1.26l0,.1L416,210Z"/><path class="cls-5" d="M445.92,192.59c0-5.91-1.05-11.11-2.63-14.11A36.66,36.66,0,0,1,445.2,191a45.9,45.9,0,0,1-.48,6.75h.93A46.82,46.82,0,0,0,445.92,192.59Z"/><path class="cls-5" d="M426.59,192.59c0-5.91,1.05-11.11,2.64-14.11a36.64,36.64,0,0,0-1.92,12.5,45.85,45.85,0,0,0,.49,6.75h-.93A46.75,46.75,0,0,1,426.59,192.59Z"/><rect class="cls-1" x="422.69" y="214.44" width="27.13" height="23.72"/><path d="M450,238.34H422.51V214.26H450ZM422.87,238h26.78V214.62H422.87Z"/><path class="cls-1" d="M445.46,381.2a78.64,78.64,0,0,1-18.4,0c-7.06-.89-12.35-8.05-12-14.59a625.49,625.49,0,0,0,0-64.23c-.36-6.22,4.65-13,11.36-13.9a78.08,78.08,0,0,1,19.68,0c6.7.89,11.72,7.68,11.35,13.9a631.22,631.22,0,0,0,0,64.23C457.8,373.15,452.52,380.31,445.46,381.2Z"/><path class="cls-5" d="M436.26,382a79.1,79.1,0,0,1-9.23-.54c-6.89-.86-12.58-7.8-12.17-14.84a633.53,633.53,0,0,0,0-64.2c-.4-6.66,5-13.27,11.55-14.15a79.59,79.59,0,0,1,19.75,0c6.55.88,11.95,7.49,11.56,14.15a630.83,630.83,0,0,0,0,64.21c.41,7-5.28,14-12.17,14.83h0A78.93,78.93,0,0,1,436.26,382Zm0-93.87a78.42,78.42,0,0,0-9.81.61c-6.32.85-11.53,7.23-11.15,13.65a631.81,631.81,0,0,1,0,64.26c-.4,6.8,5.1,13.5,11.76,14.34a78.13,78.13,0,0,0,18.34,0c6.66-.84,12.15-7.54,11.76-14.34a631.81,631.81,0,0,1,0-64.26c.38-6.42-4.83-12.8-11.15-13.65A78.53,78.53,0,0,0,436.26,288.1Z"/><path class="cls-6" d="M450.93,369.15H421.59c0,.34.07.69.12,1h29.1Z"/><path class="cls-5" d="M453.92,358.65l-.26-.88a87.8,87.8,0,0,1-2.82-23.38c0-1,0-1.94,0-2.92l0-.07,4.44-10.47,0,.82c.06,2.44.09,4.84.09,7.16A280,280,0,0,1,454,357.74Zm-2.68-27.14c0,1,0,1.93,0,2.88a89.29,89.29,0,0,0,2.55,22.38c.9-8.94,1.35-18.31,1.35-27.86,0-2.05,0-4.17-.07-6.32Z"/><path class="cls-5" d="M418.6,358.65l-.1-.91a282.88,282.88,0,0,1-1.44-28.83c0-2.3,0-4.7.09-7.16l0-.82,4.46,10.54c0,1,0,2,0,2.92a87.39,87.39,0,0,1-2.82,23.38Zm-1.11-36.06c-.05,2.16-.07,4.28-.07,6.32,0,9.55.45,18.92,1.34,27.86a89.26,89.26,0,0,0,2.56-22.38c0-.95,0-1.92,0-2.88Z"/><path class="cls-1" d="M455,318.92v-15.4a16.47,16.47,0,0,0-16.41-16.44H433.9a16.48,16.48,0,0,0-16.42,16.44v15.4a84.2,84.2,0,0,1,37.55,0Z"/><path d="M455.21,319.14l-.22-.05A81.52,81.52,0,0,0,436.26,317H436a82.92,82.92,0,0,0-18.49,2.11l-.22.05V303.52a16.63,16.63,0,0,1,16.6-16.62h4.72a16.63,16.63,0,0,1,16.59,16.62ZM433.9,287.26a16.27,16.27,0,0,0-16.24,16.26V318.7A82.89,82.89,0,0,1,436,316.62h.5a82.89,82.89,0,0,1,18.35,2.08V303.52a16.27,16.27,0,0,0-16.24-16.26Z"/><path class="cls-1" d="M449.82,355a90.71,90.71,0,0,0-27.13,0,39.45,39.45,0,0,0-1.16,14.18H451A39.23,39.23,0,0,0,449.82,355Z"/><path d="M451.14,369.34H421.37v-.16a39.76,39.76,0,0,1,1.16-14.24l0-.12h.11a90.45,90.45,0,0,1,27.19,0H450l0,.12a39.76,39.76,0,0,1,1.16,14.24ZM421.7,369h29.12a39.4,39.4,0,0,0-1.14-13.84,90.84,90.84,0,0,0-26.85,0A39.39,39.39,0,0,0,421.7,369Z"/><path class="cls-6" d="M451,369.16H421.53l.12,1h29.21C450.91,369.85,451,369.5,451,369.16Z"/><path class="cls-1" d="M421.65,370.19v7.39a31.75,31.75,0,0,0,14.61,3.16c5.8,0,11-1.22,14.6-3.16v-7.39Z"/><path d="M436.26,380.92c-5.59,0-10.94-1.16-14.69-3.18l-.09-.05V370H451v7.68l-.09.05C447.2,379.76,441.85,380.92,436.26,380.92Zm-14.43-3.44c3.69,2,8.94,3.08,14.43,3.08s10.73-1.12,14.42-3.08v-7.11H421.83Z"/><path class="cls-6" d="M454.91,318.83l.37-1a71.6,71.6,0,0,0-38,0l.36,1A71.33,71.33,0,0,1,454.91,318.83Z"/><path class="cls-1" d="M418.13,318.78l4.56,12.48h27.13l4.57-12.48A69.47,69.47,0,0,0,418.13,318.78Z"/><path d="M450,331.44H422.57l-4.68-12.79.19,0a69.81,69.81,0,0,1,36.35,0l.19,0Zm-27.13-.35H449.7l4.45-12.19a69.17,69.17,0,0,0-35.79,0Z"/><path class="cls-5" d="M450.81,377.57H451a4,4,0,0,0,4-4v-.3A9.68,9.68,0,0,1,450.81,377.57Z"/><path class="cls-5" d="M421.71,377.57h-.19a4,4,0,0,1-4-4v-.3A9.7,9.7,0,0,0,421.71,377.57Z"/><path class="cls-1" d="M460,328.69a1.59,1.59,0,0,0-.29-1.44l-3.27-2.83a.4.4,0,0,0-.17-.09V327l3.65,2Z"/><path class="cls-5" d="M460.07,329.29l-3.95-2.22v-3l.21,0a.5.5,0,0,1,.25.13l3.28,2.83a1.76,1.76,0,0,1,.34,1.62Zm-3.6-2.43,3.36,1.88,0-.1a1.46,1.46,0,0,0-.22-1.26l-3.16-2.72Z"/><path class="cls-1" d="M412.49,328.69a1.62,1.62,0,0,1,.28-1.44l3.28-2.83a.32.32,0,0,1,.17-.09V327l-3.65,2Z"/><path class="cls-5" d="M412.45,329.29l-.13-.56a1.76,1.76,0,0,1,.34-1.62l3.27-2.83a.58.58,0,0,1,.26-.13l.21,0v3Zm3.59-4.63-3.15,2.72a1.46,1.46,0,0,0-.23,1.26l0,.1,3.35-1.88Z"/><path class="cls-5" d="M445.92,309.41c0-5.91-1.05-11.1-2.63-14.11a36.68,36.68,0,0,1,1.91,12.51,45.76,45.76,0,0,1-.48,6.74h.93A46.68,46.68,0,0,0,445.92,309.41Z"/><path class="cls-5" d="M426.59,309.41c0-5.91,1.05-11.1,2.64-14.11a36.66,36.66,0,0,0-1.92,12.51,45.71,45.71,0,0,0,.49,6.74h-.93A46.61,46.61,0,0,1,426.59,309.41Z"/><rect class="cls-1" x="422.69" y="331.26" width="27.13" height="23.72"/><path d="M450,355.17H422.51V331.09H450Zm-27.13-.36h26.78V331.44H422.87Z"/><line class="繧ｰ繝ｩ繝輔ぅ繝け繧ｹ繧ｿ繧､繝ｫ" x1="181.83" y1="50.63" x2="584.94" y2="50.63"/><line class="繧ｰ繝ｩ繝輔ぅ繝け繧ｹ繧ｿ繧､繝ｫ" x1="587.17" y1="155.97" x2="199.61" y2="155.97"/><polygon class="繧ｰ繝ｩ繝輔ぅ繝け繧ｹ繧ｿ繧､繝ｫ-3" points="263.17 228.13 263.17 382.72 312.5 382.72 312.5 424.5 401.39 424.5 401.39 184.05 308.94 184.05 308.94 227.61 263.17 228.13"/><rect class="繧ｰ繝ｩ繝輔ぅ繝け繧ｹ繧ｿ繧､繝ｫ-4" x="263.17" y="187.54" width="44.82" height="9.63"/><rect class="繧ｰ繝ｩ繝輔ぅ繝け繧ｹ繧ｿ繧､繝ｫ-4" x="263.17" y="197.16" width="44.82" height="9.63"/><rect class="繧ｰ繝ｩ繝輔ぅ繝け繧ｹ繧ｿ繧､繝ｫ-4" x="263.17" y="206.79" width="44.82" height="20.99"/><polygon points="285.57 222.93 292.34 214.4 278.81 214.4 285.57 222.93"/><polyline class="繧ｰ繝ｩ繝輔ぅ繝け繧ｹ繧ｿ繧､繝ｫ-7" points="243.79 59.09 236.41 50.63 236.42 155.92 229.66 147.08"/><polyline class="繧ｰ繝ｩ繝輔ぅ繝け繧ｹ繧ｿ繧､繝ｫ-7" points="480.61 59.09 473.24 50.63 473.25 155.92 466.48 147.08"/><path d="M333.92,272.42a43.53,43.53,0,0,1-7.05,2.18l-.8-2.72a28.7,28.7,0,0,0,8.79-3.24h2.44v30h-3.38Z"/><path d="M308.2,322.36a36,36,0,0,1-1.2,3.56h20.42c-.29,4.43-1,8.39-1.93,10.39s-2.07,2.62-5.34,2.62c-1.92,0-4.5-.11-6.28-.26l-.66-2.76c2.51.22,4.94.36,6.69.36s2.36-.29,2.87-1.45a34.69,34.69,0,0,0,1.38-6.43H306c-.47,1-1,2.07-1.53,3.09l-2.94-.84a49.1,49.1,0,0,0,3.6-8.28h-8.1v-2.47h34.51v2.47Zm17.95-5.78H302.42V306.27h23.73Zm-20.79-2.32H323.2v-5.6H305.36Z"/><path d="M343.11,321.16a43.6,43.6,0,0,1-4.4,9.85l-1.35-2.91A40.71,40.71,0,0,0,342.85,315h-5v-2.54h5.24v-7.77h2.68v7.77h3.78V315h-3.78v3.38a42.33,42.33,0,0,1,4.47,4.25l-1.52,2.44a41.19,41.19,0,0,0-2.95-3.74v17.87h-2.68Zm20.27,5a27.08,27.08,0,0,0,9.26,8.21L370.93,337a29.75,29.75,0,0,1-9.37-9.31v11.52H359v-11.3a27.89,27.89,0,0,1-9.34,9.59l-1.81-2.21a25.91,25.91,0,0,0,9.52-9.05h-6.72V313.28H359v-2.69H348.74v-2.36H359v-3.56h2.58v3.56H372v2.36H361.56v2.69h8.61v12.93ZM353.2,315.49v3.09H359v-3.09Zm0,5.31V324H359V320.8Zm8.36-2.22h6.07v-3.09h-6.07Zm0,5.38h6.07V320.8h-6.07Z"/><path d="M344.83,82.1h9.68v1.53h-3.93V97.55c0,1.32-.48,1.76-1.91,1.76-.67,0-1.95-.06-2.91-.12l-.36-1.6a26.91,26.91,0,0,0,2.85.17c.55,0,.7-.15.7-.74V83.63h-4.12v11H337v1.81h-1.49V80.19h9.36ZM337,86.4h2.39V81.59H337Zm0,6.83h2.39V87.77H337Zm6.4-11.64h-2.52V86.4h2.52Zm0,6.18h-2.52v5.46h2.52Z"/><path d="M361.53,95c1.7,1.7,3.65,2.35,7.18,2.37H377a7.24,7.24,0,0,0-.5,1.49h-8c-3.68,0-5.71-.74-7.52-2.56a20.64,20.64,0,0,1-3.27,3.08l-.93-1.49a19,19,0,0,0,3.17-2.41V89.8h-3.11V88.37h4.71Zm-.91-10.48a20.77,20.77,0,0,0-3.06-3.57l1.15-1a20.53,20.53,0,0,1,3.15,3.43Zm2.06-1.11V82h3.72a13.51,13.51,0,0,0-1.34-2l1.46-.57A15.06,15.06,0,0,1,368,82h2.73a21,21,0,0,0,1.15-2.62l1.66.42a17.74,17.74,0,0,1-1.2,2.2h3.93v1.33h-6.07c-.1.35-.44,1.24-.65,1.74h5.27V95.81H364.17V85.1H368a13.53,13.53,0,0,0,.54-1.74Zm3.05,4.87h7.56V86.3h-7.56Zm0,3h7.56V89.36h-7.56Zm0,3.3h7.56v-2.1h-7.56Z"/><path d="M261.53,118.29a24.87,24.87,0,0,0-3.28-3.23l1.11-1.16a20,20,0,0,1,3.34,3.15Zm-2.78,8.55a31.66,31.66,0,0,0,3.7-6.89l1.32,1a36,36,0,0,1-3.67,7.1Zm3.53-13.9a22.83,22.83,0,0,0-3.19-3.28l1.09-1.09a19.41,19.41,0,0,1,3.28,3.13Zm8.32,6,0,0a45.3,45.3,0,0,1-3,6.51l-.08.19,1.55-.12c1.56-.13,3.93-.38,5.8-.63-.65-1.1-1.41-2.23-2.21-3.34l1.33-.74a39,39,0,0,1,4.13,6.36l-1.49,1c-.48-1-.69-1.41-1.05-2l-.21,0c-2.33.47-7.28,1.12-10.73,1.41l-.54-1.66.84,0,.25,0,.57,0a48.66,48.66,0,0,0,3.1-7h-5.29v-1.41H270v-4.24H264.7V111.7H270v-3.38h1.63v3.38h5.59v1.45H271.6v4.24h6.68v1.41h-7.64Z"/><path d="M291.36,109.68V121h3.26v1.62h-3.26v4.14h-1.84v-4.14h-8.65v-1.6l8.19-11.38ZM289.52,115c0-1,0-2.61.1-3.64h-.08A23.29,23.29,0,0,1,288,114l-5,7h6.51Z"/><path d="M299.24,125.14c.55-2.25,2.4-4.5,5.23-6.39l.55-.35c2.93-1.91,3.71-2.84,3.71-4.37,0-1.72-1.43-2.88-3.59-2.88a5.25,5.25,0,0,0-4.34,2.25l-1.33-1.11a6.76,6.76,0,0,1,5.76-2.82c3.27,0,5.66,1.94,5.66,4.6,0,2.12-.82,3.11-4.57,5.5l-.76.49c-2.5,1.63-4.07,3.44-4.26,5h9.85v1.79H299.24Z"/><path d="M325.74,128.27h-1.61v-6.72a20.53,20.53,0,0,1-8.17,5.88l-1-1.35a20.53,20.53,0,0,0,7.77-4.93h-7.68v-1.41h9.05v-2.29h1.61v2.29h9.2v1.41h-7.77a22.17,22.17,0,0,0,7.9,4.45l-1,1.47a21.3,21.3,0,0,1-8.3-5.65Zm5.69-18a19,19,0,0,1-4.83,4.39,28.91,28.91,0,0,0,8,2.48l-.86,1.43a32.43,32.43,0,0,1-8.54-3,29.23,29.23,0,0,1-8.8,3.22l-.84-1.31a27.32,27.32,0,0,0,8.33-2.75,26.21,26.21,0,0,1-3-2.64,17.75,17.75,0,0,1-3.65,2.25l-1-1.1a14.36,14.36,0,0,0,6.28-5l1.59.32c-.31.48-.4.57-.69,1h7.18Zm-9.15.53a3.39,3.39,0,0,1-.34.33,16,16,0,0,0,3.3,2.75,18.9,18.9,0,0,0,3.76-3.08Z"/><path d="M343.19,111.62a26.09,26.09,0,0,1-4.11,1.23l-.42-1.51a20.29,20.29,0,0,0,5.06-1.87h1.36V126.8h-1.89Z"/><path d="M356.32,121.61l.13,0,.08,0c.78-.26,1.76-.63,2.37-.91l.17,1.49a57.15,57.15,0,0,1-6.78,2.48L351.7,123c1.18-.32,1.34-.36,2.48-.7l.5-.14v-9.87H352v-1.49h6.66v1.49h-2.29Zm1.49,5.5a12.6,12.6,0,0,0,4.41-2.9l1.28.86a15.35,15.35,0,0,1-4.53,3.26ZM370,112.77V124H359.93V112.77h3.28a17.72,17.72,0,0,0,.56-2.14h-5.25v-1.39h13v1.39h-6.09a17.73,17.73,0,0,1-.71,2.14Zm-8.53,1.28v2h6.95v-2Zm0,5.23h6.95v-2h-6.95Zm0,3.38h6.95V120.5h-6.95Zm8.86,5.58a28.09,28.09,0,0,0-4.19-3.14l1.15-.93a27.8,27.8,0,0,1,4.28,2.9Z"/><path d="M379.94,111.62a26.09,26.09,0,0,1-4.11,1.23l-.42-1.51a20.29,20.29,0,0,0,5.06-1.87h1.36V126.8h-1.89Z"/><path d="M395,118.54a21.52,21.52,0,0,1-.69,2.06h11.8a20,20,0,0,1-1.12,6c-.52,1.17-1.19,1.51-3.08,1.51-1.11,0-2.61-.06-3.63-.15l-.38-1.59c1.45.12,2.85.21,3.86.21s1.37-.17,1.66-.84a19.59,19.59,0,0,0,.8-3.72H393.72c-.27.59-.57,1.2-.88,1.78l-1.7-.48a29,29,0,0,0,2.08-4.79h-4.69v-1.42h20v1.42Zm10.37-3.33H391.64v-6h13.71Zm-12-1.35h10.31v-3.23H393.34Z"/><path d="M415.5,123.9c1.7,1.7,3.65,2.35,7.18,2.37h8.25a7.45,7.45,0,0,0-.5,1.49h-8c-3.68,0-5.71-.73-7.52-2.56a20.77,20.77,0,0,1-3.28,3.09l-.92-1.49a19.67,19.67,0,0,0,3.17-2.42v-5.63h-3.11v-1.42h4.71Zm-.91-10.48a20.77,20.77,0,0,0-3.06-3.57l1.15-1a20.48,20.48,0,0,1,3.15,3.42Zm2.06-1.11V111h3.72a12.48,12.48,0,0,0-1.35-2l1.47-.57A14.75,14.75,0,0,1,422,111h2.72a20.41,20.41,0,0,0,1.16-2.63l1.66.42a17.19,17.19,0,0,1-1.2,2.21h3.93v1.32h-6.07c-.1.36-.44,1.24-.65,1.74h5.27v10.71H418.14V114.05H422a13.53,13.53,0,0,0,.54-1.74Zm3.05,4.87h7.55v-1.93H419.7Zm0,3h7.55v-1.91H419.7Zm0,3.3h7.55v-2.1H419.7Z"/><path d="M441.16,116h-2.71v3.32h2.73v1.39h-2.73v4.39c.57-.15,2.16-.61,3.21-.95l.15,1.37a75.15,75.15,0,0,1-8.27,2.35l-.55-1.49,1.11-.23V118h1.43v7.87l.53-.13.5-.12.44-.11V116h-3.06v-6.82h7.22Zm-5.73-1.36h4.24v-4h-4.24Zm16.06-4.12a17.5,17.5,0,0,1-3.09,5.06,17.11,17.11,0,0,0,4.81,2.92l-.8,1.39a18.47,18.47,0,0,1-5-3.28,17.36,17.36,0,0,1-5.43,3.47l-.84-1.3a14,14,0,0,0,5.25-3.22,14,14,0,0,1-1.89-2.66l-.09.1,0,.06A13.49,13.49,0,0,1,442.5,115l-1-1.12a12.6,12.6,0,0,0,3.85-5.56l1.55.25c-.23.55-.3.71-.46,1.07h4.07Zm-.09,17.75h-1.53V127h-5.35v1.24H443V120h8.42Zm-6.88-2.63h5.35V121.4h-5.35Zm.73-13.88a13.63,13.63,0,0,0,2.08,2.82A14.31,14.31,0,0,0,449.6,111h-3.91c-.08.14-.16.29-.35.61Z"/></g></svg>