<svg xmlns="http://www.w3.org/2000/svg" width="700" height="500" viewBox="0 0 700 500"><defs><style>.cls-1,.繧ｰ繝ｩ繝輔ぅ繝け繧ｹ繧ｿ繧､繝ｫ-3,.繧ｰ繝ｩ繝輔ぅ繝け繧ｹ繧ｿ繧､繝ｫ-4{fill:#fff;}.繧ｰ繝ｩ繝輔ぅ繝け繧ｹ繧ｿ繧､繝ｫ-2{fill:#d8eacc;}.cls-2,.cls-3,.cls-7,.cls-8,.cls-9,.繧ｰ繝ｩ繝輔ぅ繝け繧ｹ繧ｿ繧､繝ｫ-2,.繧ｰ繝ｩ繝輔ぅ繝け繧ｹ繧ｿ繧､繝ｫ-3,.繧ｰ繝ｩ繝輔ぅ繝け繧ｹ繧ｿ繧､繝ｫ-4{stroke:#000;}.cls-7,.cls-8,.cls-9,.繧ｰ繝ｩ繝輔ぅ繝け繧ｹ繧ｿ繧､繝ｫ-2,.繧ｰ繝ｩ繝輔ぅ繝け繧ｹ繧ｿ繧､繝ｫ-3{stroke-width:2px;}.cls-2,.cls-3,.cls-7,.cls-8,.cls-9{fill:none;}.cls-2,.cls-3{stroke-linecap:round;stroke-linejoin:round;}.cls-2{stroke-width:1.43px;}.cls-3{stroke-width:1.83px;}.cls-7,.cls-9,.繧ｰ繝ｩ繝輔ぅ繝け繧ｹ繧ｿ繧､繝ｫ-3,.繧ｰ繝ｩ繝輔ぅ繝け繧ｹ繧ｿ繧､繝ｫ-4{stroke-miterlimit:10;}.cls-4{fill:#030201;}.cls-5{fill:#242323;}.cls-6{fill:#e83589;}.繧ｰ繝ｩ繝輔ぅ繝け繧ｹ繧ｿ繧､繝ｫ-4{stroke-width:1.27px;}.cls-8{stroke-linejoin:bevel;}.cls-9{stroke-dasharray:5.9 5.9;}</style></defs><title>kukakuzu</title><g id="レイヤー_2" data-name="レイヤー 2"><rect class="cls-1" width="700" height="500"/><polygon class="繧ｰ繝ｩ繝輔ぅ繝け繧ｹ繧ｿ繧､繝ｫ-2" points="42.58 179.84 42.58 363 404.98 358.95 399.32 173.87 42.58 179.84"/><polyline class="cls-2" points="229.69 78.48 229.69 66.74 236.6 78.48 236.6 66.74"/><circle class="cls-3" cx="239.71" cy="109.13" r="24.35"/><polygon points="242.7 122.46 255.34 126.82 234.5 85.96 233.15 131.81 242.7 122.46"/><path d="M488.68,408a11.26,11.26,0,0,1-2.8-3.76,12.48,12.48,0,0,1-1.34-5.31,13,13,0,0,1,4.14-9.07h1.4c-2.79,3.19-4,5.88-4,9.09s1.19,5.88,4,9.05Z"/><path d="M508.75,392.38v1.28h-5.9v2.65H511v1.32h-8.16v4.55c0,1-.46,1.35-1.74,1.35a15.39,15.39,0,0,1-1.91-.09l-.21-1.36a15.43,15.43,0,0,0,1.87.15c.4,0,.52-.11.52-.57v-4h-8.14v-1.32h3.23V392H498v4.32h3.38v-6.47h1.49v2.54Zm-15.13,10.35a12.5,12.5,0,0,0,3.92-4.34l1.32.58a13.83,13.83,0,0,1-4.11,4.75Zm.8,4c5.52-.72,9.06-2.44,11.89-5.8l1.16.89c-3.15,3.54-7,5.47-12.24,6.23Zm15.32-3.47A28.14,28.14,0,0,0,505.5,399l1.07-.82a25.8,25.8,0,0,1,4.34,4Z"/><path d="M517.58,404c1.55,1.55,3.33,2.14,6.54,2.16h7.51a6.21,6.21,0,0,0-.46,1.36h-7.26c-3.35,0-5.2-.67-6.84-2.33a18.72,18.72,0,0,1-3,2.8l-.84-1.35a18,18,0,0,0,2.88-2.2v-5.12H513.3V398h4.28Zm-.82-9.53a19.42,19.42,0,0,0-2.79-3.25l1-.88a18.92,18.92,0,0,1,2.87,3.12Zm1.87-1v-1.21H522a12,12,0,0,0-1.23-1.83l1.34-.52a14.62,14.62,0,0,1,1.38,2.35H526a19.47,19.47,0,0,0,1-2.39l1.51.39a16.56,16.56,0,0,1-1.09,2H531v1.21h-5.52c-.09.32-.4,1.12-.59,1.58h4.79v9.74H520v-9.74h3.52a13.32,13.32,0,0,0,.49-1.58Zm2.77,4.43h6.88v-1.76H521.4Zm0,2.77h6.88v-1.74H521.4Zm0,3h6.88v-1.91H521.4Z"/><path d="M546,394v1.2h-6.75v-1.18a22.85,22.85,0,0,1-4.94,2.71l-.9-1.2a16.93,16.93,0,0,0,8.21-5.73h1.61a20.4,20.4,0,0,0,8.58,5.35l-.83,1.27a23.26,23.26,0,0,1-8.48-5.44,16.09,16.09,0,0,1-3.21,3Zm-2,7.18a19.53,19.53,0,0,0,2.1-3H536.2V397h11.19l.9.71a29,29,0,0,1-2.48,3.55h3.59V408h-1.55v-1H537.59v1H536v-6.76Zm-6.42,4.55h10.26v-3.34H537.59Z"/><path d="M561.44,390.54l-.3,2.31h3.43v1.34H561l-.49,3.67a4.22,4.22,0,0,1,.44,2,4.35,4.35,0,0,1-.54,2.28,6.55,6.55,0,0,0-.78,2.23c0,.79.95,1.05,3.84,1.05A10.93,10.93,0,0,0,567,405c.71-.26,1-.69,1-1.62a8.17,8.17,0,0,0-1.11-3.82l1.34-.23a9.09,9.09,0,0,1,1.3,4.22c0,2.56-1.28,3.25-6.12,3.25-4,0-5.12-.44-5.12-2a3.22,3.22,0,0,1,.14-.92,4.87,4.87,0,0,1-1.07.2,2.43,2.43,0,0,1-1.86-1,4.26,4.26,0,0,1-.65-2.52c0-2.24,1.53-4.07,3.4-4.07a2.59,2.59,0,0,1,1,.19l.32-2.58h-4.41v-1.34h4.59l.32-2.44Zm-5.25,10.11c0,1.32.55,2.16,1.41,2.16s2-1.53,2-3.06c0-1.16-.55-1.95-1.38-1.95C557.12,397.8,556.19,399.12,556.19,400.65Zm14.08-3.57a20,20,0,0,0-3.75-4.28l1.07-.9A21.67,21.67,0,0,1,571.4,396Z"/><path d="M574.55,408c2.77-3.19,4-5.88,4-9.07s-1.17-5.86-4-9.07H576a11.49,11.49,0,0,1,2.81,3.76,12.46,12.46,0,0,1,1.33,5.31A13,13,0,0,1,576,408Z"/><path d="M421.92,193.23v1.2h-5.57v2.51H424v1.24h-7.69v4.28c0,.94-.43,1.28-1.64,1.28a13.76,13.76,0,0,1-1.8-.09l-.19-1.28a15.56,15.56,0,0,0,1.76.15c.38,0,.49-.11.49-.54v-3.8H407.3v-1.24h3v-4.07h1.42v4.07H415v-6.11h1.4v2.4ZM407.66,203a11.89,11.89,0,0,0,3.69-4.09l1.24.54a12.94,12.94,0,0,1-3.87,4.48Zm.75,3.76c5.21-.69,8.54-2.31,11.2-5.48l1.1.85c-3,3.33-6.57,5.15-11.54,5.87Zm14.44-3.28a27.18,27.18,0,0,0-4-4l1-.77a23.62,23.62,0,0,1,4.09,3.74Z"/><path d="M411.15,223.63c1.46,1.46,3.13,2,6.16,2h7.07a6.76,6.76,0,0,0-.43,1.27h-6.84c-3.15,0-4.9-.63-6.45-2.19a18,18,0,0,1-2.81,2.65l-.79-1.28a17.67,17.67,0,0,0,2.72-2.07v-4.83h-2.66V218h4Zm-.78-9a17.94,17.94,0,0,0-2.62-3.06l1-.83a18.39,18.39,0,0,1,2.7,2.93Zm1.77-1v-1.13h3.19a11.37,11.37,0,0,0-1.16-1.73l1.26-.49a12.64,12.64,0,0,1,1.3,2.22h2.34a17.88,17.88,0,0,0,1-2.25l1.42.36a13.61,13.61,0,0,1-1,1.89h3.36v1.13h-5.2c-.09.31-.38,1.07-.56,1.5h4.52v9.18h-9.16v-9.18h3.31a11.62,11.62,0,0,0,.47-1.5Zm2.61,4.18h6.48v-1.66h-6.48Zm0,2.61h6.48v-1.64h-6.48Zm0,2.83h6.48v-1.8h-6.48Z"/><path d="M651.56,193.23v1.2H646v2.51h7.69v1.24H646v4.28c0,.94-.43,1.28-1.64,1.28a13.66,13.66,0,0,1-1.8-.09l-.2-1.28a15.75,15.75,0,0,0,1.76.15c.38,0,.49-.11.49-.54v-3.8h-7.67v-1.24h3v-4.07h1.43v4.07h3.18v-6.11H646v2.4ZM637.3,203A11.89,11.89,0,0,0,641,198.9l1.24.54a12.84,12.84,0,0,1-3.87,4.48Zm.76,3.76c5.2-.69,8.53-2.31,11.2-5.48l1.09.85c-3,3.33-6.57,5.15-11.54,5.87Zm14.44-3.28a27.7,27.7,0,0,0-4-4l1-.77a24.37,24.37,0,0,1,4.09,3.74Z"/><path d="M640.79,223.63c1.46,1.46,3.14,2,6.16,2H654a6.12,6.12,0,0,0-.43,1.27h-6.85c-3.15,0-4.89-.63-6.44-2.19a18.48,18.48,0,0,1-2.81,2.65l-.79-1.28a18.16,18.16,0,0,0,2.72-2.07v-4.83h-2.67V218h4Zm-.77-9a18.42,18.42,0,0,0-2.63-3.06l1-.83a17.94,17.94,0,0,1,2.7,2.93Zm1.76-1v-1.13H645a11.29,11.29,0,0,0-1.15-1.73l1.26-.49a13.3,13.3,0,0,1,1.3,2.22h2.34a19.46,19.46,0,0,0,1-2.25l1.42.36a14.79,14.79,0,0,1-1,1.89h3.37v1.13h-5.2c-.09.31-.38,1.07-.56,1.5h4.52v9.18h-9.17v-9.18h3.32a13.13,13.13,0,0,0,.46-1.5Zm2.61,4.18h6.49v-1.66h-6.49Zm0,2.61h6.49v-1.64h-6.49Zm0,2.83h6.49v-1.8h-6.49Z"/><path d="M501.44,367.73a25.64,25.64,0,0,1-3.92,1.21l-.44-1.52a16.17,16.17,0,0,0,4.88-1.79h1.35v16.64h-1.87Z"/><path d="M521.81,374.1c0,5.24-2.32,8.47-6.06,8.47s-6.05-3.25-6.05-8.47,2.32-8.47,6.08-8.47S521.81,368.88,521.81,374.1Zm-10.13,0c0,4.24,1.55,6.86,4.1,6.86s4.05-2.62,4.05-6.86-1.55-6.88-4.1-6.88S511.68,369.86,511.68,374.1Z"/><path d="M526.3,379.39v2.88h-2.88v-2.88Z"/><path d="M538.77,374.1a4.86,4.86,0,0,1-4.4,2.76,5.15,5.15,0,0,1-5.27-5.36,6.11,6.11,0,0,1,1.66-4.16,5.3,5.3,0,0,1,4-1.71c3.61,0,5.89,2.86,5.89,7.4,0,6.31-2.68,9.2-9.09,9.8l-.83-1.49c5.18-.22,7.7-2.48,8.09-7.24ZM531,371.34c0,2.36,1.45,4,3.59,4a3.77,3.77,0,0,0,2.87-1.41,4.34,4.34,0,0,0,1-2.56,5,5,0,0,0-1.12-3.05,3.21,3.21,0,0,0-2.59-1.13A4,4,0,0,0,531,371.34Z"/><path d="M553.73,365.93v1.63h-7.66l-.63,5.73h.08a5.45,5.45,0,0,1,3.77-1.37,5,5,0,0,1,5.41,5.17c0,3.2-2.44,5.48-5.89,5.48a8.22,8.22,0,0,1-5.59-1.93l1.11-1.3a7.09,7.09,0,0,0,4.46,1.6,3.77,3.77,0,0,0,3.89-3.85,3.47,3.47,0,0,0-3.73-3.66,4.72,4.72,0,0,0-3.71,1.74l-1.7-.28.89-9Z"/><path d="M568.86,374.1c0,5.24-2.32,8.47-6.05,8.47s-6.06-3.25-6.06-8.47,2.32-8.47,6.08-8.47S568.86,368.88,568.86,374.1Zm-10.13,0c0,4.24,1.55,6.86,4.1,6.86s4-2.62,4-6.86-1.55-6.88-4.09-6.88S558.73,369.86,558.73,374.1Z"/><polygon class="繧ｰ繝ｩ繝輔ぅ繝け繧ｹ繧ｿ繧､繝ｫ-3" points="287.01 236.21 264.36 236.21 264.36 196.1 65.47 196.1 65.47 348 264.36 348 264.36 258.34 287.01 258.34 287.01 236.21"/><path class="cls-1" d="M285.31,317.08a67.73,67.73,0,0,1,0-18c1-6.91,8.84-12.08,16-11.71q35.3,1.61,70.59,0c6.83-.35,14.29,4.55,15.27,11.11a68.21,68.21,0,0,1,0,19.25c-1,6.56-8.44,11.47-15.27,11.11q-35.3-1.62-70.59,0C294.15,329.16,286.28,324,285.31,317.08Z"/><path class="cls-4" d="M284.45,308.09a68.25,68.25,0,0,1,.6-9c.95-6.74,8.57-12.31,16.31-11.91,23.4,1.06,47.14,1.05,70.56,0,7.31-.38,14.58,4.9,15.54,11.31a68.63,68.63,0,0,1,0,19.31c-1,6.41-8.23,11.69-15.55,11.31-23.41-1.07-47.15-1.09-70.56,0-7.73.4-15.35-5.16-16.3-11.91h0A68.1,68.1,0,0,1,284.45,308.09Zm103.17,0a68.53,68.53,0,0,0-.67-9.6c-.93-6.18-7.94-11.27-15-10.9-23.44,1.07-47.2,1.08-70.62,0-7.48-.39-14.84,5-15.76,11.5a68.2,68.2,0,0,0,0,17.94c.92,6.51,8.28,11.88,15.76,11.5,23.42-1.06,47.18-1.05,70.61,0,7.07.37,14.08-4.73,15-10.91A68.5,68.5,0,0,0,387.62,308.09Z"/><path class="cls-5" d="M298.55,322.44v-28.7l-1.13.11v28.47Z"/><path class="cls-4" d="M310.09,325.36l1-.25a107.4,107.4,0,0,1,25.69-2.76c1.06,0,2.14,0,3.22,0H340l11.51,4.36-.91,0c-2.67.05-5.31.08-7.86.08-10.88,0-21.54-.47-31.68-1.41Zm29.82-2.62c-1.06,0-2.12,0-3.17,0a109.71,109.71,0,0,0-24.58,2.5c9.82.87,20.11,1.31,30.61,1.31,2.26,0,4.59,0,7-.06Z"/><path class="cls-4" d="M310.09,290.81l1-.09c10.14-.94,20.8-1.41,31.68-1.41,2.52,0,5.17,0,7.86.09l.91,0L340,293.78c-1.08,0-2.16,0-3.22,0a107.4,107.4,0,0,1-25.69-2.76Zm39.63-1.08c-2.38-.05-4.71-.07-7-.07-10.5,0-20.79.44-30.61,1.31a109.12,109.12,0,0,0,24.58,2.5l3.17,0Z"/><path class="cls-1" d="M353.75,326.45h16.92c9.94,0,18.07-7.22,18.07-16.06v-4.61c0-8.83-8.13-16.06-18.07-16.06H353.75a73.54,73.54,0,0,1,0,36.73Z"/><path d="M353.5,326.63l.06-.22a71.57,71.57,0,0,0,2.32-18.32v-.24a72.57,72.57,0,0,0-2.32-18.09l-.06-.21h17.17c10.07,0,18.27,7.28,18.27,16.23v4.61c0,8.95-8.2,16.24-18.27,16.24Zm35.05-20.85c0-8.76-8-15.88-17.88-15.88H354a72.3,72.3,0,0,1,2.28,18v.48A72.42,72.42,0,0,1,354,326.28h16.68c9.86,0,17.88-7.13,17.88-15.89Z"/><path class="cls-1" d="M314.12,321.36a78.83,78.83,0,0,0,0-26.54,48.35,48.35,0,0,0-15.59-1.13v28.8A48.63,48.63,0,0,0,314.12,321.36Z"/><path d="M298.34,322.65V293.53l.17,0a48.76,48.76,0,0,1,15.66,1.14l.12,0,0,.11a79.12,79.12,0,0,1,0,26.59l0,.12-.12,0a49,49,0,0,1-15.66,1.13Zm.39-28.81v28.49a48.56,48.56,0,0,0,15.21-1.11,78.74,78.74,0,0,0,0-26.26A48.57,48.57,0,0,0,298.73,293.84Z"/><path class="cls-5" d="M298.53,322.49v-28.8l-1.12.11v28.57Z"/><path class="cls-1" d="M297.41,293.8h-8.13a31.14,31.14,0,0,0,0,28.57h8.13Z"/><path d="M285.61,308.09c0-5.47,1.28-10.71,3.5-14.37l.05-.09h8.44v28.92h-8.44l-.05-.1C286.89,318.79,285.61,313.55,285.61,308.09ZM289.4,294a28.32,28.32,0,0,0-3.4,14.11c0,5.36,1.24,10.5,3.4,14.11h7.81V294Z"/><path class="cls-5" d="M353.85,326.33l1.1.36a62.62,62.62,0,0,0,0-37.21l-1.1.36A62.5,62.5,0,0,1,353.85,326.33Z"/><path class="cls-1" d="M353.91,290.35l-13.73,4.47v26.54l13.73,4.46A60.89,60.89,0,0,0,353.91,290.35Z"/><path d="M340,321.48V294.69L354,290.12l.06.19a61,61,0,0,1,0,35.56l-.06.18Zm.39-26.54v26.29l13.39,4.36a60.51,60.51,0,0,0,0-35Z"/><path class="cls-4" d="M289.29,322.32v.18a4.21,4.21,0,0,0,4.41,3.93H294A10.19,10.19,0,0,1,289.29,322.32Z"/><path class="cls-4" d="M289.29,293.85v-.18a4.21,4.21,0,0,1,4.41-3.93H294A10.24,10.24,0,0,0,289.29,293.85Z"/><path class="cls-1" d="M343,331.34a2,2,0,0,0,1.58-.28l3.11-3.21a.47.47,0,0,0,.1-.16h-2.9l-2.25,3.57Z"/><path class="cls-4" d="M342.36,331.38l2.43-3.87h3.26l-.05.21a.57.57,0,0,1-.14.25l-3.11,3.2a2.15,2.15,0,0,1-1.78.34Zm2.66-3.52L343,331.14l.11,0a1.72,1.72,0,0,0,1.39-.23l3-3.08Z"/><path class="cls-1" d="M343,284.84a1.92,1.92,0,0,1,1.58.28l3.11,3.2a.42.42,0,0,1,.1.17h-2.9l-2.25-3.58Z"/><path class="cls-4" d="M342.36,284.8l.61-.13a2.15,2.15,0,0,1,1.78.33l3.11,3.21a.49.49,0,0,1,.14.24l.05.21h-3.26Zm5.09,3.51-3-3.08a1.77,1.77,0,0,0-1.39-.22l-.11,0,2.07,3.28Z"/><path class="cls-4" d="M364.2,317.54c6.49,0,12.2-1,15.5-2.57A45.24,45.24,0,0,1,366,316.84a55.25,55.25,0,0,1-7.41-.48v.91A56.47,56.47,0,0,0,364.2,317.54Z"/><path class="cls-4" d="M364.2,298.63c6.49,0,12.2,1,15.5,2.58A44.93,44.93,0,0,0,366,299.34a57,57,0,0,0-7.41.47v-.91C360.33,298.73,362.23,298.63,364.2,298.63Z"/><rect class="cls-1" x="313.88" y="295.05" width="26.54" height="26.07" transform="translate(635.23 -19.06) rotate(90)"/><path d="M313.92,321.53V294.64h26.46v26.89Zm.39-26.54v26.19H340V295Z"/><path d="M103.07,261.29a65.46,65.46,0,0,1-10.65,3.29l-1.2-4.11c5-1,10.7-3.13,13.27-4.89h3.68v45.27h-5.1Z"/><path d="M137.74,279.29a52.69,52.69,0,0,1-1.81,5.38h30.84c-.44,6.69-1.54,12.67-2.91,15.69s-3.12,3.95-8.06,3.95c-2.91,0-6.81-.16-9.49-.38l-1-4.17c3.78.32,7.46.54,10.09.54s3.57-.43,4.34-2.19a51,51,0,0,0,2.08-9.71H134.45c-.71,1.53-1.48,3.13-2.3,4.66l-4.45-1.26a74.72,74.72,0,0,0,5.44-12.51H120.9v-3.73H173v3.73Zm27.11-8.73H129V255h35.83Zm-31.38-3.51h26.94V258.6H133.47Z"/><path d="M187.18,277.48a64.62,64.62,0,0,1-6.64,14.87l-2-4.39a61.77,61.77,0,0,0,8.29-19.81h-7.52v-3.84h7.9V252.57h4.06v11.74H197v3.84h-5.71v5.1a62.87,62.87,0,0,1,6.75,6.42l-2.3,3.68a60.57,60.57,0,0,0-4.45-5.65v27h-4.06Zm30.62,7.63a41.14,41.14,0,0,0,14,12.4l-2.58,3.84a44.88,44.88,0,0,1-14.15-14.05v17.39h-3.9V287.63a42.45,42.45,0,0,1-14.1,14.49l-2.74-3.35a39.08,39.08,0,0,0,14.37-13.66H198.54V265.57h12.62v-4.06H195.69v-3.57h15.47v-5.37h3.9v5.37h15.8v3.57h-15.8v4.06h13v19.54Zm-15.36-16.19v4.66h8.72v-4.66Zm0,8v4.77h8.72v-4.77Zm12.62-3.35h9.16v-4.66h-9.16Zm0,8.12h9.16v-4.77h-9.16Z"/><rect class="cls-6" x="100.65" y="32.7" width="39.3" height="95.53" transform="translate(39.84 200.77) rotate(-90)"/><path class="cls-1" d="M89.77,86.31h15.55V88.4H89.77v1.41H87.45V71.25h17.33v2h-15ZM90.45,84a19.34,19.34,0,0,0,5.42-4A51.66,51.66,0,0,0,91,76.42l1.41-1.58c1.72,1.08,3.22,2.14,4.86,3.4A27.37,27.37,0,0,0,100,73.8l2.1,1a31.62,31.62,0,0,1-3,4.85c1.16,1,2.7,2.32,4.25,3.8l-1.64,1.72c-1.35-1.35-2.86-2.74-4.08-3.8a20.91,20.91,0,0,1-5.77,4.36Z"/><path class="cls-1" d="M118.93,73.08h-8.69V71.21h19.7v1.87h-8.81v2h4.44V85.42h-11V75.07h4.33Zm8.21,13.68V75.07h2.12V89.81h-2.12V88.67H113v1.14h-2.09V75.07H113V86.76Zm-10.57-10v2.51H119V76.77Zm0,4.1v2.8H119v-2.8Zm4.48-1.59h2.55V76.77h-2.55Zm0,4.39h2.55v-2.8h-2.55Z"/><path class="cls-1" d="M153.13,89.81h-2.26V88.75H137.43v1.06h-2.24V71.07h17.94Zm-15.7-3h13.44V73H137.43Zm11.51-.9c-1.3-.81-2.84-1.68-4.23-2.38a17.75,17.75,0,0,1-5.37,3L138.06,85a13.56,13.56,0,0,0,4.66-2.45l-.54-.25c-1.35-.66-2.34-1.09-4.1-1.82l.93-1.54c2.09.77,3.3,1.25,5.29,2.18a17.36,17.36,0,0,0,3.85-7l2,.62A23.57,23.57,0,0,1,146.23,82l.18.1c1,.52,2.18,1.14,3.76,2.07Zm-8.73-6.78a18.36,18.36,0,0,0-1.66-4.06l1.91-.77a20.2,20.2,0,0,1,1.72,4Zm3.57-.81a24.27,24.27,0,0,0-1.68-4.08l1.82-.73a19.35,19.35,0,0,1,1.73,4Z"/><rect class="繧ｰ繝ｩ繝輔ぅ繝け繧ｹ繧ｿ繧､繝ｫ-4" x="267.92" y="210.76" width="43.26" height="7.2" transform="translate(503.91 -75.19) rotate(90)"/><rect class="繧ｰ繝ｩ繝輔ぅ繝け繧ｹ繧ｿ繧､繝ｫ-4" x="275.12" y="210.76" width="43.26" height="7.2" transform="translate(511.1 -82.39) rotate(90)"/><rect class="繧ｰ繝ｩ繝輔ぅ繝け繧ｹ繧ｿ繧､繝ｫ-4" x="253.77" y="203.81" width="43.26" height="21.1" transform="translate(489.76 -61.04) rotate(90)"/><polygon points="266.62 213.79 278.99 222.28 278.99 205.29 266.62 213.79"/><line class="cls-7" x1="400.26" y1="141.79" x2="404.98" y2="389.68"/><line class="cls-7" x1="658.22" y1="141.79" x2="662.62" y2="386.53"/><polyline class="cls-8" points="417.96 364.51 404.34 356.02 662 352.01 649.17 345.4"/><line class="cls-7" x1="431.09" y1="141.79" x2="431.15" y2="144.79"/><line class="cls-9" x1="431.27" y1="150.69" x2="436" y2="383.73"/><line class="cls-7" x1="436.06" y1="386.68" x2="436.12" y2="389.68"/><line class="cls-7" x1="627.97" y1="141.79" x2="628.03" y2="144.79"/><line class="cls-9" x1="628.15" y1="150.69" x2="632.88" y2="383.73"/><line class="cls-7" x1="632.94" y1="386.68" x2="633" y2="389.68"/></g></svg>