<svg xmlns="http://www.w3.org/2000/svg" width="700" height="500" viewBox="0 0 700 500"><defs><style>.cls-1,.繧ｰ繝ｩ繝輔ぅ繝け繧ｹ繧ｿ繧､繝ｫ-3,.繧ｰ繝ｩ繝輔ぅ繝け繧ｹ繧ｿ繧､繝ｫ-4{fill:#fff;}.cls-2,.cls-3,.繧ｰ繝ｩ繝輔ぅ繝け繧ｹ繧ｿ繧､繝ｫ,.繧ｰ繝ｩ繝輔ぅ繝け繧ｹ繧ｿ繧､繝ｫ-7{fill:none;}.cls-2,.cls-3,.繧ｰ繝ｩ繝輔ぅ繝け繧ｹ繧ｿ繧､繝ｫ,.繧ｰ繝ｩ繝輔ぅ繝け繧ｹ繧ｿ繧､繝ｫ-2,.繧ｰ繝ｩ繝輔ぅ繝け繧ｹ繧ｿ繧､繝ｫ-3,.繧ｰ繝ｩ繝輔ぅ繝け繧ｹ繧ｿ繧､繝ｫ-4,.繧ｰ繝ｩ繝輔ぅ繝け繧ｹ繧ｿ繧､繝ｫ-7{stroke:#000;}.cls-2,.cls-3{stroke-linecap:round;stroke-linejoin:round;}.cls-2{stroke-width:1.43px;}.cls-3{stroke-width:1.83px;}.cls-4{fill:#e83589;}.繧ｰ繝ｩ繝輔ぅ繝け繧ｹ繧ｿ繧､繝ｫ,.繧ｰ繝ｩ繝輔ぅ繝け繧ｹ繧ｿ繧､繝ｫ-3,.繧ｰ繝ｩ繝輔ぅ繝け繧ｹ繧ｿ繧､繝ｫ-4{stroke-miterlimit:10;}.繧ｰ繝ｩ繝輔ぅ繝け繧ｹ繧ｿ繧､繝ｫ,.繧ｰ繝ｩ繝輔ぅ繝け繧ｹ繧ｿ繧､繝ｫ-2,.繧ｰ繝ｩ繝輔ぅ繝け繧ｹ繧ｿ繧､繝ｫ-3{stroke-width:2px;}.繧ｰ繝ｩ繝輔ぅ繝け繧ｹ繧ｿ繧､繝ｫ-7{stroke-linejoin:bevel;stroke-width:1.5px;}.繧ｰ繝ｩ繝輔ぅ繝け繧ｹ繧ｿ繧､繝ｫ-2{fill:#d8eacc;}.繧ｰ繝ｩ繝輔ぅ繝け繧ｹ繧ｿ繧､繝ｫ-4{stroke-width:1.27px;}.cls-5{fill:#030201;}.cls-6{fill:#242323;}</style></defs><title>kukakuzu</title><g id="レイヤー_2" data-name="レイヤー 2"><rect class="cls-1" width="700" height="500"/><polyline class="cls-2" points="203.56 225.12 203.56 213.38 210.46 225.12 210.46 213.38"/><circle class="cls-3" cx="200.29" cy="254.78" r="24.35"/><polygon points="197.39 268.13 207.01 277.41 205.34 231.57 184.78 272.58 197.39 268.13"/><rect class="cls-4" x="182.53" y="119.92" width="39.3" height="95.53" transform="translate(34.5 369.86) rotate(-90)"/><path class="cls-1" d="M171.65,173.52H187.2v2.1H171.65V177h-2.33V158.47h17.34v2h-15Zm.68-2.34a19.35,19.35,0,0,0,5.41-4,51.44,51.44,0,0,0-4.83-3.53l1.41-1.57a56.47,56.47,0,0,1,4.85,3.4,26.71,26.71,0,0,0,2.7-4.44l2.09,1a31.62,31.62,0,0,1-3,4.85c1.16,1,2.69,2.32,4.25,3.79l-1.64,1.73c-1.35-1.35-2.86-2.74-4.09-3.8a21.07,21.07,0,0,1-5.76,4.36Z"/><path class="cls-1" d="M200.81,160.3h-8.69v-1.87h19.7v1.87H203v2h4.43v10.34h-11V162.29h4.34ZM209,174V162.29h2.11V177H209v-1.14H194.9V177h-2.1V162.29h2.1V174Zm-10.58-10v2.51h2.45V164Zm0,4.1v2.8h2.45v-2.8Zm4.48-1.59h2.55V164h-2.55Zm0,4.39h2.55v-2.8h-2.55Z"/><path class="cls-1" d="M235,177h-2.26V176H219.31V177h-2.24V158.28H235Zm-15.7-3h13.44V160.17H219.31Zm11.51-.89c-1.31-.81-2.84-1.68-4.23-2.38a17.52,17.52,0,0,1-5.37,3l-1.29-1.55a13.52,13.52,0,0,0,4.67-2.45l-.54-.25c-1.35-.66-2.34-1.1-4.11-1.82l.94-1.54c2.09.77,3.29,1.25,5.29,2.18a17.48,17.48,0,0,0,3.85-7l2,.62a23.21,23.21,0,0,1-3.94,7.34l.19.11c1,.52,2.18,1.14,3.75,2.07Zm-8.73-6.78a18.94,18.94,0,0,0-1.66-4.06l1.91-.77a21.43,21.43,0,0,1,1.72,4Zm3.57-.81a24.27,24.27,0,0,0-1.68-4.08l1.82-.73a18.91,18.91,0,0,1,1.72,4Z"/><line class="繧ｰ繝ｩ繝輔ぅ繝け繧ｹ繧ｿ繧､繝ｫ" x1="210.55" y1="386.04" x2="611.59" y2="386.04"/><line class="繧ｰ繝ｩ繝輔ぅ繝け繧ｹ繧ｿ繧､繝ｫ" x1="210.55" y1="466.76" x2="611.59" y2="466.76"/><polyline class="繧ｰ繝ｩ繝輔ぅ繝け繧ｹ繧ｿ繧､繝ｫ-7" points="320.58 454.01 332.63 466.76 332.63 386.25 343.51 396.86"/><path d="M338.07,453.35h10.47v-3H350v3h3.81v1.7H350v8h-1.47l-10.49-7.55Zm4.9,1.7c-.89,0-2.4,0-3.35-.09V455a20.16,20.16,0,0,1,2.46,1.41l6.46,4.6v-6Z"/><path d="M351.07,445.52h2.77v2.76h-2.77Z"/><path d="M346,432.79a4.64,4.64,0,0,1,2.65,4.21,4.93,4.93,0,0,1-5.15,5.05,5.9,5.9,0,0,1-4-1.58,5.1,5.1,0,0,1-1.64-3.87c0-3.47,2.75-5.65,7.1-5.65,6.06,0,8.82,2.57,9.4,8.72l-1.43.8c-.21-5-2.38-7.39-6.94-7.76Zm-2.65,7.43c2.26,0,3.83-1.4,3.83-3.45a3.64,3.64,0,0,0-1.36-2.75,4.09,4.09,0,0,0-2.46-1,4.78,4.78,0,0,0-2.92,1.08,3.08,3.08,0,0,0-1.08,2.48A3.8,3.8,0,0,0,343.36,440.22Z"/><path d="M345.85,424.41c-.83,2.09-2.15,3.19-3.83,3.19-2.4,0-4.14-2.22-4.14-5.28s1.7-5.22,4-5.22a3.35,3.35,0,0,1,2.73,1.33,5.56,5.56,0,0,1,1.07,2.13h.05c.78-2.52,2.27-3.95,4.17-3.95,2.51,0,4.23,2.32,4.23,5.73s-1.64,5.71-4.16,5.71c-1.87,0-3.33-1.3-4.06-3.64Zm-3.81-5.5c-1.61,0-2.79,1.44-2.79,3.39s1.15,3.41,2.79,3.41a2.18,2.18,0,0,0,1.82-.8,7.52,7.52,0,0,0,.77-1.26,7.36,7.36,0,0,0,.45-1.35C344.61,420.23,343.43,418.91,342,418.91Zm5.84,6.35a2.5,2.5,0,0,0,1.92.87c1.74,0,2.84-1.47,2.84-3.81s-1.2-3.75-2.92-3.75a2.49,2.49,0,0,0-1.93,1,6.16,6.16,0,0,0-1.09,2c-.09.27-.27.91-.27.95A6.44,6.44,0,0,0,347.88,425.26Z"/><path d="M346,402.37c5,0,8.12,2.23,8.12,5.81S351,414,346,414s-8.13-2.22-8.13-5.82S341,402.37,346,402.37Zm0,9.72c4.06,0,6.57-1.49,6.57-3.93s-2.51-3.89-6.57-3.89-6.6,1.49-6.6,3.93S341.94,412.09,346,412.09Z"/><polyline class="繧ｰ繝ｩ繝輔ぅ繝け繧ｹ繧ｿ繧､繝ｫ-7" points="476.63 454.01 488.67 466.76 488.67 386.25 499.56 396.86"/><path d="M494.12,453.35h10.46v-3h1.49v3h3.82v1.7h-3.82v8H504.6l-10.48-7.55Zm4.89,1.7c-.89,0-2.4,0-3.35-.09V455a20.16,20.16,0,0,1,2.46,1.41l6.46,4.6v-6Z"/><path d="M507.12,445.52h2.77v2.76h-2.77Z"/><path d="M502.05,432.79A4.64,4.64,0,0,1,504.7,437a4.93,4.93,0,0,1-5.15,5.05,5.86,5.86,0,0,1-4-1.58,5.11,5.11,0,0,1-1.65-3.87c0-3.47,2.75-5.65,7.1-5.65,6.06,0,8.83,2.57,9.41,8.72l-1.43.8c-.22-5-2.38-7.39-6.95-7.76Zm-2.65,7.43c2.26,0,3.83-1.4,3.83-3.45a3.63,3.63,0,0,0-1.35-2.75,4.14,4.14,0,0,0-2.46-1,4.73,4.73,0,0,0-2.92,1.08,3.06,3.06,0,0,0-1.09,2.48A3.8,3.8,0,0,0,499.4,440.22Z"/><path d="M501.9,424.41c-.84,2.09-2.15,3.19-3.84,3.19-2.4,0-4.14-2.22-4.14-5.28s1.71-5.22,4-5.22a3.36,3.36,0,0,1,2.73,1.33,5.39,5.39,0,0,1,1.06,2.13h.06c.77-2.52,2.26-3.95,4.16-3.95,2.51,0,4.24,2.32,4.24,5.73s-1.65,5.71-4.16,5.71c-1.88,0-3.33-1.3-4.07-3.64Zm-3.82-5.5c-1.6,0-2.78,1.44-2.78,3.39s1.14,3.41,2.78,3.41a2.15,2.15,0,0,0,1.82-.8,8.26,8.26,0,0,0,.78-1.26,8,8,0,0,0,.44-1.35C500.66,420.23,499.48,418.91,498.08,418.91Zm5.85,6.35a2.48,2.48,0,0,0,1.91.87c1.74,0,2.85-1.47,2.85-3.81s-1.2-3.75-2.93-3.75a2.51,2.51,0,0,0-1.93,1,6.15,6.15,0,0,0-1.08,2,9.42,9.42,0,0,0-.27.95A6.34,6.34,0,0,0,503.93,425.26Z"/><path d="M502.05,402.37c5,0,8.13,2.23,8.13,5.81s-3.12,5.8-8.13,5.8-8.13-2.22-8.13-5.82S497,402.37,502.05,402.37Zm0,9.72c4.06,0,6.58-1.49,6.58-3.93s-2.52-3.89-6.58-3.89-6.6,1.49-6.6,3.93S498,412.09,502.05,412.09Z"/><path d="M165.82,405.6h9.68v1.53h-3.93v13.92c0,1.32-.48,1.76-1.91,1.76-.67,0-1.95-.06-2.92-.12l-.35-1.6a26.76,26.76,0,0,0,2.85.17c.55,0,.7-.15.7-.73v-13.4h-4.12v11H158V420h-1.49V403.69h9.36ZM158,409.9h2.39v-4.81H158Zm0,6.83h2.39v-5.46H158Zm6.4-11.64h-2.52v4.81h2.52Zm0,6.18h-2.52v5.46h2.52Z"/><path d="M182.52,418.45c1.7,1.7,3.65,2.35,7.18,2.37H198a7.9,7.9,0,0,0-.51,1.49h-8c-3.68,0-5.71-.73-7.52-2.56a20.35,20.35,0,0,1-3.28,3.09l-.92-1.5a19,19,0,0,0,3.17-2.41V413.3h-3.11v-1.42h4.71ZM181.61,408a20.77,20.77,0,0,0-3.06-3.57l1.15-1a20.48,20.48,0,0,1,3.15,3.42Zm2.06-1.11v-1.33h3.72a12.85,12.85,0,0,0-1.35-2l1.47-.57a15.06,15.06,0,0,1,1.52,2.58h2.73a21,21,0,0,0,1.15-2.62l1.66.42a17.74,17.74,0,0,1-1.2,2.2h3.93v1.33h-6.07c-.11.35-.44,1.24-.65,1.74h5.27v10.71H185.16V408.6H189a13.53,13.53,0,0,0,.54-1.74Zm3.05,4.87h7.56V409.8h-7.56Zm0,3h7.56v-1.91h-7.56Zm0,3.3h7.56V416h-7.56Z"/><path d="M79.78,437.84a24.22,24.22,0,0,0-3.27-3.23l1.11-1.16A19.57,19.57,0,0,1,81,436.6ZM77,446.39a31.66,31.66,0,0,0,3.7-6.89l1.32,1a36,36,0,0,1-3.67,7.1Zm3.53-13.9a22.83,22.83,0,0,0-3.19-3.28l1.09-1.09a19.41,19.41,0,0,1,3.28,3.13Zm8.32,6,0,0a45.3,45.3,0,0,1-3,6.51l-.08.19,1.55-.13c1.56-.12,3.93-.37,5.8-.63-.65-1.09-1.41-2.22-2.21-3.33l1.33-.74a38.57,38.57,0,0,1,4.13,6.36l-1.49.95c-.48-1-.69-1.41-1-2l-.21,0c-2.33.47-7.28,1.12-10.73,1.41l-.54-1.66.84,0,.25,0,.57,0a48.66,48.66,0,0,0,3.1-7H81.82v-1.41h6.41V432.7H83v-1.45h5.27v-3.38h1.63v3.38h5.59v1.45H89.86v4.24h6.68v1.41H88.9Z"/><path d="M109.62,429.23v11.36h3.26v1.62h-3.26v4.13h-1.84v-4.13H99.13v-1.6l8.19-11.38Zm-1.84,5.32c0-1,0-2.61.1-3.64h-.08a23.29,23.29,0,0,1-1.53,2.67l-5,7h6.51Z"/><path d="M117.5,444.69c.55-2.25,2.39-4.5,5.23-6.39l.55-.35c2.93-1.91,3.71-2.84,3.71-4.37,0-1.72-1.43-2.88-3.59-2.88a5.25,5.25,0,0,0-4.35,2.25l-1.32-1.11a6.76,6.76,0,0,1,5.75-2.82c3.28,0,5.67,1.93,5.67,4.6,0,2.12-.81,3.11-4.57,5.5l-.76.48c-2.5,1.64-4.07,3.45-4.26,5h9.85v1.78H117.5Z"/><path d="M144,447.81h-1.61V441.1a20.67,20.67,0,0,1-8.17,5.88l-1-1.35A20.45,20.45,0,0,0,141,440.7h-7.68v-1.41h9V437H144v2.29h9.2v1.41h-7.77a22.12,22.12,0,0,0,7.89,4.45l-1,1.47A21.23,21.23,0,0,1,144,441Zm5.69-18a19.22,19.22,0,0,1-4.83,4.39,28.79,28.79,0,0,0,8,2.48l-.86,1.43a32.43,32.43,0,0,1-8.54-3,29.23,29.23,0,0,1-8.8,3.22L133.8,437a27.41,27.41,0,0,0,8.33-2.75,26.33,26.33,0,0,1-3-2.64,17.71,17.71,0,0,1-3.65,2.24l-1-1.09a14.36,14.36,0,0,0,6.28-5l1.59.32c-.31.48-.4.57-.69,1h7.18Zm-9.15.53c-.15.16-.21.21-.34.33a16,16,0,0,0,3.3,2.75,18.9,18.9,0,0,0,3.76-3.08Z"/><path d="M162.59,431.21a26.28,26.28,0,0,1-4.08,1.26l-.46-1.58a16.7,16.7,0,0,0,5.08-1.87h1.41v17.32h-1.95Z"/><path d="M177.31,441.16l.13,0,.08-.05c.78-.25,1.76-.63,2.37-.9l.17,1.49a57.15,57.15,0,0,1-6.78,2.48l-.59-1.62c1.17-.31,1.34-.35,2.48-.69l.5-.15v-9.87h-2.73v-1.49h6.66v1.49h-2.29Zm1.49,5.5a12.6,12.6,0,0,0,4.41-2.9l1.28.86a15.44,15.44,0,0,1-4.54,3.26ZM191,432.32v11.19H180.92V432.32h3.27a17.76,17.76,0,0,0,.57-2.14h-5.25v-1.39h13v1.39H186.4a18.36,18.36,0,0,1-.71,2.14Zm-8.53,1.28v2h6.95v-2Zm0,5.23h6.95v-1.95h-6.95Zm0,3.38h6.95v-2.16h-6.95Zm8.86,5.58a28.42,28.42,0,0,0-4.2-3.15l1.16-.92a27.8,27.8,0,0,1,4.28,2.9Z"/><path d="M202.07,431.21a25.94,25.94,0,0,1-4.08,1.26l-.46-1.58a16.7,16.7,0,0,0,5.08-1.87H204v17.32h-2Z"/><path d="M218.7,438.09a21.52,21.52,0,0,1-.69,2.06h11.8a20,20,0,0,1-1.12,6c-.52,1.17-1.19,1.51-3.08,1.51-1.12,0-2.61-.07-3.64-.15l-.37-1.6c1.44.13,2.85.22,3.86.22s1.36-.17,1.66-.84a20,20,0,0,0,.8-3.72H217.44c-.27.59-.57,1.2-.88,1.78l-1.7-.48a29,29,0,0,0,2.08-4.79h-4.69v-1.42H232.2v1.42Zm10.37-3.34H215.36v-6h13.71Zm-12-1.34h10.31v-3.23H217.06Z"/><path d="M239.22,443.45c1.7,1.7,3.65,2.35,7.18,2.37h8.25a7.24,7.24,0,0,0-.5,1.49h-8c-3.68,0-5.71-.73-7.52-2.56a20.77,20.77,0,0,1-3.28,3.09l-.92-1.5a19,19,0,0,0,3.17-2.41V438.3h-3.11v-1.42h4.71ZM238.31,433a20.77,20.77,0,0,0-3.06-3.57l1.15-1a20.48,20.48,0,0,1,3.15,3.42Zm2.06-1.11v-1.33h3.72a12.85,12.85,0,0,0-1.35-2l1.47-.57a15.06,15.06,0,0,1,1.52,2.58h2.72a19.7,19.7,0,0,0,1.16-2.62l1.66.42a17.74,17.74,0,0,1-1.2,2.2H254v1.33h-6.07c-.1.35-.44,1.24-.65,1.74h5.27v10.71H241.86V433.6h3.87a13.53,13.53,0,0,0,.54-1.74Zm3,4.87H251V434.8h-7.55Zm0,3H251v-1.91h-7.55Zm0,3.3H251V441h-7.55Z"/><path d="M264.88,435.55h-2.71v3.32h2.73v1.39h-2.73v4.38c.57-.14,2.16-.6,3.21-.94l.15,1.36a73,73,0,0,1-8.27,2.36l-.55-1.5,1.11-.23v-8.18h1.43v7.87l.53-.13.5-.12.44-.11v-9.47h-3.06v-6.82h7.22Zm-5.73-1.36h4.24v-4.05h-4.24Zm16.06-4.12a17.5,17.5,0,0,1-3.09,5.06,17,17,0,0,0,4.81,2.92l-.8,1.39a18.47,18.47,0,0,1-5-3.28,17.36,17.36,0,0,1-5.43,3.47l-.84-1.31a13.82,13.82,0,0,0,5.25-3.21,14.85,14.85,0,0,1-1.9-2.66l-.08.1,0,.06a12.9,12.9,0,0,1-1.85,1.91l-1-1.11a12.56,12.56,0,0,0,3.84-5.56l1.56.25c-.23.55-.3.71-.46,1.07h4.07Zm-.09,17.74h-1.53v-1.23h-5.35v1.23H266.7v-8.27h8.42Zm-6.88-2.62h5.35V441h-5.35Zm.73-13.88a13.63,13.63,0,0,0,2.08,2.82,14.31,14.31,0,0,0,2.27-3.55h-3.91c-.08.14-.16.29-.35.61Z"/><rect class="繧ｰ繝ｩ繝輔ぅ繝け繧ｹ繧ｿ繧､繝ｫ-2" x="333.19" y="30.71" width="155.75" height="355.33"/><polygon class="繧ｰ繝ｩ繝輔ぅ繝け繧ｹ繧ｿ繧､繝ｫ-3" points="396.98 262.15 396.98 238.65 352.04 238.65 352.04 43.75 470.1 43.75 470.1 262.15 396.98 262.15"/><rect class="繧ｰ繝ｩ繝輔ぅ繝け繧ｹ繧ｿ繧､繝ｫ-4" x="352.04" y="260.98" width="44.69" height="7"/><rect class="繧ｰ繝ｩ繝輔ぅ繝け繧ｹ繧ｿ繧､繝ｫ-4" x="352.04" y="253.98" width="44.69" height="7"/><rect class="繧ｰ繝ｩ繝輔ぅ繝け繧ｹ繧ｿ繧､繝ｫ-4" x="352.04" y="238.72" width="44.69" height="15.26"/><polygon points="374.39 240.41 380.8 249.36 367.98 249.36 374.39 240.41"/><path class="cls-1" d="M432.89,275.54a82.89,82.89,0,0,1,19.28,0c7.4.94,12.94,8.44,12.54,15.29a657,657,0,0,0,0,67.31c.38,6.51-4.87,13.63-11.9,14.57a82.8,82.8,0,0,1-20.63,0c-7-.94-12.28-8.06-11.89-14.57a657,657,0,0,0,0-67.31C420,284,425.49,276.48,432.89,275.54Z"/><path class="cls-5" d="M442.53,274.73a82.27,82.27,0,0,1,9.67.57c7.22.91,13.18,8.17,12.76,15.55a659.32,659.32,0,0,0,0,67.28c.41,7-5.25,13.91-12.12,14.82a82.33,82.33,0,0,1-20.69,0c-6.86-.92-12.52-7.84-12.11-14.82a662.21,662.21,0,0,0,0-67.28c-.43-7.38,5.53-14.64,12.76-15.55h0A82.27,82.27,0,0,1,442.53,274.73Zm0,98.38a82.25,82.25,0,0,0,10.28-.65c6.62-.89,12.08-7.57,11.68-14.3a663.39,663.39,0,0,1,0-67.34c.41-7.13-5.34-14.15-12.32-15a82.37,82.37,0,0,0-19.22,0c-7,.88-12.74,7.9-12.32,15a660.3,660.3,0,0,1,0,67.33c-.39,6.74,5.07,13.42,11.69,14.31A82.13,82.13,0,0,0,442.53,373.11Z"/><path class="cls-6" d="M427.15,288.17H457.9c0-.36-.08-.72-.12-1.08h-30.5C427.23,287.45,427.19,287.81,427.15,288.17Z"/><path class="cls-5" d="M424,299.18l.27.91c1.9,6.57,2.95,15.27,2.95,24.5,0,1,0,2,0,3.07v.06l-4.66,11,0-.86c-.07-2.55-.1-5.07-.1-7.5a295.15,295.15,0,0,1,1.51-30.21Zm2.81,28.43c0-1,0-2,0-3a93.46,93.46,0,0,0-2.68-23.45c-.93,9.37-1.4,19.19-1.4,29.2,0,2.15,0,4.37.07,6.62Z"/><path class="cls-5" d="M461,299.18l.09.95a292.33,292.33,0,0,1,1.51,30.21c0,2.4,0,4.93-.09,7.5l0,.86-4.68-11c0-1,0-2.06,0-3.07,0-9.23,1.05-17.93,3-24.5ZM462.2,337c.05-2.27.07-4.49.07-6.62,0-10-.47-19.83-1.41-29.2a93.5,93.5,0,0,0-2.67,23.45c0,1,0,2,0,3Z"/><path class="cls-1" d="M422.85,340.81V357a17.26,17.26,0,0,0,17.21,17.22H445A17.26,17.26,0,0,0,462.2,357V340.81a88.3,88.3,0,0,1-39.35,0Z"/><path d="M422.67,340.57l.22.05a85.56,85.56,0,0,0,19.64,2.22h.26a86.12,86.12,0,0,0,19.37-2.22l.23-.05V357A17.42,17.42,0,0,1,445,374.36h-4.94A17.42,17.42,0,0,1,422.67,357ZM445,374a17.06,17.06,0,0,0,17-17V341a87.24,87.24,0,0,1-19.23,2.17h-.52A87.17,87.17,0,0,1,423,341V357a17,17,0,0,0,17,17Z"/><path class="cls-1" d="M428.31,303a94.81,94.81,0,0,0,28.44,0A41.43,41.43,0,0,0,458,288.16H427.1A41.43,41.43,0,0,0,428.31,303Z"/><path d="M426.93,288h31.2v.17a41.51,41.51,0,0,1-1.21,14.92l0,.12-.12,0a95.14,95.14,0,0,1-28.49,0l-.12,0,0-.12a41.74,41.74,0,0,1-1.22-14.92Zm30.86.37H427.27a41.28,41.28,0,0,0,1.19,14.51,94.79,94.79,0,0,0,28.14,0A41.28,41.28,0,0,0,457.79,288.34Z"/><path class="cls-6" d="M427.1,288.16H458c0-.36-.08-.72-.13-1.08H427.22Z"/><path class="cls-1" d="M457.83,287.08v-7.75c-3.77-2-9.23-3.31-15.3-3.31s-11.54,1.28-15.31,3.31v7.75Z"/><path d="M442.53,275.84c5.85,0,11.46,1.21,15.39,3.33l.1.05v8H427v-8l.1-.05C431.06,277.05,436.67,275.84,442.53,275.84Zm15.12,3.6c-3.87-2.05-9.37-3.23-15.12-3.23s-11.25,1.18-15.12,3.23v7.45h30.24Z"/><path class="cls-6" d="M423,340.91l-.38,1a75.11,75.11,0,0,0,39.86,0l-.38-1A75.15,75.15,0,0,1,423,340.91Z"/><path class="cls-1" d="M461.53,341l-4.79-13.09H428.31L423.53,341A72.89,72.89,0,0,0,461.53,341Z"/><path d="M428.18,327.68h28.7l4.89,13.4-.19.06a73.05,73.05,0,0,1-38.1,0l-.2-.06Zm28.43.38H428.44l-4.67,12.77a72.51,72.51,0,0,0,37.51,0Z"/><path class="cls-5" d="M427.28,279.34h-.19a4.22,4.22,0,0,0-4.21,4.21v.31A10.18,10.18,0,0,1,427.28,279.34Z"/><path class="cls-5" d="M457.78,279.34H458a4.22,4.22,0,0,1,4.21,4.21v.31A10.18,10.18,0,0,0,457.78,279.34Z"/><path class="cls-1" d="M417.62,330.57a1.68,1.68,0,0,0,.3,1.51l3.43,3a.38.38,0,0,0,.18.09v-2.76l-3.83-2.15Z"/><path class="cls-5" d="M417.58,329.94l4.14,2.33v3.1l-.23-.05a.58.58,0,0,1-.26-.13l-3.43-3a1.84,1.84,0,0,1-.36-1.69Zm3.76,2.54-3.51-2,0,.11a1.52,1.52,0,0,0,.24,1.32l3.3,2.85Z"/><path class="cls-1" d="M467.44,330.57a1.71,1.71,0,0,1-.3,1.51l-3.43,3a.38.38,0,0,1-.18.09v-2.76l3.83-2.15Z"/><path class="cls-5" d="M467.48,329.94l.14.59a1.87,1.87,0,0,1-.36,1.69l-3.43,3a.57.57,0,0,1-.27.13l-.22.05v-3.1Zm-3.77,4.85,3.31-2.85a1.55,1.55,0,0,0,.23-1.32l0-.11-3.52,2Z"/><path class="cls-5" d="M432.4,350.77c0,6.19,1.1,11.64,2.76,14.79a38.63,38.63,0,0,1-2-13.11,47.38,47.38,0,0,1,.51-7.07h-1A48.72,48.72,0,0,0,432.4,350.77Z"/><path class="cls-5" d="M452.66,350.77c0,6.19-1.1,11.64-2.76,14.79a38.65,38.65,0,0,0,2-13.11,48.8,48.8,0,0,0-.5-7.07h1A51.28,51.28,0,0,1,452.66,350.77Z"/><rect class="cls-1" x="428.31" y="303.01" width="28.43" height="24.86" transform="translate(885.06 630.88) rotate(180)"/><path d="M428.12,302.82h28.81v25.24H428.12Zm28.44.38H428.5v24.48h28.06Z"/><path class="cls-1" d="M366.7,275.54a82.89,82.89,0,0,1,19.28,0c7.4.94,12.94,8.44,12.54,15.29a662.8,662.8,0,0,0,0,67.31c.39,6.51-4.87,13.63-11.89,14.57a82.8,82.8,0,0,1-20.63,0c-7-.94-12.28-8.06-11.9-14.57a657,657,0,0,0,0-67.31C353.76,284,359.3,276.48,366.7,275.54Z"/><path class="cls-5" d="M376.34,274.73a82.27,82.27,0,0,1,9.67.57c7.23.91,13.19,8.17,12.76,15.55a662.21,662.21,0,0,0,0,67.28c.41,7-5.25,13.91-12.11,14.82A82.33,82.33,0,0,1,366,373c-6.87-.92-12.53-7.84-12.12-14.82a659.32,659.32,0,0,0,0-67.28c-.43-7.38,5.53-14.64,12.75-15.55h0A82,82,0,0,1,376.34,274.73Zm0,98.38a82.41,82.41,0,0,0,10.29-.65c6.61-.89,12.07-7.57,11.68-14.3a660.5,660.5,0,0,1,0-67.34c.42-7.13-5.34-14.15-12.32-15a82.37,82.37,0,0,0-19.22,0c-7,.88-12.73,7.9-12.32,15a663.2,663.2,0,0,1,0,67.33c-.4,6.74,5.06,13.42,11.68,14.31A82.25,82.25,0,0,0,376.34,373.11Z"/><path class="cls-6" d="M361,288.17h30.75c0-.36-.08-.72-.13-1.08h-30.5Z"/><path class="cls-5" d="M357.84,299.18l.26.91c1.91,6.57,3,15.27,3,24.5,0,1,0,2,0,3.07l0,.06-4.66,11,0-.86c-.06-2.55-.09-5.07-.09-7.5a295.15,295.15,0,0,1,1.51-30.21Zm2.81,28.43c0-1,0-2,0-3A93.46,93.46,0,0,0,358,301.14c-.94,9.37-1.41,19.19-1.41,29.2,0,2.15,0,4.37.07,6.62Z"/><path class="cls-5" d="M394.85,299.18l.1.95a295.15,295.15,0,0,1,1.51,30.21c0,2.4,0,4.93-.09,7.5l0,.86-4.67-11c0-1,0-2.06,0-3.07,0-9.23,1.05-17.93,2.95-24.5ZM396,337c.05-2.27.07-4.49.07-6.62,0-10-.47-19.83-1.4-29.2A93.46,93.46,0,0,0,392,324.59c0,1,0,2,0,3Z"/><path class="cls-1" d="M356.67,340.81V357a17.26,17.26,0,0,0,17.2,17.22h4.94A17.26,17.26,0,0,0,396,357V340.81a88.3,88.3,0,0,1-39.35,0Z"/><path d="M356.48,340.57l.23.05a85.47,85.47,0,0,0,19.63,2.22h.26A86.2,86.2,0,0,0,396,340.62l.22-.05V357a17.42,17.42,0,0,1-17.39,17.41h-4.94A17.42,17.42,0,0,1,356.48,357ZM378.81,374a17,17,0,0,0,17-17V341a87.1,87.1,0,0,1-19.23,2.17h-.52A87.24,87.24,0,0,1,356.85,341V357a17.06,17.06,0,0,0,17,17Z"/><path class="cls-1" d="M362.13,303a94.74,94.74,0,0,0,28.43,0,41.43,41.43,0,0,0,1.21-14.86H360.91A41.21,41.21,0,0,0,362.13,303Z"/><path d="M360.75,288h31.19l0,.17a41.74,41.74,0,0,1-1.22,14.92l0,.12-.12,0a95.14,95.14,0,0,1-28.49,0l-.12,0,0-.12a41.74,41.74,0,0,1-1.22-14.92Zm30.85.37H361.08a41.29,41.29,0,0,0,1.2,14.51,94.73,94.73,0,0,0,28.13,0A41.28,41.28,0,0,0,391.6,288.34Z"/><path class="cls-6" d="M360.91,288.16h30.86c0-.36-.08-.72-.12-1.08H361C361,287.44,361,287.8,360.91,288.16Z"/><path class="cls-1" d="M391.65,287.08v-7.75c-3.77-2-9.23-3.31-15.31-3.31s-11.53,1.28-15.3,3.31v7.75Z"/><path d="M376.34,275.84c5.86,0,11.47,1.21,15.39,3.33l.1.05v8h-31v-8l.1-.05C364.88,277.05,370.49,275.84,376.34,275.84Zm15.12,3.6c-3.87-2.05-9.37-3.23-15.12-3.23s-11.25,1.18-15.11,3.23v7.45h30.23Z"/><path class="cls-6" d="M356.79,340.91l-.38,1a75.11,75.11,0,0,0,39.86,0l-.38-1A75.15,75.15,0,0,1,356.79,340.91Z"/><path class="cls-1" d="M395.34,341l-4.78-13.09H362.13L357.34,341A72.89,72.89,0,0,0,395.34,341Z"/><path d="M362,327.68h28.69l4.9,13.4-.2.06a73.05,73.05,0,0,1-38.1,0l-.19-.06Zm28.43.38H362.26l-4.67,12.77a72.51,72.51,0,0,0,37.51,0Z"/><path class="cls-5" d="M361.1,279.34h-.2a4.22,4.22,0,0,0-4.21,4.21v.31A10.2,10.2,0,0,1,361.1,279.34Z"/><path class="cls-5" d="M391.59,279.34h.2a4.23,4.23,0,0,1,4.21,4.21v.31A10.25,10.25,0,0,0,391.59,279.34Z"/><path class="cls-1" d="M351.43,330.57a1.71,1.71,0,0,0,.3,1.51l3.43,3a.37.37,0,0,0,.19.09v-2.76l-3.83-2.15Z"/><path class="cls-5" d="M351.39,329.94l4.14,2.33v3.1l-.22-.05a.61.61,0,0,1-.27-.13l-3.43-3a1.87,1.87,0,0,1-.36-1.69Zm3.77,2.54-3.52-2,0,.11a1.55,1.55,0,0,0,.23,1.32l3.31,2.85Z"/><path class="cls-1" d="M401.25,330.57a1.68,1.68,0,0,1-.3,1.51l-3.43,3a.38.38,0,0,1-.18.09v-2.76l3.83-2.15Z"/><path class="cls-5" d="M401.29,329.94l.14.59a1.87,1.87,0,0,1-.35,1.69l-3.44,3a.58.58,0,0,1-.26.13l-.23.05v-3.1Zm-3.76,4.85,3.3-2.85a1.52,1.52,0,0,0,.24-1.32l0-.11-3.51,2Z"/><path class="cls-5" d="M366.22,350.77c0,6.19,1.09,11.64,2.75,14.79a38.65,38.65,0,0,1-2-13.11,47.38,47.38,0,0,1,.51-7.07h-1A51.36,51.36,0,0,0,366.22,350.77Z"/><path class="cls-5" d="M386.47,350.77c0,6.19-1.1,11.64-2.76,14.79a38.63,38.63,0,0,0,2-13.11,47.38,47.38,0,0,0-.51-7.07h1A48.72,48.72,0,0,1,386.47,350.77Z"/><rect class="cls-1" x="362.13" y="303.01" width="28.43" height="24.86" transform="translate(752.69 630.88) rotate(180)"/><path d="M361.94,302.82h28.81v25.24H361.94Zm28.43.38H362.31v24.48h28.06Z"/><path d="M373.1,151.52a41.22,41.22,0,0,1-6.57,2l-.74-2.54a26.93,26.93,0,0,0,8.19-3h2.27v27.93H373.1Z"/><path d="M396.53,162.62c-.34,1.22-.75,2.37-1.12,3.32h19c-.27,4.13-.95,7.82-1.79,9.69s-1.93,2.43-5,2.43c-1.8,0-4.2-.1-5.86-.23l-.61-2.58c2.34.21,4.61.34,6.23.34s2.2-.27,2.68-1.35a31.38,31.38,0,0,0,1.28-6H394.5c-.44.95-.92,1.93-1.42,2.88l-2.75-.78a46.21,46.21,0,0,0,3.36-7.72h-7.55v-2.3H418.3v2.3Zm16.73-5.38H391.15v-9.62h22.11Zm-19.37-2.17h16.62v-5.21H393.89Z"/><path d="M427,161.51a40.32,40.32,0,0,1-4.09,9.17L421.68,168a38.07,38.07,0,0,0,5.12-12.22h-4.64v-2.37H427v-7.25h2.51v7.25h3.52v2.37h-3.52v3.15a39.41,39.41,0,0,1,4.16,4l-1.42,2.27a36.2,36.2,0,0,0-2.74-3.49V178.3H427Zm18.9,4.7a25.17,25.17,0,0,0,8.63,7.65L453,176.23a27.7,27.7,0,0,1-8.74-8.66V178.3h-2.4V167.77a26.17,26.17,0,0,1-8.7,8.94l-1.69-2.07a24.07,24.07,0,0,0,8.87-8.43H434V154.16h7.79v-2.51h-9.55v-2.2h9.55v-3.32h2.4v3.32H454v2.2h-9.76v2.51h8v12.05Zm-9.48-10v2.88h5.38v-2.88Zm0,4.95v2.94h5.38v-2.94Zm7.78-2.07h5.66v-2.88h-5.66Zm0,5h5.66v-2.94h-5.66Z"/></g></svg>