<svg xmlns="http://www.w3.org/2000/svg" width="700" height="278.25" viewBox="0 0 700 278.25"><defs><style>.cls-1{fill:#ededed;}.cls-2{fill:#aaa;}</style></defs><title>renrakusaki</title><g id="レイヤー_2" data-name="レイヤー 2"><rect class="cls-1" x="63.33" y="36.02" width="573.33" height="210.67" rx="23.11"/><path class="cls-2" d="M230.46,133.12H217v26.12h-3.69V116.58h17.19ZM217,123.36h10v-3.93H217Zm0,6.91h10v-4.2H217Zm25.32,21.45H227.05v3.55h-3.46v-17.9h18.69Zm-15.23-11.4v8.36h11.73v-8.36Zm26,14.15c0,3.13-1.26,4.35-4.57,4.35-1.31,0-4.35-.14-6.31-.28l-.7-3.65c2.8.28,4.86.42,6.26.42s1.68-.28,1.68-1.54V133.12h-14V116.58h17.61ZM239,123.36h10.42v-3.93H239Zm0,6.91h10.42v-4.2H239Z"/><path class="cls-2" d="M279.34,144.66a37.69,37.69,0,0,1-4.34,8.79c-1.27,1.72-2.76,2.66-4.26,2.66-2.1,0-4.2-1.87-5.79-5.09-2.48-5.1-3.55-12-3.55-23,0-2.8.09-5.14.28-8.08l3.78.28c-.14,2.52-.23,4.76-.23,7.24,0,10,.84,16.49,2.66,20.79.84,2.06,2,3.46,2.85,3.46,1.31,0,3.6-3.74,5.66-9.34Zm15.7,4.49c-1.68-12.43-3.46-19.07-7.43-27.34l3.46-.84c4.44,8.88,6.35,15.47,7.8,27.24Z"/><path class="cls-2" d="M337.84,129.52v3.18H316v-3.13a51.68,51.68,0,0,1-9.54,5.84l-2.33-3.08c9-3.83,15.79-9.81,20-17.48h4.16c5.33,7.34,11.59,12.34,20.79,16.54L347,134.71a58,58,0,0,1-20.56-16.59,40.58,40.58,0,0,1-10.33,11.4ZM342,159.24h-3.78V156.3H315.46v2.94h-3.78V138.91H342Zm-26.54-6.17h22.76v-11H315.46Z"/><path class="cls-2" d="M365.65,116.58v12.71c4.81-4.58,9.81-7,14.72-7a12.13,12.13,0,0,1,9.53,4.16,16.57,16.57,0,0,1,3.79,10.56c0,10.88-4.68,15.6-17.53,17.8l-1.68-3.32c5-.7,8.74-2,11.17-3.74,2.94-2.15,4.2-5.37,4.2-10.74a13.53,13.53,0,0,0-2.66-8.23,8.38,8.38,0,0,0-6.87-3.13c-5,0-9.2,2.38-14.67,8.41V157H362V138.17c-1.78,2.29-3.55,4.67-7.29,9.81l-.65.89-1.83-4.07A117.59,117.59,0,0,0,362,132.51v-4.67h-8.46v-3.27H362v-8Z"/><path class="cls-2" d="M432.05,117.19v10h8.65v3.27h-8.65v9.07c0,3.36-1.07,4.48-4.2,4.48a24.47,24.47,0,0,1-6.68-1.12v-3.27a22.62,22.62,0,0,0,5.65,1c1.26,0,1.59-.33,1.59-1.59v-8.55H411.73v18c0,3.46,1.12,3.88,11.12,3.88,4.53,0,8.36-.14,12.66-.52l.14,3.51c-4,.28-8.64.42-13,.42-7.19,0-10.09-.28-11.87-1.22s-2.75-2.66-2.75-5.56v-18.5h-8.51v-3.27H408v-9.58h3.69v9.58h16.68v-10Z"/><path class="cls-2" d="M465.37,122.84v-8h3.69v8H484.9V126H469.06v9h19.63v3.18H474.16v14.71c0,1.69.42,1.87,4.62,1.87s4.86-.18,5.33-1.26.56-2.75.65-6.07l3.6,1.31c-.14,4.72-.56,7-1.59,8s-3.41,1.45-8.5,1.45c-6.36,0-7.85-.75-7.85-4V138.17h-8.18v.42c-.18,6.63-1.35,10.74-4,13.87A22.64,22.64,0,0,1,447,159l-2-3c5.37-1.36,9.67-4.16,11.45-7.38,1.31-2.29,1.91-5.52,2-10.42H445V135h20.37v-9H454.25a31.15,31.15,0,0,1-4.3,7.24L447.1,131a38.79,38.79,0,0,0,6.64-14.53l3.41.65c-.56,2.2-1.08,4-1.68,5.7Z"/></g></svg>