<svg xmlns="http://www.w3.org/2000/svg" width="700" height="278.25" viewBox="0 0 700 278.25"><defs><style>.cls-1{fill:#980051;}.cls-2{fill:none;stroke:#980051;stroke-miterlimit:10;stroke-width:1.76px;}</style></defs><title>renrakusaki</title><g id="レイヤー_2" data-name="レイヤー 2"><path d="M204,69.74a31.7,31.7,0,0,1,0-40.5l.49.36a27.21,27.21,0,0,0-2.21,3.76,37.19,37.19,0,0,0,0,32.26,27.1,27.1,0,0,0,2.21,3.77ZM207.73,36a44.23,44.23,0,0,0-.36-5l2.93.75c.48.13,1.24.35,1.24.71,0,.53-.67.84-1.24,1.33v6h.75l.93-1.46c.13-.22.4-.62.62-.62s.62.44.71.58l1,1.41a2,2,0,0,1,.23.71c0,.31-.18.36-.36.36H210.3v4.34c1.33.8,4,2.44,4,4.79a1.73,1.73,0,0,1-1.6,1.9c-1.41,0-1.64-2-1.68-3.06a5.85,5.85,0,0,0-.75-3v7.88c0,1.73.13,10.06.13,11.92,0,.58,0,2.53-2.13,2.53-1.24,0-1.24-1.37-1.24-1.86,0-.84.4-5,.45-5.94.13-2.17.22-4.3.22-7.58V48.25a28.69,28.69,0,0,1-6.43,10.19l-.35-.35a54.38,54.38,0,0,0,6.51-17.37,23.89,23.89,0,0,0-4.39.26l-.66-1.59c1.77.22,3.9.35,4.52.35h.8Zm28.49,24.9a6.91,6.91,0,0,0-3.59,2.53c-4.08-4.21-6-8.6-7.67-13.39v5.19c0,1.55,0,3.19,0,4.78,0,.8.31,4.74.31,5.63A2.15,2.15,0,0,1,223.15,68c-.71,0-1.11-.35-1.11-1.46,0-.66.13-3.81.13-4.52.09-2.88.09-4.65.09-6.2V51.62A31.72,31.72,0,0,1,212.2,62.83l-.26-.44a52.9,52.9,0,0,0,9-13.61,51.61,51.61,0,0,0-5.63.22l-.71-1.55c1.33.14,4.92.31,5.76.31h1.86V41.07h-4.47a24.59,24.59,0,0,1-4,5.54l-.35-.31c.44-1,3.41-6.91,3.45-12.49l3.55,1.72c.18,0,.44.23.44.45,0,.48-.53.57-1.19,1.06-.45,1.15-.93,2.22-1.33,3h3.94V36.38a31.08,31.08,0,0,0-.58-5.37l3.82.85c.31.08.62.22.62.44s-.54.84-1.16,1.64v6.11h3.33l1.28-1.77c.18-.22.4-.53.62-.53a1.35,1.35,0,0,1,.71.49L232.67,40c.23.22.49.53.49.71a.32.32,0,0,1-.35.35H225v6.69H230l1.32-1.86c.14-.13.4-.48.54-.48s.53.31.71.44l2.26,2a1.14,1.14,0,0,1,.35.62c0,.31-.31.31-.44.31h-9.62c4.17,9.53,10.68,11.48,11.12,11.57Zm-3.5-31.64a31.7,31.7,0,0,1,0,40.5l-.49-.35a28.71,28.71,0,0,0,2.22-3.77,37.28,37.28,0,0,0,0-32.26,28.84,28.84,0,0,0-2.22-3.76Z"/><path d="M272.82,68c-9.71,0-12.06-.8-12.85-5.72-.53-3.41-.76-4.87-3.37-4.87-1.64,0-2.61,1-6.25,6.65-2.3,3.59-3,4.25-4,4.25a1.9,1.9,0,0,1-1.81-2.17c0-1.68.48-2.13,3.1-4.39,1.9-1.64,2.92-2.61,8.46-8.9.84-.93,4-4.52,6.52-7a1.12,1.12,0,0,0,.35-.62c0-.27-.27-.36-.49-.36-1.28,0-7.75,3.33-8.06,3.55-1.24,1-1.46,1.2-2.26,1.2s-4.08-1.47-4.08-3.77a6.12,6.12,0,0,1,.53-2.13c1,1.37,1.55,2,3.11,2,2.3,0,7.26-1.68,9.74-2.61a18.45,18.45,0,0,1,2.53-.93c.53,0,3.9,1.24,3.9,3.05,0,1-.4,1.29-1.51,2-.53.35-8.11,5.45-10.54,9a10,10,0,0,1,2.34-.31c3.68,0,4.35,2.79,4.75,4.65.88,3.9,1.33,4.3,4,4.3a16.65,16.65,0,0,0,4.79-.85,12.76,12.76,0,0,1,2.61-.48c1.33,0,2.8.88,2.8,2.3C277.12,67.57,275.08,68,272.82,68Zm-8.2-29.42c-.71,0-3.63-.8-4.25-.8-.89,0-1.2,0-4,.84-.17,0-.53.18-.75.22l-.22-.31c1-.66,1.95-1.37,2.92-2.12a1.26,1.26,0,0,0,.49-.89c0-.53-.18-.67-1.59-1.64-2.53-1.77-3.06-2.35-3.19-4.87a15.11,15.11,0,0,0,6.64,3.58c1,.32,5.14,1.69,5.14,4.48C265.77,37.75,265.37,38.55,264.62,38.55Z"/><path d="M316.42,52c-2,0-5-3.72-7.49-8.82a16.2,16.2,0,0,0-1.11-2.13c-.13,0-.22.18-.22.4,0,.71.18,1.82.22,2.48.05,1.42.09,2.57.09,3.37A32.55,32.55,0,0,1,306.18,59a11.88,11.88,0,0,1-11,7.27c-7.18,0-10.94-5.54-10.94-11.21,0-4.52,2.48-9.35,5.49-13.56.36-.54,2.08-2.71,2.39-3.15a1,1,0,0,0,.27-.53c0-.22-.22-.31-.4-.31A8.05,8.05,0,0,0,288.5,39a2.81,2.81,0,0,1-1.46.58c-1.51,0-3.5-2-3.5-4.17a3.77,3.77,0,0,1,.31-1.42c1.9,1.64,2.61,2,4,2a13,13,0,0,0,6.29-2.12,3.33,3.33,0,0,1,1.46-.54c1.51,0,3.06,1.11,3.06,2.26,0,.84-.75,1.15-1.5,1.42-1.87.71-3.77,1.91-6.25,6.38-2.62,4.74-3.72,8.51-3.72,11.92,0,4.74,2.7,8,6.64,8,4.17,0,8.16-3.06,10-7.4a36,36,0,0,0,2.48-12.59,19.64,19.64,0,0,0-1-5.76,13.6,13.6,0,0,1-.79-3.5,1.73,1.73,0,0,1,1.77-1.77c1.42,0,1.68.93,2.3,3.37.58,2.21,1.64,6.38,7.36,11.39,1.15,1,2,1.72,2,3C318,50.2,318,52,316.42,52Zm.26-11.61c-.79,0-1.28-.67-2-1.69-2.62-3.72-2.62-3.72-4.56-5.27.7.13,8,1.77,8,5.23A1.55,1.55,0,0,1,316.68,40.41Zm3.95-4.3c-.76,0-1-.27-2.75-2.35a14.29,14.29,0,0,0-3.94-3.32c3.41-.31,8.19,1.59,8.19,3.94A1.61,1.61,0,0,1,320.63,36.11Z"/><path d="M362.41,41.56c-.13,0-6.29-.66-6.87-.75a22.11,22.11,0,0,0-2.79-.14,48.38,48.38,0,0,0-5.05.31c0,.54-.05,1.33-.05,2.53a23.21,23.21,0,0,0,.18,3.1,13.84,13.84,0,0,1,2.35,7.8c0,6.51-4.65,13.12-13,15.69l-.23-.36c4.61-2.52,8.69-8.64,9.13-12.8-1.15,1.28-1.9,2-3.05,2-2.75,0-5-3.11-5-6.74,0-3.24,1.91-7.09,5.05-7.09a10,10,0,0,1,2.53.44c0-.49,0-.71,0-1.15s-.13-2.75-.13-3.19c-5.54.89-10.15,1.68-14.62,4.43a2.38,2.38,0,0,1-1.29.4c-1.77,0-3.76-2.88-3.76-4.92a2.1,2.1,0,0,1,.53-1.46c.53.66,1.5,2,3.19,2a22.57,22.57,0,0,0,2.57-.31c8.73-1.55,9.66-1.73,13.29-2.17-.26-6.61-.62-7-4.34-8.25a4.22,4.22,0,0,1,3.06-1.28c1.42,0,4.78,1.28,4.78,2.7,0,.13-.35,1.73-.4,1.91a29.73,29.73,0,0,0-.7,4.65c1.32-.18,11.92-1.46,12-1.46,1.47,0,4.26.84,4.26,2.52C364.14,41.07,363.43,41.56,362.41,41.56Zm-19.76,5.81c-1.42,0-2.84,1.68-2.84,4.2,0,2.22,1.42,4.3,3.06,4.3s3-2,3-4.38S344.6,47.37,342.65,47.37Z"/><path d="M393.91,36.46a.79.79,0,0,1,.36.58c0,.62-.67.71-1.95,1-.8,1.41-1.82,3.23-3.15,5.14l1.95.35c.22,0,.93.22.93.89,0,.35-.27,1-1.51,1.28-.13,6.65-.13,10.68-.13,11.08,0,1.77,0,4.3.13,7.49,0,.62.18,3.72.18,4.39,0,1.5-1.64,2-2.52,2-1.11,0-1.82-.4-1.82-1.33,0-.22.13-1.42.13-1.68.27-4,.27-4.61.22-21.18C382.66,51.71,376.5,57.87,369.45,61l-.09-.13c4.61-4.08,13.78-14.36,18.48-23.09a9.13,9.13,0,0,0,1-3H376a20.42,20.42,0,0,0-4.79.32l-.75-1.64c2.12.17,4.21.26,6.33.26h25.7l2.31-2.52c.53-.62.57-.67.75-.67s.4.13.84.49l3.24,2.61c.13.14.44.36.44.67s-.44.48-.71.48H391.78Zm0,7.27c4.79.18,15.38,6.6,15.38,11.83a2.22,2.22,0,0,1-2.08,2.35c-1.64,0-2.18-.89-3.95-3.85-2.61-4.48-7.4-9.26-9.44-10.15Z"/><path d="M432.59,43l1.29-1.42c.17-.17.35-.39.57-.39a1.45,1.45,0,0,1,.67.35l1.77,1.6a1.06,1.06,0,0,1,.4.79c0,.45-.18.67-1.11,1.6-.09,1.28,0,7.27-.13,8.15a2.47,2.47,0,0,1-2.35,1.6c-.75,0-1-.58-.89-1.29h-3.94v4.12h2.48l1.46-1.77c.31-.35.49-.53.71-.53a1.47,1.47,0,0,1,.8.44L436.45,58c.22.18.44.36.44.67s-.35.49-.66.49h-7.36v3.72c4.74-.67,6.6-1,8-1.29v.31c-4.65,2.57-15.07,5.28-17.86,5.81-.31.84-.62,1.24-1,1.24s-.71-.4-.84-.62L415.09,64a12.51,12.51,0,0,0,2.17.17,27.82,27.82,0,0,0,3.46-.31c.48,0,3.63-.35,4.83-.53V59.2h-3.86a26.93,26.93,0,0,0-4.78.26l-.71-1.59c2.7.22,5.8.26,6.29.26h3.06V54h-4a1.58,1.58,0,0,1-.53,1.64,3.22,3.22,0,0,1-1.78.67c-.79,0-1.1-.54-1.1-1.38,0-1.55.13-8.33.13-9.75a21.58,21.58,0,0,0-.44-4.47l4.34,2.3h3.37V39.61h-4.61a22.6,22.6,0,0,0-4.83.31l-.71-1.64c2.7.22,5.8.27,6.34.27h3.81V35.31c-1.73.18-4.35.4-6.3.4-1.37,0-2.26-.09-3.05-.13v-.27a115.77,115.77,0,0,0,14.35-4.16,6.66,6.66,0,0,0,2.31-1.46l3,2.74a1,1,0,0,1,.4.76c0,.39-.45.62-2.09.48-.75.23-2.21.58-5.27,1.15v3.73h4.52L435,36.24c.18-.26.44-.53.71-.53s.49.22.75.44l2.66,2.31c.27.22.44.4.44.66s-.35.49-.66.49H428.87V43Zm-7,4.79V44.09h-4v3.72Zm0,5.14V48.87h-4V53Zm3.32-8.86v3.72h4V44.09Zm0,4.78V53h4V48.87ZM449,41.6l1.91-1.86c.17-.17.48-.48.66-.48a1.58,1.58,0,0,1,.76.39l2.21,1.73c.36.27.53.45.53.76s-1,1.1-1.55,1.5v2.22c-.22,8.2-.31,14.27-1.37,17.41-1.33,4-2.84,6.25-7.45,6.78-.35-3-2.61-4.21-4.74-5.32l.14-.35a24.08,24.08,0,0,0,5.18.58c1.95,0,2.26-.27,2.92-1.78,1.42-3.27,1.95-15.19,1.95-17.37a13.49,13.49,0,0,0-.35-3.14H446a45.57,45.57,0,0,1-1.46,11.7c-2.52,9.88-7.58,13.51-12.63,15.9l-.31-.31c5.1-3.5,7.71-9,9-13,1-2.92,1.64-7.09,1.77-14.31a21.49,21.49,0,0,0-4.78.31l-.71-1.64c1.81.18,2.17.18,5.49.26.09-2.92.18-8.55-.93-12.45l5.18,1.78c.27.08.8.39.8.75a.92.92,0,0,1-.4.66,11.58,11.58,0,0,0-.88.8c-.05,1.24-.09,7.14-.14,8.46Z"/><path d="M490.73,34.82l2-2.48c.4-.48.44-.53.71-.53s.22,0,.75.4l3.33,2.53a.92.92,0,0,1,.44.66c0,.4-.4.49-.71.49h-9l3,1.51a.72.72,0,0,1,.4.62c0,.57-.85.75-1.82,1-1.2,1.29-1.64,1.69-5.5,5.45h8.07l1.9-2.12c.4-.49.54-.58.71-.58s.27,0,.85.45L499,44.44c.31.22.49.4.49.62,0,.44-.4.49-.67.49H469.41c-.13,12.27-.88,18.56-8.11,24.19l-.22-.22c.93-1.28,2.35-3.19,3.59-8.82a48.53,48.53,0,0,0,1.06-10.06,30.18,30.18,0,0,0-1-8.59l5.14,2.43h13.52c2.39-5.71,2.66-6.33,3.19-8.59h-18a28.2,28.2,0,0,0-4.79.26L463,34.56c2.7.22,5.85.26,6.34.26h9.39a19.78,19.78,0,0,0-.75-5.45l5.14,1.33c.44.14.66.18.66.58s-.84,1-1.41,1.33c0,.4,0,1.77,0,2.21ZM492.81,67,495,64.82s.58-.57.71-.57.22,0,.84.48l3,2.13c.23.18.45.36.45.67s-.4.48-.67.48H473.49a26.82,26.82,0,0,0-4.79.27L468,66.69c2.7.22,5.85.26,6.34.26h6.38V60.61h-3.19a22.4,22.4,0,0,0-4.79.31l-.75-1.64c2.7.23,5.85.27,6.33.27h2.4c0-1.42,0-1.82-.05-5.54h-5.4c-2,3.06-3.15,4.83-6.12,7.05l-.18-.18c2.09-4.08,5.23-11,5.54-14.49l4.57,2a.61.61,0,0,1,.4.53c0,.44-.09.49-1.6,1.15-.53.8-.66,1-1.9,2.93h4.69c0-4.21,0-4.7-.53-6.87l5,.75a.54.54,0,0,1,.57.54c0,.39-.13.53-1.37,1.37a9.29,9.29,0,0,0-.13,1.86V53h5.67l1.55-2.35c.35-.58.53-.66.66-.66s.27.08.85.53l2.92,2.39a1,1,0,0,1,.44.66c0,.45-.35.49-.66.49H484.17c-.05,3.59-.05,4-.09,5.54h4.39l1.59-1.9c.44-.49.49-.54.71-.54s.27,0,.84.45l2.7,1.95a.78.78,0,0,1,.4.62c0,.4-.35.48-.66.48h-10c0,1-.05,5.41,0,6.34Zm-23.27-30.8c3.9.8,7.36,3.15,7.36,5.63a2.24,2.24,0,0,1-2.17,2.35c-1.24,0-1.46-.49-2.39-3.1a11,11,0,0,0-2.8-4.65Z"/><path d="M30.62,178.57v-1.76H44.88v1.76Zm8.1,4.56v9.75H36.78v-9.75H30.62v-1.74H44.88v1.74Z"/><path d="M57.46,188.78a4.9,4.9,0,0,1-5.19,4.84c-2.51,0-4.76-1.45-4.76-4s1.9-3.49,3.92-4.68c-1.17-.68-3.28-1.92-3.28-4.32,0-2.17,1.72-3.93,4.4-3.93a3.69,3.69,0,0,1,4,3.47c0,1.87-1.8,3.24-2.75,3.94C55.9,185.42,57.46,186.52,57.46,188.78Zm-8.1.82a3.17,3.17,0,0,0,3.17,3.28,3.44,3.44,0,0,0,3.35-3.33c0-2.09-2.18-3.32-3.79-4.22C51.1,186.08,49.36,187.42,49.36,189.6ZM55,180.44a2.78,2.78,0,0,0-2.73-3,2.54,2.54,0,0,0-2.59,2.62c0,1.54,1.25,2.31,3.54,3.68A4.19,4.19,0,0,0,55,180.44Z"/><path d="M60.71,192.5h1.21c1.15,0,1.54-.44,1.54-1.34v-11.9c0-.69-.63-.8-1.05-.8H60.74v-.68h.39a8.58,8.58,0,0,0,3.59-.92.62.62,0,0,1,.31-.13c.19,0,.24.13.24.3v14.13c0,1,.46,1.34,1.54,1.34H68v.71H60.71Z"/><path d="M79.5,185.73A4,4,0,0,1,81,189c0,2.71-2.22,4.64-5.13,4.64-2.37,0-4.38-1.34-4.38-3.1a1.27,1.27,0,0,1,1.26-1.41,1.08,1.08,0,0,1,1.08,1.1,1.77,1.77,0,0,1-.14.71,1.66,1.66,0,0,0-.06.5c0,.84.94,1.46,2,1.46A3.77,3.77,0,0,0,79,189a3.83,3.83,0,0,0-3.43-4c-.14,0-.75.08-.88.08a.43.43,0,0,1-.49-.46.5.5,0,0,1,.51-.5c.13,0,.79.13.94.13a3.2,3.2,0,0,0,3-3.44c0-1.71-1-3.3-2.77-3.3A1.66,1.66,0,0,0,74.13,179a1.94,1.94,0,0,0,.07.33,2.33,2.33,0,0,1,.07.53A1.17,1.17,0,0,1,73.14,181a1.14,1.14,0,0,1-1.1-1.21c0-1.21,1.41-3.08,4.23-3.08s4.4,1.76,4.4,3.69a3.88,3.88,0,0,1-.81,2.25,5.34,5.34,0,0,1-2.8,1.87A5.93,5.93,0,0,1,79.5,185.73Z"/><path d="M87.84,188.72H83.11v-1.43h4.73Z"/><path d="M94.7,193.62a4.44,4.44,0,0,1-3.6-2.37A13.63,13.63,0,0,1,89.75,185c0-4.69,2-8.25,5-8.25,2.27,0,5,2.44,5,8.45C99.66,190.57,97.39,193.62,94.7,193.62ZM92.24,180.4a19.81,19.81,0,0,0-.51,4.78c0,4.9,1.17,7.7,3,7.7,1.52,0,2.2-2,2.45-2.86a21,21,0,0,0,.52-4.84c0-5-1.21-7.71-3-7.71C93.14,177.47,92.46,179.63,92.24,180.4Z"/><path d="M106.58,193.62a4.44,4.44,0,0,1-3.6-2.37,13.63,13.63,0,0,1-1.35-6.27c0-4.69,2-8.25,5-8.25,2.27,0,5,2.44,5,8.45C111.54,190.57,109.27,193.62,106.58,193.62Zm-2.46-13.22a19.81,19.81,0,0,0-.51,4.78c0,4.9,1.17,7.7,3,7.7,1.52,0,2.2-2,2.45-2.86a21,21,0,0,0,.52-4.84c0-5-1.21-7.71-3-7.71C105,177.47,104.34,179.63,104.12,180.4Z"/><path d="M118.46,193.62a4.44,4.44,0,0,1-3.6-2.37,13.63,13.63,0,0,1-1.35-6.27c0-4.69,2-8.25,4.95-8.25,2.27,0,5,2.44,5,8.45C123.42,190.57,121.15,193.62,118.46,193.62ZM116,180.4a19.81,19.81,0,0,0-.51,4.78c0,4.9,1.17,7.7,3,7.7,1.52,0,2.21-2,2.45-2.86a20.89,20.89,0,0,0,.53-4.84c0-5-1.21-7.71-3-7.71C116.9,177.47,116.22,179.63,116,180.4Z"/><path d="M133.6,185.73a4.07,4.07,0,0,1,1.5,3.25c0,2.71-2.22,4.64-5.13,4.64-2.38,0-4.38-1.34-4.38-3.1a1.27,1.27,0,0,1,1.26-1.41,1.08,1.08,0,0,1,1.07,1.1,1.79,1.79,0,0,1-.13.71,1.66,1.66,0,0,0-.06.5c0,.84.94,1.46,2,1.46a3.77,3.77,0,0,0,3.41-3.9,3.84,3.84,0,0,0-3.44-4c-.13,0-.74.08-.88.08a.43.43,0,0,1-.48-.46.5.5,0,0,1,.51-.5c.13,0,.79.13.94.13a3.2,3.2,0,0,0,3-3.44c0-1.71-1-3.3-2.78-3.3a1.65,1.65,0,0,0-1.78,1.48,1.94,1.94,0,0,0,.07.33,2.33,2.33,0,0,1,.06.53,1.16,1.16,0,0,1-1.12,1.21,1.14,1.14,0,0,1-1.1-1.21c0-1.21,1.41-3.08,4.23-3.08s4.4,1.76,4.4,3.69a3.82,3.82,0,0,1-.82,2.25,5.28,5.28,0,0,1-2.79,1.87A5.93,5.93,0,0,1,133.6,185.73Z"/><path d="M151.82,179l.61-.55c.11-.11.27-.27.35-.27a1,1,0,0,1,.33.22l.86.64c.11.09.27.22.27.38s-.24.33-1,.59a27.65,27.65,0,0,1-2.49,3.35v.15c1.59.29,3.24,1.1,3.24,2.31a.87.87,0,0,1-.84.84c-.4,0-.66-.22-1-.86a5,5,0,0,0-1.45-2v5.15c0,.33.09,4.71.09,4.86,0,.73-.24,1.13-1.12,1.13-.6,0-.6-.33-.6-.64,0-1.34.2-8,.25-9.51a16.75,16.75,0,0,1-4.29,2.86l-.09-.13a32.22,32.22,0,0,0,6.64-8h-2.59a15.68,15.68,0,0,0-2.58.2l-.44-.89c.93.09,2.27.16,3.24.16a11.86,11.86,0,0,0-.49-4.27l2.22.62c.11,0,.36.11.36.3s-.2.36-.64.62c0,.37,0,2.18,0,2.73Zm11-2.58.73-.7c.08-.07.28-.29.35-.29s.26.14.42.25l.92.7c.13.11.24.22.24.33s-.2.24-.35.24H156.9a14.64,14.64,0,0,0-2.57.2l-.45-.88c1.61.13,3,.15,3.39.15Zm0,9.42.61-.68c.09-.11.2-.22.29-.22a.73.73,0,0,1,.31.18l1,.72a.48.48,0,0,1,.22.33c0,.13-.2.33-.66.68,0,.18,0,.49,0,.64,0,.79.17,5.22.17,6.12,0,.57-.5.86-1,.86s-.6-.27-.55-1h-6.91c0,.77-.24,1.23-1,1.23-.55,0-.55-.33-.55-.52,0-.77.09-4.14.09-4.82a29.3,29.3,0,0,0-.24-4.64l2,1.16Zm-1.19-6.71.53-.53c.11-.11.22-.24.31-.24s.17.09.26.15l.9.73a.52.52,0,0,1,.22.35c0,.16-.2.31-.61.53,0,.51.11,2.69.11,3.13a.94.94,0,0,1-1,.94c-.53,0-.53-.31-.53-.83H157c0,.35,0,1-.92,1-.44,0-.62-.2-.62-.77,0-.29,0-2.29,0-2.73a25.89,25.89,0,0,0-.16-2.73l1.81,1Zm-5.43,7.24v2.9h2.7v-2.9Zm0,3.43v3.1h2.7v-3.1Zm.81-10.14v3.17h4.8v-3.17Zm6.12,9.61v-2.9h-2.8v2.9Zm0,3.63v-3.1h-2.8v3.1Z"/><path d="M186.73,177.65c0,.81.11,12.67.11,14.28,0,1.41,0,2.62-2.48,3.08-.31-1.21-1.1-1.63-2.23-2.22l0-.16c.44.05,1.78.18,2.17.18.55,0,.73-.09.8-.35s.08-6.82.08-7.7c0-.71,0-7.26,0-7.9H172.08c0,.79,0,9.37,0,10.91,0,.95.08,5.13.08,6a1.08,1.08,0,0,1-1.18,1.21c-.33,0-.64-.1-.64-.83,0-.31.15-1.7.15-2,.07-1.5.09-9.66.09-11.13a41.54,41.54,0,0,0-.24-5.72l2.11,1H185l.57-.64a.35.35,0,0,1,.29-.17.49.49,0,0,1,.26.13l1.19.86c.16.11.27.17.27.35S187.46,177.17,186.73,177.65Zm-2.37,5.11H179.3v7h2.13c0-2.55,0-2.91,0-3.85a4,4,0,0,0-.33-1.45l1.93.33c.2,0,.47.11.47.37s-.09.29-.55.55c0,.35,0,2,0,2.42s.06,2,.06,2.42a.91.91,0,0,1-1,1c-.62,0-.59-.31-.57-1.23h-5.68c0,.15,0,.85,0,1a.93.93,0,0,1-1,1.05.56.56,0,0,1-.61-.61c0-.24.11-.95.11-3.19,0-3.13-.07-3.35-.29-4.18l2,.48c.17,0,.37.09.37.31s0,.22-.66.62v4h2.09v-7h-2.2a16.12,16.12,0,0,0-2.57.19l-.44-.88c1.76.16,3,.16,3.39.16h2.53a12,12,0,0,0,1.32-5l2.24,1.28a.33.33,0,0,1,.22.29c0,.28-.33.37-.94.48-.6.66-1.61,1.94-2.38,2.93h2.93l.74-.86c.14-.13.25-.27.33-.27s.27.12.42.22l1,.86c.08.07.22.18.22.33S184.47,182.76,184.36,182.76Zm-7.59-1.11c-.56,0-.71-.46-1-1.38a6,6,0,0,0-1.21-2.38l.11-.13c.29.11,3,1.26,3,2.9A1,1,0,0,1,176.77,181.65Z"/><path d="M197.25,190.52a13.52,13.52,0,0,1-6,3.48l-.05-.13a22,22,0,0,0,3.79-3.3c1-1.15,1.14-1.5,1.23-2l1.74,1.14c.18.11.29.22.29.37S197.78,190.5,197.25,190.52Zm13.68-2.33h-9c0,.42,0,1.43,0,2.75,0,.88.11,2.27.11,3.15a1.11,1.11,0,0,1-1.21,1.1c-.4,0-.64-.16-.64-.68s.13-3,.13-3.5c0-1.57,0-2.4,0-2.82h-5.92c0,1-1.12,1-1.21,1-.48,0-.55-.33-.55-.61s.13-2.05.16-2.45c0-1.6.06-3,.06-4.75,0-4.29-.09-4.73-.24-5.46l2.07.64c.22.07.44.13.44.33s-.29.42-.68.68c-.07,1.41-.09,2.86-.09,4.27,0,.64,0,5,0,5.81h13.42L209,186.5c.13-.16.22-.27.38-.27s.28.16.37.22l1.37,1.17a.49.49,0,0,1,.22.35C211.29,188.17,211.09,188.19,210.93,188.19Zm-4-11.09c0,.9-.09,2.71.11,7.33,0,.06,0,.57,0,.61a1,1,0,0,1-1.08,1c-.64,0-.62-.42-.62-1h-6.57c0,.33,0,1.08-1.1,1.08-.58,0-.6-.28-.6-.53,0-.08,0-.37,0-.46,0-.5.16-4.42.16-6.71a15.23,15.23,0,0,0-.33-3.59l2.18,1h6.11l.64-.62c.15-.15.22-.24.37-.24a.59.59,0,0,1,.33.2l.91.75a.56.56,0,0,1,.24.39C207.7,176.57,207.19,176.9,206.91,177.1Zm-1.54-.7h-6.63v2.35h6.63Zm0,2.88h-6.63v2.29h6.63Zm0,2.82h-6.63v2.42h6.63ZM208.62,194c-.57,0-.81-.39-1.41-1.34a9.17,9.17,0,0,0-3.23-3.17l.07-.15c3,.51,5.52,2.33,5.52,3.74A.91.91,0,0,1,208.62,194Z"/><path d="M220.06,179l.62-.55c.11-.11.26-.27.35-.27s.26.16.33.22l.86.64c.11.09.26.22.26.38s-.24.33-1,.59a28.39,28.39,0,0,1-2.48,3.35v.15c1.58.29,3.23,1.1,3.23,2.31a.86.86,0,0,1-.84.84c-.39,0-.65-.22-.94-.86a5,5,0,0,0-1.45-2v5.15c0,.33.08,4.71.08,4.86,0,.73-.24,1.13-1.12,1.13-.59,0-.59-.33-.59-.64,0-1.34.2-8,.24-9.51a16.41,16.41,0,0,1-4.29,2.86l-.09-.13a32.29,32.29,0,0,0,6.65-8h-2.6a15.65,15.65,0,0,0-2.57.2l-.44-.89c.92.09,2.26.16,3.23.16a12.18,12.18,0,0,0-.48-4.27l2.22.62c.11,0,.35.11.35.3s-.2.36-.64.62c0,.37,0,2.18,0,2.73Zm11-2.58.73-.7c.09-.07.29-.29.35-.29s.27.14.42.25l.93.7c.13.11.24.22.24.33s-.2.24-.36.24h-8.25a14.7,14.7,0,0,0-2.57.2l-.44-.88c1.61.13,3,.15,3.39.15Zm0,9.42.62-.68c.09-.11.2-.22.28-.22a.73.73,0,0,1,.31.18l1,.72c.11.09.23.2.23.33s-.2.33-.67.68c0,.18,0,.49,0,.64,0,.79.18,5.22.18,6.12,0,.57-.51.86-1.06.86s-.59-.27-.55-1h-6.91c0,.77-.24,1.23-1,1.23-.55,0-.55-.33-.55-.52,0-.77.09-4.14.09-4.82a28.14,28.14,0,0,0-.25-4.64l2,1.16Zm-1.19-6.71.53-.53c.11-.11.22-.24.31-.24s.18.09.26.15l.91.73a.52.52,0,0,1,.22.35c0,.16-.2.31-.62.53,0,.51.11,2.69.11,3.13a.93.93,0,0,1-1,.94c-.53,0-.53-.31-.53-.83h-4.75c0,.35,0,1-.93,1-.44,0-.61-.2-.61-.77,0-.29,0-2.29,0-2.73,0-.86-.07-2-.15-2.73l1.8,1Zm-5.43,7.24v2.9h2.71v-2.9Zm0,3.43v3.1h2.71v-3.1Zm.81-10.14v3.17h4.8v-3.17Zm6.12,9.61v-2.9h-2.79v2.9Zm0,3.63v-3.1h-2.79v3.1Z"/><path d="M255,177.65c0,.81.11,12.67.11,14.28,0,1.41,0,2.62-2.49,3.08-.31-1.21-1.1-1.63-2.22-2.22l0-.16c.44.05,1.78.18,2.18.18s.72-.09.79-.35.09-6.82.09-7.7c0-.71,0-7.26,0-7.9H240.32c0,.79,0,9.37,0,10.91,0,.95.09,5.13.09,6a1.09,1.09,0,0,1-1.19,1.21c-.33,0-.64-.1-.64-.83,0-.31.16-1.7.16-2,.06-1.5.08-9.66.08-11.13a39.94,39.94,0,0,0-.24-5.72l2.11,1h12.55l.57-.64c.09-.11.15-.17.28-.17a.55.55,0,0,1,.27.13l1.19.86c.15.11.26.17.26.35S255.7,177.17,255,177.65Zm-2.38,5.11h-5.06v7h2.13c0-2.55.05-2.91,0-3.85a4,4,0,0,0-.33-1.45l1.94.33c.2,0,.46.11.46.37s-.09.29-.55.55c0,.35,0,2,0,2.42s.07,2,.07,2.42a.92.92,0,0,1-1,1c-.61,0-.59-.31-.57-1.23H244c0,.15,0,.85,0,1a.94.94,0,0,1-1,1.05.56.56,0,0,1-.62-.61c0-.24.11-.95.11-3.19,0-3.13-.06-3.35-.28-4.18l2,.48c.18,0,.38.09.38.31s0,.22-.66.62v4h2.09v-7h-2.2a16.15,16.15,0,0,0-2.58.19l-.44-.88c1.76.16,3,.16,3.39.16h2.53a12,12,0,0,0,1.32-5l2.25,1.28a.35.35,0,0,1,.22.29c0,.28-.33.37-1,.48-.59.66-1.61,1.94-2.38,2.93h2.93l.75-.86c.13-.13.24-.27.33-.27s.26.12.42.22l1,.86a.46.46,0,0,1,.22.33C252.93,182.73,252.71,182.76,252.6,182.76ZM245,181.65c-.55,0-.7-.46-1-1.38a6,6,0,0,0-1.21-2.38l.11-.13c.28.11,3,1.26,3,2.9A1,1,0,0,1,245,181.65Z"/><path d="M279.09,179H268.73l1.82.59c.13.05.29.13.29.29s-.16.33-.6.64c0,.35-.06,1.49-.11,2.24h4.4l.64-.68c.18-.18.24-.24.35-.24a.67.67,0,0,1,.4.22l.88.7c.18.13.29.26.29.4s-.42.55-.66.72c0,1,.11,5.66.11,6.6,0,.64,0,2.16-2.49,2.62a4.05,4.05,0,0,0-1.85-2.09v-.15a13.19,13.19,0,0,0,1.45.08c.75,0,1.19-.08,1.26-.41s0-6,0-7.24h-4.8c0,2.44,0,6.82.09,9.11,0,.24.07,1.32.07,1.54,0,1-1.17,1.08-1.26,1.08a.57.57,0,0,1-.63-.66c0-1.85.22-4.82.24-6.67s0-2.53,0-4.4h-4.45c0,.7,0,3.76,0,4.4s.07,3.54.07,4.13a1.08,1.08,0,0,1-1.17,1.17c-.51,0-.62-.26-.62-.55a3.51,3.51,0,0,1,0-.44c.06-.95.17-5,.17-7a13.41,13.41,0,0,0-.28-3.28l2.18,1.08h4.09a12.7,12.7,0,0,0-.27-3.76h-5.92a16.25,16.25,0,0,0-2.59.19l-.44-.85c1.47.11,3,.13,3.39.13h5.87a8.35,8.35,0,0,0-.57-3.83l2.42.53c.2,0,.42.11.42.33s0,.24-.73.66c0,.37,0,2,0,2.31H276l1.05-1.23c.16-.2.24-.27.36-.27a.6.6,0,0,1,.39.22l1.41,1.23a.46.46,0,0,1,.22.36C279.42,179,279.24,179,279.09,179Z"/><path d="M293.43,186.85a13.75,13.75,0,0,0,9.46,4.62v.18a3.43,3.43,0,0,0-2.35,2c-.68-.22-5.59-2.75-7.5-6.69,0,1,0,5.32.08,6.2,0,.11,0,.64,0,.75a1.14,1.14,0,0,1-1.24,1.08c-.46,0-.57-.33-.57-.62,0-.06,0-.24,0-.48.11-1.52.25-3.41.25-6a19.89,19.89,0,0,1-9.29,5.81l-.07-.17c3.33-1.35,7.9-6,8.34-6.69h-2.94c0,.75-.16,1.3-1.15,1.3-.46,0-.55-.22-.55-.49s.11-1.32.11-1.54c0-.72.07-1.91.07-3.1a13.31,13.31,0,0,0-.29-3.59l2.05.9h3.74c0-.5,0-1.71-.05-2.26h-6a14.69,14.69,0,0,0-2.6.2l-.44-.88c1.63.13,3.06.15,3.39.15h5.61a8.1,8.1,0,0,0-.44-2.86l2.29.59c.2,0,.37.14.37.31s-.52.6-.72.73v1.23h6l.95-1.1c.15-.18.24-.29.35-.29s.24.11.4.25l1.34,1.1c.15.13.22.22.22.33s-.2.24-.33.24H293v2.26h3.76l.72-.63a.53.53,0,0,1,.27-.16.52.52,0,0,1,.31.16l1,.79a.49.49,0,0,1,.22.35c0,.2-.14.29-.71.64,0,.48,0,1.12,0,2.75,0,.31.13,2.66.13,2.86,0,.7-.64.92-1.12.92s-.58-.46-.53-1.16Zm-5.81-6v2.38h4l0-2.38Zm4,5.46v-2.55h-4v2.55Zm5.52,0v-2.55H293c0,.35,0,2.15,0,2.55Zm0-3.08v-2.38H293v2.38Z"/><path d="M324.43,193.38H308.76a1.14,1.14,0,0,1-1.27,1.32c-.55,0-.6-.28-.6-.52s.09-1.85.11-2.21c.14-2.83.2-12.12.2-12.32a19.44,19.44,0,0,0-.28-4.42l2.24,1.12H321l.92-1c.13-.14.22-.27.33-.27s.24.11.42.24l1.27,1a.48.48,0,0,1,.22.33c0,.22-.19.24-.35.24h-15c0,1.23-.09,6.64-.09,7.75,0,2.53,0,7.08,0,8.22h12.66l1-1.14c.15-.18.24-.26.35-.26a1,1,0,0,1,.4.22l1.38,1.14c.09.09.22.2.22.33S324.59,193.38,324.43,193.38ZM320.89,180a39.26,39.26,0,0,1-3.17,4.67c1.5,1.3,3.52,3.3,3.52,4.77a.85.85,0,0,1-.86.9c-.59,0-.81-.41-1.23-1.18a19.52,19.52,0,0,0-2.33-3.39c-3.48,4-5.92,5-7.11,5.43l-.07-.17a32.42,32.42,0,0,0,6.23-6.3,34.6,34.6,0,0,0-5-4.29l.09-.15a22,22,0,0,1,5.7,3.43c1.34-1.82,2.73-4,2.88-5.83l2,1.34a.46.46,0,0,1,.22.33C321.68,179.9,321.31,179.94,320.89,180Z"/><path d="M346.52,186.85a16.35,16.35,0,0,1-7.72-6.49h-.05c0,.7.07,3.85.07,4.49,0,.28,0,.48-.16.61a1.48,1.48,0,0,1-.92.35.58.58,0,0,1-.64-.63c0-.16.07-.86.07-1,0-.73,0-1.74,0-2.87a23.67,23.67,0,0,1-9.79,6l-.07-.17a32.36,32.36,0,0,0,8.43-6.8h-4.51a15.18,15.18,0,0,0-2.6.2l-.44-.88c1.41.1,2.78.15,3.39.15h5.59l0-2.25a42.12,42.12,0,0,1-5.12.31c-.93,0-1.59,0-2.23-.06v-.22a53,53,0,0,0,10.37-2c1.45-.49,1.65-.8,1.89-1.15L343.9,176c.13.13.2.22.2.35,0,.29-.33.31-.44.31a4.38,4.38,0,0,1-.66-.11c-2.49.59-4.05.81-4.27.84l0,2.44H345l.68-1c.11-.17.22-.29.33-.29a1,1,0,0,1,.44.22l1.23,1c.14.12.24.2.24.33s-.19.25-.33.25h-8.38a15.8,15.8,0,0,0,9.29,4.57v.16A3.4,3.4,0,0,0,346.52,186.85Zm-3.1.68c0,.77,0,1.67.06,3.32,0,.46.13,2.82.13,3a1,1,0,0,1-1.07,1c-.73,0-.71-.35-.64-1.29h-7.7c0,.52.06,1.49-1.06,1.49a.61.61,0,0,1-.68-.68c0-.27.11-1.32.11-1.54.06-1.7.09-3.63.09-5.33,0-.63,0-1.14-.11-2l1.93,1h7.15l.66-.7a.62.62,0,0,1,.38-.18.73.73,0,0,1,.39.2l.82.66a.52.52,0,0,1,.22.39C344.1,187,344,187.07,343.42,187.53ZM341.9,187h-7.7v2.7h7.7Zm0,3.23h-7.7V193h7.7Z"/><path d="M356.15,179.92a.41.41,0,0,1,.25.33c0,.17-.2.35-.6.64,0,.74,0,1.29,0,2.72,0,3.13.06,7,.13,8.58,0,.49,0,1.1,0,1.41,0,.84-.2,1.39-1.12,1.39-.55,0-.77-.22-.77-.75,0-.15.24-4.25.24-5s.05-2.95.09-7.08a15.89,15.89,0,0,1-3.48,3.61l-.13-.09a38.46,38.46,0,0,0,5-9.73,9.19,9.19,0,0,0,.23-1.3l2,1.15c.17.11.3.22.3.39,0,.4-.44.53-.92.66-.33.71-.68,1.43-1.48,2.91Zm7.9.26v5.55h2.49l.75-1c.06-.08.22-.26.35-.26a1,1,0,0,1,.39.22l1.41,1a.53.53,0,0,1,.22.33c0,.24-.2.24-.33.24h-5.28v6.69h3.76l.95-1.12c.11-.13.24-.29.35-.29s.27.14.4.25l1.28,1.12c.08.09.22.2.22.33s-.2.24-.33.24H359.43a15.84,15.84,0,0,0-2.59.2l-.42-.86c1.08.09,2.29.13,3.36.13h2.71v-6.69H361a16.33,16.33,0,0,0-2.59.2l-.44-.88c1.07.11,2.31.16,3.38.16h1.17v-5.55H360a15.25,15.25,0,0,0-2.58.2l-.44-.88c1.81.15,3.13.15,3.37.15h6.71l.79-1.05c.13-.2.22-.33.38-.33s.24.13.39.24l1.43,1.1a.51.51,0,0,1,.22.33c0,.22-.22.24-.33.24Zm-2.84-5.37c1,.44,3.26,1.54,3.26,3.28,0,.51-.22,1.06-.9,1.06s-.93-.62-1.1-1.32a10.82,10.82,0,0,0-1.37-2.89Z"/><path d="M386.18,184.52c-1.4,0-2.81,0-4.22.06.75.49.84.55.84.71s-.42.48-.47.59-.5,1.39-.74,2.07a9.48,9.48,0,0,1-5.92,5.83l-.07-.18a11.62,11.62,0,0,0,5.37-8.27c0-.29-.07-.44-.42-.68-.35,0-1.87.28-2.18.28s-.55-.15-1-.48a10,10,0,0,1-4,3.45l-.11-.17c2.42-2.16,4.6-5.9,4.6-6.89,0-.46-.24-.59-1-1a2.51,2.51,0,0,1,1-.19,2.59,2.59,0,0,1,2.09,1.4c0,.18-.05.22-.47.53-.17.13-1.38,1.89-1.65,2.24a7,7,0,0,0,.93.07c.66,0,4.62-.35,5.56-.53.18,0,1-.3,1.13-.3.33,0,1.6.48,1.6.94S386.45,184.52,386.18,184.52Z"/><path d="M409.59,193.38h-16.5a13.48,13.48,0,0,0-2.6.2l-.44-.88c1.52.13,3.08.15,3.39.15h1c0-2,0-5.3,0-7.32,0-.55,0-7-.07-7.84a5.1,5.1,0,0,0-.26-1.1l2.2,1.19a29.9,29.9,0,0,0,7.06-1.69,1.91,1.91,0,0,0,.92-.71l2.05,1.61a.72.72,0,0,1,.18.37c0,.11-.09.29-.42.29a7.54,7.54,0,0,1-.88-.11c-.13,0-2.05.29-2.33.31a57.71,57.71,0,0,1-6.89.37v5.26h9.06l.93-1.27c0-.07.2-.29.33-.29a.85.85,0,0,1,.42.22l1.47,1.28a.5.5,0,0,1,.24.35c0,.2-.19.24-.33.24h-4.9v8.84h3l1.14-1.34c.11-.13.22-.28.33-.28a.74.74,0,0,1,.42.22l1.56,1.36a.46.46,0,0,1,.22.33C409.92,193.34,409.73,193.38,409.59,193.38Zm-7.9-9.37H396v8.84h5.65Z"/><path d="M421,193.21h-8.65v-.6a15.08,15.08,0,0,1,3.24-4.93c3.23-3.74,4.33-5,4.33-7.19a2.83,2.83,0,0,0-2.92-3c-1.55,0-2.47.93-2.47,1.72a1.2,1.2,0,0,0,.22.68,1.89,1.89,0,0,1,.46,1.1,1.23,1.23,0,0,1-1.19,1.24,1.39,1.39,0,0,1-1.25-1.55c0-1.6,1.56-3.93,4.73-3.93,2.73,0,4.4,1.71,4.4,4.09,0,2.22-1.27,3.43-3.26,5.13-.74.61-3.65,3.1-4.75,5.52h3c3.08,0,3.81-1.19,4.47-3l.66.25Z"/><path d="M444.11,177.58h-8.58c0,.62.09,12.7.09,13.36,0,1.89,0,3.48-3.06,3.79-.11-.93-.26-1.37-2.73-2.71l.05-.16a20.05,20.05,0,0,0,2.92.31c.68,0,1-.09,1.1-.44a11.42,11.42,0,0,0,.07-1.6c0-2,0-10.74,0-12.55h-6.25a14.81,14.81,0,0,0-2.6.2l-.44-.86c1.37.09,2.73.14,3.39.14h12.54l1.23-1.3c.09-.09.22-.27.36-.27a.71.71,0,0,1,.39.22l1.63,1.3a.49.49,0,0,1,.22.35C444.44,177.56,444.24,177.58,444.11,177.58Z"/><path d="M458.92,176.48l.61-.63c.13-.16.25-.27.38-.27a.71.71,0,0,1,.39.22l1.08.9c.2.18.24.29.24.4,0,.26-.3.46-.81.81-.05,1-.05,1.37-.05,2.34,0,5.32.12,8.14.25,12.21,0,0,0,.37,0,.46,0,.93-1.15,1-1.23,1-.64,0-.6-.55-.58-.92h-8.36c.05.44.05.57-.08.77a1.48,1.48,0,0,1-1.17.52c-.57,0-.59-.3-.59-.57,0-.42.13-2.18.15-2.53.09-2.11.11-7.46.11-9.66a34.2,34.2,0,0,0-.29-6.11l2.2,1.07Zm-8.06.53v4.73h8.39V177Zm0,5.26V187h8.39v-4.75Zm0,5.28v4.91h8.39v-4.91Z"/><path d="M466.39,192.5h1.22c1.14,0,1.54-.44,1.54-1.34v-11.9c0-.69-.64-.8-1.06-.8h-1.67v-.68h.39a8.53,8.53,0,0,0,3.59-.92.62.62,0,0,1,.31-.13c.2,0,.24.13.24.3v14.13c0,1,.46,1.34,1.54,1.34h1.21v.71h-7.31Z"/><path d="M478.82,178.88l-.19,5.55a4.62,4.62,0,0,1,3.41-1.52c3.17,0,4.68,2.62,4.68,5a5.58,5.58,0,0,1-5.43,5.67c-2.51,0-4.16-1.87-4.16-3.23a1.25,1.25,0,0,1,1.28-1.36,1.08,1.08,0,0,1,1.14,1.14,2.17,2.17,0,0,1-.11.66,3.68,3.68,0,0,0-.07.62c0,.94,1,1.43,1.88,1.43,1.78,0,3.45-1.7,3.45-4.65,0-2.79-1.47-4.33-3.08-4.33a4.77,4.77,0,0,0-3.43,1.91l-.33-.17.33-8.5h7.65l-.44,1.74Z"/><path d="M493.52,188.72h-4.73v-1.43h4.73Z"/><path d="M504.1,193.21h-8.64v-.6a15,15,0,0,1,3.23-4.93c3.24-3.74,4.34-5,4.34-7.19a2.84,2.84,0,0,0-2.93-3c-1.54,0-2.47.93-2.47,1.72a1.2,1.2,0,0,0,.22.68,1.91,1.91,0,0,1,.47,1.1,1.23,1.23,0,0,1-1.19,1.24,1.4,1.4,0,0,1-1.26-1.55c0-1.6,1.57-3.93,4.74-3.93,2.72,0,4.4,1.71,4.4,4.09,0,2.22-1.28,3.43-3.26,5.13-.75.61-3.65,3.1-4.75,5.52h3c3.08,0,3.81-1.19,4.47-3l.66.25Z"/><path d="M508.61,192.5h1.21c1.15,0,1.54-.44,1.54-1.34v-11.9c0-.69-.64-.8-1.05-.8h-1.68v-.68h.4a8.63,8.63,0,0,0,3.59-.92.62.62,0,0,1,.31-.13c.19,0,.24.13.24.3v14.13c0,1,.46,1.34,1.54,1.34h1.21v.71h-7.31Z"/><path d="M525.86,193.8c-3.72,0-4.31-1.72-4.31-5.61,0-1.12.26-8.27.26-9.44,0-1.72-.41-1.87-1.78-2.33a2.11,2.11,0,0,1,1.45-.55c1.08,0,2.4,1,2.4,1.69a11.63,11.63,0,0,1-.26,1.23,63.84,63.84,0,0,0-.82,10c0,2.48,0,3.72,2.42,3.72,2.6,0,7.77-2.25,9.75-4.12l.09.09A10.68,10.68,0,0,1,525.86,193.8Z"/><path d="M546.63,192.72l0-.17c4.71-1.68,6.91-4.78,6.91-8.12,0-3.72-3-5.92-6.82-5.92a1.79,1.79,0,0,0-.91.13c1.19.64,1.52,1.45,1.52,1.76s-.06.4-.75,1.83c-1.4,3-3.47,7.43-5,8.67a1.27,1.27,0,0,1-.7.24c-.51,0-.71-.29-1.37-1.21-.15-.22-1-1-1.18-1.23a4.06,4.06,0,0,1-.62-2.25c0-4.73,4-8.62,9.37-8.62,4.27,0,8.14,2.48,8.14,6.91C555.23,189,551.67,192.28,546.63,192.72Zm-1.74-13.95c-2.42.4-5.78,3.52-5.78,7.57,0,1.5.85,3.15,1.71,3.15.6,0,1.45-1.56,1.83-2.31,2.2-4.42,2.92-5.86,2.92-7A1.92,1.92,0,0,0,544.89,178.77Z"/><path d="M562.14,190.06a7.69,7.69,0,0,0-.11,1.19c0,.24.13,1.25.13,1.45,0,.64-.37.7-.61.7-1.57,0-2-3.91-2-5.47a36.32,36.32,0,0,1,.7-6.12c.31-1.72.46-2.53.46-2.82a2,2,0,0,0-.94-1.78,1.56,1.56,0,0,1,.66-.13A2.35,2.35,0,0,1,562.6,179c0,.28,0,.37-.35,1.1a18.2,18.2,0,0,0-1.56,7c0,.35.09,2.55.39,2.55.14,0,.25-.2.29-.38s1.45-3.89,1.61-4.31l.22.05C563.17,185,562.16,190,562.14,190.06Zm13.6,2.29a2.64,2.64,0,0,1-1.32-.66,15.5,15.5,0,0,0-1.92-1.28,3.28,3.28,0,0,1-3.54,2.51c-1.89,0-3.52-1-3.52-2.4s1.41-2.18,3.61-2.18a14.51,14.51,0,0,1,2.29.2c0-1-.22-5.34-.24-6.25a12.25,12.25,0,0,1-1.83.16c-.95,0-3.21-.29-3.81-1.65a8.65,8.65,0,0,0,3.08.55,18,18,0,0,0,2.51-.22c0-1.39-.11-3.3-.15-3.52-.09-.44-.22-.69-1.5-1a2.28,2.28,0,0,1,1.43-.57c.75,0,1.89.62,1.89,1.19,0,.07-.24,1.25-.26,1.34a21.18,21.18,0,0,0-.18,2.36l.73-.2a11.13,11.13,0,0,1,2-.44c.42,0,1.17.33,1.17.75,0,.66-1.41.83-3.9,1.14,0,.15.05,3.46.36,6.8,2.5,1,3.74,1.61,3.74,2.66A.67.67,0,0,1,575.74,192.35Zm-7.09-3c-1.71,0-2.4.64-2.4,1,0,.57.82,1.19,2.25,1.19.37,0,2.33,0,2.68-1.81A7.1,7.1,0,0,0,568.65,189.38Z"/><path d="M584.1,193.58v-.13a16.31,16.31,0,0,0,5.17-1.8c1.56-.84,2.86-1.9,2.86-3.77a2.58,2.58,0,0,0-2.77-2.81c-2.62,0-5.44,1.76-7.2,4.42a.67.67,0,0,1-.55.39c-.81,0-1.17-1.29-1.17-1.76a7.43,7.43,0,0,1,.29-1.58,33.53,33.53,0,0,0,.4-4.62c0-2,0-3.15,3.8-3.74.13,0,.2-.05.2-.16s-.07-.15-.59-.5a3,3,0,0,1-1.37-2.18,9.29,9.29,0,0,0,3.17,1.69c.48.2,1.72.71,1.72,2,0,.48-.18.68-.47.68a2.35,2.35,0,0,1-1-.35,6.49,6.49,0,0,0-2.29-.37c-1.67,0-2.37.52-2.37,1.16,0,.22,0,.35.48,1.45a2.68,2.68,0,0,1,.16.77c0,.22-.27,1.1-.31,1.3a15.63,15.63,0,0,0-.46,3c0,.14,0,.51.28.51s1.5-1,1.78-1.17a11.54,11.54,0,0,1,5.68-1.76,3.92,3.92,0,0,1,4.29,3.83C593.82,191.73,589.33,193.89,584.1,193.58Z"/><path d="M609.77,191.73a37.32,37.32,0,0,1-5.1.31c-5.9,0-6-1.43-6-5.57,0-.9.09-4.92.09-5.74,0-1.83,0-2.31-1.81-3,.64-.42.75-.51,1.06-.51.84,0,2.79.79,2.79,1.54a6.29,6.29,0,0,1-.41.91c-.11.37-.33,4.7-.38,5.41,3.44-1.1,7.53-4.05,7.53-4.62,0-.27-.66-.79-.93-1a2.5,2.5,0,0,1,.51-.06,3.16,3.16,0,0,1,2.82,2.11c0,.33-.11.35-1,.62a5.23,5.23,0,0,0-.68.26c-5.21,2.51-5.76,2.8-8.25,3.19,0,.46,0,.93,0,1.67,0,2.78,0,3.5,4.09,3.5a12,12,0,0,0,4-.57A2.59,2.59,0,0,1,609,190c.53,0,1.89.11,1.89.93C610.85,191.49,610.1,191.67,609.77,191.73Zm.79-12.63c-.28,0-.35-.08-1-.81a12.53,12.53,0,0,0-2.39-1.94c2.11.18,3.91.86,3.91,2C611.09,178.71,610.87,179.1,610.56,179.1Zm2.27-1.25c-.24,0-.35-.09-1.36-1a7.74,7.74,0,0,0-2.29-1.54,3.71,3.71,0,0,1,.48-.05c.77,0,3.68.46,3.68,1.89C613.34,177.47,613.14,177.85,612.83,177.85Z"/><path d="M620.9,181.1c0,.51-.22,2.78-.26,3.24-.57,4.73-3.41,7.24-5.28,8l-.11-.13a13.56,13.56,0,0,0,4.07-10.43c0-1.83,0-1.83-1.7-2.27a2.62,2.62,0,0,1,1.46-.57c.57,0,2.06.48,2.06,1.1C621.14,180.23,620.92,181,620.9,181.1Zm5.35,9.09a6.68,6.68,0,0,0-1.39,1.23c-.11.11-.31.33-.44.33-.41,0-1.41-1.8-1.41-2.09s.27-.81.29-1a34.68,34.68,0,0,0,.2-4.38c0-.82,0-4.89-.13-5.42s-.53-.68-1.59-1a2.41,2.41,0,0,1,1.23-.46c.66,0,2.38.66,2.38,1.32a9.93,9.93,0,0,1-.31,1.25c-.22,1.12-.33,7.29-.33,8.63,0,.09,0,.37.16.37.53,0,4.51-2.53,8-6.93l.18.13A20.28,20.28,0,0,1,626.25,190.19Z"/><path d="M641.45,176.73h.9V187.9h2.49v.71h-2.49v2.55c0,1,.49,1.34,1.54,1.34h.35v.71h-5.58v-.71H639c1,0,1.54-.35,1.54-1.34v-2.55h-5.92v-.77Zm-.9,2.9-5.08,8.27h5.08Z"/><path d="M651.61,193.62a4.44,4.44,0,0,1-3.6-2.37,13.63,13.63,0,0,1-1.35-6.27c0-4.69,2-8.25,5-8.25,2.27,0,5,2.44,5,8.45C656.57,190.57,654.3,193.62,651.61,193.62Zm-2.46-13.22a19.81,19.81,0,0,0-.51,4.78c0,4.9,1.17,7.7,3,7.7,1.52,0,2.2-2,2.45-2.86a21,21,0,0,0,.52-4.84c0-5-1.21-7.71-3-7.71C650.05,177.47,649.37,179.63,649.15,180.4Z"/><path d="M666.75,185.73a4.07,4.07,0,0,1,1.5,3.25c0,2.71-2.23,4.64-5.13,4.64-2.38,0-4.38-1.34-4.38-3.1a1.27,1.27,0,0,1,1.26-1.41,1.08,1.08,0,0,1,1.07,1.1,1.79,1.79,0,0,1-.13.71,1.66,1.66,0,0,0-.06.5c0,.84.94,1.46,2,1.46a3.77,3.77,0,0,0,3.41-3.9,3.84,3.84,0,0,0-3.44-4c-.13,0-.74.08-.88.08a.43.43,0,0,1-.48-.46.5.5,0,0,1,.51-.5c.13,0,.79.13.94.13a3.2,3.2,0,0,0,3-3.44c0-1.71-1-3.3-2.78-3.3a1.65,1.65,0,0,0-1.78,1.48,1.94,1.94,0,0,0,.07.33,2.33,2.33,0,0,1,.06.53,1.16,1.16,0,0,1-1.12,1.21,1.14,1.14,0,0,1-1.1-1.21c0-1.21,1.41-3.08,4.23-3.08s4.4,1.76,4.4,3.69a3.82,3.82,0,0,1-.82,2.25,5.28,5.28,0,0,1-2.79,1.87A5.93,5.93,0,0,1,666.75,185.73Z"/><path d="M239.38,218.18l.48-.45c.09-.09.21-.22.28-.22s.21.13.27.18l.68.52c.08.08.21.18.21.31s-.2.27-.77.49a21.91,21.91,0,0,1-2,2.73v.13c1.25.23,2.56.9,2.56,1.89a.69.69,0,0,1-.66.68c-.32,0-.53-.18-.75-.7a4.07,4.07,0,0,0-1.15-1.65v4.21c0,.27.07,3.85.07,4,0,.59-.2.92-.9.92-.47,0-.47-.27-.47-.53,0-1.09.16-6.53.2-7.77a13.67,13.67,0,0,1-3.41,2.34l-.07-.11a26.1,26.1,0,0,0,5.27-6.52h-2.06a12.31,12.31,0,0,0-2,.16l-.35-.72c.74.07,1.8.13,2.57.13a10.08,10.08,0,0,0-.39-3.49l1.77.5c.09,0,.28.09.28.25s-.16.29-.51.5c0,.31,0,1.79,0,2.24Zm8.74-2.11.58-.57c.07-.06.22-.24.28-.24s.21.11.33.2l.73.57a.43.43,0,0,1,.19.28c0,.18-.15.19-.28.19h-6.54a10.83,10.83,0,0,0-2,.17l-.35-.73c1.27.11,2.37.13,2.69.13Zm0,7.71.49-.56c.07-.09.16-.18.23-.18a.56.56,0,0,1,.24.14l.81.6a.4.4,0,0,1,.17.27c0,.11-.16.27-.52.55a5.11,5.11,0,0,0,0,.53c0,.65.14,4.27.14,5a.75.75,0,0,1-.84.71c-.47,0-.47-.22-.43-.85h-5.48c0,.63-.2,1-.82,1-.44,0-.44-.27-.44-.43,0-.63.07-3.39.07-3.95a24.94,24.94,0,0,0-.19-3.8l1.59,1Zm-.94-5.49.42-.44c.09-.09.18-.19.24-.19s.14.07.21.12l.72.6a.4.4,0,0,1,.17.28c0,.13-.15.26-.48.44,0,.41.08,2.19.08,2.55a.75.75,0,0,1-.82.78c-.42,0-.42-.25-.42-.69h-3.77c0,.29,0,.83-.73.83-.35,0-.49-.16-.49-.63,0-.23,0-1.87,0-2.23a22.14,22.14,0,0,0-.13-2.23l1.44.81Zm-4.31,5.92v2.38H245v-2.38Zm0,2.81v2.54H245V227Zm.65-8.3v2.59h3.8v-2.59Zm4.85,7.87v-2.38h-2.22v2.38Zm0,3V227h-2.22v2.54Z"/><path d="M269.18,217.11c0,.67.09,10.38.09,11.69,0,1.15,0,2.14-2,2.52-.24-1-.87-1.33-1.76-1.82l0-.12c.35,0,1.41.14,1.73.14s.57-.07.62-.29.07-5.58.07-6.3,0-5.94,0-6.46H257.55c0,.64,0,7.67,0,8.93,0,.77.06,4.19.06,4.88a.88.88,0,0,1-.94,1c-.26,0-.5-.09-.5-.69,0-.25.12-1.38.12-1.6.05-1.22.07-7.9.07-9.11a34.2,34.2,0,0,0-.19-4.68l1.67.84h9.95l.46-.52c.07-.09.12-.14.22-.14a.43.43,0,0,1,.21.11l.94.7c.13.09.21.14.21.29S269.75,216.72,269.18,217.11Zm-1.89,4.18h-4V227H265c0-2.09,0-2.38,0-3.15a3.25,3.25,0,0,0-.26-1.19l1.54.27c.16,0,.36.09.36.31s-.06.23-.43.45c0,.29,0,1.66,0,2s0,1.67,0,2a.73.73,0,0,1-.8.79c-.49,0-.47-.25-.46-1h-4.5c0,.13,0,.71,0,.83a.76.76,0,0,1-.77.87.46.46,0,0,1-.49-.51c0-.2.09-.77.09-2.61a10.85,10.85,0,0,0-.23-3.42l1.62.4c.14,0,.3.07.3.25s0,.18-.52.5V227h1.66v-5.69h-1.75a12.39,12.39,0,0,0-2,.16l-.35-.72c1.4.13,2.41.13,2.69.13h2a9.93,9.93,0,0,0,1.05-4.07l1.78,1.05a.26.26,0,0,1,.18.23c0,.23-.27.31-.75.4-.48.54-1.28,1.58-1.89,2.39h2.32l.6-.7c.1-.11.19-.22.26-.22a.68.68,0,0,1,.33.18l.82.7a.39.39,0,0,1,.17.28C267.55,221.27,267.38,221.29,267.29,221.29Zm-6-.9c-.44,0-.56-.38-.8-1.13a5.08,5.08,0,0,0-1-1.95l.08-.1c.23.09,2.41,1,2.41,2.37A.76.76,0,0,1,261.27,220.39Z"/><path d="M279.62,227.65a10.6,10.6,0,0,1-4.78,2.84l0-.1a18.4,18.4,0,0,0,3-2.7c.82-.94.9-1.23,1-1.63l1.38.94c.14.09.23.18.23.31S280,227.63,279.62,227.65Zm10.86-1.91h-7.14c0,.34,0,1.17,0,2.25,0,.72.08,1.86.08,2.58a.88.88,0,0,1-1,.9c-.31,0-.5-.13-.5-.56s.1-2.45.1-2.87c0-1.27,0-2,0-2.3h-4.7c0,.83-.89.83-1,.83-.38,0-.43-.27-.43-.51s.1-1.67.12-2c0-1.32.05-2.49.05-3.89a21,21,0,0,0-.19-4.47l1.64.52c.18.06.35.11.35.27s-.23.35-.54.56c-.05,1.15-.07,2.34-.07,3.49,0,.53,0,4.11,0,4.76h10.65l.86-1c.1-.12.17-.21.29-.21s.23.12.3.18l1.08,1a.39.39,0,0,1,.18.29C290.76,225.72,290.6,225.74,290.48,225.74Zm-3.2-9.07c0,.73-.07,2.21.09,6,0,.06,0,.47,0,.51a.78.78,0,0,1-.86.82c-.5,0-.48-.34-.48-.82h-5.22c0,.27,0,.88-.88.88-.45,0-.47-.24-.47-.44s0-.3,0-.37c0-.42.12-3.62.12-5.49a12.86,12.86,0,0,0-.26-2.94l1.73.85h4.85l.51-.51c.12-.12.17-.2.29-.2s.21.11.27.17l.71.61a.46.46,0,0,1,.19.32C287.91,216.23,287.51,216.5,287.28,216.67Zm-1.22-.58h-5.25V218h5.25Zm0,2.36h-5.25v1.87h5.25Zm0,2.3h-5.25v2h5.25Zm2.59,9.71c-.46,0-.65-.33-1.12-1.1a7.25,7.25,0,0,0-2.57-2.59l.06-.13c2.42.41,4.38,1.91,4.38,3.06A.74.74,0,0,1,288.65,230.46Z"/><path d="M303.7,223.42h-3.16a11.35,11.35,0,0,1-.46,2.72c1.94.72,3.29,1.92,3.29,3a.82.82,0,0,1-.72.88c-.47,0-.77-.56-1-1.08a5.78,5.78,0,0,0-1.68-2.57,7.3,7.3,0,0,1-4.8,4.91l0-.12a9.39,9.39,0,0,0,3.14-3.68,11.06,11.06,0,0,0,1.07-4.08h-1.66a12.5,12.5,0,0,0-2.06.16l-.35-.72c1.38.13,2.57.13,2.69.13h1.41c.07-.78.11-1.48.11-2.65,0-.78,0-1.3,0-1.62h-1.1a12.15,12.15,0,0,1-2.39,3.49l-.1-.09c.85-1.57,2.37-5.4,2.23-7.47l1.68.79c.17.07.31.18.31.33s-.26.3-.73.45a18.93,18.93,0,0,1-.79,2.07h2.76l.59-.76c.16-.2.2-.25.3-.25a.7.7,0,0,1,.33.2l.86.77c.09.09.17.16.17.27s-.17.2-.26.2h-2.67c0,1.83,0,3.13-.1,4.27h1.13l.49-.72c.1-.17.19-.29.3-.29s.14,0,.33.2l1,.77a.39.39,0,0,1,.17.27C304,223.4,303.79,223.42,303.7,223.42Zm6.3-4.32c-.05,1.67,0,5.47,0,7.9,0,.43.14,2.29.14,2.67a.86.86,0,0,1-.89.91c-.54,0-.52-.25-.47-1.55h-3.16c0,.22,0,1.28,0,1.39a.9.9,0,0,1-.88.52c-.54,0-.54-.32-.54-.46,0-.38.07-1,.09-1.37,0-1.16.14-5,.14-7.21a30.56,30.56,0,0,0-.23-4.64l1.59.81h2.86l.54-.49c.09-.09.14-.14.21-.14a.31.31,0,0,1,.21.13l.81.72a.41.41,0,0,1,.17.28C310.61,218.72,310.44,218.88,310,219.1Zm-1.19-.6h-3.16v10.1h3.16Z"/><path d="M331.35,225.16h-2.76c0,.08,0,.85,0,1s.09,1.33.09,1.46c0,.58-.59.77-.89.77-.49,0-.47-.3-.42-1H323.9c0,2.14,0,2.31-.12,2.68a2.58,2.58,0,0,1-1.85,1.46c-.32-1.1-1-1.55-2.2-2v-.12c.35,0,1.47.16,2.13.16.16,0,.6,0,.7-.21s.09-.37.12-1.95h-3.23a10.56,10.56,0,0,0-2,.16l-.35-.72c1.09.09,2.17.13,2.69.13h2.93l0-1.77H317.6a11.42,11.42,0,0,0-2.06.17l-.35-.73c1.17.11,2.36.13,2.69.13h4.85v-1.8h-3.44a10.85,10.85,0,0,0-2.06.18l-.35-.72c1.22.11,2.53.11,2.69.11h3.16v-1.69h-3.37a1,1,0,0,1-.07.5.9.9,0,0,1-.77.4.39.39,0,0,1-.43-.4c0-.11.08-1.46.08-1.75a7.86,7.86,0,0,0-.12-2l1.4.67h3.28v-1.37h-4.54a11.69,11.69,0,0,0-2.06.16l-.33-.72c1.08.09,2.16.13,2.67.13h4.26a10.22,10.22,0,0,0-.33-2.07l1.85.57c.19.06.28.15.28.28s-.3.34-.61.48c0,.16,0,.47,0,.74h4.19l.71-.86c.13-.17.18-.22.27-.22s.15,0,.33.18l1.11.86c.14.11.18.18.18.27s-.16.2-.26.2h-6.55c0,.11,0,1.17,0,1.37h3.3l.39-.38c.12-.12.17-.18.24-.18s.12,0,.25.13l.73.61c.12.09.16.16.16.25s-.35.36-.47.42c0,.25,0,1.35,0,1.58a.8.8,0,0,1-.82.83c-.42,0-.4-.34-.38-.7h-3.42c0,.43,0,.55,0,1.69h3.34l.49-.54c.12-.13.17-.2.26-.2s.12,0,.3.18l.69.61a.4.4,0,0,1,.16.26c0,.09-.05.18-.51.5v1.42h.72l.7-.88c.14-.16.17-.24.26-.24s.17.06.31.2l.88.89c.12.12.15.19.15.27S331.46,225.16,331.35,225.16Zm-8.62-6.48h-3.37v1.69h3.37Zm4.54,0h-3.41v1.69h3.41Zm.14,4.25h-3.55v1.8h3.55Zm0,2.23h-3.53l0,1.77h3.51Z"/><path d="M342.37,231.72a11.24,11.24,0,0,1,0-17.43l.16.25a12.45,12.45,0,0,0,0,16.93Z"/><path d="M347.86,229.27h1c.9,0,1.22-.36,1.22-1.1v-9.74c0-.56-.51-.65-.84-.65h-1.33v-.56h.32a6.67,6.67,0,0,0,2.84-.75c.13-.07.18-.11.25-.11s.19.11.19.25v11.56c0,.77.37,1.1,1.22,1.1h1v.58h-5.79Z"/><path d="M359.13,231.72l-.15-.25a12.48,12.48,0,0,0,0-16.93l.15-.25a11.24,11.24,0,0,1,0,17.43Z"/><path d="M378,217.75h-3c1,.63,1.43.93,1.43,1.6a.72.72,0,0,1-.66.79c-.49,0-.53-.27-.65-1.06a4.33,4.33,0,0,0-.38-1.33h-.77a10.27,10.27,0,0,1-3.07,3.11l-.07-.09a22.83,22.83,0,0,0,3-5.17,2.71,2.71,0,0,0,.1-1l1.61.87a.24.24,0,0,1,.15.23c0,.18-.26.27-.69.41-.23.35-.69,1-.77,1.17h1.95l.53-.66c.08-.11.19-.24.26-.24s.19.09.33.2l.79.67a.45.45,0,0,1,.17.27C378.27,217.71,378.11,217.75,378,217.75Zm7,8.1c-.49,2.36-.74,3.62-3.16,3.91a2.93,2.93,0,0,0-1.33-1.91l0-.11a12.32,12.32,0,0,0,2,.3c.54,0,1-.16,1.31-2.62h-5.08c0,.63.05,3.7.07,4.41,0,.09,0,.61,0,.74a.79.79,0,0,1-.86.75c-.23,0-.47-.07-.47-.54,0-.88.09-3.87.1-4.81a14.66,14.66,0,0,1-6.52,4.7l0-.14a22.61,22.61,0,0,0,5.53-5.11h-3.45c-.21.82-.3,1.15-.89,1.15-.4,0-.61-.15-.61-.43a9.58,9.58,0,0,1,.31-.94,9.54,9.54,0,0,0,.73-3.4l1.42.82h3.56c0-.16,0-1.49,0-1.78H375A11.14,11.14,0,0,0,373,221l-.35-.72c.85.07,1.83.11,2.68.11h7.07l.48-.47a.31.31,0,0,1,.19-.11.44.44,0,0,1,.24.11l.82.65c.05,0,.14.11.14.22s-.19.3-.56.55c0,.27.07,1.52.07,1.7,0,.61-.69.68-.82.68-.45,0-.43-.39-.42-.68h-3.75V225h5l.61-.64c.07-.08.16-.18.23-.18s.19.1.26.18l.8.75a.33.33,0,0,1,.12.22C385.72,225.54,385.44,225.63,385,225.85Zm-7.35-2.79h-3.91c-.18.55-.19.7-.49,1.92h4.4Zm8-5.13h-5.08c1.31.52,1.82.73,1.82,1.49a.63.63,0,0,1-.63.67c-.44,0-.51-.27-.79-1.07a3.39,3.39,0,0,0-.68-1.09h-.66a9.38,9.38,0,0,1-2,2.23l-.09-.07c1.1-1.91,2.11-3.82,2.06-5.39l1.69.8a.23.23,0,0,1,.16.21c0,.18-.24.31-.75.47a14.82,14.82,0,0,1-.75,1.31h3.68l.58-.84c.07-.11.15-.22.26-.22a.64.64,0,0,1,.33.18l1,.85a.37.37,0,0,1,.17.27C385.93,217.89,385.79,217.93,385.67,217.93Zm-3.16,2.91h-3.77v1.78h3.77Z"/><path d="M391.16,229.27h1c.9,0,1.22-.36,1.22-1.1v-9.74c0-.56-.51-.65-.84-.65h-1.33v-.56h.32a6.67,6.67,0,0,0,2.84-.75c.13-.07.18-.11.25-.11s.19.11.19.25v11.56c0,.77.37,1.1,1.22,1.1h1v.58h-5.79Z"/><path d="M409.52,226.23a4,4,0,0,1-4.12,4c-2,0-3.77-1.19-3.77-3.24s1.5-2.87,3.11-3.84c-.92-.56-2.6-1.57-2.6-3.53a3.24,3.24,0,0,1,3.49-3.22,3,3,0,0,1,3.19,2.84c0,1.53-1.43,2.65-2.18,3.23C408.28,223.47,409.52,224.37,409.52,226.23Zm-6.42.66a2.56,2.56,0,0,0,2.51,2.69,2.77,2.77,0,0,0,2.66-2.72c0-1.71-1.73-2.72-3-3.46A4.59,4.59,0,0,0,403.1,226.89Zm4.45-7.49a2.24,2.24,0,0,0-2.16-2.43,2,2,0,0,0-2.06,2.14c0,1.26,1,1.89,2.81,3A3.46,3.46,0,0,0,407.55,219.4Z"/><path d="M416.33,221.94a2.94,2.94,0,0,1,1.52-.47c1.73,0,3.13,1.8,3.13,4,0,2.5-1.73,4.74-3.74,4.74s-4-2.33-4-6.21c0-4.16,2.27-7.62,4.94-7.62a1.79,1.79,0,0,1,2,1.58.89.89,0,0,1-.89.94c-.35,0-.93-.23-1-1.26,0-.4-.06-.65-.53-.65a1.76,1.76,0,0,0-1.27.65c-1.56,1.76-1.64,4.41-1.71,6A4.43,4.43,0,0,1,416.33,221.94Zm-.57,6.66a1.72,1.72,0,0,0,1.41,1c.93,0,2.24-1,2.24-4,0-.81-.2-3.33-2-3.33-.67,0-1.78.51-2.6,2.45A8.57,8.57,0,0,0,415.76,228.6Z"/><path d="M432.57,226.23a4,4,0,0,1-4.12,4c-2,0-3.77-1.19-3.77-3.24s1.5-2.87,3.11-3.84c-.93-.56-2.6-1.57-2.6-3.53a3.24,3.24,0,0,1,3.49-3.22,3,3,0,0,1,3.19,2.84c0,1.53-1.43,2.65-2.18,3.23C431.33,223.47,432.57,224.37,432.57,226.23Zm-6.42.66a2.56,2.56,0,0,0,2.51,2.69,2.76,2.76,0,0,0,2.65-2.72c0-1.71-1.72-2.72-3-3.46A4.59,4.59,0,0,0,426.15,226.89Zm4.45-7.49a2.24,2.24,0,0,0-2.17-2.43,2,2,0,0,0-2.06,2.14c0,1.26,1,1.89,2.81,3A3.43,3.43,0,0,0,430.6,219.4Z"/><path d="M437.69,218.12l-.16,4.54a3.64,3.64,0,0,1,2.71-1.24c2.51,0,3.71,2.14,3.71,4.12a4.51,4.51,0,0,1-4.31,4.65,3.17,3.17,0,0,1-3.3-2.65,1,1,0,0,1,1-1.12.87.87,0,0,1,.9.94,1.83,1.83,0,0,1-.08.54,2.41,2.41,0,0,0-.06.5c0,.78.79,1.18,1.49,1.18,1.41,0,2.74-1.39,2.74-3.8s-1.17-3.55-2.45-3.55a3.74,3.74,0,0,0-2.72,1.57l-.26-.15.26-7h6.08l-.35,1.42Z"/><path d="M463.75,222h-8.66c-.45.86-1,2.05-1.18,2.59h4.89l.62-.56a.5.5,0,0,1,.27-.14c.08,0,.19.11.27.2l.88.82a.48.48,0,0,1,.15.29c0,.24-.33.33-.87.49-.78,3.76-1.19,5.74-4.5,5.67a3,3,0,0,0-1.75-2.05l0-.11a14.9,14.9,0,0,0,2.95.47c.87,0,1.41-.6,2.06-4.65h-5.17a16.64,16.64,0,0,1-1,2.05.77.77,0,0,1-.68.31c-.29,0-.68-.16-.68-.45a.76.76,0,0,1,.11-.36c1-2.05,1.17-2.3,2.18-4.57h-3.27a11.15,11.15,0,0,0-2.06.16l-.35-.7c1.38.1,2.38.1,2.69.1h10.67l.78-1c.09-.1.18-.21.28-.21a.74.74,0,0,1,.32.18l1.08,1a.37.37,0,0,1,.17.27C464,222,463.84,222,463.75,222Zm-3.58-5.48c0,.71,0,2.49,0,3.15,0,.26,0,.74-.75.74-.56,0-.59-.27-.54-.88h-6c0,.45,0,1-.86,1a.47.47,0,0,1-.47-.47c0-.13.07-.7.07-.83,0-.63.09-1.47.09-2.36a7.68,7.68,0,0,0-.21-2l1.62.79h5.66l.35-.43c.07-.09.17-.2.24-.2a.74.74,0,0,1,.28.14l.84.53a.39.39,0,0,1,.19.3C460.66,216.07,460.54,216.22,460.17,216.5Zm-1.25-.45h-6v3h6Z"/><path d="M45.15,252.8a10.61,10.61,0,0,1,0-16.45l.15.24a11.75,11.75,0,0,0,0,16Z"/><path d="M54.44,239.29c-1.6,2.51-2.86,4.4-6,6.29l-.08-.12c2.65-2.64,5-6.12,4.86-7.86l1.69,1a.37.37,0,0,1,.19.29C55.09,239.1,55,239.19,54.44,239.29Zm6.81,12.32c-.4,0-.68-.27-.88-.75l-.69-1.61a77.14,77.14,0,0,1-8.23,2.07c-.28.38-.36.46-.51.46s-.23-.17-.27-.27l-.54-1.77a6.66,6.66,0,0,0,1.35.16c.13,0,1.09-.09,1.29-.11A32.61,32.61,0,0,0,55,243.66a3.66,3.66,0,0,0,.05-1l1.71.75c.1.05.25.13.25.29s-.2.29-.56.4c-.18.31-.31.55-1.52,2.73-.49.86-1,1.78-1.76,2.9,1.9-.2,4.24-.49,6.35-.78a9.28,9.28,0,0,0-2-2.23l.05-.12c1.93.74,4.37,2.43,4.37,4.1C62,251.46,61.45,251.61,61.25,251.61Zm1-6.58a9,9,0,0,1-3.1-2.78,8.6,8.6,0,0,1-1.61-4.07,13.38,13.38,0,0,0-2.17.19l-.34-.68c.43,0,1.27.08,2.13.08l.47-.57c.12-.14.19-.22.27-.22a.69.69,0,0,1,.34.18l.73.55a.33.33,0,0,1,.17.25c0,.15-.12.22-.38.34l-.76.31a7,7,0,0,0,5.89,4.86v.12A2.65,2.65,0,0,0,62.3,245Z"/><path d="M72.16,246.24c-.38,0-.56-.32-.69-.58a11,11,0,0,0-1.35-2.17c0,4.5,0,5,0,6.23,0,.26.07,1.4.07,1.62a.76.76,0,0,1-.81.76.45.45,0,0,1-.51-.52c0-.19.06-1,.06-1.18,0-1.3,0-1.64.09-5.81a12.6,12.6,0,0,1-3.27,2.5L65.7,247a25.75,25.75,0,0,0,5-6.44H68.37a12,12,0,0,0-2,.15l-.31-.66c1.12.08,2.29.1,2.52.1h.43a8.78,8.78,0,0,0-.43-3.33l1.9.56a.29.29,0,0,1,.2.22c0,.2-.2.34-.53.51a19.69,19.69,0,0,0,0,2h.59l.41-.44c.12-.12.2-.17.3-.17s.17.07.27.15l.74.68a.3.3,0,0,1,.11.24c0,.25-.26.32-.79.39a21.29,21.29,0,0,1-1.65,2.33,6.26,6.26,0,0,1,1.75.93,1.68,1.68,0,0,1,.83,1.3C72.76,245.78,72.61,246.24,72.16,246.24Zm8.66,4.84h-7a10.92,10.92,0,0,0-1.94.16l-.33-.68c1.15.1,2.39.12,2.54.12h1.61c0-1.74,0-4.49,0-6.22,0-.82,0-.94,0-1.47h-1a10.92,10.92,0,0,0-1.94.16l-.33-.68c1.1.1,2.24.12,2.54.12h.71c0-.29,0-1.41,0-1.7,0-2.74,0-3.1-.48-4.08l1.83.44c.25.05.4.17.4.32s-.31.41-.56.51c0,.43,0,3.79,0,4.51h1.67l.61-.84c.1-.13.16-.2.26-.2s.18.07.32.19l.9.81a.43.43,0,0,1,.17.27c0,.12-.13.17-.25.17H76.86v4.61l0,3.08h1.76l.78-.89c.11-.13.2-.18.28-.18a.42.42,0,0,1,.31.17l.91.86a.49.49,0,0,1,.15.27C81.07,251,80.92,251.08,80.82,251.08Z"/><path d="M84.4,252.8l-.15-.24a11.75,11.75,0,0,0,0-16l.15-.24a10.62,10.62,0,0,1,0,16.45Z"/><path d="M98,240l.46-.43c.08-.08.2-.2.26-.2a.74.74,0,0,1,.25.17l.64.49c.09.07.2.17.2.29s-.18.26-.72.46a20,20,0,0,1-1.87,2.58v.12c1.19.22,2.43.85,2.43,1.79a.65.65,0,0,1-.63.64c-.3,0-.49-.17-.71-.66a3.8,3.8,0,0,0-1.09-1.56v4c0,.25.07,3.63.07,3.75,0,.56-.18.87-.84.87-.45,0-.45-.26-.45-.49,0-1,.15-6.17.18-7.35a12.34,12.34,0,0,1-3.21,2.21l-.07-.1a24.6,24.6,0,0,0,5-6.15H95.91a11.66,11.66,0,0,0-1.93.15l-.33-.68c.69.07,1.7.12,2.42.12a9.56,9.56,0,0,0-.36-3.3l1.66.48c.09,0,.27.08.27.24s-.15.27-.48.47c0,.29,0,1.68,0,2.11Zm8.26-2,.55-.54c.06-.05.21-.22.26-.22s.2.1.31.18l.7.55c.1.08.18.17.18.25s-.15.19-.27.19h-6.18a11,11,0,0,0-1.93.15l-.33-.68c1.2.1,2.24.12,2.54.12Zm0,7.28.46-.53c.06-.09.15-.17.21-.17a.61.61,0,0,1,.23.13l.76.57a.36.36,0,0,1,.17.25c0,.1-.15.26-.5.53,0,.13,0,.37,0,.49,0,.61.13,4,.13,4.73a.7.7,0,0,1-.79.66c-.45,0-.45-.2-.41-.8h-5.18c0,.6-.18,1-.78,1-.41,0-.41-.25-.41-.41,0-.59.07-3.19.07-3.72a22.24,22.24,0,0,0-.19-3.59l1.5.91Zm-.9-5.19.4-.41c.08-.08.17-.18.23-.18s.13.06.2.12l.68.56a.38.38,0,0,1,.16.27c0,.12-.15.24-.46.41,0,.39.08,2.07.08,2.41a.71.71,0,0,1-.77.73c-.4,0-.4-.24-.4-.65h-3.56c0,.28,0,.79-.7.79-.33,0-.46-.16-.46-.6,0-.22,0-1.77,0-2.11a19.65,19.65,0,0,0-.12-2.1l1.35.76Zm-4.07,5.59V248h2v-2.25Zm0,2.65v2.4h2v-2.4Zm.61-7.83V243h3.6v-2.45Zm4.59,7.43v-2.25h-2.1V248Zm0,2.8v-2.4h-2.1v2.4Z"/><path d="M124.8,239c0,.63.08,9.79.08,11,0,1.09,0,2-1.86,2.38-.23-.94-.83-1.26-1.67-1.72l0-.12c.33,0,1.34.14,1.63.14s.55-.07.6-.27.06-5.27.06-6,0-5.61,0-6.11h-9.84c0,.62,0,7.25,0,8.44,0,.73.06,4,.06,4.6a.83.83,0,0,1-.89.94c-.24,0-.48-.09-.48-.65,0-.24.12-1.31.12-1.51,0-1.16.07-7.46.07-8.6a30.48,30.48,0,0,0-.19-4.42l1.59.8h9.4l.43-.5c.07-.08.11-.13.21-.13a.42.42,0,0,1,.2.1l.89.66c.12.09.2.14.2.27S125.34,238.64,124.8,239ZM123,243h-3.8v5.37h1.6c0-2,0-2.24,0-3a3.32,3.32,0,0,0-.25-1.13l1.45.26c.15,0,.35.08.35.29s-.07.22-.41.42c0,.28,0,1.57,0,1.87s0,1.58,0,1.87a.7.7,0,0,1-.76.75c-.46,0-.45-.24-.43-.95h-4.26c0,.12,0,.66,0,.78a.72.72,0,0,1-.73.82.43.43,0,0,1-.46-.48c0-.19.08-.73.08-2.46a10.64,10.64,0,0,0-.21-3.23l1.53.37c.14,0,.28.07.28.24s0,.17-.49.47v3.08h1.57V243h-1.65a11.9,11.9,0,0,0-1.93.15l-.33-.68c1.32.12,2.27.12,2.54.12h1.89a9.28,9.28,0,0,0,1-3.84l1.69,1a.26.26,0,0,1,.16.22c0,.22-.25.29-.71.37-.44.51-1.2,1.5-1.78,2.26h2.19l.56-.66c.1-.1.19-.2.25-.2a.68.68,0,0,1,.32.16l.77.67a.33.33,0,0,1,.17.25C123.27,242.94,123.1,243,123,243Zm-5.69-.85c-.41,0-.53-.36-.76-1.07a4.73,4.73,0,0,0-.91-1.84l.08-.1c.22.09,2.28,1,2.28,2.25A.72.72,0,0,1,117.33,242.11Z"/><path d="M133.34,249a10.1,10.1,0,0,1-4.52,2.69l0-.11a15.82,15.82,0,0,0,2.83-2.55c.78-.88.86-1.15.93-1.53l1.3.89a.35.35,0,0,1,.21.29C134.06,248.84,133.73,248.94,133.34,249Zm10.26-1.8h-6.75c0,.32,0,1.1,0,2.12,0,.68.08,1.75.08,2.43a.84.84,0,0,1-.91.85c-.29,0-.47-.12-.47-.52s.09-2.32.09-2.71c0-1.2,0-1.85,0-2.17h-4.44c0,.78-.84.78-.9.78-.37,0-.42-.25-.42-.48s.1-1.58.12-1.88c0-1.24.05-2.35.05-3.67a20,20,0,0,0-.18-4.22l1.55.49c.16,0,.33.1.33.26s-.22.32-.51.52c-.05,1.09-.07,2.22-.07,3.3,0,.5,0,3.88,0,4.49h10.07l.8-.9c.1-.12.17-.2.28-.2s.22.11.28.17l1,.9a.36.36,0,0,1,.16.27C143.86,247.14,143.71,247.16,143.6,247.16Zm-3-8.57c0,.7-.07,2.09.08,5.66,0,.05,0,.44,0,.48a.74.74,0,0,1-.81.78c-.48,0-.46-.32-.46-.78h-4.93c0,.25,0,.83-.83.83-.43,0-.44-.22-.44-.41s0-.29,0-.35c0-.4.12-3.42.12-5.19a12.06,12.06,0,0,0-.25-2.77l1.63.8h4.59l.48-.48c.11-.12.16-.18.28-.18a.5.5,0,0,1,.25.15l.67.58a.41.41,0,0,1,.18.3C141.17,238.18,140.79,238.44,140.58,238.59Zm-1.15-.54h-5v1.82h5Zm0,2.22h-5V242h5Zm0,2.18h-5v1.87h5Zm2.44,9.16c-.43,0-.61-.3-1.06-1a6.9,6.9,0,0,0-2.42-2.44l.05-.12c2.29.39,4.14,1.8,4.14,2.89A.69.69,0,0,1,141.87,251.61Z"/><path d="M160.06,240.68a10.41,10.41,0,0,0-1.49,1l-.08,0a9.23,9.23,0,0,0,.51-1.75h-9.6c0,1.9-1,2.8-1.67,2.8a.68.68,0,0,1-.7-.66c0-.43.37-.73.84-1.11a3,3,0,0,0,1.27-2.11h.09a3.11,3.11,0,0,1,.14.67h4.25a6.28,6.28,0,0,0-.33-2.7l1.72.51c.18,0,.25.15.25.25s-.12.25-.5.53v1.41h4.17l.52-.5a.51.51,0,0,1,.31-.17c.11,0,.23.12.31.21l1,.95a.63.63,0,0,1,.2.43C161.23,240.55,161.14,240.68,160.06,240.68Zm.95,10.59c-.71.53-2.72.55-3.66.55-3.74,0-4.5,0-4.57-1.67,0-.27,0-2.62,0-3l-3.39.64a10.71,10.71,0,0,0-1.88.51l-.45-.61c.84-.08,1.68-.19,2.53-.34l3.19-.61c0-.43,0-2.53,0-3a21.68,21.68,0,0,1-5.31.95v-.12c.24-.05,7.49-2.09,8.71-3.82l1.1,1.12a.4.4,0,0,1,.12.29c0,.15-.17.22-.25.22l-.59,0a25.13,25.13,0,0,1-2.63,1c0,.45,0,2.67,0,3.16l5-.94.61-1c.08-.13.15-.25.25-.25a.82.82,0,0,1,.3.12l1.12.66a.38.38,0,0,1,.21.27c0,.14-.1.17-.21.19l-7.28,1.38c0,1.29,0,2.22,0,3.09a.51.51,0,0,0,.33.54,12.87,12.87,0,0,0,3,.14c2.51,0,2.79,0,3.3-3.18h.1c.08.46.2,1.16.31,1.73s.13.65.33.84.27.24.27.41C161.61,250.81,161.26,251.1,161,251.27Z"/><path d="M170.38,242.91h-1.93v5.47c1.33-.41,1.71-.56,2.09-.69l.07.13a18.94,18.94,0,0,1-2.38,1.45l-2,1c-.15.36-.21.54-.41.54s-.21-.12-.26-.2l-.86-1.51a6.71,6.71,0,0,0,2.7-.46c0-.58,0-3.16,0-3.69v-2.09h-.33a11.11,11.11,0,0,0-1.95.15l-.31-.68c1,.09,2,.12,2.59.12,0-.85,0-1.7,0-2.55a9.69,9.69,0,0,0-.21-2.51l1.67.57c.08,0,.23.1.23.26s-.33.46-.56.61c0,1.19,0,1.77-.05,3.62h.39l.5-.56c.15-.17.19-.22.28-.22s.2.12.28.19l.58.56a.36.36,0,0,1,.14.25C170.62,242.89,170.48,242.91,170.38,242.91Zm7.37,8.7c-.38.07-3.3.07-3.76.07-2.71,0-3.19-.14-3.19-2,0-.66,0-3.59,0-4.18,0-.17,0-.94,0-1.09a8.91,8.91,0,0,0-1.6.9l-.56-.47c.89-.31,1.91-.77,2.16-.89v-3a9.38,9.38,0,0,0-.18-2l1.53.55c.12,0,.25.1.25.23s-.13.28-.53.56c0,.51,0,2.72,0,3.17l1.79-.84c0-1.7,0-2.9,0-4.09a11,11,0,0,0-.2-1.5l1.59.54c.16.06.28.14.28.26s-.23.36-.58.63c0,1.53,0,1.75,0,3.69l1.6-.73.39-.68c.09-.14.17-.29.28-.29a.64.64,0,0,1,.32.13l.77.5a.33.33,0,0,1,.17.27c0,.2-.18.37-.41.59,0,5.1,0,6.28-2,6.8a2.13,2.13,0,0,0-1-1.42v-.09a3.92,3.92,0,0,0,.51,0c1.16,0,1.34-.15,1.34-3.74,0-1.15,0-1.34,0-1.83l-2,.92c0,2.5,0,4.13,0,4.59,0,.22.05,1.22.05,1.42a.78.78,0,0,1-.84.85c-.23,0-.39-.08-.39-.44,0-.19,0-1.05,0-1.22,0-1.09,0-1.74,0-4.73l-1.79.83c0,.69,0,5.9,0,6.11a.56.56,0,0,0,.4.47c.21.07,2.57.07,2.89.07,1.7,0,2.21,0,2.55-.63a14.73,14.73,0,0,0,.73-2.05h.11a6.39,6.39,0,0,0,.32,2c.1.17.38.32.38.49S179,251.39,177.75,251.61Z"/><path d="M196.15,251.78c-6-.08-8.56-.12-10.79-2.34a7.72,7.72,0,0,1-3.36,2.94l-.1-.11a10.54,10.54,0,0,0,2.85-3.53,8.44,8.44,0,0,1-1.53-3.28l.17-.14a7.58,7.58,0,0,0,1.66,2.79,12,12,0,0,0,.92-4.62h-1.38c-.33.95-.41,1.2-1,1.2-.11,0-.59,0-.59-.39,0-.1.25-.8.39-1.2.86-2.28,1.54-4.14,1.74-4.88h-.6a10.72,10.72,0,0,0-1.94.15l-.32-.68c.84.07,1.69.12,2.53.12h.29l.43-.36c.15-.12.23-.17.32-.17a.63.63,0,0,1,.28.17l.64.56a.37.37,0,0,1,.16.31c0,.2-.33.36-.75.54-.37.95-.58,1.53-1.49,4.22h1.12l.45-.36a.64.64,0,0,1,.31-.17c.12,0,.2.07.32.19l.51.54a.57.57,0,0,1,.19.36c0,.15-.16.25-.51.47a12,12,0,0,1-1.35,4.68,8.88,8.88,0,0,0,5.74,1.68,37.2,37.2,0,0,0,5.81-.49l0,.14A2.09,2.09,0,0,0,196.15,251.78Zm1-10.59h-2.28c.07,2,.07,2,.07,2.14,0,.34,0,.87-.8.87-.44,0-.43-.27-.41-.56h-2v1.77h2.48l.49-.65c.12-.13.18-.22.28-.22s.18.09.31.19l.75.64a.54.54,0,0,1,.16.26c0,.15-.11.19-.25.19h-4.22l0,1.8h2.93l.63-.75c.13-.15.2-.22.28-.22s.18.07.3.19l.77.74a.43.43,0,0,1,.17.29c0,.1-.1.15-.25.15H191.7c0,.21,0,1.21,0,1.43a.78.78,0,0,1-.73.61c-.53,0-.53-.3-.53-.49s.09-1.29.09-1.55h-1.12a11,11,0,0,0-1.93.16l-.33-.66c1.28.1,2.5.1,2.54.1h.85c0-.46,0-.89,0-1.8h-.5a10.49,10.49,0,0,0-1.93.15l-.33-.66c.5,0,1.42.1,2.77.1v-1.77h-.33a11.82,11.82,0,0,0-1.94.15l-.33-.66c1.18.08,2.44.1,2.6.1l0-2h-1.53a10.63,10.63,0,0,0-1.93.16l-.33-.69a23.62,23.62,0,0,0,2.52.12h1.27l0-2h-.39a12.46,12.46,0,0,0-1.95.16l-.31-.68c1.15.1,2.22.12,2.64.12a3.1,3.1,0,0,0-.25-1.58l1.58.39c.18.05.28.12.28.27s-.19.3-.46.46v.46h1.92l.41-.38a.5.5,0,0,1,.29-.17c.1,0,.19.09.3.19l.46.46a.48.48,0,0,1,.2.32c0,.14-.13.24-.46.48a10.2,10.2,0,0,0,0,1.49h.59l.48-.63c.1-.13.18-.2.27-.2a.57.57,0,0,1,.31.17l.71.63a.43.43,0,0,1,.16.26C197.37,241.11,197.29,241.19,197.13,241.19Zm-3.39,0h-2l0,2h2.06Zm0-2.4h-2l0,2h2Z"/><path d="M204.43,246c0,2.06,0,2.41,0,3.4,0,.59.07,1.55.07,2.14s-.71.78-.86.78c-.36,0-.45-.22-.45-.47,0-.07,0-.7,0-.82.06-1.27.06-1.73.1-4.45a19.74,19.74,0,0,1-2,1c0,.3-.05.59-.32.59s-.28-.19-.33-.29l-.77-1.53c1,0,1.3,0,3.46-.64,0-1.5,0-3.18,0-4.47h-1.48a13.94,13.94,0,0,1-1.47,3.75l-.1,0a27.77,27.77,0,0,0,.74-5.9,3.11,3.11,0,0,0-.16-1.16l1.58.39c.13,0,.28.07.28.26s-.23.34-.49.44c-.09.8-.17,1.31-.28,1.84h1.37c0-2.4-.09-3.1-.45-3.95l1.81.55c.1,0,.25.12.25.24s-.28.35-.53.49c0,.36,0,2.16,0,2.67h.33l.46-.65c.08-.1.16-.22.25-.22a.48.48,0,0,1,.29.19l.66.64a.41.41,0,0,1,.15.26c0,.15-.15.19-.25.19h-1.89c0,1.08,0,3,0,4.08.33-.12,1.86-.67,2.16-.79l0,.12A20.8,20.8,0,0,1,204.43,246Zm9.73-4.61c-.13,3.56-.26,6.78-1.3,9a3.15,3.15,0,0,1-2.56,1.72,2.77,2.77,0,0,0-1.4-2l0-.12a7,7,0,0,0,2,.35c.4,0,.66,0,1.12-1.2a27,27,0,0,0,.93-8.23h-.94c-.48,3.84-2.06,8.79-6.83,10.64l-.05-.12c3.5-2.7,5-5.57,5.67-10.52h-.92c-.68,3.59-2.54,6.68-4.93,7.84l-.05-.11a14.69,14.69,0,0,0,3.78-7.73h-.83a10.74,10.74,0,0,1-2.23,3.38l-.08-.08a19.34,19.34,0,0,0,2.13-6.94,2.34,2.34,0,0,0-.08-.58l1.65.68c.16.07.24.17.24.28s-.31.3-.57.37c-.43,1.36-.71,2.06-.88,2.48h4.75l.4-.42c.1-.12.18-.19.25-.19a.72.72,0,0,1,.29.15l.78.6c.11.08.18.13.18.24S214.34,241.33,214.16,241.41Z"/><path d="M231.87,251.63a8.8,8.8,0,0,1-3.45-3.4,8.78,8.78,0,0,1-3.84,3c0,.61,0,1.22-.84,1.22-.51,0-.51-.32-.51-.64s.08-1.67.1-2,0-2,0-2.43a32.39,32.39,0,0,1-4.3,1.81c-.14.43-.23.57-.4.57s-.23-.12-.3-.29l-.62-1.67a3.3,3.3,0,0,0,.74.1,11.77,11.77,0,0,0,1.3-.15v-9.4a10.35,10.35,0,0,0-1.51.15l-.33-.68c1.3.12,2.52.12,2.54.12h4.35l.71-.8c.13-.15.2-.2.28-.2s.18,0,.33.19l.82.78a.41.41,0,0,1,.15.27c0,.14-.1.17-.24.17H224.5c0,6.44-.05,7.16.08,12.66a10.28,10.28,0,0,0,3.3-3.84,18.79,18.79,0,0,1-1.55-7.36,4,4,0,0,0-.84.12l-.33-.68c1.28.1,2.5.1,2.52.1H230l.46-.54c.15-.17.2-.22.28-.22s.18,0,.35.18l.75.6a.52.52,0,0,1,.23.31.27.27,0,0,1-.14.28,3.94,3.94,0,0,1-.75.48,21.14,21.14,0,0,1-2.14,6.87,8.34,8.34,0,0,0,4.32,3.06v.08A2.45,2.45,0,0,0,231.87,251.63Zm-8.53-13.26H220.9v2.72h2.44Zm0,3.13H220.9v2.75h2.44Zm0,3.16H220.9v2.92c.86-.17,2.08-.39,2.44-.49Zm4.08-4.88-.76,0a20.15,20.15,0,0,0,1.7,6.43,18.25,18.25,0,0,0,1.6-6.46Z"/><path d="M238.43,241.46h2.9v-3.11H238.1a11.13,11.13,0,0,0-1.95.16l-.31-.67c1.09.09,2.21.1,2.52.1h2.89l.38-.42c.08-.08.15-.19.26-.19a.68.68,0,0,1,.25.11l.64.42c.09,0,.25.14.25.32s-.16.31-.58.6c0,.51.07,2.77.07,3.21a.71.71,0,0,1-.15.48.9.9,0,0,1-.67.27c-.37,0-.47-.17-.38-.87h-3.15c-.07.39-.45,2.74-.47,2.82h3.37l.46-.52a.37.37,0,0,1,.28-.19.52.52,0,0,1,.26.12l.68.51a.38.38,0,0,1,.18.3c0,.21-.23.36-.49.5-.18,2.21-.81,4.5-1.7,5.56a3.58,3.58,0,0,1-2.61,1.1,3.32,3.32,0,0,0-1.27-1.92v-.1a9.7,9.7,0,0,0,2.23.35c.35,0,.74,0,1.14-.76a11,11,0,0,0,1-4.54h-3.62a5.58,5.58,0,0,1-.19,1.26,1,1,0,0,1-.83.48.39.39,0,0,1-.44-.4c0-.15.46-2.12.52-2.48a14.44,14.44,0,0,0,.3-3.24Zm10.37-3.89c.15,0,.3.05.3.24s-.15.34-.56.58c0,.32,0,4.48,0,7.71,0,.82.13,4.46.13,5.21a.8.8,0,0,1-.22.66,1.35,1.35,0,0,1-.74.27c-.38,0-.44-.3-.44-.56,0-.1,0-.2,0-.42.08-1.38.08-3.15.08-3.85,0-6.34,0-8-.06-8.55a10.71,10.71,0,0,0-.3-1.7Z"/><path d="M267.69,240.68h-5.15l.86.53c.06,0,.16.15.16.24s-.31.24-.61.25a18.77,18.77,0,0,1-1.45,1.38h2.82l.64-.75c.09-.1.19-.2.27-.2a.61.61,0,0,1,.3.17l.75.74a.37.37,0,0,1,.15.26c0,.17-.13.19-.24.19h-5.27c0,.2,0,1.14,0,1.32h2.33l.57-.61c.1-.1.2-.2.28-.2s.17.08.32.18l.81.58c.08.07.18.15.18.27s-.14.19-.25.19h-4.24v1.48h4.24l.74-.87c.12-.13.17-.2.27-.2s.21.1.29.17l.91.87c.08.08.16.15.16.27s-.14.17-.26.17h-6a9.87,9.87,0,0,0,6.43,3.28l0,.1a2.78,2.78,0,0,0-1.52,1.38,10.55,10.55,0,0,1-5.21-4.76h-.05c0,1.54,0,1.85,0,2.17s.1,2.08.1,2.43a.76.76,0,0,1-.84.7c-.44,0-.48-.27-.48-.53s.05-1,.07-1.39c0-.56,0-.82.05-3.18a12.29,12.29,0,0,1-6.55,4.59l0-.1a15.39,15.39,0,0,0,5.28-4.69h-2.92a11.6,11.6,0,0,0-2,.15l-.33-.68c1.1.1,2.23.12,2.54.12h4v-1.48H257a12,12,0,0,0-2,.15l-.32-.68c1.13.11,2.32.12,2.54.12h2.62v-1.32H256.4a11.59,11.59,0,0,0-1.93.15l-.33-.68c1.11.1,2.26.12,2.54.12h4.49a8.64,8.64,0,0,0,.83-2.4h-4.69c1,.33,1.83.84,1.83,1.65a.65.65,0,0,1-.66.68c-.38,0-.43-.1-.82-1.12a4.07,4.07,0,0,0-.68-1.21h-1.71a10.06,10.06,0,0,0-2,.15l-.31-.68c1.12.11,2.29.12,2.52.12h3.1a12.08,12.08,0,0,0-.28-3.5l1.6.48c.15.05.23.1.23.25s-.18.29-.49.41v2.36h1.22c0-2.16,0-2.65-.35-3.5l1.68.46c.1,0,.28.09.28.26s-.39.39-.54.44v2.34h.71a12.43,12.43,0,0,0,.86-2.38,3.83,3.83,0,0,0,.08-.81l1.47.76a.28.28,0,0,1,.19.24c0,.26-.39.31-.57.32-.51.56-1.39,1.53-1.72,1.87h2.59l.71-.76c.13-.14.2-.22.26-.22a.54.54,0,0,1,.33.19l.86.74c.1.09.18.16.18.27S267.79,240.68,267.69,240.68ZM257,239.9c-.39,0-.51-.27-.82-1a3.72,3.72,0,0,0-1-1.34l.07-.12c.66.17,2.31.63,2.31,1.82A.63.63,0,0,1,257,239.9Z"/><path d="M275.9,241.26h-2.33c0,3.72,0,4.54,0,5.58,0,.74,0,4.06,0,4.74,0,.3,0,.83-.81.83a.44.44,0,0,1-.48-.47c0-.26.1-1.43.12-1.69,0-1.22,0-1.75.06-5,0-2.39,0-2.53,0-4a12,12,0,0,0-1.88.15l-.33-.66c.47,0,1,.08,2.21.1,0-2.51,0-3.38-.38-4.09l1.82.52c.1,0,.21.1.21.24s-.05.2-.57.51c0,.46,0,2.43,0,2.82h.77l.5-.54c.08-.1.18-.22.26-.22a.58.58,0,0,1,.3.18l.59.56a.37.37,0,0,1,.15.26C276.14,241.24,276,241.26,275.9,241.26Zm3.81,5.22c-.43,4.76-.93,5.44-2.68,5.62a2,2,0,0,0-.87-1.68l0-.13a4,4,0,0,0,1.32.28c.43,0,.53-.1.79-1.42a16.53,16.53,0,0,0,.36-3.15h-1.2c-.31,2-1.16,4.71-3.56,5.94l-.07-.09a8.86,8.86,0,0,0,2.57-5.83,9.21,9.21,0,0,0-1.65.15l-.33-.68c.61,0,1.09.09,2,.1a6.72,6.72,0,0,0-.1-2.05l1.5.54a.26.26,0,0,1,.21.24c0,.14-.36.37-.44.42,0,.33,0,.46-.08.85h1l.4-.42c.12-.12.17-.17.23-.17s.15.08.22.15l.67.61a.34.34,0,0,1,.13.24C280.18,246.12,280.13,246.16,279.71,246.48Zm3.81-6.9c-.73,3.43-1.87,3.55-2.86,3.67a2.38,2.38,0,0,0-1-1.8l.07-.1a4.71,4.71,0,0,0,1.48.4c.85,0,1.22-1.95,1.41-2.89h-2.43a6.51,6.51,0,0,1-4.57,4.76v-.1a8,8,0,0,0,3.48-4.66h-.86a9.49,9.49,0,0,0-1.95.16l-.33-.68c1.14.1,2.31.11,2.54.11h.7a8.1,8.1,0,0,0,.11-1.18,1.66,1.66,0,0,0-.11-.67l1.68.53a.19.19,0,0,1,.15.17c0,.1-.27.27-.53.44-.1.41-.13.53-.18.71h2.12l.27-.34a.39.39,0,0,1,.28-.15.34.34,0,0,1,.23.1l.87.75a.28.28,0,0,1,.14.22C284.18,239.22,283.76,239.44,283.52,239.58Zm1.76,6.61a2.38,2.38,0,0,0-.35.24c0,1.78-.24,4.08-.75,4.93a2.32,2.32,0,0,1-2,1,2.94,2.94,0,0,0-.94-1.67l.05-.13a4.35,4.35,0,0,0,1.4.29c.66,0,.71-.31.91-1.43a22.53,22.53,0,0,0,.24-3.37h-1.22c-.43,2.47-1.05,4.68-3.84,6.11l-.05-.09a9.61,9.61,0,0,0,2.87-6,4.5,4.5,0,0,0-.76.11l-.33-.68c.56.05.81.06,1.16.08,0-.17,0-.59,0-1.24a3.73,3.73,0,0,0-.13-1.27l1.57.57a.32.32,0,0,1,.21.26c0,.18-.42.41-.51.46-.06.63-.1.92-.16,1.24a2,2,0,0,0,.36,0h.64l.42-.5c.06-.08.15-.17.19-.17a.44.44,0,0,1,.25.12l.79.61a.38.38,0,0,1,.15.22C285.51,246.05,285.4,246.12,285.28,246.19Z"/><path d="M302.17,244a12.89,12.89,0,0,1-6-6.12l-.07,0a18.72,18.72,0,0,1-7.55,6.82l0-.11a22.69,22.69,0,0,0,6.07-6.78,3,3,0,0,0,.49-1.15l1.67.54c.08,0,.26.12.26.29s-.16.24-.51.32a10.92,10.92,0,0,0,7.29,4.76v.12A3.28,3.28,0,0,0,302.17,244Zm.13,2.38h-6.62a25,25,0,0,1-2.72,3.89c2-.13,4.59-.39,6.45-.62a9.63,9.63,0,0,0-1.81-2.35l.1-.1c2.26,1.05,4.05,2.77,4.05,4.2,0,.27-.18.83-.72.83s-.76-.46-1-1.05a7.08,7.08,0,0,0-.5-1.24c-1.34.42-7.41,1.75-8.35,1.9-.1.22-.14.37-.29.37s-.22-.17-.27-.3l-.69-1.72a6.58,6.58,0,0,0,1.47.15c.34,0,.67,0,1.19-.05a25.35,25.35,0,0,0,1.35-3.91h-2.33a11.1,11.1,0,0,0-1.93.16l-.33-.67c1.31.1,2.25.1,2.53.1h7.91l.85-.93c.11-.14.19-.2.28-.2a.6.6,0,0,1,.29.17l1.14.93a.37.37,0,0,1,.17.26C302.55,246.34,302.38,246.34,302.3,246.34Zm-3.61-2.94h-4.24a12,12,0,0,0-1.95.15l-.33-.68c1.14.11,2.33.12,2.54.12h1.85l.74-.85c.08-.08.17-.2.26-.2a.61.61,0,0,1,.3.17l.91.85c.08.08.16.15.16.27S298.79,243.4,298.69,243.4Z"/><path d="M320,244a12.89,12.89,0,0,1-6-6.12l-.07,0a18.67,18.67,0,0,1-7.56,6.82l-.05-.11a22.58,22.58,0,0,0,6.08-6.78,3.21,3.21,0,0,0,.49-1.15l1.67.54c.08,0,.26.12.26.29s-.17.24-.51.32a10.89,10.89,0,0,0,7.29,4.76v.12A3.28,3.28,0,0,0,320,244Zm.13,2.38h-6.62a25,25,0,0,1-2.72,3.89c2-.13,4.59-.39,6.45-.62a9.63,9.63,0,0,0-1.81-2.35l.1-.1c2.26,1.05,4.05,2.77,4.05,4.2,0,.27-.18.83-.72.83s-.76-.46-1-1.05a6.4,6.4,0,0,0-.49-1.24c-1.34.42-7.41,1.75-8.35,1.9-.1.22-.15.37-.29.37s-.22-.17-.27-.3l-.69-1.72a6.58,6.58,0,0,0,1.47.15c.34,0,.67,0,1.18-.05a24.36,24.36,0,0,0,1.36-3.91h-2.33a11.1,11.1,0,0,0-1.93.16l-.33-.67c1.31.1,2.25.1,2.53.1h7.91l.84-.93c.12-.14.2-.2.29-.2a.6.6,0,0,1,.29.17l1.14.93a.37.37,0,0,1,.17.26C320.36,246.34,320.19,246.34,320.11,246.34Zm-3.61-2.94h-4.24a12,12,0,0,0-1.95.15l-.33-.68c1.14.11,2.33.12,2.54.12h1.85l.74-.85c.08-.08.16-.2.26-.2a.61.61,0,0,1,.3.17l.91.85c.08.08.16.15.16.27S316.59,243.4,316.5,243.4Z"/><path d="M324.11,252.27a16.29,16.29,0,0,0,3.78-2.17,3.18,3.18,0,0,0,1.09-1.19l1.42.92c.06,0,.18.15.18.27s-.42.27-.94.29a13.21,13.21,0,0,1-5.51,2ZM335.16,242l.41-.42c.07-.07.17-.21.27-.21s.13.05.25.14l.71.56a.45.45,0,0,1,.21.32c0,.16-.23.33-.61.55,0,.71.1,5.21.1,5.64a.81.81,0,0,1-.79.83c-.47,0-.45-.41-.43-.66h-7.44c0,.41-.07.9-.79.9a.44.44,0,0,1-.48-.51c0-.24.06-.82.06-1,0-.48.07-2.33.07-4.17a9.33,9.33,0,0,0-.18-2.6l1.53.58Zm-.41-4.27.48-.49c.08-.08.16-.18.23-.18a.41.41,0,0,1,.23.11l.71.56a.37.37,0,0,1,.15.26c0,.15-.17.31-.55.56,0,.31,0,1.7,0,2a.68.68,0,0,1-.7.7c-.52,0-.51-.37-.47-.68H328.3c0,.25,0,.78-.73.78-.47,0-.47-.3-.47-.51s.06-1.63.06-1.94a7.82,7.82,0,0,0-.15-2l1.54.88Zm-6.89,4.68v1.61h7.42v-1.61Zm0,2v1.6h7.42v-1.6Zm0,2v1.9h7.42v-1.9Zm.44-8.3v2h6.57v-2Zm4.54,11c2.14.13,4.8,1.22,4.8,2.51a.63.63,0,0,1-.66.68c-.42,0-.63-.22-1.09-.71a10.37,10.37,0,0,0-3.07-2.41Z"/><path d="M365.85,252.8a10.61,10.61,0,0,1,0-16.45l.15.24a11.75,11.75,0,0,0,0,16Z"/><path d="M381,244.17l.87-1c.1-.12.15-.21.26-.21s.19.1.28.19l1.19,1.1c.08.09.17.16.17.26s-.15.19-.25.19H371.6a11.69,11.69,0,0,0-1.94.15l-.32-.78c1.24.12,2.43.12,2.53.12Z"/><path d="M392.86,246.24c-.38,0-.56-.32-.69-.58a10.56,10.56,0,0,0-1.36-2.17c0,4.5,0,5,0,6.23,0,.26.07,1.4.07,1.62a.76.76,0,0,1-.81.76.45.45,0,0,1-.51-.52c0-.19.06-1,.06-1.18.05-1.3,0-1.64.09-5.81a12.77,12.77,0,0,1-3.27,2.5l-.07-.12a25.29,25.29,0,0,0,5-6.44h-2.3a12,12,0,0,0-1.95.15l-.31-.66c1.12.08,2.29.1,2.52.1h.43a9,9,0,0,0-.43-3.33l1.9.56a.28.28,0,0,1,.19.22c0,.2-.19.34-.52.51a14.78,14.78,0,0,0,0,2h.59l.41-.44c.12-.12.2-.17.3-.17s.16.07.26.15l.75.68a.3.3,0,0,1,.11.24c0,.25-.26.32-.79.39a22.87,22.87,0,0,1-1.65,2.33,6.4,6.4,0,0,1,1.75.93,1.67,1.67,0,0,1,.82,1.3C393.45,245.78,393.3,246.24,392.86,246.24Zm8.66,4.84h-7a10.92,10.92,0,0,0-1.94.16l-.33-.68c1.15.1,2.39.12,2.54.12h1.61c0-1.74,0-4.49,0-6.22,0-.82,0-.94,0-1.47h-1a10.92,10.92,0,0,0-1.94.16l-.33-.68c1.1.1,2.24.12,2.54.12h.71c0-.29,0-1.41,0-1.7,0-2.74,0-3.1-.48-4.08l1.83.44c.25.05.4.17.4.32s-.32.41-.56.51c0,.43,0,3.79,0,4.51h1.67l.61-.84c.1-.13.16-.2.26-.2s.18.07.31.19l.91.81a.43.43,0,0,1,.17.27c0,.12-.14.17-.25.17h-3.68v4.61l0,3.08h1.76l.78-.89c.11-.13.2-.18.28-.18a.42.42,0,0,1,.31.17l.91.86a.49.49,0,0,1,.15.27C401.77,251,401.62,251.08,401.52,251.08Z"/><path d="M405.09,252.8l-.15-.24a11.72,11.72,0,0,0,0-16l.15-.24a10.61,10.61,0,0,1,0,16.45Z"/><path d="M428.4,250.66a6.35,6.35,0,0,1-2.81.44c-1.63,0-2.64-.07-2.64-1.92,0-.73.24-3.06.5-6,.05-.53.07-.75.13-1.55H421c-.29,3.05-.79,8.11-6.63,9.73l-.05-.1a9.57,9.57,0,0,0,4.23-4.19c.48-.9.92-2,1.25-5.44h-2.59a11.24,11.24,0,0,0-2,.16l-.31-.68c1.12.1,2.29.12,2.52.12h2.36c0-.67.07-1.31.07-2a6,6,0,0,0-.25-2.27l1.77.37c.1,0,.38.09.38.27s-.4.43-.55.49c0,.5-.18,2.67-.21,3.12h2.31l.77-.63a.66.66,0,0,1,.3-.17c.1,0,.2.1.3.2l.69.68a.5.5,0,0,1,.18.32c0,.14-.08.19-.86.62-.33,2.17-.56,6-.56,6.68,0,.85.36.93,1.22.93,2,0,2-.07,2.61-3.09h.11a10,10,0,0,0,.47,2.58,3.4,3.4,0,0,1,.26.29.35.35,0,0,1,.1.24A1.14,1.14,0,0,1,428.4,250.66Z"/><path d="M436.13,237.44c.36.1.4.18.4.3s-.34.37-.48.46c0,2.55,0,4.45-.07,6-.07,1.38-.26,5.85-3.84,7.77l-.09-.1c2.33-2.4,2.89-4.73,2.89-10.45,0-3.08-.13-3.51-.49-4.41Zm-2.61,3.65a6.07,6.07,0,0,1,.38,2.11c0,1.88-.94,2-1.22,2a.61.61,0,0,1-.63-.65c0-.25.12-.42.47-.9a5.17,5.17,0,0,0,.87-2.55Zm3,0c.44.22,2,1.07,2,2.24,0,.55-.34.79-.66.79-.51,0-.61-.45-.74-.92a7.38,7.38,0,0,0-.71-2Zm4-3.65c.36.08.38.15.38.25s-.05.19-.53.46v7.11c0,.68.1,3.72.1,4.33a.81.81,0,0,1-.81.87.47.47,0,0,1-.49-.51c0-.14.05-.75.05-.89.06-1.09.06-2.27.06-3.89,0-3.77,0-6.17-.1-7.14a3.55,3.55,0,0,0-.24-1Zm.64,4.08c.81.34,2.25,1.29,2.25,2.37a.67.67,0,0,1-.68.7c-.54,0-.63-.41-.87-1.32a4.52,4.52,0,0,0-.8-1.67Zm4.16-4.22c.18,0,.35.12.35.31s-.25.32-.52.45c0,3.27,0,5.85,0,7.23,0,.92.11,5.35.11,5.81,0,1-.74,1-.82,1s-.51,0-.51-.62c0-.23,0-1.31.05-1.53,0-.64,0-1.32,0-2.6,0-5.35,0-7.14-.05-8.36a4.66,4.66,0,0,0-.41-2.07Z"/><path d="M464.15,238.91h-6.52l.58.51c.12.11.2.21.2.31s-.28.27-.69.29c-.24.37-.55.92-1.21,1.9l.94.31c.13.05.27.1.27.27s-.17.36-.57.58c0,.92,0,1.36,0,3.06,0,2.24,0,3.43.05,4.26,0,.19.05,1.13.05,1.33a.86.86,0,0,1-.86.82c-.49,0-.51-.36-.51-.6,0,0,0-.1,0-.46.08-1.68.13-4.28.13-6.12,0-1.34,0-1.77-.05-2.63-1,1.39-3.4,4.62-6.65,6.25l-.06-.1a42.22,42.22,0,0,0,5.82-7,10,10,0,0,0,1.55-3h-4.67a10.73,10.73,0,0,0-1.94.16l-.33-.68c.84.06,1.69.12,2.54.12h9.56l.75-.91c.09-.11.18-.2.28-.2a.87.87,0,0,1,.38.2l1.07.87a.39.39,0,0,1,.16.26C464.41,238.88,464.28,238.91,464.15,238.91Zm-.71,8.84c-.55,0-.73-.32-1.39-1.46a11.35,11.35,0,0,0-3.46-3.74l0-.1c2.51.54,5.46,3,5.46,4.52C464.08,247.55,463.72,247.75,463.44,247.75Z"/><path d="M476.17,240.72h-3.89v1.41h1.51l.4-.5c.08-.1.15-.17.23-.17a.43.43,0,0,1,.28.16l.61.56a.4.4,0,0,1,.15.29c0,.12-.08.23-.41.46,0,.49,0,2.65,0,3.07a.76.76,0,0,1-.77.9c-.22,0-.32-.17-.3-.44h-1.71V248h1.23l.45-.56c.1-.12.18-.2.28-.2a.63.63,0,0,1,.33.18l.66.55a.36.36,0,0,1,.16.27c0,.1-.08.17-.26.17h-2.85V250c1.28-.22,2.22-.37,3.15-.59v.13a42.18,42.18,0,0,1-6.77,2.2c-.1.25-.2.4-.36.4a.27.27,0,0,1-.26-.2l-.76-1.48a2.91,2.91,0,0,0,.64.05,30,30,0,0,0,3.33-.35V248.4H470a11.69,11.69,0,0,0-1.94.15l-.32-.68c1.12.1,2.3.12,2.53.12h1v-1.53h-1.7a.64.64,0,0,1-.13.56,1.08,1.08,0,0,1-.64.31c-.18,0-.32-.09-.32-.48,0-.66.05-3.53.05-4.11a9.14,9.14,0,0,0-.13-1.38l1.35.77h1.52v-1.41h-1.61a10.61,10.61,0,0,0-1.93.15l-.33-.68c1,.08,2.07.12,2.54.12h1.33V239a20.1,20.1,0,0,1-2.72.22h-.77v-.12c1.84-.41,4.71-1.11,6.13-2.06l1,.93a.36.36,0,0,1,.14.26c0,.15-.15.2-.4.2a1.61,1.61,0,0,1-.35-.06,15.26,15.26,0,0,1-2,.47v1.5h2l.57-.73c.11-.14.18-.21.28-.21a.57.57,0,0,1,.31.17l.84.73a.43.43,0,0,1,.17.26C476.42,240.66,476.32,240.72,476.17,240.72Zm-4.92,1.81h-1.71v1.52h1.71Zm0,1.93h-1.71v1.59h1.71Zm2.76-1.93h-1.73v1.52H474Zm0,1.93h-1.73v1.59H474Zm7.62-2.21c0,5.69-.3,7.08-.66,8.1a2.79,2.79,0,0,1-2.41,2,2.88,2.88,0,0,0-1.78-1.9l.05-.12a10,10,0,0,0,2,.25c.4,0,.79,0,1.14-1a34.53,34.53,0,0,0,.59-6,11.79,11.79,0,0,0-.1-1.79h-1.7c0,2.76-.26,8.47-5,10.63l-.08-.1c3.76-3,3.89-7.47,4-10.53a11.39,11.39,0,0,0-1.9.16l-.33-.68c.65,0,1.09.08,2.23.12a17.5,17.5,0,0,0-.31-4.64l1.71.59c.18.07.28.15.28.27a.36.36,0,0,1-.11.24,4.19,4.19,0,0,1-.42.31v3.23h1.42l.56-.58c.14-.14.22-.19.3-.19s.17,0,.33.17l.64.53a.37.37,0,0,1,.17.29C482.19,241.84,481.94,242,481.63,242.25Z"/><path d="M499.55,243H488.32c.15,5.23-.53,7.44-2.79,9.31l-.08-.07a11.88,11.88,0,0,0,1.75-6.69,16.17,16.17,0,0,0-.37-3.73l1.64.77h5.31A19.94,19.94,0,0,0,495,239.3h-6.66a11,11,0,0,0-1.95.16l-.31-.68c1,.08,2.06.12,2.52.12h3.47a8.6,8.6,0,0,0-.27-2l1.72.42c.11,0,.23.07.23.24s-.4.39-.58.49v.89h3.48l.71-.82c.13-.15.18-.22.27-.22s.13,0,.29.17l1.06.83a.39.39,0,0,1,.16.26c0,.17-.13.18-.24.18h-3.34l1,.58a.2.2,0,0,1,.13.19c0,.24-.25.29-.67.39a27.65,27.65,0,0,1-1.93,2.16h3.21l.61-.77c.1-.13.17-.2.25-.2s.16,0,.33.17l1.09.77c.11.08.18.15.18.25S499.67,243,499.55,243Zm.13,8.58h-9.45a10.92,10.92,0,0,0-1.94.16l-.32-.69c1.14.11,2.39.12,2.53.12h2.31v-2.43h-1.09a10.76,10.76,0,0,0-1.93.16l-.33-.68c1.12.1,2.32.11,2.54.11h.81v-2.09h-2.25a10,10,0,0,1-2.14,2.71l-.08,0a22.47,22.47,0,0,0,2.12-5.43l1.46.65c.14.07.16.13.16.19s-.07.18-.58.44c-.13.17-.46.71-.67,1.09h2a12.28,12.28,0,0,0-.19-2.59l1.6.31c.09,0,.22,0,.22.2s-.27.32-.53.49c0,.24,0,1.35,0,1.59h2.43l.58-.82c.1-.14.18-.22.26-.22s.15.07.3.19l1,.81a.32.32,0,0,1,.17.26c0,.15-.15.18-.26.18h-4.43v2.09h2l.49-.62c.13-.16.17-.21.27-.21s.13.05.29.17l.91.65c.13.1.16.17.16.24s-.14.18-.24.18h-3.85v2.43h3.57l.74-.71c.1-.09.21-.19.28-.19s.13,0,.3.17l1,.7a.37.37,0,0,1,.16.26C499.93,251.58,499.8,251.61,499.68,251.61Zm-9.23-9.25c-.4,0-.43-.11-.79-1.1a4.44,4.44,0,0,0-1-1.63l0-.09c.68.24,2.39.85,2.39,2A.73.73,0,0,1,490.45,242.36Z"/><path d="M509.07,239.29c-1.61,2.51-2.86,4.4-6,6.29l-.08-.12c2.65-2.64,5-6.12,4.86-7.86l1.69,1a.37.37,0,0,1,.19.29C509.72,239.1,509.58,239.19,509.07,239.29Zm6.81,12.32c-.4,0-.68-.27-.88-.75l-.69-1.61a77.14,77.14,0,0,1-8.23,2.07c-.28.38-.36.46-.51.46s-.23-.17-.27-.27l-.54-1.77a6.66,6.66,0,0,0,1.35.16c.13,0,1.09-.09,1.29-.11a32.61,32.61,0,0,0,2.21-6.13,3.66,3.66,0,0,0,.05-1l1.71.75c.1.05.25.13.25.29s-.2.29-.56.4c-.18.31-.31.55-1.52,2.73-.49.86-1,1.78-1.76,2.9,1.9-.2,4.24-.49,6.35-.78a9.28,9.28,0,0,0-2-2.23l.05-.12c1.93.74,4.37,2.43,4.37,4.1C516.6,251.46,516.08,251.61,515.88,251.61Zm1-6.58a8.92,8.92,0,0,1-3.1-2.78,8.6,8.6,0,0,1-1.61-4.07,13.38,13.38,0,0,0-2.17.19l-.34-.68c.43,0,1.27.08,2.13.08l.47-.57c.12-.14.19-.22.27-.22a.69.69,0,0,1,.34.18l.73.55a.33.33,0,0,1,.17.25c0,.15-.12.22-.38.34l-.76.31a7,7,0,0,0,5.89,4.86v.12A2.65,2.65,0,0,0,516.93,245Z"/><path d="M535.37,251.22H523.05a11.86,11.86,0,0,0-1.95.15l-.33-.66c1.3.1,2.51.1,2.54.1h.56v-4.48c0-.92,0-3-.11-3.78a2,2,0,0,0-.17-.59l1.7.52c.13,0,.23.11.23.26s-.13.27-.49.49c0,1.07,0,6.39,0,7.58H528V238.57h-4a10,10,0,0,0-1.94.16l-.33-.68c.81.06,1.73.12,2.54.12h8.21l.71-.9c.12-.14.18-.21.27-.21a.64.64,0,0,1,.31.17l1,.9c.08.09.16.15.16.26s-.14.18-.24.18h-5.51v5.49h2.08l.65-.83c.12-.15.2-.2.29-.2a.57.57,0,0,1,.31.17l.89.83a.43.43,0,0,1,.15.27c0,.12-.1.17-.25.17h-4.12v6.34H533l.79-.91c.13-.16.23-.24.31-.24a.8.8,0,0,1,.35.2l1,.92c.08.08.15.15.15.25S535.47,251.22,535.37,251.22Z"/><path d="M552.57,251.63a8.8,8.8,0,0,1-3.45-3.4,8.78,8.78,0,0,1-3.84,3c0,.61,0,1.22-.84,1.22-.52,0-.52-.32-.52-.64s.09-1.67.1-2,0-2,0-2.43a32,32,0,0,1-4.31,1.81c-.13.43-.23.57-.39.57s-.23-.12-.3-.29l-.62-1.67a3.24,3.24,0,0,0,.74.1,11.77,11.77,0,0,0,1.3-.15v-9.4a10.37,10.37,0,0,0-1.52.15l-.33-.68c1.31.12,2.53.12,2.54.12h4.36l.71-.8c.13-.15.2-.2.28-.2s.18,0,.33.19l.82.78a.46.46,0,0,1,.15.27c0,.14-.1.17-.25.17h-2.36c0,6.44,0,7.16.09,12.66a10.28,10.28,0,0,0,3.3-3.84,18.61,18.61,0,0,1-1.55-7.36,4.17,4.17,0,0,0-.85.12l-.33-.68c1.29.1,2.51.1,2.53.1h2.27l.47-.54c.14-.17.19-.22.28-.22s.18,0,.34.18l.76.6a.57.57,0,0,1,.23.31.27.27,0,0,1-.15.28,3.62,3.62,0,0,1-.74.48,21.42,21.42,0,0,1-2.14,6.87,8.34,8.34,0,0,0,4.32,3.06v.08A2.42,2.42,0,0,0,552.57,251.63ZM544,238.37H541.6v2.72H544Zm0,3.13H541.6v2.75H544Zm0,3.16H541.6v2.92c.86-.17,2.08-.39,2.44-.49Zm4.07-4.88-.75,0a20.39,20.39,0,0,0,1.69,6.43,18,18,0,0,0,1.6-6.46Z"/><path d="M559.13,241.46H562v-3.11H558.8a11.13,11.13,0,0,0-1.95.16l-.31-.67c1.09.09,2.21.1,2.52.1H562l.38-.42c.08-.08.15-.19.26-.19a.68.68,0,0,1,.25.11l.64.42c.08,0,.25.14.25.32s-.17.31-.58.6c0,.51.07,2.77.07,3.21a.71.71,0,0,1-.15.48.91.91,0,0,1-.68.27c-.36,0-.46-.17-.38-.87h-3.15c-.06.39-.44,2.74-.46,2.82h3.37l.46-.52a.36.36,0,0,1,.28-.19.52.52,0,0,1,.26.12l.68.51a.38.38,0,0,1,.18.3c0,.21-.23.36-.49.5-.19,2.21-.81,4.5-1.7,5.56a3.58,3.58,0,0,1-2.61,1.1,3.32,3.32,0,0,0-1.27-1.92v-.1a9.7,9.7,0,0,0,2.23.35c.34,0,.74,0,1.14-.76a10.91,10.91,0,0,0,1-4.54h-3.61a5,5,0,0,1-.2,1.26.94.94,0,0,1-.82.48.4.4,0,0,1-.45-.4c0-.15.47-2.12.53-2.48a14.44,14.44,0,0,0,.3-3.24Zm10.37-3.89c.15,0,.3.05.3.24s-.15.34-.56.58c0,.32,0,4.48,0,7.71,0,.82.13,4.46.13,5.21a.8.8,0,0,1-.22.66,1.35,1.35,0,0,1-.74.27c-.38,0-.44-.3-.44-.56,0-.1,0-.2,0-.42.08-1.38.08-3.15.08-3.85,0-6.34,0-8-.07-8.55a9.61,9.61,0,0,0-.29-1.7Z"/><path d="M578.78,241.26h-2.32c0,3.72,0,4.54,0,5.58,0,.74.05,4.06.05,4.74,0,.3,0,.83-.81.83a.44.44,0,0,1-.48-.47c0-.26.1-1.43.11-1.69.05-1.22.05-1.75.07-5,0-2.39,0-2.53,0-4a12,12,0,0,0-1.88.15l-.33-.66c.46,0,1,.08,2.21.1,0-2.51,0-3.38-.38-4.09l1.82.52c.1,0,.21.1.21.24s0,.2-.57.51c0,.46,0,2.43,0,2.82h.77l.5-.54c.08-.1.18-.22.26-.22a.58.58,0,0,1,.3.18l.59.56a.37.37,0,0,1,.15.26C579,241.24,578.9,241.26,578.78,241.26Zm3.81,5.22c-.42,4.76-.92,5.44-2.67,5.62a2,2,0,0,0-.87-1.68l.05-.13a4,4,0,0,0,1.32.28c.43,0,.52-.1.79-1.42a17.42,17.42,0,0,0,.36-3.15h-1.2c-.32,2-1.16,4.71-3.57,5.94l-.06-.09a8.86,8.86,0,0,0,2.57-5.83,9,9,0,0,0-1.65.15l-.33-.68c.61,0,1.09.09,2,.1a6.53,6.53,0,0,0-.09-2.05l1.5.54a.26.26,0,0,1,.21.24c0,.14-.36.37-.44.42,0,.33,0,.46-.09.85h1l.4-.42c.11-.12.16-.17.23-.17s.15.08.21.15l.68.61a.34.34,0,0,1,.13.24C583.07,246.12,583,246.16,582.59,246.48Zm3.81-6.9c-.72,3.43-1.86,3.55-2.85,3.67a2.38,2.38,0,0,0-1-1.8l.07-.1a4.65,4.65,0,0,0,1.48.4c.84,0,1.22-1.95,1.4-2.89H583a6.51,6.51,0,0,1-4.57,4.76l0-.1a7.91,7.91,0,0,0,3.48-4.66h-.85a9.44,9.44,0,0,0-2,.16l-.33-.68c1.14.1,2.31.11,2.54.11H582a7,7,0,0,0,.12-1.18,1.47,1.47,0,0,0-.12-.67l1.69.53a.18.18,0,0,1,.14.17c0,.1-.26.27-.52.44-.1.41-.14.53-.18.71h2.12l.27-.34a.39.39,0,0,1,.28-.15.34.34,0,0,1,.23.1l.87.75a.27.27,0,0,1,.13.22C587.06,239.22,586.65,239.44,586.4,239.58Zm1.77,6.61a2.38,2.38,0,0,0-.35.24c0,1.78-.24,4.08-.76,4.93-.09.17-.52.86-2,1a2.94,2.94,0,0,0-.94-1.67l0-.13a4.39,4.39,0,0,0,1.41.29c.66,0,.71-.31.9-1.43a21.34,21.34,0,0,0,.25-3.37h-1.22c-.43,2.47-1.06,4.68-3.84,6.11l-.05-.09a9.61,9.61,0,0,0,2.87-6,4.5,4.5,0,0,0-.76.11l-.33-.68c.56.05.81.06,1.15.08a12,12,0,0,0,0-1.24,3.73,3.73,0,0,0-.13-1.27l1.57.57a.32.32,0,0,1,.21.26c0,.18-.43.41-.51.46-.06.63-.1.92-.16,1.24a1.94,1.94,0,0,0,.36,0h.64l.42-.5c.06-.08.14-.17.19-.17a.44.44,0,0,1,.25.12l.79.61a.38.38,0,0,1,.15.22C588.4,246.05,588.29,246.12,588.17,246.19Z"/><path d="M596.68,240.36h-2.94a9.87,9.87,0,0,0-1.93.15l-.33-.68c1.12.1,2.29.12,2.52.12h1.11l.41-.61c0-.05.15-.21.27-.21s.21.11.29.17l.69.62a.33.33,0,0,1,.15.25C596.92,240.32,596.79,240.36,596.68,240.36Zm-.4,7a2.16,2.16,0,0,0,0,.35c0,.5.1,2.67.1,3.11a.68.68,0,0,1-.71.68c-.5,0-.47-.39-.43-.78h-2a4.66,4.66,0,0,1,0,1,.8.8,0,0,1-.72.45.38.38,0,0,1-.43-.4s0-.16,0-.33c.07-.56.1-2.87.1-4a10.69,10.69,0,0,0-.06-1.55l1.27.73h1.75l.28-.44c0-.05.14-.19.21-.19a.74.74,0,0,1,.3.16l.66.49a.3.3,0,0,1,.13.2C596.71,247.09,596.59,247.14,596.28,247.4Zm-.1-9.1h-2.29a7.9,7.9,0,0,0-1.37.1l-.22-.59c.88.07,1.67.08,1.7.08h.66l.42-.49c.08-.1.16-.2.24-.2s.15.05.32.17l.62.49a.35.35,0,0,1,.17.25C596.43,238.27,596.3,238.3,596.18,238.3Zm-.08,4.18h-2.21a7,7,0,0,0-1.37.11l-.22-.6c.73,0,1.47.09,1.8.09h.63l.35-.5c0-.05.14-.22.26-.22s.25.14.3.19l.56.49a.35.35,0,0,1,.15.26C596.35,242.47,596.2,242.48,596.1,242.48Zm.11,2.15h-2.27a5.9,5.9,0,0,0-1.37.1l-.23-.6c.87.07,1.7.09,1.78.09h.58l.43-.56c0-.07.13-.21.24-.21a.67.67,0,0,1,.32.17l.61.56c.1.09.16.16.16.26S596.36,244.63,596.21,244.63Zm-1,2.46h-2v3.26h2Zm11.2-.76h-3.71a9.34,9.34,0,0,0,.43,1.95,6.75,6.75,0,0,0,1.07-1.63l1,.8c.08.07.14.08.14.2s-.24.24-.61.22c-.7.68-.94.92-1.27,1.21a3.15,3.15,0,0,0,1.47,1.51c.1,0,.23-.13.3-.22a11.31,11.31,0,0,0,1-1.63h.12a15,15,0,0,0-.3,2.17.69.69,0,0,0,.15.43.66.66,0,0,1,.2.39c0,.19-.17.39-.58.39a4.71,4.71,0,0,1-3.05-2.41,8.68,8.68,0,0,1-2.76,1.43l0-.12a13.86,13.86,0,0,0,2.46-2,9.8,9.8,0,0,1-.63-2.71h-2v1.51c.89-.26,1.24-.38,1.72-.53l.06.1a9.6,9.6,0,0,1-1.78,1c0,.45,0,2.17,0,2.43,0,1-.77,1.25-1.48,1.39-.28-.78-.31-.85-1.19-1.43v-.07a5.29,5.29,0,0,0,1.06.09c.41,0,.61,0,.66-.37s0-1.28,0-1.6c-.22.1-1.13.51-1.31.61s-.23.39-.31.39-.17-.12-.2-.22l-.48-1.22a9.26,9.26,0,0,0,2.3-.34c0-.19,0-1.18,0-1.75a9.69,9.69,0,0,0-1.9.15l-.31-.68c.79.07,1.3.08,2.21.1v-1.14a15,15,0,0,1-2,.26l0-.12c2.38-.87,2.79-1.16,3.22-1.58l.79.69a.26.26,0,0,1,.1.19c0,.2-.26.17-.43.14a4.58,4.58,0,0,1-.76.23l0,1.35h2c0-.43-.21-2.3-.29-2.67l1.32.29c.21.05.23.1.23.18s-.14.22-.38.39a15.19,15.19,0,0,0,0,1.81h2.05l.51-.73c.13-.19.19-.22.24-.22s.2.1.32.2l.72.71a.37.37,0,0,1,.15.26C606.67,246.29,606.54,246.33,606.42,246.33Zm-.36-3.37h-6.88a12,12,0,0,0-1.93.15l-.33-.66c1.31.1,2.25.1,2.53.1h1.22v-1.32h-.38a10.68,10.68,0,0,0-1.95.15l-.33-.68c1.26.12,2.39.12,2.66.12v-1.31h-1.24a10,10,0,0,0-1.93.15l-.33-.68c1.3.1,2.24.12,2.52.12h2a6.77,6.77,0,0,0,.68-2.36l1.34.71c.08.05.21.12.21.26s-.21.2-.63.22A12.3,12.3,0,0,1,602,239.1h2.07l.47-.58c.1-.12.15-.2.25-.2a.51.51,0,0,1,.31.19l.7.56a.34.34,0,0,1,.16.25c0,.17-.16.19-.25.19h-4v1.31h1.65l.4-.53c.1-.12.16-.22.26-.22a.7.7,0,0,1,.3.19l.64.52a.35.35,0,0,1,.17.26c0,.17-.17.19-.25.19h-3.17v1.32h2.61l.54-.63c.14-.15.15-.22.27-.22s.18.07.31.19l.69.64a.33.33,0,0,1,.17.26C606.31,243,606.14,243,606.06,243Zm-6-4.05c-.37,0-.46-.22-.65-.69a3.73,3.73,0,0,0-.75-1.29l.06-.12c.41.08,1.93.4,1.93,1.47A.6.6,0,0,1,600.06,238.91Zm4.24,6.41c-.35,0-.45-.24-.53-.47a3,3,0,0,0-.56-1l0-.12c.41,0,1.55.19,1.55,1A.53.53,0,0,1,604.3,245.32Z"/><path d="M622.86,244a13,13,0,0,1-6-6.12l-.06,0a18.67,18.67,0,0,1-7.56,6.82l-.05-.11a22.42,22.42,0,0,0,6.07-6.78,3.1,3.1,0,0,0,.5-1.15l1.66.54c.09,0,.27.12.27.29s-.17.24-.51.32a10.89,10.89,0,0,0,7.29,4.76v.12A3.34,3.34,0,0,0,622.86,244Zm.14,2.38h-6.62a25,25,0,0,1-2.72,3.89c2-.13,4.59-.39,6.45-.62a9.63,9.63,0,0,0-1.81-2.35l.09-.1c2.26,1.05,4.06,2.77,4.06,4.2,0,.27-.18.83-.72.83s-.76-.46-1-1.05a7.12,7.12,0,0,0-.49-1.24c-1.34.42-7.41,1.75-8.35,1.9-.1.22-.15.37-.3.37s-.21-.17-.26-.3l-.69-1.72a6.58,6.58,0,0,0,1.47.15c.34,0,.67,0,1.18-.05a24.36,24.36,0,0,0,1.36-3.91h-2.33a11.1,11.1,0,0,0-1.93.16l-.33-.67c1.3.1,2.24.1,2.52.1h7.92l.84-.93c.12-.14.2-.2.28-.2s.18.08.3.17l1.14.93a.39.39,0,0,1,.16.26C623.24,246.34,623.08,246.34,623,246.34Zm-3.62-2.94h-4.24a11.93,11.93,0,0,0-1.94.15l-.33-.68c1.14.11,2.32.12,2.54.12h1.85l.74-.85c.08-.08.16-.2.26-.2a.66.66,0,0,1,.3.17l.91.85c.08.08.16.15.16.27S619.48,243.4,619.38,243.4Z"/><path d="M635,241.26c-.05.05-.33.24-.43.32,0,.84-.13,4.93-.21,5.85-.3,3.52-.94,4.62-2.92,4.79,0-.51-.2-1.05-1.8-2l0-.13a8.61,8.61,0,0,0,2,.35c.49,0,1.07,0,1.32-1.43a49,49,0,0,0,.44-7.88h-2.27c-.05,2.78-.15,8.17-4.26,11.08l-.1-.08a11,11,0,0,0,2.44-4.83,23.19,23.19,0,0,0,.75-6.17h-.75a10.84,10.84,0,0,0-1.94.15l-.33-.68c1.32.12,2.27.12,2.54.12h.48a15.19,15.19,0,0,0-.28-4l1.81.56c.12,0,.3.14.3.31s0,.2-.6.56c0,.25,0,.37,0,.56s0,1.72,0,2h2.08l.61-.61c.06-.07.11-.14.19-.14a.47.47,0,0,1,.23.12l.76.65a.42.42,0,0,1,.15.29C635.13,241.14,635.05,241.21,635,241.26Zm6.55-.54c-.08.08-.28.23-.36.32,0,1.43,0,7.14,0,8.33,0,.27.09,1.46.09,1.71a.82.82,0,0,1-.82.92c-.43,0-.48-.25-.48-.59s0-.44,0-.75h-2.72c0,.63.08,1.61-.88,1.61-.46,0-.46-.37-.46-.52s0-.49,0-.56c.08-2,.13-6.46.13-8.55a19.69,19.69,0,0,0-.22-3.59l1.59.93h2.32l.55-.49c0-.05.1-.1.16-.1s.18.09.27.17l.72.66a.48.48,0,0,1,.15.27C641.68,240.58,641.6,240.65,641.53,240.72Zm-1.48-.33h-2.74v9.86h2.74Z"/><path d="M655.48,247.09l.43-.42a.75.75,0,0,1,.26-.17c.07,0,.1,0,.27.17l.69.59a.46.46,0,0,1,.17.27c0,.16,0,.19-.5.48a6.05,6.05,0,0,0,0,.63c0,.37.05,2.07.05,2.41h.84l.58-.8c.09-.15.16-.24.28-.24s.21.11.31.19l.87.82a.34.34,0,0,1,.17.27c0,.15-.13.17-.25.17H647.23a11.93,11.93,0,0,0-1.94.15L645,251c.33,0,1.07.08,2.26.1a23.73,23.73,0,0,0-.18-4.74l1.48.78ZM650,237.66l.33-.36c.08-.09.15-.15.23-.15s.15.06.27.15l.72.54a.34.34,0,0,1,.17.26c0,.15-.22.3-.56.54a10.67,10.67,0,0,0,0,1.12c0,.45.09,3.44.12,3.76a2.55,2.55,0,0,1,0,.31c0,.44-.43.69-.89.69s-.35-.18-.33-.76h-2.44c0,.83.1,1.66-.81,1.66-.39,0-.39-.27-.39-.45s.08-1.43.08-3.69a20.81,20.81,0,0,0-.18-4.34l1.4.72Zm-2.39.4v2.42H650v-2.42Zm0,2.83v2.46H650v-2.46Zm.79,6.61v3.55h1.68V247.5Zm5.31-4.63c-.21.85-.81,3.08-4.4,3.74l0-.11c2.75-1.19,3.62-3,3.62-6.57a11.38,11.38,0,0,0-.31-3.19l1.54.81h3l.34-.39c.1-.1.15-.17.22-.17s.06,0,.26.16l.79.56a.26.26,0,0,1,.15.22c0,.25-.43.51-.54.56,0,.64,0,2.06,0,3,0,.57.06,2.41.06,2.88s0,1.57-1.81,2a2.23,2.23,0,0,0-1.39-1.6l0-.12a7.11,7.11,0,0,0,1.07.05c.71,0,.79,0,.89-.15s.09-.26.09-.92v-.75Zm-2.52,4.63v3.55h1.68V247.5Zm6.09-5v-2.08H654a12.47,12.47,0,0,1-.19,2.08Zm-1.57,8.58V247.5H654v3.55ZM657.25,240v-2H654v2Z"/><path class="cls-1" d="M182,124.12c0,16.23-6.79,26.56-16.91,26.56-9.66,0-14.58-10.61-14.58-24.06,0-18.94,9-26.08,17.51-26.08C177.64,100.54,182,110.11,182,124.12Zm-16-20.11c-7.59,0-9.79,8-9.79,19.49,0,10.33,2.27,23.64,10.65,23.64s9.46-10.81,9.46-21.56C176.38,116.28,174.18,104,166.06,104Z"/><path class="cls-1" d="M224.91,119.68c0,20-18.91,31.63-27,31.63-2.79,0-2.53-2-.13-2.57,13.18-3.19,19.84-12.34,21-23.37-2.07,1.8-7.06,5.34-12.39,5.34-6.72,0-12.18-6.11-12.18-13.94a16,16,0,0,1,16.11-16.23C219.79,100.54,224.91,109.07,224.91,119.68ZM219,121.55c0-13.17-4.93-17.82-10.86-17.82-4.59,0-8.25,2.84-8.32,10.61-.06,8.67,5.33,11.72,10.26,11.72a13.65,13.65,0,0,0,8.92-3.4Z"/><path class="cls-1" d="M262.86,113.86c0,9.7-10.18,19.14-20.17,29.61-.33.28-.33.62,0,.69.67.14,9.85.56,16.11.56,2.33,0,3.53-.63,5.59-5.9.8-2.22,2.4-1.94,2.4.07a34.06,34.06,0,0,1-1.8,8.67c-.66,1.94-1.33,2.15-4.46,2.15s-20.37-.21-21.1-.21-3.2.07-3.6.07a1.32,1.32,0,0,1-.73-2.29c.87-.9,2.07-2.08,2.46-2.49,11-11.45,19-20.11,19-29.55,0-6.24-2.86-9.64-8.32-9.64-3.93,0-6.46,1.67-9.59,5.62-1.86,2.36-3.53.9-2.13-1.46,3.06-5.13,7.66-9.36,14.31-9.36C256,100.4,262.86,104,262.86,113.86Z"/><path class="cls-1" d="M279.31,129.88c1.4-.14,14.31-.42,16.31-.35,1.4.07,1.6.35,1.6,1a3.94,3.94,0,0,1-1.67,3.05c-1.53.7-14,.83-16.31.76-.46,0-1.13-.13-1.2-.9A5.24,5.24,0,0,1,279.31,129.88Z"/><path class="cls-1" d="M339.83,132.79c0,9.43-6.46,17.89-16.38,17.89-10.85,0-14.71-10.26-14.71-18.65,0-17,13.11-28.58,23.76-31.63a24.88,24.88,0,0,1,4.86-1c1.07,0,1.87.28,1.87,1.11,0,.28-.34,1.18-1.87,1.53-16.51,3.26-21,14.63-22.3,22.19,1.93-1.32,7.86-5.2,12.65-5.2C334.83,119.06,339.83,125.78,339.83,132.79Zm-5.6,3.19c0-9.92-6.05-12.48-10.11-12.42-3.47.07-6.33,1.32-9.39,3.47-.07,1-.07,1.81-.07,2.5,0,10.68,3.46,17.82,11.12,17.82C330.64,147.35,334.23,143.61,334.23,136Z"/><path class="cls-1" d="M381.51,119.68c0,20-18.91,31.63-27,31.63-2.8,0-2.53-2-.14-2.57,13.19-3.19,19.84-12.34,21-23.37-2.06,1.8-7.06,5.34-12.38,5.34-6.73,0-12.18-6.11-12.18-13.94a16,16,0,0,1,16.11-16.23C376.38,100.54,381.51,109.07,381.51,119.68Zm-5.93,1.87c0-13.17-4.93-17.82-10.85-17.82-4.59,0-8.26,2.84-8.32,10.61-.07,8.67,5.32,11.72,10.25,11.72a13.61,13.61,0,0,0,8.92-3.4Z"/><path class="cls-1" d="M419.46,113.86c0,9.7-10.19,19.14-20.17,29.61-.34.28-.34.62,0,.69.66.14,9.85.56,16.11.56,2.33,0,3.52-.63,5.59-5.9.8-2.22,2.39-1.94,2.39.07a34.43,34.43,0,0,1-1.79,8.67c-.67,1.94-1.33,2.15-4.46,2.15s-20.37-.21-21.11-.21-3.19.07-3.59.07a1.32,1.32,0,0,1-.73-2.29c.86-.9,2.06-2.08,2.46-2.49,11-11.45,19-20.11,19-29.55,0-6.24-2.86-9.64-8.32-9.64-3.93,0-6.46,1.67-9.59,5.62-1.86,2.36-3.52.9-2.13-1.46,3.07-5.13,7.66-9.36,14.32-9.36C412.6,100.4,419.46,104,419.46,113.86Z"/><path class="cls-1" d="M435.9,129.88c1.4-.14,14.32-.42,16.31-.35,1.4.07,1.6.35,1.6,1a3.93,3.93,0,0,1-1.66,3.05c-1.53.7-14,.83-16.31.76-.47,0-1.14-.13-1.2-.9A5.23,5.23,0,0,1,435.9,129.88Z"/><path class="cls-1" d="M481.37,147.08c2.6.27,2.6,2.56-.13,2.56s-5.06-.14-8.65-.14-6.46.14-8.92.14c-2.73,0-2.8-2.29-.07-2.56,4.86-.63,5.33-1.32,5.53-3.54.13-1.74.33-4.58.33-9.16V111.22c0-2.36-.14-2.84-.73-2.7-1.14.27-3.33.83-5,1-1.93.2-3,.27-3-.63s.93-1.32,1.86-1.66a42.72,42.72,0,0,0,8.19-4.09c2.66-1.81,3.53-2.64,4.13-2.71a.82.82,0,0,1,.93,1.11c-.33,1.39-.87,4-.87,12.41v20.39c0,3.61,0,7.49.14,8.88C475.32,146,475.78,146.45,481.37,147.08Z"/><path class="cls-1" d="M517.19,107.34a.88.88,0,0,0-.79-.35c-1.27,0-14.85,0-18.31.28-2.4.14-2.87,2.15-3.93,4.64-.93,2.22-2.8,1.88-2.33-.62.2-1.6,1.13-6.94,1.53-9.09.2-1.38,1.33-1.52,2-1a6.94,6.94,0,0,0,3.19.49h15.18c4.93,0,6.39-.14,7.86-.42.93-.27,1.53.56.93,1.88-6.59,13.66-17,35.5-21.64,45.84-.4,1-.8,1.25-1.53,1.25-1.13,0-2.53-.91-2.53-1.88C496.82,147,513.67,114.41,517.19,107.34Z"/><path class="cls-1" d="M552.15,125.16c3.79,2.15,7.85,5.13,7.85,11.24,0,7.55-6.92,14.35-15.57,14.35-9.59,0-13.59-7.35-13.59-12.55a9,9,0,0,1,3.07-7.28,48.56,48.56,0,0,1,7.65-5.62c-6.45-3.4-8.85-7-8.85-12.21,0-6.58,6-12.69,13.65-12.69,8.65,0,11.78,6.94,11.78,11,0,4.44-1.73,7.28-9,12.14Zm2.53,13.45c0-4-1.87-6.65-5.19-8.8-1.8-1.11-3.87-2.36-5.86-3.47-4.8,3.81-7.53,6.52-7.53,11a10.45,10.45,0,0,0,10.46,10.4C551.82,147.7,554.68,144,554.68,138.61Zm-7.52-16.22c4.32-3.61,6.05-6.18,6.05-10a8.77,8.77,0,0,0-8.72-9.09c-4.86,0-6.92,3.75-6.92,7.84,0,4.65,2.6,7.42,5.79,9.22Z"/><path class="cls-1" d="M596.29,107.34a.89.89,0,0,0-.8-.35c-1.26,0-14.84,0-18.31.28-2.39.14-2.86,2.15-3.92,4.64-.94,2.22-2.8,1.88-2.33-.62.2-1.6,1.13-6.94,1.53-9.09.2-1.38,1.33-1.52,2-1a7,7,0,0,0,3.2.49h15.18c4.93,0,6.39-.14,7.85-.42.94-.27,1.54.56.94,1.88-6.59,13.66-17,35.5-21.64,45.84-.4,1-.8,1.25-1.53,1.25-1.13,0-2.53-.91-2.53-1.88C575.92,147,592.76,114.41,596.29,107.34Z"/><path class="cls-2" d="M77.67,120.16A28,28,0,1,1,99,153.46,28,28,0,0,1,77.67,120.16Z"/><path class="cls-1" d="M99.68,118.94c2-1.17,3.58-2.25,4.14-2.57s.53-1.17.06-2-4.37-7.33-4.37-7.33c-.61-1-1.28-2.07-2.23-1.5L93.18,108c-2.45,1.45-5.69,9.64,2.81,23.9s17.24,15.32,19.69,13.86l4.09-2.44c1-.57.36-1.65-.25-2.68l-4.37-7.33c-.47-.79-1.2-1.21-1.76-.88s-2.25,1.24-4.22,2.41-4.17-1.79-7-6.6S97.71,120.11,99.68,118.94Z"/></g></svg>