<svg xmlns="http://www.w3.org/2000/svg" width="700" height="278.25" viewBox="0 0 700 278.25"><defs><style>.cls-1{fill:#980051;}.cls-2{fill:none;stroke:#980051;stroke-miterlimit:10;stroke-width:1.76px;}</style></defs><title>renrakusaki</title><g id="レイヤー_2" data-name="レイヤー 2"><path d="M161.56,36.05a55.84,55.84,0,0,1-2.75,5.81l.62.4c.36.22.44.4.44.57a1,1,0,0,1-.17.54c-.14.17-.89.75-1,.93,0,1.64.18,17.85.18,18.12.08,1.55.39,6.2.39,7.53,0,2.13-1.24,2.66-2.61,2.66s-1.86-.53-1.86-1.68c0-.71.22-3.81.26-4.48.14-3,.14-3.14.23-14.13,0-2.48,0-2.75,0-5a32.86,32.86,0,0,1-6.82,6.7l-.27-.23a86.44,86.44,0,0,0,9.62-19.4,17,17,0,0,0,.53-3.15l4.52,2.61a.93.93,0,0,1,.57.85C163.46,35.35,162.71,35.7,161.56,36.05Zm26.72,33.5h-23a21.35,21.35,0,0,0-4.79.31l-.75-1.63c2.12.17,4.21.26,6.33.26h5.37V55.29h-3.28a21,21,0,0,0-4.79.31L162.62,54c2.08.17,4.17.26,6.29.26h2.49v-11h-5.23a27.53,27.53,0,0,0-4.79.26l-.71-1.59c2.08.18,4.21.27,6.29.27h13.47l1.51-2.62c.13-.22.4-.71.75-.71s.49.27.8.49L187,42a.9.9,0,0,1,.45.66c0,.44-.45.49-.67.49H175.16v11h4.39L181.06,52c.17-.26.39-.57.7-.57a1.43,1.43,0,0,1,.8.44l3.1,2.3a1,1,0,0,1,.45.67c0,.44-.45.49-.67.49H175.16v13.2h6.78L184,66c.18-.22.4-.57.66-.57s.49.22.85.49l3,2.52a.9.9,0,0,1,.44.67C188.94,69.51,188.5,69.55,188.28,69.55ZM173.74,41.11c-1.64,0-2-1.11-2.7-3.81a22,22,0,0,0-2.26-5.06l.27-.26c2.39,1.06,6.82,3,6.82,6.64A2.19,2.19,0,0,1,173.74,41.11Z"/><path d="M219.87,49.22l1.73-1.42c.22-.18.53-.45.79-.45s.54.31.62.4L225.32,50a.76.76,0,0,1,.31.67.54.54,0,0,1-.27.44,13.16,13.16,0,0,1-1.68.84,39.5,39.5,0,0,1-5.23,10.77c1.15.89,6.51,4.92,16.31,5.5v.35c-1.15.4-3.15,1.11-4.83,4.47-6.52-1.32-11.21-5.67-13.38-8.1-3.15,3.23-8,6.38-15.34,7.79l-.13-.35a32.45,32.45,0,0,0,13.16-10.32,25.9,25.9,0,0,1-4.47-11.13c-4.52,14.45-13.25,19.59-16.13,21.23l-.23-.36a38.64,38.64,0,0,0,9.09-12.09A67.77,67.77,0,0,0,208,41.37h-8.24a25.05,25.05,0,0,0-4.78.31L194.26,40c2.08.18,4.21.27,6.29.27h7.62a58.91,58.91,0,0,0,.4-6.25,13.94,13.94,0,0,0-.44-2.66l5.49,1.77c.49.18.67.49.67.62,0,.54-.54.8-1.42,1.33-.09.27-.62,3.46-.93,5.19h14.4l2-2.31c.49-.53.49-.57.71-.57s.31.13.8.49l3.23,2.3a1.1,1.1,0,0,1,.45.66c0,.49-.45.49-.71.49H211.76a71.64,71.64,0,0,1-1.51,7.85Zm-9.44,1.06a21.13,21.13,0,0,0,5.18,9.92,25.06,25.06,0,0,0,4.44-9.92Z"/><path d="M262.71,39.11a.76.76,0,0,1,.36.58c0,.62-.67.71-1.95,1A59.84,59.84,0,0,1,258,45.8l1.95.36c.22,0,.93.22.93.88,0,.36-.26,1-1.5,1.29-.14,6.65-.14,10.68-.14,11.08,0,1.77,0,4.29.14,7.49,0,.62.17,3.72.17,4.38,0,1.51-1.64,2-2.52,2-1.11,0-1.82-.4-1.82-1.33,0-.22.13-1.42.13-1.69.27-3.94.27-4.61.23-21.18-4.08,5.27-10.24,11.43-17.29,14.58l-.08-.13c4.6-4.08,13.78-14.36,18.47-23.09a9.21,9.21,0,0,0,1-3H244.77a20.77,20.77,0,0,0-4.79.31l-.75-1.64c2.13.18,4.21.27,6.34.27h25.7l2.3-2.53c.53-.62.58-.66.75-.66s.4.13.85.49l3.23,2.61c.13.13.44.36.44.66,0,.45-.44.49-.71.49H260.59Zm0,7.27c4.79.18,15.38,6.6,15.38,11.83A2.23,2.23,0,0,1,276,60.56c-1.64,0-2.17-.89-3.95-3.86-2.61-4.47-7.4-9.26-9.43-10.14Z"/><path d="M301.4,45.67l1.28-1.42c.18-.18.35-.4.58-.4a1.35,1.35,0,0,1,.66.36l1.77,1.59a1.09,1.09,0,0,1,.4.8c0,.44-.18.67-1.11,1.6-.08,1.28,0,7.26-.13,8.15a2.45,2.45,0,0,1-2.35,1.59c-.75,0-1-.57-.88-1.28h-3.95v4.12h2.48L301.62,59c.31-.36.48-.53.71-.53a1.44,1.44,0,0,1,.79.44l2.13,1.77c.22.18.44.36.44.67s-.35.48-.66.48h-7.36v3.73c4.74-.67,6.61-1,8-1.29v.31c-4.65,2.57-15.06,5.27-17.85,5.81-.31.84-.62,1.24-1,1.24s-.71-.4-.85-.62l-2.08-4.35a11.69,11.69,0,0,0,2.17.18,27.66,27.66,0,0,0,3.46-.31c.49,0,3.63-.35,4.83-.53V61.84h-3.86a26.69,26.69,0,0,0-4.78.27l-.71-1.6c2.7.23,5.8.27,6.29.27h3.06V56.66h-4a1.56,1.56,0,0,1-.53,1.64,3.29,3.29,0,0,1-1.77.66c-.8,0-1.11-.53-1.11-1.37,0-1.55.13-8.33.13-9.75a21.52,21.52,0,0,0-.44-4.47l4.34,2.3h3.37V42.26h-4.61a22.6,22.6,0,0,0-4.83.31l-.71-1.64c2.71.22,5.81.26,6.34.26h3.81V38c-1.73.18-4.34.4-6.29.4-1.38,0-2.26-.09-3.06-.13V38a116.45,116.45,0,0,0,14.36-4.17,6.42,6.42,0,0,0,2.3-1.46l3,2.75a1,1,0,0,1,.4.75c0,.4-.44.62-2.08.49-.76.22-2.22.58-5.28,1.15v3.72h4.52l1.64-2.3c.18-.27.45-.53.71-.53s.49.22.75.44L308,41.11c.27.22.45.4.45.66s-.36.49-.67.49H297.67v3.41Zm-7,4.79V46.73h-4v3.73Zm0,5.14V51.52h-4V55.6Zm3.32-8.87v3.73h4V46.73Zm0,4.79V55.6h4V51.52Zm20.16-7.27,1.91-1.86c.18-.18.49-.49.66-.49a1.6,1.6,0,0,1,.76.4L323.37,44c.36.27.54.44.54.75s-1,1.11-1.56,1.51v2.22c-.22,8.19-.31,14.26-1.37,17.41-1.33,4-2.84,6.25-7.44,6.78-.36-3-2.62-4.21-4.74-5.32l.13-.35a24.54,24.54,0,0,0,5.18.57c1.95,0,2.26-.26,2.93-1.77,1.42-3.28,1.95-15.2,1.95-17.37a13.41,13.41,0,0,0-.36-3.14h-3.85A45.62,45.62,0,0,1,313.31,57c-2.52,9.89-7.57,13.52-12.62,15.91l-.31-.31c5.09-3.5,7.71-9,9-13,1-2.93,1.64-7.09,1.77-14.31a20.86,20.86,0,0,0-4.78.31L305.65,44c1.82.17,2.17.17,5.49.26.09-2.92.18-8.55-.93-12.45l5.19,1.77c.26.09.79.4.79.76s-.22.48-.39.66a10.34,10.34,0,0,0-.89.8c0,1.24-.09,7.13-.13,8.46Z"/><path d="M359.53,37.47l2-2.48c.4-.49.45-.53.71-.53s.22,0,.75.4l3.33,2.52a1,1,0,0,1,.44.67c0,.4-.4.49-.71.49h-9l3,1.5a.72.72,0,0,1,.4.62c0,.58-.84.76-1.82,1-1.19,1.29-1.64,1.69-5.49,5.45h8.06L363.12,45c.4-.49.53-.58.71-.58s.26,0,.84.44l3.14,2.22c.31.22.49.4.49.62,0,.44-.4.49-.66.49H338.21c-.13,12.27-.88,18.56-8.1,24.19l-.23-.22c.93-1.29,2.35-3.19,3.59-8.82a48.67,48.67,0,0,0,1.07-10.06,30.3,30.3,0,0,0-1-8.6l5.14,2.44h13.51c2.4-5.71,2.66-6.33,3.19-8.59h-18a26.93,26.93,0,0,0-4.78.26l-.76-1.59c2.71.22,5.85.26,6.34.26h9.39a18.93,18.93,0,0,0-.75-5.45L352,33.35c.44.13.67.18.67.58s-.85,1-1.42,1.33c-.05.4-.05,1.77-.05,2.21Zm2.08,32.13,2.17-2.13c.05,0,.58-.57.71-.57s.22,0,.84.48l3,2.13c.22.18.44.35.44.66s-.4.49-.67.49H342.29a26.61,26.61,0,0,0-4.78.27l-.76-1.6c2.71.22,5.85.27,6.34.27h6.38V63.26h-3.19a22.46,22.46,0,0,0-4.79.31l-.75-1.64c2.7.22,5.85.27,6.34.27h2.39c0-1.42,0-1.82,0-5.54H344c-2,3.06-3.15,4.83-6.12,7l-.17-.17c2.08-4.08,5.23-11,5.54-14.49l4.56,2a.59.59,0,0,1,.4.53c0,.44-.09.49-1.6,1.15-.53.8-.66,1-1.9,2.93h4.7c-.05-4.21-.05-4.7-.54-6.87l5,.75a.54.54,0,0,1,.58.53c0,.4-.14.53-1.38,1.38a9.29,9.29,0,0,0-.13,1.86V55.6h5.67l1.55-2.35c.36-.58.53-.67.67-.67s.26.09.84.53l2.92,2.4a1,1,0,0,1,.45.66c0,.44-.36.49-.67.49H353c0,3.59,0,4-.09,5.54h4.39l1.59-1.91c.45-.48.49-.53.71-.53s.27.05.84.44l2.71,1.95a.84.84,0,0,1,.4.62c0,.4-.36.49-.67.49h-10c0,1,0,5.41,0,6.34ZM338.35,38.8c3.9.8,7.35,3.15,7.35,5.63a2.24,2.24,0,0,1-2.17,2.35c-1.24,0-1.46-.49-2.39-3.1A11,11,0,0,0,338.35,39Z"/><path d="M389.48,42.66h-4.56v4.78c.66.22,5,2.53,5,5.41A2,2,0,0,1,388,55c-1.81,0-2-1.64-2.12-3.95a5.87,5.87,0,0,0-.93-2.88v6.12c0,4.47.17,11.56.17,16,0,.88,0,1.19-.35,1.46a3,3,0,0,1-2.13.89c-1.59,0-1.59-.76-1.59-1.33,0-.09.53-11.88.62-14.14.08-1.46.08-1.9.13-5.71-1.86,4.25-4.25,8.28-7.89,11.16l-.35-.22c2.61-3.72,7-13.6,8-19.76a30.31,30.31,0,0,0-5.45.26l-.71-1.59c2.62.22,5.59.26,6.47.26-.09-5.54-.09-6.16-.35-9.66l4.74,1.29c.31.09.53.13.53.4s-.31.62-1.55,1.37c-.22,3.5-.26,5.45-.26,6.6h.79l1.38-1.9c.22-.31.4-.53.66-.53a1.17,1.17,0,0,1,.84.57l1.16,1.69c.22.35.39.53.39.75C390.14,42.57,389.79,42.66,389.48,42.66ZM412.12,67.6c-2.48-1.28-5.4-5.49-6.11-6.64a41.31,41.31,0,0,1-3.24-7.89c.05,1.24.09,6.69.09,7.8.05,1.46.36,7.93.36,9.22a2.44,2.44,0,0,1-2.75,2.57c-1.46,0-1.46-1.29-1.46-1.73,0-2.57.4-13.92.44-16.22a31.26,31.26,0,0,1-6.29,7.89,39.51,39.51,0,0,1-6.52,4.78l-.22-.17c5.72-5.41,8.11-9.8,11.3-15.69h-2.17a28.2,28.2,0,0,0-4.79.26l-.7-1.59c2.7.22,5.8.27,6.29.27h3.19c-.05-1.86-.09-5.28-.13-7.36H394a28.19,28.19,0,0,1-5.19,6.47l-.27-.22c1.42-3.19,4.26-9.75,4.26-12.72,0-.09-.09-1.37-.09-1.64l4.52,1.82c.31.13.58.31.58.66s-.36.62-1.38,1c-.49,1-.75,1.6-1.81,3.55h4.83c-.09-5.14-.09-5.72-.18-6.78a19.31,19.31,0,0,0-.84-3.28l5.27,1.15c.49.09.8.35.8.62s-1.2,1.11-1.55,1.37c-.09,1.07-.18,2.75-.18,6.92h3.63l1.77-2.13c.4-.49.49-.53.67-.53s.31,0,.84.44l2.7,2.13a.84.84,0,0,1,.45.66c0,.4-.4.49-.71.49h-9.35l0,7.36h5.54l2.17-2.26c.49-.49.49-.58.67-.58s.35.09.84.49l2.79,2.26a.94.94,0,0,1,.44.66c0,.4-.35.49-.66.49H403c1.91,4.83,8.06,11.56,13.83,12.58v.31A8.86,8.86,0,0,0,412.12,67.6Z"/><path d="M423.33,69.82c-.13.84-.53,1.11-.84,1.11-.49,0-.8-.49-1-1l-1.9-4.83a9.3,9.3,0,0,0,1.73.18,43.73,43.73,0,0,0,8.24-1.55V51.61h-3.1a23.56,23.56,0,0,0-4.79.31l-.75-1.64a60.91,60.91,0,0,0,6.33.26h6.83l1.77-2.39c.22-.26.44-.57.71-.57s.4.13.8.48l2.74,2.44c.23.18.45.35.45.66s-.4.45-.67.45h-6.73V62.77a99.68,99.68,0,0,0,10.63-3.54l.13.31C439.15,63.08,434.41,65.52,423.33,69.82Zm36.25-26.68H444.42c1,10.24,3.68,16,6.74,20.3.57.8,2.43,3.1,3.5,3.1.49,0,.49,0,1.64-2.3.84-1.69,1.42-3.1,2.17-5l.22,0c0,.89-.4,5.45-.4,7.8a2.25,2.25,0,0,0,.58,1.73c.66.89.84,1.15.84,1.73,0,.89-.75,1.73-2.13,1.73-2,0-6-2.22-8.28-5.05-5-6.25-7-13.39-8.47-24.07h-15.2a22.1,22.1,0,0,0-4.78.31l-.75-1.64c2.7.23,5.84.27,6.33.27H440.7c0-.31-.62-6-.71-6.82a9.16,9.16,0,0,0-1-3.64l5.85,1.47c.75.17.88.44.88.66,0,.49-.88.93-1.68,1.33,0,1.51,0,3.5.26,7H453l2.22-2.66c.4-.48.49-.57.71-.57s.35.09.84.53L459.8,42c.26.22.44.4.44.67S459.89,43.14,459.58,43.14ZM450.71,40c-1,0-1.46-.53-2-1.77-1.11-2.71-1.46-3.33-2.26-4.26l.22-.49a9.56,9.56,0,0,1,4,1.29,4,4,0,0,1,2,3.15A2,2,0,0,1,450.71,40Z"/><path d="M501.4,51c-3.94-1.86-10.81-5.71-16.13-15.91-3.1,5.81-12.67,14.36-20.07,17.37l-.22-.26a63.64,63.64,0,0,0,15.6-17.33,9.36,9.36,0,0,0,1.55-3.59L486.91,33c.58.18.71.53.71.71,0,.53-1.06.8-1.59,1,2.83,4.38,9.83,10.5,19.8,12.09V47A8.26,8.26,0,0,0,501.4,51Zm.45,5.81H484.34A66.66,66.66,0,0,1,477,66.32c10.9-.84,12.1-.93,16.57-1.55a43.29,43.29,0,0,0-4.69-5.94l.22-.27c2.57,1.07,11.34,5.5,11.34,11,0,.71-.48,2.48-2.21,2.48-1.42,0-2.31-1.15-2.88-3a18,18,0,0,0-1.24-3.24c-4.7,1.42-19.32,4.79-22,5.23-.18.45-.31.93-.76.93s-.75-.66-.84-.93l-1.95-4.87a20.72,20.72,0,0,0,4.35.49c.48,0,2.12-.14,2.83-.18a46.65,46.65,0,0,0,3.32-9.57h-6.33a23.64,23.64,0,0,0-4.79.31l-.75-1.64a61.1,61.1,0,0,0,6.34.26h21l2.44-2.7c.44-.53.53-.58.75-.58s.27,0,.8.49l3.46,2.75c.13.13.44.35.44.66S502.07,56.84,501.85,56.84Zm-9.75-7.71H480.27a25.54,25.54,0,0,0-4.79.31l-.71-1.64c2.66.26,5.81.26,6.29.26h4.79L488,45.58c.44-.53.49-.57.71-.57s.67.35.8.48L492.32,48c.27.27.44.4.44.71S492.36,49.13,492.1,49.13Z"/><path d="M508.89,58.34c4.83-4,11.61-12.18,13.38-16.39h-6.6a22.46,22.46,0,0,0-4.79.31l-.71-1.64c2.09.18,4.17.26,6.3.26H518a23.44,23.44,0,0,0-1.33-9l5.5,1.63c.22.05.75.23.75.62s-.57.8-1.37,1.33c0,.62-.09,1.42-.09,2.17,0,.45,0,2.75,0,3.28h.93l1.2-1.28a1,1,0,0,1,.71-.4,1.21,1.21,0,0,1,.75.4l2.53,2.3a.65.65,0,0,1,.22.49c0,.67-.93.84-2,1a64.31,64.31,0,0,1-4.21,5.41c2.39.75,6.78,3.23,6.78,6.07a1.93,1.93,0,0,1-1.87,2c-1.32,0-1.77-1-2.43-2.57a26.59,26.59,0,0,0-2.79-4.79c0,1.73-.09,10.77-.09,10.9,0,1.42.26,8.55.26,9.13,0,1.95-2,2.3-2.57,2.3a1.51,1.51,0,0,1-1.59-1.55c0-.13.26-4.12.26-4.47.09-2.22.09-3.28.18-13.07a43,43,0,0,1-8.68,5.89Zm23.79-10.1a25.48,25.48,0,0,0-4.78.31l-.71-1.64c2.08.18,4.21.27,6.29.27h1.95c0-.93-.09-5.14-.09-6,0-5.45,0-6.46-1.5-9.34l5.31,1.28c.76.18,1.24.53,1.24.93s-.7,1-1.24,1.29c-.08,1.15-.08,2.21-.08,11.83h3.67l2-2.44c.4-.49.45-.58.71-.58s.71.4.8.49L549,47.09c.27.26.44.4.44.71s-.39.44-.66.44h-9.7c0,6.6,0,13.65.08,19.72h3.9l2.44-2.48c.44-.49.53-.58.71-.58s.62.31.84.53l2.66,2.44a1.06,1.06,0,0,1,.4.71c0,.4-.36.44-.67.44H530.34a26.47,26.47,0,0,0-4.79.31l-.71-1.64a59.69,59.69,0,0,0,6.29.27h4.35c0-8.24,0-9.88-.05-19.72Z"/><path d="M278.88,94.43a18.77,18.77,0,0,1-8.43-7.14c0,.76.08,4.06.08,4.75,0,.4,0,1.28-1.43,1.28-.52,0-.84-.29-.84-.93s.05-3.13.07-3.8A24.92,24.92,0,0,1,257.6,94.8l-.08-.2c3.18-2,7.49-5,9.29-7.61h-5.15a14,14,0,0,0-2.66.18l-.39-.91c1.5.14,3.22.14,3.49.14h6.26l0-2.26c-1,.1-2.63.22-4.53.22-1.72,0-2.9-.1-3.59-.15V84A64.18,64.18,0,0,0,271,82a5.64,5.64,0,0,0,3-1.6L276,82.19c.2.17.3.27.3.45s-.27.36-.57.36a6.56,6.56,0,0,1-.69,0,28.5,28.5,0,0,1-4.65.94l0,2.51H277l.87-1.25c.12-.2.19-.3.36-.3a1.12,1.12,0,0,1,.47.27l1.58,1.23c.2.15.27.23.27.4s-.2.24-.37.24h-9.41c1.8,2.27,6.85,4.68,10.44,5v.23A3.39,3.39,0,0,0,278.88,94.43Zm-3.26.67c0,.74.05,2.21.15,5,0,.32.08,1.67.08,1.94,0,.49,0,1.26-1.33,1.26-1,0-1-.52-1-1.5H265.4c0,.66.08,1.74-1.23,1.74-1,0-1-.66-1-1.08,0-.25.1-1.43.1-1.65.12-2.58.12-5.37.12-5.74s-.07-2.07-.07-2.39l2.38,1.21h7.52l.88-.89a.76.76,0,0,1,.54-.24.89.89,0,0,1,.62.29l.84.69a.65.65,0,0,1,.29.47C276.36,94.43,276.14,94.65,275.62,95.1Zm-2.06-.67H265.4v3h8.16Zm0,3.6H265.4v3.12h8.16Z"/><path d="M305.35,101.28H294.54c0,1.08-.05,2-1.41,2-.66,0-.71-.4-.71-.77,0-.19.15-2.48.15-3,0-1.68.12-9.06.15-10.57a18.31,18.31,0,0,1-2.17,2.25,2.06,2.06,0,0,1,1.35,1.89,1,1,0,0,1-1,1.11c-.84,0-1-.57-1.33-2-.22-.84-.35-1-.72-1.31,0,1.78.1,9.56.1,11.14,0,.34,0,1.42-1.47,1.42-.37,0-.72-.12-.72-.86,0-.32.15-1.72.15-2,.07-2,.1-2.78.17-7.8a27.92,27.92,0,0,1-4.21,5.24l-.2-.12a35.26,35.26,0,0,0,4.41-11h-.69a14.91,14.91,0,0,0-2.66.15l-.39-.89c1.38.12,2.86.15,3.82.15,0-3.3-.2-4-.65-5.47l2.79.86c.15,0,.49.18.49.45s-.39.51-.89.69c0,.19,0,2.71,0,3.47h.44l.35-.84c.07-.17.22-.42.39-.42s.22.08.44.27l1,.92a.74.74,0,0,1,.22.39c0,.22-.17.27-.37.27h-2.51c0,1.26,0,3.28,0,3.77a12.54,12.54,0,0,1,1.43.39c1.68-2.66,3.57-8.22,3.38-10.24L296.11,82c.3.15.45.28.45.5s-.1.27-.86.56a39.29,39.29,0,0,1-1.58,3.65l.49.24h2.76c.1-.34.59-1.79.69-2.09a10.85,10.85,0,0,0,.52-3.74l2.53,1.18c.18.07.42.22.42.39s-.56.55-.88.67a31.89,31.89,0,0,1-2.76,3.59h4l.93-1.15c.13-.15.25-.32.37-.32a.74.74,0,0,1,.47.27L305,86.9c.15.14.25.22.25.37s-.22.27-.4.27h-5.12v3.94h2l.46-1c.05-.1.18-.37.37-.37s.32.17.47.27l1.4,1a.47.47,0,0,1,.25.39c0,.22-.22.25-.37.25h-4.53v3.72h1.82l.91-1.14c.18-.22.25-.32.37-.32s.25.1.47.27l1.38,1.14c.12.1.25.22.25.37s-.23.27-.37.27h-4.83v4.31h2.39l1-1.31c.17-.24.25-.29.37-.29s.2,0,.44.24l1.58,1.31c.12.12.22.22.22.37S305.52,101.28,305.35,101.28Zm-7.56-13.74h-3.25v3.94h3.25Zm0,4.53h-3.25v3.72h3.25Zm0,4.31h-3.25v4.31h3.25Z"/><path d="M329.09,88.27c-.22.15-.32.23-1.45,1.09-.2.15-1.21.81-1.38,1l-.12-.12c.19-.47.78-2.71.93-3.16H312.34c0,2.56-1.23,4.31-2.51,4.31a1.16,1.16,0,0,1-1.11-1.23c0-.66.32-1,1.33-2A6.82,6.82,0,0,0,311.78,85h.15a4.89,4.89,0,0,1,.36,1.48h9.9c.55-.79,2-3.69,1.85-5.64l2.66,1.41c.17.09.3.14.3.37s-.13.24-1.23.64c-.25.27-1.43,1.7-1.46,1.72-.22.22-1.25,1.28-1.45,1.5h4.06l.89-.71c.25-.2.34-.27.47-.27s.2,0,.44.27l1.77,1.5a.47.47,0,0,1,.18.37C330.67,88.3,330,88.27,329.09,88.27Zm-2.68,9.58c0,.15.1,4,.1,4.24a1.1,1.1,0,0,1-.15.64,1.32,1.32,0,0,1-1.06.49c-.86,0-.81-.61-.79-1H315a1.14,1.14,0,0,1-1.26,1.11c-.61,0-.76-.35-.76-.89s.15-3.47.15-4.11a10.56,10.56,0,0,0-.3-2.79l2.54,1.29h2.29a8.58,8.58,0,0,0,.84-2.89h-2.12c0,.42,0,1.26-1.16,1.26-1,0-1-.64-1-1.06,0-.59.17-3.3.17-3.84a5.93,5.93,0,0,0-.22-1.95l2.49,1.11h6l.77-.81a.47.47,0,0,1,.34-.22.81.81,0,0,1,.39.17l1,.81c.23.17.3.25.3.37s-.15.3-.69.84c-.05.49.1,2.66.1,3.1a1.12,1.12,0,0,1-1.18,1.11.79.79,0,0,1-.89-.89H321a22.09,22.09,0,0,1-2.29,2.89h5.57L325,96c.1-.12.17-.27.27-.27s.32.17.42.24l1.11.82c.12.1.3.24.3.39S326.8,97.58,326.41,97.85ZM315.52,86c-.74,0-1-.57-1.18-1.48a7.69,7.69,0,0,0-1.21-2.78l.1-.12c.94.39,3.42,1.42,3.42,3.2A1.1,1.1,0,0,1,315.52,86Zm9,11.48H315v4.21h9.5Zm-1.67-7.37h-6.5v3.3h6.5Zm-2.81-4.43c-.93,0-1.15-.71-1.28-1.48a8.55,8.55,0,0,0-1.11-3l.1-.1c2,.89,3.38,1.85,3.38,3.43A1,1,0,0,1,320.05,85.64Z"/><path d="M355.91,86.43H348.1l1.33.81a.56.56,0,0,1,.32.39c0,.35-.64.32-.86.32a13.29,13.29,0,0,1-2.39,2h4l1.06-1.21c.17-.19.27-.29.4-.29a.65.65,0,0,1,.44.24l1.3,1.21c.15.15.25.22.25.39s-.2.25-.37.25h-7.73c0,.22,0,1.6,0,1.92h3l.94-1c.19-.2.32-.35.42-.35s.37.2.51.3l1.43,1a.52.52,0,0,1,.27.39c0,.22-.19.27-.37.27h-6.23v2.17h5.77l1.35-1.4c.27-.27.32-.32.42-.32s.39.22.44.27l1.53,1.4a.63.63,0,0,1,.24.4c0,.22-.22.24-.36.24h-8.92a15.12,15.12,0,0,0,9.53,4.48v.1a5.12,5.12,0,0,0-2.34,2.34c-4.53-1.57-6.82-5.49-7.61-6.92h-.05c.08,4.83.13,5.37.17,6.18,0,.1,0,.27,0,.42,0,.86-1,1-1.4,1-.87,0-.87-.47-.87-.84s.15-5.37.18-6.26a16.46,16.46,0,0,1-9.76,6.26l0-.15a20.88,20.88,0,0,0,7.71-6.65h-4.31a15.19,15.19,0,0,0-2.66.17l-.4-.91c1.48.15,3.23.15,3.5.15H344V93h-4.39a11.82,11.82,0,0,0-2.66.18l-.42-.92c1.51.13,3.25.15,3.53.15H344V90.49h-5.23a14.1,14.1,0,0,0-2.65.17l-.42-.91c1.5.15,3.25.15,3.52.15h2.49c-.25-.12-.4-.27-.67-1a7.51,7.51,0,0,0-1.21-2.44h-2.75a12.57,12.57,0,0,0-2.66.17l-.4-.91c1.48.12,3.23.15,3.5.15h4.68a22.89,22.89,0,0,0-.4-5.1l2.76.84c.15,0,.35.12.35.34s-.54.52-.82.59c-.09,1.28-.09,2.56-.07,3.33h1.55c0-3.55-.22-4.26-.49-5.08l2.78.74c.25.08.45.13.45.37s-.47.54-.84.69c0,.32-.1,3.15-.1,3.28h.89a11.87,11.87,0,0,0,1.33-4.66L352,82.39c.19.1.36.2.36.37s-.51.42-.73.47c-1,1.08-2.59,2.51-2.69,2.61h3.45l1.26-1.24c.27-.27.32-.34.39-.34a1.05,1.05,0,0,1,.52.3L356,85.74c.15.12.3.29.3.42S356.06,86.43,355.91,86.43Zm-16-.89c-.69,0-.94-.57-1.46-1.77a4.74,4.74,0,0,0-1.4-1.87l.1-.18c1.45.3,3.77,1,3.77,2.71A1,1,0,0,1,339.93,85.54Zm.56.89c2.05.74,2.76,1.5,2.76,2.48a1,1,0,0,1-.64,1h3.28a8.74,8.74,0,0,0,1.23-3.47Z"/><path d="M377,89.83a1.43,1.43,0,0,0-.93.44,22.45,22.45,0,0,1-4.41,3.3l-.17-.1a21,21,0,0,0,3-4.73c-1.09.35-5.84,1.9-6.8,2.19-.1,2.12-.17,4.39-.17,5.23,0,1.57.46,2.26,3,2.26a17.73,17.73,0,0,0,3.79-.47,2.52,2.52,0,0,1,.64-.07,5.06,5.06,0,0,1,2,.52.72.72,0,0,1,.25.61c0,1.06-1.48,1.23-4.21,1.23-6.5,0-7.12-.91-7.12-6.28,0-1.2,0-2,.05-2.48A26.93,26.93,0,0,0,362,93.05a1.49,1.49,0,0,1-.74.27A3.1,3.1,0,0,1,359,90.71a3.14,3.14,0,0,1,.32-1.45c.79,1.23,1.11,1.75,2.12,1.75a20.4,20.4,0,0,0,4.45-1c0-.37.05-1,.05-1.92a16.19,16.19,0,0,0-.27-3.7c-.34-.64-1.45-.88-2-1a3.53,3.53,0,0,1,1.84-.76c.74,0,3,.46,3,1.25a10.46,10.46,0,0,1-.25,1.11,26.28,26.28,0,0,0-.54,4.53c.94-.27,6.38-1.82,6.48-1.9s.76-.56.89-.66a.48.48,0,0,1,.32-.15c.36,0,1.08.54,2.24,1.43a1.06,1.06,0,0,1,.51.84C378.17,89.6,378,89.63,377,89.83Z"/><path d="M387.51,88.27c-.42,0-.74-.34-1.58-1.18a12.56,12.56,0,0,0-4.11-3A9.46,9.46,0,0,1,383,84c.83,0,5.44.35,5.44,3.08A1.1,1.1,0,0,1,387.51,88.27Zm2.21,8.21c-.91.71-2.38,1.77-3.22,2.53-.15.13-.72.79-.86.86a.65.65,0,0,1-.35.1c-.89,0-2.63-2.24-2.63-3.45a5.47,5.47,0,0,1,.17-1.15c.79,1.33,1.53,1.67,1.94,1.67.69,0,4.81-3,5.69-3.69A52.08,52.08,0,0,0,398.17,86l.1,0C397.88,87.66,395.41,92,389.72,96.48Z"/><path d="M415.73,87.61c-.54.22-.57.22-1.55,2-4.09,7.22-6.43,8.67-8.32,9.86a15.75,15.75,0,0,1-4.81,2l-.05-.18A24.75,24.75,0,0,0,409.3,94a2.57,2.57,0,0,1-.88-.72c-1.75-2.06-1.87-2.21-3-2.85a14.08,14.08,0,0,1-4.21,3.15l-.05-.15c2.68-2.66,5.93-8,5.93-9,0-.81-.86-1.11-1.48-1.33a2.44,2.44,0,0,1,1.33-.42c1.41,0,3,1.16,3,1.77,0,.25-.08.3-.59.84a5.85,5.85,0,0,0-.64.84,17.12,17.12,0,0,0,4.33-.47,9.64,9.64,0,0,1,1.31-.69,6.19,6.19,0,0,1,2,2.17C416.42,87.36,416.35,87.36,415.73,87.61Zm-6.23-.1c-.22,0-.47,0-1.33-.59-1.38,1.92-2.36,3.08-2.44,3.15,1.14.08,4.21.49,4.51,2.61a25,25,0,0,0,2.86-5.76A27.16,27.16,0,0,1,409.5,87.51Z"/><path d="M438.17,93.15c-.4,0-1,0-1.5-.07s-6.48-.08-6.9-.08a39.66,39.66,0,0,0-6.33.4,3.33,3.33,0,0,1-.84.17c-.91,0-2.29-1.95-2.29-2.93a3.35,3.35,0,0,1,.4-1.38c.86,1.72,1.45,2,4.38,2,1.43,0,10,0,10.81-.32a3.35,3.35,0,0,1,1-.25c.05,0,2.93.22,2.93,1.53C439.82,92.66,439.35,93.15,438.17,93.15Z"/><path d="M57.13,199.83v-2.16H74.62v2.16Zm9.93,5.58v12H64.69v-12H57.13v-2.13H74.62v2.13Z"/><path d="M90.61,212.35a6,6,0,0,1-6.37,5.94c-3.08,0-5.83-1.78-5.83-4.86,0-2.91,2.32-4.29,4.8-5.75-1.43-.84-4-2.35-4-5.29,0-2.67,2.11-4.83,5.4-4.83,3.7,0,4.94,2.75,4.94,4.26,0,2.3-2.22,4-3.38,4.84C88.69,208.22,90.61,209.57,90.61,212.35Zm-9.94,1a3.89,3.89,0,0,0,3.89,4,4.2,4.2,0,0,0,4.1-4.07c0-2.57-2.67-4.08-4.64-5.19C82.81,209,80.67,210.68,80.67,213.35Zm6.89-11.23a3.41,3.41,0,0,0-3.35-3.64A3.1,3.1,0,0,0,81,201.69c0,1.89,1.53,2.83,4.34,4.51A5.16,5.16,0,0,0,87.56,202.12Z"/><path d="M95.15,216.91h1.48c1.4,0,1.89-.54,1.89-1.64V200.66c0-.83-.78-1-1.3-1h-2v-.84h.49a10.42,10.42,0,0,0,4.4-1.13c.19-.11.27-.16.38-.16s.29.16.29.38v17.33c0,1.16.57,1.64,1.89,1.64h1.49v.87h-9Z"/><path d="M118.74,208.6a5,5,0,0,1,1.84,4c0,3.32-2.73,5.7-6.29,5.7-2.92,0-5.37-1.65-5.37-3.81a1.55,1.55,0,0,1,1.54-1.72,1.32,1.32,0,0,1,1.32,1.35,2.26,2.26,0,0,1-.16.86,1.76,1.76,0,0,0-.08.62c0,1,1.16,1.78,2.42,1.78a4.62,4.62,0,0,0,4.19-4.78c0-2.78-2.05-4.94-4.21-4.94-.16,0-.92.11-1.08.11a.53.53,0,0,1-.6-.56.61.61,0,0,1,.62-.63c.17,0,1,.17,1.17.17,2.26,0,3.69-2,3.69-4.21s-1.27-4.05-3.4-4.05a2,2,0,0,0-2.18,1.81,1.89,1.89,0,0,0,.08.4,2.89,2.89,0,0,1,.08.65,1.43,1.43,0,0,1-1.38,1.48,1.4,1.4,0,0,1-1.35-1.48c0-1.49,1.73-3.78,5.18-3.78s5.4,2.16,5.4,4.53a4.66,4.66,0,0,1-1,2.76,6.45,6.45,0,0,1-3.42,2.29A7.22,7.22,0,0,1,118.74,208.6Z"/><path d="M129.52,212.27h-5.81v-1.75h5.81Z"/><path d="M138.48,218.29a5.48,5.48,0,0,1-4.43-2.92c-1.13-1.86-1.64-5.18-1.64-7.69,0-5.75,2.45-10.12,6.07-10.12,2.78,0,6.07,3,6.07,10.36C144.55,214.54,141.77,218.29,138.48,218.29Zm-3-16.22a24.26,24.26,0,0,0-.62,5.85c0,6,1.43,9.45,3.64,9.45,1.86,0,2.7-2.48,3-3.51a25.42,25.42,0,0,0,.64-5.94c0-6.15-1.48-9.44-3.64-9.44C136.56,198.48,135.73,201.12,135.46,202.07Z"/><path d="M153.6,218.29a5.48,5.48,0,0,1-4.43-2.92c-1.13-1.86-1.64-5.18-1.64-7.69,0-5.75,2.45-10.12,6.07-10.12,2.78,0,6.07,3,6.07,10.36C159.67,214.54,156.89,218.29,153.6,218.29Zm-3-16.22a24.26,24.26,0,0,0-.62,5.85c0,6,1.43,9.45,3.64,9.45,1.86,0,2.7-2.48,3-3.51a25.42,25.42,0,0,0,.64-5.94c0-6.15-1.48-9.44-3.64-9.44C151.68,198.48,150.85,201.12,150.58,202.07Z"/><path d="M164.24,216.91h1.48c1.41,0,1.89-.54,1.89-1.64V200.66c0-.83-.78-1-1.29-1h-2v-.84h.48a10.37,10.37,0,0,0,4.4-1.13c.19-.11.27-.16.38-.16s.3.16.3.38v17.33c0,1.16.56,1.64,1.89,1.64h1.48v.87h-9Z"/><path d="M187.84,208.6a5,5,0,0,1,1.83,4c0,3.32-2.73,5.7-6.29,5.7-2.91,0-5.37-1.65-5.37-3.81a1.55,1.55,0,0,1,1.54-1.72,1.32,1.32,0,0,1,1.32,1.35,2.26,2.26,0,0,1-.16.86,1.76,1.76,0,0,0-.08.62c0,1,1.16,1.78,2.43,1.78,2.08,0,4.18-2.05,4.18-4.78s-2.05-4.94-4.21-4.94c-.16,0-.92.11-1.08.11a.53.53,0,0,1-.59-.56.61.61,0,0,1,.62-.63c.16,0,1,.17,1.16.17,2.27,0,3.7-2,3.7-4.21s-1.27-4.05-3.4-4.05a2,2,0,0,0-2.19,1.81,1.89,1.89,0,0,0,.08.4,2.89,2.89,0,0,1,.08.65,1.43,1.43,0,0,1-1.38,1.48,1.4,1.4,0,0,1-1.35-1.48c0-1.49,1.73-3.78,5.19-3.78s5.4,2.16,5.4,4.53a4.73,4.73,0,0,1-1,2.76,6.47,6.47,0,0,1-3.43,2.29A7.32,7.32,0,0,1,187.84,208.6Z"/><path d="M211.27,200.29l.76-.68c.13-.13.32-.32.43-.32a1.18,1.18,0,0,1,.4.27l1.06.78c.13.11.32.27.32.46s-.3.4-1.19.73a33.93,33.93,0,0,1-3.05,4.1v.19c1.95.35,4,1.35,4,2.83a1.06,1.06,0,0,1-1,1c-.48,0-.81-.27-1.16-1.05a6,6,0,0,0-1.78-2.49v6.32c0,.4.11,5.78.11,6,0,.89-.3,1.38-1.38,1.38-.72,0-.72-.4-.72-.78,0-1.65.24-9.8.29-11.66a21.06,21.06,0,0,1-5.26,3.51l-.11-.17c3.1-2.59,7.1-7.5,8.15-9.77H207.9a18.88,18.88,0,0,0-3.16.25l-.54-1.08c1.13.1,2.78.19,4,.19a14.59,14.59,0,0,0-.6-5.24l2.73.75c.13,0,.43.14.43.38s-.24.43-.78.76c0,.46,0,2.67,0,3.35Zm13.52-3.16.9-.87c.1-.08.35-.35.43-.35s.32.16.51.3l1.13.86c.17.14.3.27.3.41s-.24.29-.43.29H217.51a17.65,17.65,0,0,0-3.16.25l-.54-1.08c2,.16,3.67.19,4.16.19Zm0,11.55.75-.84c.11-.13.25-.27.35-.27a.85.85,0,0,1,.38.22l1.24.89a.56.56,0,0,1,.27.4c0,.17-.24.41-.81.84,0,.22,0,.6,0,.78,0,1,.22,6.4.22,7.51,0,.7-.62,1-1.3,1s-.73-.32-.67-1.27h-8.48c.05.95-.3,1.51-1.27,1.51-.67,0-.67-.4-.67-.64,0-1,.1-5.08.1-5.92a36.57,36.57,0,0,0-.29-5.69l2.45,1.43Zm-1.46-8.23.65-.65c.13-.14.27-.3.38-.3s.21.11.32.19l1.11.89a.65.65,0,0,1,.27.43c0,.19-.25.38-.76.65,0,.62.14,3.29.14,3.83a1.16,1.16,0,0,1-1.27,1.17c-.65,0-.65-.38-.65-1h-5.83c0,.43,0,1.24-1.14,1.24-.54,0-.75-.24-.75-.94,0-.35.05-2.81.05-3.35a32,32,0,0,0-.19-3.35l2.22,1.22Zm-6.67,8.88v3.56H220v-3.56Zm0,4.21v3.81H220v-3.81Zm1-12.44V205h5.89V201.1Zm7.51,11.79v-3.56h-3.43v3.56Zm0,4.46v-3.81h-3.43v3.81Z"/><path d="M254.66,198.69c-.06,1,.13,15.55.13,17.52,0,1.73,0,3.21-3,3.78-.38-1.48-1.35-2-2.72-2.73l0-.19c.54.06,2.19.22,2.67.22.68,0,.9-.11,1-.43s.1-8.37.1-9.45c0-.86,0-8.91,0-9.69H236.68c0,1,0,11.5,0,13.39,0,1.16.11,6.29.11,7.31a1.34,1.34,0,0,1-1.46,1.49c-.4,0-.78-.14-.78-1,0-.37.19-2.07.19-2.4.08-1.83.11-11.85.11-13.66a49.1,49.1,0,0,0-.3-7l2.59,1.27H252.5l.7-.78c.11-.13.19-.22.35-.22a.72.72,0,0,1,.32.17l1.46,1c.19.13.33.22.33.43S255.55,198.1,254.66,198.69ZM251.74,205h-6.21v8.53h2.62c0-3.13.06-3.56,0-4.72a4.71,4.71,0,0,0-.4-1.78l2.37.4c.25.06.57.14.57.46s-.11.35-.67.68c0,.43,0,2.48,0,3s.08,2.51.08,3a1.12,1.12,0,0,1-1.24,1.18c-.76,0-.73-.37-.71-1.51h-7c0,.19,0,1.06,0,1.24a1.15,1.15,0,0,1-1.19,1.3.7.7,0,0,1-.76-.76c0-.29.14-1.16.14-3.91,0-3.83-.08-4.1-.35-5.13l2.51.6c.21.05.46.1.46.37s0,.27-.81.76v4.88h2.56V205h-2.7a18.87,18.87,0,0,0-3.16.25l-.54-1.08c2.16.19,3.73.19,4.16.19h3.11a14.77,14.77,0,0,0,1.61-6.1l2.76,1.56a.42.42,0,0,1,.27.35c0,.35-.41.46-1.16.6-.73.81-2,2.37-2.92,3.59h3.59l.92-1.06c.16-.16.3-.32.4-.32a1.09,1.09,0,0,1,.52.27l1.27,1.05a.58.58,0,0,1,.27.41C252.15,204.93,251.88,205,251.74,205Zm-9.31-1.35c-.68,0-.86-.56-1.24-1.7A7.39,7.39,0,0,0,239.7,199l.14-.16c.35.13,3.72,1.54,3.72,3.56A1.16,1.16,0,0,1,242.43,203.6Z"/><path d="M268.11,214.48a16.51,16.51,0,0,1-7.4,4.27l0-.16a27.11,27.11,0,0,0,4.64-4.05c1.27-1.41,1.4-1.84,1.51-2.43l2.13,1.4c.22.14.35.27.35.46S268.75,214.46,268.11,214.48Zm16.79-2.86h-11c0,.52,0,1.76,0,3.38,0,1.08.14,2.78.14,3.86a1.36,1.36,0,0,1-1.49,1.35c-.48,0-.78-.19-.78-.84s.16-3.67.16-4.29c.06-1.92,0-2.94,0-3.46h-7.26c0,1.24-1.38,1.24-1.49,1.24-.59,0-.67-.4-.67-.75s.16-2.51.19-3c.05-2,.08-3.72.08-5.83,0-5.26-.11-5.8-.3-6.69l2.54.78c.27.08.54.16.54.4s-.35.52-.84.84c-.08,1.73-.11,3.51-.11,5.24,0,.78.06,6.15.06,7.12h16.46l1.33-1.43c.16-.19.27-.32.46-.32s.35.19.45.27l1.68,1.43a.61.61,0,0,1,.27.43C285.33,211.6,285.09,211.62,284.9,211.62ZM280,198c0,1.1-.11,3.32.13,9,0,.08,0,.7,0,.75A1.2,1.2,0,0,1,278.8,209c-.79,0-.76-.51-.76-1.24H270c0,.41,0,1.32-1.35,1.32-.7,0-.73-.35-.73-.64,0-.11,0-.46,0-.57,0-.62.19-5.43.19-8.23a18.26,18.26,0,0,0-.41-4.4l2.67,1.27h7.51l.78-.76c.19-.19.27-.3.46-.3s.32.17.4.25l1.11.91a.72.72,0,0,1,.3.49C280.93,197.37,280.31,197.77,280,198Zm-1.89-.87h-8.13V200h8.13Zm0,3.54h-8.13v2.81h8.13Zm0,3.46h-8.13v3h8.13Zm4,14.54c-.7,0-1-.48-1.73-1.64a11.18,11.18,0,0,0-4-3.89l.08-.19c3.75.62,6.77,2.86,6.77,4.59A1.11,1.11,0,0,1,282.06,218.69Z"/><path d="M296.65,200.29l.75-.68c.14-.13.33-.32.43-.32a1.21,1.21,0,0,1,.41.27l1.05.78c.14.11.32.27.32.46s-.29.4-1.18.73a33.93,33.93,0,0,1-3.05,4.1v.19c1.94.35,4,1.35,4,2.83a1.05,1.05,0,0,1-1,1c-.49,0-.81-.27-1.16-1.05a6.08,6.08,0,0,0-1.78-2.49v6.32c0,.4.1,5.78.1,6,0,.89-.29,1.38-1.37,1.38-.73,0-.73-.4-.73-.78,0-1.65.24-9.8.3-11.66a20.88,20.88,0,0,1-5.27,3.51l-.11-.17c3.11-2.59,7.1-7.5,8.16-9.77h-3.19a19,19,0,0,0-3.16.25l-.54-1.08c1.14.1,2.78.19,4,.19a14.67,14.67,0,0,0-.59-5.24l2.72.75c.14,0,.44.14.44.38s-.25.43-.79.76c0,.46,0,2.67,0,3.35Zm13.52-3.16.89-.87c.11-.08.35-.35.43-.35s.33.16.51.3l1.14.86c.16.14.3.27.3.41s-.25.29-.44.29H302.88a17.77,17.77,0,0,0-3.16.25l-.54-1.08c2,.16,3.67.19,4.16.19Zm0,11.55.76-.84c.11-.13.24-.27.35-.27a1,1,0,0,1,.38.22l1.24.89c.13.11.27.24.27.4s-.24.41-.81.84a7.59,7.59,0,0,0-.06.78c0,1,.22,6.4.22,7.51,0,.7-.62,1-1.3,1s-.72-.32-.67-1.27H302c.06.95-.29,1.51-1.26,1.51-.68,0-.68-.4-.68-.64,0-1,.11-5.08.11-5.92a35.37,35.37,0,0,0-.3-5.69l2.46,1.43Zm-1.46-8.23.65-.65c.14-.14.27-.3.38-.3s.22.11.32.19l1.11.89a.62.62,0,0,1,.27.43c0,.19-.24.38-.76.65,0,.62.14,3.29.14,3.83a1.16,1.16,0,0,1-1.27,1.17c-.65,0-.65-.38-.65-1H303c0,.43,0,1.24-1.13,1.24-.54,0-.76-.24-.76-.94,0-.35.06-2.81.06-3.35a32,32,0,0,0-.19-3.35l2.21,1.22ZM302,209.33v3.56h3.32v-3.56Zm0,4.21v3.81h3.32v-3.81Zm1-12.44V205h5.88V201.1Zm7.5,11.79v-3.56h-3.43v3.56Zm0,4.46v-3.81h-3.43v3.81Z"/><path d="M340,198.69c0,1,.14,15.55.14,17.52,0,1.73,0,3.21-3.05,3.78-.38-1.48-1.35-2-2.73-2.73l0-.19c.54.06,2.18.22,2.67.22.67,0,.89-.11,1-.43s.11-8.37.11-9.45c0-.86,0-8.91,0-9.69H322.05c0,1,0,11.5,0,13.39,0,1.16.1,6.29.1,7.31a1.33,1.33,0,0,1-1.45,1.49c-.41,0-.79-.14-.79-1,0-.37.19-2.07.19-2.4.08-1.83.11-11.85.11-13.66a49.1,49.1,0,0,0-.3-7l2.6,1.27h15.38l.7-.78c.11-.13.19-.22.35-.22a.74.74,0,0,1,.33.17l1.46,1c.18.13.32.22.32.43S340.92,198.1,340,198.69ZM337.12,205h-6.21v8.53h2.62c0-3.13.05-3.56,0-4.72a4.94,4.94,0,0,0-.41-1.78l2.38.4c.24.06.57.14.57.46s-.11.35-.68.68c0,.43,0,2.48,0,3s.08,2.51.08,3a1.12,1.12,0,0,1-1.24,1.18c-.76,0-.73-.37-.7-1.51h-7c0,.19,0,1.06,0,1.24a1.15,1.15,0,0,1-1.19,1.3.69.69,0,0,1-.75-.76c0-.29.13-1.16.13-3.91,0-3.83-.08-4.1-.35-5.13l2.51.6c.22.05.46.1.46.37s0,.27-.81.76v4.88h2.57V205h-2.7a18.87,18.87,0,0,0-3.16.25l-.54-1.08c2.16.19,3.72.19,4.16.19H330a14.74,14.74,0,0,0,1.62-6.1l2.75,1.56a.42.42,0,0,1,.27.35c0,.35-.4.46-1.16.6-.73.81-2,2.37-2.91,3.59h3.59l.91-1.06c.17-.16.3-.32.41-.32s.32.14.51.27l1.27,1.05a.55.55,0,0,1,.27.41C337.52,204.93,337.25,205,337.12,205Zm-9.32-1.35c-.67,0-.86-.56-1.24-1.7a7.53,7.53,0,0,0-1.48-2.91l.13-.16c.35.13,3.73,1.54,3.73,3.56A1.16,1.16,0,0,1,327.8,203.6Z"/><path d="M370.16,200.39H357.45l2.24.73c.16.06.35.16.35.35s-.19.41-.73.79c0,.43-.08,1.83-.13,2.75h5.39l.79-.84c.21-.21.29-.29.43-.29a.87.87,0,0,1,.49.27l1.08.86c.21.16.35.32.35.48,0,.36-.52.68-.81.9,0,1.26.13,6.93.13,8.09,0,.79,0,2.65-3,3.22a4.9,4.9,0,0,0-2.27-2.57v-.19a13.5,13.5,0,0,0,1.79.11c.91,0,1.45-.11,1.53-.51s.06-7.34,0-8.88h-5.88c0,3,0,8.36.1,11.17,0,.3.09,1.62.09,1.89,0,1.24-1.44,1.32-1.54,1.32a.7.7,0,0,1-.79-.81c0-2.26.27-5.91.3-8.17s0-3.11,0-5.4h-5.45c0,.86,0,4.61,0,5.4s.08,4.34.08,5.07a1.32,1.32,0,0,1-1.43,1.43c-.62,0-.75-.32-.75-.67,0-.06,0-.25,0-.54.08-1.16.22-6.13.22-8.64a16.61,16.61,0,0,0-.35-4l2.67,1.32h5c0-3.08,0-3.43-.32-4.62h-7.26a18.6,18.6,0,0,0-3.19.25l-.54-1.06c1.81.14,3.64.17,4.16.17h7.21a10.34,10.34,0,0,0-.71-4.7l3,.65c.25.05.52.13.52.4s0,.3-.9.81c0,.46,0,2.43,0,2.84h7.05l1.29-1.52c.19-.24.3-.32.43-.32a.74.74,0,0,1,.49.27l1.73,1.51c.16.14.27.24.27.43S370.35,200.39,370.16,200.39Z"/><path d="M388.31,210a16.85,16.85,0,0,0,11.61,5.66v.22a4.3,4.3,0,0,0-2.89,2.46c-.84-.27-6.86-3.38-9.21-8.21,0,1.22.06,6.53.11,7.61,0,.14,0,.79,0,.92a1.39,1.39,0,0,1-1.51,1.32.66.66,0,0,1-.71-.75,5.86,5.86,0,0,1,0-.6c.14-1.86.3-4.18.3-7.34a24.42,24.42,0,0,1-11.39,7.13l-.08-.22c4.07-1.65,9.69-7.31,10.23-8.2h-3.62c0,.91-.19,1.59-1.4,1.59-.57,0-.68-.27-.68-.6s.14-1.62.14-1.89c.05-.89.08-2.34.08-3.8a16.32,16.32,0,0,0-.35-4.4l2.51,1.11h4.59c0-.63,0-2.11-.06-2.78H378.7a18.42,18.42,0,0,0-3.19.24l-.54-1.08c2,.16,3.76.19,4.16.19H386a10.06,10.06,0,0,0-.54-3.51l2.81.73c.25.05.46.16.46.38s-.65.72-.89.89v1.51h7.34l1.16-1.35c.19-.22.3-.35.43-.35s.3.13.49.29l1.65,1.35c.19.17.27.27.27.41s-.25.3-.41.3h-11V202h4.62l.89-.79a.69.69,0,0,1,.32-.19.63.63,0,0,1,.38.19l1.22,1a.61.61,0,0,1,.27.44c0,.24-.17.35-.87.78,0,.59,0,1.38.06,3.37,0,.38.16,3.27.16,3.51,0,.87-.78,1.14-1.38,1.14s-.7-.57-.65-1.43Zm-7.13-7.35v2.92h4.89l0-2.92Zm4.89,6.7V206.2h-4.89v3.13Zm6.77,0V206.2h-5c0,.43,0,2.64,0,3.13Zm0-3.78v-2.92h-5v2.92Z"/><path d="M426.89,218H407.67a1.4,1.4,0,0,1-1.56,1.62c-.68,0-.73-.35-.73-.65,0-.1.1-2.26.13-2.69.16-3.49.24-14.88.24-15.12a23.82,23.82,0,0,0-.35-5.43l2.76,1.38h14.49l1.14-1.3c.16-.16.27-.32.4-.32s.3.14.51.3l1.57,1.27a.58.58,0,0,1,.27.4c0,.27-.24.3-.43.3H407.75c0,1.51-.11,8.15-.11,9.5,0,3.1,0,8.69,0,10.1h15.52l1.24-1.41c.19-.21.3-.32.43-.32a1.06,1.06,0,0,1,.49.27l1.7,1.4c.11.11.27.24.27.41S427.08,218,426.89,218Zm-4.35-16.44a46.8,46.8,0,0,1-3.88,5.73c1.83,1.59,4.32,4.05,4.32,5.85a1,1,0,0,1-1.06,1.11c-.73,0-1-.51-1.51-1.46a24.13,24.13,0,0,0-2.86-4.15c-4.26,4.88-7.26,6.1-8.72,6.66l-.08-.21c3.32-2.24,6.69-6.51,7.64-7.72a42.83,42.83,0,0,0-6.18-5.27l.11-.19a27,27,0,0,1,7,4.22c1.64-2.24,3.34-4.89,3.53-7.16l2.41,1.65c.1.08.27.21.27.4C423.52,201.45,423.06,201.5,422.54,201.55Z"/><path d="M454.54,210c-5.48-2.41-8.61-6.24-9.48-8H445c0,.87.08,4.73.08,5.51,0,.35,0,.59-.19.75a1.83,1.83,0,0,1-1.13.44.72.72,0,0,1-.79-.79c0-.19.09-1,.09-1.21,0-.89,0-2.13.05-3.51a29.24,29.24,0,0,1-12,7.37l-.08-.22A39.62,39.62,0,0,0,441.37,202h-5.54a18.66,18.66,0,0,0-3.18.25l-.54-1.08c1.72.13,3.4.18,4.15.18h6.86l0-2.75a53.3,53.3,0,0,1-6.29.38c-1.14,0-1.95,0-2.73-.08v-.27a63.66,63.66,0,0,0,12.71-2.43c1.79-.59,2-1,2.33-1.4l2.16,1.86a.6.6,0,0,1,.24.43c0,.35-.41.38-.54.38a6.11,6.11,0,0,1-.81-.14,52.93,52.93,0,0,1-5.24,1l0,3h7.64l.83-1.18c.14-.22.28-.35.41-.35a1.11,1.11,0,0,1,.54.27l1.51,1.21c.16.14.3.24.3.41s-.24.29-.41.29H445.55a19.4,19.4,0,0,0,11.39,5.62v.19A4.16,4.16,0,0,0,454.54,210Zm-3.81.83c0,.95,0,2.05.08,4.08,0,.57.16,3.45.16,3.62a1.17,1.17,0,0,1-1.32,1.24c-.89,0-.86-.44-.78-1.6h-9.45c0,.65.08,1.84-1.29,1.84a.75.75,0,0,1-.84-.84c0-.32.13-1.62.13-1.89.09-2.07.11-4.45.11-6.53a22.48,22.48,0,0,0-.13-2.51l2.37,1.24h8.78l.81-.86a.69.69,0,0,1,.45-.22.88.88,0,0,1,.49.25l1,.81a.63.63,0,0,1,.27.48C451.57,210.16,451.49,210.25,450.73,210.81Zm-1.86-.7h-9.45v3.32h9.45Zm0,4h-9.45v3.43h9.45Z"/><path d="M484.51,217.72h-12c0,1,0,2.16-1.29,2.16-.7,0-.7-.57-.7-.81s.16-2.54.16-3c.08-3.51.1-9.15.16-12.66a23.82,23.82,0,0,1-2.84,3.37,2.22,2.22,0,0,1,1.54,1.89,1,1,0,0,1-1,1.11c-.65,0-.78-.41-1.13-1.46a3.64,3.64,0,0,0-1.22-1.89c0,1.92.06,10.37.06,12.1,0,.67,0,1.61-1.35,1.61-.38,0-.73-.1-.73-.83,0-.38.13-1.92.16-2.24.08-2,.08-2.59.19-9.48a23.54,23.54,0,0,1-4.67,6.43l-.22-.14a37.94,37.94,0,0,0,4.84-12,18.8,18.8,0,0,0-3.59.25l-.54-1.08c1.75.16,3.59.19,4.23.19,0-4.19-.35-5.19-.64-6l2.78.92c.43.13.51.24.51.43,0,.35-.41.54-1,.78,0,1.3,0,2.65,0,3.89h.95l.38-.7c.13-.25.27-.41.43-.41a1,1,0,0,1,.51.3l.84.75a.57.57,0,0,1,.24.44c0,.24-.22.26-.4.26h-2.95c0,1.41,0,3.7,0,4.24a11.11,11.11,0,0,1,1.6.52c1.72-2.6,4.15-9,4-11.4l2.51,1.19c.22.11.41.22.41.43s-.27.41-1,.63c-.62,1.45-1.26,2.94-1.83,4l.7.41H476a27.63,27.63,0,0,0,1.16-3.83,6.76,6.76,0,0,0,.22-2.54l2.48,1.13c.19.08.43.22.43.43,0,.41-.73.62-1,.68a44.22,44.22,0,0,1-2.83,4.13h4.64l.92-1.16c.1-.16.27-.33.43-.33a.82.82,0,0,1,.48.27l1.22,1.16c.16.17.27.25.27.44s-.24.27-.43.27h-5.7V207h2.4l.65-1c.08-.13.27-.35.43-.35a.9.9,0,0,1,.49.27l1.27,1.06a.58.58,0,0,1,.27.4c0,.24-.24.3-.41.3h-5.1v4.07h2.32l1-1.16c.22-.24.3-.32.43-.32s.3.13.49.3l1.32,1.13c.14.13.27.21.27.4s-.24.3-.43.3h-5.4v4.72h3l1.05-1.24c.21-.27.27-.35.43-.35s.32.16.49.3l1.37,1.24c.16.14.27.24.27.43S484.7,217.72,484.51,217.72Zm-8-15.11h-4V207h4Zm0,5h-4v4.07h4Zm0,4.72h-4v4.72h4Z"/><path d="M490.26,217.64a.88.88,0,0,1-.89-1,29.63,29.63,0,0,1,1-3.1,3.35,3.35,0,0,0,.05-1.16l.25,0a6,6,0,0,1,1,3.21C491.69,216.29,491.48,217.64,490.26,217.64Zm10-7.85a23.39,23.39,0,0,1-1.64,7.45,3.91,3.91,0,0,1-2.92,2.24,3.79,3.79,0,0,0-2.21-2.67l.05-.19a14.78,14.78,0,0,0,2.62.29c.54,0,.76,0,1.05-.7a21.82,21.82,0,0,0,1.19-7h-6a1.08,1.08,0,0,1-1.16,1.32c-.54,0-.67-.27-.67-.73,0-.16.05-.81.05-.95.11-1.7.14-6.39.14-8.25a28.94,28.94,0,0,0-.27-4.49l2,1h5l.65-.78c.19-.22.32-.35.46-.35s.3.13.54.3l1.05.78a.64.64,0,0,1,.3.43c0,.19-.25.27-.43.27h-3.73v3.13h1.16l.51-.65c.22-.27.3-.37.44-.37s.29.13.54.29l.86.65c.13.11.3.24.3.43s-.25.3-.44.3h-3.37v3.1h1.19l.65-.75c.19-.22.29-.33.43-.33s.27.08.48.27l.81.76a.63.63,0,0,1,.25.43c0,.16-.17.27-.41.27h-3.4v3.27h1.81l.7-.79c.16-.18.3-.32.43-.32s.3.11.54.35l1.06,1a.54.54,0,0,1,.18.35C501,209.41,500.41,209.71,500.22,209.79Zm-6.82,6.69c-.9,0-.9-1.13-.9-1.7a7.48,7.48,0,0,0-.29-3l.16-.08c.19.22,1.16,1.19,1.3,1.43a3.94,3.94,0,0,1,.75,2.08A1.18,1.18,0,0,1,493.4,216.48Zm1.29-18.76h-2.37v3.13h2.37Zm0,3.78h-2.37v3.1h2.37Zm0,3.75h-2.37v3.27h2.37Zm.95,9.48c-.71,0-.79-.46-1-2a7.21,7.21,0,0,0-.52-2l.11-.08c1.43,1.24,2.24,2,2.24,3C496.47,214.16,496.2,214.73,495.64,214.73Zm1.51-2c-.54,0-.65-.43-.95-1.51a3.27,3.27,0,0,0-.62-1.24l.16-.17c1.27.6,2.08,1.16,2.08,2.05C497.82,212.3,497.58,212.73,497.15,212.73Zm17.87,5a4,4,0,0,0-2.57,1.59c-3-2.46-5.26-7.1-5.26-13.47H504.3c-.27,6.64-1.59,10.71-5.53,13.55l-.14-.11c3.78-4.1,3.92-11.63,3.92-17.25a24.83,24.83,0,0,0-.46-5.72l2.56,1.13h5.56l.78-.75a.67.67,0,0,1,.44-.24c.13,0,.24,0,.46.24l1.08.92a.55.55,0,0,1,.24.43c0,.19-.51.56-.84.78,0,.46,0,1,0,1.7s.16,4.64.16,5.48-.84,1.08-1.27,1.08c-.86,0-.81-.59-.78-1.24h-2.76c.63,5.88,4.51,10.55,7.37,11.71Zm-4.57-19.63h-6c0,1-.13,6-.13,7.1h6.12Z"/><path d="M541.64,200.88H521.5a19.78,19.78,0,0,0-3.18.24l-.54-1.08c1.86.16,3.78.19,4.15.19h9.7c1.7-3.37,1.78-4.7,1.86-5.5l2.54,1.48a.53.53,0,0,1,.29.43c0,.19-.16.38-1,.43-1.68,1.78-1.84,2-3.11,3.16h5.72l1.16-1.35c.17-.19.3-.32.44-.32s.21.05.51.27l1.75,1.35a.63.63,0,0,1,.27.4C542,200.82,541.8,200.88,541.64,200.88Zm-12.17,4.29c0,1.57,0,7.32,0,10,0,.33,0,1.68,0,2,0,.87,0,2-2.83,2.51a3.11,3.11,0,0,0-1.92-2.48V217c.4.05,1.62.19,2.16.19.7,0,.7,0,.7-1.79,0-.43,0-2.4,0-2.78h-5.08c0,.92.06,5,.06,5.86a1.18,1.18,0,0,1-.25.84,1.6,1.6,0,0,1-1.18.51c-.54,0-.73-.27-.73-.75,0-.06,0-.28,0-.57.27-3.54.3-8.23.3-12.36a36.9,36.9,0,0,0-.13-3.73l2.34,1.24h4.49l.64-.65c.22-.21.35-.32.46-.32a1.19,1.19,0,0,1,.49.24l1,.81c.08.06.3.22.3.41S529.84,204.87,529.47,205.17Zm-1.81-.89h-5.08v3.45h5.08Zm0,4.1h-5.08V212h5.08Zm-.49-8.63c-.51,0-.89-.25-1.4-1.41-.81-1.83-.92-2.1-1.84-2.86l.06-.16c1.64.4,4.31,1.4,4.31,3.18A1.15,1.15,0,0,1,527.17,199.75Zm7.21,5.91a19.93,19.93,0,0,0-.06,2.26c0,1,.09,5.59.09,6.54a1.22,1.22,0,0,1-1.3,1.29c-.7,0-.7-.48-.7-.67,0-1.08.16-5.73.16-6.7,0-4-.08-4.23-.32-4.86l2.53.84c.25.08.38.24.38.41S534.89,205.25,534.38,205.66Zm4.64-1.51c-.11,2.59,0,7.61.05,10.41,0,.38.09,2,.09,2.35,0,.73,0,2.19-3,2.81a4.11,4.11,0,0,0-2.38-2.62l0-.16a15,15,0,0,0,2.1.19c.95,0,1.19-.11,1.27-.38s.11-9,.11-9.61c0-3.59,0-3.8-.38-5l2.48.76c.17.05.44.16.44.4S539.34,203.9,539,204.15Z"/><path d="M559.14,217.78H547v-.68c1-2.51,2.05-3.53,7-8.58,1.62-1.62,3.64-3.73,3.64-6.35,0-2-1.48-3.69-4-3.69-2.16,0-3.42,1.13-3.42,2.1a1.43,1.43,0,0,0,.29.84,2.09,2.09,0,0,1,.65,1.35,1.59,1.59,0,0,1-1.62,1.51,1.76,1.76,0,0,1-1.73-1.89c0-1.94,2.14-4.8,6.54-4.8,3.72,0,6.07,2.07,6.07,5s-1.81,4.24-4.51,6.32c-1.08.84-4.89,3.72-6.67,6.77h4.67c4.4,0,5.27-1.64,6.1-3.59l.6.19Z"/><path d="M566.54,208.63v-1.38h14.74v1.38Z"/><path d="M592.19,218.29c-2.05,0-3.48-1.08-3.48-2.35a1.44,1.44,0,0,1,1.56-1.4c.57,0,1.59.29,1.67,1.86,0,.62.09,1,.9,1a3.33,3.33,0,0,0,2.21-.94c2.67-2.65,2.86-6.64,3-9.05-.54.79-2.22,3.27-5.29,3.27a5.75,5.75,0,0,1-5.46-6c0-3.7,3-7.1,6.48-7.1s7,3.48,7,9.31C600.77,213.08,596.83,218.29,592.19,218.29Zm4.18-18.36a3.08,3.08,0,0,0-2.45-1.45c-1.52,0-3.92,1.37-3.92,5.94,0,1.4.41,5,3.48,5,1.11,0,3-.71,4.51-3.67C597.86,204.23,597.64,201.69,596.37,199.93Z"/><path d="M606.77,208.63v-1.38h14.74v1.38Z"/><path d="M629.21,217.78v-.87h1.67c1.51,0,2.13-.48,2.13-1.64V200.58c0-.89-1-1-1.46-1h-2.32v-.73h.54a13,13,0,0,0,5-1.13,1,1,0,0,1,.43-.16c.24,0,.32.16.32.38v17.33c0,1.21.71,1.64,2.14,1.64h1.67v.87Z"/><path d="M253.28,244c-5.48-2.41-8.61-6.24-9.47-8h-.06c0,.87.08,4.73.08,5.51,0,.35,0,.59-.19.75a1.83,1.83,0,0,1-1.13.44.71.71,0,0,1-.78-.79c0-.19.08-1,.08-1.21,0-.89,0-2.13.05-3.51a29.24,29.24,0,0,1-12,7.37l-.08-.22A39.62,39.62,0,0,0,240.11,236h-5.54a18.66,18.66,0,0,0-3.18.25l-.54-1.08c1.73.13,3.4.18,4.16.18h6.85l0-2.75a53.3,53.3,0,0,1-6.29.38c-1.13,0-1.94,0-2.73-.08v-.27a63.77,63.77,0,0,0,12.72-2.43c1.78-.59,2-1,2.32-1.4l2.16,1.86a.6.6,0,0,1,.24.43c0,.35-.4.38-.54.38a6.11,6.11,0,0,1-.81-.14,52.93,52.93,0,0,1-5.24,1l0,3h7.64l.84-1.18c.13-.22.27-.35.4-.35a1.11,1.11,0,0,1,.54.27l1.51,1.21c.17.14.3.24.3.41s-.24.29-.4.29H244.29a19.43,19.43,0,0,0,11.39,5.62v.19A4.16,4.16,0,0,0,253.28,244Zm-3.81.83c0,.95,0,2.05.08,4.08,0,.57.17,3.45.17,3.62a1.18,1.18,0,0,1-1.33,1.24c-.89,0-.86-.44-.78-1.6h-9.45c0,.65.09,1.84-1.29,1.84a.75.75,0,0,1-.84-.84c0-.32.14-1.62.14-1.89.08-2.07.1-4.45.1-6.53a22.48,22.48,0,0,0-.13-2.51l2.37,1.24h8.78l.81-.86a.72.72,0,0,1,.46-.22.89.89,0,0,1,.48.25l1,.81a.61.61,0,0,1,.27.48C250.31,244.16,250.23,244.25,249.47,244.81Zm-1.86-.7h-9.45v3.32h9.45Zm0,4h-9.45v3.43h9.45Z"/><path d="M283.25,251.72h-12c0,1,0,2.16-1.29,2.16-.7,0-.7-.57-.7-.81s.16-2.54.16-3c.08-3.51.11-9.15.16-12.66a24.5,24.5,0,0,1-2.83,3.37,2.22,2.22,0,0,1,1.54,1.89,1,1,0,0,1-1,1.11c-.64,0-.78-.41-1.13-1.46a3.64,3.64,0,0,0-1.21-1.89c0,1.92,0,10.37,0,12.1,0,.67,0,1.61-1.35,1.61-.38,0-.73-.1-.73-.83,0-.38.14-1.92.16-2.24.08-2,.08-2.59.19-9.48a23.54,23.54,0,0,1-4.67,6.43l-.21-.14a38.14,38.14,0,0,0,4.83-12,18.8,18.8,0,0,0-3.59.25l-.54-1.08c1.75.16,3.59.19,4.24.19,0-4.19-.35-5.19-.65-6l2.78.92c.43.13.51.24.51.43,0,.35-.4.54-1,.78,0,1.3,0,2.65,0,3.89h.94l.38-.7c.13-.25.27-.41.43-.41a.92.92,0,0,1,.51.3l.84.75a.54.54,0,0,1,.24.44c0,.24-.21.26-.4.26H265c0,1.41,0,3.7,0,4.24a11.27,11.27,0,0,1,1.59.52c1.73-2.6,4.16-9,4-11.4l2.51,1.19c.22.11.41.22.41.43s-.27.41-1,.63c-.62,1.45-1.27,2.94-1.84,4l.7.41h3.32a27.63,27.63,0,0,0,1.16-3.83,6.76,6.76,0,0,0,.22-2.54l2.48,1.13c.19.08.43.22.43.43,0,.41-.72.62-1,.68a44.22,44.22,0,0,1-2.83,4.13h4.64l.92-1.16c.11-.16.27-.33.43-.33a.81.81,0,0,1,.49.27l1.21,1.16c.16.17.27.25.27.44s-.24.27-.43.27H277V241h2.41l.64-1c.09-.13.27-.35.44-.35a.91.91,0,0,1,.48.27l1.27,1.06a.55.55,0,0,1,.27.4c0,.24-.24.3-.4.3H277v4.07h2.33l1-1.16c.22-.24.3-.32.44-.32s.29.13.48.3l1.32,1.13c.14.13.27.21.27.4s-.24.3-.43.3H277v4.72h3l1-1.24c.22-.27.27-.35.43-.35s.33.16.49.3l1.37,1.24c.17.14.27.24.27.43S283.44,251.72,283.25,251.72Zm-8-15.11h-4V241h4Zm0,5h-4v4.07h4Zm0,4.72h-4v4.72h4Z"/><path d="M304.39,232.07l1.89,5.13-.78.35c-1-1.7-2.62-4.59-5.48-4.59a1.7,1.7,0,0,0-1.92,1.86v14.23a1.75,1.75,0,0,0,1.95,1.86h1.35v.87h-8.72v-.87h1.37a1.73,1.73,0,0,0,1.92-1.86V234.82a1.67,1.67,0,0,0-1.89-1.86c-2.89,0-4.53,2.92-5.5,4.59l-.79-.35,1.89-5.13Z"/><path d="M315.55,244.84l-1.33,4.1a2.44,2.44,0,0,0-.16.89,1,1,0,0,0,1.14,1.08H316v.87h-5.86v-.87H311c1.14,0,2.11-1.16,2.54-2.48l5.32-16.36,2.37-.51,5.92,17.52c.54,1.56,1.24,1.83,2,1.83h.6v.87h-6.64v-.87h.81a1.18,1.18,0,0,0,1.1-1.18,3.23,3.23,0,0,0-.24-1l-1.29-3.89ZM319.43,233l-3.59,11h7.32Z"/><path d="M341.11,232.07c3.32,0,7.45,1,7.45,4.7a4.54,4.54,0,0,1-1.78,3.62,7.63,7.63,0,0,1-3.21,1.51l3.08,6.75a3.51,3.51,0,0,0,3.24,2.26h.46v.87h-4.62l-4.37-9.64h-3.13v6.91a1.74,1.74,0,0,0,1.91,1.86H341v.87h-7.7v-.87h.84a1.75,1.75,0,0,0,1.94-1.86V234.82a1.74,1.74,0,0,0-1.94-1.86h-.84v-.89Zm-2.88,9.21h2.88c2.52,0,4.89-1.35,4.89-4.27,0-1.86-1-4-4.53-4h-1.33a1.73,1.73,0,0,0-1.91,1.86Z"/><path d="M361.93,233h-1.29a1.73,1.73,0,0,0-1.92,1.86v14.23a1.73,1.73,0,0,0,1.92,1.86h1.29v.87h-8.56v-.87h1.27a1.75,1.75,0,0,0,1.95-1.86V234.82a1.74,1.74,0,0,0-1.95-1.86h-1.27v-.89h8.56Z"/><path d="M369,250.32a1.57,1.57,0,1,1-1.56-1.57A1.56,1.56,0,0,1,369,250.32Z"/><path d="M372.71,232.07h9c4.13,0,6.86,1.62,6.86,4.37a4.64,4.64,0,0,1-1.86,3.57A6.41,6.41,0,0,1,384,241.2a7.3,7.3,0,0,1,3.61,1.35,4.92,4.92,0,0,1,2.05,3.8c0,2.4-2.1,5.43-7.34,5.43h-9.63v-.87h1.08a1.73,1.73,0,0,0,1.91-1.86V234.82a1.73,1.73,0,0,0-1.91-1.86h-1.08Zm5.15,8.86h3.59c2.35,0,4.59-1.22,4.59-4.16,0-2.43-1.65-3.81-4.35-3.81h-1.91a1.73,1.73,0,0,0-1.92,1.86Zm0,.86v7.26a1.72,1.72,0,0,0,1.92,1.86h2.35c2.88,0,5-1.62,5-4.48a4.53,4.53,0,0,0-4.91-4.64Z"/><path d="M394.25,234.82l-.43-.43a2.74,2.74,0,0,0,1.27-1.78.52.52,0,0,0-.24-.46,1.58,1.58,0,0,1,.4-3.1,1.59,1.59,0,0,1,1.57,1.56C396.82,232.61,394.93,234.23,394.25,234.82Z"/><path d="M402.16,232.07h7.75c6.32,0,10.23,3.24,10.23,9.72,0,4.61-2.43,10-10,10h-8v-.87h.92a1.74,1.74,0,0,0,1.94-1.86V234.82a1.74,1.74,0,0,0-1.94-1.86h-.92Zm5,17a1.73,1.73,0,0,0,1.91,1.86h1.3c4.89,0,7.34-4.37,7.34-9.34,0-3.42-1.4-8.61-7.23-8.61h-1.41a1.73,1.73,0,0,0-1.91,1.86Z"/><path d="M431.18,252.29c-3.26,0-6-1.65-6-3.81a1.63,1.63,0,0,1,1.73-1.72,1.38,1.38,0,0,1,1.48,1.35c0,.21-.27,1.26-.27,1.51,0,1,1.32,1.75,2.73,1.75a4.87,4.87,0,0,0,4.72-4.78,4.92,4.92,0,0,0-4.75-4.94c-.16,0-1,.11-1.21.11-.46,0-.68-.27-.68-.56a.65.65,0,0,1,.7-.63c.19,0,1.11.17,1.32.17a4.1,4.1,0,0,0,4.14-4.21,3.83,3.83,0,0,0-3.81-4.05c-1.59,0-2.46,1-2.46,1.83,0,.14.19.87.19,1a1.51,1.51,0,0,1-1.56,1.48,1.47,1.47,0,0,1-1.52-1.48c0-1.49,1.95-3.78,5.83-3.78,3.68,0,6.08,2.13,6.08,4.53a4.14,4.14,0,0,1-1.11,2.76,7.42,7.42,0,0,1-3.86,2.29c1.35.35,5.43,1.43,5.43,5.45C438.26,249.91,435.18,252.29,431.18,252.29Z"/><path d="M451.62,232.5l-3.26,5.38c1.7,1.48,3.53,3.23,3.53,6.23,0,2.75-2.07,3.29-3.23,3.54a3.84,3.84,0,0,0-1.44-2.46V245a10.38,10.38,0,0,0,1.76.14c.4,0,1,0,1-1.86a7.61,7.61,0,0,0-2.19-5.24,35.53,35.53,0,0,0,1.86-6.56h-3.23c-.06,2,0,11,0,12.85,0,1.08.19,6.59.19,7.83a1.17,1.17,0,0,1-1.29,1.37.67.67,0,0,1-.73-.73c0-.26.1-1.45.1-1.7q.09-3.84.09-7.69c0-7,0-11-.41-13.76l2.35,1.18h3l.55-.56a.7.7,0,0,1,.45-.3c.14,0,.27.08.49.3l1.19,1.08a.61.61,0,0,1,.21.43C452.62,232.07,452.35,232.23,451.62,232.5Zm7.29,2.22h-3.43c0,1.16,0,1.94,0,3.53a35.94,35.94,0,0,0,3.62-.86l.05.21a28.87,28.87,0,0,1-3.16,1.65c-2.21,1-2.45,1.11-2.83,1.3-.16.43-.32.67-.57.67s-.35-.16-.46-.38L451,238.6a3.37,3.37,0,0,0,1.05.14,11.36,11.36,0,0,0,1.92-.19c-.06-5.7-.08-7.26-.43-8.66l2.4.78c.3.11.46.16.46.35s-.41.57-.84.81c0,.65,0,.81,0,2.24h1.06l.62-.86c.13-.19.3-.36.43-.36a.74.74,0,0,1,.49.27l1,.9a.64.64,0,0,1,.25.4C459.32,234.64,459.16,234.72,458.91,234.72Zm5.4,9.77c-.05.57-.05,1-.05,1.27,0,1,.19,5.26.19,6.15,0,.41,0,1.24-1.35,1.24-.68,0-.68-.27-.62-1.24H455.7c0,.49,0,1.24-1.16,1.24-.73,0-.73-.35-.73-.64,0-.06.14-4.73.14-4.89,0-1.35-.11-4.18-.25-5.4l2.14,1.13h.81a14.54,14.54,0,0,0,.45-2.88,3.21,3.21,0,0,0-.05-.68l2.46,1c.24.11.35.22.35.38s-.3.3-.81.41c-.25.21-1.22,1.18-1.81,1.8h5l.65-.83c.14-.19.27-.3.43-.3s.3.11.57.3l.94.73a.55.55,0,0,1,.27.43C465.09,243.9,465,244,464.31,244.49Zm-1.83-.49H455.7v3.27h6.78Zm0,3.92H455.7v3.34h6.78Zm.18-6.89c-2.72,0-2.86-.48-2.86-3.21,0-.78.06-4.13.06-4.83a10.55,10.55,0,0,0-.33-3.29l2.51.78c.17.05.41.19.41.4s-.14.38-.89.84c-.11.95-.11,2.78-.11,3.4a16.33,16.33,0,0,0,3-2.7,4.28,4.28,0,0,0,.59-1l1.81,1.62a.57.57,0,0,1,.24.46c0,.33-.38.43-1,.3-.73.27-4,1.48-4.64,1.7,0,1.08,0,3,0,3.27.08.64.51.64,2.35.64s1.88-.16,2.64-2.7h.16a7.2,7.2,0,0,0,.54,2.24c.38.36.52.49.52.73C467.69,241,465.71,241,462.66,241Z"/><path class="cls-1" d="M192.55,148.69c0,16.23-6.79,26.56-16.91,26.56-9.65,0-14.58-10.61-14.58-24.06,0-18.94,9.06-26.08,17.51-26.08C188.16,125.11,192.55,134.68,192.55,148.69Zm-16-20.11c-7.59,0-9.79,8-9.79,19.49,0,10.33,2.26,23.64,10.65,23.64s9.45-10.81,9.45-21.56C186.89,140.85,184.7,128.58,176.58,128.58Z"/><path class="cls-1" d="M223.91,171.65c2.6.27,2.6,2.56-.13,2.56s-5.06-.14-8.65-.14-6.46.14-8.93.14c-2.72,0-2.79-2.29-.06-2.56,4.86-.63,5.32-1.32,5.52-3.54.14-1.74.34-4.58.34-9.16V135.79c0-2.36-.14-2.84-.74-2.7-1.13.27-3.32.83-5,1-1.93.2-3,.27-3-.63s.93-1.32,1.86-1.66a42.72,42.72,0,0,0,8.19-4.09c2.66-1.81,3.53-2.64,4.13-2.71a.82.82,0,0,1,.93,1.11c-.34,1.39-.87,3.95-.87,12.41V159c0,3.61,0,7.49.14,8.88C217.86,170.6,218.32,171,223.91,171.65Z"/><path class="cls-1" d="M263,138.43c0,9.7-10.18,19.14-20.17,29.61-.33.28-.33.62,0,.69.67.14,9.85.56,16.11.56,2.33,0,3.53-.63,5.6-5.9.79-2.22,2.39-1.94,2.39.07a34.06,34.06,0,0,1-1.8,8.67c-.66,1.94-1.33,2.15-4.46,2.15s-20.37-.21-21.1-.21-3.2.07-3.6.07a1.32,1.32,0,0,1-.73-2.29c.87-.9,2.07-2.08,2.47-2.49,11-11.45,19-20.12,19-29.55,0-6.24-2.86-9.64-8.32-9.64-3.93,0-6.46,1.67-9.59,5.62-1.86,2.36-3.53.9-2.13-1.46,3.06-5.13,7.66-9.36,14.31-9.36C256.14,125,263,128.58,263,138.43Z"/><path class="cls-1" d="M308.53,148.69c0,16.23-6.79,26.56-16.91,26.56-9.65,0-14.58-10.61-14.58-24.06,0-18.94,9.06-26.08,17.51-26.08C304.14,125.11,308.53,134.68,308.53,148.69Zm-16-20.11c-7.59,0-9.79,8-9.79,19.49,0,10.33,2.26,23.64,10.65,23.64s9.45-10.81,9.45-21.56C302.87,140.85,300.68,128.58,292.56,128.58Z"/><path class="cls-1" d="M321.52,154.45c1.4-.14,14.31-.42,16.31-.35,1.4.07,1.6.35,1.6,1a3.94,3.94,0,0,1-1.67,3.05c-1.53.69-14,.83-16.31.76-.46,0-1.13-.13-1.2-.9A5.24,5.24,0,0,1,321.52,154.45Z"/><path class="cls-1" d="M372.05,149.73c3.79,2.15,7.86,5.13,7.86,11.23,0,7.56-6.93,14.36-15.58,14.36-9.59,0-13.58-7.35-13.58-12.55a9,9,0,0,1,3.06-7.28,49.25,49.25,0,0,1,7.65-5.62c-6.45-3.4-8.85-7-8.85-12.21,0-6.59,6-12.69,13.65-12.69,8.65,0,11.78,6.94,11.78,11,0,4.44-1.73,7.28-9,12.14Zm2.53,13.45c0-4-1.87-6.65-5.19-8.8-1.8-1.11-3.86-2.36-5.86-3.47-4.8,3.81-7.52,6.52-7.52,11a10.44,10.44,0,0,0,10.45,10.4C371.72,172.27,374.58,168.52,374.58,163.18ZM367.06,147c4.32-3.61,6.05-6.18,6.05-10a8.77,8.77,0,0,0-8.72-9.09c-4.86,0-6.92,3.75-6.92,7.84,0,4.65,2.6,7.42,5.79,9.22Z"/><path class="cls-1" d="M419.32,156.39a18.37,18.37,0,0,0,5.39-.49c.6-.14,1,.14,1,.63a8.1,8.1,0,0,1-.93,3.12c-.33.55-.93.69-2.4.69h-5.32v9.22c0,2.36.06,3.54-.14,3.82-.6.9-3.13,1.52-4.66,1.52-.73,0-.93-.55-.73-1.31a18.81,18.81,0,0,0,.33-3.4c0-1.11.14-3.68.14-9.85h-5.06c-12.52,0-14.18,0-15.05-.28a1.08,1.08,0,0,1-.73-1,6.34,6.34,0,0,1,1.33-3.05c4.2-5.82,15.45-22.61,19.77-27.95a10.93,10.93,0,0,1,2.07-1.8c.53-.35,2-1.46,2.79-1.46.4,0,.8.49.6,1.25a18.73,18.73,0,0,0-.66,4.72v25.59ZM412,132.88c-5.33,7.07-14.12,20.66-15.25,22.47-.13.34,0,.69.4.69,1,.07,3.06.28,14.85.35Z"/><path class="cls-1" d="M458.67,135.24c0,5.47-4,8.94-8.32,11.3,5.26.83,11.91,3.68,12,11.1.07,8.87-9.52,17.61-19.84,17.61-3.79,0-6.46-1.39-7.52-2.7a4.33,4.33,0,0,1-1.2-2.92,7.16,7.16,0,0,1,.87-3.26.94.94,0,0,1,1.79.07c.34,1.25,2.53,5.07,9.39,5.07s10.32-4.72,10.32-10.82-3-10.68-10.25-10.68a23,23,0,0,0-3.07.34c-1.39.14-1.66-1.73.14-2.42,5.39-2,10.25-5.2,10.25-10.61,0-3.47-1.86-7.49-7.79-7.49-4.06,0-6.86,2.91-8.39,4.5-1.86,2.08-3.39.63-1.86-1.59,1.2-1.6,6-7.77,13.18-7.77A10.27,10.27,0,0,1,458.67,135.24Z"/><path class="cls-1" d="M475.38,154.45c1.4-.14,14.31-.42,16.31-.35,1.4.07,1.6.35,1.6,1a4,4,0,0,1-1.66,3.05c-1.54.69-14,.83-16.31.76-.47,0-1.14-.13-1.2-.9A5.23,5.23,0,0,1,475.38,154.45Z"/><path class="cls-1" d="M525.91,149.73c3.8,2.15,7.86,5.13,7.86,11.23,0,7.56-6.92,14.36-15.58,14.36-9.59,0-13.58-7.35-13.58-12.55a9,9,0,0,1,3.06-7.28,49,49,0,0,1,7.66-5.62c-6.46-3.4-8.86-7-8.86-12.21,0-6.59,6-12.69,13.65-12.69,8.66,0,11.78,6.94,11.78,11,0,4.44-1.73,7.28-9,12.14Zm2.53,13.45c0-4-1.86-6.65-5.19-8.8-1.8-1.11-3.86-2.36-5.86-3.47-4.79,3.81-7.52,6.52-7.52,11a10.44,10.44,0,0,0,10.45,10.4C525.58,172.27,528.44,168.52,528.44,163.18ZM520.92,147c4.33-3.61,6.06-6.18,6.06-10a8.78,8.78,0,0,0-8.72-9.09c-4.86,0-6.93,3.75-6.93,7.84,0,4.65,2.6,7.42,5.8,9.22Z"/><path class="cls-1" d="M567.19,149.73c3.8,2.15,7.86,5.13,7.86,11.23,0,7.56-6.93,14.36-15.58,14.36-9.59,0-13.58-7.35-13.58-12.55a9,9,0,0,1,3.06-7.28,49,49,0,0,1,7.66-5.62c-6.46-3.4-8.86-7-8.86-12.21,0-6.59,6-12.69,13.65-12.69,8.65,0,11.78,6.94,11.78,11,0,4.44-1.73,7.28-9,12.14Zm2.53,13.45c0-4-1.86-6.65-5.19-8.8-1.8-1.11-3.86-2.36-5.86-3.47-4.79,3.81-7.52,6.52-7.52,11a10.44,10.44,0,0,0,10.45,10.4C566.86,172.27,569.72,168.52,569.72,163.18ZM562.2,147c4.33-3.61,6.06-6.18,6.06-10a8.78,8.78,0,0,0-8.72-9.09c-4.86,0-6.93,3.75-6.93,7.84,0,4.65,2.6,7.42,5.79,9.22Z"/><path class="cls-1" d="M605.68,171.65c2.59.27,2.59,2.56-.14,2.56s-5.06-.14-8.65-.14-6.46.14-8.92.14c-2.73,0-2.8-2.29-.07-2.56,4.86-.63,5.33-1.32,5.53-3.54.13-1.74.33-4.58.33-9.16V135.79c0-2.36-.13-2.84-.73-2.7-1.13.27-3.33.83-5,1-1.93.2-3,.27-3-.63s.93-1.32,1.86-1.66a42.72,42.72,0,0,0,8.19-4.09c2.66-1.81,3.53-2.64,4.13-2.71a.82.82,0,0,1,.93,1.11c-.33,1.39-.87,3.95-.87,12.41V159c0,3.61,0,7.49.14,8.88C599.62,170.6,600.08,171,605.68,171.65Z"/><path class="cls-2" d="M88.18,144.73A28,28,0,1,1,109.51,178,28,28,0,0,1,88.18,144.73Z"/><path class="cls-1" d="M110.2,143.51c2-1.18,3.58-2.25,4.13-2.57s.53-1.17.06-2L110,131.65c-.61-1-1.28-2.07-2.23-1.5l-4.1,2.44c-2.44,1.45-5.68,9.64,2.82,23.9s17.24,15.32,19.68,13.86l4.1-2.44c1-.57.35-1.65-.26-2.68,0,0-3.9-6.54-4.36-7.33s-1.21-1.21-1.76-.88-2.25,1.24-4.22,2.41-4.17-1.79-7-6.6S108.23,144.68,110.2,143.51Z"/></g></svg>