<svg xmlns="http://www.w3.org/2000/svg" width="700" height="278.25" viewBox="0 0 700 278.25"><defs><style>.cls-1{fill:#980051;}.cls-2{fill:none;stroke:#980051;stroke-miterlimit:10;stroke-width:1.76px;}</style></defs><title>renrakusaki</title><g id="レイヤー_2" data-name="レイヤー 2"><path d="M212.82,67.76a31.7,31.7,0,0,1,0-40.5l.49.35a27.71,27.71,0,0,0-2.21,3.77,37.19,37.19,0,0,0,0,32.26,27.1,27.1,0,0,0,2.21,3.77ZM216.55,34a44.38,44.38,0,0,0-.36-5.06l2.93.76c.48.13,1.24.35,1.24.71,0,.53-.67.84-1.24,1.33v6h.75l.93-1.46c.13-.22.4-.62.62-.62s.62.44.71.58l1,1.41a2,2,0,0,1,.23.71c0,.31-.18.36-.36.36h-3.85v4.34c1.33.8,4,2.44,4,4.78a1.73,1.73,0,0,1-1.6,1.91c-1.41,0-1.64-2-1.68-3.06a5.85,5.85,0,0,0-.75-3.05v7.88c0,1.73.13,10.06.13,11.92,0,.58,0,2.53-2.13,2.53-1.24,0-1.24-1.38-1.24-1.86,0-.84.4-5,.44-5.94.14-2.17.23-4.3.23-7.58V46.27a28.77,28.77,0,0,1-6.43,10.19l-.35-.35a54.46,54.46,0,0,0,6.51-17.37,23.89,23.89,0,0,0-4.39.26l-.66-1.59c1.77.22,3.9.35,4.52.35h.8ZM245,58.9a7,7,0,0,0-3.59,2.52c-4.08-4.2-6-8.59-7.67-13.38v5.19c0,1.55,0,3.19.05,4.78,0,.8.31,4.74.31,5.63A2.16,2.16,0,0,1,232,66c-.71,0-1.11-.35-1.11-1.46,0-.66.13-3.81.13-4.52.09-2.88.09-4.65.09-6.2V49.64A31.72,31.72,0,0,1,221,60.85l-.26-.44a52.9,52.9,0,0,0,9-13.61,51.61,51.61,0,0,0-5.63.22l-.71-1.55c1.33.13,4.92.31,5.76.31h1.86V39.09h-4.47a24.59,24.59,0,0,1-4,5.54l-.35-.31c.44-1,3.41-6.91,3.45-12.5l3.55,1.73c.18.05.44.22.44.45,0,.48-.53.57-1.19,1.06-.45,1.15-.93,2.21-1.33,3h3.94V34.39A31.08,31.08,0,0,0,230.5,29l3.82.84c.31.09.62.23.62.45s-.54.84-1.16,1.64v6.11h3.33l1.28-1.77c.18-.22.4-.53.62-.53a1.35,1.35,0,0,1,.71.49L241.49,38c.23.22.49.53.49.71a.32.32,0,0,1-.35.35h-7.85v6.69h5.06l1.32-1.86c.14-.13.4-.49.54-.49s.53.31.71.45l2.26,2a1.1,1.1,0,0,1,.35.62c0,.31-.31.31-.44.31H234c4.17,9.53,10.68,11.48,11.12,11.57Zm-3.5-31.64a31.7,31.7,0,0,1,0,40.5l-.49-.35a28.71,28.71,0,0,0,2.22-3.77,37.28,37.28,0,0,0,0-32.26,29.41,29.41,0,0,0-2.22-3.77Z"/><path d="M273.26,36.7c0-1.82-.88-3.24-2.52-3.24h-1.86V32H282v1.46h-2.08c-1.86,0-2.31,1.64-2.31,3.24v23c0,1.37.31,3.23,2.31,3.23H282v1.42H268.88V62.93h1.86c1.64,0,2.52-1.42,2.52-3.23v-11H260.85v11c0,1.72.8,3.23,2.49,3.23h1.9v1.42H252.13V62.93h2.08c1.81,0,2.3-1.64,2.3-3.23v-23c0-1.33-.35-3.24-2.3-3.24h-2.08V32h13.11v1.46h-1.9c-1.6,0-2.49,1.33-2.49,3.24V47.29h12.41Z"/><path d="M305.52,53.85c0,7.93-5.63,11.34-9.71,11.34s-9.7-3.41-9.7-11.34,5.54-11.3,9.7-11.3S305.52,46,305.52,53.85Zm-15.29,0c0,4.56,1.51,10,5.58,10s5.59-5.45,5.59-10-1.51-9.93-5.59-9.93S290.23,49.37,290.23,53.85Z"/><path d="M325.37,64.35V61.47a8,8,0,0,1-6.56,3.72c-3.77,0-6.74-2.7-6.74-7.22V47.33c0-1.55-.26-2.57-1.41-2.57a6.56,6.56,0,0,0-1.38.22l-.17-1,6.46-1.42V56.64c0,3.72,1.42,6.16,4.26,6.16s4.61-2.17,5.54-3.28V46.94c0-1.38-.36-2.18-1.38-2.18a14.66,14.66,0,0,0-2.08.36l-.22-1,7.18-1.59v18a2.18,2.18,0,0,0,2,2.35H332v1.42Z"/><path d="M351.69,49.15l-1.29.53c-.66-1.37-2.61-5.8-7.09-5.8-1.51,0-3.85.75-3.85,3.06,0,2,2.43,3.5,5.4,4.74,4,1.64,7.31,3.85,7.31,7.26,0,2.93-2.26,6.25-7.31,6.25a12.57,12.57,0,0,1-2.61-.26,22.69,22.69,0,0,0-2.35-.54,6.29,6.29,0,0,0-2.7.67l-2.09-7.22,1.38-.4c.57,1.46,2.43,6.2,8.15,6.2,2.13,0,4.12-.71,4.12-3.41,0-1.51-.62-3-5.32-4.88-5.76-2.3-7-4.65-7-7.09,0-3.32,2.57-5.71,6.07-5.71a10.66,10.66,0,0,1,3.5.62,9.38,9.38,0,0,0,1.29.35,5.25,5.25,0,0,0,2.21-.88Z"/><path d="M360.41,52.87c0,9.48,5.54,10.11,7,10.11.54,0,3.73,0,6.65-3.86l1,1A11.1,11.1,0,0,1,366,65.19c-5.36,0-9.48-4-9.48-10.5,0-7.18,5.1-12.14,9.66-12.14,4.39,0,8.2,4.39,8.77,10.32Zm10.19-1.42c0-1.55-.22-7.35-4.34-7.35-.66,0-4.56,0-5.71,7.35Z"/><path d="M414.65,37.32c-1-3.86-3.64-3.86-4.12-3.86h-.76V32h12.54v1.46h-1.1c-1.11,0-2.66.4-2.66,1.47a6.87,6.87,0,0,0,.31,1.64l5.62,19.58,4.88-18.79a8.85,8.85,0,0,0,.26-1.68c0-2.22-2.65-2.22-3-2.22h-.94V32H436v1.46H434.9c-2.53,0-3.81,2.93-4.21,4.48L423.6,65.19h-.84l-7.32-25.43L408,65.19h-.85l-7.66-28.36c-.8-3-2.35-3.37-3.59-3.37H395V32h12.59v1.46h-1.11c-1.6,0-2.92.36-2.92,1.6a5.23,5.23,0,0,0,.26,1.46l5.32,19.63Z"/><path d="M439.86,52.87c0,9.48,5.54,10.11,7,10.11.53,0,3.72,0,6.65-3.86l1,1a11.08,11.08,0,0,1-9.12,5.09c-5.37,0-9.49-4-9.49-10.5,0-7.18,5.1-12.14,9.66-12.14,4.39,0,8.2,4.39,8.78,10.32Zm10.19-1.42c-.05-1.55-.22-7.35-4.34-7.35-.67,0-4.57,0-5.72,7.35Z"/><path d="M474.73,49.15l-1.29.53c-.66-1.37-2.61-5.8-7.09-5.8-1.5,0-3.85.75-3.85,3.06,0,2,2.44,3.5,5.4,4.74,4,1.64,7.32,3.85,7.32,7.26,0,2.93-2.26,6.25-7.32,6.25a12.57,12.57,0,0,1-2.61-.26,21.56,21.56,0,0,0-2.35-.54,6.29,6.29,0,0,0-2.7.67l-2.08-7.22,1.37-.4c.58,1.46,2.44,6.2,8.15,6.2,2.13,0,4.12-.71,4.12-3.41,0-1.51-.62-3-5.31-4.88-5.76-2.3-7-4.65-7-7.09,0-3.32,2.57-5.71,6.07-5.71a10.74,10.74,0,0,1,3.5.62,9.28,9.28,0,0,0,1.28.35,5.32,5.32,0,0,0,2.22-.88Z"/><path d="M485.94,58c0,1.86.26,4.66,2.88,4.66,1.77,0,2.92-1.29,3.72-2.13l.89,1.06c-2.4,2.75-3.9,3.59-6,3.59-4.78,0-5-4.56-5-7.27V44.81h-3.5V43.39c5.45-.31,5.67-5.54,5.76-7.44h1.24v7.44h6.91v1.42h-6.91Z"/><path d="M90,174v-2.15h17.49V174Zm9.93,5.59v12H97.51v-12H90v-2.13h17.49v2.13Z"/><path d="M123.43,186.51a6,6,0,0,1-6.37,5.94c-3.08,0-5.83-1.78-5.83-4.86,0-2.92,2.32-4.29,4.8-5.75-1.43-.84-4-2.35-4-5.29,0-2.67,2.1-4.83,5.4-4.83,3.7,0,4.94,2.75,4.94,4.26,0,2.3-2.22,4-3.38,4.83C121.51,182.38,123.43,183.73,123.43,186.51Zm-9.94,1a3.89,3.89,0,0,0,3.89,4,4.2,4.2,0,0,0,4.1-4.08c0-2.56-2.67-4.07-4.64-5.18C115.63,183.19,113.49,184.84,113.49,187.51Zm6.89-11.23a3.41,3.41,0,0,0-3.35-3.64,3.11,3.11,0,0,0-3.19,3.21c0,1.89,1.54,2.83,4.35,4.5A5.12,5.12,0,0,0,120.38,176.28Z"/><path d="M128,191.07h1.48c1.4,0,1.89-.54,1.89-1.64V174.82c0-.84-.78-1-1.3-1h-2V173h.49a10.42,10.42,0,0,0,4.4-1.13c.19-.11.27-.16.38-.16s.29.16.29.38v17.33c0,1.16.57,1.64,1.89,1.64h1.49v.87h-9Z"/><path d="M143.09,191.07h1.48c1.4,0,1.89-.54,1.89-1.64V174.82c0-.84-.78-1-1.3-1h-2V173h.49a10.42,10.42,0,0,0,4.4-1.13c.19-.11.27-.16.38-.16s.29.16.29.38v17.33c0,1.16.57,1.64,1.89,1.64h1.49v.87h-9Z"/><path d="M162.34,186.43h-5.81v-1.76h5.81Z"/><path d="M175.29,182.76a5,5,0,0,1,1.84,4c0,3.32-2.73,5.7-6.29,5.7-2.92,0-5.37-1.65-5.37-3.81a1.56,1.56,0,0,1,1.54-1.73,1.33,1.33,0,0,1,1.32,1.35,2.28,2.28,0,0,1-.16.87,1.76,1.76,0,0,0-.08.62c0,1,1.16,1.78,2.43,1.78,2.07,0,4.18-2.05,4.18-4.78s-2-4.94-4.21-4.94c-.16,0-.92.11-1.08.11a.53.53,0,0,1-.59-.57.61.61,0,0,1,.62-.62c.16,0,1,.17,1.16.17,2.26,0,3.7-2,3.7-4.22s-1.27-4-3.41-4a2,2,0,0,0-2.18,1.8,2,2,0,0,0,.08.41,2.89,2.89,0,0,1,.08.65,1.43,1.43,0,0,1-1.38,1.48,1.4,1.4,0,0,1-1.35-1.48c0-1.49,1.73-3.78,5.19-3.78s5.39,2.16,5.39,4.53a4.74,4.74,0,0,1-1,2.76,6.5,6.5,0,0,1-3.43,2.29A7.22,7.22,0,0,1,175.29,182.76Z"/><path d="M191,191.94H180.37v-.73c.54-1.7,1.81-3.59,4-6.05,4-4.59,5.32-6.13,5.32-8.83a3.47,3.47,0,0,0-3.59-3.69c-1.89,0-3,1.13-3,2.1a1.51,1.51,0,0,0,.27.84,2.26,2.26,0,0,1,.57,1.35,1.5,1.5,0,0,1-1.46,1.51,1.7,1.7,0,0,1-1.53-1.89c0-2,1.91-4.83,5.8-4.83,3.35,0,5.4,2.1,5.4,5,0,2.72-1.57,4.21-4,6.29-.92.75-4.48,3.8-5.83,6.77H186c3.78,0,4.67-1.45,5.48-3.7l.81.3Z"/><path d="M197.06,191.07h1.48c1.41,0,1.89-.54,1.89-1.64V174.82c0-.84-.78-1-1.29-1h-2V173h.48a10.37,10.37,0,0,0,4.4-1.13c.19-.11.27-.16.38-.16s.3.16.3.38v17.33c0,1.16.56,1.64,1.89,1.64H206v.87h-9Z"/><path d="M222.68,172.23v1.43c-4.29,6.61-5.8,10.37-6.16,16.39-.05.7-.13,2.4-1.51,2.4a1.43,1.43,0,0,1-1.37-1.49c0-1.91,1.89-7.58,7.58-16.6h-4.61c-3.92,0-4.51,1.81-5.11,3.54l-.81-.19,1.11-5.48Z"/><path d="M244.09,174.44l.76-.67c.13-.14.32-.33.43-.33a1.09,1.09,0,0,1,.4.28l1.06.78c.13.11.32.27.32.46s-.3.4-1.19.73a33.93,33.93,0,0,1-3.05,4.1V180c1.94.35,4,1.35,4,2.83a1.06,1.06,0,0,1-1,1c-.48,0-.81-.27-1.16-1.06a6.12,6.12,0,0,0-1.78-2.48v6.32c0,.4.11,5.77.11,6,0,.89-.3,1.38-1.38,1.38-.73,0-.73-.4-.73-.78,0-1.65.25-9.8.3-11.66a20.64,20.64,0,0,1-5.26,3.5l-.11-.16c3.1-2.59,7.1-7.5,8.15-9.77h-3.18a19.65,19.65,0,0,0-3.16.24l-.54-1.07c1.13.1,2.78.18,4,.18a14.56,14.56,0,0,0-.6-5.23l2.73.75c.13,0,.43.14.43.38s-.24.43-.78.76c0,.46,0,2.67,0,3.34Zm13.52-3.15.89-.87c.11-.08.36-.35.44-.35s.32.16.51.3l1.13.86c.16.14.3.27.3.41s-.24.29-.43.29H250.33a17.65,17.65,0,0,0-3.16.25l-.54-1.08c2,.16,3.67.19,4.15.19Zm0,11.55.75-.84c.11-.13.25-.27.35-.27a.9.9,0,0,1,.38.22l1.24.89a.56.56,0,0,1,.27.4c0,.17-.24.41-.81.84,0,.22,0,.59,0,.78,0,1,.21,6.4.21,7.51,0,.7-.62,1-1.29,1s-.73-.32-.68-1.27h-8.47c0,.95-.3,1.51-1.27,1.51-.67,0-.67-.4-.67-.64,0-1,.1-5.08.1-5.92a36.51,36.51,0,0,0-.29-5.69l2.45,1.43Zm-1.46-8.23.65-.65c.13-.14.27-.3.37-.3s.22.11.33.19l1.11.89a.65.65,0,0,1,.27.43c0,.19-.25.38-.76.65,0,.62.13,3.29.13,3.83a1.14,1.14,0,0,1-1.26,1.16c-.65,0-.65-.37-.65-1h-5.83c0,.43,0,1.24-1.14,1.24-.54,0-.75-.24-.75-.94,0-.36.05-2.81.05-3.35a32,32,0,0,0-.19-3.35l2.22,1.22Zm-6.67,8.88v3.56h3.32v-3.56Zm0,4.21v3.8h3.32v-3.8Zm1-12.45v3.89h5.88v-3.89Zm7.5,11.8v-3.56h-3.42v3.56Zm0,4.45v-3.8h-3.42v3.8Z"/><path d="M287.48,172.85c-.06,1,.13,15.55.13,17.52,0,1.73,0,3.21-3.05,3.78-.38-1.49-1.35-2-2.73-2.73l0-.19c.54.06,2.19.22,2.67.22.68,0,.89-.11,1-.43s.1-8.37.1-9.45c0-.86,0-8.91,0-9.69H269.5c0,1,0,11.5,0,13.39,0,1.16.11,6.29.11,7.31a1.34,1.34,0,0,1-1.46,1.49c-.4,0-.78-.14-.78-1,0-.38.19-2.08.19-2.4.08-1.84.11-11.85.11-13.66a50.7,50.7,0,0,0-.3-7l2.59,1.27h15.39l.7-.78c.11-.14.19-.22.35-.22a.67.67,0,0,1,.32.17l1.46,1c.19.13.32.21.32.43S288.37,172.26,287.48,172.85Zm-2.92,6.26h-6.21v8.53H281c0-3.13,0-3.56,0-4.72a4.67,4.67,0,0,0-.4-1.78l2.37.4c.25.06.57.14.57.46s-.11.35-.67.68c0,.43,0,2.48,0,3s.08,2.51.08,3a1.12,1.12,0,0,1-1.24,1.19c-.76,0-.73-.37-.71-1.51h-7c0,.19,0,1.05,0,1.24a1.15,1.15,0,0,1-1.19,1.3.7.7,0,0,1-.76-.76c0-.29.14-1.16.14-3.91,0-3.83-.08-4.1-.35-5.13l2.51.59c.21.06.46.11.46.38s0,.27-.81.76v4.88h2.56v-8.53h-2.7a18.87,18.87,0,0,0-3.16.25l-.54-1.08c2.16.19,3.73.19,4.16.19h3.1a14.74,14.74,0,0,0,1.62-6.1l2.76,1.56a.42.42,0,0,1,.27.35c0,.35-.41.46-1.16.6-.73.81-2,2.37-2.92,3.59h3.59l.92-1.06c.16-.16.3-.32.4-.32a1,1,0,0,1,.52.27l1.26,1a.55.55,0,0,1,.27.41C285,179.09,284.69,179.11,284.56,179.11Zm-9.31-1.35c-.68,0-.87-.56-1.24-1.7a7.32,7.32,0,0,0-1.49-2.91l.14-.16c.35.13,3.72,1.53,3.72,3.56A1.16,1.16,0,0,1,275.25,177.76Z"/><path d="M300.93,188.64a16.51,16.51,0,0,1-7.4,4.27l0-.17a26.67,26.67,0,0,0,4.64-4c1.27-1.41,1.4-1.84,1.51-2.43l2.13,1.4c.22.14.35.27.35.46S301.57,188.61,300.93,188.64Zm16.78-2.86h-11c0,.51,0,1.76,0,3.37,0,1.08.14,2.79.14,3.87a1.36,1.36,0,0,1-1.49,1.34c-.48,0-.78-.18-.78-.83s.16-3.67.16-4.29c.06-1.92,0-3,0-3.46H297.5c0,1.24-1.38,1.24-1.49,1.24-.59,0-.67-.4-.67-.75s.16-2.51.19-3c.05-2,.08-3.72.08-5.83,0-5.26-.11-5.8-.3-6.69l2.54.78c.27.08.54.16.54.4s-.35.52-.84.84c-.08,1.73-.11,3.51-.11,5.24,0,.78.06,6.15.06,7.12H314l1.33-1.43c.16-.19.27-.32.45-.32s.36.19.46.27l1.68,1.43a.59.59,0,0,1,.27.43C318.15,185.75,317.9,185.78,317.71,185.78Zm-4.93-13.6c0,1.1-.11,3.32.13,9,0,.08,0,.7,0,.75a1.2,1.2,0,0,1-1.33,1.24c-.78,0-.75-.51-.75-1.24h-8.07c0,.41,0,1.32-1.35,1.32-.7,0-.73-.35-.73-.64,0-.11,0-.46,0-.57,0-.62.19-5.43.19-8.23a18.21,18.21,0,0,0-.41-4.4l2.67,1.26h7.51l.78-.75c.19-.19.27-.3.46-.3a.79.79,0,0,1,.4.24l1.11.92a.72.72,0,0,1,.3.49C313.75,171.53,313.13,171.93,312.78,172.18Zm-1.89-.87h-8.13v2.89h8.13Zm0,3.54h-8.13v2.81h8.13Zm0,3.45h-8.13v3h8.13Zm4,14.55c-.7,0-1-.48-1.73-1.64a11.18,11.18,0,0,0-4-3.89l.08-.19c3.75.62,6.77,2.86,6.77,4.59A1.11,1.11,0,0,1,314.88,192.85Z"/><path d="M329.46,174.44l.76-.67c.14-.14.32-.33.43-.33a1.11,1.11,0,0,1,.41.28l1.05.78c.13.11.32.27.32.46s-.29.4-1.18.73a33.93,33.93,0,0,1-3.05,4.1V180c1.94.35,4,1.35,4,2.83a1.05,1.05,0,0,1-1,1c-.49,0-.81-.27-1.16-1.06a6.21,6.21,0,0,0-1.78-2.48v6.32c0,.4.1,5.77.1,6,0,.89-.29,1.38-1.37,1.38-.73,0-.73-.4-.73-.78,0-1.65.24-9.8.3-11.66a20.47,20.47,0,0,1-5.27,3.5l-.11-.16c3.11-2.59,7.1-7.5,8.16-9.77h-3.19a19.65,19.65,0,0,0-3.16.24l-.54-1.07c1.14.1,2.78.18,4,.18a14.89,14.89,0,0,0-.59-5.23l2.72.75c.14,0,.43.14.43.38s-.24.43-.78.76c0,.46,0,2.67,0,3.34ZM343,171.29l.89-.87c.11-.08.35-.35.43-.35s.32.16.51.3l1.14.86c.16.14.29.27.29.41s-.24.29-.43.29H335.7a17.77,17.77,0,0,0-3.16.25L332,171.1c2,.16,3.67.19,4.16.19Zm0,11.55.76-.84c.1-.13.24-.27.35-.27a1,1,0,0,1,.38.22l1.24.89c.13.11.27.24.27.4s-.25.41-.81.84a7.39,7.39,0,0,0-.06.78c0,1,.22,6.4.22,7.51,0,.7-.62,1-1.3,1s-.73-.32-.67-1.27h-8.48c.06.95-.29,1.51-1.27,1.51-.67,0-.67-.4-.67-.64,0-1,.11-5.08.11-5.92a35.3,35.3,0,0,0-.3-5.69l2.46,1.43Zm-1.46-8.23.65-.65c.14-.14.27-.3.38-.3s.21.11.32.19l1.11.89a.65.65,0,0,1,.27.43c0,.19-.24.38-.76.65,0,.62.14,3.29.14,3.83a1.15,1.15,0,0,1-1.27,1.16c-.65,0-.65-.37-.65-1h-5.83c0,.43,0,1.24-1.13,1.24-.54,0-.76-.24-.76-.94,0-.36.06-2.81.06-3.35a32,32,0,0,0-.19-3.35l2.21,1.22Zm-6.66,8.88v3.56h3.32v-3.56Zm0,4.21v3.8h3.32v-3.8Zm1-12.45v3.89h5.89v-3.89Zm7.51,11.8v-3.56h-3.43v3.56Zm0,4.45v-3.8h-3.43v3.8Z"/><path d="M353.66,180.44c-.6,0-.92-.52-1.22-1.06a7.57,7.57,0,0,0-2.05-2.78l0-.16c.84.14,4.29.87,4.29,2.86A1.06,1.06,0,0,1,353.66,180.44Zm1.1,4.94a7.3,7.3,0,0,0-.45,2.21,6.88,6.88,0,0,0,.56,2.43,6.18,6.18,0,0,1,.33,1.81,1.18,1.18,0,0,1-1.14,1.32c-1.13,0-1.24-1.43-1.24-2.19,0-2.05,0-3.88-2.08-4.72v-.19a2.59,2.59,0,0,0,2.08-.49,75.13,75.13,0,0,0,3.83-7.77l.25.11C356.19,180.6,355.82,181.84,354.76,185.38Zm.54-11.26c-.7,0-.83-.35-1.32-1.46a5,5,0,0,0-1.62-2.4l.06-.19c1.4.38,3.94,1.11,3.94,2.84A1.07,1.07,0,0,1,355.3,174.12Zm20,3.13h-4.37c0,.3.13,3.38.13,3.48a1.22,1.22,0,0,1-.19.84,1.92,1.92,0,0,1-1.13.51c-.57,0-.65-.46-.65-.86h-3.86l0,3h4.45l.78-1.1c.14-.19.27-.36.44-.36a1,1,0,0,1,.51.3l1.27,1.11c.11.11.27.24.27.4s-.27.3-.41.3h-7.31l.08,3.08h6.13l.89-1.11c.16-.19.27-.32.43-.32s.32.16.48.29l1.22,1.08c.11.11.27.25.27.41s-.27.29-.43.29h-9c0,.6.1,3.46.1,4.11a1.27,1.27,0,0,1-1.43,1.4.74.74,0,0,1-.81-.75c0-.27.11-1,.11-1.49,0-1.08,0-2.43,0-3.27h-3.89a18.87,18.87,0,0,0-3.16.25l-.54-1.08c2.14.16,3.67.19,4.13.19h3.46l0-3.08H361a19.3,19.3,0,0,0-3.19.24l-.54-1.08c2.16.17,3.73.19,4.16.19h2v-3h-1.91a22.12,22.12,0,0,0-3.19.24l-.54-1.05c.68.05,2.32.16,4.16.16h1.48v-3.32h-2.83a19.89,19.89,0,0,0-3.19.24l-.51-1.08c2.11.17,3.67.19,4.13.19h2.4c0-.73,0-2.13,0-3.24h-1.54a16.24,16.24,0,0,0-3.19.25l-.54-1.08c1.38.11,2.78.19,4.16.19h1.08a8.08,8.08,0,0,0-.62-3.57l3,.73c.32.08.54.19.54.41s-.19.43-.95.86c0,.35,0,1.38,0,1.57h3.34l.92-.87c.11-.08.22-.19.33-.19a1,1,0,0,1,.37.19l1,.7a.75.75,0,0,1,.4.6c0,.16-.22.51-.73.92,0,.89,0,1.67,0,2.53h1.46l.91-1.16c.14-.16.3-.38.44-.38s.35.19.48.33l1.27,1.16a.52.52,0,0,1,.24.4C375.68,177.22,375.44,177.25,375.28,177.25ZM369,173.36h-3.8l0,3.24H369Zm0,3.89h-3.83v3.32H369Z"/><path d="M403.47,174.55H390.75l2.24.73c.17.05.35.16.35.35s-.18.41-.72.78c0,.44-.09,1.84-.14,2.76h5.4l.78-.84c.22-.22.3-.3.43-.3a.9.9,0,0,1,.49.27l1.08.87c.22.16.35.32.35.48,0,.35-.51.68-.81.89,0,1.27.14,6.94.14,8.1,0,.79,0,2.65-3,3.21a5,5,0,0,0-2.27-2.56v-.19a15.27,15.27,0,0,0,1.78.11c.92,0,1.46-.11,1.54-.51s.05-7.35,0-8.88h-5.89c0,3,0,8.36.11,11.17,0,.3.08,1.62.08,1.89,0,1.24-1.43,1.32-1.54,1.32a.7.7,0,0,1-.78-.81c0-2.26.27-5.91.3-8.18s0-3.1,0-5.39h-5.46c0,.86,0,4.61,0,5.39s.08,4.35.08,5.08a1.32,1.32,0,0,1-1.43,1.43c-.63,0-.76-.32-.76-.68a5.33,5.33,0,0,1,0-.54c.08-1.16.21-6.12.21-8.63a16.07,16.07,0,0,0-.35-4l2.67,1.32h5c0-3.08,0-3.43-.33-4.62h-7.26a19.32,19.32,0,0,0-3.18.24l-.54-1c1.8.14,3.64.16,4.15.16h7.21a10.37,10.37,0,0,0-.7-4.69l3,.64c.24.06.51.14.51.41s0,.3-.89.81c0,.46,0,2.43,0,2.83h7l1.3-1.51c.19-.24.29-.32.43-.32a.72.72,0,0,1,.48.27l1.73,1.51c.16.13.27.24.27.43S403.66,174.55,403.47,174.55Z"/><path d="M429.44,176.87c-.05,2.35.08,5.54.08,5.83s.11,1.62.11,1.89a1.32,1.32,0,0,1-1.46,1.19c-.7,0-.7-.46-.67-1.73h-7.13c0,.57,0,4.65.16,7.75,0,.27.06.76.06.78a1,1,0,0,1-.25.81,1.68,1.68,0,0,1-1.21.52c-.86,0-.86-.71-.86-1,0-.11,0-.57,0-.7.25-4.08.25-5.32.25-8.16h-7c0,.22.06,1.08.06,1.27a1.32,1.32,0,0,1-1.41,1.38c-.78,0-.78-.57-.78-.89s.08-1,.08-1.33c.05-1.53.11-3.88.11-5.74a25.46,25.46,0,0,0-.27-4.54l2.56,1.27h6.62c-.08-4.24-.17-4.62-.57-5.7l2.91.81c.22.06.44.19.44.38s-.22.46-.87.89c-.05.57-.05,3.11-.08,3.62h6.83l.81-.86a.62.62,0,0,1,.38-.22.74.74,0,0,1,.48.19l1.17.86c.16.11.35.27.35.46S430,176.41,429.44,176.87Zm-10.9-.75h-7v7.29h7c0-.65,0-4.86,0-5.21S418.56,176.77,418.54,176.12Zm9,0h-7.13c0,.48,0,1.62,0,2.32s0,4.18,0,5h7.13Z"/><path d="M457.74,193.85a15.17,15.17,0,0,1-5.94-3.53,14.4,14.4,0,0,1-4-7.16h-.11c-.24,1.65-.84,5.37-5.78,8.48a13.81,13.81,0,0,1-6.75,2.16l0-.19c5.45-1.7,9.9-5.8,10.66-10.45h-6.86a16.3,16.3,0,0,0-3.18.25l-.51-1.08c.75,0,1.72.13,3.75.16a86.79,86.79,0,0,0-.19-9.1l2.29,1.11h5.13c0-.87-.08-3.46-.16-4.1,0-.22-.3-1.14-.32-1.3l2.75.84c.3.08.4.19.4.43s-.4.59-.73.81c0,.51,0,2.86,0,3.32h4.48l.73-.73c.24-.24.4-.35.54-.35s.29.08.65.32l1.16.78c.18.14.29.27.29.41s-.08.43-1.13,1.11c0,.83,0,2.48,0,3.34,0,.44,0,1.65,0,3.14h1.05l1.16-1.44c.16-.21.3-.29.43-.29a.84.84,0,0,1,.51.27l1.6,1.4a.61.61,0,0,1,.27.46c0,.16-.14.24-.41.24H448.18c3,7.34,10.26,8.1,11.88,8.29l0,.11A5.88,5.88,0,0,0,457.74,193.85Zm-16.85-18.7v7.37h5a49.15,49.15,0,0,0,.35-7.37Zm12,0H448.1a55.07,55.07,0,0,1-.32,7.37h5.13Z"/><path d="M483.28,181l1.43-1.62c.16-.19.24-.32.43-.32s.3.16.46.29l1.95,1.76c.13.13.27.24.27.4s-.25.3-.41.3H468a19.75,19.75,0,0,0-3.19.24l-.51-1.24c2,.19,4,.19,4.13.19Z"/><path d="M516.3,172.77H505.77c0,.76.11,15.58.11,16.38,0,2.33,0,4.27-3.75,4.65-.14-1.14-.33-1.68-3.35-3.32l.06-.19a25.54,25.54,0,0,0,3.59.38c.83,0,1.24-.11,1.35-.54a15.27,15.27,0,0,0,.08-2c0-2.43,0-13.18,0-15.39h-7.67A18.45,18.45,0,0,0,493,173l-.54-1c1.67.11,3.34.16,4.15.16H512l1.51-1.59c.11-.11.27-.32.43-.32a.84.84,0,0,1,.49.27l2,1.59a.59.59,0,0,1,.27.43C516.71,172.74,516.46,172.77,516.3,172.77Z"/><path d="M535,171.42l.76-.78c.16-.19.3-.33.46-.33a.91.91,0,0,1,.48.27l1.33,1.11c.24.22.29.35.29.49,0,.32-.37.56-1,1-.05,1.21-.05,1.67-.05,2.86,0,6.53.14,10,.3,15,0,0,0,.46,0,.56,0,1.14-1.4,1.22-1.51,1.22-.78,0-.73-.68-.7-1.13H525.13c.06.54.06.7-.1.94a1.81,1.81,0,0,1-1.44.65c-.7,0-.72-.38-.72-.7,0-.52.16-2.68.19-3.11.1-2.59.13-9.15.13-11.85a42.44,42.44,0,0,0-.35-7.5l2.7,1.32Zm-9.88.65v5.8h10.29v-5.8Zm0,6.45v5.83h10.29v-5.83Zm0,6.48v6h10.29v-6Z"/><path d="M544.74,191.07h1.48c1.41,0,1.89-.54,1.89-1.64V174.82c0-.84-.78-1-1.29-1h-2.06V173h.49a10.37,10.37,0,0,0,4.4-1.13c.19-.11.27-.16.38-.16s.29.16.29.38v17.33c0,1.16.57,1.64,1.89,1.64h1.49v.87h-9Z"/><path d="M570.36,172.23v1.43c-4.29,6.61-5.81,10.37-6.16,16.39-.05.7-.13,2.4-1.51,2.4a1.43,1.43,0,0,1-1.37-1.49c0-1.91,1.88-7.58,7.58-16.6h-4.62c-3.91,0-4.5,1.81-5.1,3.54l-.81-.19,1.11-5.48Z"/><path d="M579.11,186.43H573.3v-1.76h5.81Z"/><path d="M583.59,191.07h1.48c1.41,0,1.89-.54,1.89-1.64V174.82c0-.84-.78-1-1.29-1h-2V173h.48a10.37,10.37,0,0,0,4.4-1.13c.19-.11.27-.16.38-.16s.3.16.3.38v17.33c0,1.16.56,1.64,1.89,1.64h1.48v.87h-9Z"/><path d="M598.71,191.07h1.48c1.41,0,1.89-.54,1.89-1.64V174.82c0-.84-.78-1-1.29-1h-2V173h.48a10.37,10.37,0,0,0,4.4-1.13c.19-.11.27-.16.38-.16s.3.16.3.38v17.33c0,1.16.56,1.64,1.89,1.64h1.48v.87h-9Z"/><path d="M239.38,216.91l.48-.45c.09-.09.21-.22.28-.22s.21.13.27.18l.68.52c.08.07.21.18.21.31s-.2.27-.77.48a21.81,21.81,0,0,1-2,2.74v.13c1.25.23,2.56.9,2.56,1.89a.69.69,0,0,1-.66.68c-.32,0-.53-.18-.75-.7a4.16,4.16,0,0,0-1.15-1.66V225c0,.27.07,3.85.07,4,0,.59-.2.91-.9.91-.47,0-.47-.27-.47-.52,0-1.1.16-6.53.2-7.78a13.12,13.12,0,0,1-3.41,2.34l-.07-.1a26.1,26.1,0,0,0,5.27-6.52h-2.06a12.31,12.31,0,0,0-2,.16l-.35-.72c.74.07,1.8.13,2.57.13a10.19,10.19,0,0,0-.39-3.5l1.77.51c.09,0,.28.09.28.25s-.16.29-.51.5c0,.31,0,1.79,0,2.24Zm8.74-2.11.58-.58c.07-.05.22-.23.28-.23s.21.11.33.2l.73.57c.11.09.19.18.19.27s-.15.2-.28.2h-6.54a11.5,11.5,0,0,0-2,.16l-.35-.72c1.27.11,2.37.13,2.69.13Zm0,7.71.49-.56c.07-.09.16-.18.23-.18a.56.56,0,0,1,.24.14l.81.6a.4.4,0,0,1,.17.27c0,.1-.16.27-.52.55a5.11,5.11,0,0,0,0,.53c0,.64.14,4.26.14,5,0,.47-.4.7-.84.7s-.47-.21-.43-.84h-5.48c0,.63-.2,1-.82,1-.44,0-.44-.27-.44-.44,0-.63.07-3.38.07-3.94a24.87,24.87,0,0,0-.19-3.8l1.59,1Zm-.94-5.5.42-.43c.09-.09.18-.2.24-.2s.14.08.21.13l.72.59a.42.42,0,0,1,.17.29c0,.13-.15.25-.48.43,0,.42.08,2.2.08,2.56a.76.76,0,0,1-.82.78c-.42,0-.42-.26-.42-.69h-3.77c0,.29,0,.83-.73.83-.35,0-.49-.16-.49-.63,0-.23,0-1.87,0-2.23a22.34,22.34,0,0,0-.13-2.24l1.44.81Zm-4.31,5.93v2.37H245v-2.37Zm0,2.81v2.54H245v-2.54Zm.65-8.3V220h3.8v-2.59Zm4.85,7.86v-2.37h-2.22v2.37Zm0,3v-2.54h-2.22v2.54Z"/><path d="M269.18,215.84c0,.67.09,10.37.09,11.69,0,1.15,0,2.14-2,2.52-.24-1-.87-1.33-1.76-1.82l0-.13c.35,0,1.41.15,1.73.15s.57-.07.62-.29.07-5.58.07-6.3,0-5.94,0-6.46H257.55c0,.64,0,7.67,0,8.93,0,.77.06,4.19.06,4.88a.88.88,0,0,1-.94,1c-.26,0-.5-.09-.5-.69,0-.25.12-1.38.12-1.6.05-1.23.07-7.9.07-9.11a34.2,34.2,0,0,0-.19-4.68l1.67.84h9.95l.46-.52c.07-.09.12-.14.22-.14a.43.43,0,0,1,.21.11l.94.7c.13.09.21.14.21.29S269.75,215.45,269.18,215.84ZM267.29,220h-4v5.69H265c0-2.09,0-2.38,0-3.15a3.25,3.25,0,0,0-.26-1.19l1.54.27c.16,0,.36.09.36.31s-.06.23-.43.45c0,.29,0,1.65,0,2s0,1.67,0,2a.73.73,0,0,1-.8.79c-.49,0-.47-.25-.46-1h-4.5c0,.13,0,.71,0,.83a.76.76,0,0,1-.77.87.46.46,0,0,1-.49-.51c0-.2.09-.77.09-2.61a10.76,10.76,0,0,0-.23-3.42l1.62.4c.14,0,.3.07.3.25s0,.18-.52.5v3.26h1.66V220h-1.75a12.39,12.39,0,0,0-2,.16l-.35-.72c1.4.13,2.41.13,2.69.13h2a9.93,9.93,0,0,0,1.05-4.07l1.78,1a.29.29,0,0,1,.18.24c0,.23-.27.3-.75.39-.48.54-1.28,1.59-1.89,2.4h2.32l.6-.7c.1-.11.19-.22.26-.22a.68.68,0,0,1,.33.18l.82.7a.39.39,0,0,1,.17.27C267.55,220,267.38,220,267.29,220Zm-6-.9c-.44,0-.56-.38-.8-1.13a5,5,0,0,0-1-2l.08-.11c.23.09,2.41,1,2.41,2.38A.77.77,0,0,1,261.27,219.12Z"/><path d="M279.62,226.38a10.6,10.6,0,0,1-4.78,2.84l0-.11a17.53,17.53,0,0,0,3-2.7c.82-.93.9-1.22,1-1.62l1.38.94c.14.09.23.18.23.3S280,226.36,279.62,226.38Zm10.86-1.91h-7.14c0,.34,0,1.17,0,2.25,0,.72.08,1.85.08,2.57a.88.88,0,0,1-1,.9c-.31,0-.5-.12-.5-.55s.1-2.45.1-2.87c0-1.28,0-2,0-2.3h-4.7c0,.83-.89.83-1,.83-.38,0-.43-.27-.43-.51s.1-1.67.12-2c0-1.31.05-2.48.05-3.89a20.77,20.77,0,0,0-.19-4.46l1.64.52c.18.06.35.11.35.27s-.23.34-.54.56c-.05,1.15-.07,2.34-.07,3.49,0,.53,0,4.11,0,4.76h10.65l.86-1c.1-.12.17-.21.29-.21s.23.12.3.18l1.08.95a.39.39,0,0,1,.18.29C290.76,224.45,290.6,224.47,290.48,224.47Zm-3.2-9.08c0,.74-.07,2.22.09,6,0,.05,0,.47,0,.5a.79.79,0,0,1-.86.83c-.5,0-.48-.34-.48-.83h-5.22c0,.27,0,.89-.88.89-.45,0-.47-.24-.47-.44s0-.3,0-.37c0-.42.12-3.62.12-5.5a12.82,12.82,0,0,0-.26-2.93l1.73.85h4.85l.51-.51c.12-.12.17-.2.29-.2s.21.11.27.17l.71.61a.44.44,0,0,1,.19.32C287.91,215,287.51,215.23,287.28,215.39Zm-1.22-.57h-5.25v1.92h5.25Zm0,2.36h-5.25v1.87h5.25Zm0,2.3h-5.25v2h5.25Zm2.59,9.71c-.46,0-.65-.33-1.12-1.1a7.36,7.36,0,0,0-2.57-2.6l.06-.12c2.42.41,4.38,1.91,4.38,3.06A.74.74,0,0,1,288.65,229.19Z"/><path d="M303.7,222.15h-3.16a11.2,11.2,0,0,1-.46,2.71c1.94.72,3.29,1.93,3.29,3a.82.82,0,0,1-.72.88c-.47,0-.77-.56-1-1.08a5.71,5.71,0,0,0-1.68-2.57,7.3,7.3,0,0,1-4.8,4.91l0-.12a9.39,9.39,0,0,0,3.14-3.68,11.11,11.11,0,0,0,1.07-4.08h-1.66a12.5,12.5,0,0,0-2.06.16l-.35-.72c1.38.12,2.57.12,2.69.12h1.41c.07-.77.11-1.47.11-2.64,0-.78,0-1.3,0-1.62h-1.1a12.15,12.15,0,0,1-2.39,3.49l-.1-.09c.85-1.57,2.37-5.4,2.23-7.47l1.68.79c.17.07.31.18.31.32s-.26.31-.73.45a17.49,17.49,0,0,1-.79,2.07h2.76l.59-.75c.16-.2.2-.25.3-.25a.67.67,0,0,1,.33.19l.86.78c.09.09.17.16.17.27s-.17.2-.26.2h-2.67c0,1.83,0,3.13-.1,4.26h1.13l.49-.72c.1-.16.19-.28.3-.28s.14,0,.33.19l1,.78a.39.39,0,0,1,.17.27C304,222.13,303.79,222.15,303.7,222.15Zm6.3-4.33c-.05,1.68,0,5.48,0,7.91,0,.43.14,2.29.14,2.66a.86.86,0,0,1-.89.92c-.54,0-.52-.25-.47-1.55h-3.16c0,.22,0,1.28,0,1.39a.9.9,0,0,1-.88.52c-.54,0-.54-.32-.54-.47,0-.37.07-1,.09-1.36,0-1.16.14-5,.14-7.21a30.56,30.56,0,0,0-.23-4.64l1.59.81h2.86l.54-.49c.09-.09.14-.14.21-.14a.33.33,0,0,1,.21.12l.81.72a.41.41,0,0,1,.17.29C310.61,217.45,310.44,217.61,310,217.82Zm-1.19-.59h-3.16v10.1h3.16Z"/><path d="M331.35,223.89h-2.76c0,.07,0,.85,0,1s.09,1.33.09,1.46c0,.58-.59.77-.89.77-.49,0-.47-.3-.42-1H323.9c0,2.14,0,2.3-.12,2.68a2.6,2.6,0,0,1-1.85,1.46c-.32-1.1-1-1.55-2.2-2v-.12c.35,0,1.47.16,2.13.16.16,0,.6,0,.7-.22s.09-.36.12-1.94h-3.23a10.56,10.56,0,0,0-2,.16l-.35-.72c1.09.09,2.17.13,2.69.13h2.93l0-1.77H317.6a12.12,12.12,0,0,0-2.06.16l-.35-.72c1.17.11,2.36.13,2.69.13h4.85v-1.8h-3.44a10.85,10.85,0,0,0-2.06.18l-.35-.72c1.22.11,2.53.11,2.69.11h3.16v-1.7h-3.37a1,1,0,0,1-.07.51.9.9,0,0,1-.77.4.39.39,0,0,1-.43-.4c0-.11.08-1.46.08-1.75a7.81,7.81,0,0,0-.12-2l1.4.67h3.28v-1.37h-4.54a11.69,11.69,0,0,0-2.06.16l-.33-.72c1.08.09,2.16.13,2.67.13h4.26a10.22,10.22,0,0,0-.33-2.07l1.85.57c.19.06.28.15.28.27s-.3.35-.61.49c0,.16,0,.47,0,.74h4.19l.71-.87c.13-.16.18-.21.27-.21s.15,0,.33.18l1.11.86c.14.11.18.18.18.27s-.16.2-.26.2h-6.55c0,.11,0,1.17,0,1.37h3.3l.39-.38c.12-.13.17-.18.24-.18s.12,0,.25.13l.73.61c.12.09.16.16.16.25s-.35.36-.47.41c0,.26,0,1.35,0,1.59a.8.8,0,0,1-.82.83c-.42,0-.4-.34-.38-.71h-3.42c0,.44,0,.56,0,1.7h3.34l.49-.54c.12-.13.17-.2.26-.2s.12,0,.3.18l.69.61a.4.4,0,0,1,.16.25c0,.09-.05.18-.51.51v1.42h.72l.7-.88c.14-.16.17-.24.26-.24s.17.06.31.2l.88.88c.12.13.15.2.15.27S331.46,223.89,331.35,223.89Zm-8.62-6.48h-3.37v1.69h3.37Zm4.54,0h-3.41v1.69h3.41Zm.14,4.25h-3.55v1.8h3.55Zm0,2.23h-3.53l0,1.77h3.51Z"/><path d="M342.37,230.45a11.24,11.24,0,0,1,0-17.43l.16.25a12.44,12.44,0,0,0,0,16.92Z"/><path d="M347.86,228h1c.9,0,1.22-.36,1.22-1.1v-9.74c0-.56-.51-.65-.84-.65h-1.33V216h.32a6.67,6.67,0,0,0,2.84-.75c.13-.08.18-.11.25-.11s.19.11.19.25V226.9c0,.77.37,1.1,1.22,1.1h1v.57h-5.79Z"/><path d="M359.13,230.45l-.15-.26a12.47,12.47,0,0,0,0-16.92l.15-.25a11.24,11.24,0,0,1,0,17.43Z"/><path d="M378,216.47h-3c1,.63,1.43.94,1.43,1.61a.73.73,0,0,1-.66.79c-.49,0-.53-.27-.65-1.06a4.44,4.44,0,0,0-.38-1.34h-.77a10.29,10.29,0,0,1-3.07,3.12l-.07-.09a23,23,0,0,0,3-5.17,2.71,2.71,0,0,0,.1-1l1.61.86a.26.26,0,0,1,.15.24c0,.18-.26.27-.69.41-.23.34-.69,1-.77,1.17h1.95l.53-.66c.08-.11.19-.24.26-.24s.19.09.33.2l.79.67a.45.45,0,0,1,.17.27C378.27,216.44,378.11,216.47,378,216.47Zm7,8.11c-.49,2.36-.74,3.62-3.16,3.9a3,3,0,0,0-1.33-1.91l0-.1a12.32,12.32,0,0,0,2,.3c.54,0,1-.16,1.31-2.63h-5.08c0,.63.05,3.71.07,4.42,0,.09,0,.61,0,.73a.79.79,0,0,1-.86.76c-.23,0-.47-.07-.47-.54,0-.88.09-3.87.1-4.81a14.74,14.74,0,0,1-6.52,4.7l0-.14a22.69,22.69,0,0,0,5.53-5.12h-3.45c-.21.83-.3,1.16-.89,1.16-.4,0-.61-.15-.61-.44,0-.05.19-.61.31-.93a9.54,9.54,0,0,0,.73-3.41l1.42.83h3.56c0-.16,0-1.49,0-1.78H375a11.14,11.14,0,0,0-2.06.18l-.35-.72c.85.07,1.83.11,2.68.11h7.07l.48-.47a.31.31,0,0,1,.19-.11.44.44,0,0,1,.24.11l.82.65c.05.05.14.11.14.21s-.19.31-.56.56c0,.27.07,1.51.07,1.7,0,.61-.69.68-.82.68-.45,0-.43-.4-.42-.68h-3.75v1.92h5l.61-.65c.07-.07.16-.18.23-.18s.19.11.26.18l.8.76a.29.29,0,0,1,.12.22C385.72,224.27,385.44,224.36,385,224.58Zm-7.35-2.79h-3.91c-.18.55-.19.7-.49,1.92h4.4Zm8-5.14h-5.08c1.31.53,1.82.74,1.82,1.5a.62.62,0,0,1-.63.66c-.44,0-.51-.27-.79-1.06a3.54,3.54,0,0,0-.68-1.1h-.66a9.62,9.62,0,0,1-2,2.24l-.09-.08c1.1-1.9,2.11-3.81,2.06-5.38l1.69.79a.25.25,0,0,1,.16.22c0,.18-.24.31-.75.47a14.82,14.82,0,0,1-.75,1.31h3.68l.58-.84c.07-.11.15-.22.26-.22a.64.64,0,0,1,.33.18l1,.85a.37.37,0,0,1,.17.27C385.93,216.62,385.79,216.65,385.67,216.65Zm-3.16,2.92h-3.77v1.78h3.77Z"/><path d="M391.16,228h1c.9,0,1.22-.36,1.22-1.1v-9.74c0-.56-.51-.65-.84-.65h-1.33V216h.32a6.67,6.67,0,0,0,2.84-.75c.13-.08.18-.11.25-.11s.19.11.19.25V226.9c0,.77.37,1.1,1.22,1.1h1v.57h-5.79Z"/><path d="M409.52,225a4,4,0,0,1-4.12,4c-2,0-3.77-1.19-3.77-3.25s1.5-2.86,3.11-3.83c-.92-.56-2.6-1.57-2.6-3.53a3.24,3.24,0,0,1,3.49-3.22,3,3,0,0,1,3.19,2.84c0,1.53-1.43,2.65-2.18,3.23C408.28,222.2,409.52,223.1,409.52,225Zm-6.42.67a2.55,2.55,0,0,0,2.51,2.68,2.76,2.76,0,0,0,2.66-2.72c0-1.71-1.73-2.71-3-3.45A4.59,4.59,0,0,0,403.1,225.62Zm4.45-7.49a2.24,2.24,0,0,0-2.16-2.43,2,2,0,0,0-2.06,2.14c0,1.26,1,1.89,2.81,3A3.48,3.48,0,0,0,407.55,218.13Z"/><path d="M418.46,215.09h.72v9.14h2v.58h-2v2.09c0,.79.38,1.1,1.22,1.1h.28v.57h-4.43V228h.28c.82,0,1.22-.29,1.22-1.1v-2.09h-4.7v-.63Zm-.71,2.37-4,6.77h4Z"/><path d="M425.73,228h1c.91,0,1.22-.36,1.22-1.1v-9.74c0-.56-.51-.65-.84-.65h-1.32V216h.31a6.62,6.62,0,0,0,2.84-.75c.13-.08.18-.11.25-.11s.19.11.19.25V226.9c0,.77.37,1.1,1.22,1.1h1v.57h-5.79Z"/><path d="M437.69,216.85l-.16,4.54a3.64,3.64,0,0,1,2.71-1.24c2.51,0,3.71,2.14,3.71,4.12a4.51,4.51,0,0,1-4.31,4.65,3.17,3.17,0,0,1-3.3-2.65,1,1,0,0,1,1-1.12.87.87,0,0,1,.9.94,1.83,1.83,0,0,1-.08.54,2.34,2.34,0,0,0-.06.5c0,.78.79,1.17,1.49,1.17,1.41,0,2.74-1.38,2.74-3.8S441.18,221,439.9,221a3.76,3.76,0,0,0-2.72,1.56l-.26-.14.26-6.95h6.08l-.35,1.42Z"/><path d="M463.75,220.71h-8.66c-.45.86-1,2-1.18,2.59h4.89l.62-.56a.5.5,0,0,1,.27-.14c.08,0,.19.1.27.19l.88.83a.46.46,0,0,1,.15.29c0,.23-.33.32-.87.49-.78,3.76-1.19,5.74-4.5,5.67a3,3,0,0,0-1.75-2l0-.11a14.9,14.9,0,0,0,2.95.47c.87,0,1.41-.6,2.06-4.65h-5.17a16.64,16.64,0,0,1-1,2.05.77.77,0,0,1-.68.31c-.29,0-.68-.16-.68-.45a.76.76,0,0,1,.11-.36c1-2.05,1.17-2.31,2.18-4.57h-3.27a11.15,11.15,0,0,0-2.06.16l-.35-.71c1.38.11,2.38.11,2.69.11h10.67l.78-1c.09-.11.18-.21.28-.21a.65.65,0,0,1,.32.18l1.08,1a.37.37,0,0,1,.17.26C464,220.71,463.84,220.71,463.75,220.71Zm-3.58-5.48c0,.7,0,2.49,0,3.15,0,.25,0,.74-.75.74-.56,0-.59-.27-.54-.88h-6c0,.45,0,1-.86,1a.47.47,0,0,1-.47-.47c0-.13.07-.7.07-.83,0-.63.09-1.48.09-2.36a7.68,7.68,0,0,0-.21-2l1.62.79h5.66l.35-.43c.07-.09.17-.2.24-.2a.74.74,0,0,1,.28.14l.84.53a.39.39,0,0,1,.19.3C460.66,214.8,460.54,214.94,460.17,215.23Zm-1.25-.45h-6v3h6Z"/><path d="M45.15,251.53a10.61,10.61,0,0,1,0-16.45l.15.23a11.76,11.76,0,0,0,0,16Z"/><path d="M54.44,238c-1.6,2.51-2.86,4.4-6,6.29l-.08-.12c2.65-2.64,5-6.12,4.86-7.86l1.69,1a.37.37,0,0,1,.19.29C55.09,237.83,55,237.91,54.44,238Zm6.81,12.32c-.4,0-.68-.27-.88-.75L59.68,248a79.7,79.7,0,0,1-8.23,2.07c-.28.38-.36.46-.51.46s-.23-.17-.27-.27l-.54-1.77a6.74,6.74,0,0,0,1.35.15c.13,0,1.09-.08,1.29-.1A32.43,32.43,0,0,0,55,242.38a3.59,3.59,0,0,0,.05-1l1.71.75c.1,0,.25.13.25.29s-.2.29-.56.4c-.18.31-.31.55-1.52,2.72-.49.87-1,1.79-1.76,2.91,1.9-.2,4.24-.49,6.35-.78a9.28,9.28,0,0,0-2-2.23l.05-.12c1.93.73,4.37,2.43,4.37,4.1C62,250.19,61.45,250.34,61.25,250.34Zm1-6.58A9,9,0,0,1,59.2,241a8.57,8.57,0,0,1-1.61-4.06,13.38,13.38,0,0,0-2.17.19l-.34-.68c.43,0,1.27.08,2.13.08l.47-.57c.12-.14.19-.23.27-.23s.18.07.34.19l.73.55a.33.33,0,0,1,.17.25c0,.15-.12.22-.38.34l-.76.31a7,7,0,0,0,5.89,4.86v.12A2.65,2.65,0,0,0,62.3,243.76Z"/><path d="M72.16,245c-.38,0-.56-.32-.69-.58a11.34,11.34,0,0,0-1.35-2.18c0,4.51,0,5,0,6.24,0,.26.07,1.4.07,1.62a.76.76,0,0,1-.81.76.45.45,0,0,1-.51-.52c0-.19.06-1,.06-1.18,0-1.31,0-1.65.09-5.81a12.85,12.85,0,0,1-3.27,2.5l-.06-.12a25.93,25.93,0,0,0,5-6.44H68.37a11,11,0,0,0-2,.15l-.31-.66c1.12.08,2.29.1,2.52.1h.43a8.74,8.74,0,0,0-.43-3.33l1.9.56a.28.28,0,0,1,.2.22c0,.2-.2.34-.53.51a19.69,19.69,0,0,0,0,2h.59l.41-.44c.12-.12.2-.17.3-.17s.17.07.27.15l.74.68a.3.3,0,0,1,.11.24c0,.25-.26.32-.79.39A23.51,23.51,0,0,1,70.18,242a6.26,6.26,0,0,1,1.75.93,1.64,1.64,0,0,1,.83,1.29C72.76,244.51,72.61,245,72.16,245Zm8.66,4.84h-7a10.92,10.92,0,0,0-1.94.16l-.33-.68c1.15.1,2.39.11,2.54.11h1.61c0-1.73,0-4.48,0-6.22,0-.81,0-.93,0-1.46h-1a11.63,11.63,0,0,0-1.94.15l-.33-.68c1.1.11,2.24.12,2.54.12h.71c0-.29,0-1.41,0-1.7,0-2.73,0-3.09-.48-4.08L77,236c.25.05.4.17.4.32s-.31.41-.56.51c0,.42,0,3.79,0,4.5h1.67l.61-.83c.1-.13.16-.2.26-.2s.18.07.32.18l.9.82a.41.41,0,0,1,.17.27c0,.12-.13.17-.25.17H76.86v4.61l0,3.07h1.76l.78-.88c.11-.13.2-.19.28-.19a.46.46,0,0,1,.31.17l.91.87a.49.49,0,0,1,.15.27C81.07,249.76,80.92,249.81,80.82,249.81Z"/><path d="M84.4,251.53l-.15-.24a11.76,11.76,0,0,0,0-16l.15-.23a10.62,10.62,0,0,1,0,16.45Z"/><path d="M98,238.75l.46-.43c.08-.08.2-.2.26-.2a.74.74,0,0,1,.25.17l.64.49c.09.07.2.17.2.29s-.18.25-.72.46a20.7,20.7,0,0,1-1.87,2.58v.12c1.19.22,2.43.85,2.43,1.79a.65.65,0,0,1-.63.64c-.3,0-.49-.17-.71-.66a3.8,3.8,0,0,0-1.09-1.56v4c0,.26.07,3.64.07,3.76,0,.56-.18.87-.84.87-.45,0-.45-.26-.45-.5,0-1,.15-6.17.18-7.34a12.61,12.61,0,0,1-3.21,2.21l-.07-.1a24.45,24.45,0,0,0,5-6.16H95.91a11,11,0,0,0-1.93.16l-.33-.68c.69.07,1.7.12,2.42.12a9.56,9.56,0,0,0-.36-3.3l1.66.48c.09,0,.27.08.27.23s-.15.28-.48.48c0,.29,0,1.68,0,2.11Zm8.26-2,.55-.55c.06-.05.21-.22.26-.22s.2.11.31.19l.7.54c.1.09.18.17.18.26s-.15.19-.27.19h-6.18a11,11,0,0,0-1.93.15l-.33-.68c1.2.1,2.24.12,2.54.12Zm0,7.27.46-.52c.06-.09.15-.17.21-.17a.5.5,0,0,1,.23.13l.76.56a.4.4,0,0,1,.17.26c0,.1-.15.25-.5.53,0,.13,0,.37,0,.49,0,.61.13,4,.13,4.72a.7.7,0,0,1-.79.67c-.45,0-.45-.21-.41-.8h-5.18c0,.59-.18.95-.78.95-.41,0-.41-.25-.41-.41,0-.59.07-3.19.07-3.72a22.24,22.24,0,0,0-.19-3.59l1.5.9Zm-.9-5.18.4-.41c.08-.08.17-.19.23-.19s.13.07.2.12l.68.56a.4.4,0,0,1,.16.28c0,.11-.15.23-.46.4,0,.4.08,2.08.08,2.42a.71.71,0,0,1-.77.73c-.4,0-.4-.24-.4-.65h-3.56c0,.27,0,.79-.7.79-.33,0-.46-.16-.46-.6,0-.22,0-1.77,0-2.11a20,20,0,0,0-.12-2.11l1.35.77Zm-4.07,5.59v2.25h2v-2.25Zm0,2.65v2.4h2v-2.4Zm.61-7.83v2.44h3.6v-2.44Zm4.59,7.43v-2.25h-2.1v2.25Zm0,2.8v-2.4h-2.1v2.4Z"/><path d="M124.8,237.74c0,.63.08,9.8.08,11,0,1.08,0,2-1.86,2.38-.23-.94-.83-1.26-1.67-1.72l0-.12c.33,0,1.34.14,1.63.14s.55-.07.6-.28.06-5.27.06-6,0-5.6,0-6.1h-9.84c0,.61,0,7.24,0,8.43,0,.73.06,4,.06,4.61a.83.83,0,0,1-.89.93c-.24,0-.48-.08-.48-.64,0-.24.12-1.31.12-1.51,0-1.16.07-7.47.07-8.6a30.48,30.48,0,0,0-.19-4.42l1.59.79h9.4l.43-.49c.07-.08.11-.13.21-.13a.42.42,0,0,1,.2.1l.89.66c.12.08.2.14.2.27S125.34,237.37,124.8,237.74ZM123,241.69h-3.8v5.37h1.6c0-2,0-2.24,0-3a3.32,3.32,0,0,0-.25-1.12l1.45.26c.15,0,.35.08.35.29s-.07.22-.41.42c0,.27,0,1.57,0,1.87s0,1.58,0,1.87a.7.7,0,0,1-.76.75c-.46,0-.45-.24-.43-.95h-4.26c0,.12,0,.66,0,.78a.71.71,0,0,1-.73.81.43.43,0,0,1-.46-.47c0-.19.08-.73.08-2.47a10.6,10.6,0,0,0-.21-3.22l1.53.37c.14,0,.28.07.28.24s0,.17-.49.47v3.08h1.57v-5.37h-1.65a10.85,10.85,0,0,0-1.93.15l-.33-.68c1.32.12,2.27.12,2.54.12h1.89a9.38,9.38,0,0,0,1-3.84l1.69,1a.29.29,0,0,1,.16.23c0,.22-.25.28-.71.37-.44.51-1.2,1.5-1.78,2.26h2.19l.56-.66c.1-.1.19-.21.25-.21s.2.09.32.17l.77.67a.33.33,0,0,1,.17.25C123.27,241.67,123.1,241.69,123,241.69Zm-5.69-.85c-.41,0-.53-.36-.76-1.07a4.65,4.65,0,0,0-.91-1.84l.08-.1c.22.08,2.28,1,2.28,2.24A.73.73,0,0,1,117.33,240.84Z"/><path d="M133.34,247.69a10,10,0,0,1-4.52,2.68l0-.1a16.21,16.21,0,0,0,2.83-2.55c.78-.88.86-1.15.93-1.53l1.3.89c.13.08.21.17.21.28S133.73,247.67,133.34,247.69Zm10.26-1.8h-6.75c0,.32,0,1.1,0,2.12,0,.68.08,1.75.08,2.43a.84.84,0,0,1-.91.85c-.29,0-.47-.12-.47-.52s.09-2.32.09-2.71c0-1.21,0-1.85,0-2.17h-4.44c0,.78-.84.78-.9.78-.37,0-.42-.26-.42-.48s.1-1.58.12-1.88c0-1.25.05-2.35.05-3.68a19.9,19.9,0,0,0-.18-4.21l1.55.49c.16.05.33.1.33.26s-.22.32-.51.52c-.05,1.09-.07,2.21-.07,3.3,0,.49,0,3.88,0,4.49h10.07l.8-.9c.1-.12.17-.21.28-.21s.22.12.28.17l1,.9a.37.37,0,0,1,.16.28C143.86,245.87,143.71,245.89,143.6,245.89Zm-3-8.57c0,.7-.07,2.09.08,5.66,0,.05,0,.44,0,.48a.74.74,0,0,1-.81.78c-.48,0-.46-.33-.46-.78h-4.93c0,.25,0,.83-.83.83-.43,0-.44-.22-.44-.41s0-.29,0-.36c0-.39.12-3.41.12-5.18a12.06,12.06,0,0,0-.25-2.77l1.63.8h4.59l.48-.48c.11-.12.16-.19.28-.19s.2.11.25.16l.67.58a.41.41,0,0,1,.18.3C141.17,236.91,140.79,237.17,140.58,237.32Zm-1.15-.55h-5v1.82h5Zm0,2.23h-5v1.77h5Zm0,2.18h-5v1.87h5Zm2.44,9.16c-.43,0-.61-.31-1.06-1a7,7,0,0,0-2.42-2.45l.05-.11c2.29.39,4.14,1.8,4.14,2.89A.69.69,0,0,1,141.87,250.34Z"/><path d="M160.06,239.41a10.41,10.41,0,0,0-1.49,1l-.08-.05a9,9,0,0,0,.51-1.76h-9.6c0,1.91-1,2.81-1.67,2.81a.69.69,0,0,1-.7-.66c0-.43.37-.73.84-1.11a3,3,0,0,0,1.27-2.11h.09a3.11,3.11,0,0,1,.14.67h4.25a6.36,6.36,0,0,0-.33-2.71L155,236c.18,0,.25.16.25.26s-.12.25-.5.52v1.42h4.17l.52-.5a.51.51,0,0,1,.31-.17c.11,0,.23.12.31.21l1,1a.63.63,0,0,1,.2.42C161.23,239.27,161.14,239.41,160.06,239.41ZM161,250c-.71.53-2.72.54-3.66.54-3.74,0-4.5,0-4.57-1.66,0-.27,0-2.62,0-3l-3.39.64a9.2,9.2,0,0,0-1.88.51l-.45-.61c.84-.09,1.68-.19,2.53-.34l3.19-.61c0-.43,0-2.53,0-3a22.17,22.17,0,0,1-5.31,1v-.12c.24-.05,7.49-2.09,8.71-3.82l1.1,1.12a.38.38,0,0,1,.12.29c0,.15-.17.22-.25.22l-.59,0a23.7,23.7,0,0,1-2.63,1c0,.46,0,2.67,0,3.17l5-.94.61-1c.08-.13.15-.25.25-.25a.68.68,0,0,1,.3.12l1.12.66a.38.38,0,0,1,.21.27c0,.14-.1.17-.21.19l-7.28,1.37c0,1.3,0,2.23,0,3.1a.51.51,0,0,0,.33.54,12.87,12.87,0,0,0,3,.14c2.51,0,2.79,0,3.3-3.18h.1c.08.46.2,1.15.31,1.73s.13.65.33.84.27.23.27.4C161.61,249.54,161.26,249.83,161,250Z"/><path d="M170.38,241.64h-1.93v5.47c1.33-.41,1.71-.56,2.09-.7l.07.14a17.92,17.92,0,0,1-2.38,1.44c-.67.36-1.53.8-2,1.06-.15.35-.21.54-.41.54s-.21-.12-.26-.2l-.86-1.51a6.71,6.71,0,0,0,2.7-.46c0-.58,0-3.17,0-3.69v-2.09h-.33a11.11,11.11,0,0,0-1.95.15l-.31-.68c1,.08,2,.12,2.59.12,0-.85,0-1.7,0-2.55a9.83,9.83,0,0,0-.21-2.52l1.67.58c.08,0,.23.1.23.26s-.33.46-.56.61c0,1.19,0,1.77-.05,3.62h.39l.5-.56c.15-.17.19-.22.28-.22s.2.12.28.18l.58.56a.4.4,0,0,1,.14.26C170.62,241.62,170.48,241.64,170.38,241.64Zm7.37,8.7c-.38.07-3.3.07-3.76.07-2.71,0-3.19-.14-3.19-2,0-.66,0-3.59,0-4.18,0-.17,0-.94,0-1.09a8.91,8.91,0,0,0-1.6.9l-.56-.48a23.17,23.17,0,0,0,2.16-.88v-3a9.38,9.38,0,0,0-.18-2l1.53.54c.12,0,.25.11.25.24s-.13.27-.53.56c0,.51,0,2.72,0,3.16l1.79-.83c0-1.7,0-2.9,0-4.09a11,11,0,0,0-.2-1.5l1.59.54c.16,0,.28.14.28.26s-.23.35-.58.63c0,1.53,0,1.75,0,3.69l1.6-.73.39-.69c.09-.13.17-.28.28-.28a.56.56,0,0,1,.32.13l.77.5a.33.33,0,0,1,.17.27c0,.2-.18.37-.41.59,0,5.1,0,6.27-2,6.8a2.18,2.18,0,0,0-1-1.43V246a3.92,3.92,0,0,0,.51,0c1.16,0,1.34-.15,1.34-3.74,0-1.15,0-1.34,0-1.83l-2,.91c0,2.5,0,4.14,0,4.59,0,.23.05,1.23.05,1.43a.78.78,0,0,1-.84.85c-.23,0-.39-.08-.39-.44,0-.19,0-1,0-1.22,0-1.09,0-1.74,0-4.73l-1.79.83c0,.68,0,5.9,0,6.11a.57.57,0,0,0,.4.47c.21.07,2.57.07,2.89.07,1.7,0,2.21,0,2.55-.63a14.33,14.33,0,0,0,.73-2.06h.11a6.4,6.4,0,0,0,.32,2c.1.17.38.32.38.49S179,250.12,177.75,250.34Z"/><path d="M196.15,250.51c-6-.08-8.56-.12-10.79-2.35A7.72,7.72,0,0,1,182,251.1l-.1-.1a10.54,10.54,0,0,0,2.85-3.53,8.44,8.44,0,0,1-1.53-3.28l.17-.14a7.58,7.58,0,0,0,1.66,2.79,12,12,0,0,0,.92-4.63h-1.38c-.33,1-.41,1.21-1,1.21-.11,0-.59,0-.59-.39,0-.1.25-.8.39-1.21.86-2.27,1.54-4.13,1.74-4.88h-.6a10.06,10.06,0,0,0-1.94.16l-.32-.68c.84.07,1.69.12,2.53.12h.29l.43-.36c.15-.12.23-.17.32-.17a.63.63,0,0,1,.28.17l.64.56a.36.36,0,0,1,.16.31c0,.2-.33.35-.75.54-.37.95-.58,1.53-1.49,4.22h1.12l.45-.36a.64.64,0,0,1,.31-.17c.12,0,.2.07.32.19l.51.54a.57.57,0,0,1,.19.36c0,.15-.16.25-.51.47a12,12,0,0,1-1.35,4.68,8.88,8.88,0,0,0,5.74,1.68,37.2,37.2,0,0,0,5.81-.49l0,.13A2.1,2.1,0,0,0,196.15,250.51Zm1-10.59h-2.28c.07,2,.07,2,.07,2.14,0,.34,0,.87-.8.87-.44,0-.43-.27-.41-.56h-2v1.77h2.48l.49-.65c.12-.14.18-.22.28-.22s.18.08.31.19l.75.64a.54.54,0,0,1,.16.26c0,.15-.11.18-.25.18h-4.22l0,1.81h2.93l.63-.75c.13-.16.2-.22.28-.22s.18.06.3.18l.77.75a.41.41,0,0,1,.17.29c0,.1-.1.15-.25.15H191.7c0,.21,0,1.21,0,1.43a.78.78,0,0,1-.73.61c-.53,0-.53-.3-.53-.49s.09-1.29.09-1.55h-1.12a11,11,0,0,0-1.93.16l-.33-.67c1.28.11,2.5.11,2.54.11h.85c0-.46,0-.89,0-1.81h-.5a10.63,10.63,0,0,0-1.93.16l-.33-.67c.5,0,1.42.11,2.77.11v-1.77h-.33a11.82,11.82,0,0,0-1.94.15l-.33-.66c1.18.08,2.44.1,2.6.1l0-2h-1.53a11.45,11.45,0,0,0-1.93.15l-.33-.68a23.62,23.62,0,0,0,2.52.12h1.27l0-2h-.39a12.46,12.46,0,0,0-1.95.16l-.31-.68c1.15.1,2.22.12,2.64.12a3.16,3.16,0,0,0-.25-1.59l1.58.4c.18,0,.28.11.28.27s-.19.3-.46.46v.46h1.92l.41-.38a.5.5,0,0,1,.29-.17c.1,0,.19.09.3.19l.46.46a.48.48,0,0,1,.2.32c0,.14-.13.24-.46.48a10.2,10.2,0,0,0,0,1.49h.59l.48-.63c.1-.13.18-.2.27-.2a.57.57,0,0,1,.31.17l.71.63c.08.08.16.17.16.25S197.29,239.92,197.13,239.92Zm-3.39,0h-2l0,2h2.06Zm0-2.4h-2l0,2h2Z"/><path d="M204.43,244.75c0,2.05,0,2.41,0,3.4,0,.59.07,1.54.07,2.14s-.71.78-.86.78c-.36,0-.45-.22-.45-.47,0-.07,0-.7,0-.82.06-1.28.06-1.73.1-4.45a16.76,16.76,0,0,1-2,1c0,.31-.05.6-.32.6s-.28-.19-.33-.29l-.77-1.53c1,.05,1.3,0,3.46-.65,0-1.49,0-3.17,0-4.47h-1.48a13.91,13.91,0,0,1-1.47,3.76l-.1,0a27.77,27.77,0,0,0,.74-5.9,3.11,3.11,0,0,0-.16-1.16l1.58.39c.13,0,.28.07.28.26s-.23.34-.49.44c-.09.8-.17,1.31-.28,1.84h1.37c0-2.4-.09-3.1-.45-4l1.81.55c.1,0,.25.12.25.23s-.28.36-.53.5c0,.35,0,2.16,0,2.67h.33l.46-.65c.08-.1.16-.22.25-.22a.48.48,0,0,1,.29.19l.66.64a.39.39,0,0,1,.15.26c0,.15-.15.18-.25.18h-1.89c0,1.09,0,3,0,4.08.33-.12,1.86-.66,2.16-.78l0,.12A20.8,20.8,0,0,1,204.43,244.75Zm9.73-4.61c-.13,3.55-.26,6.78-1.3,9a3.15,3.15,0,0,1-2.56,1.72,2.79,2.79,0,0,0-1.4-2l0-.11a7,7,0,0,0,2,.35c.4,0,.66,0,1.12-1.2a27,27,0,0,0,.93-8.23h-.94c-.48,3.84-2.06,8.79-6.83,10.64l-.05-.12c3.5-2.7,5-5.58,5.67-10.52h-.92c-.68,3.58-2.54,6.68-4.93,7.83l-.05-.1a14.69,14.69,0,0,0,3.78-7.73h-.83a10.74,10.74,0,0,1-2.23,3.38l-.08-.08a19.39,19.39,0,0,0,2.13-6.94,2.28,2.28,0,0,0-.08-.58l1.65.68c.16.07.24.17.24.27s-.31.31-.57.38c-.43,1.36-.71,2.05-.88,2.48h4.75l.4-.43c.1-.11.18-.18.25-.18a.72.72,0,0,1,.29.15l.78.6c.11.08.18.13.18.23C214.72,239.87,214.34,240.06,214.16,240.14Z"/><path d="M231.87,250.36a8.87,8.87,0,0,1-3.45-3.4,8.78,8.78,0,0,1-3.84,3c0,.61,0,1.22-.84,1.22-.51,0-.51-.32-.51-.65s.08-1.66.1-2,0-2,0-2.44a31.07,31.07,0,0,1-4.3,1.82c-.14.43-.23.56-.4.56s-.23-.11-.3-.28l-.62-1.67a4.09,4.09,0,0,0,.74.1,11.77,11.77,0,0,0,1.3-.15v-9.4a10.35,10.35,0,0,0-1.51.15l-.33-.68c1.3.12,2.52.12,2.54.12h4.35l.71-.8c.13-.15.2-.2.28-.2s.18.05.33.18l.82.79a.39.39,0,0,1,.15.27c0,.13-.1.17-.24.17H224.5c0,6.44-.05,7.15.08,12.66a10.28,10.28,0,0,0,3.3-3.84,18.79,18.79,0,0,1-1.55-7.36,3.42,3.42,0,0,0-.84.12l-.33-.68c1.28.1,2.5.1,2.52.1H230l.46-.54c.15-.17.2-.22.28-.22s.18,0,.35.18l.75.6a.54.54,0,0,1,.23.3.28.28,0,0,1-.14.29,4.52,4.52,0,0,1-.75.48,21.14,21.14,0,0,1-2.14,6.87,8.4,8.4,0,0,0,4.32,3.06v.08A2.45,2.45,0,0,0,231.87,250.36Zm-8.53-13.26H220.9v2.72h2.44Zm0,3.13H220.9V243h2.44Zm0,3.16H220.9v2.92c.86-.17,2.08-.39,2.44-.49Zm4.08-4.88-.76,0a20.15,20.15,0,0,0,1.7,6.43,18.3,18.3,0,0,0,1.6-6.46Z"/><path d="M238.43,240.19h2.9v-3.11H238.1a11.86,11.86,0,0,0-1.95.15l-.31-.66c1.09.09,2.21.1,2.52.1h2.89l.38-.42c.08-.09.15-.19.26-.19a.87.87,0,0,1,.25.1l.64.43a.38.38,0,0,1,.25.32c0,.15-.16.31-.58.6,0,.51.07,2.77.07,3.21a.67.67,0,0,1-.15.47.88.88,0,0,1-.67.28c-.37,0-.47-.17-.38-.87h-3.15c-.07.39-.45,2.74-.47,2.82h3.37l.46-.52a.37.37,0,0,1,.28-.19.52.52,0,0,1,.26.12l.68.51a.38.38,0,0,1,.18.3c0,.21-.23.36-.49.5-.18,2.21-.81,4.5-1.7,5.55a3.59,3.59,0,0,1-2.61,1.11,3.32,3.32,0,0,0-1.27-1.92v-.1a9.7,9.7,0,0,0,2.23.35c.35,0,.74,0,1.14-.76a11.08,11.08,0,0,0,1-4.54h-3.62a5.67,5.67,0,0,1-.19,1.26,1,1,0,0,1-.83.47.39.39,0,0,1-.44-.39c0-.15.46-2.12.52-2.48a14.47,14.47,0,0,0,.3-3.25Zm10.37-3.89c.15,0,.3,0,.3.24s-.15.34-.56.58c0,.32,0,4.48,0,7.71,0,.82.13,4.46.13,5.2a.81.81,0,0,1-.22.67,1.35,1.35,0,0,1-.74.27c-.38,0-.44-.31-.44-.56,0-.1,0-.21,0-.43.08-1.37.08-3.14.08-3.84,0-6.34,0-8-.06-8.55a10.71,10.71,0,0,0-.3-1.7Z"/><path d="M267.69,239.41h-5.15l.86.53c.06.05.16.15.16.24s-.31.23-.61.25c-.46.51-1.14,1.1-1.45,1.38h2.82l.64-.75c.09-.1.19-.21.27-.21a.7.7,0,0,1,.3.17l.75.75a.37.37,0,0,1,.15.26c0,.17-.13.18-.24.18h-5.27c0,.21,0,1.14,0,1.33h2.33l.57-.61c.1-.1.2-.2.28-.2s.17.08.32.18l.81.58c.08.07.18.15.18.27s-.14.19-.25.19h-4.24v1.48h4.24l.74-.87c.12-.14.17-.2.27-.2s.21.1.29.17l.91.86c.08.09.16.16.16.28s-.14.17-.26.17h-6a9.87,9.87,0,0,0,6.43,3.28l0,.1a2.78,2.78,0,0,0-1.52,1.38,10.55,10.55,0,0,1-5.21-4.76h-.05c0,1.54,0,1.85,0,2.17s.1,2.07.1,2.43a.76.76,0,0,1-.84.7c-.44,0-.48-.27-.48-.53s.05-1,.07-1.39c0-.56,0-.82.05-3.18a12.29,12.29,0,0,1-6.55,4.59l0-.1a15.39,15.39,0,0,0,5.28-4.69h-2.92a11.6,11.6,0,0,0-2,.15l-.33-.68c1.1.1,2.23.12,2.54.12h4V244H257a12,12,0,0,0-2,.15l-.32-.68c1.13.1,2.32.12,2.54.12h2.62v-1.33H256.4a10.88,10.88,0,0,0-1.93.16l-.33-.68c1.11.1,2.26.12,2.54.12h4.49a8.64,8.64,0,0,0,.83-2.4h-4.69c1,.32,1.83.83,1.83,1.65a.65.65,0,0,1-.66.68c-.38,0-.43-.1-.82-1.12a4.07,4.07,0,0,0-.68-1.21h-1.71a10.06,10.06,0,0,0-2,.15l-.31-.68c1.12.1,2.29.12,2.52.12h3.1a12,12,0,0,0-.28-3.5l1.6.48c.15.05.23.1.23.25s-.18.29-.49.41V239h1.22c0-2.16,0-2.65-.35-3.5l1.68.46c.1,0,.28.08.28.25s-.39.39-.54.45V239h.71a12.67,12.67,0,0,0,.86-2.38,3.83,3.83,0,0,0,.08-.81l1.47.76a.28.28,0,0,1,.19.24c0,.25-.39.31-.57.32-.51.56-1.39,1.53-1.72,1.87h2.59l.71-.76c.13-.14.2-.22.26-.22a.58.58,0,0,1,.33.18l.86.75c.1.09.18.15.18.27S267.79,239.41,267.69,239.41ZM257,238.63c-.39,0-.51-.27-.82-1a3.72,3.72,0,0,0-1-1.34l.07-.12c.66.17,2.31.63,2.31,1.82A.63.63,0,0,1,257,238.63Z"/><path d="M275.9,240h-2.33c0,3.72,0,4.54,0,5.57,0,.75,0,4.07,0,4.75,0,.3,0,.83-.81.83a.44.44,0,0,1-.48-.48c0-.25.1-1.43.12-1.68,0-1.22,0-1.75.06-5,0-2.39,0-2.53,0-4a12,12,0,0,0-1.88.15l-.33-.66c.47,0,1,.08,2.21.1,0-2.52,0-3.38-.38-4.1L274,236a.26.26,0,0,1,.21.24c0,.17-.05.2-.57.51,0,.46,0,2.43,0,2.82h.77l.5-.54c.08-.11.18-.23.26-.23a.61.61,0,0,1,.3.19l.59.56a.37.37,0,0,1,.15.26C276.14,240,276,240,275.9,240Zm3.81,5.22c-.43,4.76-.93,5.44-2.68,5.62-.16-1-.21-1.14-.87-1.68l0-.14a3.82,3.82,0,0,0,1.32.29c.43,0,.53-.1.79-1.42a16.65,16.65,0,0,0,.36-3.15h-1.2c-.31,2-1.16,4.71-3.56,5.93l-.07-.08a8.86,8.86,0,0,0,2.57-5.83,9.21,9.21,0,0,0-1.65.15l-.33-.68c.61.05,1.09.09,2,.1a6.72,6.72,0,0,0-.1-2l1.5.54a.26.26,0,0,1,.21.24c0,.13-.36.37-.44.42,0,.33,0,.46-.08.85h1l.4-.42c.12-.12.17-.17.23-.17s.15.08.22.15l.67.61a.34.34,0,0,1,.13.24C280.18,244.85,280.13,244.88,279.71,245.21Zm3.81-6.9c-.73,3.43-1.87,3.55-2.86,3.67a2.38,2.38,0,0,0-1-1.8l.07-.11a4.55,4.55,0,0,0,1.48.41c.85,0,1.22-1.95,1.41-2.89h-2.43a6.51,6.51,0,0,1-4.57,4.76v-.1a8,8,0,0,0,3.48-4.66h-.86a10.11,10.11,0,0,0-1.95.15l-.33-.68c1.14.11,2.31.12,2.54.12h.7a8.1,8.1,0,0,0,.11-1.19,1.64,1.64,0,0,0-.11-.66l1.68.53a.18.18,0,0,1,.15.17c0,.1-.27.27-.53.44-.1.41-.13.53-.18.71h2.12l.27-.34a.39.39,0,0,1,.28-.15.3.3,0,0,1,.23.1l.87.75a.28.28,0,0,1,.14.22C284.18,238,283.76,238.17,283.52,238.31Zm1.76,6.61a2.38,2.38,0,0,0-.35.24c0,1.78-.24,4.07-.75,4.92a2.3,2.3,0,0,1-2,1,2.91,2.91,0,0,0-.94-1.67l.05-.13a4.49,4.49,0,0,0,1.4.28c.66,0,.71-.3.91-1.42a22.53,22.53,0,0,0,.24-3.37h-1.22c-.43,2.47-1.05,4.68-3.84,6.1l-.05-.08a9.61,9.61,0,0,0,2.87-6,6.22,6.22,0,0,0-.76.1l-.33-.68c.56.06.81.07,1.16.09,0-.17,0-.6,0-1.24a3.86,3.86,0,0,0-.13-1.28l1.57.58a.32.32,0,0,1,.21.26c0,.18-.42.4-.51.46-.06.62-.1.91-.16,1.24h1l.42-.49c.06-.08.15-.17.19-.17a.44.44,0,0,1,.25.12l.79.61a.35.35,0,0,1,.15.22C285.51,244.78,285.4,244.85,285.28,244.92Z"/><path d="M302.17,242.69a12.89,12.89,0,0,1-6-6.12l-.07,0a18.61,18.61,0,0,1-7.55,6.81l0-.1a22.81,22.81,0,0,0,6.07-6.78,3,3,0,0,0,.49-1.16l1.67.55c.08,0,.26.12.26.29s-.16.24-.51.32a11,11,0,0,0,7.29,4.76v.12A3.22,3.22,0,0,0,302.17,242.69Zm.13,2.38h-6.62A25,25,0,0,1,293,249c2-.13,4.59-.39,6.45-.63A9.88,9.88,0,0,0,297.6,246l.1-.1c2.26,1.05,4.05,2.77,4.05,4.19,0,.28-.18.84-.72.84s-.76-.46-1-1.06a7.78,7.78,0,0,0-.5-1.24c-1.34.43-7.41,1.75-8.35,1.91-.1.22-.14.37-.29.37s-.22-.17-.27-.3l-.69-1.72a6.58,6.58,0,0,0,1.47.15c.34,0,.67,0,1.19-.05a25.73,25.73,0,0,0,1.35-3.91h-2.33a12,12,0,0,0-1.93.15l-.33-.66c1.31.1,2.25.1,2.53.1h7.91l.85-.93c.11-.14.19-.21.28-.21s.18.09.29.17l1.14.94a.37.37,0,0,1,.17.25C302.55,245.07,302.38,245.07,302.3,245.07Zm-3.61-2.94h-4.24a12,12,0,0,0-1.95.15l-.33-.68c1.14.1,2.33.12,2.54.12h1.85l.74-.85c.08-.08.17-.2.26-.2a.61.61,0,0,1,.3.17l.91.85c.08.08.16.15.16.27S298.79,242.13,298.69,242.13Z"/><path d="M320,242.69a12.89,12.89,0,0,1-6-6.12l-.07,0a18.57,18.57,0,0,1-7.56,6.81l-.05-.1a22.7,22.7,0,0,0,6.08-6.78,3.16,3.16,0,0,0,.49-1.16l1.67.55c.08,0,.26.12.26.29s-.17.24-.51.32a11,11,0,0,0,7.29,4.76v.12A3.22,3.22,0,0,0,320,242.69Zm.13,2.38h-6.62a25,25,0,0,1-2.72,3.89c2-.13,4.59-.39,6.45-.63a9.88,9.88,0,0,0-1.81-2.34l.1-.1c2.26,1.05,4.05,2.77,4.05,4.19,0,.28-.18.84-.72.84s-.76-.46-1-1.06a7,7,0,0,0-.49-1.24c-1.34.43-7.41,1.75-8.35,1.91-.1.22-.15.37-.29.37s-.22-.17-.27-.3l-.69-1.72a6.58,6.58,0,0,0,1.47.15c.34,0,.67,0,1.18-.05a24.71,24.71,0,0,0,1.36-3.91h-2.33a12,12,0,0,0-1.93.15l-.33-.66c1.31.1,2.25.1,2.53.1h7.91l.84-.93c.12-.14.2-.21.29-.21s.18.09.29.17l1.14.94a.37.37,0,0,1,.17.25C320.36,245.07,320.19,245.07,320.11,245.07Zm-3.61-2.94h-4.24a12,12,0,0,0-1.95.15l-.33-.68c1.14.1,2.33.12,2.54.12h1.85l.74-.85c.08-.08.16-.2.26-.2a.61.61,0,0,1,.3.17l.91.85c.08.08.16.15.16.27S316.59,242.13,316.5,242.13Z"/><path d="M324.11,251a17.09,17.09,0,0,0,3.78-2.17,3.25,3.25,0,0,0,1.09-1.19l1.42.92c.06.05.18.15.18.27s-.42.27-.94.29a13.21,13.21,0,0,1-5.51,2Zm11.05-10.23.41-.42c.07-.07.17-.21.27-.21s.13.05.25.14l.71.56a.45.45,0,0,1,.21.32c0,.15-.23.32-.61.54,0,.72.1,5.22.1,5.65a.81.81,0,0,1-.79.83c-.47,0-.45-.41-.43-.66h-7.44c0,.41-.07.9-.79.9a.44.44,0,0,1-.48-.51c0-.24.06-.82.06-.95,0-.48.07-2.33.07-4.17a9.33,9.33,0,0,0-.18-2.6l1.53.58Zm-.41-4.27.48-.49c.08-.08.16-.19.23-.19a.37.37,0,0,1,.23.12l.71.56a.37.37,0,0,1,.15.26c0,.15-.17.3-.55.56,0,.31,0,1.7,0,2a.68.68,0,0,1-.7.7c-.52,0-.51-.38-.47-.68H328.3c0,.25,0,.78-.73.78-.47,0-.47-.31-.47-.51s.06-1.63.06-1.94a7.82,7.82,0,0,0-.15-2l1.54.88Zm-6.89,4.68v1.61h7.42v-1.61Zm0,2v1.6h7.42v-1.6Zm0,2v1.9h7.42v-1.9Zm.44-8.3v2h6.57v-2Zm4.54,11c2.14.13,4.8,1.22,4.8,2.51a.63.63,0,0,1-.66.68c-.42,0-.63-.22-1.09-.71a10.56,10.56,0,0,0-3.07-2.42Z"/><path d="M365.85,251.53a10.61,10.61,0,0,1,0-16.45l.15.23a11.76,11.76,0,0,0,0,16Z"/><path d="M381,242.9l.87-1c.1-.11.15-.2.26-.2s.19.1.28.19l1.19,1.1c.08.09.17.16.17.26s-.15.18-.25.18H371.6a11,11,0,0,0-1.94.16l-.32-.78c1.24.12,2.43.12,2.53.12Z"/><path d="M392.86,245c-.38,0-.56-.32-.69-.58a10.91,10.91,0,0,0-1.36-2.18c0,4.51,0,5,0,6.24,0,.26.07,1.4.07,1.62a.76.76,0,0,1-.81.76.45.45,0,0,1-.51-.52c0-.19.06-1,.06-1.18.05-1.31,0-1.65.09-5.81a13,13,0,0,1-3.27,2.5l-.07-.12a25.46,25.46,0,0,0,5-6.44h-2.3a10.93,10.93,0,0,0-1.95.15l-.31-.66c1.12.08,2.29.1,2.52.1h.43a9,9,0,0,0-.43-3.33l1.9.56a.27.27,0,0,1,.19.22c0,.2-.19.34-.52.51a14.78,14.78,0,0,0,0,2h.59l.41-.44c.12-.12.2-.17.3-.17s.16.07.26.15l.75.68a.3.3,0,0,1,.11.24c0,.25-.26.32-.79.39a25.46,25.46,0,0,1-1.65,2.33,6.4,6.4,0,0,1,1.75.93,1.63,1.63,0,0,1,.82,1.29C393.45,244.51,393.3,245,392.86,245Zm8.66,4.84h-7a10.92,10.92,0,0,0-1.94.16l-.33-.68c1.15.1,2.39.11,2.54.11h1.61c0-1.73,0-4.48,0-6.22,0-.81,0-.93,0-1.46h-1a11.63,11.63,0,0,0-1.94.15l-.33-.68c1.1.11,2.24.12,2.54.12h.71c0-.29,0-1.41,0-1.7,0-2.73,0-3.09-.48-4.08l1.83.45c.25.05.4.17.4.32s-.32.41-.56.51c0,.42,0,3.79,0,4.5h1.67l.61-.83c.1-.13.16-.2.26-.2a.6.6,0,0,1,.31.18l.91.82a.41.41,0,0,1,.17.27c0,.12-.14.17-.25.17h-3.68v4.61l0,3.07h1.76l.78-.88c.11-.13.2-.19.28-.19a.46.46,0,0,1,.31.17l.91.87a.49.49,0,0,1,.15.27C401.77,249.76,401.62,249.81,401.52,249.81Z"/><path d="M405.09,251.53l-.15-.24a11.74,11.74,0,0,0,0-16l.15-.23a10.61,10.61,0,0,1,0,16.45Z"/><path d="M428.4,249.39a6.35,6.35,0,0,1-2.81.44c-1.63,0-2.64-.07-2.64-1.92,0-.73.24-3.06.5-6,.05-.53.07-.75.13-1.55H421c-.29,3-.79,8.11-6.63,9.72l-.05-.1a9.5,9.5,0,0,0,4.23-4.18c.48-.9.92-2,1.25-5.44h-2.59a11.24,11.24,0,0,0-2,.16l-.31-.68c1.12.1,2.29.11,2.52.11h2.36c0-.66.07-1.3.07-2a6.12,6.12,0,0,0-.25-2.28l1.77.38c.1,0,.38.08.38.27s-.4.42-.55.49c0,.5-.18,2.67-.21,3.11h2.31l.77-.63a.77.77,0,0,1,.3-.17c.1,0,.2.11.3.21l.69.68a.48.48,0,0,1,.18.32c0,.14-.08.19-.86.61-.33,2.18-.56,6-.56,6.68,0,.85.36.94,1.22.94,2,0,2-.07,2.61-3.09h.11a10,10,0,0,0,.47,2.58,3.4,3.4,0,0,1,.26.29.34.34,0,0,1,.1.24A1.17,1.17,0,0,1,428.4,249.39Z"/><path d="M436.13,236.16c.36.11.4.19.4.31s-.34.37-.48.46c0,2.55,0,4.45-.07,6-.07,1.38-.26,5.85-3.84,7.77l-.09-.1c2.33-2.4,2.89-4.73,2.89-10.46,0-3.07-.13-3.5-.49-4.4Zm-2.61,3.66a6.07,6.07,0,0,1,.38,2.11c0,1.88-.94,2-1.22,2a.61.61,0,0,1-.63-.65c0-.25.12-.42.47-.9a5.22,5.22,0,0,0,.87-2.55Zm3,.05c.44.22,2,1.07,2,2.24,0,.55-.34.79-.66.79-.51,0-.61-.45-.74-.92a7.46,7.46,0,0,0-.71-2Zm4-3.66c.36.09.38.16.38.26s-.05.19-.53.46V244c0,.68.1,3.73.1,4.34a.79.79,0,0,1-.81.86.46.46,0,0,1-.49-.5c0-.14.05-.75.05-.89.06-1.09.06-2.28.06-3.89,0-3.77,0-6.17-.1-7.14a3.74,3.74,0,0,0-.24-1Zm.64,4.08c.81.34,2.25,1.3,2.25,2.38a.67.67,0,0,1-.68.7c-.54,0-.63-.41-.87-1.33a4.46,4.46,0,0,0-.8-1.66Zm4.16-4.21c.18,0,.35.12.35.3s-.25.33-.52.46c0,3.27,0,5.85,0,7.23,0,.92.11,5.35.11,5.81,0,1-.74,1-.82,1s-.51,0-.51-.61c0-.24,0-1.31.05-1.53,0-.64,0-1.32,0-2.6,0-5.35,0-7.14-.05-8.36a4.74,4.74,0,0,0-.41-2.08Z"/><path d="M464.15,237.64h-6.52l.58.51a.46.46,0,0,1,.2.31c0,.19-.28.27-.69.29-.24.37-.55.91-1.21,1.9l.94.31c.13,0,.27.1.27.27s-.17.36-.57.58c0,.92,0,1.36,0,3.06,0,2.24,0,3.43.05,4.26,0,.19.05,1.13.05,1.33a.86.86,0,0,1-.86.81c-.49,0-.51-.35-.51-.59,0-.05,0-.1,0-.46.08-1.68.13-4.28.13-6.12,0-1.34,0-1.77-.05-2.63-1,1.39-3.4,4.62-6.65,6.25l-.06-.1a42.64,42.64,0,0,0,5.82-7,10.12,10.12,0,0,0,1.55-3h-4.67a10.73,10.73,0,0,0-1.94.16l-.33-.68c.84.06,1.69.11,2.54.11h9.56l.75-.9c.09-.12.18-.2.28-.2a.77.77,0,0,1,.38.2l1.07.87a.39.39,0,0,1,.16.26C464.41,237.61,464.28,237.64,464.15,237.64Zm-.71,8.84c-.55,0-.73-.32-1.39-1.46a11.25,11.25,0,0,0-3.46-3.74l0-.1c2.51.54,5.46,3,5.46,4.52C464.08,246.28,463.72,246.48,463.44,246.48Z"/><path d="M476.17,239.44h-3.89v1.41h1.51l.4-.49c.08-.1.15-.17.23-.17a.43.43,0,0,1,.28.16l.61.56a.37.37,0,0,1,.15.28c0,.12-.08.24-.41.46,0,.5,0,2.66,0,3.08a.77.77,0,0,1-.77.9c-.22,0-.32-.17-.3-.44h-1.71v1.53h1.23l.45-.56c.1-.12.18-.21.28-.21s.18.07.33.19l.66.55a.34.34,0,0,1,.16.27c0,.1-.08.17-.26.17h-2.85v1.56c1.28-.22,2.22-.37,3.15-.59v.13a42.18,42.18,0,0,1-6.77,2.2c-.1.25-.2.4-.36.4a.27.27,0,0,1-.26-.2l-.76-1.48a3.69,3.69,0,0,0,.64,0,28.16,28.16,0,0,0,3.33-.36v-1.71H470a11.69,11.69,0,0,0-1.94.15l-.32-.68c1.12.1,2.3.12,2.53.12h1v-1.53h-1.7a.64.64,0,0,1-.13.56,1.08,1.08,0,0,1-.64.31c-.18,0-.32-.09-.32-.48,0-.66.05-3.54.05-4.11a9.14,9.14,0,0,0-.13-1.38l1.35.76h1.52v-1.41h-1.61a10.76,10.76,0,0,0-1.93.16l-.33-.68c1,.08,2.07.12,2.54.12h1.33v-1.33a20.1,20.1,0,0,1-2.72.22c-.36,0-.53,0-.77,0v-.11c1.84-.41,4.71-1.11,6.13-2.06l1,.93a.36.36,0,0,1,.14.26c0,.15-.15.2-.4.2a1.21,1.21,0,0,1-.35-.07,13.43,13.43,0,0,1-2,.48V239h2l.57-.73c.11-.14.18-.21.28-.21a.57.57,0,0,1,.31.17l.84.73a.43.43,0,0,1,.17.26C476.42,239.39,476.32,239.44,476.17,239.44Zm-4.92,1.82h-1.71v1.52h1.71Zm0,1.92h-1.71v1.6h1.71Zm2.76-1.92h-1.73v1.52H474Zm0,1.92h-1.73v1.6H474Zm7.62-2.21c0,5.7-.3,7.09-.66,8.11a2.79,2.79,0,0,1-2.41,2,2.89,2.89,0,0,0-1.78-1.91l.05-.12a9.54,9.54,0,0,0,2,.26c.4,0,.79,0,1.14-.95a34.64,34.64,0,0,0,.59-6,11.79,11.79,0,0,0-.1-1.79h-1.7c0,2.76-.26,8.47-5,10.63l-.08-.11c3.76-2.95,3.89-7.46,4-10.52a11.39,11.39,0,0,0-1.9.16l-.33-.68c.65.05,1.09.08,2.23.12a17.63,17.63,0,0,0-.31-4.65l1.71.6c.18.07.28.15.28.27a.36.36,0,0,1-.11.24,3.13,3.13,0,0,1-.42.3v3.24h1.42l.56-.58c.14-.14.22-.19.3-.19s.17,0,.33.17l.64.53a.37.37,0,0,1,.17.29C482.19,240.57,481.94,240.77,481.63,241Z"/><path d="M499.55,241.76H488.32c.15,5.23-.53,7.44-2.79,9.31l-.08-.07a11.9,11.9,0,0,0,1.75-6.69,16.17,16.17,0,0,0-.37-3.73l1.64.77h5.31A19.94,19.94,0,0,0,495,238h-6.66a11,11,0,0,0-1.95.16l-.31-.68c1,.08,2.06.12,2.52.12h3.47a8.6,8.6,0,0,0-.27-2l1.72.42c.11,0,.23.07.23.24s-.4.39-.58.49v.89h3.48l.71-.82c.13-.15.18-.22.27-.22s.13,0,.29.17l1.06.83a.37.37,0,0,1,.16.26c0,.17-.13.18-.24.18h-3.34l1,.58a.2.2,0,0,1,.13.19c0,.24-.25.29-.67.39-.75.92-1.08,1.27-1.93,2.16h3.21l.61-.77c.1-.13.17-.2.25-.2s.16.05.33.17l1.09.76c.11.09.18.16.18.26S499.67,241.76,499.55,241.76Zm.13,8.58h-9.45a11.63,11.63,0,0,0-1.94.15l-.32-.68c1.14.1,2.39.12,2.53.12h2.31V247.5h-1.09a11.6,11.6,0,0,0-1.93.15l-.33-.68c1.12.11,2.32.12,2.54.12h.81V245h-2.25a10,10,0,0,1-2.14,2.71l-.08-.06a22.25,22.25,0,0,0,2.12-5.42l1.46.65c.14.07.16.13.16.18s-.07.19-.58.45c-.13.17-.46.71-.67,1.08h2a12.23,12.23,0,0,0-.19-2.58l1.6.31c.09,0,.22.05.22.2s-.27.32-.53.49c0,.24,0,1.35,0,1.58h2.43l.58-.81c.1-.14.18-.22.26-.22s.15.07.3.18l1,.82a.32.32,0,0,1,.17.26c0,.15-.15.18-.26.18h-4.43v2.09h2l.49-.63c.13-.15.17-.2.27-.2s.13.05.29.17l.91.65c.13.1.16.17.16.23s-.14.19-.24.19h-3.85v2.43h3.57l.74-.71c.1-.09.21-.19.28-.19s.13.05.3.17l1,.7a.37.37,0,0,1,.16.25C499.93,250.31,499.8,250.34,499.68,250.34Zm-9.23-9.25c-.4,0-.43-.12-.79-1.1a4.44,4.44,0,0,0-1-1.63l0-.09c.68.24,2.39.85,2.39,2A.74.74,0,0,1,490.45,241.09Z"/><path d="M509.07,238c-1.61,2.51-2.86,4.4-6,6.29l-.08-.12c2.65-2.64,5-6.12,4.86-7.86l1.69,1a.37.37,0,0,1,.19.29C509.72,237.83,509.58,237.91,509.07,238Zm6.81,12.32c-.4,0-.68-.27-.88-.75l-.69-1.61a79.7,79.7,0,0,1-8.23,2.07c-.28.38-.36.46-.51.46s-.23-.17-.27-.27l-.54-1.77a6.74,6.74,0,0,0,1.35.15c.13,0,1.09-.08,1.29-.1a32.43,32.43,0,0,0,2.21-6.14,3.59,3.59,0,0,0,.05-1l1.71.75c.1,0,.25.13.25.29s-.2.29-.56.4c-.18.31-.31.55-1.52,2.72-.49.87-1,1.79-1.76,2.91,1.9-.2,4.24-.49,6.35-.78a9.28,9.28,0,0,0-2-2.23l.05-.12c1.93.73,4.37,2.43,4.37,4.1C516.6,250.19,516.08,250.34,515.88,250.34Zm1-6.58a8.87,8.87,0,0,1-3.1-2.79,8.57,8.57,0,0,1-1.61-4.06,13.38,13.38,0,0,0-2.17.19l-.34-.68c.43,0,1.27.08,2.13.08l.47-.57c.12-.14.19-.23.27-.23s.18.07.34.19l.73.55a.33.33,0,0,1,.17.25c0,.15-.12.22-.38.34l-.76.31a7,7,0,0,0,5.89,4.86v.12A2.65,2.65,0,0,0,516.93,243.76Z"/><path d="M535.37,250H523.05a11.86,11.86,0,0,0-1.95.15l-.33-.66c1.3.1,2.51.1,2.54.1h.56v-4.49c0-.91,0-3-.11-3.77a2,2,0,0,0-.17-.59l1.7.52c.13,0,.23.1.23.26s-.13.27-.49.49c0,1.07,0,6.39,0,7.58H528V237.3h-4a10,10,0,0,0-1.94.16l-.33-.69c.81.07,1.73.12,2.54.12h8.21l.71-.9c.12-.13.18-.2.27-.2a.64.64,0,0,1,.31.17l1,.9c.08.08.16.15.16.26s-.14.18-.24.18h-5.51v5.49h2.08l.65-.83c.12-.15.2-.2.29-.2a.51.51,0,0,1,.31.17l.89.83a.43.43,0,0,1,.15.27c0,.12-.1.17-.25.17h-4.12v6.34H533l.79-.92c.13-.15.23-.23.31-.23a.8.8,0,0,1,.35.2l1,.92c.08.08.15.15.15.25S535.47,250,535.37,250Z"/><path d="M552.57,250.36a8.87,8.87,0,0,1-3.45-3.4,8.78,8.78,0,0,1-3.84,3c0,.61,0,1.22-.84,1.22-.52,0-.52-.32-.52-.65s.09-1.66.1-2,0-2,0-2.44a30.72,30.72,0,0,1-4.31,1.82c-.13.43-.23.56-.39.56s-.23-.11-.3-.28l-.62-1.67a4,4,0,0,0,.74.1,11.77,11.77,0,0,0,1.3-.15v-9.4a10.37,10.37,0,0,0-1.52.15l-.33-.68c1.31.12,2.53.12,2.54.12h4.36l.71-.8c.13-.15.2-.2.28-.2s.18.05.33.18l.82.79a.44.44,0,0,1,.15.27c0,.13-.1.17-.25.17h-2.36c0,6.44,0,7.15.09,12.66a10.28,10.28,0,0,0,3.3-3.84,18.61,18.61,0,0,1-1.55-7.36,3.53,3.53,0,0,0-.85.12l-.33-.68c1.29.1,2.51.1,2.53.1h2.27l.47-.54c.14-.17.19-.22.28-.22s.18,0,.34.18l.76.6a.59.59,0,0,1,.23.3.27.27,0,0,1-.15.29,4.11,4.11,0,0,1-.74.48,21.42,21.42,0,0,1-2.14,6.87,8.4,8.4,0,0,0,4.32,3.06v.08A2.42,2.42,0,0,0,552.57,250.36ZM544,237.1H541.6v2.72H544Zm0,3.13H541.6V243H544Zm0,3.16H541.6v2.92c.86-.17,2.08-.39,2.44-.49Zm4.07-4.88-.75,0a20.39,20.39,0,0,0,1.69,6.43,18.07,18.07,0,0,0,1.6-6.46Z"/><path d="M559.13,240.19H562v-3.11H558.8a11.86,11.86,0,0,0-1.95.15l-.31-.66c1.09.09,2.21.1,2.52.1H562l.38-.42c.08-.09.15-.19.26-.19a.87.87,0,0,1,.25.1l.64.43c.08,0,.25.13.25.32s-.17.31-.58.6c0,.51.07,2.77.07,3.21a.67.67,0,0,1-.15.47.88.88,0,0,1-.68.28c-.36,0-.46-.17-.38-.87h-3.15c-.06.39-.44,2.74-.46,2.82h3.37l.46-.52a.36.36,0,0,1,.28-.19.52.52,0,0,1,.26.12l.68.51a.38.38,0,0,1,.18.3c0,.21-.23.36-.49.5-.19,2.21-.81,4.5-1.7,5.55a3.59,3.59,0,0,1-2.61,1.11,3.32,3.32,0,0,0-1.27-1.92v-.1a9.7,9.7,0,0,0,2.23.35c.34,0,.74,0,1.14-.76a11,11,0,0,0,1-4.54h-3.61a5.12,5.12,0,0,1-.2,1.26,1,1,0,0,1-.82.47c-.25,0-.45-.13-.45-.39s.47-2.12.53-2.48a14.47,14.47,0,0,0,.3-3.25Zm10.37-3.89c.15,0,.3,0,.3.24s-.15.34-.56.58c0,.32,0,4.48,0,7.71,0,.82.13,4.46.13,5.2a.81.81,0,0,1-.22.67,1.35,1.35,0,0,1-.74.27c-.38,0-.44-.31-.44-.56,0-.1,0-.21,0-.43.08-1.37.08-3.14.08-3.84,0-6.34,0-8-.07-8.55a9.61,9.61,0,0,0-.29-1.7Z"/><path d="M578.78,240h-2.32c0,3.72,0,4.54,0,5.57,0,.75.05,4.07.05,4.75,0,.3,0,.83-.81.83a.44.44,0,0,1-.48-.48c0-.25.1-1.43.11-1.68.05-1.22.05-1.75.07-5,0-2.39,0-2.53,0-4a12,12,0,0,0-1.88.15l-.33-.66c.46,0,1,.08,2.21.1,0-2.52,0-3.38-.38-4.1l1.82.53a.26.26,0,0,1,.21.24c0,.17,0,.2-.57.51,0,.46,0,2.43,0,2.82h.77l.5-.54c.08-.11.18-.23.26-.23a.61.61,0,0,1,.3.19l.59.56a.37.37,0,0,1,.15.26C579,240,578.9,240,578.78,240Zm3.81,5.22c-.42,4.76-.92,5.44-2.67,5.62-.16-1-.21-1.14-.87-1.68l.05-.14a3.82,3.82,0,0,0,1.32.29c.43,0,.52-.1.79-1.42a17.54,17.54,0,0,0,.36-3.15h-1.2c-.32,2-1.16,4.71-3.57,5.93l-.06-.08a8.86,8.86,0,0,0,2.57-5.83,9,9,0,0,0-1.65.15l-.33-.68c.61.05,1.09.09,2,.1a6.53,6.53,0,0,0-.09-2l1.5.54a.26.26,0,0,1,.21.24c0,.13-.36.37-.44.42,0,.33,0,.46-.09.85h1l.4-.42c.11-.12.16-.17.23-.17s.15.08.21.15l.68.61a.34.34,0,0,1,.13.24C583.07,244.85,583,244.88,582.59,245.21Zm3.81-6.9c-.72,3.43-1.86,3.55-2.85,3.67a2.38,2.38,0,0,0-1-1.8l.07-.11a4.49,4.49,0,0,0,1.48.41c.84,0,1.22-1.95,1.4-2.89H583a6.51,6.51,0,0,1-4.57,4.76l0-.1a7.94,7.94,0,0,0,3.48-4.66h-.85a10.06,10.06,0,0,0-2,.15l-.33-.68c1.14.11,2.31.12,2.54.12H582a7,7,0,0,0,.12-1.19,1.45,1.45,0,0,0-.12-.66l1.69.53a.17.17,0,0,1,.14.17c0,.1-.26.27-.52.44-.1.41-.14.53-.18.71h2.12l.27-.34a.39.39,0,0,1,.28-.15.3.3,0,0,1,.23.1l.87.75a.27.27,0,0,1,.13.22C587.06,238,586.65,238.17,586.4,238.31Zm1.77,6.61a2.38,2.38,0,0,0-.35.24c0,1.78-.24,4.07-.76,4.92-.09.18-.52.87-2,1a2.91,2.91,0,0,0-.94-1.67l0-.13a4.53,4.53,0,0,0,1.41.28c.66,0,.71-.3.9-1.42a21.34,21.34,0,0,0,.25-3.37h-1.22c-.43,2.47-1.06,4.68-3.84,6.1l-.05-.08a9.61,9.61,0,0,0,2.87-6,6.22,6.22,0,0,0-.76.1l-.33-.68c.56.06.81.07,1.15.09a12.14,12.14,0,0,0,0-1.24,3.86,3.86,0,0,0-.13-1.28l1.57.58a.32.32,0,0,1,.21.26c0,.18-.43.4-.51.46-.06.62-.1.91-.16,1.24h1l.42-.49c.06-.08.14-.17.19-.17a.44.44,0,0,1,.25.12l.79.61a.35.35,0,0,1,.15.22C588.4,244.78,588.29,244.85,588.17,244.92Z"/><path d="M596.68,239.09h-2.94a9.87,9.87,0,0,0-1.93.15l-.33-.68c1.12.1,2.29.12,2.52.12h1.11l.41-.61s.15-.21.27-.21.21.11.29.17l.69.62a.33.33,0,0,1,.15.25C596.92,239.05,596.79,239.09,596.68,239.09Zm-.4,7a2.38,2.38,0,0,0,0,.36c0,.49.1,2.67.1,3.11a.68.68,0,0,1-.71.68c-.5,0-.47-.39-.43-.78h-2a4.54,4.54,0,0,1,0,1,.82.82,0,0,1-.72.46.38.38,0,0,1-.43-.41s0-.15,0-.32c.07-.56.1-2.87.1-4a10.69,10.69,0,0,0-.06-1.55l1.27.73h1.75l.28-.44c0-.05.14-.19.21-.19a.84.84,0,0,1,.3.15l.66.5a.3.3,0,0,1,.13.2C596.71,245.82,596.59,245.87,596.28,246.12Zm-.1-9.09h-2.29a7.9,7.9,0,0,0-1.37.1l-.22-.59c.88.06,1.67.08,1.7.08h.66l.42-.49c.08-.1.16-.2.24-.2s.15,0,.32.17l.62.49a.35.35,0,0,1,.17.25C596.43,237,596.3,237,596.18,237Zm-.08,4.18h-2.21a7.83,7.83,0,0,0-1.37.1l-.22-.59c.73.05,1.47.08,1.8.08h.63l.35-.49c0-.05.14-.22.26-.22s.25.14.3.19l.56.49a.35.35,0,0,1,.15.25C596.35,241.19,596.2,241.21,596.1,241.21Zm.11,2.14h-2.27a5.14,5.14,0,0,0-1.37.11l-.23-.6c.87.07,1.7.09,1.78.09h.58l.43-.57c0-.06.13-.2.24-.2a.67.67,0,0,1,.32.17l.61.56c.1.09.16.15.16.26S596.36,243.35,596.21,243.35Zm-1,2.47h-2v3.26h2Zm11.2-.77h-3.71a9.28,9.28,0,0,0,.43,2,7.19,7.19,0,0,0,1.07-1.63l1,.8c.08.06.14.08.14.2s-.24.24-.61.22c-.7.68-.94.92-1.27,1.21a3.15,3.15,0,0,0,1.47,1.51c.1,0,.23-.14.3-.22a11.31,11.31,0,0,0,1-1.63h.12a15,15,0,0,0-.3,2.17.69.69,0,0,0,.15.43.64.64,0,0,1,.2.39c0,.19-.17.39-.58.39a4.71,4.71,0,0,1-3.05-2.41,8.64,8.64,0,0,1-2.76,1.42l0-.12a13.7,13.7,0,0,0,2.46-2,9.93,9.93,0,0,1-.63-2.72h-2v1.52c.89-.26,1.24-.38,1.72-.53l.06.1a9.8,9.8,0,0,1-1.78,1c0,.46,0,2.18,0,2.43,0,1-.77,1.26-1.48,1.4-.28-.78-.31-.85-1.19-1.43v-.07a5.29,5.29,0,0,0,1.06.09c.41,0,.61,0,.66-.38s0-1.27,0-1.59c-.22.1-1.13.51-1.31.61s-.23.39-.31.39-.17-.12-.2-.22l-.48-1.23a8.42,8.42,0,0,0,2.3-.34c0-.18,0-1.17,0-1.75a10,10,0,0,0-1.9.16l-.31-.68c.79.06,1.3.08,2.21.1v-1.14a13.24,13.24,0,0,1-2,.25l0-.11c2.38-.87,2.79-1.16,3.22-1.59l.79.7a.26.26,0,0,1,.1.19c0,.2-.26.17-.43.13a5.93,5.93,0,0,1-.76.24l0,1.35h2c0-.43-.21-2.3-.29-2.67l1.32.29c.21,0,.23.1.23.18s-.14.22-.38.39a15.23,15.23,0,0,0,0,1.81h2.05l.51-.74c.13-.18.19-.22.24-.22s.2.11.32.21l.72.71c.09.09.15.15.15.26S606.54,245.05,606.42,245.05Zm-.36-3.36h-6.88a10.91,10.91,0,0,0-1.93.15l-.33-.66c1.31.1,2.25.1,2.53.1h1.22V240h-.38a10.83,10.83,0,0,0-1.95.16l-.33-.68c1.26.12,2.39.12,2.66.12v-1.31h-1.24a10,10,0,0,0-1.93.15l-.33-.68c1.3.1,2.24.12,2.52.12h2a6.83,6.83,0,0,0,.68-2.36l1.34.71c.08,0,.21.12.21.26s-.21.2-.63.22a12.3,12.3,0,0,1-1.27,1.17h2.07l.47-.58c.1-.12.15-.2.25-.2a.53.53,0,0,1,.31.18l.7.57a.34.34,0,0,1,.16.25c0,.17-.16.19-.25.19h-4v1.31h1.65l.4-.53c.1-.12.16-.22.26-.22a.76.76,0,0,1,.3.18l.64.53a.35.35,0,0,1,.17.26c0,.17-.17.18-.25.18h-3.17v1.33h2.61l.54-.63c.14-.15.15-.22.27-.22s.18.07.31.19l.69.64a.33.33,0,0,1,.17.26C606.31,241.69,606.14,241.69,606.06,241.69Zm-6-4.05c-.37,0-.46-.22-.65-.7a3.83,3.83,0,0,0-.75-1.29l.06-.12c.41.09,1.93.41,1.93,1.48A.6.6,0,0,1,600.06,237.64Zm4.24,6.41c-.35,0-.45-.24-.53-.48a3,3,0,0,0-.56-1l0-.12c.41.05,1.55.19,1.55,1A.53.53,0,0,1,604.3,244.05Z"/><path d="M622.86,242.69a13,13,0,0,1-6-6.12l-.06,0a18.57,18.57,0,0,1-7.56,6.81l-.05-.1a22.54,22.54,0,0,0,6.07-6.78,3.06,3.06,0,0,0,.5-1.16l1.66.55c.09,0,.27.12.27.29s-.17.24-.51.32a11,11,0,0,0,7.29,4.76v.12A3.29,3.29,0,0,0,622.86,242.69Zm.14,2.38h-6.62a25,25,0,0,1-2.72,3.89c2-.13,4.59-.39,6.45-.63A9.88,9.88,0,0,0,618.3,246l.09-.1c2.26,1.05,4.06,2.77,4.06,4.19,0,.28-.18.84-.72.84s-.76-.46-1-1.06a7.81,7.81,0,0,0-.49-1.24c-1.34.43-7.41,1.75-8.35,1.91-.1.22-.15.37-.3.37s-.21-.17-.26-.3l-.69-1.72a6.58,6.58,0,0,0,1.47.15c.34,0,.67,0,1.18-.05a24.71,24.71,0,0,0,1.36-3.91h-2.33a12,12,0,0,0-1.93.15l-.33-.66c1.3.1,2.24.1,2.52.1h7.92l.84-.93c.12-.14.2-.21.28-.21s.18.09.3.17l1.14.94a.39.39,0,0,1,.16.25C623.24,245.07,623.08,245.07,623,245.07Zm-3.62-2.94h-4.24a11.93,11.93,0,0,0-1.94.15l-.33-.68c1.14.1,2.32.12,2.54.12h1.85l.74-.85c.08-.08.16-.2.26-.2a.66.66,0,0,1,.3.17l.91.85c.08.08.16.15.16.27S619.48,242.13,619.38,242.13Z"/><path d="M635,240c-.05,0-.33.24-.43.32,0,.83-.13,4.93-.21,5.85-.3,3.52-.94,4.62-2.92,4.79,0-.51-.2-1-1.8-2l0-.14a8.21,8.21,0,0,0,2,.36c.49,0,1.07,0,1.32-1.43a49.21,49.21,0,0,0,.44-7.88h-2.27c-.05,2.78-.15,8.17-4.26,11.08l-.1-.09a11,11,0,0,0,2.44-4.82,23.26,23.26,0,0,0,.75-6.17h-.75a10.84,10.84,0,0,0-1.94.15l-.33-.68c1.32.12,2.27.12,2.54.12h.48a15.16,15.16,0,0,0-.28-4l1.81.56c.12,0,.3.14.3.31s0,.2-.6.56c0,.25,0,.37,0,.56s0,1.71,0,2h2.08l.61-.61c.06-.07.11-.14.19-.14a.47.47,0,0,1,.23.12l.76.64a.44.44,0,0,1,.15.29C635.13,239.87,635.05,239.94,635,240Zm6.55-.55c-.08.09-.28.24-.36.33,0,1.42,0,7.14,0,8.33,0,.27.09,1.46.09,1.71a.82.82,0,0,1-.82.92c-.43,0-.48-.25-.48-.59s0-.45,0-.75h-2.72c0,.63.08,1.61-.88,1.61-.46,0-.46-.37-.46-.52s0-.5,0-.57c.08-2,.13-6.45.13-8.55a19.58,19.58,0,0,0-.22-3.58l1.59.93h2.32l.55-.49c0-.05.1-.1.16-.1a.48.48,0,0,1,.27.17l.72.66a.48.48,0,0,1,.15.27C641.68,239.31,641.6,239.38,641.53,239.44Zm-1.48-.32h-2.74V249h2.74Z"/><path d="M655.48,245.82l.43-.43c.08-.06.21-.17.26-.17s.1,0,.27.17l.69.6a.43.43,0,0,1,.17.27c0,.15,0,.19-.5.48a6,6,0,0,0,0,.62c0,.38.05,2.08.05,2.42h.84l.58-.8c.09-.15.16-.24.28-.24a.67.67,0,0,1,.31.19l.87.81c.1.09.17.16.17.28s-.13.17-.25.17H647.23a10.89,10.89,0,0,0-1.94.15l-.33-.66c.33,0,1.07.08,2.26.1A23.66,23.66,0,0,0,647,245l1.48.78ZM650,236.38l.33-.35c.08-.09.15-.16.23-.16s.15.07.27.16l.72.54a.32.32,0,0,1,.17.26c0,.15-.22.3-.56.54a10.67,10.67,0,0,0,0,1.12c0,.44.09,3.44.12,3.76a2.39,2.39,0,0,1,0,.31c0,.44-.43.69-.89.69s-.35-.19-.33-.76h-2.44c0,.83.1,1.66-.81,1.66-.39,0-.39-.27-.39-.46s.08-1.42.08-3.68a20.81,20.81,0,0,0-.18-4.34l1.4.71Zm-2.39.41v2.42H650v-2.42Zm0,2.82v2.47H650v-2.47Zm.79,6.62v3.55h1.68v-3.55Zm5.31-4.63c-.21.85-.81,3.08-4.4,3.74l0-.12c2.75-1.19,3.62-2.95,3.62-6.56a11.38,11.38,0,0,0-.31-3.19l1.54.81h3l.34-.39c.1-.1.15-.17.22-.17s.06,0,.26.15l.79.57c.09.06.15.11.15.22s-.43.51-.54.56c0,.64,0,2.05,0,3,0,.58.06,2.42.06,2.89s0,1.57-1.81,2a2.21,2.21,0,0,0-1.39-1.6l0-.12a8.8,8.8,0,0,0,1.07,0c.71,0,.79,0,.89-.15s.09-.26.09-.92v-.75Zm-2.52,4.63v3.55h1.68v-3.55Zm6.09-5v-2.07H654a12.36,12.36,0,0,1-.19,2.07Zm-1.57,8.59v-3.55H654v3.55Zm1.57-11.07v-2H654v2Z"/><path class="cls-1" d="M179.94,122.85c0,16.23-6.79,26.56-16.91,26.56-9.65,0-14.58-10.61-14.58-24.06,0-18.94,9.05-26.08,17.51-26.08C175.55,99.27,179.94,108.84,179.94,122.85Zm-16-20.11c-7.59,0-9.79,8-9.79,19.48,0,10.34,2.27,23.65,10.66,23.65s9.45-10.82,9.45-21.57C174.28,115,172.08,102.74,164,102.74Z"/><path class="cls-1" d="M222.82,118.41c0,20-18.91,31.62-27,31.62-2.8,0-2.53-2-.14-2.56,13.18-3.19,19.84-12.35,21-23.37-2.06,1.8-7.06,5.34-12.38,5.34-6.73,0-12.19-6.11-12.19-13.94a16,16,0,0,1,16.11-16.23C217.69,99.27,222.82,107.8,222.82,118.41Zm-5.93,1.87c0-13.18-4.93-17.82-10.85-17.82-4.6,0-8.26,2.84-8.32,10.61-.07,8.67,5.32,11.72,10.25,11.72a13.61,13.61,0,0,0,8.92-3.4Z"/><path class="cls-1" d="M261.5,130.55a18.37,18.37,0,0,0,5.39-.49c.6-.14,1,.14,1,.63a8.1,8.1,0,0,1-.93,3.12c-.34.55-.93.69-2.4.69h-5.33v9.22c0,2.36.07,3.54-.13,3.82-.6.9-3.13,1.52-4.66,1.52-.73,0-.93-.55-.73-1.31a18.81,18.81,0,0,0,.33-3.4c0-1.11.13-3.68.13-9.85h-5c-12.52,0-14.18,0-15.05-.28a1.07,1.07,0,0,1-.73-1,6.34,6.34,0,0,1,1.33-3.05c4.19-5.83,15.44-22.61,19.77-27.95a10.93,10.93,0,0,1,2.07-1.8c.53-.35,2-1.46,2.79-1.46.4,0,.8.49.6,1.25a18.74,18.74,0,0,0-.67,4.72v25.59ZM254.17,107c-5.32,7.07-14.11,20.66-15.24,22.47-.13.34,0,.69.4.69,1,.07,3.06.28,14.84.35Z"/><path class="cls-1" d="M280.67,128.6c1.4-.13,14.32-.41,16.31-.34,1.4.07,1.6.34,1.6,1a3.94,3.94,0,0,1-1.66,3.05c-1.53.69-14,.83-16.31.76-.47,0-1.14-.14-1.2-.9A5.26,5.26,0,0,1,280.67,128.6Z"/><path class="cls-1" d="M341.79,122.85c0,16.23-6.79,26.56-16.91,26.56-9.65,0-14.58-10.61-14.58-24.06,0-18.94,9.05-26.08,17.51-26.08C337.4,99.27,341.79,108.84,341.79,122.85Zm-16-20.11c-7.59,0-9.78,8-9.78,19.48,0,10.34,2.26,23.65,10.65,23.65s9.45-10.82,9.45-21.57C336.13,115,333.93,102.74,325.81,102.74Z"/><path class="cls-1" d="M377.81,109.39c0,5.48-4,9-8.32,11.31,5.26.83,11.91,3.67,12,11.09.07,8.88-9.52,17.62-19.84,17.62-3.79,0-6.46-1.39-7.52-2.71a4.31,4.31,0,0,1-1.2-2.91,7.13,7.13,0,0,1,.87-3.26.94.94,0,0,1,1.79.07c.34,1.25,2.53,5.06,9.39,5.06s10.32-4.71,10.32-10.81-3-10.68-10.25-10.68a23,23,0,0,0-3.07.34c-1.39.14-1.66-1.73.14-2.42,5.39-2,10.25-5.21,10.25-10.62,0-3.46-1.86-7.49-7.79-7.49-4.06,0-6.86,2.92-8.39,4.51-1.86,2.08-3.39.63-1.86-1.59,1.2-1.6,6-7.77,13.18-7.77A10.27,10.27,0,0,1,377.81,109.39Z"/><path class="cls-1" d="M422.55,118.41c0,20-18.91,31.62-27,31.62-2.8,0-2.53-2-.13-2.56,13.18-3.19,19.84-12.35,21-23.37-2.06,1.8-7.05,5.34-12.38,5.34-6.72,0-12.18-6.11-12.18-13.94A16,16,0,0,1,408,99.27C417.42,99.27,422.55,107.8,422.55,118.41Zm-5.93,1.87c0-13.18-4.92-17.82-10.85-17.82-4.59,0-8.25,2.84-8.32,10.61-.07,8.67,5.33,11.72,10.25,11.72a13.61,13.61,0,0,0,8.92-3.4Z"/><path class="cls-1" d="M434.8,128.6c1.4-.13,14.32-.41,16.31-.34,1.4.07,1.6.34,1.6,1a3.94,3.94,0,0,1-1.66,3.05c-1.53.69-14,.83-16.31.76-.47,0-1.14-.14-1.2-.9A5.26,5.26,0,0,1,434.8,128.6Z"/><path class="cls-1" d="M485.87,109.39c0,5.48-4,9-8.33,11.31,5.26.83,11.92,3.67,12,11.09.06,8.88-9.52,17.62-19.84,17.62-3.8,0-6.46-1.39-7.52-2.71a4.31,4.31,0,0,1-1.2-2.91,7.24,7.24,0,0,1,.86-3.26,1,1,0,0,1,1.8.07c.33,1.25,2.53,5.06,9.39,5.06s10.32-4.71,10.32-10.81-3-10.68-10.26-10.68a23,23,0,0,0-3.06.34c-1.4.14-1.66-1.73.13-2.42,5.4-2,10.26-5.21,10.26-10.62,0-3.46-1.87-7.49-7.79-7.49-4.06,0-6.86,2.92-8.39,4.51-1.86,2.08-3.4.63-1.86-1.59,1.19-1.6,6-7.77,13.18-7.77A10.27,10.27,0,0,1,485.87,109.39Z"/><path class="cls-1" d="M533.07,122.85c0,16.23-6.79,26.56-16.91,26.56-9.65,0-14.58-10.61-14.58-24.06,0-18.94,9.05-26.08,17.51-26.08C528.68,99.27,533.07,108.84,533.07,122.85Zm-16-20.11c-7.59,0-9.78,8-9.78,19.48,0,10.34,2.26,23.65,10.65,23.65s9.45-10.82,9.45-21.57C527.41,115,525.21,102.74,517.09,102.74Z"/><path class="cls-1" d="M569.09,109.39c0,5.48-4,9-8.32,11.31,5.26.83,11.91,3.67,12,11.09.07,8.88-9.52,17.62-19.84,17.62-3.79,0-6.46-1.39-7.52-2.71a4.31,4.31,0,0,1-1.2-2.91,7.13,7.13,0,0,1,.87-3.26.94.94,0,0,1,1.79.07c.34,1.25,2.53,5.06,9.39,5.06s10.32-4.71,10.32-10.81-3-10.68-10.25-10.68a23,23,0,0,0-3.07.34c-1.39.14-1.66-1.73.14-2.42,5.39-2,10.25-5.21,10.25-10.62,0-3.46-1.86-7.49-7.79-7.49-4.06,0-6.86,2.92-8.39,4.51-1.86,2.08-3.39.63-1.86-1.59,1.2-1.6,6-7.77,13.18-7.77A10.27,10.27,0,0,1,569.09,109.39Z"/><path class="cls-1" d="M612.23,130.55a18.33,18.33,0,0,0,5.39-.49c.6-.14,1,.14,1,.63a8.1,8.1,0,0,1-.93,3.12c-.33.55-.93.69-2.4.69H610v9.22c0,2.36.06,3.54-.13,3.82-.6.9-3.13,1.52-4.67,1.52-.73,0-.93-.55-.73-1.31a17.76,17.76,0,0,0,.34-3.4c0-1.11.13-3.68.13-9.85h-5.06c-12.52,0-14.18,0-15.05-.28a1.08,1.08,0,0,1-.73-1,6.34,6.34,0,0,1,1.33-3.05c4.2-5.83,15.45-22.61,19.77-27.95a10.93,10.93,0,0,1,2.07-1.8c.53-.35,2-1.46,2.79-1.46.4,0,.8.49.6,1.25A18.73,18.73,0,0,0,610,105v25.59ZM604.91,107c-5.33,7.07-14.12,20.66-15.25,22.47-.13.34,0,.69.4.69,1,.07,3.06.28,14.85.35Z"/><path class="cls-2" d="M75.57,118.89A28,28,0,1,1,96.9,152.18,28,28,0,0,1,75.57,118.89Z"/><path class="cls-1" d="M97.59,117.67c2-1.18,3.58-2.25,4.13-2.57s.53-1.17.06-2l-4.37-7.33c-.61-1-1.28-2.07-2.23-1.51l-4.1,2.45c-2.45,1.45-5.69,9.64,2.81,23.9s17.24,15.32,19.69,13.86l4.1-2.44c.94-.57.35-1.65-.26-2.68l-4.37-7.33c-.47-.79-1.2-1.21-1.75-.88s-2.26,1.24-4.23,2.41-4.17-1.79-7-6.6S95.61,118.84,97.59,117.67Z"/></g></svg>