<svg xmlns="http://www.w3.org/2000/svg" width="700" height="278.25" viewBox="0 0 700 278.25"><defs><style>.cls-1{fill:#980051;}.cls-2{fill:none;stroke:#980051;stroke-miterlimit:10;stroke-width:1.76px;}</style></defs><title>renrakusaki</title><g id="レイヤー_2" data-name="レイヤー 2"><path d="M73.92,69.74a31.67,31.67,0,0,1,0-40.5l.48.36a27.21,27.21,0,0,0-2.21,3.76,37.19,37.19,0,0,0,0,32.26,27.1,27.1,0,0,0,2.21,3.77ZM77.64,36a44.23,44.23,0,0,0-.36-5l2.93.75c.48.13,1.24.35,1.24.71,0,.53-.67.84-1.24,1.33v6H81l.93-1.46c.13-.22.4-.62.62-.62s.62.44.71.58l1,1.41a2.18,2.18,0,0,1,.22.71c0,.31-.18.36-.36.36H80.21v4.34c1.33.8,4,2.44,4,4.79a1.73,1.73,0,0,1-1.59,1.9c-1.42,0-1.64-2-1.69-3.06a5.85,5.85,0,0,0-.75-3v7.88c0,1.73.13,10.06.13,11.92,0,.58,0,2.53-2.13,2.53C77,68,77,66.6,77,66.11c0-.84.4-5,.45-5.94.13-2.17.22-4.3.22-7.58V48.25a28.69,28.69,0,0,1-6.43,10.19l-.35-.35a54.38,54.38,0,0,0,6.51-17.37A24,24,0,0,0,73,41l-.66-1.59c1.77.22,3.9.35,4.52.35h.8Zm28.49,24.9a6.91,6.91,0,0,0-3.59,2.53c-4.08-4.21-6-8.6-7.67-13.39v5.19c0,1.55,0,3.19,0,4.78,0,.8.31,4.74.31,5.63A2.15,2.15,0,0,1,93.06,68c-.71,0-1.11-.35-1.11-1.46,0-.66.13-3.81.13-4.52.09-2.88.09-4.65.09-6.2V51.62A31.72,31.72,0,0,1,82.11,62.83l-.26-.44a52.9,52.9,0,0,0,9-13.61,51.61,51.61,0,0,0-5.63.22l-.71-1.55c1.33.14,4.92.31,5.76.31h1.86V41.07H87.7a24.59,24.59,0,0,1-4,5.54l-.35-.31c.44-1,3.41-6.91,3.46-12.49l3.54,1.72c.18,0,.44.23.44.45,0,.48-.53.57-1.19,1.06-.45,1.15-.93,2.22-1.33,3h3.94V36.38A31.77,31.77,0,0,0,91.6,31l3.81.85c.31.08.62.22.62.44s-.54.84-1.16,1.64v6.11H98.2l1.28-1.77c.18-.22.4-.53.62-.53a1.35,1.35,0,0,1,.71.49L102.58,40c.23.22.49.53.49.71a.32.32,0,0,1-.35.35H94.87v6.69h5.06l1.33-1.86c.13-.13.39-.48.53-.48s.53.31.71.44l2.26,2a1.14,1.14,0,0,1,.35.62c0,.31-.31.31-.44.31H95.05c4.17,9.53,10.68,11.48,11.12,11.57Zm-3.5-31.64a31.7,31.7,0,0,1,0,40.5l-.49-.35a28.71,28.71,0,0,0,2.22-3.77,37.19,37.19,0,0,0,0-32.26,28.84,28.84,0,0,0-2.22-3.76Z"/><path d="M149.15,68.28A27.52,27.52,0,0,1,130.41,50.6h-4.08V62.48c1.55-.31,8.42-1.64,9.8-2l0,.18c-3.72,2.61-6.65,3.68-16.75,7.27-.62.88-.71,1-.93,1s-.31-.13-.49-.62l-2-4.74c.45,0,2.44.14,2.84.14a22.64,22.64,0,0,0,3.94-.58V50.6h-3.37a25.48,25.48,0,0,0-4.78.31L114,49.27c2.7.27,5.8.27,6.29.27h2.53c0-.14-.05-10.9-.18-12.94a49.52,49.52,0,0,0-.66-6.21l4.74,2.13h14.66l2.09-2.44c.44-.48.48-.53.66-.53A2.61,2.61,0,0,1,145,30l3.41,2.44a.84.84,0,0,1,.4.62c0,.44-.36.48-.67.48h-21.8V38.1h11.74l1.82-2c.44-.49.53-.53.71-.53s.27,0,.89.44l3,2a.9.9,0,0,1,.45.66c0,.44-.4.49-.67.49h-18v4.52h11.92l1.91-2.35c.35-.44.44-.58.66-.58s.36.09.84.49l2.8,2.35a1,1,0,0,1,.44.71c0,.4-.36.44-.67.44h-17.9v4.79h19.23L147.65,47c.35-.45.44-.53.66-.53s.31,0,.84.44l3.42,2.61a.82.82,0,0,1,.39.67c0,.4-.35.44-.66.44h-8.91l3.55,2.79c.22.18.31.22.31.44,0,.49-.4.49-.71.49a6.45,6.45,0,0,1-1-.09c-.71.31-3.86,2-4.48,2.26s-2.79,1.33-3.23,1.55a24.84,24.84,0,0,0,16.13,5.32v.13A11.08,11.08,0,0,0,149.15,68.28ZM131.3,50.6a21.75,21.75,0,0,0,5.89,7c3.77-3.68,5.36-6.11,5.67-7Z"/><path d="M173.39,38.72c0,2.84-.13,8.34-.09,11,0,2.39.13,7,.13,9.22a1.84,1.84,0,0,1-2,2.17c-1.19,0-1.24-.76-1.24-1.2V57.69h-7.71c0,1.77,0,5-.09,5.27-.13.62-.88,1.07-1.9,1.07-1.6,0-1.6-.89-1.6-1.38A2.77,2.77,0,0,1,159,62c.48-12.85.48-14.89.48-17.68a88.35,88.35,0,0,0-.44-9.49l4.12,1.38c.27.09.58.26.58.53s-.49.71-1.15,1.29c0,10.32,0,11.47-.05,18.61h2.26c0-17.42,0-19.1-.09-22.16a36.73,36.73,0,0,0-.35-4.87l4.21,1.19c.17.05.53.22.53.58s-.27.57-1,1V56.63h2.17c0-6.83,0-7.89-.17-17.24,0-1.6,0-2.13-.18-3.5l3.85,1.19c.36.09.67.32.67.63S174.05,38.33,173.39,38.72Zm22.86-2.48H185a21.3,21.3,0,0,1-.62,2.4c4.43,1.28,8.78,3.19,8.78,6.11a2,2,0,0,1-2.13,2c-1.06,0-1.24-.31-3-3.06a20.58,20.58,0,0,0-3.86-4.43c-.93,2.66-3.54,6.38-9.17,8.11l-.18-.31c5.27-3,6.34-7.8,6.83-10.86H180.3a22.86,22.86,0,0,0-4.83.31l-.71-1.64c2.48.23,5.14.27,7,.27,0-.4,0-1,0-1.91a12.18,12.18,0,0,0-.48-4l4.78,1.37c.4.13.62.35.62.58s-.22.48-1.11,1.1c-.17,1.42-.26,2-.4,2.84h5.06l2-2.3c.18-.23.45-.54.67-.54s.49.22.84.49l2.7,2.26a.94.94,0,0,1,.45.67C196.92,36.2,196.52,36.24,196.25,36.24Zm1.69,13.07h-5.41c0,.4,0,15.78,0,16.18-.09,1.55-.27,3.15-3.73,4.16a7.76,7.76,0,0,1-1.41.27,6.86,6.86,0,0,0-4-5v-.4a24.14,24.14,0,0,0,4.43.67c1.33,0,1.33-.36,1.33-1.37V49.31H180.3a22,22,0,0,0-4.83.32L174.76,48c2.7.22,5.85.26,6.34.26h11.52L194.21,46c.23-.27.4-.58.67-.58s.62.31.84.49l2.44,2.21c.22.22.44.4.44.67S198.25,49.31,197.94,49.31Zm-12.14,6.3c0,1,.08,5.58,0,6.33a1.82,1.82,0,0,1-2,1.51c-1.33,0-1.33-.44-1.24-1.51h-4v3a1.85,1.85,0,0,1-1.95,1.55c-1.33,0-1.33-.89-1.33-1.46,0-1.47.22-7.94.22-9.27a16.67,16.67,0,0,0-.4-4.25l4,2H182l1.33-1.37c.18-.18.4-.49.62-.49s.49.27.71.45l1.81,1.46a1.28,1.28,0,0,1,.49.84C187,54.85,186.37,55.25,185.8,55.61Zm-3.15-1h-4v6.29h4Z"/><path d="M209.19,41.21a25.54,25.54,0,0,0-4.79.31l-.71-1.64c2.09.17,4.21.26,6.3.26h2.12c-.13-7.35-.17-8.64-1-11.21l4.79,1.42c.62.18,1.15.53,1.15.93s-.4.8-1.15,1.2c-.13,2-.18,6.55-.18,7.66H217l1.64-2c.26-.31.48-.53.71-.53a1.29,1.29,0,0,1,.79.45l2.35,2a1,1,0,0,1,.44.71c0,.4-.35.45-.66.45h-6.6v3.54c5,1.11,7.44,4.08,7.44,5.85a1.93,1.93,0,0,1-1.9,2.08c-1.73,0-2.48-1.46-3.33-3.45a11,11,0,0,0-2.21-3.64c0,1.86,0,11.21,0,11.57,0,2.35.14,9.17.14,9.88a2.33,2.33,0,0,1-2.35,2.61c-1.64,0-2-.84-2-2.26,0-.35.53-9.92.53-10.45,0-1.07.09-5.63.09-6.61a30.33,30.33,0,0,1-9.35,11.13l-.18-.18c3.46-4.52,6.87-11.65,9.4-20.07Zm8.28,22.11a56,56,0,0,0,14.14-22.11h-1.46a21.5,21.5,0,0,0-4.79.31l-.75-1.64c2.08.17,4.21.26,6.33.26h.85c-.09-7.18-.14-8.42-1-10.72l4.66,1.11c.79.17,1.19.44,1.19,1s-.44.84-1.19,1.42c0,1.11-.05,6.2-.05,7.22h2.22L239.45,38c.31-.35.45-.53.67-.53a1.69,1.69,0,0,1,.84.44l2.52,2.17c.23.18.45.36.45.67s-.36.49-.67.49h-7.84V52.15c0,1.82.31,10.24.31,11.57,0,1.77-.22,2.92-.93,3.76a7,7,0,0,1-5.18,2.35,7.38,7.38,0,0,0-3.42-5v-.26c1.16.13,3.06.35,4.17.35.93,0,1.42-.26,1.46-.8s.09-7.31.09-8.46,0-5.23,0-6.91c-4.57,8-9.58,12.63-14.18,15Z"/><path d="M271.4,41.78c3.1,6.34,5.58,9.57,8.59,12.1,2.53,2.08,7.27,4.78,10.68,5.45v.22c-3.54,1-4.25,2-5.67,3.86-4.52-1.82-13.07-13.47-14.49-21.63h0c-.09,4.61-.09,9.57,0,14.18.05,1.69.4,10.73.4,10.77,0,1.28,0,3-2.3,3-1.95,0-1.95-1.15-1.95-1.64,0-1.33.44-8.2.48-9.75.09-3.06.09-8.11.09-12.14a37.08,37.08,0,0,1-17.85,17.41l-.18-.31c3.5-3.19,11.65-10.59,16.39-21.49h-9.92a24.49,24.49,0,0,0-4.79.31l-.75-1.64a61.11,61.11,0,0,0,6.34.27h10.67c-.31-9-.31-9.09-1-11.74l5.18,1.37c.27.09.62.18.62.58s-.7.88-1.46,1.33c0,1.1,0,5.14,0,8.46h10.37l2.3-2.66c.44-.49.49-.58.71-.58s.71.4.8.49l3.05,2.66c.23.22.45.4.45.71s-.45.44-.67.44Z"/><path d="M332.9,37.08H303.08c0,2.27.09,4.48.09,6.74,0,8.37-.45,18.88-8.2,25.57l-.22-.31c3.63-6.16,4.69-12.68,4.69-21.76,0-4.56,0-9.75-.93-13.69L303.3,36h9.35a18.76,18.76,0,0,0-1-6.78l5.45,1a.72.72,0,0,1,.62.62c0,.44-1,1.2-1.33,1.51,0,.44-.09,2.92-.13,3.63h10.41l2.08-2.48c.23-.27.45-.58.67-.58s.57.31.8.49l3,2.48a1.13,1.13,0,0,1,.45.71C333.61,37,333.21,37.08,332.9,37.08Zm-2,8.91H318.14v8.55h6.61l1.55-1.9c.22-.27.4-.53.62-.53s.44.17.71.35L329.84,54c.27.18.53.45.53.71a1,1,0,0,1-.4.71c-.17.13-.93.71-1.06.84,0,1.51.18,8.16.22,9.53.05.31.14,1.73.14,2a2.2,2.2,0,0,1-2.26,2c-1.33,0-1.73-.8-1.64-1.86H310.08c-.05,1.2-.05,1.29-.4,1.64a3.09,3.09,0,0,1-2,.75c-.84,0-1.5-.4-1.5-1.24s.17-2.17.22-3c0-2.44.08-7,.08-9.48a27.43,27.43,0,0,0-.39-4.39l4.65,2.3h3.9c-.05-10.9-.09-14.62-.89-16.17l4.83.93c.44.09.93.22.93.71,0,.31-.75,1-1.24,1.46a3.92,3.92,0,0,0-.09,1v2.48h6.56l2-2.31c.27-.26.49-.62.71-.62s.53.23.89.54l2.74,2.3a1,1,0,0,1,.45.71C331.53,46,331.17,46,330.86,46Zm-5.58,9.62H310.12v11.3h15.29Z"/><path d="M346.68,38c-.4.88-.71,1.77-.71,5,0,1.11.18,6,.18,7,0,.67,0,3.64-1.64,3.64-.85,0-2.44-1.38-2.44-3.77,0-.4.22-2,.31-2.79.13-1.42.18-4.43.18-6.69,0-3.24,0-4.12-3.73-5a5.82,5.82,0,0,1,2.8-1.06c1.24,0,5.4,1.42,5.4,2.66A2.15,2.15,0,0,1,346.68,38Zm15-.18c-.22,1.73-.09,4.52-.13,6.25-.18,8.19-.76,13.78-5.41,18.74-1.55,1.64-4.61,4.34-8.46,4.79l-.14-.31c5.85-3.24,8.69-9.66,9.44-13.34a79.41,79.41,0,0,0,1-13.3c0-6.15-.22-6.29-4.3-7.13a4.87,4.87,0,0,1,3.37-1.28c2.21,0,5.45,1.32,5.45,2.39C362.5,35.14,361.74,37.35,361.7,37.84Z"/><path d="M398.48,41a5,5,0,0,0-1.33.54c-3.19,2-3.77,2.39-9.18,5.67-2.92,11.08-5.18,16.66-12.49,20.34l-.13-.27c7.39-8,8.86-19.63,8.86-20.74,0-1.64-.67-1.9-3.24-2.79a5.81,5.81,0,0,1,2.66-.84c1.2,0,3.94.75,4.43,1.77a1.84,1.84,0,0,1,.18,1c4.39-3.9,6.2-6.38,6.2-7,0-.18,0-.31-.48-.31-.27,0-13.52,1.15-17.82,2.84A16.91,16.91,0,0,1,374,42a8.42,8.42,0,0,1-2.52-1.46c-1.69-1.51-1.78-1.78-1.78-2.88a5.61,5.61,0,0,1,.36-2.26,5,5,0,0,0,4.52,2.52c1.86,0,16.84-1.73,20.2-2.21.36-.09,1.82-.62,2.13-.62.89,0,4.65,3.76,4.65,4.6S401.4,40.41,398.48,41Z"/><path d="M418.41,42.14c-.75,7-.84,7.8-1.37,9.75C415.31,58,410.79,62.43,407,64l-.26-.26c7-7.09,8-14.45,8-20.92,0-2-.13-2.79-.84-3.32a24.59,24.59,0,0,0-2.79-1c.4-.17,2.21-.93,2.57-1.06a1.79,1.79,0,0,1,.8-.13c.88,0,4.56.84,4.56,2.3C419,40,418.46,41.74,418.41,42.14Zm10.2,18.08A33.63,33.63,0,0,0,425.37,63a.77.77,0,0,1-.49.26c-.66,0-3.05-3.81-3.05-4.65,0-.35.66-1.73.7-2a45.88,45.88,0,0,0,.4-7.75c0-1.2-.09-10.68-.17-11.26-.18-1-1.6-1.55-3.5-2.12a5.94,5.94,0,0,1,3-1.07c1.42,0,5.09,1.11,5.09,2.66,0,.4-.57,2.17-.66,2.57-.31,1.77-.8,14.31-.8,16.53,0,.49.13.71.45.71,1.19,0,8.46-5,15.73-13.3l.31.36C438.4,52.64,432,57.6,428.61,60.22Z"/><path d="M482.31,60.3c-.53,0-2.79-.66-3.24-.75a92.51,92.51,0,0,0-10.28-.89c-7.26,0-14.89,1.25-16.35,1.78a13.52,13.52,0,0,1-2,.84c-1.28,0-4-3-4-5.36a6.34,6.34,0,0,1,.32-1.73c.93,1.42,2,3.1,5.22,3.1l7.89-.53c1.2,0,1.37-.09,3.24-.18,0-1.42,0-7.62,0-8.9,0-4.66-.4-4.79-1.95-5.37-.8.14-4.39.76-5,.76-1,0-3.77-2.48-3.81-4.52.88.57,2.35,1.55,5.93,1.55,1.51,0,11.08-.67,12.72-1.24a11.36,11.36,0,0,1,1.77-.76c.58,0,3.82.71,3.82,2.26,0,.09,0,1.42-1.78,1.42-1.1,0-5.85-.09-6.82-.09a14.68,14.68,0,0,0-2.08.09c1.15.84,1.37,1.07,1.37,1.55s-.58,1.91-.62,2.22c-.31,2.66-.62,9.79-.67,10.81,4.13-.22,6.39-.31,7.67-.31a14.1,14.1,0,0,0,3-.18c.71-.13,1.69-.31,1.95-.31,1.42,0,4.66,1.69,4.66,3.64A1,1,0,0,1,482.31,60.3Z"/><path d="M518.73,64.91c-1.2,0-1.86-1.15-2.31-1.86-3.41-5.67-5.45-8.51-9-11.3-6.78,8.07-13.52,12.36-19.76,13.47v-.35c10.59-4.92,21.53-19.77,23-26.06-.13,0-9,1.64-11.34,2.79-1.29.67-1.46.71-1.82.71-.66,0-3.45-2-3.45-4.87a3.58,3.58,0,0,1,.4-1.95c1.81,2.35,2.17,2.84,3.63,2.84,1.06,0,10.77-.85,12.58-2a10.16,10.16,0,0,1,2.09-1.42c.57,0,4,3.28,4,4,0,.49-.31.62-1.73,1.15-.4.18-.58.49-1.24,1.69-2.92,5.32-3.41,6.2-5.72,9.17,5.41,2.26,12.37,7.58,12.37,11.57C520.46,63.54,520.06,64.91,518.73,64.91Z"/><path d="M559.94,46.83c-.05,0-6.83-.75-8.11-.75s-2,0-5.59.31c1.91,1.46,2.09,1.6,2.09,1.91a9.92,9.92,0,0,1-.89,1.68c-.35.84-1.64,4.56-2,5.32-3.55,7.93-8.42,11.3-12.54,12.4l-.23-.17c7-5.5,10.64-15.87,10.64-18.48a2.7,2.7,0,0,0-.75-2.22,35.89,35.89,0,0,0-8.64,2.09,4.71,4.71,0,0,1-1.64.39c-.93,0-4.08-2.61-4.08-5.09a5,5,0,0,1,.35-1.73c1.24,1.73,2,2.88,4.3,2.88.09,0,.22,0,.31,0,1.51-.23,9.4-1.07,11-1.24,3.23-.4,9.17-1.07,9.74-1.24a20.77,20.77,0,0,1,2.22-.58c.62,0,5.36.84,5.36,3.1A1.29,1.29,0,0,1,559.94,46.83ZM550.19,38c-3.24.08-3.28.08-11.7,1.1h-.4a4,4,0,0,1-3.5-3.72,6.26,6.26,0,0,1,.18-1.11c.4.49,1.68,1.78,4.92,1.78a40.48,40.48,0,0,0,7.53-1,26,26,0,0,1,3-.76c.67,0,3.81.62,3.81,2.17S552.45,38,550.19,38Z"/><path d="M600.12,51.53c-.71,0-1.81,0-2.7-.13s-11.65-.14-12.41-.14c-2.57,0-9.35.14-11.38.71a6,6,0,0,1-1.51.31c-1.64,0-4.12-3.5-4.12-5.27a6,6,0,0,1,.71-2.48c1.55,3.1,2.61,3.63,7.88,3.63,2.57,0,17.95,0,19.46-.57a5.77,5.77,0,0,1,1.77-.45c.09,0,5.27.4,5.27,2.75C603.09,50.64,602.25,51.53,600.12,51.53Z"/><path d="M628.88,54.81a2.71,2.71,0,0,1-1.91-1.2c-4.6-5.09-5.85-6.38-9-7.53-.08,2.75.09,12.45.09,12.72,0,.88.31,4.92.31,5.71,0,1.91-.93,3.28-2.12,3.28s-2.4-1.9-2.4-4.34a15.26,15.26,0,0,1,.31-2.7A94.27,94.27,0,0,0,614.7,49c0-2.26-.09-12.54-.53-14.18-.14-.58-.27-1-3.55-2.26a6.37,6.37,0,0,1,2.93-1c.84,0,5.63.93,5.63,2.31a17.6,17.6,0,0,1-.67,2.17,50.4,50.4,0,0,0-.58,9c5.06.62,12.77,3.45,12.77,7.62A1.9,1.9,0,0,1,628.88,54.81Z"/><path d="M61.57,175.26V173.1H79.06v2.16Zm9.93,5.58v12H69.13v-12H61.57v-2.13H79.06v2.13Z"/><path d="M95.05,187.78a6,6,0,0,1-6.37,5.94c-3.08,0-5.83-1.78-5.83-4.86,0-2.91,2.32-4.29,4.8-5.75-1.43-.84-4-2.35-4-5.29,0-2.67,2.11-4.83,5.4-4.83,3.7,0,4.94,2.75,4.94,4.26,0,2.3-2.21,4-3.37,4.84C93.13,183.65,95.05,185,95.05,187.78Zm-9.93,1a3.88,3.88,0,0,0,3.88,4,4.21,4.21,0,0,0,4.11-4.07c0-2.57-2.68-4.08-4.65-5.19C87.25,184.46,85.12,186.11,85.12,188.78ZM92,177.55a3.41,3.41,0,0,0-3.35-3.64,3.1,3.1,0,0,0-3.18,3.21c0,1.89,1.54,2.83,4.34,4.51A5.14,5.14,0,0,0,92,177.55Z"/><path d="M99.59,192.34h1.48c1.41,0,1.89-.54,1.89-1.64V176.09c0-.83-.78-1-1.29-1H99.61v-.84h.49a10.37,10.37,0,0,0,4.4-1.13c.19-.11.27-.16.38-.16s.3.16.3.38V190.7c0,1.16.56,1.64,1.89,1.64h1.48v.87h-9Z"/><path d="M114.71,192.34h1.48c1.41,0,1.89-.54,1.89-1.64V176.09c0-.83-.78-1-1.29-1h-2.06v-.84h.49a10.37,10.37,0,0,0,4.4-1.13c.19-.11.27-.16.38-.16s.3.16.3.38V190.7c0,1.16.56,1.64,1.89,1.64h1.48v.87h-9Z"/><path d="M134,187.7h-5.81V186H134Z"/><path d="M146.92,184a5,5,0,0,1,1.83,4c0,3.32-2.72,5.7-6.29,5.7-2.91,0-5.37-1.65-5.37-3.81a1.55,1.55,0,0,1,1.54-1.72,1.32,1.32,0,0,1,1.32,1.35,2.26,2.26,0,0,1-.16.86,2,2,0,0,0-.08.62c0,1,1.16,1.78,2.43,1.78,2.08,0,4.18-2.05,4.18-4.78s-2-4.94-4.21-4.94c-.16,0-.92.11-1.08.11a.53.53,0,0,1-.59-.56.61.61,0,0,1,.62-.63c.16,0,1,.17,1.16.17,2.27,0,3.7-2,3.7-4.21s-1.27-4.05-3.4-4.05a2,2,0,0,0-2.19,1.81,1.89,1.89,0,0,0,.08.4,2.41,2.41,0,0,1,.08.65,1.42,1.42,0,0,1-1.37,1.48,1.39,1.39,0,0,1-1.35-1.48c0-1.49,1.72-3.78,5.18-3.78s5.4,2.16,5.4,4.53a4.66,4.66,0,0,1-1,2.76,6.47,6.47,0,0,1-3.43,2.29A7.32,7.32,0,0,1,146.92,184Z"/><path d="M153.56,192.34h1.49c1.4,0,1.89-.54,1.89-1.64V176.09c0-.83-.79-1-1.3-1h-2v-.84h.48a10.37,10.37,0,0,0,4.4-1.13c.19-.11.27-.16.38-.16s.3.16.3.38V190.7c0,1.16.57,1.64,1.89,1.64h1.48v.87h-9Z"/><path d="M173.16,193.72a5.48,5.48,0,0,1-4.43-2.92c-1.13-1.86-1.64-5.18-1.64-7.69,0-5.75,2.45-10.12,6.07-10.12,2.78,0,6.07,3,6.07,10.36C179.23,190,176.45,193.72,173.16,193.72Zm-3-16.22a24.26,24.26,0,0,0-.62,5.85c0,6,1.43,9.45,3.64,9.45,1.86,0,2.7-2.48,3-3.51a24.83,24.83,0,0,0,.65-5.94c0-6.15-1.49-9.44-3.65-9.44C171.24,173.91,170.41,176.55,170.14,177.5Z"/><path d="M183.8,192.34h1.49c1.4,0,1.89-.54,1.89-1.64V176.09c0-.83-.79-1-1.3-1h-2v-.84h.48a10.37,10.37,0,0,0,4.4-1.13c.19-.11.27-.16.38-.16s.3.16.3.38V190.7c0,1.16.57,1.64,1.89,1.64h1.48v.87h-9Z"/><path d="M215.71,175.72l.76-.68c.13-.13.32-.32.43-.32a1.31,1.31,0,0,1,.41.27l1.05.78c.13.11.32.27.32.46s-.29.4-1.19.73a32.85,32.85,0,0,1-3.05,4.1v.19c1.95.35,4,1.35,4,2.83a1.05,1.05,0,0,1-1,1c-.49,0-.81-.27-1.16-1.05a6.11,6.11,0,0,0-1.79-2.49v6.32c0,.4.11,5.78.11,6,0,.9-.29,1.38-1.37,1.38-.73,0-.73-.4-.73-.78,0-1.65.24-9.8.29-11.66a20.7,20.7,0,0,1-5.26,3.51l-.11-.17c3.11-2.59,7.1-7.5,8.15-9.77h-3.18a18.88,18.88,0,0,0-3.16.25l-.54-1.08c1.13.1,2.78.19,4,.19a14.92,14.92,0,0,0-.59-5.24l2.72.75c.14,0,.43.14.43.38s-.24.43-.78.76c0,.46,0,2.67,0,3.35Zm13.53-3.16.89-.87c.1-.08.35-.35.43-.35s.32.16.51.3l1.14.86c.16.14.29.27.29.41s-.24.3-.43.3H222a18.49,18.49,0,0,0-3.16.24l-.54-1.08c2,.16,3.67.19,4.16.19Zm0,11.55.76-.84c.1-.13.24-.27.35-.27a.88.88,0,0,1,.37.22l1.25.89a.59.59,0,0,1,.27.41c0,.16-.25.4-.81.83a7.59,7.59,0,0,0-.06.78c0,1,.22,6.4.22,7.51,0,.7-.62,1.05-1.3,1.05s-.73-.32-.67-1.27h-8.48c.06,1-.3,1.51-1.27,1.51-.67,0-.67-.4-.67-.64,0-.95.11-5.08.11-5.91a35.43,35.43,0,0,0-.3-5.7l2.46,1.43Zm-1.46-8.23.65-.65c.13-.14.27-.3.38-.3s.21.11.32.19l1.11.89a.65.65,0,0,1,.27.43c0,.19-.25.38-.76.65,0,.62.14,3.3.14,3.84a1.16,1.16,0,0,1-1.27,1.16c-.65,0-.65-.38-.65-1h-5.83c0,.43,0,1.24-1.13,1.24-.54,0-.76-.24-.76-.94,0-.35.06-2.81.06-3.35,0-1-.09-2.43-.19-3.35l2.21,1.22Zm-6.67,8.88v3.56h3.32v-3.56Zm0,4.21v3.8h3.32V189Zm1-12.45v3.89H228v-3.89Zm7.51,11.8v-3.56h-3.43v3.56Zm0,4.45V189h-3.43v3.8Z"/><path d="M259.1,174.12c-.06,1,.13,15.55.13,17.52,0,1.73,0,3.21-3.05,3.78-.37-1.48-1.35-2-2.72-2.73l0-.18c.54.05,2.19.21,2.68.21.67,0,.89-.11,1-.43s.11-8.37.11-9.45c0-.86,0-8.91,0-9.69H241.12c0,1,0,11.5,0,13.39,0,1.16.11,6.29.11,7.31a1.34,1.34,0,0,1-1.46,1.49c-.4,0-.78-.14-.78-1,0-.37.19-2.08.19-2.4.08-1.83.11-11.85.11-13.66a49.1,49.1,0,0,0-.3-7l2.59,1.27h15.39l.7-.78c.11-.13.19-.22.35-.22a.8.8,0,0,1,.33.17l1.45,1.05c.19.13.33.22.33.43S260,173.53,259.1,174.12Zm-2.92,6.27H250v8.52h2.62c0-3.13.06-3.56,0-4.72a4.94,4.94,0,0,0-.41-1.78l2.38.4c.24.06.56.14.56.46s-.1.35-.67.68c0,.43,0,2.48,0,3s.08,2.51.08,3a1.12,1.12,0,0,1-1.24,1.18c-.76,0-.73-.37-.7-1.51h-7c0,.19,0,1.06,0,1.24a1.15,1.15,0,0,1-1.19,1.3.69.69,0,0,1-.75-.76c0-.29.13-1.16.13-3.91,0-3.83-.08-4.1-.35-5.13l2.51.6c.22,0,.46.1.46.37s0,.27-.81.76v4.88h2.56v-8.52h-2.7a18.5,18.5,0,0,0-3.15.24l-.54-1.08c2.16.19,3.72.19,4.15.19h3.11a14.9,14.9,0,0,0,1.62-6.1l2.75,1.56a.42.42,0,0,1,.27.35c0,.35-.41.46-1.16.6-.73.81-2,2.37-2.92,3.59h3.59l.92-1.05c.16-.17.3-.33.41-.33s.32.14.51.27l1.27,1.05a.55.55,0,0,1,.27.41C256.59,180.36,256.32,180.39,256.18,180.39ZM246.87,179c-.67,0-.86-.57-1.24-1.7a7.37,7.37,0,0,0-1.49-2.92l.14-.16c.35.13,3.72,1.54,3.72,3.56A1.17,1.17,0,0,1,246.87,179Z"/><path d="M272.55,189.91a16.51,16.51,0,0,1-7.4,4.27l0-.16a27.11,27.11,0,0,0,4.64-4.05c1.27-1.41,1.4-1.84,1.51-2.43l2.14,1.4c.21.14.35.27.35.46S273.2,189.89,272.55,189.91Zm16.79-2.86h-11c0,.51,0,1.76,0,3.38,0,1.08.14,2.78.14,3.86a1.36,1.36,0,0,1-1.48,1.35c-.49,0-.79-.19-.79-.84s.16-3.67.16-4.29c.06-1.92,0-2.95,0-3.46h-7.26c0,1.24-1.38,1.24-1.48,1.24-.6,0-.68-.4-.68-.75s.16-2.51.19-3c.05-2,.08-3.72.08-5.83,0-5.26-.11-5.8-.3-6.69l2.54.78c.27.08.54.16.54.41s-.35.51-.84.83c-.08,1.73-.1,3.51-.1,5.24,0,.78.05,6.15.05,7.12h16.47l1.32-1.43c.16-.19.27-.32.46-.32s.35.19.46.27l1.67,1.43a.61.61,0,0,1,.27.43C289.77,187,289.53,187.05,289.34,187.05Zm-4.94-13.6c0,1.11-.11,3.32.13,9,0,.08,0,.7,0,.75a1.2,1.2,0,0,1-1.32,1.24c-.79,0-.76-.51-.76-1.24h-8.07c0,.41,0,1.33-1.35,1.33-.7,0-.73-.36-.73-.65,0-.11,0-.46,0-.57,0-.62.19-5.43.19-8.23a18.32,18.32,0,0,0-.41-4.4l2.68,1.27h7.5l.78-.76c.19-.19.27-.3.46-.3s.33.17.41.25l1.1.91a.72.72,0,0,1,.3.49C285.37,172.8,284.75,173.21,284.4,173.45Zm-1.89-.87h-8.13v2.89h8.13Zm0,3.54h-8.13v2.81h8.13Zm0,3.46h-8.13v3h8.13Zm4,14.54c-.7,0-1-.48-1.72-1.64a11.21,11.21,0,0,0-4-3.89l.08-.19c3.75.62,6.77,2.86,6.77,4.59A1.11,1.11,0,0,1,286.5,194.12Z"/><path d="M318,177.23H307v6.58h4.83l.71-.86c.16-.19.32-.38.48-.38a.73.73,0,0,1,.51.24l1.14.9c.19.16.4.32.4.51s-.27.48-1,1c0,3.7,0,4.56.19,8,0,.14,0,.25,0,.43A1.35,1.35,0,0,1,312.8,195c-.78,0-.78-.46-.78-.76s0-.54.05-.84h-12.2c0,.79.08,1.89-1.37,1.89a.83.83,0,0,1-.89-.89c0-.11.05-.46.08-.67.16-1.6.16-3.57.16-4.27a42.64,42.64,0,0,0-.38-7.07l3,1.4H305v-6.58h-7.61a18.78,18.78,0,0,0-3.19.24l-.54-1.08c1.87.16,3.78.19,4.16.19H305c0-1.59-.08-4.18-.21-4.75a12.1,12.1,0,0,0-.44-1.51l3,.91c.3.09.57.27.57.49,0,.38-.38.65-1,1v3.83h7.1l1.27-1.62c.16-.22.3-.35.46-.35a1,1,0,0,1,.46.27l1.89,1.64a.61.61,0,0,1,.27.41C318.42,177.2,318.17,177.23,318,177.23Zm-5.91,7.23H299.85v8.31H312.1Z"/><path d="M334.13,175c-.29,3.45-.91,4.94-3.67,5.26a3.65,3.65,0,0,0-1.37-2.37l.1-.19a5.33,5.33,0,0,0,1.62.24c.49,0,1,0,1.22-.67a18.71,18.71,0,0,0,.51-3h-3a10.41,10.41,0,0,1-7.1,7.78l-.08-.25a12.65,12.65,0,0,0,5.4-7.53h-.67a16.24,16.24,0,0,0-3.19.25l-.54-1.08c1.54.13,3.19.19,4.54.19a13.27,13.27,0,0,0,.16-1.81,8.92,8.92,0,0,0-.11-1.35l2.43.83c.27.11.48.17.48.41s-.1.27-.86.73c-.13.62-.19.86-.27,1.19h2.59l.51-.49c.19-.19.41-.4.54-.4s.27.18.41.29l.89.78a.63.63,0,0,1,.27.46C335,174.42,334.51,174.74,334.13,175Zm-.73,17.55c-.21.05-.8.1-1,.13a24.53,24.53,0,0,1-9.15,2.73l-.05-.22c3.1-1,7.31-3.27,8-4.64l2.24,1.27a.44.44,0,0,1,.24.4A.31.31,0,0,1,333.4,192.51Zm8.24-10.18c0,.94.08,2.83.11,3.59s.21,3.56.21,3.89a1.15,1.15,0,0,1-1.21,1.32c-.81,0-.81-.51-.81-.81h-10a1.12,1.12,0,0,1-1.27,1.11c-.73,0-.73-.49-.73-.76,0-1,.11-5.29.11-6.18a28.26,28.26,0,0,0-.22-4.51l2.32,1.05h9.37l.78-.81c.16-.16.32-.32.43-.32a1.2,1.2,0,0,1,.54.24l1.08.7a.55.55,0,0,1,.27.41C342.58,181.47,342.29,181.73,341.64,182.33Zm-1.7-.65h-10v2.13h10Zm0,2.78h-10v2.3h10Zm0,2.94h-10v2.27h10ZM344.18,174c0,.73.18,3.43.18,4A1.6,1.6,0,0,1,344,179a1.21,1.21,0,0,1-.84.35c-.81,0-.81-.46-.78-1.14h-4.64c0,.44,0,1.35-1.19,1.35-.67,0-.7-.43-.7-.81s.11-2.75.11-3.13a33.09,33.09,0,0,0-.27-4l2.24,1.08h4.15l.71-.57c.27-.21.37-.29.45-.29a1.09,1.09,0,0,1,.41.18l1,.71c.22.16.3.27.3.4S344.61,173.66,344.18,174Zm-1.11,21.46c-.3,0-.54,0-1.3-.78a18,18,0,0,0-5.29-3.3v-.24a15.5,15.5,0,0,1,5.43,1c1.19.49,2.29,1.14,2.29,2.14A1.15,1.15,0,0,1,343.07,195.42Zm-.62-22h-4.67v4.23h4.67Z"/><path d="M375.09,175.82H362.38l2.24.73c.16.06.35.16.35.35s-.19.41-.73.79c0,.43-.08,1.83-.14,2.75h5.4l.78-.84c.22-.21.3-.29.44-.29a.85.85,0,0,1,.48.27l1.08.86c.22.16.35.32.35.49,0,.35-.51.67-.81.89,0,1.26.14,6.93.14,8.09,0,.79,0,2.65-3,3.22a4.94,4.94,0,0,0-2.27-2.57v-.19a13.45,13.45,0,0,0,1.78.11c.92,0,1.46-.11,1.54-.51s.06-7.34,0-8.88H364.1c0,3,0,8.36.11,11.17,0,.3.08,1.62.08,1.89,0,1.24-1.43,1.32-1.54,1.32a.7.7,0,0,1-.78-.81c0-2.26.27-5.91.3-8.17s0-3.11,0-5.4h-5.45c0,.86,0,4.61,0,5.4s.08,4.34.08,5.07a1.32,1.32,0,0,1-1.43,1.43c-.62,0-.76-.32-.76-.67a5.09,5.09,0,0,1,0-.54c.08-1.16.22-6.13.22-8.64a16.08,16.08,0,0,0-.36-4l2.68,1.32h5c0-3.08,0-3.43-.33-4.62h-7.26a18.56,18.56,0,0,0-3.18.25L351,175c1.81.14,3.64.17,4.15.17h7.21a10.25,10.25,0,0,0-.7-4.7l3,.65c.24.05.51.13.51.4s0,.3-.89.81c0,.46,0,2.43,0,2.84h7l1.3-1.52c.19-.24.3-.32.43-.32a.74.74,0,0,1,.49.27l1.72,1.51c.17.14.27.24.27.43S375.28,175.82,375.09,175.82Z"/><path d="M397.77,180.57l1.05-1.48c.22-.3.3-.35.44-.35s.4.21.48.27l1.73,1.51c.16.13.27.22.27.41s-.22.29-.41.29h-8.82a15.44,15.44,0,0,0,12,10.47v.19a4.83,4.83,0,0,0-2.46,2.24c-4.51-1.75-8.77-6.1-10-12.9h-.29c-.38,3.08-1.19,9.88-11.42,12.93l0-.3a17.47,17.47,0,0,0,8.53-8.34,14.4,14.4,0,0,0,1-4.29h-4.54a16,16,0,0,0-3.15.25l-.54-1.08c1.83.16,3.75.18,4.15.18H390a50.88,50.88,0,0,0,.24-6.47h-6.12a19.62,19.62,0,0,0-3.19.24l-.51-1.08c1.86.16,3.91.19,4.13.19h14.74l1.1-1.46c.14-.16.25-.32.41-.32s.27.05.51.27l1.75,1.45c.14.11.27.19.27.41s-.24.3-.43.3H392.21a62.56,62.56,0,0,1-.32,6.47Z"/><path d="M418.29,177.09c-.64.89-1.62,2.24-3.26,4.19v.13c1.75.41,3.88,1.59,3.88,2.92,0,.35-.21,1.16-1,1.16s-.91-.52-1.13-1a7.88,7.88,0,0,0-1.78-2.75v6c0,.6.13,6.1.13,6.29a1.29,1.29,0,0,1-1.29,1.3.72.72,0,0,1-.79-.81c0-.3.11-1.59.11-1.84.11-2.32.11-3.18.19-9.53a20.37,20.37,0,0,1-5.75,4.11l-.05-.11a44,44,0,0,0,8.82-10.69h-4.23a16.9,16.9,0,0,0-3.19.24l-.51-1.08c1.83.17,3.78.19,4.13.19h.78a18.54,18.54,0,0,0-.46-5.18l2.81.94a.4.4,0,0,1,.27.36c0,.24-.49.54-.84.75a7.16,7.16,0,0,0-.05,1.16v2h1.32l.78-.73c.17-.16.25-.21.33-.21s.19,0,.32.19l1.38,1.21a.63.63,0,0,1,.19.38C419.43,176.8,419.43,176.82,418.29,177.09Zm12.85.06c-.05.54-.08,1-.08,1.56,0,2.24.08,4.86.11,6.4,0,.51.11,2.7.11,3.16a1.11,1.11,0,0,1-1.19,1.21c-.73,0-.73-.57-.7-1.27h-3c0,1.08.14,5,.14,5.91a1.19,1.19,0,0,1-1.27,1.22c-.7,0-.81-.41-.81-.73s.06-2,.06-2.38c0-2.53,0-2.56,0-4h-2.75a1.2,1.2,0,0,1-.11.79,1.31,1.31,0,0,1-1.05.54.67.67,0,0,1-.73-.71c0-.18,0-.29,0-.45.16-2.08.16-5.27.16-6.4a64.66,64.66,0,0,0-.27-7.42l2.32,1.29h2.38c0-.51,0-2.78,0-3.27a7.13,7.13,0,0,0-.46-2.07l2.78.72c.21.06.35.17.35.36s-.49.62-.81.91c0,.46,0,.54,0,1.43v1.92h2.62l.87-.78c.18-.16.24-.22.35-.22a.42.42,0,0,1,.32.16l1.27,1.08a.39.39,0,0,1,.13.27C431.84,176.55,431.79,176.61,431.14,177.15Zm-6.64-.65h-2.78v5.13h2.84Zm-2.78,5.77v5.29h2.81c0-.75.05-4.45.05-5.29Zm7.67-5.77h-3.11l0,5.13h3.13Zm0,5.77h-3.13c0,.49.08,4.46.1,5.29h3Z"/><path d="M438.68,175.63l-.24,6.81a5.67,5.67,0,0,1,4.18-1.87c3.89,0,5.75,3.22,5.75,6.19a6.85,6.85,0,0,1-6.67,7c-3.07,0-5.1-2.29-5.1-4a1.53,1.53,0,0,1,1.57-1.67,1.33,1.33,0,0,1,1.4,1.4,3,3,0,0,1-.13.81,3.64,3.64,0,0,0-.08.76c0,1.16,1.21,1.75,2.29,1.75,2.19,0,4.24-2.08,4.24-5.69,0-3.43-1.81-5.32-3.78-5.32a5.84,5.84,0,0,0-4.21,2.35l-.41-.22.41-10.42h9.39l-.54,2.13Z"/><path d="M475.93,174H465.41c0,.76.11,15.58.11,16.39,0,2.32,0,4.26-3.76,4.64-.13-1.13-.32-1.67-3.34-3.32l.05-.19a25.7,25.7,0,0,0,3.59.38c.84,0,1.24-.11,1.35-.54a15.19,15.19,0,0,0,.08-2c0-2.43,0-13.17,0-15.39h-7.67a18.51,18.51,0,0,0-3.18.24l-.54-1.05c1.67.11,3.35.16,4.16.16h15.38l1.51-1.59c.11-.11.27-.32.44-.32a.91.91,0,0,1,.48.27l2,1.59a.61.61,0,0,1,.27.43C476.34,174,476.1,174,475.93,174Z"/><path d="M494.65,172.69l.75-.78c.17-.19.3-.32.46-.32a.84.84,0,0,1,.49.27l1.32,1.1c.24.22.3.35.3.49,0,.32-.38.57-1,1-.05,1.21-.05,1.67-.05,2.86,0,6.53.13,10,.29,15,0,0,0,.46,0,.57,0,1.13-1.4,1.21-1.51,1.21-.79,0-.73-.67-.7-1.13H484.77c.05.54.05.7-.11.94a1.81,1.81,0,0,1-1.43.65c-.7,0-.73-.38-.73-.7,0-.52.16-2.67.19-3.11.11-2.59.13-9.15.13-11.85a42.53,42.53,0,0,0-.35-7.5l2.7,1.32Zm-9.88.65v5.8h10.28v-5.8Zm0,6.45v5.83h10.28v-5.83Zm0,6.48v6h10.28v-6Z"/><path d="M504.37,192.34h1.49c1.4,0,1.89-.54,1.89-1.64V176.09c0-.83-.79-1-1.3-1H504.4v-.84h.49a10.36,10.36,0,0,0,4.39-1.13.82.82,0,0,1,.38-.16c.25,0,.3.16.3.38V190.7c0,1.16.57,1.64,1.89,1.64h1.48v.87h-9Z"/><path d="M524,193.72a5.46,5.46,0,0,1-4.42-2.92c-1.14-1.86-1.65-5.18-1.65-7.69,0-5.75,2.46-10.12,6.07-10.12,2.78,0,6.08,3,6.08,10.36C530.05,190,527.27,193.72,524,193.72Zm-3-16.22a24.26,24.26,0,0,0-.62,5.85c0,6,1.43,9.45,3.64,9.45,1.87,0,2.7-2.48,3-3.51a24.83,24.83,0,0,0,.65-5.94c0-6.15-1.49-9.44-3.65-9.44C522.06,173.91,521.22,176.55,521,177.5Z"/><path d="M556.1,185.24a19.83,19.83,0,0,1-9.45-7.18v2.16c0,.43.08,2.41.08,2.7a1.26,1.26,0,0,1-1.29,1.41c-.49,0-.73-.27-.73-.79s.13-2.8.13-3.26v-1.81c-2.21,2.81-7.56,6.85-11.61,7.75l-.05-.17A37.24,37.24,0,0,0,543,177.9h-5.48a17.78,17.78,0,0,0-3.18.25l-.51-1.09c1.7.14,3.37.19,4.12.19h7V173c-.92.08-2.59.22-4.75.22a29.48,29.48,0,0,1-4-.22v-.21a67.38,67.38,0,0,0,13.53-2.11,3.35,3.35,0,0,0,1.48-.67l1.62,1.4c.14.14.3.3.3.43,0,.38-.52.38-.65.38a4.38,4.38,0,0,1-.92-.11c-2.26.43-3.05.52-4.83.73v4.37h1.67a11.54,11.54,0,0,0,2.08-4.37l2,1.24c.13.08.35.27.35.46,0,.43-.51.51-1.16.6a20.3,20.3,0,0,1-2.65,2.07h5l1.22-1.37c.13-.16.27-.33.43-.33s.32.17.49.3l1.51,1.35c.16.14.27.27.27.4s-.25.3-.41.3H547.06c3.26,3.11,7.42,5,11.31,4.78v.24A4.9,4.9,0,0,0,556.1,185.24Zm-3.46,1.19c0,1.86,0,4.67,0,5.64,0,.3.14,1.62.14,1.92a1.29,1.29,0,0,1-1.41,1.24c-.67,0-.67-.3-.62-1.35h-9.91c0,.51.06,1.49-1.32,1.49-.7,0-.7-.46-.7-.65s0-.65,0-.78c.11-2,.17-4.21.17-5.75a19,19,0,0,0-.27-4.35l2.32,1.13h9.31l.65-.72c.16-.17.24-.27.38-.27a.9.9,0,0,1,.43.24l1.37,1a.48.48,0,0,1,.22.38C553.48,186,552.86,186.3,552.64,186.43ZM541.36,177c-.67,0-.86-.51-1-1a8.11,8.11,0,0,0-1.29-2.35l.13-.18c2.68.72,3.27,1.83,3.27,2.48A1.06,1.06,0,0,1,541.36,177Zm3.54,8.64h-4v3.43h4Zm0,4.08h-4v3.53h4Zm5.88-4.08H546.7v3.43h4.08Zm0,4.08H546.7v3.53h4.08Z"/><path d="M571.71,184a5,5,0,0,1,1.83,4c0,3.32-2.72,5.7-6.29,5.7-2.91,0-5.37-1.65-5.37-3.81a1.56,1.56,0,0,1,1.54-1.72,1.32,1.32,0,0,1,1.32,1.35,2.26,2.26,0,0,1-.16.86,2,2,0,0,0-.08.62c0,1,1.16,1.78,2.43,1.78,2.08,0,4.18-2.05,4.18-4.78s-2.05-4.94-4.21-4.94c-.16,0-.92.11-1.08.11a.53.53,0,0,1-.59-.56.61.61,0,0,1,.62-.63c.16,0,1,.17,1.16.17,2.27,0,3.7-2,3.7-4.21s-1.27-4.05-3.4-4.05a2,2,0,0,0-2.19,1.81,2.83,2.83,0,0,0,.08.4,2.41,2.41,0,0,1,.08.65,1.42,1.42,0,0,1-1.37,1.48,1.4,1.4,0,0,1-1.35-1.48c0-1.49,1.72-3.78,5.18-3.78s5.4,2.16,5.4,4.53a4.66,4.66,0,0,1-1,2.76,6.47,6.47,0,0,1-3.43,2.29A7.32,7.32,0,0,1,571.71,184Z"/><path d="M601.51,181.41H588.12c-.7,1.3-1.48,3.08-1.83,3.89h7.56l1-.84a.71.71,0,0,1,.4-.21c.14,0,.3.16.43.29l1.35,1.24a.7.7,0,0,1,.25.44c0,.35-.52.48-1.35.72-1.22,5.65-1.84,8.62-7,8.51a4.59,4.59,0,0,0-2.7-3.08l0-.16a23,23,0,0,0,4.56.7c1.35,0,2.19-.89,3.19-7h-8a27.7,27.7,0,0,1-1.49,3.07,1.2,1.2,0,0,1-1,.46c-.46,0-1.05-.24-1.05-.67a1.26,1.26,0,0,1,.16-.54c1.62-3.08,1.81-3.46,3.37-6.86h-5a19.3,19.3,0,0,0-3.19.24l-.54-1.05c2.13.16,3.67.16,4.16.16h16.49l1.22-1.48c.13-.16.27-.33.43-.33a1.17,1.17,0,0,1,.48.27l1.68,1.52a.58.58,0,0,1,.27.4C601.92,181.41,601.65,181.41,601.51,181.41Zm-5.53-8.2c0,1,0,3.72,0,4.72,0,.38,0,1.11-1.17,1.11-.86,0-.91-.41-.83-1.33h-9.34c0,.68,0,1.51-1.32,1.51a.7.7,0,0,1-.73-.7c0-.19.11-1.05.11-1.24,0-.94.13-2.21.13-3.54a11.51,11.51,0,0,0-.32-3.05l2.51,1.19h8.74l.54-.65c.11-.13.27-.29.38-.29a1.07,1.07,0,0,1,.43.21l1.3.79a.6.6,0,0,1,.29.46C596.73,172.56,596.55,172.77,596,173.21Zm-2-.68H584.7v4.53H594Z"/><path d="M616,193.21H605.41v-.73c.54-1.7,1.81-3.59,4-6,4-4.59,5.32-6.13,5.32-8.83a3.46,3.46,0,0,0-3.59-3.69c-1.89,0-3,1.13-3,2.1a1.51,1.51,0,0,0,.27.84,2.35,2.35,0,0,1,.57,1.35,1.5,1.5,0,0,1-1.46,1.51,1.7,1.7,0,0,1-1.54-1.89c0-2,1.92-4.83,5.8-4.83,3.35,0,5.4,2.1,5.4,5,0,2.73-1.56,4.21-4,6.29-.92.76-4.48,3.8-5.83,6.77H611c3.78,0,4.67-1.45,5.48-3.69l.81.29Z"/><path d="M628.87,193.21h-8v-.87h1a1.75,1.75,0,0,0,1.94-1.86V176.26a1.74,1.74,0,0,0-1.94-1.87h-1v-.89h15.33l1.63,4.67-.81.38c-.82-1.38-2.46-4.16-6.16-4.16h-3a1.74,1.74,0,0,0-1.94,1.87v6.31h3.91c2,0,2.65-.75,2.65-2.67v-.54h.86v7.72h-.86v-1c0-1.65-.65-2.67-2.65-2.67h-3.91v7a1.74,1.74,0,0,0,1.94,1.86h1.06Z"/><path d="M219.12,218.18l.49-.45c.09-.09.21-.22.28-.22a.81.81,0,0,1,.26.18l.68.52c.09.08.21.18.21.31s-.19.27-.77.49a20.88,20.88,0,0,1-2,2.73v.13c1.26.23,2.57.9,2.57,1.89a.69.69,0,0,1-.67.68c-.31,0-.52-.18-.75-.7a3.88,3.88,0,0,0-1.15-1.65v4.21c0,.27.07,3.85.07,4,0,.59-.19.92-.89.92-.47,0-.47-.27-.47-.53,0-1.09.16-6.53.19-7.77a13.68,13.68,0,0,1-3.4,2.34l-.07-.11a26.1,26.1,0,0,0,5.27-6.52h-2.06a12.31,12.31,0,0,0-2,.16l-.35-.72c.73.07,1.8.13,2.56.13a9.91,9.91,0,0,0-.38-3.49l1.76.5c.09,0,.28.09.28.25s-.15.29-.5.5c0,.31,0,1.79,0,2.24Zm8.75-2.11.57-.57c.07-.06.23-.24.28-.24s.21.11.33.2l.74.57c.1.09.19.19.19.28s-.16.19-.28.19h-6.55a11,11,0,0,0-2,.17l-.35-.73c1.28.11,2.38.13,2.69.13Zm0,7.71.49-.56c.07-.09.16-.18.23-.18a.62.62,0,0,1,.24.14l.8.6a.38.38,0,0,1,.18.27c0,.11-.16.27-.53.55,0,.15,0,.4,0,.53,0,.65.14,4.27.14,5a.75.75,0,0,1-.84.71c-.47,0-.47-.22-.44-.85h-5.48c0,.63-.19,1-.82,1-.43,0-.43-.27-.43-.43,0-.63.07-3.39.07-3.95a23.7,23.7,0,0,0-.2-3.8l1.59,1Zm-.94-5.49.42-.44c.08-.09.17-.19.24-.19s.14.07.21.12l.72.6a.44.44,0,0,1,.17.28c0,.13-.16.26-.49.44,0,.41.09,2.19.09,2.55a.76.76,0,0,1-.82.78c-.42,0-.42-.25-.42-.69h-3.77c0,.29,0,.83-.73.83-.35,0-.49-.16-.49-.63,0-.23,0-1.87,0-2.23a22.24,22.24,0,0,0-.12-2.23l1.43.81Zm-4.31,5.92v2.38h2.14v-2.38Zm0,2.81v2.54h2.14V227Zm.64-8.3v2.59h3.81v-2.59Zm4.85,7.87v-2.38h-2.21v2.38Zm0,3V227h-2.21v2.54Z"/><path d="M248.92,217.11c0,.67.09,10.38.09,11.69,0,1.15,0,2.14-2,2.52-.25-1-.87-1.33-1.76-1.82v-.12c.35,0,1.42.14,1.73.14s.58-.07.63-.29.07-5.58.07-6.3,0-5.94,0-6.46H237.3c0,.64,0,7.67,0,8.93,0,.77.07,4.19.07,4.88a.88.88,0,0,1-.94,1c-.26,0-.51-.09-.51-.69,0-.25.12-1.38.12-1.6.06-1.22.07-7.9.07-9.11a34.2,34.2,0,0,0-.19-4.68l1.68.84h9.95l.45-.52c.07-.09.12-.14.23-.14a.43.43,0,0,1,.21.11l.94.7c.12.09.21.14.21.29S249.5,216.72,248.92,217.11ZM247,221.29h-4V227h1.7c0-2.09,0-2.38,0-3.15a3.47,3.47,0,0,0-.26-1.19l1.53.27c.16,0,.37.09.37.31s-.07.23-.44.45c0,.29,0,1.66,0,2s.06,1.67.06,2a.73.73,0,0,1-.81.79c-.48,0-.47-.25-.45-1h-4.5c0,.13,0,.71,0,.83,0,.85-.66.87-.76.87a.46.46,0,0,1-.49-.51c0-.2.08-.77.08-2.61a11.41,11.41,0,0,0-.22-3.42l1.62.4c.14,0,.3.07.3.25s0,.18-.53.5V227h1.66v-5.69h-1.74a12.5,12.5,0,0,0-2,.16l-.35-.72c1.4.13,2.41.13,2.69.13h2a9.93,9.93,0,0,0,1-4.07l1.78,1.05a.26.26,0,0,1,.17.23c0,.23-.26.31-.75.4-.47.54-1.27,1.58-1.88,2.39h2.32l.59-.7c.11-.11.19-.22.26-.22s.21.09.34.18l.82.7a.39.39,0,0,1,.17.28C247.3,221.27,247.13,221.29,247,221.29Zm-6-.9c-.44,0-.56-.38-.81-1.13a5.08,5.08,0,0,0-1-1.95l.09-.1c.23.09,2.41,1,2.41,2.37A.76.76,0,0,1,241,220.39Z"/><path d="M259.37,227.65a10.65,10.65,0,0,1-4.79,2.84l0-.1a17.89,17.89,0,0,0,3-2.7c.82-.94.91-1.23,1-1.63l1.38.94c.14.09.23.18.23.31S259.79,227.63,259.37,227.65Zm10.86-1.91h-7.14c0,.34,0,1.17,0,2.25,0,.72.09,1.86.09,2.58a.88.88,0,0,1-1,.9c-.31,0-.51-.13-.51-.56s.11-2.45.11-2.87c0-1.27,0-2,0-2.3h-4.7c0,.83-.89.83-1,.83-.38,0-.44-.27-.44-.51s.11-1.67.13-2c0-1.32.05-2.49.05-3.89a21,21,0,0,0-.19-4.47l1.64.52c.17.06.35.11.35.27s-.23.35-.54.56c-.06,1.15-.07,2.34-.07,3.49,0,.53,0,4.11,0,4.76H267.8l.85-1c.11-.12.18-.21.3-.21s.23.12.3.18l1.08,1a.41.41,0,0,1,.17.29C270.5,225.72,270.35,225.74,270.23,225.74Zm-3.2-9.07c0,.73-.07,2.21.09,6,0,.06,0,.47,0,.51a.79.79,0,0,1-.86.82c-.51,0-.49-.34-.49-.82h-5.22c0,.27,0,.88-.87.88-.45,0-.47-.24-.47-.44s0-.3,0-.37c0-.42.12-3.62.12-5.49a12.86,12.86,0,0,0-.26-2.94l1.72.85h4.86l.5-.51c.13-.12.18-.2.3-.2s.21.11.26.17l.72.61a.46.46,0,0,1,.19.32C267.66,216.23,267.26,216.5,267,216.67Zm-1.22-.58h-5.26V218h5.26Zm0,2.36h-5.26v1.87h5.26Zm0,2.3h-5.26v2h5.26Zm2.58,9.71c-.45,0-.64-.33-1.11-1.1a7.33,7.33,0,0,0-2.57-2.59l.05-.13c2.43.41,4.38,1.91,4.38,3.06A.73.73,0,0,1,268.39,230.46Z"/><path d="M283.44,223.42h-3.16a11.8,11.8,0,0,1-.45,2.72c1.94.72,3.28,1.92,3.28,3a.82.82,0,0,1-.71.88c-.47,0-.77-.56-1-1.08a5.87,5.87,0,0,0-1.68-2.57,7.35,7.35,0,0,1-4.8,4.91l0-.12a9.39,9.39,0,0,0,3.14-3.68,10.86,10.86,0,0,0,1.06-4.08h-1.65a12.5,12.5,0,0,0-2.06.16l-.35-.72c1.38.13,2.56.13,2.69.13h1.41c.07-.78.1-1.48.1-2.65,0-.78,0-1.3,0-1.62h-1.1a12.15,12.15,0,0,1-2.39,3.49l-.11-.09c.86-1.57,2.38-5.4,2.24-7.47l1.67.79c.18.07.32.18.32.33s-.26.3-.74.45a16.54,16.54,0,0,1-.78,2.07h2.76l.59-.76c.16-.2.19-.25.3-.25s.22.11.33.2l.85.77c.09.09.18.16.18.27s-.18.2-.26.2h-2.67c0,1.83,0,3.13-.11,4.27h1.14l.49-.72c.1-.17.19-.29.29-.29s.14,0,.33.2l1,.77a.4.4,0,0,1,.18.27C283.71,223.4,283.53,223.42,283.44,223.42Zm6.31-4.32c-.06,1.67,0,5.47,0,7.9,0,.43.14,2.29.14,2.67a.86.86,0,0,1-.89.91c-.54,0-.52-.25-.47-1.55H285.4c0,.22,0,1.28,0,1.39a.88.88,0,0,1-.87.52c-.54,0-.54-.32-.54-.46,0-.38.07-1,.09-1.37,0-1.16.13-5,.13-7.21a31.94,31.94,0,0,0-.22-4.64l1.59.81h2.86l.54-.49c.09-.09.14-.14.21-.14a.31.31,0,0,1,.21.13l.8.72a.39.39,0,0,1,.18.28C290.36,218.72,290.18,218.88,289.75,219.1Zm-1.19-.6H285.4v10.1h3.16Z"/><path d="M311.1,225.16h-2.76c0,.08,0,.85,0,1s.09,1.33.09,1.46c0,.58-.6.77-.89.77-.49,0-.48-.3-.42-1h-3.49c0,2.14,0,2.31-.13,2.68a2.58,2.58,0,0,1-1.85,1.46c-.31-1.1-1-1.55-2.2-2l0-.12c.35,0,1.47.16,2.13.16.16,0,.59,0,.7-.21s.09-.37.12-1.95h-3.23a10.45,10.45,0,0,0-2,.16l-.35-.72c1.08.09,2.16.13,2.69.13h2.93l0-1.77h-5.14a11.54,11.54,0,0,0-2.06.17l-.34-.73c1.16.11,2.35.13,2.68.13h4.86v-1.8H299a10.8,10.8,0,0,0-2.06.18l-.35-.72c1.22.11,2.53.11,2.69.11h3.16v-1.69h-3.37a1,1,0,0,1-.07.5.93.93,0,0,1-.77.4.4.4,0,0,1-.44-.4c0-.11.09-1.46.09-1.75a8.43,8.43,0,0,0-.12-2l1.39.67h3.29v-1.37h-4.54a11.57,11.57,0,0,0-2.06.16l-.33-.72c1.08.09,2.16.13,2.67.13h4.26a9.72,9.72,0,0,0-.34-2.07L304,215c.2.06.28.15.28.28s-.29.34-.61.48c0,.16,0,.47,0,.74h4.18l.72-.86c.12-.17.18-.22.26-.22s.16,0,.33.18l1.12.86c.14.11.18.18.18.27s-.16.2-.27.2h-6.54c0,.11,0,1.17,0,1.37h3.3l.38-.38c.13-.12.18-.18.25-.18s.12,0,.24.13l.74.61a.29.29,0,0,1,.15.25c0,.2-.35.36-.47.42,0,.25,0,1.35,0,1.58a.8.8,0,0,1-.82.83c-.42,0-.4-.34-.39-.7h-3.42c0,.43,0,.55,0,1.69h3.33l.49-.54c.13-.13.18-.2.26-.2s.13,0,.3.18l.7.61a.45.45,0,0,1,.16.26c0,.09-.06.18-.51.5v1.42h.72l.69-.88c.14-.16.18-.24.27-.24s.17.06.31.2l.87.89c.13.12.16.19.16.27S311.2,225.16,311.1,225.16Zm-8.62-6.48h-3.37v1.69h3.37Zm4.53,0h-3.4v1.69H307Zm.14,4.25h-3.54v1.8h3.54Zm0,2.23h-3.52l0,1.77h3.5Z"/><path d="M327.48,219.69l.43-.54c.09-.09.2-.22.32-.22s.14,0,.3.15l.69.59c.11.09.21.18.21.31s0,.16-.21.3-.24.2-.38.33c0,.38,0,1,.07,1.89,0,.29.09,1.67.09,1.73a.79.79,0,0,1-.82.79c-.48,0-.51-.38-.49-.7H325c0,.2,0,4.7,0,4.89a.41.41,0,0,0,.3.29c.23,0,2.08.09,2.32.09,1.63,0,1.8-.27,2-.72a23.4,23.4,0,0,0,.66-2.45h.09a13.27,13.27,0,0,0,.57,2.8c.06.06.32.26.35.31a.36.36,0,0,1,.07.24c0,1-1.67,1.09-3.91,1.09-3.17,0-3.66-.07-3.66-1.76,0-.76,0-4.09,0-4.77h-2.11l.67.36c.12.07.24.16.24.3s-.09.18-.14.24l-.38.21a7.82,7.82,0,0,1-6.86,5.62v-.12a8,8,0,0,0,5.65-6.61h-2c0,.41,0,.9-.85.9a.44.44,0,0,1-.49-.49c0-.39.08-2.14.1-2.5,0-.65,0-1.55,0-2.38a11.57,11.57,0,0,1-2.5,1.28l-.07-.11a19.8,19.8,0,0,0,5.21-5.49,2.43,2.43,0,0,0,.35-1.08l1.6.88a.45.45,0,0,1,.21.31.28.28,0,0,1-.19.25c-.09,0-.47.13-.56.16-.21.26-.26.31-.42.49h3.81l.69-.52c.2-.15.27-.22.37-.22s.16,0,.32.2l.75.77a.51.51,0,0,1,.14.33c0,.36-.37.38-1,.38-1.4,1-1.58,1.11-3.06,2.21Zm-4.59,0a24.06,24.06,0,0,0,1.92-2.72h-3.9a18.15,18.15,0,0,1-2.49,2.34l.54.38Zm-.25,4.2v-3.77h-3.77v3.77Zm1.21-3.77v3.77h3.84v-3.77Z"/><path d="M342.65,218.68h-4.22a12.12,12.12,0,0,0-2.06.16l-.35-.72c1.15.11,2.35.13,2.69.13h2.11l.52-.68c.07-.09.18-.22.28-.22s.18.05.32.18l.8.67a.38.38,0,0,1,.17.28C342.91,218.65,342.77,218.68,342.65,218.68Zm-.92-2.14H339a12.24,12.24,0,0,0-2.06.16l-.35-.7c1.21.11,2.55.11,2.69.11H340l.44-.58c0-.07.17-.23.28-.23s.19.1.31.2l.75.57a.39.39,0,0,1,.18.29C342,216.52,341.83,216.54,341.73,216.54Zm-.53,4.32h-2.13A11.69,11.69,0,0,0,337,221l-.35-.7c1,.07,1.91.11,2.95.11l.44-.61c0-.06.16-.24.28-.24s.23.13.31.2l.67.61a.46.46,0,0,1,.15.29C341.46,220.84,341.34,220.86,341.2,220.86Zm.88,4.36c-.06.07-.34.32-.39.38,0,1,.14,2.53.14,3.52a.82.82,0,0,1-.84.85c-.5,0-.5-.3-.47-1.12H338c0,.17,0,.89,0,1,0,.4-.17.83-.92.83-.32,0-.42-.13-.42-.52s0-.9,0-1.25c.05-1.49.07-2.66.07-3.16,0-.17,0-1.39-.09-1.95l1.42.87h2.18l.4-.54c.09-.13.14-.17.26-.17a.8.8,0,0,1,.23.11l.73.6c.09.07.21.16.21.3A.35.35,0,0,1,342.08,225.22Zm-.7-2.16h-2.15a12.18,12.18,0,0,0-2.06.16l-.35-.72c1.22.11,2.53.12,2.69.12h.31l.46-.55c.12-.15.14-.22.28-.22a.46.46,0,0,1,.31.18l.59.56c.16.14.18.22.18.27S341.48,223.06,341.38,223.06Zm-.84,2.07H338v3.29h2.51Zm11.08-1.73h-4.38c0,1.42,0,1.58,0,1.82,0,1.35.14,3.49.14,4.82a.93.93,0,0,1-.94,1.06c-.53,0-.6-.34-.6-.84,0-.34.09-2,.09-2.36,0-.61,0-1.69.07-4.5h-1.47a12.1,12.1,0,0,0-2.06.16l-.34-.7c.9.07,1.79.11,2.68.11H346l0-3.86H344.5a14,14,0,0,1-2.22,2.72l-.12-.09a22,22,0,0,0,2.71-6.39c0-.14,0-.31-.05-.58l1.69.76c.09,0,.26.11.26.27s-.07.22-.66.45a14,14,0,0,1-1.33,2.43h3.91l.72-.86c.1-.13.15-.24.26-.24a.62.62,0,0,1,.31.18l1.07.89c.05,0,.17.16.17.28s-.17.18-.26.18h-3.77l0,3.86h2l.77-1c.12-.16.17-.21.27-.21a.55.55,0,0,1,.32.18l1.15,1c.07.07.18.16.18.29S351.71,223.4,351.62,223.4Z"/><path d="M362.62,231.72a11.26,11.26,0,0,1,0-17.43l.16.25a12.45,12.45,0,0,0,0,16.93Z"/><path d="M374.9,216.7v1c-2.78,4.41-3.75,6.91-4,10.93,0,.46-.09,1.6-1,1.6a.94.94,0,0,1-.89-1c0-1.28,1.22-5.06,4.91-11.08h-3c-2.53,0-2.91,1.21-3.3,2.36l-.52-.12.71-3.66Z"/><path d="M379.39,231.72l-.16-.25a12.45,12.45,0,0,0,0-16.93l.16-.25a11.24,11.24,0,0,1,0,17.43Z"/><path d="M398.26,217.75h-3c1,.63,1.43.93,1.43,1.6a.72.72,0,0,1-.66.79c-.49,0-.52-.27-.64-1.06a4.53,4.53,0,0,0-.39-1.33h-.77a10.27,10.27,0,0,1-3.07,3.11l-.07-.09a22.83,22.83,0,0,0,3-5.17,2.71,2.71,0,0,0,.1-1l1.61.87c.12.07.16.14.16.23s-.27.27-.7.41l-.77,1.17h2l.52-.66c.09-.11.19-.24.26-.24s.19.09.33.2l.79.67a.41.41,0,0,1,.17.27C398.52,217.71,398.37,217.75,398.26,217.75Zm7,8.1c-.49,2.36-.73,3.62-3.16,3.91a2.91,2.91,0,0,0-1.32-1.91v-.11a12.43,12.43,0,0,0,2,.3c.54,0,1-.16,1.3-2.62H399c0,.63.06,3.7.07,4.41,0,.09,0,.61,0,.74a.78.78,0,0,1-.86.75c-.22,0-.47-.07-.47-.54,0-.88.09-3.87.11-4.81a14.75,14.75,0,0,1-6.53,4.7l0-.14a22.79,22.79,0,0,0,5.54-5.11h-3.46c-.21.82-.3,1.15-.89,1.15-.4,0-.61-.15-.61-.43a9.58,9.58,0,0,1,.31-.94,9.85,9.85,0,0,0,.74-3.4l1.41.82h3.56c0-.16,0-1.49,0-1.78h-2.63a11.14,11.14,0,0,0-2.06.18l-.35-.72c.85.07,1.83.11,2.69.11h7.07l.47-.47a.31.31,0,0,1,.19-.11.47.47,0,0,1,.25.11l.82.65c.05,0,.14.11.14.22s-.2.3-.56.55c0,.27.07,1.52.07,1.7,0,.61-.7.68-.82.68-.46,0-.44-.39-.42-.68H399V225h5l.61-.64c.07-.08.16-.18.23-.18s.19.1.26.18l.8.75a.34.34,0,0,1,.13.22C406,225.54,405.7,225.63,405.26,225.85Zm-7.35-2.79H394c-.17.55-.19.7-.49,1.92h4.4Zm8-5.13h-5.08c1.31.52,1.82.73,1.82,1.49a.63.63,0,0,1-.63.67c-.43,0-.5-.27-.78-1.07a3.78,3.78,0,0,0-.68-1.09h-.67a9.38,9.38,0,0,1-2,2.23l-.09-.07c1.1-1.91,2.11-3.82,2.06-5.39l1.7.8a.23.23,0,0,1,.15.21c0,.18-.24.31-.75.47a12.59,12.59,0,0,1-.75,1.31h3.68l.58-.84c.07-.11.16-.22.26-.22a.6.6,0,0,1,.33.18l1,.85a.38.38,0,0,1,.18.27C406.19,217.89,406.05,217.93,405.92,217.93Zm-3.15,2.91H399v1.78h3.78Z"/><path d="M411.41,229.27h1c.91,0,1.22-.36,1.22-1.1v-9.74c0-.56-.5-.65-.84-.65h-1.32v-.56h.31a6.69,6.69,0,0,0,2.85-.75c.12-.07.17-.11.24-.11s.19.11.19.25v11.56c0,.77.37,1.1,1.23,1.1h1v.58h-5.8Z"/><path d="M422.93,229.27h1c.91,0,1.23-.36,1.23-1.1v-9.74c0-.56-.51-.65-.84-.65H423v-.56h.32a6.67,6.67,0,0,0,2.84-.75.55.55,0,0,1,.25-.11c.15,0,.19.11.19.25v11.56c0,.77.36,1.1,1.22,1.1h1v.58h-5.8Z"/><path d="M438.12,224.62a2.8,2.8,0,0,1-1.52.47c-1.72,0-3.12-1.8-3.12-4,0-2.49,1.73-4.74,3.74-4.74s4,2.34,4,6.21c0,4.16-2.27,7.62-4.94,7.62a1.78,1.78,0,0,1-2-1.57.88.88,0,0,1,.89-.93c.35,0,.93.23,1,1.24,0,.39.05.65.52.65a1.69,1.69,0,0,0,1.28-.64c1.55-1.76,1.64-4.42,1.71-6A4.52,4.52,0,0,1,438.12,224.62Zm.58-6.68a1.74,1.74,0,0,0-1.42-1c-.92,0-2.23,1-2.23,4,0,.83.19,3.35,2,3.35.66,0,1.78-.5,2.6-2.45A9,9,0,0,0,438.7,217.94Z"/><path d="M451.83,229.85H445v-.49a12.19,12.19,0,0,1,2.56-4c2.57-3.06,3.44-4.09,3.44-5.89a2.28,2.28,0,0,0-2.32-2.47c-1.22,0-1.95.76-1.95,1.41a1,1,0,0,0,.17.55,1.57,1.57,0,0,1,.37.9,1,1,0,0,1-.94,1c-.62,0-1-.59-1-1.26a3.53,3.53,0,0,1,3.75-3.22,3.22,3.22,0,0,1,3.49,3.35c0,1.82-1,2.81-2.58,4.19a15.6,15.6,0,0,0-3.77,4.52h2.41c2.44,0,3-1,3.54-2.46l.53.19Z"/><path d="M464.35,226.23a4,4,0,0,1-4.12,4c-2,0-3.77-1.19-3.77-3.24s1.5-2.87,3.1-3.84c-.92-.56-2.6-1.57-2.6-3.53a3.24,3.24,0,0,1,3.49-3.22,3,3,0,0,1,3.2,2.84c0,1.53-1.43,2.65-2.18,3.23C463.11,223.47,464.35,224.37,464.35,226.23Zm-6.43.66a2.56,2.56,0,0,0,2.52,2.69,2.76,2.76,0,0,0,2.65-2.72c0-1.71-1.73-2.72-3-3.46A4.57,4.57,0,0,0,457.92,226.89Zm4.45-7.49a2.24,2.24,0,0,0-2.16-2.43,2,2,0,0,0-2.06,2.14c0,1.26,1,1.89,2.81,3A3.43,3.43,0,0,0,462.37,219.4Z"/><path d="M484,222h-8.66c-.46.86-1,2.05-1.19,2.59h4.89l.63-.56a.45.45,0,0,1,.26-.14c.09,0,.19.11.28.2l.87.82a.5.5,0,0,1,.16.29c0,.24-.33.33-.88.49-.78,3.76-1.18,5.74-4.5,5.67a3,3,0,0,0-1.74-2.05v-.11a14.9,14.9,0,0,0,2.95.47c.88,0,1.42-.6,2.06-4.65H474a20.2,20.2,0,0,1-1,2.05.79.79,0,0,1-.69.31c-.29,0-.68-.16-.68-.45a.89.89,0,0,1,.11-.36c1.05-2.05,1.17-2.3,2.18-4.57h-3.26a11.15,11.15,0,0,0-2.06.16l-.35-.7c1.38.1,2.37.1,2.69.1h10.66l.79-1c.08-.1.17-.21.28-.21a.78.78,0,0,1,.31.18l1.08,1a.38.38,0,0,1,.18.27C484.27,222,484.09,222,484,222Zm-3.58-5.48c0,.71,0,2.49,0,3.15,0,.26,0,.74-.75.74-.55,0-.59-.27-.54-.88h-6c0,.45,0,1-.85,1a.46.46,0,0,1-.47-.47c0-.13.07-.7.07-.83,0-.63.08-1.47.08-2.36a7.68,7.68,0,0,0-.21-2l1.63.79H479l.35-.43c.07-.09.18-.2.25-.2a.74.74,0,0,1,.28.14l.83.53a.4.4,0,0,1,.2.3C480.92,216.07,480.79,216.22,480.43,216.5Zm-1.26-.45h-6v3h6Z"/><path d="M45.15,252.8a10.61,10.61,0,0,1,0-16.45l.15.24a11.75,11.75,0,0,0,0,16Z"/><path d="M54.44,239.29c-1.61,2.51-2.86,4.4-6,6.29l-.08-.12c2.65-2.64,5-6.12,4.86-7.86l1.69,1a.37.37,0,0,1,.19.29C55.09,239.1,55,239.19,54.44,239.29Zm6.81,12.32c-.4,0-.68-.27-.88-.75l-.69-1.61a77.14,77.14,0,0,1-8.23,2.07c-.28.38-.36.46-.51.46s-.23-.17-.27-.27l-.54-1.77a6.66,6.66,0,0,0,1.35.16c.13,0,1.09-.09,1.29-.11A32.61,32.61,0,0,0,55,243.66a3.66,3.66,0,0,0,.05-1l1.71.75c.1.05.25.13.25.29s-.2.29-.56.4c-.18.31-.31.55-1.52,2.73-.49.86-1,1.78-1.76,2.9,1.9-.2,4.24-.49,6.35-.78a9.28,9.28,0,0,0-2-2.23l.05-.12c1.93.74,4.37,2.43,4.37,4.1A.79.79,0,0,1,61.25,251.61Zm1-6.58a9,9,0,0,1-3.1-2.78,8.6,8.6,0,0,1-1.61-4.07,13.38,13.38,0,0,0-2.17.19l-.34-.68c.43,0,1.27.08,2.13.08l.47-.57c.12-.14.19-.22.27-.22a.69.69,0,0,1,.34.18l.73.55a.33.33,0,0,1,.17.25c0,.15-.12.22-.38.34l-.76.31a7,7,0,0,0,5.89,4.86v.12A2.65,2.65,0,0,0,62.3,245Z"/><path d="M72.16,246.24c-.38,0-.56-.32-.69-.58a11,11,0,0,0-1.35-2.17c0,4.5,0,5,0,6.23,0,.26.07,1.4.07,1.62a.76.76,0,0,1-.81.76.45.45,0,0,1-.51-.52c0-.19.06-1,.06-1.18,0-1.3,0-1.64.09-5.81a12.6,12.6,0,0,1-3.27,2.5l-.07-.12a25.57,25.57,0,0,0,5-6.44H68.37a12,12,0,0,0-2,.15l-.31-.66c1.12.08,2.29.1,2.52.1h.43a8.78,8.78,0,0,0-.43-3.33l1.9.56a.29.29,0,0,1,.2.22c0,.2-.2.34-.53.51a19.69,19.69,0,0,0,0,2h.59l.41-.44c.12-.12.2-.17.3-.17s.17.07.27.15l.74.68a.3.3,0,0,1,.11.24c0,.25-.26.32-.79.39a21.29,21.29,0,0,1-1.65,2.33,6.26,6.26,0,0,1,1.75.93,1.68,1.68,0,0,1,.83,1.3C72.76,245.78,72.61,246.24,72.16,246.24Zm8.66,4.84h-7a10.92,10.92,0,0,0-1.94.16l-.33-.68c1.15.1,2.39.12,2.54.12h1.61c0-1.74,0-4.49,0-6.22,0-.82,0-.94,0-1.47h-1a10.92,10.92,0,0,0-1.94.16l-.33-.68c1.1.1,2.24.12,2.54.12h.71c0-.29,0-1.41,0-1.7,0-2.74,0-3.1-.48-4.08l1.83.44c.25.05.4.17.4.32s-.31.41-.56.51c0,.43,0,3.79,0,4.51h1.67l.61-.84c.1-.13.16-.2.26-.2s.18.07.32.19l.9.81a.43.43,0,0,1,.17.27c0,.12-.13.17-.25.17H76.86v4.61l0,3.08h1.76l.78-.89c.11-.13.2-.18.28-.18a.42.42,0,0,1,.31.17l.91.86a.49.49,0,0,1,.15.27C81.07,251,80.92,251.08,80.82,251.08Z"/><path d="M84.4,252.8l-.15-.24a11.75,11.75,0,0,0,0-16l.15-.24a10.62,10.62,0,0,1,0,16.45Z"/><path d="M98,240l.46-.43c.08-.08.2-.2.26-.2a.74.74,0,0,1,.25.17l.64.49c.09.07.2.17.2.29s-.18.26-.72.46a20,20,0,0,1-1.87,2.58v.12c1.19.22,2.43.85,2.43,1.79a.65.65,0,0,1-.63.64c-.3,0-.49-.17-.71-.66a3.8,3.8,0,0,0-1.09-1.56v4c0,.25.07,3.63.07,3.75,0,.56-.18.87-.84.87-.45,0-.45-.26-.45-.49,0-1,.15-6.17.18-7.35a12.34,12.34,0,0,1-3.21,2.21l-.07-.1a24.6,24.6,0,0,0,5-6.15H95.91a11.66,11.66,0,0,0-1.93.15l-.33-.68c.69.07,1.7.12,2.42.12a9.56,9.56,0,0,0-.36-3.3l1.66.48c.09,0,.27.08.27.24s-.15.27-.48.47c0,.29,0,1.68,0,2.11Zm8.26-2,.55-.54c.06-.05.21-.22.26-.22s.2.1.31.18l.7.55c.1.08.18.17.18.25s-.15.19-.27.19h-6.18a11,11,0,0,0-1.93.15l-.33-.68c1.2.1,2.24.12,2.54.12Zm0,7.28.46-.53c.06-.09.15-.17.21-.17a.61.61,0,0,1,.23.13l.76.57a.36.36,0,0,1,.17.25c0,.1-.15.26-.5.53a4.15,4.15,0,0,0,0,.49c0,.61.13,4,.13,4.73a.7.7,0,0,1-.79.66c-.45,0-.45-.2-.41-.8h-5.18c0,.6-.18,1-.78,1-.41,0-.41-.25-.41-.41,0-.59.07-3.19.07-3.72a22.24,22.24,0,0,0-.19-3.59l1.5.91Zm-.9-5.19.4-.41c.08-.08.17-.18.23-.18s.13.06.2.12l.68.56a.38.38,0,0,1,.16.27c0,.12-.15.24-.46.41,0,.39.08,2.07.08,2.41a.71.71,0,0,1-.77.73c-.4,0-.4-.24-.4-.65h-3.56c0,.28,0,.79-.7.79-.33,0-.46-.16-.46-.6,0-.22,0-1.77,0-2.11a19.65,19.65,0,0,0-.12-2.1l1.35.76Zm-4.07,5.59V248h2v-2.25Zm0,2.65v2.4h2v-2.4Zm.61-7.83V243h3.6v-2.45Zm4.59,7.43v-2.25h-2.1V248Zm0,2.8v-2.4h-2.1v2.4Z"/><path d="M124.8,239c0,.63.08,9.79.08,11,0,1.09,0,2-1.86,2.38-.23-.94-.83-1.26-1.67-1.72l0-.12c.33,0,1.33.14,1.63.14s.55-.07.6-.27.06-5.27.06-6,0-5.61,0-6.11h-9.84c0,.62,0,7.25,0,8.44,0,.73.06,4,.06,4.6a.83.83,0,0,1-.89.94c-.24,0-.48-.09-.48-.65,0-.24.12-1.31.12-1.51,0-1.16.07-7.46.07-8.6a30.48,30.48,0,0,0-.19-4.42l1.59.8h9.4l.43-.5c.07-.08.11-.13.21-.13a.42.42,0,0,1,.2.1l.89.66c.12.09.2.14.2.27S125.34,238.64,124.8,239ZM123,243h-3.8v5.37h1.6c0-2,0-2.24,0-3a3.32,3.32,0,0,0-.25-1.13l1.45.26c.15,0,.35.08.35.29s-.07.22-.41.42c0,.28,0,1.57,0,1.87s0,1.58,0,1.87a.7.7,0,0,1-.76.75c-.46,0-.45-.24-.43-.95h-4.26c0,.12,0,.66,0,.78a.72.72,0,0,1-.73.82.43.43,0,0,1-.46-.48c0-.19.08-.73.08-2.46a10.64,10.64,0,0,0-.21-3.23l1.53.37c.13,0,.28.07.28.24s0,.17-.49.47v3.08h1.57V243h-1.65a11.9,11.9,0,0,0-1.93.15l-.33-.68c1.32.12,2.27.12,2.54.12h1.89a9.28,9.28,0,0,0,1-3.84l1.69,1a.26.26,0,0,1,.16.22c0,.22-.25.29-.71.37-.44.51-1.2,1.5-1.78,2.26h2.19l.56-.66c.1-.1.19-.2.25-.2a.68.68,0,0,1,.32.16l.77.67a.33.33,0,0,1,.17.25C123.27,242.94,123.1,243,123,243Zm-5.69-.85c-.42,0-.53-.36-.76-1.07a4.73,4.73,0,0,0-.91-1.84l.08-.1c.22.09,2.28,1,2.28,2.25A.72.72,0,0,1,117.33,242.11Z"/><path d="M133.34,249a10.1,10.1,0,0,1-4.52,2.69l0-.11a16.18,16.18,0,0,0,2.83-2.55c.78-.88.86-1.15.93-1.53l1.3.89a.35.35,0,0,1,.21.29C134.06,248.84,133.73,248.94,133.34,249Zm10.26-1.8h-6.75c0,.32,0,1.1,0,2.12,0,.68.08,1.75.08,2.43a.84.84,0,0,1-.91.85c-.29,0-.47-.12-.47-.52s.09-2.32.09-2.71c0-1.2,0-1.85,0-2.17h-4.44c0,.78-.84.78-.9.78-.37,0-.42-.25-.42-.48s.1-1.58.12-1.88c0-1.24.05-2.35.05-3.67a20,20,0,0,0-.18-4.22l1.55.49c.16,0,.33.1.33.26s-.22.32-.51.52c-.05,1.09-.07,2.22-.07,3.3,0,.5,0,3.88,0,4.49h10.07l.8-.9c.1-.12.17-.2.28-.2s.22.11.28.17l1,.9a.36.36,0,0,1,.16.27C143.86,247.14,143.71,247.16,143.6,247.16Zm-3-8.57c0,.7-.07,2.09.08,5.66,0,.05,0,.44,0,.48a.74.74,0,0,1-.81.78c-.48,0-.46-.32-.46-.78h-4.93c0,.25,0,.83-.83.83-.43,0-.44-.22-.44-.41s0-.29,0-.35c0-.4.12-3.42.12-5.19a12.06,12.06,0,0,0-.25-2.77l1.63.8h4.59l.48-.48c.11-.12.16-.18.28-.18a.5.5,0,0,1,.25.15l.67.58a.41.41,0,0,1,.18.3C141.17,238.18,140.79,238.44,140.58,238.59Zm-1.15-.54h-5v1.82h5Zm0,2.22h-5V242h5Zm0,2.18h-5v1.87h5Zm2.44,9.16c-.43,0-.61-.3-1.06-1a6.9,6.9,0,0,0-2.42-2.44l.05-.12c2.29.39,4.14,1.8,4.14,2.89A.69.69,0,0,1,141.87,251.61Z"/><path d="M160.06,240.68a10.41,10.41,0,0,0-1.49,1l-.08,0a9.23,9.23,0,0,0,.51-1.75h-9.6c0,1.9-1,2.8-1.67,2.8a.68.68,0,0,1-.7-.66c0-.43.37-.73.84-1.11a3,3,0,0,0,1.27-2.11h.09a3.11,3.11,0,0,1,.14.67h4.25a6.28,6.28,0,0,0-.33-2.7l1.72.51c.18,0,.25.15.25.25s-.12.25-.5.53v1.41h4.17l.51-.5a.56.56,0,0,1,.32-.17c.11,0,.23.12.31.21l1,.95a.63.63,0,0,1,.2.43C161.23,240.55,161.14,240.68,160.06,240.68Zm.95,10.59c-.71.53-2.72.55-3.66.55-3.74,0-4.5,0-4.57-1.67,0-.27,0-2.62,0-3l-3.39.64a10.71,10.71,0,0,0-1.88.51l-.45-.61c.84-.08,1.68-.19,2.53-.34l3.19-.61c0-.43,0-2.53,0-3a21.68,21.68,0,0,1-5.31.95v-.12c.24-.05,7.49-2.09,8.71-3.82l1.1,1.12a.4.4,0,0,1,.12.29c0,.15-.17.22-.25.22l-.6,0a23.66,23.66,0,0,1-2.62,1c0,.45,0,2.67,0,3.16l5-.94.61-1c.08-.13.15-.25.25-.25a.82.82,0,0,1,.3.12l1.12.66a.38.38,0,0,1,.21.27c0,.14-.1.17-.21.19l-7.28,1.38c0,1.29,0,2.22,0,3.09a.51.51,0,0,0,.33.54,12.87,12.87,0,0,0,3,.14c2.51,0,2.79,0,3.3-3.18h.1c.08.46.2,1.16.31,1.73s.13.65.33.84.27.24.27.41C161.61,250.81,161.26,251.1,161,251.27Z"/><path d="M170.38,242.91h-1.93v5.47c1.33-.41,1.71-.56,2.09-.69l.07.13a18.94,18.94,0,0,1-2.38,1.45l-2,1c-.15.36-.21.54-.41.54s-.21-.12-.26-.2l-.86-1.51a6.71,6.71,0,0,0,2.7-.46c0-.58,0-3.16,0-3.69v-2.09h-.33a11.11,11.11,0,0,0-1.95.15l-.31-.68c1,.09,2,.12,2.59.12,0-.85,0-1.7,0-2.55a9.69,9.69,0,0,0-.21-2.51l1.67.57c.08,0,.23.1.23.26s-.33.46-.56.61c0,1.19,0,1.77-.05,3.62h.39l.5-.56c.14-.17.19-.22.28-.22s.2.12.28.19l.58.56a.36.36,0,0,1,.14.25C170.62,242.89,170.48,242.91,170.38,242.91Zm7.37,8.7c-.38.07-3.3.07-3.76.07-2.71,0-3.19-.14-3.19-2,0-.66,0-3.59,0-4.18,0-.17,0-.94,0-1.09a8.91,8.91,0,0,0-1.6.9l-.56-.47c.89-.31,1.91-.77,2.16-.89v-3a9.38,9.38,0,0,0-.18-2l1.53.55c.12,0,.25.1.25.23s-.13.28-.53.56c0,.51,0,2.72,0,3.17l1.79-.84c0-1.7,0-2.9,0-4.09a11,11,0,0,0-.2-1.5l1.59.54c.16.06.28.14.28.26s-.23.36-.58.63c0,1.53,0,1.75,0,3.69l1.6-.73.39-.68c.09-.14.17-.29.28-.29a.64.64,0,0,1,.32.13l.77.5a.33.33,0,0,1,.17.27c0,.2-.18.37-.41.59,0,5.1,0,6.28-2,6.8a2.13,2.13,0,0,0-1-1.42v-.09a3.92,3.92,0,0,0,.51,0c1.16,0,1.34-.15,1.34-3.74,0-1.15,0-1.34,0-1.83l-2,.92c0,2.5,0,4.13,0,4.59,0,.22.05,1.22.05,1.42a.78.78,0,0,1-.84.85c-.23,0-.39-.08-.39-.44,0-.19,0-1.05,0-1.22,0-1.09,0-1.74,0-4.73l-1.79.83c0,.69,0,5.9,0,6.11a.54.54,0,0,0,.4.47c.21.07,2.57.07,2.89.07,1.69,0,2.21,0,2.55-.63a14.73,14.73,0,0,0,.73-2.05h.11a6.39,6.39,0,0,0,.32,2c.1.17.38.32.38.49S179,251.39,177.75,251.61Z"/><path d="M196.15,251.78c-6-.08-8.56-.12-10.79-2.34a7.72,7.72,0,0,1-3.36,2.94l-.1-.11a10.54,10.54,0,0,0,2.85-3.53,8.44,8.44,0,0,1-1.53-3.28l.17-.14a7.58,7.58,0,0,0,1.66,2.79,12,12,0,0,0,.92-4.62h-1.38c-.33.95-.41,1.2-1,1.2-.11,0-.59,0-.59-.39,0-.1.25-.8.39-1.2.86-2.28,1.54-4.14,1.74-4.88h-.6a10.72,10.72,0,0,0-1.94.15l-.32-.68c.84.07,1.69.12,2.53.12h.29l.43-.36c.15-.12.23-.17.32-.17a.63.63,0,0,1,.28.17l.64.56a.37.37,0,0,1,.16.31c0,.2-.33.36-.75.54-.37.95-.58,1.53-1.49,4.22h1.12l.45-.36a.64.64,0,0,1,.31-.17c.12,0,.2.07.31.19l.52.54a.57.57,0,0,1,.19.36c0,.15-.16.25-.51.47a12,12,0,0,1-1.35,4.68,8.88,8.88,0,0,0,5.74,1.68,37.2,37.2,0,0,0,5.81-.49l0,.14A2.09,2.09,0,0,0,196.15,251.78Zm1-10.59h-2.27c.06,2,.06,2,.06,2.14,0,.34,0,.87-.79.87-.44,0-.43-.27-.41-.56h-2v1.77h2.48l.49-.65c.12-.13.18-.22.28-.22s.18.09.31.19l.75.64a.54.54,0,0,1,.16.26c0,.15-.11.19-.25.19h-4.22l0,1.8h2.93l.63-.75c.13-.15.2-.22.28-.22s.18.07.3.19l.77.74a.43.43,0,0,1,.17.29c0,.1-.1.15-.25.15H191.7c0,.21,0,1.21,0,1.43a.78.78,0,0,1-.73.61c-.53,0-.53-.3-.53-.49s.09-1.29.09-1.55h-1.12a11,11,0,0,0-1.93.16l-.33-.66c1.28.1,2.5.1,2.54.1h.85c0-.46,0-.89,0-1.8h-.5a10.49,10.49,0,0,0-1.93.15l-.33-.66c.5,0,1.42.1,2.77.1v-1.77h-.33a11.82,11.82,0,0,0-1.94.15l-.33-.66c1.18.08,2.44.1,2.6.1l0-2h-1.53a10.63,10.63,0,0,0-1.93.16l-.33-.69a23.62,23.62,0,0,0,2.52.12h1.27l0-2h-.39a12.46,12.46,0,0,0-1.95.16l-.31-.68c1.15.1,2.22.12,2.64.12a3.1,3.1,0,0,0-.25-1.58l1.58.39c.18.05.28.12.28.27s-.19.3-.46.46v.46h1.92l.41-.38a.5.5,0,0,1,.29-.17c.1,0,.19.09.3.19l.46.46a.48.48,0,0,1,.2.32c0,.14-.13.24-.46.48a10.2,10.2,0,0,0,0,1.49h.59l.48-.63c.1-.13.18-.2.27-.2a.57.57,0,0,1,.31.17l.71.63a.43.43,0,0,1,.16.26C197.37,241.11,197.29,241.19,197.12,241.19Zm-3.38,0h-2l0,2h2.06Zm0-2.4h-2l0,2h2Z"/><path d="M204.43,246c0,2.06,0,2.41,0,3.4,0,.59.07,1.55.07,2.14s-.71.78-.86.78c-.36,0-.45-.22-.45-.47,0-.07,0-.7,0-.82.06-1.27.06-1.73.1-4.45a19.74,19.74,0,0,1-2,1c0,.3-.05.59-.32.59s-.28-.19-.33-.29l-.77-1.53c1,0,1.3,0,3.46-.64,0-1.5,0-3.18,0-4.47h-1.48a13.94,13.94,0,0,1-1.47,3.75l-.1,0a27.77,27.77,0,0,0,.74-5.9,3.11,3.11,0,0,0-.16-1.16l1.58.39c.13,0,.28.07.28.26s-.23.34-.49.44c-.09.8-.17,1.31-.28,1.84h1.37c0-2.4-.09-3.1-.45-3.95l1.81.55c.1,0,.25.12.25.24s-.28.35-.53.49c0,.36,0,2.16,0,2.67h.33l.46-.65c.08-.1.16-.22.25-.22a.48.48,0,0,1,.29.19l.66.64a.41.41,0,0,1,.15.26c0,.15-.15.19-.25.19h-1.89c0,1.08,0,3,0,4.08.33-.12,1.86-.67,2.16-.79l0,.12A20.8,20.8,0,0,1,204.43,246Zm9.73-4.61c-.13,3.56-.26,6.78-1.3,9a3.15,3.15,0,0,1-2.56,1.72,2.77,2.77,0,0,0-1.4-2l0-.12a7,7,0,0,0,2,.35c.4,0,.66,0,1.12-1.2a27,27,0,0,0,.93-8.23h-.94c-.48,3.84-2.06,8.79-6.83,10.64l-.05-.12c3.5-2.7,5-5.57,5.67-10.52h-.92c-.68,3.59-2.54,6.68-4.93,7.84l-.05-.11a14.69,14.69,0,0,0,3.78-7.73h-.83a10.74,10.74,0,0,1-2.23,3.38l-.08-.08a19.34,19.34,0,0,0,2.13-6.94,2.34,2.34,0,0,0-.08-.58l1.65.68c.16.07.24.17.24.28s-.31.3-.57.37c-.43,1.36-.71,2.06-.88,2.48h4.75l.4-.42c.1-.12.18-.19.25-.19a.72.72,0,0,1,.29.15l.78.6c.11.08.18.13.18.24S214.34,241.33,214.16,241.41Z"/><path d="M231.87,251.63a8.8,8.8,0,0,1-3.45-3.4,8.78,8.78,0,0,1-3.84,3c0,.61,0,1.22-.84,1.22-.51,0-.51-.32-.51-.64s.08-1.67.09-2,0-2,0-2.43a32.39,32.39,0,0,1-4.3,1.81c-.14.43-.23.57-.4.57s-.23-.12-.3-.29l-.62-1.67a3.24,3.24,0,0,0,.74.1,11.77,11.77,0,0,0,1.3-.15v-9.4a10.76,10.76,0,0,0-1.52.15l-.33-.68c1.31.12,2.53.12,2.54.12h4.36l.71-.8c.13-.15.2-.2.28-.2s.18,0,.33.19l.82.78a.41.41,0,0,1,.15.27c0,.14-.1.17-.24.17H224.5c0,6.44-.05,7.16.08,12.66a10.28,10.28,0,0,0,3.3-3.84,18.79,18.79,0,0,1-1.55-7.36,4,4,0,0,0-.84.12l-.33-.68c1.28.1,2.5.1,2.52.1H230l.46-.54c.15-.17.2-.22.28-.22s.18,0,.34.18l.76.6a.52.52,0,0,1,.23.31.27.27,0,0,1-.14.28,3.94,3.94,0,0,1-.75.48,21.14,21.14,0,0,1-2.14,6.87,8.34,8.34,0,0,0,4.32,3.06v.08A2.45,2.45,0,0,0,231.87,251.63Zm-8.53-13.26H220.9v2.72h2.44Zm0,3.13H220.9v2.75h2.44Zm0,3.16H220.9v2.92c.86-.17,2.08-.39,2.44-.49Zm4.08-4.88-.76,0a20.15,20.15,0,0,0,1.7,6.43,18.25,18.25,0,0,0,1.6-6.46Z"/><path d="M238.43,241.46h2.9v-3.11H238.1a11.13,11.13,0,0,0-1.95.16l-.31-.67c1.09.09,2.21.1,2.52.1h2.89l.38-.42c.08-.08.15-.19.26-.19a.68.68,0,0,1,.25.11l.64.42c.09,0,.25.14.25.32s-.16.31-.58.6c0,.51.07,2.77.07,3.21a.71.71,0,0,1-.15.48.91.91,0,0,1-.68.27c-.36,0-.46-.17-.37-.87h-3.15c-.07.39-.45,2.74-.47,2.82h3.37l.46-.52a.37.37,0,0,1,.28-.19.52.52,0,0,1,.26.12l.68.51a.38.38,0,0,1,.18.3c0,.21-.23.36-.49.5-.18,2.21-.81,4.5-1.7,5.56a3.58,3.58,0,0,1-2.61,1.1,3.32,3.32,0,0,0-1.27-1.92v-.1a9.7,9.7,0,0,0,2.23.35c.35,0,.74,0,1.14-.76a11,11,0,0,0,1-4.54h-3.62a5.58,5.58,0,0,1-.19,1.26,1,1,0,0,1-.83.48.39.39,0,0,1-.44-.4c0-.15.46-2.12.52-2.48a14.44,14.44,0,0,0,.3-3.24Zm10.37-3.89c.15,0,.3.05.3.24s-.15.34-.56.58c0,.32,0,4.48,0,7.71,0,.82.13,4.46.13,5.21a.8.8,0,0,1-.22.66,1.35,1.35,0,0,1-.74.27c-.38,0-.44-.3-.44-.56,0-.1,0-.2,0-.42.08-1.38.08-3.15.08-3.85,0-6.34,0-8-.06-8.55a10.71,10.71,0,0,0-.3-1.7Z"/><path d="M267.69,240.68h-5.15l.86.53c.06,0,.16.15.16.24s-.31.24-.61.25a18.77,18.77,0,0,1-1.45,1.38h2.82l.64-.75c.09-.1.19-.2.27-.2a.61.61,0,0,1,.3.17l.75.74a.37.37,0,0,1,.15.26c0,.17-.13.19-.24.19h-5.27c0,.2,0,1.14,0,1.32h2.33l.57-.61c.1-.1.2-.2.28-.2s.17.08.32.18l.8.58c.09.07.19.15.19.27s-.14.19-.25.19h-4.24v1.48h4.24l.74-.87c.12-.13.17-.2.27-.2s.21.1.29.17l.91.87c.08.08.16.15.16.27s-.14.17-.26.17h-6a9.87,9.87,0,0,0,6.43,3.28l0,.1a2.78,2.78,0,0,0-1.52,1.38,10.55,10.55,0,0,1-5.21-4.76h-.05c0,1.54,0,1.85,0,2.17s.1,2.08.1,2.43a.76.76,0,0,1-.84.7c-.45,0-.48-.27-.48-.53s.05-1,.07-1.39c0-.56,0-.82.05-3.18a12.29,12.29,0,0,1-6.55,4.59l0-.1a15.39,15.39,0,0,0,5.28-4.69h-2.92a11.6,11.6,0,0,0-2,.15l-.33-.68c1.1.1,2.23.12,2.54.12h4v-1.48H257a12,12,0,0,0-2,.15l-.33-.68c1.14.11,2.33.12,2.54.12h2.63v-1.32H256.4a11.59,11.59,0,0,0-1.93.15l-.33-.68c1.11.1,2.26.12,2.54.12h4.49a8.64,8.64,0,0,0,.83-2.4h-4.69c1,.33,1.83.84,1.83,1.65a.65.65,0,0,1-.66.68c-.38,0-.43-.1-.82-1.12a4.31,4.31,0,0,0-.68-1.21h-1.71a10.06,10.06,0,0,0-2,.15l-.31-.68c1.12.11,2.29.12,2.52.12h3.1a12.08,12.08,0,0,0-.28-3.5l1.6.48c.15.05.23.1.23.25s-.18.29-.49.41v2.36h1.22c0-2.16,0-2.65-.35-3.5l1.68.46c.1,0,.28.09.28.26s-.39.39-.54.44v2.34h.71a12.43,12.43,0,0,0,.86-2.38,3.83,3.83,0,0,0,.08-.81l1.47.76a.28.28,0,0,1,.19.24c0,.26-.39.31-.57.32-.51.56-1.39,1.53-1.72,1.87h2.59l.71-.76c.13-.14.2-.22.26-.22a.54.54,0,0,1,.33.19l.86.74c.1.09.18.16.18.27S267.78,240.68,267.69,240.68ZM257,239.9c-.39,0-.51-.27-.82-1a3.72,3.72,0,0,0-1-1.34l.07-.12c.66.17,2.31.63,2.31,1.82A.63.63,0,0,1,257,239.9Z"/><path d="M275.9,241.26h-2.33c0,3.72,0,4.54,0,5.58,0,.74,0,4.06,0,4.74,0,.3,0,.83-.81.83a.44.44,0,0,1-.48-.47c0-.26.1-1.43.11-1.69,0-1.22,0-1.75.07-5,0-2.39,0-2.53,0-4a12,12,0,0,0-1.88.15l-.33-.66c.47,0,1,.08,2.21.1,0-2.51,0-3.38-.38-4.09l1.82.52c.1,0,.21.1.21.24s-.05.2-.57.51c0,.46,0,2.43,0,2.82h.77l.5-.54c.08-.1.18-.22.26-.22a.58.58,0,0,1,.3.18l.59.56a.37.37,0,0,1,.15.26C276.14,241.24,276,241.26,275.9,241.26Zm3.81,5.22c-.43,4.76-.93,5.44-2.68,5.62a2,2,0,0,0-.87-1.68l0-.13a4,4,0,0,0,1.32.28c.43,0,.53-.1.79-1.42a16.53,16.53,0,0,0,.36-3.15h-1.2c-.31,2-1.16,4.71-3.56,5.94l-.07-.09a8.86,8.86,0,0,0,2.57-5.83,9.12,9.12,0,0,0-1.65.15l-.33-.68c.61,0,1.09.09,2,.1a6.72,6.72,0,0,0-.1-2.05l1.5.54a.26.26,0,0,1,.21.24c0,.14-.36.37-.44.42,0,.33,0,.46-.09.85h1l.4-.42c.12-.12.17-.17.23-.17s.15.08.22.15l.67.61a.34.34,0,0,1,.13.24C280.18,246.12,280.13,246.16,279.71,246.48Zm3.81-6.9c-.73,3.43-1.87,3.55-2.86,3.67a2.38,2.38,0,0,0-1-1.8l.07-.1a4.71,4.71,0,0,0,1.48.4c.85,0,1.22-1.95,1.41-2.89h-2.43a6.51,6.51,0,0,1-4.57,4.76v-.1a8,8,0,0,0,3.48-4.66h-.86a9.49,9.49,0,0,0-1.95.16l-.33-.68c1.14.1,2.31.11,2.54.11h.7a8.1,8.1,0,0,0,.11-1.18,1.66,1.66,0,0,0-.11-.67l1.68.53a.19.19,0,0,1,.15.17c0,.1-.27.27-.53.44-.1.41-.13.53-.18.71h2.12l.27-.34a.39.39,0,0,1,.28-.15.34.34,0,0,1,.23.1l.87.75a.28.28,0,0,1,.14.22C284.18,239.22,283.76,239.44,283.52,239.58Zm1.76,6.61a2.38,2.38,0,0,0-.35.24c0,1.78-.24,4.08-.75,4.93a2.32,2.32,0,0,1-2,1,2.94,2.94,0,0,0-.94-1.67l.05-.13a4.35,4.35,0,0,0,1.4.29c.66,0,.71-.31.9-1.43a21.34,21.34,0,0,0,.25-3.37h-1.22c-.43,2.47-1.05,4.68-3.84,6.11l-.05-.09a9.61,9.61,0,0,0,2.87-6,4.5,4.5,0,0,0-.76.11l-.33-.68c.56.05.81.06,1.16.08,0-.17,0-.59,0-1.24a3.73,3.73,0,0,0-.13-1.27l1.57.57a.32.32,0,0,1,.21.26c0,.18-.43.41-.51.46-.06.63-.1.92-.16,1.24a2,2,0,0,0,.36,0h.64l.42-.5c.06-.08.15-.17.19-.17a.44.44,0,0,1,.25.12l.79.61a.38.38,0,0,1,.15.22C285.51,246.05,285.4,246.12,285.28,246.19Z"/><path d="M302.17,244a12.89,12.89,0,0,1-6-6.12l-.07,0a18.72,18.72,0,0,1-7.55,6.82l0-.11a22.69,22.69,0,0,0,6.07-6.78,3,3,0,0,0,.49-1.15l1.67.54c.08,0,.26.12.26.29s-.16.24-.51.32a10.92,10.92,0,0,0,7.29,4.76v.12A3.28,3.28,0,0,0,302.17,244Zm.13,2.38h-6.62a25,25,0,0,1-2.72,3.89c2-.13,4.59-.39,6.45-.62a9.63,9.63,0,0,0-1.81-2.35l.1-.1c2.26,1.05,4.05,2.77,4.05,4.2,0,.27-.18.83-.72.83s-.76-.46-1-1.05a7.08,7.08,0,0,0-.5-1.24c-1.34.42-7.41,1.75-8.35,1.9-.1.22-.14.37-.29.37s-.22-.17-.27-.3l-.69-1.72a6.58,6.58,0,0,0,1.47.15c.34,0,.67,0,1.19-.05a25.35,25.35,0,0,0,1.35-3.91h-2.33a11.1,11.1,0,0,0-1.93.16l-.33-.67c1.31.1,2.25.1,2.53.1h7.91l.85-.93c.11-.14.19-.2.28-.2a.6.6,0,0,1,.29.17l1.14.93a.37.37,0,0,1,.17.26C302.55,246.34,302.38,246.34,302.3,246.34Zm-3.61-2.94h-4.24a12,12,0,0,0-1.95.15l-.33-.68c1.14.11,2.33.12,2.54.12h1.85l.74-.85c.08-.08.17-.2.26-.2a.61.61,0,0,1,.3.17l.91.85c.08.08.16.15.16.27S298.78,243.4,298.69,243.4Z"/><path d="M320,244a13,13,0,0,1-6-6.12l-.06,0a18.67,18.67,0,0,1-7.56,6.82l-.05-.11a22.58,22.58,0,0,0,6.08-6.78,3.21,3.21,0,0,0,.49-1.15l1.67.54c.08,0,.26.12.26.29s-.17.24-.51.32a10.89,10.89,0,0,0,7.29,4.76v.12A3.28,3.28,0,0,0,320,244Zm.13,2.38h-6.62a25,25,0,0,1-2.72,3.89c2-.13,4.59-.39,6.45-.62a9.63,9.63,0,0,0-1.81-2.35l.1-.1c2.26,1.05,4.05,2.77,4.05,4.2,0,.27-.18.83-.72.83s-.76-.46-1-1.05a6.4,6.4,0,0,0-.49-1.24c-1.34.42-7.41,1.75-8.35,1.9-.1.22-.15.37-.29.37s-.22-.17-.27-.3l-.69-1.72a6.58,6.58,0,0,0,1.47.15c.34,0,.67,0,1.18-.05a24.36,24.36,0,0,0,1.36-3.91h-2.33a11.1,11.1,0,0,0-1.93.16l-.33-.67c1.3.1,2.25.1,2.53.1h7.91l.84-.93c.12-.14.2-.2.28-.2a.58.58,0,0,1,.3.17l1.14.93a.37.37,0,0,1,.17.26C320.36,246.34,320.19,246.34,320.11,246.34Zm-3.62-2.94h-4.23a12,12,0,0,0-1.95.15l-.33-.68c1.14.11,2.33.12,2.54.12h1.85l.74-.85c.08-.08.16-.2.26-.2a.61.61,0,0,1,.3.17l.91.85c.08.08.16.15.16.27S316.59,243.4,316.49,243.4Z"/><path d="M324.11,252.27a16.29,16.29,0,0,0,3.78-2.17,3.18,3.18,0,0,0,1.09-1.19l1.42.92c.06,0,.18.15.18.27s-.42.27-.94.29a13.21,13.21,0,0,1-5.51,2ZM335.16,242l.41-.42c.07-.07.17-.21.27-.21s.13.05.25.14l.71.56a.45.45,0,0,1,.21.32c0,.16-.23.33-.61.55,0,.71.1,5.21.1,5.64a.81.81,0,0,1-.79.83c-.47,0-.45-.41-.43-.66h-7.44c0,.41-.07.9-.79.9a.44.44,0,0,1-.48-.51c0-.24.06-.82.06-1,0-.48.07-2.33.07-4.17a9.33,9.33,0,0,0-.18-2.6l1.53.58Zm-.41-4.27.48-.49c.08-.08.16-.18.23-.18a.41.41,0,0,1,.23.11l.71.56a.37.37,0,0,1,.15.26c0,.15-.17.31-.55.56,0,.31,0,1.7,0,2a.68.68,0,0,1-.7.7c-.52,0-.51-.37-.48-.68H328.3c0,.25,0,.78-.73.78-.47,0-.47-.3-.47-.51s.06-1.63.06-1.94a7.82,7.82,0,0,0-.15-2l1.54.88Zm-6.89,4.68v1.61h7.42v-1.61Zm0,2v1.6h7.42v-1.6Zm0,2v1.9h7.42v-1.9Zm.44-8.3v2h6.56v-2Zm4.54,11c2.14.13,4.8,1.22,4.8,2.51a.63.63,0,0,1-.66.68c-.42,0-.63-.22-1.09-.71a10.37,10.37,0,0,0-3.07-2.41Z"/><path d="M365.85,252.8a10.61,10.61,0,0,1,0-16.45l.15.24a11.75,11.75,0,0,0,0,16Z"/><path d="M381,244.17l.88-1c.1-.12.15-.21.26-.21s.19.1.28.19l1.19,1.1c.08.09.17.16.17.26s-.15.19-.25.19H371.6a11.69,11.69,0,0,0-1.94.15l-.32-.78c1.24.12,2.43.12,2.53.12Z"/><path d="M392.86,246.24c-.38,0-.56-.32-.69-.58a10.56,10.56,0,0,0-1.36-2.17c0,4.5,0,5,0,6.23,0,.26.07,1.4.07,1.62a.76.76,0,0,1-.81.76.45.45,0,0,1-.51-.52c0-.19.06-1,.06-1.18.05-1.3,0-1.64.09-5.81a12.77,12.77,0,0,1-3.27,2.5l-.07-.12a25.29,25.29,0,0,0,5-6.44h-2.3a12,12,0,0,0-1.95.15l-.31-.66c1.12.08,2.29.1,2.52.1h.43a9,9,0,0,0-.43-3.33l1.9.56a.3.3,0,0,1,.19.22c0,.2-.19.34-.52.51a14.78,14.78,0,0,0,0,2h.59l.41-.44c.12-.12.2-.17.3-.17s.16.07.26.15l.75.68a.3.3,0,0,1,.11.24c0,.25-.26.32-.79.39a22.87,22.87,0,0,1-1.65,2.33,6.55,6.55,0,0,1,1.75.93,1.67,1.67,0,0,1,.82,1.3C393.45,245.78,393.3,246.24,392.86,246.24Zm8.66,4.84h-7a10.92,10.92,0,0,0-1.94.16l-.33-.68c1.15.1,2.39.12,2.54.12h1.61c0-1.74,0-4.49,0-6.22,0-.82,0-.94,0-1.47h-1a10.92,10.92,0,0,0-1.94.16l-.33-.68c1.1.1,2.24.12,2.54.12h.71c0-.29,0-1.41,0-1.7,0-2.74,0-3.1-.48-4.08l1.83.44c.25.05.4.17.4.32s-.32.41-.56.51c0,.43,0,3.79,0,4.51h1.67l.61-.84c.1-.13.16-.2.26-.2s.18.07.31.19l.91.81a.43.43,0,0,1,.17.27c0,.12-.14.17-.25.17h-3.68v4.61l0,3.08h1.76l.78-.89c.11-.13.2-.18.28-.18a.42.42,0,0,1,.31.17l.91.86a.49.49,0,0,1,.15.27C401.77,251,401.62,251.08,401.52,251.08Z"/><path d="M405.09,252.8l-.15-.24a11.72,11.72,0,0,0,0-16l.15-.24a10.61,10.61,0,0,1,0,16.45Z"/><path d="M428.4,250.66a6.37,6.37,0,0,1-2.81.44c-1.63,0-2.64-.07-2.64-1.92,0-.73.24-3.06.5-6,.05-.53.07-.75.13-1.55H421c-.29,3.05-.79,8.11-6.63,9.73l-.05-.1a9.57,9.57,0,0,0,4.23-4.19c.48-.9.92-2,1.25-5.44h-2.59a11.24,11.24,0,0,0-2,.16l-.31-.68c1.12.1,2.29.12,2.52.12h2.36c0-.67.07-1.31.07-2a6,6,0,0,0-.25-2.27l1.77.37c.1,0,.38.09.38.27s-.4.43-.55.49c0,.5-.18,2.67-.21,3.12h2.31l.77-.63a.66.66,0,0,1,.3-.17c.1,0,.2.1.3.2l.69.68a.5.5,0,0,1,.18.32c0,.14-.08.19-.86.62-.33,2.17-.56,6-.56,6.68,0,.85.36.93,1.22.93,2,0,2-.07,2.61-3.09h.11a10,10,0,0,0,.47,2.58,3.4,3.4,0,0,1,.26.29.35.35,0,0,1,.1.24A1.14,1.14,0,0,1,428.4,250.66Z"/><path d="M436.13,237.44c.36.1.4.18.4.3s-.34.37-.48.46c0,2.55,0,4.45-.07,6-.07,1.38-.26,5.85-3.84,7.77l-.09-.1c2.33-2.4,2.89-4.73,2.89-10.45,0-3.08-.13-3.51-.49-4.41Zm-2.61,3.65a6.07,6.07,0,0,1,.38,2.11c0,1.88-.94,2-1.22,2a.61.61,0,0,1-.63-.65c0-.25.12-.42.47-.9a5.17,5.17,0,0,0,.87-2.55Zm3,0c.44.22,2,1.07,2,2.24,0,.55-.34.79-.66.79-.51,0-.61-.45-.74-.92a7.38,7.38,0,0,0-.71-2Zm4-3.65c.36.08.38.15.38.25s-.05.19-.53.46v7.11c0,.68.1,3.72.1,4.33a.81.81,0,0,1-.81.87.47.47,0,0,1-.49-.51c0-.14.05-.75.05-.89.06-1.09.06-2.27.06-3.89,0-3.77,0-6.17-.1-7.14a3.55,3.55,0,0,0-.24-1Zm.64,4.08c.81.34,2.25,1.29,2.25,2.37a.67.67,0,0,1-.68.7c-.54,0-.63-.41-.87-1.32a4.52,4.52,0,0,0-.8-1.67Zm4.16-4.22c.18,0,.35.12.35.31s-.25.32-.52.45c0,3.27,0,5.85,0,7.23,0,.92.11,5.35.11,5.81,0,1-.74,1-.82,1s-.51,0-.51-.62c0-.23,0-1.31.05-1.53,0-.64,0-1.32,0-2.6,0-5.35,0-7.14-.05-8.36a4.66,4.66,0,0,0-.41-2.07Z"/><path d="M464.15,238.91h-6.52l.58.51c.12.11.2.21.2.31s-.28.27-.69.29c-.24.37-.55.92-1.21,1.9l.94.31c.13.05.27.1.27.27s-.17.36-.57.58c0,.92,0,1.36,0,3.06,0,2.24,0,3.43.05,4.26,0,.19.05,1.13.05,1.33a.86.86,0,0,1-.86.82c-.49,0-.51-.36-.51-.6,0,0,0-.1,0-.46.08-1.68.13-4.28.13-6.12,0-1.34,0-1.77-.05-2.63-1,1.39-3.4,4.62-6.65,6.25l-.06-.1a42.22,42.22,0,0,0,5.82-7,10,10,0,0,0,1.55-3h-4.67a10.73,10.73,0,0,0-1.94.16l-.33-.68c.84.06,1.69.12,2.54.12h9.56l.75-.91c.09-.11.18-.2.28-.2a.87.87,0,0,1,.38.2l1.07.87a.39.39,0,0,1,.16.26C464.41,238.88,464.28,238.91,464.15,238.91Zm-.71,8.84c-.55,0-.73-.32-1.39-1.46a11.35,11.35,0,0,0-3.46-3.74l0-.1c2.51.54,5.46,3,5.46,4.52C464.08,247.55,463.72,247.75,463.44,247.75Z"/><path d="M476.17,240.72h-3.89v1.41h1.51l.4-.5c.08-.1.15-.17.23-.17a.45.45,0,0,1,.28.16l.61.56a.4.4,0,0,1,.15.29c0,.12-.08.23-.41.46,0,.49,0,2.65,0,3.07a.76.76,0,0,1-.77.9c-.22,0-.32-.17-.3-.44h-1.71V248h1.23l.45-.56c.1-.12.18-.2.28-.2a.63.63,0,0,1,.33.18l.66.55a.36.36,0,0,1,.16.27c0,.1-.08.17-.26.17h-2.85V250c1.28-.22,2.22-.37,3.15-.59v.13a42.18,42.18,0,0,1-6.77,2.2c-.1.25-.2.4-.36.4a.27.27,0,0,1-.26-.2l-.76-1.48a2.91,2.91,0,0,0,.64.05,30,30,0,0,0,3.33-.35V248.4H470a11.69,11.69,0,0,0-1.94.15l-.32-.68c1.12.1,2.3.12,2.53.12h1v-1.53h-1.7a.64.64,0,0,1-.13.56,1.08,1.08,0,0,1-.64.31c-.18,0-.32-.09-.32-.48,0-.66.05-3.53.05-4.11a9.14,9.14,0,0,0-.13-1.38l1.35.77h1.52v-1.41h-1.61a10.61,10.61,0,0,0-1.93.15l-.33-.68c1,.08,2.07.12,2.54.12h1.33V239a20.1,20.1,0,0,1-2.72.22h-.77v-.12c1.84-.41,4.71-1.11,6.13-2.06l1,.93a.36.36,0,0,1,.14.26c0,.15-.15.2-.4.2a1.61,1.61,0,0,1-.35-.06,15.26,15.26,0,0,1-2,.47v1.5h2l.57-.73c.11-.14.18-.21.28-.21a.57.57,0,0,1,.31.17l.84.73a.41.41,0,0,1,.16.26C476.41,240.66,476.32,240.72,476.17,240.72Zm-4.92,1.81h-1.71v1.52h1.71Zm0,1.93h-1.71v1.59h1.71Zm2.76-1.93h-1.73v1.52H474Zm0,1.93h-1.73v1.59H474Zm7.62-2.21c0,5.69-.3,7.08-.66,8.1a2.79,2.79,0,0,1-2.41,2,2.88,2.88,0,0,0-1.78-1.9l.05-.12a10,10,0,0,0,2,.25c.4,0,.79,0,1.14-1a34.53,34.53,0,0,0,.59-6,11.79,11.79,0,0,0-.1-1.79h-1.7c0,2.76-.26,8.47-5,10.63l-.08-.1c3.76-3,3.89-7.47,4-10.53a11.22,11.22,0,0,0-1.9.16l-.33-.68c.65,0,1.09.08,2.23.12a17.5,17.5,0,0,0-.31-4.64l1.71.59c.18.07.28.15.28.27a.36.36,0,0,1-.11.24,4.19,4.19,0,0,1-.42.31v3.23h1.42l.56-.58c.14-.14.22-.19.3-.19s.17,0,.33.17l.64.53a.37.37,0,0,1,.17.29C482.19,241.84,481.94,242,481.63,242.25Z"/><path d="M499.55,243H488.32c.15,5.23-.53,7.44-2.79,9.31l-.08-.07a11.88,11.88,0,0,0,1.75-6.69,16.74,16.74,0,0,0-.37-3.73l1.64.77h5.31A19.94,19.94,0,0,0,495,239.3h-6.66a11,11,0,0,0-1.95.16l-.31-.68c1,.08,2.06.12,2.52.12h3.47a9.2,9.2,0,0,0-.27-2l1.72.42c.11,0,.23.07.23.24s-.4.39-.58.49v.89h3.48l.71-.82c.13-.15.18-.22.26-.22s.14,0,.3.17l1.06.83a.39.39,0,0,1,.16.26c0,.17-.13.18-.24.18h-3.34l1,.58a.2.2,0,0,1,.13.19c0,.24-.25.29-.67.39a27.65,27.65,0,0,1-1.93,2.16h3.21l.61-.77c.1-.13.17-.2.25-.2s.16,0,.33.17l1.09.77c.11.08.18.15.18.25S499.67,243,499.55,243Zm.13,8.58h-9.45a10.92,10.92,0,0,0-1.94.16l-.32-.69c1.14.11,2.39.12,2.53.12h2.31v-2.43h-1.09a10.76,10.76,0,0,0-1.93.16l-.33-.68c1.12.1,2.32.11,2.54.11h.81v-2.09h-2.25a10,10,0,0,1-2.14,2.71l-.08,0a22.47,22.47,0,0,0,2.12-5.43l1.45.65c.15.07.17.13.17.19s-.07.18-.58.44c-.13.17-.46.71-.67,1.09h2a12.28,12.28,0,0,0-.19-2.59l1.6.31c.09,0,.22,0,.22.2s-.27.32-.53.49c0,.24,0,1.35,0,1.59h2.43l.58-.82c.1-.14.18-.22.26-.22s.15.07.3.19l1,.81a.32.32,0,0,1,.17.26c0,.15-.15.18-.26.18h-4.43v2.09h2l.49-.62c.13-.16.17-.21.27-.21s.13.05.29.17l.91.65c.13.1.16.17.16.24s-.14.18-.24.18h-3.85v2.43h3.57l.74-.71c.1-.09.21-.19.28-.19s.13,0,.3.17l1,.7a.37.37,0,0,1,.16.26C499.93,251.58,499.8,251.61,499.68,251.61Zm-9.23-9.25c-.4,0-.43-.11-.8-1.1a4.44,4.44,0,0,0-.95-1.63l0-.09c.68.24,2.39.85,2.39,2A.73.73,0,0,1,490.45,242.36Z"/><path d="M509.07,239.29c-1.61,2.51-2.86,4.4-6,6.29l-.08-.12c2.65-2.64,5-6.12,4.86-7.86l1.69,1a.37.37,0,0,1,.19.29C509.72,239.1,509.58,239.19,509.07,239.29Zm6.81,12.32c-.4,0-.68-.27-.88-.75l-.69-1.61a77.14,77.14,0,0,1-8.23,2.07c-.28.38-.36.46-.51.46s-.23-.17-.27-.27l-.54-1.77a6.66,6.66,0,0,0,1.35.16c.13,0,1.09-.09,1.29-.11a32.61,32.61,0,0,0,2.21-6.13,3.66,3.66,0,0,0,.05-1l1.71.75c.1.05.25.13.25.29s-.2.29-.56.4c-.18.31-.31.55-1.52,2.73-.49.86-1,1.78-1.76,2.9,1.9-.2,4.24-.49,6.35-.78a9.28,9.28,0,0,0-2-2.23l.05-.12c1.93.74,4.37,2.43,4.37,4.1A.79.79,0,0,1,515.88,251.61Zm1-6.58a8.92,8.92,0,0,1-3.1-2.78,8.6,8.6,0,0,1-1.61-4.07,13.38,13.38,0,0,0-2.17.19l-.34-.68c.43,0,1.27.08,2.13.08l.47-.57c.12-.14.19-.22.27-.22a.69.69,0,0,1,.34.18l.73.55a.33.33,0,0,1,.17.25c0,.15-.12.22-.38.34l-.76.31a7,7,0,0,0,5.89,4.86v.12A2.65,2.65,0,0,0,516.93,245Z"/><path d="M535.37,251.22H523.05a11.79,11.79,0,0,0-1.95.15l-.33-.66c1.3.1,2.51.1,2.54.1h.56v-4.48c0-.92,0-3-.11-3.78a2,2,0,0,0-.17-.59l1.7.52c.13,0,.23.11.23.26s-.13.27-.49.49c0,1.07,0,6.39,0,7.58H528V238.57h-4a10,10,0,0,0-1.94.16l-.33-.68c.81.06,1.73.12,2.54.12h8.21l.71-.9c.12-.14.18-.21.27-.21a.64.64,0,0,1,.31.17l1,.9c.08.09.16.15.16.26s-.14.18-.24.18h-5.51v5.49h2.07l.66-.83c.12-.15.2-.2.29-.2a.57.57,0,0,1,.31.17l.89.83a.49.49,0,0,1,.15.27c0,.12-.1.17-.25.17h-4.12v6.34H533l.79-.91c.13-.16.23-.24.31-.24a.8.8,0,0,1,.35.2l1,.92c.08.08.15.15.15.25S535.47,251.22,535.37,251.22Z"/><path d="M552.57,251.63a8.8,8.8,0,0,1-3.45-3.4,8.78,8.78,0,0,1-3.84,3c0,.61,0,1.22-.84,1.22-.52,0-.52-.32-.52-.64s.09-1.67.1-2,0-2,0-2.43a32,32,0,0,1-4.31,1.81c-.13.43-.23.57-.39.57s-.23-.12-.3-.29l-.63-1.67a3.37,3.37,0,0,0,.75.1,11.77,11.77,0,0,0,1.3-.15v-9.4a10.37,10.37,0,0,0-1.52.15l-.33-.68c1.31.12,2.53.12,2.54.12h4.36l.71-.8c.13-.15.19-.2.28-.2s.18,0,.33.19l.82.78a.46.46,0,0,1,.15.27c0,.14-.1.17-.25.17h-2.36c0,6.44,0,7.16.09,12.66a10.36,10.36,0,0,0,3.3-3.84,18.61,18.61,0,0,1-1.55-7.36,4.17,4.17,0,0,0-.85.12l-.33-.68c1.29.1,2.51.1,2.53.1h2.27l.47-.54c.14-.17.19-.22.28-.22s.18,0,.34.18l.76.6a.57.57,0,0,1,.23.31.27.27,0,0,1-.15.28,3.62,3.62,0,0,1-.74.48,21.42,21.42,0,0,1-2.14,6.87,8.34,8.34,0,0,0,4.32,3.06v.08A2.42,2.42,0,0,0,552.57,251.63ZM544,238.37H541.6v2.72H544Zm0,3.13H541.6v2.75H544Zm0,3.16H541.6v2.92c.86-.17,2.08-.39,2.44-.49Zm4.07-4.88-.75,0a20.39,20.39,0,0,0,1.69,6.43,18,18,0,0,0,1.6-6.46Z"/><path d="M559.13,241.46H562v-3.11H558.8a11.13,11.13,0,0,0-1.95.16l-.31-.67c1.09.09,2.21.1,2.52.1H562l.38-.42c.08-.08.15-.19.26-.19a.68.68,0,0,1,.25.11l.64.42c.08,0,.25.14.25.32s-.17.31-.58.6c0,.51.07,2.77.07,3.21a.71.71,0,0,1-.15.48.91.91,0,0,1-.68.27c-.36,0-.46-.17-.38-.87h-3.15c-.06.39-.44,2.74-.46,2.82h3.37l.46-.52a.36.36,0,0,1,.28-.19.52.52,0,0,1,.26.12l.68.51a.38.38,0,0,1,.18.3c0,.21-.23.36-.49.5-.19,2.21-.81,4.5-1.7,5.56a3.58,3.58,0,0,1-2.61,1.1,3.32,3.32,0,0,0-1.27-1.92v-.1a9.7,9.7,0,0,0,2.23.35c.34,0,.74,0,1.14-.76a10.91,10.91,0,0,0,1-4.54h-3.61a5,5,0,0,1-.2,1.26.94.94,0,0,1-.82.48.4.4,0,0,1-.45-.4c0-.15.47-2.12.53-2.48a14.44,14.44,0,0,0,.3-3.24Zm10.37-3.89c.15,0,.3.05.3.24s-.15.34-.56.58c0,.32,0,4.48,0,7.71,0,.82.13,4.46.13,5.21a.8.8,0,0,1-.22.66,1.35,1.35,0,0,1-.74.27c-.38,0-.45-.3-.45-.56,0-.1,0-.2,0-.42.08-1.38.08-3.15.08-3.85,0-6.34,0-8-.07-8.55a10.62,10.62,0,0,0-.29-1.7Z"/><path d="M578.78,241.26h-2.32c0,3.72,0,4.54,0,5.58,0,.74.05,4.06.05,4.74,0,.3,0,.83-.81.83a.43.43,0,0,1-.48-.47c0-.26.1-1.43.11-1.69.05-1.22.05-1.75.07-5,0-2.39,0-2.53,0-4a12,12,0,0,0-1.88.15l-.33-.66c.46,0,1,.08,2.21.1,0-2.51,0-3.38-.38-4.09l1.82.52c.1,0,.21.1.21.24s0,.2-.57.51c0,.46,0,2.43,0,2.82h.77l.5-.54c.08-.1.18-.22.26-.22a.58.58,0,0,1,.3.18l.59.56a.37.37,0,0,1,.15.26C579,241.24,578.9,241.26,578.78,241.26Zm3.81,5.22c-.42,4.76-.92,5.44-2.67,5.62a2,2,0,0,0-.87-1.68l.05-.13a3.91,3.91,0,0,0,1.32.28c.43,0,.52-.1.79-1.42a17.42,17.42,0,0,0,.36-3.15h-1.2c-.32,2-1.16,4.71-3.57,5.94l-.06-.09a8.86,8.86,0,0,0,2.57-5.83,9,9,0,0,0-1.65.15l-.33-.68c.61,0,1.09.09,2,.1a6.53,6.53,0,0,0-.09-2.05l1.5.54a.26.26,0,0,1,.21.24c0,.14-.36.37-.44.42,0,.33,0,.46-.09.85h1l.4-.42c.11-.12.16-.17.23-.17s.15.08.21.15l.68.61a.34.34,0,0,1,.13.24C583.07,246.12,583,246.16,582.59,246.48Zm3.81-6.9c-.72,3.43-1.86,3.55-2.85,3.67a2.38,2.38,0,0,0-1-1.8l.07-.1a4.65,4.65,0,0,0,1.48.4c.84,0,1.22-1.95,1.4-2.89H583a6.51,6.51,0,0,1-4.57,4.76l0-.1a7.91,7.91,0,0,0,3.48-4.66h-.85a9.44,9.44,0,0,0-2,.16l-.33-.68c1.14.1,2.31.11,2.54.11H582a7,7,0,0,0,.12-1.18,1.47,1.47,0,0,0-.12-.67l1.69.53a.18.18,0,0,1,.14.17c0,.1-.26.27-.52.44-.1.41-.14.53-.19.71h2.13l.27-.34a.38.38,0,0,1,.28-.15.34.34,0,0,1,.23.1l.87.75a.27.27,0,0,1,.13.22C587.06,239.22,586.65,239.44,586.4,239.58Zm1.77,6.61a2.38,2.38,0,0,0-.35.24c0,1.78-.24,4.08-.76,4.93-.09.17-.52.86-2,1a2.88,2.88,0,0,0-.93-1.67l0-.13a4.39,4.39,0,0,0,1.41.29c.66,0,.71-.31.9-1.43a21.34,21.34,0,0,0,.25-3.37h-1.22c-.43,2.47-1.06,4.68-3.84,6.11l-.05-.09a9.61,9.61,0,0,0,2.87-6,4.5,4.5,0,0,0-.76.11l-.33-.68c.56.05.81.06,1.15.08a12,12,0,0,0,0-1.24,3.73,3.73,0,0,0-.13-1.27l1.57.57a.32.32,0,0,1,.21.26c0,.18-.43.41-.51.46-.07.63-.1.92-.16,1.24a1.94,1.94,0,0,0,.36,0h.64l.42-.5c.06-.08.14-.17.19-.17a.44.44,0,0,1,.25.12l.79.61a.38.38,0,0,1,.15.22C588.4,246.05,588.28,246.12,588.17,246.19Z"/><path d="M596.68,240.36h-2.94a9.87,9.87,0,0,0-1.93.15l-.33-.68c1.12.1,2.29.12,2.52.12h1.11l.41-.61c0-.05.15-.21.26-.21s.22.11.3.17l.69.62a.33.33,0,0,1,.15.25C596.92,240.32,596.79,240.36,596.68,240.36Zm-.4,7a2.16,2.16,0,0,0,0,.35c0,.5.1,2.67.1,3.11a.68.68,0,0,1-.71.68c-.5,0-.47-.39-.43-.78h-2a4.66,4.66,0,0,1,0,1,.8.8,0,0,1-.72.45.38.38,0,0,1-.43-.4s0-.16,0-.33c.07-.56.1-2.87.1-4a10.69,10.69,0,0,0-.06-1.55l1.27.73h1.74l.29-.44c0-.05.14-.19.21-.19a.74.74,0,0,1,.3.16l.66.49a.3.3,0,0,1,.13.2C596.71,247.09,596.59,247.14,596.28,247.4Zm-.1-9.1h-2.29a7.9,7.9,0,0,0-1.37.1l-.22-.59c.88.07,1.67.08,1.7.08h.66l.42-.49c.08-.1.16-.2.24-.2s.15.05.32.17l.62.49a.35.35,0,0,1,.17.25C596.43,238.27,596.3,238.3,596.18,238.3Zm-.08,4.18h-2.21a7,7,0,0,0-1.37.11l-.22-.6c.73,0,1.47.09,1.8.09h.63l.35-.5c0-.05.14-.22.26-.22s.25.14.3.19l.56.49a.35.35,0,0,1,.15.26C596.35,242.47,596.2,242.48,596.1,242.48Zm.11,2.15h-2.27a5.9,5.9,0,0,0-1.37.1l-.23-.6c.87.07,1.7.09,1.78.09h.58l.42-.56c0-.07.14-.21.25-.21a.67.67,0,0,1,.32.17l.61.56c.1.09.16.16.16.26S596.36,244.63,596.21,244.63Zm-1,2.46h-2v3.26h2Zm11.2-.76h-3.71a9.34,9.34,0,0,0,.43,1.95,6.75,6.75,0,0,0,1.07-1.63l1,.8c.08.07.14.08.14.2s-.24.24-.61.22c-.7.68-.94.92-1.27,1.21a3.15,3.15,0,0,0,1.47,1.51c.1,0,.23-.13.3-.22a11.31,11.31,0,0,0,1-1.63h.12a15,15,0,0,0-.3,2.17.69.69,0,0,0,.15.43.73.73,0,0,1,.2.39c0,.19-.17.39-.58.39a4.71,4.71,0,0,1-3.05-2.41,8.78,8.78,0,0,1-2.76,1.43l0-.12a13.86,13.86,0,0,0,2.46-2,9.8,9.8,0,0,1-.63-2.71h-2v1.51c.89-.26,1.24-.38,1.72-.53l.06.1a9.6,9.6,0,0,1-1.78,1c0,.45,0,2.17,0,2.43,0,1-.77,1.25-1.48,1.39-.28-.78-.32-.85-1.19-1.43v-.07a5.29,5.29,0,0,0,1.06.09c.41,0,.61,0,.66-.37s0-1.28,0-1.6c-.22.1-1.13.51-1.31.61s-.23.39-.31.39-.17-.12-.2-.22l-.48-1.22a9.26,9.26,0,0,0,2.3-.34c0-.19,0-1.18,0-1.75a9.69,9.69,0,0,0-1.9.15l-.31-.68c.79.07,1.3.08,2.21.1v-1.14a15,15,0,0,1-2,.26l0-.12c2.38-.87,2.79-1.16,3.22-1.58l.79.69a.26.26,0,0,1,.1.19c0,.2-.26.17-.43.14a4.58,4.58,0,0,1-.76.23l0,1.35h2c0-.43-.21-2.3-.29-2.67l1.32.29c.21.05.23.1.23.18s-.14.22-.38.39a15.19,15.19,0,0,0,0,1.81h2.05l.51-.73c.13-.19.19-.22.24-.22s.2.1.32.2l.72.71a.37.37,0,0,1,.15.26C606.67,246.29,606.54,246.33,606.42,246.33Zm-.36-3.37h-6.88a12,12,0,0,0-1.93.15l-.33-.66c1.31.1,2.25.1,2.53.1h1.22v-1.32h-.38a10.68,10.68,0,0,0-1.95.15l-.33-.68c1.26.12,2.39.12,2.66.12v-1.31h-1.24a10,10,0,0,0-1.93.15l-.33-.68c1.3.1,2.24.12,2.52.12h2a6.77,6.77,0,0,0,.68-2.36l1.34.71c.08.05.21.12.21.26s-.21.2-.63.22A12.3,12.3,0,0,1,602,239.1h2.07l.47-.58c.1-.12.15-.2.25-.2a.51.51,0,0,1,.31.19l.7.56a.34.34,0,0,1,.16.25c0,.17-.16.19-.25.19h-4v1.31h1.65l.4-.53c.1-.12.16-.22.26-.22a.7.7,0,0,1,.3.19l.64.52a.35.35,0,0,1,.17.26c0,.17-.17.19-.25.19h-3.17v1.32h2.61l.54-.63c.14-.15.15-.22.27-.22s.18.07.31.19l.69.64a.33.33,0,0,1,.17.26C606.31,243,606.14,243,606.06,243Zm-6-4.05c-.37,0-.46-.22-.65-.69a3.61,3.61,0,0,0-.76-1.29l.07-.12c.41.08,1.93.4,1.93,1.47A.6.6,0,0,1,600.06,238.91Zm4.24,6.41c-.35,0-.45-.24-.53-.47a3,3,0,0,0-.56-1l0-.12c.41,0,1.55.19,1.55,1A.53.53,0,0,1,604.3,245.32Z"/><path d="M622.86,244a13,13,0,0,1-6-6.12l-.06,0a18.67,18.67,0,0,1-7.56,6.82l-.05-.11a22.42,22.42,0,0,0,6.07-6.78,3.1,3.1,0,0,0,.5-1.15l1.66.54c.09,0,.27.12.27.29s-.17.24-.51.32a10.89,10.89,0,0,0,7.29,4.76v.12A3.34,3.34,0,0,0,622.86,244Zm.14,2.38h-6.62a25.69,25.69,0,0,1-2.72,3.89c2-.13,4.59-.39,6.45-.62a9.51,9.51,0,0,0-1.82-2.35l.1-.1c2.26,1.05,4.06,2.77,4.06,4.2,0,.27-.18.83-.72.83s-.76-.46-1-1.05a7.12,7.12,0,0,0-.49-1.24c-1.34.42-7.41,1.75-8.35,1.9-.1.22-.15.37-.3.37s-.21-.17-.26-.3l-.69-1.72a6.58,6.58,0,0,0,1.47.15c.34,0,.67,0,1.18-.05a24.36,24.36,0,0,0,1.36-3.91h-2.33a11.1,11.1,0,0,0-1.93.16l-.33-.67c1.3.1,2.24.1,2.52.1h7.92l.84-.93c.12-.14.2-.2.28-.2s.18.08.3.17l1.14.93a.39.39,0,0,1,.16.26C623.24,246.34,623.08,246.34,623,246.34Zm-3.62-2.94h-4.24a11.93,11.93,0,0,0-1.94.15l-.33-.68c1.14.11,2.32.12,2.54.12h1.85l.74-.85c.08-.08.16-.2.26-.2a.66.66,0,0,1,.3.17l.91.85c.08.08.16.15.16.27S619.48,243.4,619.38,243.4Z"/><path d="M635,241.26c-.05.05-.33.24-.43.32,0,.84-.13,4.93-.21,5.85-.3,3.52-.94,4.62-2.92,4.79,0-.51-.2-1.05-1.8-2l0-.13a8.77,8.77,0,0,0,2,.35c.49,0,1.07,0,1.32-1.43a49,49,0,0,0,.44-7.88h-2.27c-.05,2.78-.15,8.17-4.26,11.08l-.1-.08a11,11,0,0,0,2.44-4.83,23.19,23.19,0,0,0,.75-6.17h-.75a10.84,10.84,0,0,0-1.94.15l-.33-.68c1.32.12,2.27.12,2.54.12h.48a14.78,14.78,0,0,0-.29-4l1.82.56c.11,0,.3.14.3.31s0,.2-.6.56c0,.25,0,.37,0,.56s0,1.72,0,2h2.08l.61-.61c.06-.07.11-.14.19-.14a.47.47,0,0,1,.23.12l.76.65a.42.42,0,0,1,.15.29C635.13,241.14,635.05,241.21,635,241.26Zm6.55-.54c-.08.08-.28.23-.36.32,0,1.43,0,7.14,0,8.33,0,.27.09,1.46.09,1.71a.82.82,0,0,1-.82.92c-.43,0-.48-.25-.48-.59s0-.44,0-.75h-2.72c0,.63.08,1.61-.88,1.61-.46,0-.46-.37-.46-.52s0-.49,0-.56c.08-2,.13-6.46.13-8.55a19.69,19.69,0,0,0-.22-3.59l1.59.93h2.32l.55-.49c0-.05.1-.1.16-.1s.18.09.27.17l.72.66a.48.48,0,0,1,.15.27C641.68,240.58,641.6,240.65,641.53,240.72Zm-1.48-.33h-2.74v9.86h2.74Z"/><path d="M655.48,247.09l.43-.42a.75.75,0,0,1,.26-.17c.07,0,.1,0,.27.17l.69.59a.44.44,0,0,1,.16.27c0,.16,0,.19-.49.48a6.05,6.05,0,0,0,0,.63c0,.37.05,2.07.05,2.41h.84l.57-.8c.1-.15.17-.24.29-.24s.21.11.31.19l.87.82a.34.34,0,0,1,.17.27c0,.15-.13.17-.25.17H647.23a11.93,11.93,0,0,0-1.94.15L645,251c.33,0,1.07.08,2.26.1a22.49,22.49,0,0,0-.19-4.74l1.49.78ZM650,237.66l.33-.36c.08-.09.15-.15.23-.15s.15.06.27.15l.72.54a.34.34,0,0,1,.17.26c0,.15-.22.3-.56.54a10.67,10.67,0,0,0,0,1.12c0,.45.09,3.44.12,3.76a2.55,2.55,0,0,1,0,.31c0,.44-.43.69-.89.69s-.35-.18-.33-.76h-2.44c0,.83.1,1.66-.81,1.66-.39,0-.39-.27-.39-.45s.08-1.43.08-3.69a20.81,20.81,0,0,0-.18-4.34l1.4.72Zm-2.39.4v2.42H650v-2.42Zm0,2.83v2.46H650v-2.46Zm.79,6.61v3.55h1.68V247.5Zm5.31-4.63c-.21.85-.81,3.08-4.4,3.74l0-.11c2.75-1.19,3.62-3,3.62-6.57a11.38,11.38,0,0,0-.31-3.19l1.54.81h3l.34-.39c.1-.1.15-.17.22-.17s.06,0,.26.16l.79.56a.26.26,0,0,1,.15.22c0,.25-.43.51-.54.56,0,.64,0,2.06,0,3,0,.57.06,2.41.06,2.88s0,1.57-1.81,2a2.23,2.23,0,0,0-1.39-1.6l0-.12a7.11,7.11,0,0,0,1.07.05c.71,0,.79,0,.89-.15s.09-.26.09-.92v-.75Zm-2.52,4.63v3.55h1.68V247.5Zm6.09-5v-2.08H654a12.47,12.47,0,0,1-.19,2.08Zm-1.57,8.58V247.5H654v3.55ZM657.25,240v-2H654v2Z"/><path class="cls-1" d="M182,124.12c0,16.23-6.8,26.56-16.91,26.56-9.66,0-14.58-10.61-14.58-24.06,0-18.94,9-26.08,17.51-26.08C177.64,100.54,182,110.11,182,124.12Zm-16-20.11c-7.59,0-9.79,8-9.79,19.49,0,10.33,2.27,23.64,10.65,23.64s9.46-10.81,9.46-21.56C176.38,116.28,174.18,104,166.06,104Z"/><path class="cls-1" d="M224.91,119.68c0,20-18.91,31.63-27,31.63-2.79,0-2.53-2-.13-2.57,13.18-3.19,19.84-12.34,21-23.37-2.07,1.8-7.06,5.34-12.39,5.34-6.72,0-12.18-6.11-12.18-13.94a16,16,0,0,1,16.11-16.23C219.79,100.54,224.91,109.07,224.91,119.68ZM219,121.55c0-13.17-4.93-17.82-10.85-17.82-4.6,0-8.26,2.84-8.33,10.61-.06,8.67,5.33,11.72,10.26,11.72a13.65,13.65,0,0,0,8.92-3.4Z"/><path class="cls-1" d="M263.59,131.82a18.45,18.45,0,0,0,5.4-.49c.6-.14,1,.14,1,.63a8.11,8.11,0,0,1-.94,3.12c-.33.55-.93.69-2.39.69h-5.33V145c0,2.36.07,3.54-.13,3.82-.6.9-3.13,1.52-4.66,1.52-.73,0-.93-.55-.73-1.31a18.81,18.81,0,0,0,.33-3.4c0-1.11.13-3.68.13-9.85h-5.06c-12.51,0-14.18,0-15-.28a1.07,1.07,0,0,1-.74-1,6.28,6.28,0,0,1,1.34-3.05c4.19-5.82,15.44-22.61,19.77-27.95a11.17,11.17,0,0,1,2.06-1.8c.53-.35,2-1.46,2.8-1.46.4,0,.8.49.6,1.25a18.74,18.74,0,0,0-.67,4.72v25.59Zm-7.32-23.51C251,115.38,242.16,129,241,130.78c-.14.34,0,.69.4.69,1,.07,3.06.28,14.84.35Z"/><path class="cls-1" d="M282.77,129.88c1.4-.14,14.31-.42,16.31-.35,1.4.07,1.6.35,1.6,1a3.94,3.94,0,0,1-1.67,3.05c-1.53.7-14,.83-16.31.76-.46,0-1.13-.13-1.2-.9A5.24,5.24,0,0,1,282.77,129.88Z"/><path class="cls-1" d="M341,119.68c0,20-18.91,31.63-27,31.63-2.8,0-2.53-2-.13-2.57,13.18-3.19,19.83-12.34,21-23.37-2.06,1.8-7.05,5.34-12.38,5.34-6.72,0-12.18-6.11-12.18-13.94a16,16,0,0,1,16.11-16.23C335.83,100.54,341,109.07,341,119.68ZM335,121.55c0-13.17-4.92-17.82-10.85-17.82-4.59,0-8.25,2.84-8.32,10.61-.07,8.67,5.33,11.72,10.25,11.72a13.61,13.61,0,0,0,8.92-3.4Z"/><path class="cls-1" d="M379.64,131.82a18.37,18.37,0,0,0,5.39-.49c.6-.14,1,.14,1,.63a8.1,8.1,0,0,1-.93,3.12c-.33.55-.93.69-2.4.69h-5.32V145c0,2.36.06,3.54-.14,3.82-.59.9-3.13,1.52-4.66,1.52-.73,0-.93-.55-.73-1.31a18.81,18.81,0,0,0,.33-3.4c0-1.11.14-3.68.14-9.85h-5.06c-12.52,0-14.18,0-15.05-.28a1.07,1.07,0,0,1-.73-1,6.34,6.34,0,0,1,1.33-3.05c4.2-5.82,15.45-22.61,19.77-27.95a10.93,10.93,0,0,1,2.07-1.8c.53-.35,2-1.46,2.79-1.46.4,0,.8.49.6,1.25a18.73,18.73,0,0,0-.66,4.72v25.59Zm-7.32-23.51C367,115.38,358.2,129,357.07,130.78c-.13.34,0,.69.4.69,1,.07,3.06.28,14.85.35Z"/><path class="cls-1" d="M421.52,113.86c0,9.7-10.19,19.14-20.17,29.61-.34.28-.34.62,0,.69.66.14,9.85.56,16.11.56,2.33,0,3.53-.63,5.59-5.9.8-2.22,2.4-1.94,2.4.07a34.5,34.5,0,0,1-1.8,8.67c-.67,1.94-1.33,2.15-4.46,2.15s-20.37-.21-21.11-.21-3.19.07-3.59.07a1.32,1.32,0,0,1-.73-2.29c.86-.9,2.06-2.08,2.46-2.49,11-11.45,19-20.11,19-29.55,0-6.24-2.86-9.64-8.32-9.64-3.93,0-6.46,1.67-9.58,5.62-1.87,2.36-3.53.9-2.14-1.46,3.07-5.13,7.66-9.36,14.32-9.36C414.66,100.4,421.52,104,421.52,113.86Z"/><path class="cls-1" d="M438,129.88c1.4-.14,14.32-.42,16.32-.35,1.39.07,1.59.35,1.59,1a3.93,3.93,0,0,1-1.66,3.05c-1.53.7-14,.83-16.31.76-.47,0-1.13-.13-1.2-.9A5.23,5.23,0,0,1,438,129.88Z"/><path class="cls-1" d="M489,110.67c0,5.47-4,8.94-8.32,11.3,5.26.83,11.91,3.68,12,11.1.07,8.87-9.52,17.61-19.84,17.61-3.79,0-6.46-1.39-7.52-2.7a4.33,4.33,0,0,1-1.2-2.92,7.24,7.24,0,0,1,.86-3.26,1,1,0,0,1,1.8.07c.34,1.25,2.53,5.07,9.39,5.07s10.32-4.72,10.32-10.82-3-10.68-10.25-10.68a23,23,0,0,0-3.07.34c-1.39.14-1.66-1.73.14-2.42,5.39-2,10.25-5.2,10.25-10.61,0-3.47-1.86-7.49-7.79-7.49-4.06,0-6.86,2.91-8.39,4.5-1.86,2.09-3.39.63-1.86-1.59,1.2-1.6,6-7.77,13.18-7.77A10.27,10.27,0,0,1,489,110.67Z"/><path class="cls-1" d="M536.23,124.12c0,16.23-6.79,26.56-16.91,26.56-9.65,0-14.58-10.61-14.58-24.06,0-18.94,9.06-26.08,17.51-26.08C531.84,100.54,536.23,110.11,536.23,124.12Zm-16-20.11c-7.59,0-9.78,8-9.78,19.49,0,10.33,2.26,23.64,10.65,23.64s9.45-10.81,9.45-21.56C530.57,116.28,528.38,104,520.25,104Z"/><path class="cls-1" d="M572.25,110.67c0,5.47-4,8.94-8.32,11.3,5.26.83,11.92,3.68,12,11.1.07,8.87-9.52,17.61-19.84,17.61-3.79,0-6.46-1.39-7.52-2.7a4.33,4.33,0,0,1-1.2-2.92,7.13,7.13,0,0,1,.87-3.26.94.94,0,0,1,1.79.07c.34,1.25,2.53,5.07,9.39,5.07s10.32-4.72,10.32-10.82-3-10.68-10.25-10.68a22.61,22.61,0,0,0-3.06.34c-1.4.14-1.67-1.73.13-2.42,5.39-2,10.25-5.2,10.25-10.61,0-3.47-1.86-7.49-7.79-7.49-4.06,0-6.85,2.91-8.39,4.5-1.86,2.09-3.39.63-1.86-1.59,1.2-1.6,6-7.77,13.18-7.77A10.27,10.27,0,0,1,572.25,110.67Z"/><path class="cls-1" d="M612.86,113.86c0,9.7-10.18,19.14-20.17,29.61-.33.28-.33.62,0,.69.67.14,9.85.56,16.11.56,2.33,0,3.53-.63,5.6-5.9.79-2.22,2.39-1.94,2.39.07a34.06,34.06,0,0,1-1.8,8.67c-.66,1.94-1.33,2.15-4.46,2.15s-20.37-.21-21.1-.21-3.2.07-3.6.07a1.32,1.32,0,0,1-.73-2.29c.87-.9,2.07-2.08,2.47-2.49,11-11.45,19-20.11,19-29.55,0-6.24-2.86-9.64-8.32-9.64-3.93,0-6.46,1.67-9.59,5.62-1.86,2.36-3.53.9-2.13-1.46,3.06-5.13,7.66-9.36,14.31-9.36C606,100.4,612.86,104,612.86,113.86Z"/><path class="cls-2" d="M77.67,120.16A28,28,0,1,1,99,153.46,28,28,0,0,1,77.67,120.16Z"/><path class="cls-1" d="M99.68,118.94c2-1.17,3.58-2.25,4.14-2.57s.53-1.17.06-2-4.37-7.33-4.37-7.33c-.61-1-1.28-2.07-2.23-1.5L93.18,108c-2.45,1.45-5.69,9.64,2.81,23.9s17.24,15.32,19.69,13.86l4.09-2.44c1-.57.35-1.65-.25-2.68l-4.37-7.33c-.47-.79-1.2-1.21-1.76-.88s-2.25,1.24-4.22,2.41-4.17-1.79-7-6.6S97.71,120.11,99.68,118.94Z"/></g></svg>